<?xml version="1.0" encoding="UTF-8" standalone="no"?>
<!DOCTYPE svg PUBLIC "-//W3C//DTD SVG 1.1//EN"
 "http://www.w3.org/Graphics/SVG/1.1/DTD/svg11.dtd">
<!-- Generated by graphviz version 12.2.1 (20241206.2353)
 -->
<!-- Title: include/zklang/Dialect/ZHL/Typing/Analysis.h Pages: 1 -->
<svg width="515pt" height="238pt"
 viewBox="0.00 0.00 515.12 238.00" xmlns="http://www.w3.org/2000/svg" xmlns:xlink="http://www.w3.org/1999/xlink">
<g id="graph0" class="graph" transform="scale(1 1) rotate(0) translate(4 234)">
<title>include/zklang/Dialect/ZHL/Typing/Analysis.h</title>
<!-- Node1 -->
<g id="Node000001" class="node">
<title>Node1</title>
<g id="a_Node000001"><a xlink:title=" ">
<polygon fill="#999999" stroke="#666666" points="244.88,-230 126.88,-230 126.88,-199.5 244.88,-199.5 244.88,-230"/>
<text text-anchor="start" x="134.88" y="-216.5" font-family="Helvetica,sans-Serif" font-size="10.00">include/zklang/Dialect</text>
<text text-anchor="middle" x="185.88" y="-205.25" font-family="Helvetica,sans-Serif" font-size="10.00">/ZHL/Typing/Analysis.h</text>
</a>
</g>
</g>
<!-- Node2 -->
<g id="Node000002" class="node">
<title>Node2</title>
<g id="a_Node000002"><a xlink:href="_helpers_8h.html" target="_top" xlink:title=" ">
<polygon fill="white" stroke="#666666" points="241.88,-163.5 129.88,-163.5 129.88,-133 241.88,-133 241.88,-163.5"/>
<text text-anchor="start" x="137.88" y="-150" font-family="Helvetica,sans-Serif" font-size="10.00">include/zklang/Dialect</text>
<text text-anchor="middle" x="185.88" y="-138.75" font-family="Helvetica,sans-Serif" font-size="10.00">/ZML/Utils/Helpers.h</text>
</a>
</g>
</g>
<!-- Node1&#45;&gt;Node2 -->
<g id="edge1_Node000001_Node000002" class="edge">
<title>Node1&#45;&gt;Node2</title>
<g id="a_edge1_Node000001_Node000002"><a xlink:title=" ">
<path fill="none" stroke="#63b8ff" d="M185.88,-187.81C185.88,-179.64 185.88,-170.91 185.88,-163.83"/>
<polygon fill="#63b8ff" stroke="#63b8ff" points="182.38,-187.6 185.88,-197.6 189.38,-187.6 182.38,-187.6"/>
</a>
</g>
</g>
<!-- Node3 -->
<g id="Node000003" class="node">
<title>Node3</title>
<g id="a_Node000003"><a xlink:href="_passes_2_convert_zhl_to_zml_2_patterns_8h.html" target="_top" xlink:title=" ">
<polygon fill="white" stroke="#666666" points="161.88,-97 19.88,-97 19.88,-66.5 161.88,-66.5 161.88,-97"/>
<text text-anchor="start" x="27.88" y="-83.5" font-family="Helvetica,sans-Serif" font-size="10.00">include/zklang/Passes</text>
<text text-anchor="middle" x="90.88" y="-72.25" font-family="Helvetica,sans-Serif" font-size="10.00">/ConvertZhlToZml/Patterns.h</text>
</a>
</g>
</g>
<!-- Node1&#45;&gt;Node3 -->
<g id="edge8_Node000001_Node000003" class="edge">
<title>Node1&#45;&gt;Node3</title>
<g id="a_edge8_Node000001_Node000003"><a xlink:title=" ">
<path fill="none" stroke="#63b8ff" d="M151.18,-192.49C140.32,-184.49 129.05,-174.61 120.88,-163.5 105.9,-143.14 97.62,-114.47 93.73,-97.34"/>
<polygon fill="#63b8ff" stroke="#63b8ff" points="149.09,-195.3 159.29,-198.16 153.09,-189.56 149.09,-195.3"/>
</a>
</g>
</g>
<!-- Node4 -->
<g id="Node000004" class="node">
<title>Node4</title>
<g id="a_Node000004"><a xlink:href="_convert_zhl_to_zml_2_pass_8cpp.html" target="_top" xlink:title=" ">
<polygon fill="white" stroke="#666666" points="139.75,-30.5 0,-30.5 0,0 139.75,0 139.75,-30.5"/>
<text text-anchor="start" x="8" y="-17" font-family="Helvetica,sans-Serif" font-size="10.00">lib/Passes/ConvertZhlToZml</text>
<text text-anchor="middle" x="69.88" y="-5.75" font-family="Helvetica,sans-Serif" font-size="10.00">/Pass.cpp</text>
</a>
</g>
</g>
<!-- Node1&#45;&gt;Node4 -->
<g id="edge11_Node000001_Node000004" class="edge">
<title>Node1&#45;&gt;Node4</title>
<g id="a_edge11_Node000001_Node000004"><a xlink:title=" ">
<path fill="none" stroke="#63b8ff" d="M131.81,-194.75C89.99,-176.79 35.24,-145.3 10.88,-97 4.77,-84.9 5.19,-78.81 10.88,-66.5 17.76,-51.6 31.48,-39.49 43.96,-30.89"/>
<polygon fill="#63b8ff" stroke="#63b8ff" points="130.43,-197.97 141.01,-198.56 133.1,-191.5 130.43,-197.97"/>
</a>
</g>
</g>
<!-- Node7 -->
<g id="Node000007" class="node">
<title>Node7</title>
<g id="a_Node000007"><a xlink:href="_analysis_8cpp.html" target="_top" xlink:title=" ">
<polygon fill="white" stroke="#666666" points="372.25,-163.5 259.5,-163.5 259.5,-133 372.25,-133 372.25,-163.5"/>
<text text-anchor="start" x="267.5" y="-150" font-family="Helvetica,sans-Serif" font-size="10.00">lib/Dialect/ZHL/Typing</text>
<text text-anchor="middle" x="315.88" y="-138.75" font-family="Helvetica,sans-Serif" font-size="10.00">/Analysis.cpp</text>
</a>
</g>
</g>
<!-- Node1&#45;&gt;Node7 -->
<g id="edge9_Node000001_Node000007" class="edge">
<title>Node1&#45;&gt;Node7</title>
<g id="a_edge9_Node000001_Node000007"><a xlink:title=" ">
<path fill="none" stroke="#63b8ff" d="M225.56,-194.06C245.19,-184.32 268.48,-172.76 286.49,-163.83"/>
<polygon fill="#63b8ff" stroke="#63b8ff" points="224.13,-190.86 216.73,-198.44 227.24,-197.13 224.13,-190.86"/>
</a>
</g>
</g>
<!-- Node8 -->
<g id="Node000008" class="node">
<title>Node8</title>
<g id="a_Node000008"><a xlink:href="_print_type_bindings_8cpp.html" target="_top" xlink:title=" ">
<polygon fill="white" stroke="#666666" points="507.12,-163.5 390.62,-163.5 390.62,-133 507.12,-133 507.12,-163.5"/>
<text text-anchor="start" x="398.62" y="-150" font-family="Helvetica,sans-Serif" font-size="10.00">lib/Dialect/ZHL/Typing</text>
<text text-anchor="middle" x="448.88" y="-138.75" font-family="Helvetica,sans-Serif" font-size="10.00">/PrintTypeBindings.cpp</text>
</a>
</g>
</g>
<!-- Node1&#45;&gt;Node8 -->
<g id="edge10_Node000001_Node000008" class="edge">
<title>Node1&#45;&gt;Node8</title>
<g id="a_edge10_Node000001_Node000008"><a xlink:title=" ">
<path fill="none" stroke="#63b8ff" d="M256.18,-196.51C298.04,-186.24 350.56,-173.36 390.19,-163.64"/>
<polygon fill="#63b8ff" stroke="#63b8ff" points="255.57,-193.05 246.7,-198.83 257.24,-199.85 255.57,-193.05"/>
</a>
</g>
</g>
<!-- Node2&#45;&gt;Node3 -->
<g id="edge2_Node000002_Node000003" class="edge">
<title>Node2&#45;&gt;Node3</title>
<g id="a_edge2_Node000002_Node000003"><a xlink:title=" ">
<path fill="none" stroke="#63b8ff" d="M155.08,-126.34C141.12,-116.87 124.96,-105.89 112.35,-97.33"/>
<polygon fill="#63b8ff" stroke="#63b8ff" points="152.83,-129.04 163.07,-131.76 156.76,-123.25 152.83,-129.04"/>
</a>
</g>
</g>
<!-- Node2&#45;&gt;Node4 -->
<g id="edge6_Node000002_Node000004" class="edge">
<title>Node2&#45;&gt;Node4</title>
<g id="a_edge6_Node000002_Node000004"><a xlink:title=" ">
<path fill="none" stroke="#63b8ff" d="M186.79,-121.16C186.1,-104.06 182.62,-82.07 170.88,-66.5 158.49,-50.08 139.27,-38.68 120.91,-30.94"/>
<polygon fill="#63b8ff" stroke="#63b8ff" points="183.29,-121.1 186.87,-131.07 190.29,-121.04 183.29,-121.1"/>
</a>
</g>
</g>
<!-- Node5 -->
<g id="Node000005" class="node">
<title>Node5</title>
<g id="a_Node000005"><a xlink:href="_passes_2_convert_zhl_to_zml_2_patterns_8cpp.html" target="_top" xlink:title=" ">
<polygon fill="white" stroke="#666666" points="297.75,-30.5 158,-30.5 158,0 297.75,0 297.75,-30.5"/>
<text text-anchor="start" x="166" y="-17" font-family="Helvetica,sans-Serif" font-size="10.00">lib/Passes/ConvertZhlToZml</text>
<text text-anchor="middle" x="227.88" y="-5.75" font-family="Helvetica,sans-Serif" font-size="10.00">/Patterns.cpp</text>
</a>
</g>
</g>
<!-- Node2&#45;&gt;Node5 -->
<g id="edge7_Node000002_Node000005" class="edge">
<title>Node2&#45;&gt;Node5</title>
<g id="a_edge7_Node000002_Node000005"><a xlink:title=" ">
<path fill="none" stroke="#63b8ff" d="M195.14,-122.24C198.03,-114.21 201.17,-105.26 203.88,-97 211.38,-74.07 219.18,-47.15 223.78,-30.91"/>
<polygon fill="#63b8ff" stroke="#63b8ff" points="191.94,-120.79 191.8,-131.39 198.52,-123.19 191.94,-120.79"/>
</a>
</g>
</g>
<!-- Node6 -->
<g id="Node000006" class="node">
<title>Node6</title>
<g id="a_Node000006"><a xlink:href="_helpers_8cpp.html" target="_top" xlink:title=" ">
<polygon fill="white" stroke="#666666" points="393.62,-91.38 256.12,-91.38 256.12,-72.12 393.62,-72.12 393.62,-91.38"/>
<text text-anchor="middle" x="324.88" y="-77.88" font-family="Helvetica,sans-Serif" font-size="10.00">lib/Dialect/ZML/Helpers.cpp</text>
</a>
</g>
</g>
<!-- Node2&#45;&gt;Node6 -->
<g id="edge5_Node000002_Node000006" class="edge">
<title>Node2&#45;&gt;Node6</title>
<g id="a_edge5_Node000002_Node000006"><a xlink:title=" ">
<path fill="none" stroke="#63b8ff" d="M227.69,-127.85C253.51,-115.87 285.41,-101.06 305.46,-91.76"/>
<polygon fill="#63b8ff" stroke="#63b8ff" points="226.39,-124.59 218.79,-131.98 229.33,-130.94 226.39,-124.59"/>
</a>
</g>
</g>
<!-- Node3&#45;&gt;Node4 -->
<g id="edge3_Node000003_Node000004" class="edge">
<title>Node3&#45;&gt;Node4</title>
<g id="a_edge3_Node000003_Node000004"><a xlink:title=" ">
<path fill="none" stroke="#63b8ff" d="M82.61,-55.38C79.9,-47.05 76.98,-38.08 74.62,-30.83"/>
<polygon fill="#63b8ff" stroke="#63b8ff" points="79.22,-56.25 85.64,-64.67 85.87,-54.08 79.22,-56.25"/>
</a>
</g>
</g>
<!-- Node3&#45;&gt;Node5 -->
<g id="edge4_Node000003_Node000005" class="edge">
<title>Node3&#45;&gt;Node5</title>
<g id="a_edge4_Node000003_Node000005"><a xlink:title=" ">
<path fill="none" stroke="#63b8ff" d="M132.12,-61.33C152.93,-51.53 177.75,-39.85 196.91,-30.83"/>
<polygon fill="#63b8ff" stroke="#63b8ff" points="130.89,-58.04 123.33,-65.47 133.87,-64.38 130.89,-58.04"/>
</a>
</g>
</g>
</g>
</svg>
