<?xml version="1.0" encoding="UTF-8" standalone="no"?>
<!DOCTYPE svg PUBLIC "-//W3C//DTD SVG 1.1//EN"
 "http://www.w3.org/Graphics/SVG/1.1/DTD/svg11.dtd">
<!-- Generated by graphviz version 12.2.1 (20241206.2353)
 -->
<!-- Title: include/zklang/Dialect/ZHL/Typing/ArrayFrame.h Pages: 1 -->
<svg width="2214pt" height="504pt"
 viewBox="0.00 0.00 2214.34 504.00" xmlns="http://www.w3.org/2000/svg" xmlns:xlink="http://www.w3.org/1999/xlink">
<g id="graph0" class="graph" transform="scale(1 1) rotate(0) translate(4 500)">
<title>include/zklang/Dialect/ZHL/Typing/ArrayFrame.h</title>
<!-- Node1 -->
<g id="Node000001" class="node">
<title>Node1</title>
<g id="a_Node000001"><a xlink:title=" ">
<polygon fill="#999999" stroke="#666666" points="537,-496 405.5,-496 405.5,-465.5 537,-465.5 537,-496"/>
<text text-anchor="start" x="413.5" y="-482.5" font-family="Helvetica,sans-Serif" font-size="10.00">include/zklang/Dialect</text>
<text text-anchor="middle" x="471.25" y="-471.25" font-family="Helvetica,sans-Serif" font-size="10.00">/ZHL/Typing/ArrayFrame.h</text>
</a>
</g>
</g>
<!-- Node2 -->
<g id="Node000002" class="node">
<title>Node2</title>
<g id="a_Node000002"><a xlink:title=" ">
<polygon fill="#e0e0e0" stroke="#999999" points="80.5,-423.88 0,-423.88 0,-404.62 80.5,-404.62 80.5,-423.88"/>
<text text-anchor="middle" x="40.25" y="-410.38" font-family="Helvetica,sans-Serif" font-size="10.00">mlir/IR/Value.h</text>
</a>
</g>
</g>
<!-- Node1&#45;&gt;Node2 -->
<g id="edge1_Node000001_Node000002" class="edge">
<title>Node1&#45;&gt;Node2</title>
<g id="a_edge1_Node000001_Node000002"><a xlink:title=" ">
<path fill="none" stroke="#63b8ff" d="M405.12,-473.48C329.52,-465.72 202.26,-450.86 94.25,-429.5 90.64,-428.79 86.9,-427.97 83.17,-427.1"/>
<polygon fill="#63b8ff" stroke="#63b8ff" points="84.09,-423.72 73.55,-424.72 82.42,-430.51 84.09,-423.72"/>
</a>
</g>
</g>
<!-- Node3 -->
<g id="Node000003" class="node">
<title>Node3</title>
<g id="a_Node000003"><a xlink:href="_component_slot_8h.html" target="_top" xlink:title=" ">
<polygon fill="white" stroke="#666666" points="413.38,-429.5 287.12,-429.5 287.12,-399 413.38,-399 413.38,-429.5"/>
<text text-anchor="start" x="295.12" y="-416" font-family="Helvetica,sans-Serif" font-size="10.00">zklang/Dialect/ZHL</text>
<text text-anchor="middle" x="350.25" y="-404.75" font-family="Helvetica,sans-Serif" font-size="10.00">/Typing/ComponentSlot.h</text>
</a>
</g>
</g>
<!-- Node1&#45;&gt;Node3 -->
<g id="edge2_Node000001_Node000003" class="edge">
<title>Node1&#45;&gt;Node3</title>
<g id="a_edge2_Node000001_Node000003"><a xlink:title=" ">
<path fill="none" stroke="#63b8ff" d="M443.79,-465.11C427.16,-456.25 405.73,-444.82 387.57,-435.14"/>
<polygon fill="#63b8ff" stroke="#63b8ff" points="389.4,-432.16 378.93,-430.54 386.11,-438.33 389.4,-432.16"/>
</a>
</g>
</g>
<!-- Node5 -->
<g id="Node000005" class="node">
<title>Node5</title>
<g id="a_Node000005"><a xlink:href="_frame_slot_8h.html" target="_top" xlink:title=" ">
<polygon fill="white" stroke="#666666" points="388.12,-97 284.38,-97 284.38,-66.5 388.12,-66.5 388.12,-97"/>
<text text-anchor="start" x="292.38" y="-83.5" font-family="Helvetica,sans-Serif" font-size="10.00">zklang/Dialect/ZHL</text>
<text text-anchor="middle" x="336.25" y="-72.25" font-family="Helvetica,sans-Serif" font-size="10.00">/Typing/FrameSlot.h</text>
</a>
</g>
</g>
<!-- Node1&#45;&gt;Node5 -->
<g id="edge73_Node000001_Node000005" class="edge">
<title>Node1&#45;&gt;Node5</title>
<g id="a_edge73_Node000001_Node000005"><a xlink:title=" ">
<path fill="none" stroke="#63b8ff" d="M405.09,-469.77C300.39,-452.09 108.25,-411.14 108.25,-348.75 108.25,-348.75 108.25,-348.75 108.25,-280.25 108.25,-188.16 215.82,-129.4 283.19,-101.63"/>
<polygon fill="#63b8ff" stroke="#63b8ff" points="284.25,-104.97 292.23,-98 281.64,-98.48 284.25,-104.97"/>
</a>
</g>
</g>
<!-- Node21 -->
<g id="Node000021" class="node">
<title>Node21</title>
<g id="a_Node000021"><a xlink:href="_expr_8h.html" target="_top" xlink:title=" ">
<polygon fill="white" stroke="#666666" points="1796.25,-230 1696.25,-230 1696.25,-199.5 1796.25,-199.5 1796.25,-230"/>
<text text-anchor="start" x="1704.25" y="-216.5" font-family="Helvetica,sans-Serif" font-size="10.00">zklang/Dialect/ZHL</text>
<text text-anchor="middle" x="1746.25" y="-205.25" font-family="Helvetica,sans-Serif" font-size="10.00">/Typing/Expr.h</text>
</a>
</g>
</g>
<!-- Node1&#45;&gt;Node21 -->
<g id="edge71_Node000001_Node000021" class="edge">
<title>Node1&#45;&gt;Node21</title>
<g id="a_edge71_Node000001_Node000021"><a xlink:title=" ">
<path fill="none" stroke="#63b8ff" d="M537.17,-478.41C766.77,-472.51 1527.43,-442.11 1713.25,-296.5 1730.26,-283.17 1738.56,-259.6 1742.58,-241.35"/>
<polygon fill="#63b8ff" stroke="#63b8ff" points="1745.97,-242.26 1744.37,-231.78 1739.09,-240.97 1745.97,-242.26"/>
</a>
</g>
</g>
<!-- Node29 -->
<g id="Node000029" class="node">
<title>Node29</title>
<g id="a_Node000029"><a xlink:href="_frame_8h.html" target="_top" xlink:title=" ">
<polygon fill="white" stroke="#666666" points="680.25,-230 580.25,-230 580.25,-199.5 680.25,-199.5 680.25,-230"/>
<text text-anchor="start" x="588.25" y="-216.5" font-family="Helvetica,sans-Serif" font-size="10.00">zklang/Dialect/ZHL</text>
<text text-anchor="middle" x="630.25" y="-205.25" font-family="Helvetica,sans-Serif" font-size="10.00">/Typing/Frame.h</text>
</a>
</g>
</g>
<!-- Node1&#45;&gt;Node29 -->
<g id="edge72_Node000001_Node000029" class="edge">
<title>Node1&#45;&gt;Node29</title>
<g id="a_edge72_Node000001_Node000029"><a xlink:title=" ">
<path fill="none" stroke="#63b8ff" d="M480.03,-465.18C506.09,-421.91 583.23,-293.82 615.64,-240"/>
<polygon fill="#63b8ff" stroke="#63b8ff" points="618.56,-241.94 620.72,-231.57 612.56,-238.33 618.56,-241.94"/>
</a>
</g>
</g>
<!-- Node32 -->
<g id="Node000032" class="node">
<title>Node32</title>
<g id="a_Node000032"><a xlink:href="_type_binding_8h.html" target="_top" xlink:title=" ">
<polygon fill="white" stroke="#666666" points="1198.25,-296.5 1086.25,-296.5 1086.25,-266 1198.25,-266 1198.25,-296.5"/>
<text text-anchor="start" x="1094.25" y="-283" font-family="Helvetica,sans-Serif" font-size="10.00">zklang/Dialect/ZHL</text>
<text text-anchor="middle" x="1142.25" y="-271.75" font-family="Helvetica,sans-Serif" font-size="10.00">/Typing/TypeBinding.h</text>
</a>
</g>
</g>
<!-- Node1&#45;&gt;Node32 -->
<g id="edge74_Node000001_Node000032" class="edge">
<title>Node1&#45;&gt;Node32</title>
<g id="a_edge74_Node000001_Node000032"><a xlink:title=" ">
<path fill="none" stroke="#63b8ff" d="M521.14,-465.07C641.99,-429.5 950.13,-338.8 1081.47,-300.14"/>
<polygon fill="#63b8ff" stroke="#63b8ff" points="1082.43,-303.5 1091.04,-297.32 1080.46,-296.79 1082.43,-303.5"/>
</a>
</g>
</g>
<!-- Node4 -->
<g id="Node000004" class="node">
<title>Node4</title>
<g id="a_Node000004"><a xlink:title=" ">
<polygon fill="#e0e0e0" stroke="#999999" points="966.5,-24.88 862,-24.88 862,-5.63 966.5,-5.63 966.5,-24.88"/>
<text text-anchor="middle" x="914.25" y="-11.38" font-family="Helvetica,sans-Serif" font-size="10.00">mlir/Support/LLVM.h</text>
</a>
</g>
</g>
<!-- Node3&#45;&gt;Node4 -->
<g id="edge3_Node000003_Node000004" class="edge">
<title>Node3&#45;&gt;Node4</title>
<g id="a_edge3_Node000003_Node000004"><a xlink:title=" ">
<path fill="none" stroke="#63b8ff" d="M337.63,-398.57C293.54,-345.55 154.28,-162.09 251.25,-66.5 272.41,-45.64 688.55,-25.82 850.52,-18.87"/>
<polygon fill="#63b8ff" stroke="#63b8ff" points="850.38,-22.38 860.22,-18.46 850.08,-15.39 850.38,-22.38"/>
</a>
</g>
</g>
<!-- Node3&#45;&gt;Node5 -->
<g id="edge4_Node000003_Node000005" class="edge">
<title>Node3&#45;&gt;Node5</title>
<g id="a_edge4_Node000003_Node000005"><a xlink:title=" ">
<path fill="none" stroke="#63b8ff" d="M349.63,-398.62C347.45,-347.22 340.13,-174.42 337.34,-108.55"/>
<polygon fill="#63b8ff" stroke="#63b8ff" points="340.85,-108.56 336.93,-98.72 333.85,-108.86 340.85,-108.56"/>
</a>
</g>
</g>
<!-- Node10 -->
<g id="Node000010" class="node">
<title>Node10</title>
<g id="a_Node000010"><a xlink:href="_type_bindings_8h.html" target="_top" xlink:title=" ">
<polygon fill="white" stroke="#666666" points="843.88,-363 726.62,-363 726.62,-332.5 843.88,-332.5 843.88,-363"/>
<text text-anchor="start" x="734.62" y="-349.5" font-family="Helvetica,sans-Serif" font-size="10.00">zklang/Dialect/ZHL</text>
<text text-anchor="middle" x="785.25" y="-338.25" font-family="Helvetica,sans-Serif" font-size="10.00">/Typing/TypeBindings.h</text>
</a>
</g>
</g>
<!-- Node3&#45;&gt;Node10 -->
<g id="edge10_Node000003_Node000010" class="edge">
<title>Node3&#45;&gt;Node10</title>
<g id="a_edge10_Node000003_Node000010"><a xlink:title=" ">
<path fill="none" stroke="#63b8ff" d="M413.5,-403.87C493.82,-391.96 631.94,-371.48 715.31,-359.12"/>
<polygon fill="#63b8ff" stroke="#63b8ff" points="715.58,-362.62 724.96,-357.69 714.55,-355.69 715.58,-362.62"/>
</a>
</g>
</g>
<!-- Node5&#45;&gt;Node4 -->
<g id="edge9_Node000005_Node000004" class="edge">
<title>Node5&#45;&gt;Node4</title>
<g id="a_edge9_Node000005_Node000004"><a xlink:title=" ">
<path fill="none" stroke="#63b8ff" d="M388.4,-68.09C391.39,-67.51 394.35,-66.98 397.25,-66.5 559.28,-39.82 752.39,-25.67 850.38,-19.73"/>
<polygon fill="#63b8ff" stroke="#63b8ff" points="850.57,-23.22 860.34,-19.13 850.15,-16.23 850.57,-23.22"/>
</a>
</g>
</g>
<!-- Node6 -->
<g id="Node000006" class="node">
<title>Node6</title>
<g id="a_Node000006"><a xlink:title=" ">
<polygon fill="#e0e0e0" stroke="#999999" points="1675.62,-24.88 1556.88,-24.88 1556.88,-5.63 1675.62,-5.63 1675.62,-24.88"/>
<text text-anchor="middle" x="1616.25" y="-11.38" font-family="Helvetica,sans-Serif" font-size="10.00">llvm/ADT/SmallString.h</text>
</a>
</g>
</g>
<!-- Node5&#45;&gt;Node6 -->
<g id="edge5_Node000005_Node000006" class="edge">
<title>Node5&#45;&gt;Node6</title>
<g id="a_edge5_Node000005_Node000006"><a xlink:title=" ">
<path fill="none" stroke="#63b8ff" d="M388.37,-67.89C391.37,-67.37 394.34,-66.9 397.25,-66.5 621.33,-35.99 1319.73,-21.41 1545.26,-17.42"/>
<polygon fill="#63b8ff" stroke="#63b8ff" points="1545.14,-20.92 1555.07,-17.25 1545.01,-13.92 1545.14,-20.92"/>
</a>
</g>
</g>
<!-- Node7 -->
<g id="Node000007" class="node">
<title>Node7</title>
<g id="a_Node000007"><a xlink:title=" ">
<polygon fill="#e0e0e0" stroke="#999999" points="329.12,-24.88 219.38,-24.88 219.38,-5.63 329.12,-5.63 329.12,-24.88"/>
<text text-anchor="middle" x="274.25" y="-11.38" font-family="Helvetica,sans-Serif" font-size="10.00">llvm/ADT/ilist_node.h</text>
</a>
</g>
</g>
<!-- Node5&#45;&gt;Node7 -->
<g id="edge6_Node000005_Node000007" class="edge">
<title>Node5&#45;&gt;Node7</title>
<g id="a_edge6_Node000005_Node000007"><a xlink:title=" ">
<path fill="none" stroke="#63b8ff" d="M322.18,-66.11C312.79,-56.34 300.4,-43.45 290.57,-33.23"/>
<polygon fill="#63b8ff" stroke="#63b8ff" points="293.23,-30.95 283.78,-26.16 288.19,-35.8 293.23,-30.95"/>
</a>
</g>
</g>
<!-- Node8 -->
<g id="Node000008" class="node">
<title>Node8</title>
<g id="a_Node000008"><a xlink:title=" ">
<polygon fill="#e0e0e0" stroke="#999999" points="449,-30.5 347.5,-30.5 347.5,0 449,0 449,-30.5"/>
<text text-anchor="start" x="355.5" y="-17" font-family="Helvetica,sans-Serif" font-size="10.00">llvm/ADT/ilist_node</text>
<text text-anchor="middle" x="398.25" y="-5.75" font-family="Helvetica,sans-Serif" font-size="10.00">_options.h</text>
</a>
</g>
</g>
<!-- Node5&#45;&gt;Node8 -->
<g id="edge7_Node000005_Node000008" class="edge">
<title>Node5&#45;&gt;Node8</title>
<g id="a_edge7_Node000005_Node000008"><a xlink:title=" ">
<path fill="none" stroke="#63b8ff" d="M350.32,-66.11C358.01,-58.11 367.7,-48.03 376.36,-39.03"/>
<polygon fill="#63b8ff" stroke="#63b8ff" points="378.78,-41.55 383.19,-31.92 373.73,-36.7 378.78,-41.55"/>
</a>
</g>
</g>
<!-- Node9 -->
<g id="Node000009" class="node">
<title>Node9</title>
<g id="a_Node000009"><a xlink:title=" ">
<polygon fill="#e0e0e0" stroke="#999999" points="2078.5,-24.88 1980,-24.88 1980,-5.63 2078.5,-5.63 2078.5,-24.88"/>
<text text-anchor="middle" x="2029.25" y="-11.38" font-family="Helvetica,sans-Serif" font-size="10.00">mlir/IR/Attributes.h</text>
</a>
</g>
</g>
<!-- Node5&#45;&gt;Node9 -->
<g id="edge8_Node000005_Node000009" class="edge">
<title>Node5&#45;&gt;Node9</title>
<g id="a_edge8_Node000005_Node000009"><a xlink:title=" ">
<path fill="none" stroke="#63b8ff" d="M388.37,-67.85C391.36,-67.33 394.34,-66.88 397.25,-66.5 680.99,-29.77 1398.31,-40.4 1684.25,-30.5 1783.64,-27.06 1899.1,-22.09 1968.06,-19.02"/>
<polygon fill="#63b8ff" stroke="#63b8ff" points="1968.21,-22.52 1978.04,-18.58 1967.89,-15.53 1968.21,-22.52"/>
</a>
</g>
</g>
<!-- Node10&#45;&gt;Node4 -->
<g id="edge20_Node000010_Node000004" class="edge">
<title>Node10&#45;&gt;Node4</title>
<g id="a_edge20_Node000010_Node000004"><a xlink:title=" ">
<path fill="none" stroke="#63b8ff" d="M726.26,-344.09C636.16,-339.14 469.34,-326.18 418.25,-296.5 314.17,-236.03 193.54,-154.89 275.25,-66.5 313.76,-24.85 696.29,-17.67 850.4,-16.47"/>
<polygon fill="#63b8ff" stroke="#63b8ff" points="850.05,-19.97 860.02,-16.4 850,-12.97 850.05,-19.97"/>
</a>
</g>
</g>
<!-- Node10&#45;&gt;Node5 -->
<g id="edge51_Node000010_Node000005" class="edge">
<title>Node10&#45;&gt;Node5</title>
<g id="a_edge51_Node000010_Node000005"><a xlink:title=" ">
<path fill="none" stroke="#63b8ff" d="M726.38,-345.37C662.83,-342.03 559.76,-331.15 478.25,-296.5 432.81,-277.18 418.63,-269.69 389.25,-230 361.7,-192.79 347.35,-139.89 340.83,-108.66"/>
<polygon fill="#63b8ff" stroke="#63b8ff" points="344.28,-108.08 338.92,-98.94 337.41,-109.43 344.28,-108.08"/>
</a>
</g>
</g>
<!-- Node11 -->
<g id="Node000011" class="node">
<title>Node11</title>
<g id="a_Node000011"><a xlink:title=" ">
<polygon fill="#e0e0e0" stroke="#999999" points="979.38,-91.38 931.12,-91.38 931.12,-72.12 979.38,-72.12 979.38,-91.38"/>
<text text-anchor="middle" x="955.25" y="-77.88" font-family="Helvetica,sans-Serif" font-size="10.00">cassert</text>
</a>
</g>
</g>
<!-- Node10&#45;&gt;Node11 -->
<g id="edge11_Node000010_Node000011" class="edge">
<title>Node10&#45;&gt;Node11</title>
<g id="a_edge11_Node000010_Node000011"><a xlink:title=" ">
<path fill="none" stroke="#63b8ff" d="M792.38,-332.12C805.72,-305.18 835.84,-246.2 866.25,-199.5 890.11,-162.85 921.98,-122.87 940.39,-100.5"/>
<polygon fill="#63b8ff" stroke="#63b8ff" points="942.96,-102.89 946.65,-92.96 937.57,-98.42 942.96,-102.89"/>
</a>
</g>
</g>
<!-- Node12 -->
<g id="Node000012" class="node">
<title>Node12</title>
<g id="a_Node000012"><a xlink:title=" ">
<polygon fill="#e0e0e0" stroke="#999999" points="1618.88,-157.88 1573.62,-157.88 1573.62,-138.62 1618.88,-138.62 1618.88,-157.88"/>
<text text-anchor="middle" x="1596.25" y="-144.38" font-family="Helvetica,sans-Serif" font-size="10.00">cstdint</text>
</a>
</g>
</g>
<!-- Node10&#45;&gt;Node12 -->
<g id="edge12_Node000010_Node000012" class="edge">
<title>Node10&#45;&gt;Node12</title>
<g id="a_edge12_Node000010_Node000012"><a xlink:title=" ">
<path fill="none" stroke="#63b8ff" d="M844.33,-347.05C1017.4,-347.36 1514.39,-344.07 1568.25,-296.5 1604.41,-264.56 1602.88,-201.66 1599.29,-169.39"/>
<polygon fill="#63b8ff" stroke="#63b8ff" points="1602.8,-169.26 1598.03,-159.8 1595.86,-170.17 1602.8,-169.26"/>
</a>
</g>
</g>
<!-- Node13 -->
<g id="Node000013" class="node">
<title>Node13</title>
<g id="a_Node000013"><a xlink:title=" ">
<polygon fill="#e0e0e0" stroke="#999999" points="738.38,-290.88 696.12,-290.88 696.12,-271.62 738.38,-271.62 738.38,-290.88"/>
<text text-anchor="middle" x="717.25" y="-277.38" font-family="Helvetica,sans-Serif" font-size="10.00">deque</text>
</a>
</g>
</g>
<!-- Node10&#45;&gt;Node13 -->
<g id="edge13_Node000010_Node000013" class="edge">
<title>Node10&#45;&gt;Node13</title>
<g id="a_edge13_Node000010_Node000013"><a xlink:title=" ">
<path fill="none" stroke="#63b8ff" d="M769.82,-332.11C759.41,-322.24 745.65,-309.19 734.82,-298.92"/>
<polygon fill="#63b8ff" stroke="#63b8ff" points="737.31,-296.46 727.65,-292.11 732.5,-301.54 737.31,-296.46"/>
</a>
</g>
</g>
<!-- Node14 -->
<g id="Node000014" class="node">
<title>Node14</title>
<g id="a_Node000014"><a xlink:title=" ">
<polygon fill="#e0e0e0" stroke="#999999" points="1110.62,-91.38 997.88,-91.38 997.88,-72.12 1110.62,-72.12 1110.62,-91.38"/>
<text text-anchor="middle" x="1054.25" y="-77.88" font-family="Helvetica,sans-Serif" font-size="10.00">llvm/ADT/StringMap.h</text>
</a>
</g>
</g>
<!-- Node10&#45;&gt;Node14 -->
<g id="edge14_Node000010_Node000014" class="edge">
<title>Node10&#45;&gt;Node14</title>
<g id="a_edge14_Node000010_Node000014"><a xlink:title=" ">
<path fill="none" stroke="#63b8ff" d="M799.69,-332.2C809.23,-322.38 821.84,-308.97 832.25,-296.5 866.64,-255.27 866.72,-237.9 904.25,-199.5 944.66,-158.15 1000.01,-118.72 1030.93,-97.94"/>
<polygon fill="#63b8ff" stroke="#63b8ff" points="1032.77,-100.93 1039.16,-92.48 1028.89,-95.1 1032.77,-100.93"/>
</a>
</g>
</g>
<!-- Node15 -->
<g id="Node000015" class="node">
<title>Node15</title>
<g id="a_Node000015"><a xlink:title=" ">
<polygon fill="#e0e0e0" stroke="#999999" points="1238.12,-91.38 1128.38,-91.38 1128.38,-72.12 1238.12,-72.12 1238.12,-91.38"/>
<text text-anchor="middle" x="1183.25" y="-77.88" font-family="Helvetica,sans-Serif" font-size="10.00">llvm/ADT/StringRef.h</text>
</a>
</g>
</g>
<!-- Node10&#45;&gt;Node15 -->
<g id="edge15_Node000010_Node000015" class="edge">
<title>Node10&#45;&gt;Node15</title>
<g id="a_edge15_Node000010_Node000015"><a xlink:title=" ">
<path fill="none" stroke="#63b8ff" d="M806.38,-332.04C820.73,-322.04 840.15,-308.49 857.25,-296.5 960.53,-224.07 981.87,-199.19 1089.25,-133 1110.68,-119.79 1135.88,-106.43 1154.8,-96.81"/>
<polygon fill="#63b8ff" stroke="#63b8ff" points="1156.15,-100.04 1163.51,-92.42 1153,-93.79 1156.15,-100.04"/>
</a>
</g>
</g>
<!-- Node16 -->
<g id="Node000016" class="node">
<title>Node16</title>
<g id="a_Node000016"><a xlink:title=" ">
<polygon fill="#e0e0e0" stroke="#999999" points="1447.5,-91.38 1337,-91.38 1337,-72.12 1447.5,-72.12 1447.5,-91.38"/>
<text text-anchor="middle" x="1392.25" y="-77.88" font-family="Helvetica,sans-Serif" font-size="10.00">llvm/Support/Debug.h</text>
</a>
</g>
</g>
<!-- Node10&#45;&gt;Node16 -->
<g id="edge16_Node000010_Node000016" class="edge">
<title>Node10&#45;&gt;Node16</title>
<g id="a_edge16_Node000010_Node000016"><a xlink:title=" ">
<path fill="none" stroke="#63b8ff" d="M844.15,-347.17C1005.48,-346.91 1448.29,-336.35 1535.25,-230 1578.18,-177.5 1478.25,-121.68 1424.14,-96.49"/>
<polygon fill="#63b8ff" stroke="#63b8ff" points="1425.92,-93.45 1415.37,-92.5 1423.02,-99.82 1425.92,-93.45"/>
</a>
</g>
</g>
<!-- Node17 -->
<g id="Node000017" class="node">
<title>Node17</title>
<g id="a_Node000017"><a xlink:title=" ">
<polygon fill="#e0e0e0" stroke="#999999" points="498.12,-91.38 406.38,-91.38 406.38,-72.12 498.12,-72.12 498.12,-91.38"/>
<text text-anchor="middle" x="452.25" y="-77.88" font-family="Helvetica,sans-Serif" font-size="10.00">mlir/IR/Builders.h</text>
</a>
</g>
</g>
<!-- Node10&#45;&gt;Node17 -->
<g id="edge17_Node000010_Node000017" class="edge">
<title>Node10&#45;&gt;Node17</title>
<g id="a_edge17_Node000010_Node000017"><a xlink:title=" ">
<path fill="none" stroke="#63b8ff" d="M726.32,-340.47C649.67,-329.66 515.02,-301.33 425.25,-230 388.74,-200.99 364.4,-174.71 385.25,-133 392.99,-117.51 408.03,-105.56 421.9,-97.2"/>
<polygon fill="#63b8ff" stroke="#63b8ff" points="423.32,-100.42 430.35,-92.49 419.92,-94.31 423.32,-100.42"/>
</a>
</g>
</g>
<!-- Node18 -->
<g id="Node000018" class="node">
<title>Node18</title>
<g id="a_Node000018"><a xlink:title=" ">
<polygon fill="#e0e0e0" stroke="#999999" points="801.38,-91.38 693.12,-91.38 693.12,-72.12 801.38,-72.12 801.38,-91.38"/>
<text text-anchor="middle" x="747.25" y="-77.88" font-family="Helvetica,sans-Serif" font-size="10.00">mlir/IR/Diagnostics.h</text>
</a>
</g>
</g>
<!-- Node10&#45;&gt;Node18 -->
<g id="edge18_Node000010_Node000018" class="edge">
<title>Node10&#45;&gt;Node18</title>
<g id="a_edge18_Node000010_Node000018"><a xlink:title=" ">
<path fill="none" stroke="#63b8ff" d="M732.31,-332.03C714.87,-324.39 697.37,-313.06 687.25,-296.5 666.82,-263.07 716.68,-147.93 738.07,-101.94"/>
<polygon fill="#63b8ff" stroke="#63b8ff" points="741.2,-103.51 742.3,-92.97 734.87,-100.53 741.2,-103.51"/>
</a>
</g>
</g>
<!-- Node19 -->
<g id="Node000019" class="node">
<title>Node19</title>
<g id="a_Node000019"><a xlink:title=" ">
<polygon fill="#e0e0e0" stroke="#999999" points="912.88,-91.38 819.62,-91.38 819.62,-72.12 912.88,-72.12 912.88,-91.38"/>
<text text-anchor="middle" x="866.25" y="-77.88" font-family="Helvetica,sans-Serif" font-size="10.00">mlir/IR/Location.h</text>
</a>
</g>
</g>
<!-- Node10&#45;&gt;Node19 -->
<g id="edge19_Node000010_Node000019" class="edge">
<title>Node10&#45;&gt;Node19</title>
<g id="a_edge19_Node000010_Node000019"><a xlink:title=" ">
<path fill="none" stroke="#63b8ff" d="M783.21,-332.1C780,-305.13 775.56,-246.09 790.25,-199.5 802.61,-160.32 832.03,-121.73 850.42,-100.2"/>
<polygon fill="#63b8ff" stroke="#63b8ff" points="852.82,-102.78 856.78,-92.95 847.55,-98.17 852.82,-102.78"/>
</a>
</g>
</g>
<!-- Node20 -->
<g id="Node000020" class="node">
<title>Node20</title>
<g id="a_Node000020"><a xlink:title=" ">
<polygon fill="#e0e0e0" stroke="#999999" points="1671.75,-91.38 1532.75,-91.38 1532.75,-72.12 1671.75,-72.12 1671.75,-91.38"/>
<text text-anchor="middle" x="1602.25" y="-77.88" font-family="Helvetica,sans-Serif" font-size="10.00">mlir/Support/LogicalResult.h</text>
</a>
</g>
</g>
<!-- Node10&#45;&gt;Node20 -->
<g id="edge21_Node000010_Node000020" class="edge">
<title>Node10&#45;&gt;Node20</title>
<g id="a_edge21_Node000010_Node000020"><a xlink:title=" ">
<path fill="none" stroke="#63b8ff" d="M844.28,-346.83C1020.38,-346.56 1533.43,-341.84 1592.25,-296.5 1651.18,-251.07 1645.85,-205.3 1628.25,-133 1625.55,-121.89 1619.92,-110.49 1614.6,-101.36"/>
<polygon fill="#63b8ff" stroke="#63b8ff" points="1617.73,-99.77 1609.47,-93.13 1611.78,-103.47 1617.73,-99.77"/>
</a>
</g>
</g>
<!-- Node10&#45;&gt;Node21 -->
<g id="edge22_Node000010_Node000021" class="edge">
<title>Node10&#45;&gt;Node21</title>
<g id="a_edge22_Node000010_Node000021"><a xlink:title=" ">
<path fill="none" stroke="#63b8ff" d="M844.11,-346.23C1031.8,-344.21 1608.21,-334.88 1682.25,-296.5 1705.72,-284.33 1723.43,-259.29 1734.2,-240.31"/>
<polygon fill="#63b8ff" stroke="#63b8ff" points="1737.24,-242.03 1738.88,-231.57 1731.07,-238.73 1737.24,-242.03"/>
</a>
</g>
</g>
<!-- Node10&#45;&gt;Node29 -->
<g id="edge44_Node000010_Node000029" class="edge">
<title>Node10&#45;&gt;Node29</title>
<g id="a_edge44_Node000010_Node000029"><a xlink:title=" ">
<path fill="none" stroke="#63b8ff" d="M726.46,-336.33C701.15,-329.07 673.11,-316.88 654.25,-296.5 640.51,-281.66 634.62,-259.29 632.09,-241.86"/>
<polygon fill="#63b8ff" stroke="#63b8ff" points="635.58,-241.52 630.98,-231.98 628.62,-242.31 635.58,-241.52"/>
</a>
</g>
</g>
<!-- Node10&#45;&gt;Node32 -->
<g id="edge52_Node000010_Node000032" class="edge">
<title>Node10&#45;&gt;Node32</title>
<g id="a_edge52_Node000010_Node000032"><a xlink:title=" ">
<path fill="none" stroke="#63b8ff" d="M844.2,-336.1C907.57,-324.65 1008.15,-306.48 1074.67,-294.46"/>
<polygon fill="#63b8ff" stroke="#63b8ff" points="1075.16,-297.93 1084.37,-292.71 1073.91,-291.04 1075.16,-297.93"/>
</a>
</g>
</g>
<!-- Node21&#45;&gt;Node4 -->
<g id="edge32_Node000021_Node000004" class="edge">
<title>Node21&#45;&gt;Node4</title>
<g id="a_edge32_Node000021_Node000004"><a xlink:title=" ">
<path fill="none" stroke="#63b8ff" d="M1796.55,-213.74C1879.85,-212.53 2040.8,-204.76 2076.25,-163.5 2085.08,-153.22 2085,-143.35 2076.25,-133 2004.83,-48.55 1211.04,-23.25 978.13,-17.61"/>
<polygon fill="#63b8ff" stroke="#63b8ff" points="978.41,-14.12 968.33,-17.38 978.24,-21.12 978.41,-14.12"/>
</a>
</g>
</g>
<!-- Node21&#45;&gt;Node6 -->
<g id="edge26_Node000021_Node000006" class="edge">
<title>Node21&#45;&gt;Node6</title>
<g id="a_edge26_Node000021_Node000006"><a xlink:title=" ">
<path fill="none" stroke="#63b8ff" d="M1796.66,-211.62C1905.57,-206.49 2155.09,-191.75 2180.25,-163.5 2189.27,-153.38 2185.64,-145.44 2180.25,-133 2163.05,-93.33 2148.6,-84.41 2109.25,-66.5 2035.84,-33.09 1805.48,-21.66 1687.47,-17.94"/>
<polygon fill="#63b8ff" stroke="#63b8ff" points="1687.68,-14.45 1677.58,-17.64 1687.47,-21.44 1687.68,-14.45"/>
</a>
</g>
</g>
<!-- Node21&#45;&gt;Node9 -->
<g id="edge31_Node000021_Node000009" class="edge">
<title>Node21&#45;&gt;Node9</title>
<g id="a_edge31_Node000021_Node000009"><a xlink:title=" ">
<path fill="none" stroke="#63b8ff" d="M1796.52,-211.86C1908.53,-207.12 2170.88,-192.97 2197.25,-163.5 2229.76,-127.16 2162.93,-78.07 2148.25,-66.5 2126.51,-49.36 2098.06,-37.06 2074.44,-28.93"/>
<polygon fill="#63b8ff" stroke="#63b8ff" points="2075.65,-25.64 2065.06,-25.85 2073.46,-32.29 2075.65,-25.64"/>
</a>
</g>
</g>
<!-- Node21&#45;&gt;Node12 -->
<g id="edge24_Node000021_Node000012" class="edge">
<title>Node21&#45;&gt;Node12</title>
<g id="a_edge24_Node000021_Node000012"><a xlink:title=" ">
<path fill="none" stroke="#63b8ff" d="M1712.21,-199.11C1686.76,-188.17 1652.24,-173.32 1627.49,-162.68"/>
<polygon fill="#63b8ff" stroke="#63b8ff" points="1629.16,-159.59 1618.59,-158.86 1626.4,-166.02 1629.16,-159.59"/>
</a>
</g>
</g>
<!-- Node21&#45;&gt;Node20 -->
<g id="edge33_Node000021_Node000020" class="edge">
<title>Node21&#45;&gt;Node20</title>
<g id="a_edge33_Node000021_Node000020"><a xlink:title=" ">
<path fill="none" stroke="#63b8ff" d="M1731.43,-199.21C1714.65,-182.84 1686.37,-155.6 1661.25,-133 1648.43,-121.47 1633.67,-108.89 1622.11,-99.21"/>
<polygon fill="#63b8ff" stroke="#63b8ff" points="1624.36,-96.52 1614.44,-92.81 1619.88,-101.9 1624.36,-96.52"/>
</a>
</g>
</g>
<!-- Node22 -->
<g id="Node000022" class="node">
<title>Node22</title>
<g id="a_Node000022"><a xlink:title=" ">
<polygon fill="#e0e0e0" stroke="#999999" points="2171.38,-157.88 2123.12,-157.88 2123.12,-138.62 2171.38,-138.62 2171.38,-157.88"/>
<text text-anchor="middle" x="2147.25" y="-144.38" font-family="Helvetica,sans-Serif" font-size="10.00">cstddef</text>
</a>
</g>
</g>
<!-- Node21&#45;&gt;Node22 -->
<g id="edge23_Node000021_Node000022" class="edge">
<title>Node21&#45;&gt;Node22</title>
<g id="a_edge23_Node000021_Node000022"><a xlink:title=" ">
<path fill="none" stroke="#63b8ff" d="M1796.54,-210.32C1867.23,-204.71 1999.63,-191.28 2109.25,-163.5 2111.13,-163.02 2113.04,-162.49 2114.96,-161.9"/>
<polygon fill="#63b8ff" stroke="#63b8ff" points="2116.03,-165.24 2124.38,-158.72 2113.78,-158.61 2116.03,-165.24"/>
</a>
</g>
</g>
<!-- Node23 -->
<g id="Node000023" class="node">
<title>Node23</title>
<g id="a_Node000023"><a xlink:title=" ">
<polygon fill="#e0e0e0" stroke="#999999" points="1821,-157.88 1713.5,-157.88 1713.5,-138.62 1821,-138.62 1821,-157.88"/>
<text text-anchor="middle" x="1767.25" y="-144.38" font-family="Helvetica,sans-Serif" font-size="10.00">llvm/ADT/ArrayRef.h</text>
</a>
</g>
</g>
<!-- Node21&#45;&gt;Node23 -->
<g id="edge25_Node000021_Node000023" class="edge">
<title>Node21&#45;&gt;Node23</title>
<g id="a_edge25_Node000021_Node000023"><a xlink:title=" ">
<path fill="none" stroke="#63b8ff" d="M1751.02,-199.11C1753.94,-190.13 1757.72,-178.51 1760.9,-168.76"/>
<polygon fill="#63b8ff" stroke="#63b8ff" points="1764.14,-170.1 1763.91,-159.51 1757.48,-167.94 1764.14,-170.1"/>
</a>
</g>
</g>
<!-- Node24 -->
<g id="Node000024" class="node">
<title>Node24</title>
<g id="a_Node000024"><a xlink:title=" ">
<polygon fill="#e0e0e0" stroke="#999999" points="1947.75,-157.88 1838.75,-157.88 1838.75,-138.62 1947.75,-138.62 1947.75,-157.88"/>
<text text-anchor="middle" x="1893.25" y="-144.38" font-family="Helvetica,sans-Serif" font-size="10.00">llvm/ADT/StringSet.h</text>
</a>
</g>
</g>
<!-- Node21&#45;&gt;Node24 -->
<g id="edge27_Node000021_Node000024" class="edge">
<title>Node21&#45;&gt;Node24</title>
<g id="a_edge27_Node000021_Node000024"><a xlink:title=" ">
<path fill="none" stroke="#63b8ff" d="M1779.61,-199.11C1804.44,-188.22 1838.08,-173.46 1862.31,-162.83"/>
<polygon fill="#63b8ff" stroke="#63b8ff" points="1863.58,-166.09 1871.33,-158.87 1860.77,-159.68 1863.58,-166.09"/>
</a>
</g>
</g>
<!-- Node25 -->
<g id="Node000025" class="node">
<title>Node25</title>
<g id="a_Node000025"><a xlink:title=" ">
<polygon fill="#e0e0e0" stroke="#999999" points="674.88,-91.38 557.62,-91.38 557.62,-72.12 674.88,-72.12 674.88,-91.38"/>
<text text-anchor="middle" x="616.25" y="-77.88" font-family="Helvetica,sans-Serif" font-size="10.00">llvm/ADT/simple_ilist.h</text>
</a>
</g>
</g>
<!-- Node21&#45;&gt;Node25 -->
<g id="edge28_Node000021_Node000025" class="edge">
<title>Node21&#45;&gt;Node25</title>
<g id="a_edge28_Node000021_Node000025"><a xlink:title=" ">
<path fill="none" stroke="#63b8ff" d="M1695.75,-210.14C1552.3,-199.85 1148.84,-170.66 1089.25,-163.5 908.14,-141.75 863.56,-130.49 684.25,-97 679.38,-96.09 674.33,-95.11 669.27,-94.1"/>
<polygon fill="#63b8ff" stroke="#63b8ff" points="670.25,-90.72 659.75,-92.16 668.85,-97.58 670.25,-90.72"/>
</a>
</g>
</g>
<!-- Node26 -->
<g id="Node000026" class="node">
<title>Node26</title>
<g id="a_Node000026"><a xlink:title=" ">
<polygon fill="#e0e0e0" stroke="#999999" points="1363.88,-157.88 1312.62,-157.88 1312.62,-138.62 1363.88,-138.62 1363.88,-157.88"/>
<text text-anchor="middle" x="1338.25" y="-144.38" font-family="Helvetica,sans-Serif" font-size="10.00">memory</text>
</a>
</g>
</g>
<!-- Node21&#45;&gt;Node26 -->
<g id="edge29_Node000021_Node000026" class="edge">
<title>Node21&#45;&gt;Node26</title>
<g id="a_edge29_Node000021_Node000026"><a xlink:title=" ">
<path fill="none" stroke="#63b8ff" d="M1695.81,-205.78C1612.63,-192.63 1448.61,-166.7 1375.24,-155.1"/>
<polygon fill="#63b8ff" stroke="#63b8ff" points="1376.19,-151.7 1365.77,-153.6 1375.1,-158.62 1376.19,-151.7"/>
</a>
</g>
</g>
<!-- Node27 -->
<g id="Node000027" class="node">
<title>Node27</title>
<g id="a_Node000027"><a xlink:title=" ">
<polygon fill="#e0e0e0" stroke="#999999" points="2067,-157.88 1965.5,-157.88 1965.5,-138.62 2067,-138.62 2067,-157.88"/>
<text text-anchor="middle" x="2016.25" y="-144.38" font-family="Helvetica,sans-Serif" font-size="10.00">mlir/IR/AffineExpr.h</text>
</a>
</g>
</g>
<!-- Node21&#45;&gt;Node27 -->
<g id="edge30_Node000021_Node000027" class="edge">
<title>Node21&#45;&gt;Node27</title>
<g id="a_edge30_Node000021_Node000027"><a xlink:title=" ">
<path fill="none" stroke="#63b8ff" d="M1796.57,-201.81C1839.32,-191.66 1902.32,-176.67 1957.25,-163.5 1960.63,-162.69 1964.11,-161.85 1967.62,-161.01"/>
<polygon fill="#63b8ff" stroke="#63b8ff" points="1968.43,-164.41 1977.33,-158.67 1966.79,-157.61 1968.43,-164.41"/>
</a>
</g>
</g>
<!-- Node28 -->
<g id="Node000028" class="node">
<title>Node28</title>
<g id="a_Node000028"><a xlink:href="_params_8h.html" target="_top" xlink:title=" ">
<polygon fill="white" stroke="#666666" points="1256.25,-163.5 1156.25,-163.5 1156.25,-133 1256.25,-133 1256.25,-163.5"/>
<text text-anchor="start" x="1164.25" y="-150" font-family="Helvetica,sans-Serif" font-size="10.00">zklang/Dialect/ZHL</text>
<text text-anchor="middle" x="1206.25" y="-138.75" font-family="Helvetica,sans-Serif" font-size="10.00">/Typing/Params.h</text>
</a>
</g>
</g>
<!-- Node21&#45;&gt;Node28 -->
<g id="edge34_Node000021_Node000028" class="edge">
<title>Node21&#45;&gt;Node28</title>
<g id="a_edge34_Node000021_Node000028"><a xlink:title=" ">
<path fill="none" stroke="#63b8ff" d="M1696.03,-208.6C1613.82,-200.04 1445.44,-182 1303.25,-163.5 1291.74,-162 1279.48,-160.29 1267.68,-158.59"/>
<polygon fill="#63b8ff" stroke="#63b8ff" points="1268.45,-155.16 1258.05,-157.18 1267.44,-162.09 1268.45,-155.16"/>
</a>
</g>
</g>
<!-- Node28&#45;&gt;Node4 -->
<g id="edge42_Node000028_Node000004" class="edge">
<title>Node28&#45;&gt;Node4</title>
<g id="a_edge42_Node000028_Node000004"><a xlink:title=" ">
<path fill="none" stroke="#63b8ff" d="M1223.24,-132.59C1241.16,-115.38 1264.58,-86.64 1247.25,-66.5 1213.22,-26.95 1064.77,-18.12 977.99,-16.4"/>
<polygon fill="#63b8ff" stroke="#63b8ff" points="978.26,-12.91 968.2,-16.24 978.14,-19.91 978.26,-12.91"/>
</a>
</g>
</g>
<!-- Node28&#45;&gt;Node11 -->
<g id="edge35_Node000028_Node000011" class="edge">
<title>Node28&#45;&gt;Node11</title>
<g id="a_edge35_Node000028_Node000011"><a xlink:title=" ">
<path fill="none" stroke="#63b8ff" d="M1156.05,-135.08C1153.07,-134.37 1150.12,-133.67 1147.25,-133 1077.13,-116.55 1057.83,-119 989.25,-97 988.09,-96.63 986.92,-96.23 985.74,-95.82"/>
<polygon fill="#63b8ff" stroke="#63b8ff" points="987.17,-92.62 976.58,-92.32 984.67,-99.16 987.17,-92.62"/>
</a>
</g>
</g>
<!-- Node28&#45;&gt;Node14 -->
<g id="edge36_Node000028_Node000014" class="edge">
<title>Node28&#45;&gt;Node14</title>
<g id="a_edge36_Node000028_Node000014"><a xlink:title=" ">
<path fill="none" stroke="#63b8ff" d="M1171.76,-132.61C1145.97,-121.67 1110.98,-106.82 1085.9,-96.18"/>
<polygon fill="#63b8ff" stroke="#63b8ff" points="1087.45,-93.04 1076.88,-92.35 1084.71,-99.48 1087.45,-93.04"/>
</a>
</g>
</g>
<!-- Node28&#45;&gt;Node15 -->
<g id="edge37_Node000028_Node000015" class="edge">
<title>Node28&#45;&gt;Node15</title>
<g id="a_edge37_Node000028_Node000015"><a xlink:title=" ">
<path fill="none" stroke="#63b8ff" d="M1201.03,-132.61C1197.83,-123.63 1193.69,-112.01 1190.21,-102.26"/>
<polygon fill="#63b8ff" stroke="#63b8ff" points="1193.56,-101.24 1186.9,-93 1186.97,-103.59 1193.56,-101.24"/>
</a>
</g>
</g>
<!-- Node28&#45;&gt;Node16 -->
<g id="edge38_Node000028_Node000016" class="edge">
<title>Node28&#45;&gt;Node16</title>
<g id="a_edge38_Node000028_Node000016"><a xlink:title=" ">
<path fill="none" stroke="#63b8ff" d="M1248.46,-132.61C1280.63,-121.46 1324.49,-106.25 1355.29,-95.57"/>
<polygon fill="#63b8ff" stroke="#63b8ff" points="1356.27,-98.93 1364.57,-92.35 1353.97,-92.32 1356.27,-98.93"/>
</a>
</g>
</g>
<!-- Node28&#45;&gt;Node17 -->
<g id="edge39_Node000028_Node000017" class="edge">
<title>Node28&#45;&gt;Node17</title>
<g id="a_edge39_Node000028_Node000017"><a xlink:title=" ">
<path fill="none" stroke="#63b8ff" d="M1155.84,-134.45C1152.94,-133.91 1150.06,-133.42 1147.25,-133 883.48,-93.54 813.52,-124.61 548.25,-97 535.8,-95.7 522.5,-93.96 509.88,-92.14"/>
<polygon fill="#63b8ff" stroke="#63b8ff" points="510.44,-88.68 500.03,-90.68 509.41,-95.61 510.44,-88.68"/>
</a>
</g>
</g>
<!-- Node28&#45;&gt;Node18 -->
<g id="edge40_Node000028_Node000018" class="edge">
<title>Node28&#45;&gt;Node18</title>
<g id="a_edge40_Node000028_Node000018"><a xlink:title=" ">
<path fill="none" stroke="#63b8ff" d="M1155.81,-134.61C1152.92,-134.03 1150.05,-133.49 1147.25,-133 998.84,-107.26 958.85,-121.66 810.25,-97 805.33,-96.18 800.21,-95.22 795.12,-94.18"/>
<polygon fill="#63b8ff" stroke="#63b8ff" points="796.08,-90.81 785.57,-92.15 794.62,-97.66 796.08,-90.81"/>
</a>
</g>
</g>
<!-- Node28&#45;&gt;Node19 -->
<g id="edge41_Node000028_Node000019" class="edge">
<title>Node28&#45;&gt;Node19</title>
<g id="a_edge41_Node000028_Node000019"><a xlink:title=" ">
<path fill="none" stroke="#63b8ff" d="M1155.78,-134.78C1152.9,-134.16 1150.04,-133.56 1147.25,-133 1047.95,-113.1 1021.42,-117.51 922.25,-97 918.5,-96.22 914.63,-95.36 910.75,-94.46"/>
<polygon fill="#63b8ff" stroke="#63b8ff" points="911.91,-91.14 901.37,-92.19 910.26,-97.94 911.91,-91.14"/>
</a>
</g>
</g>
<!-- Node28&#45;&gt;Node20 -->
<g id="edge43_Node000028_Node000020" class="edge">
<title>Node28&#45;&gt;Node20</title>
<g id="a_edge43_Node000028_Node000020"><a xlink:title=" ">
<path fill="none" stroke="#63b8ff" d="M1256.4,-139.08C1327.12,-127.56 1456.3,-106.52 1535.19,-93.67"/>
<polygon fill="#63b8ff" stroke="#63b8ff" points="1535.65,-97.14 1544.96,-92.08 1534.53,-90.23 1535.65,-97.14"/>
</a>
</g>
</g>
<!-- Node29&#45;&gt;Node25 -->
<g id="edge45_Node000029_Node000025" class="edge">
<title>Node29&#45;&gt;Node25</title>
<g id="a_edge45_Node000029_Node000025"><a xlink:title=" ">
<path fill="none" stroke="#63b8ff" d="M646.7,-199.23C655.84,-190.03 666.34,-177.29 671.25,-163.5 675.8,-150.73 676.72,-145.4 671.25,-133 665.01,-118.85 652.61,-106.96 641.16,-98.3"/>
<polygon fill="#63b8ff" stroke="#63b8ff" points="643.35,-95.57 633.16,-92.68 639.33,-101.3 643.35,-95.57"/>
</a>
</g>
</g>
<!-- Node29&#45;&gt;Node26 -->
<g id="edge47_Node000029_Node000026" class="edge">
<title>Node29&#45;&gt;Node26</title>
<g id="a_edge47_Node000029_Node000026"><a xlink:title=" ">
<path fill="none" stroke="#63b8ff" d="M680.67,-211.71C788.41,-206.93 1048.85,-193.09 1265.25,-163.5 1277.05,-161.89 1289.83,-159.59 1301.34,-157.3"/>
<polygon fill="#63b8ff" stroke="#63b8ff" points="1301.78,-160.79 1310.87,-155.35 1300.37,-153.93 1301.78,-160.79"/>
</a>
</g>
</g>
<!-- Node30 -->
<g id="Node000030" class="node">
<title>Node30</title>
<g id="a_Node000030"><a xlink:title=" ">
<polygon fill="#e0e0e0" stroke="#999999" points="662.38,-157.88 524.12,-157.88 524.12,-138.62 662.38,-138.62 662.38,-157.88"/>
<text text-anchor="middle" x="593.25" y="-144.38" font-family="Helvetica,sans-Serif" font-size="10.00">llvm/Support/raw_ostream.h</text>
</a>
</g>
</g>
<!-- Node29&#45;&gt;Node30 -->
<g id="edge46_Node000029_Node000030" class="edge">
<title>Node29&#45;&gt;Node30</title>
<g id="a_edge46_Node000029_Node000030"><a xlink:title=" ">
<path fill="none" stroke="#63b8ff" d="M621.85,-199.11C616.53,-189.83 609.6,-177.75 603.89,-167.8"/>
<polygon fill="#63b8ff" stroke="#63b8ff" points="607.08,-166.32 599.06,-159.39 601,-169.8 607.08,-166.32"/>
</a>
</g>
</g>
<!-- Node31 -->
<g id="Node000031" class="node">
<title>Node31</title>
<g id="a_Node000031"><a xlink:href="_frame_info_8h.html" target="_top" xlink:title=" ">
<polygon fill="white" stroke="#666666" points="505.75,-163.5 402.75,-163.5 402.75,-133 505.75,-133 505.75,-163.5"/>
<text text-anchor="start" x="410.75" y="-150" font-family="Helvetica,sans-Serif" font-size="10.00">zklang/Dialect/ZHL</text>
<text text-anchor="middle" x="454.25" y="-138.75" font-family="Helvetica,sans-Serif" font-size="10.00">/Typing/FrameInfo.h</text>
</a>
</g>
</g>
<!-- Node29&#45;&gt;Node31 -->
<g id="edge48_Node000029_Node000031" class="edge">
<title>Node29&#45;&gt;Node31</title>
<g id="a_edge48_Node000029_Node000031"><a xlink:title=" ">
<path fill="none" stroke="#63b8ff" d="M590.31,-199.11C564.97,-189.83 531.97,-177.73 504.81,-167.78"/>
<polygon fill="#63b8ff" stroke="#63b8ff" points="506.35,-164.62 495.75,-164.46 503.94,-171.19 506.35,-164.62"/>
</a>
</g>
</g>
<!-- Node31&#45;&gt;Node5 -->
<g id="edge50_Node000031_Node000005" class="edge">
<title>Node31&#45;&gt;Node5</title>
<g id="a_edge50_Node000031_Node000005"><a xlink:title=" ">
<path fill="none" stroke="#63b8ff" d="M427.47,-132.61C411.33,-123.79 390.54,-112.43 372.89,-102.78"/>
<polygon fill="#63b8ff" stroke="#63b8ff" points="374.7,-99.78 364.25,-98.05 371.34,-105.92 374.7,-99.78"/>
</a>
</g>
</g>
<!-- Node31&#45;&gt;Node25 -->
<g id="edge49_Node000031_Node000025" class="edge">
<title>Node31&#45;&gt;Node25</title>
<g id="a_edge49_Node000031_Node000025"><a xlink:title=" ">
<path fill="none" stroke="#63b8ff" d="M491.01,-132.61C518.74,-121.57 556.46,-106.56 583.23,-95.9"/>
<polygon fill="#63b8ff" stroke="#63b8ff" points="584.22,-99.27 592.21,-92.32 581.63,-92.77 584.22,-99.27"/>
</a>
</g>
</g>
<!-- Node32&#45;&gt;Node4 -->
<g id="edge63_Node000032_Node000004" class="edge">
<title>Node32&#45;&gt;Node4</title>
<g id="a_edge63_Node000032_Node000004"><a xlink:title=" ">
<path fill="none" stroke="#63b8ff" d="M1198.32,-277.89C1312.77,-272.67 1581.35,-258.27 1805.25,-230 1976.05,-208.44 2286.37,-268.55 2180.25,-133 2105.45,-37.46 1225.15,-19.91 978.26,-16.86"/>
<polygon fill="#63b8ff" stroke="#63b8ff" points="978.55,-13.36 968.5,-16.74 978.46,-20.36 978.55,-13.36"/>
</a>
</g>
</g>
<!-- Node32&#45;&gt;Node5 -->
<g id="edge67_Node000032_Node000005" class="edge">
<title>Node32&#45;&gt;Node5</title>
<g id="a_edge67_Node000032_Node000005"><a xlink:title=" ">
<path fill="none" stroke="#63b8ff" d="M1085.89,-277.72C921.65,-270.14 453.32,-247.15 425.25,-230 380.11,-202.41 354.83,-142.51 343.53,-108.22"/>
<polygon fill="#63b8ff" stroke="#63b8ff" points="346.88,-107.2 340.56,-98.7 340.2,-109.28 346.88,-107.2"/>
</a>
</g>
</g>
<!-- Node32&#45;&gt;Node11 -->
<g id="edge53_Node000032_Node000011" class="edge">
<title>Node32&#45;&gt;Node11</title>
<g id="a_edge53_Node000032_Node000011"><a xlink:title=" ">
<path fill="none" stroke="#63b8ff" d="M1095.93,-265.6C1075.82,-257.52 1053.08,-245.85 1036.25,-230 997.06,-193.1 972.28,-132.9 961.5,-102.15"/>
<polygon fill="#63b8ff" stroke="#63b8ff" points="964.94,-101.39 958.43,-93.03 958.3,-103.62 964.94,-101.39"/>
</a>
</g>
</g>
<!-- Node32&#45;&gt;Node12 -->
<g id="edge54_Node000032_Node000012" class="edge">
<title>Node32&#45;&gt;Node12</title>
<g id="a_edge54_Node000032_Node000012"><a xlink:title=" ">
<path fill="none" stroke="#63b8ff" d="M1198.57,-274.91C1248.09,-268.71 1321.25,-255.82 1380.25,-230 1401.72,-220.61 1402.15,-209.69 1423.25,-199.5 1468.92,-177.45 1526.15,-163.17 1561.97,-155.67"/>
<polygon fill="#63b8ff" stroke="#63b8ff" points="1562.66,-159.1 1571.77,-153.68 1561.27,-152.24 1562.66,-159.1"/>
</a>
</g>
</g>
<!-- Node32&#45;&gt;Node14 -->
<g id="edge56_Node000032_Node000014" class="edge">
<title>Node32&#45;&gt;Node14</title>
<g id="a_edge56_Node000032_Node000014"><a xlink:title=" ">
<path fill="none" stroke="#63b8ff" d="M1095.15,-265.68C1078.25,-257.92 1060.97,-246.48 1051.25,-230 1027.61,-189.94 1039.08,-132.45 1047.7,-102.53"/>
<polygon fill="#63b8ff" stroke="#63b8ff" points="1050.95,-103.89 1050.56,-93.3 1044.26,-101.82 1050.95,-103.89"/>
</a>
</g>
</g>
<!-- Node32&#45;&gt;Node15 -->
<g id="edge57_Node000032_Node000015" class="edge">
<title>Node32&#45;&gt;Node15</title>
<g id="a_edge57_Node000032_Node000015"><a xlink:title=" ">
<path fill="none" stroke="#63b8ff" d="M1196.63,-265.53C1215.77,-257.83 1235.83,-246.46 1249.25,-230 1268.46,-206.44 1261.67,-193.69 1265.25,-163.5 1266.85,-150.04 1271.87,-144.83 1265.25,-133 1255.79,-116.11 1238.08,-104.21 1221.53,-96.25"/>
<polygon fill="#63b8ff" stroke="#63b8ff" points="1223.41,-93.25 1212.85,-92.4 1220.58,-99.65 1223.41,-93.25"/>
</a>
</g>
</g>
<!-- Node32&#45;&gt;Node16 -->
<g id="edge58_Node000032_Node000016" class="edge">
<title>Node32&#45;&gt;Node16</title>
<g id="a_edge58_Node000032_Node000016"><a xlink:title=" ">
<path fill="none" stroke="#63b8ff" d="M1198.73,-275.4C1238.08,-269.68 1290.13,-257.2 1328.25,-230 1370.51,-199.84 1385.16,-135.61 1390,-102.86"/>
<polygon fill="#63b8ff" stroke="#63b8ff" points="1393.44,-103.5 1391.26,-93.13 1386.5,-102.6 1393.44,-103.5"/>
</a>
</g>
</g>
<!-- Node32&#45;&gt;Node17 -->
<g id="edge60_Node000032_Node000017" class="edge">
<title>Node32&#45;&gt;Node17</title>
<g id="a_edge60_Node000032_Node000017"><a xlink:title=" ">
<path fill="none" stroke="#63b8ff" d="M1085.95,-280.32C982.63,-279.35 756.35,-272.09 571.25,-230 489.31,-211.37 442.09,-232.59 394.25,-163.5 378.33,-140.51 405.79,-114.27 428.1,-98.11"/>
<polygon fill="#63b8ff" stroke="#63b8ff" points="430.01,-101.05 436.26,-92.5 426.04,-95.28 430.01,-101.05"/>
</a>
</g>
</g>
<!-- Node32&#45;&gt;Node18 -->
<g id="edge61_Node000032_Node000018" class="edge">
<title>Node32&#45;&gt;Node18</title>
<g id="a_edge61_Node000032_Node000018"><a xlink:title=" ">
<path fill="none" stroke="#63b8ff" d="M1086.08,-269.26C1050.2,-261.08 1003.26,-248.16 964.25,-230 885.06,-193.14 802.69,-128.82 766.38,-98.91"/>
<polygon fill="#63b8ff" stroke="#63b8ff" points="768.87,-96.43 758.95,-92.72 764.4,-101.81 768.87,-96.43"/>
</a>
</g>
</g>
<!-- Node32&#45;&gt;Node19 -->
<g id="edge62_Node000032_Node000019" class="edge">
<title>Node32&#45;&gt;Node19</title>
<g id="a_edge62_Node000032_Node000019"><a xlink:title=" ">
<path fill="none" stroke="#63b8ff" d="M1085.93,-265.8C1060.33,-257.68 1030.43,-245.92 1006.25,-230 950.93,-193.57 901.44,-131.36 878.99,-100.79"/>
<polygon fill="#63b8ff" stroke="#63b8ff" points="882.02,-99.01 873.33,-92.95 876.35,-103.1 882.02,-99.01"/>
</a>
</g>
</g>
<!-- Node32&#45;&gt;Node20 -->
<g id="edge64_Node000032_Node000020" class="edge">
<title>Node32&#45;&gt;Node20</title>
<g id="a_edge64_Node000032_Node000020"><a xlink:title=" ">
<path fill="none" stroke="#63b8ff" d="M1198.73,-280.37C1295.1,-279.41 1485.69,-272.06 1535.25,-230 1569.56,-200.88 1543.91,-173.14 1564.25,-133 1570.19,-121.27 1578.94,-109.47 1586.54,-100.26"/>
<polygon fill="#63b8ff" stroke="#63b8ff" points="1589.04,-102.72 1592.9,-92.86 1583.73,-98.16 1589.04,-102.72"/>
</a>
</g>
</g>
<!-- Node32&#45;&gt;Node21 -->
<g id="edge65_Node000032_Node000021" class="edge">
<title>Node32&#45;&gt;Node21</title>
<g id="a_edge65_Node000032_Node000021"><a xlink:title=" ">
<path fill="none" stroke="#63b8ff" d="M1198.53,-274.24C1311.9,-262.13 1566.94,-234.9 1684.62,-222.33"/>
<polygon fill="#63b8ff" stroke="#63b8ff" points="1684.83,-225.83 1694.4,-221.29 1684.09,-218.87 1684.83,-225.83"/>
</a>
</g>
</g>
<!-- Node32&#45;&gt;Node26 -->
<g id="edge59_Node000032_Node000026" class="edge">
<title>Node32&#45;&gt;Node26</title>
<g id="a_edge59_Node000032_Node000026"><a xlink:title=" ">
<path fill="none" stroke="#63b8ff" d="M1198.41,-274.82C1232.64,-268.84 1275.24,-256.31 1304.25,-230 1321.83,-214.06 1330.61,-187.56 1334.79,-169.29"/>
<polygon fill="#63b8ff" stroke="#63b8ff" points="1338.18,-170.16 1336.7,-159.67 1331.32,-168.8 1338.18,-170.16"/>
</a>
</g>
</g>
<!-- Node32&#45;&gt;Node28 -->
<g id="edge68_Node000032_Node000028" class="edge">
<title>Node32&#45;&gt;Node28</title>
<g id="a_edge68_Node000032_Node000028"><a xlink:title=" ">
<path fill="none" stroke="#63b8ff" d="M1189.35,-265.68C1206.25,-257.92 1223.53,-246.48 1233.25,-230 1243.8,-212.12 1234.65,-189.56 1224.24,-172.83"/>
<polygon fill="#63b8ff" stroke="#63b8ff" points="1227.44,-171.32 1218.95,-164.99 1221.64,-175.24 1227.44,-171.32"/>
</a>
</g>
</g>
<!-- Node32&#45;&gt;Node29 -->
<g id="edge66_Node000032_Node000029" class="edge">
<title>Node32&#45;&gt;Node29</title>
<g id="a_edge66_Node000032_Node000029"><a xlink:title=" ">
<path fill="none" stroke="#63b8ff" d="M1085.99,-273.16C989.19,-260.97 791.89,-236.11 691.65,-223.48"/>
<polygon fill="#63b8ff" stroke="#63b8ff" points="692.36,-220.05 682,-222.27 691.49,-226.99 692.36,-220.05"/>
</a>
</g>
</g>
<!-- Node33 -->
<g id="Node000033" class="node">
<title>Node33</title>
<g id="a_Node000033"><a xlink:title=" ">
<polygon fill="#e0e0e0" stroke="#999999" points="1526.25,-224.38 1432.25,-224.38 1432.25,-205.12 1526.25,-205.12 1526.25,-224.38"/>
<text text-anchor="middle" x="1479.25" y="-210.88" font-family="Helvetica,sans-Serif" font-size="10.00">llvm/ADT/Bitset.h</text>
</a>
</g>
</g>
<!-- Node32&#45;&gt;Node33 -->
<g id="edge55_Node000032_Node000033" class="edge">
<title>Node32&#45;&gt;Node33</title>
<g id="a_edge55_Node000032_Node000033"><a xlink:title=" ">
<path fill="none" stroke="#63b8ff" d="M1198.7,-270.81C1254.6,-261.27 1342.55,-245.72 1418.25,-230 1422.27,-229.17 1426.42,-228.27 1430.59,-227.34"/>
<polygon fill="#63b8ff" stroke="#63b8ff" points="1431.11,-230.81 1440.09,-225.19 1429.57,-223.99 1431.11,-230.81"/>
</a>
</g>
</g>
<!-- Node34 -->
<g id="Node000034" class="node">
<title>Node34</title>
<g id="a_Node000034"><a xlink:href="_copyable_pointer_8h.html" target="_top" xlink:title=" ">
<polygon fill="white" stroke="#666666" points="1224.12,-224.38 1060.38,-224.38 1060.38,-205.12 1224.12,-205.12 1224.12,-224.38"/>
<text text-anchor="middle" x="1142.25" y="-210.88" font-family="Helvetica,sans-Serif" font-size="10.00">zklang/Support/CopyablePointer.h</text>
</a>
</g>
</g>
<!-- Node32&#45;&gt;Node34 -->
<g id="edge69_Node000032_Node000034" class="edge">
<title>Node32&#45;&gt;Node34</title>
<g id="a_edge69_Node000032_Node000034"><a xlink:title=" ">
<path fill="none" stroke="#63b8ff" d="M1142.25,-265.61C1142.25,-256.83 1142.25,-245.52 1142.25,-235.9"/>
<polygon fill="#63b8ff" stroke="#63b8ff" points="1145.75,-236.09 1142.25,-226.09 1138.75,-236.09 1145.75,-236.09"/>
</a>
</g>
</g>
<!-- Node35 -->
<g id="Node000035" class="node">
<title>Node35</title>
<g id="a_Node000035"><a xlink:title=" ">
<polygon fill="#e0e0e0" stroke="#999999" points="1137.88,-157.88 1098.62,-157.88 1098.62,-138.62 1137.88,-138.62 1137.88,-157.88"/>
<text text-anchor="middle" x="1118.25" y="-144.38" font-family="Helvetica,sans-Serif" font-size="10.00">utility</text>
</a>
</g>
</g>
<!-- Node34&#45;&gt;Node35 -->
<g id="edge70_Node000034_Node000035" class="edge">
<title>Node34&#45;&gt;Node35</title>
<g id="a_edge70_Node000034_Node000035"><a xlink:title=" ">
<path fill="none" stroke="#63b8ff" d="M1138.91,-204.78C1135.47,-195.54 1130,-180.83 1125.55,-168.88"/>
<polygon fill="#63b8ff" stroke="#63b8ff" points="1128.85,-167.71 1122.09,-159.56 1122.29,-170.15 1128.85,-167.71"/>
</a>
</g>
</g>
</g>
</svg>
