<?xml version="1.0" encoding="UTF-8" standalone="no"?>
<!DOCTYPE svg PUBLIC "-//W3C//DTD SVG 1.1//EN"
 "http://www.w3.org/Graphics/SVG/1.1/DTD/svg11.dtd">
<!-- Generated by graphviz version 12.2.1 (20241206.2353)
 -->
<!-- Title: include/zklang/Dialect/ZML/IR/Attrs.h Pages: 1 -->
<svg width="1075pt" height="105pt"
 viewBox="0.00 0.00 1074.50 105.00" xmlns="http://www.w3.org/2000/svg" xmlns:xlink="http://www.w3.org/1999/xlink">
<g id="graph0" class="graph" transform="scale(1 1) rotate(0) translate(4 101)">
<title>include/zklang/Dialect/ZML/IR/Attrs.h</title>
<!-- Node1 -->
<g id="Node000001" class="node">
<title>Node1</title>
<g id="a_Node000001"><a xlink:title=" ">
<polygon fill="#999999" stroke="#666666" points="561.38,-97 449.38,-97 449.38,-66.5 561.38,-66.5 561.38,-97"/>
<text text-anchor="start" x="457.38" y="-83.5" font-family="Helvetica,sans-Serif" font-size="10.00">include/zklang/Dialect</text>
<text text-anchor="middle" x="505.38" y="-72.25" font-family="Helvetica,sans-Serif" font-size="10.00">/ZML/IR/Attrs.h</text>
</a>
</g>
</g>
<!-- Node2 -->
<g id="Node000002" class="node">
<title>Node2</title>
<g id="a_Node000002"><a xlink:href="_expr_8cpp.html" target="_top" xlink:title=" ">
<polygon fill="white" stroke="#666666" points="112.75,-30.5 0,-30.5 0,0 112.75,0 112.75,-30.5"/>
<text text-anchor="start" x="8" y="-17" font-family="Helvetica,sans-Serif" font-size="10.00">lib/Dialect/ZHL/Typing</text>
<text text-anchor="middle" x="56.38" y="-5.75" font-family="Helvetica,sans-Serif" font-size="10.00">/Expr.cpp</text>
</a>
</g>
</g>
<!-- Node1&#45;&gt;Node2 -->
<g id="edge1_Node000001_Node000002" class="edge">
<title>Node1&#45;&gt;Node2</title>
<g id="a_edge1_Node000001_Node000002"><a xlink:title=" ">
<path fill="none" stroke="#63b8ff" d="M437.76,-73.68C360.85,-65.22 231.62,-49.76 121.38,-30.5 118.64,-30.02 115.85,-29.51 113.04,-28.97"/>
<polygon fill="#63b8ff" stroke="#63b8ff" points="437.36,-77.15 447.68,-74.76 438.12,-70.19 437.36,-77.15"/>
</a>
</g>
</g>
<!-- Node3 -->
<g id="Node000003" class="node">
<title>Node3</title>
<g id="a_Node000003"><a xlink:href="_helpers_8cpp.html" target="_top" xlink:title=" ">
<polygon fill="white" stroke="#666666" points="268.12,-24.88 130.62,-24.88 130.62,-5.63 268.12,-5.63 268.12,-24.88"/>
<text text-anchor="middle" x="199.38" y="-11.38" font-family="Helvetica,sans-Serif" font-size="10.00">lib/Dialect/ZML/Helpers.cpp</text>
</a>
</g>
</g>
<!-- Node1&#45;&gt;Node3 -->
<g id="edge2_Node000001_Node000003" class="edge">
<title>Node1&#45;&gt;Node3</title>
<g id="a_edge2_Node000001_Node000003"><a xlink:title=" ">
<path fill="none" stroke="#63b8ff" d="M437.69,-66.48C378.03,-53.91 292.93,-35.97 242.21,-25.28"/>
<polygon fill="#63b8ff" stroke="#63b8ff" points="436.91,-69.89 447.41,-68.53 438.35,-63.05 436.91,-69.89"/>
</a>
</g>
</g>
<!-- Node4 -->
<g id="Node000004" class="node">
<title>Node4</title>
<g id="a_Node000004"><a xlink:href="_dialect_8cpp.html" target="_top" xlink:title=" ">
<polygon fill="white" stroke="#666666" points="382.12,-30.5 286.62,-30.5 286.62,0 382.12,0 382.12,-30.5"/>
<text text-anchor="start" x="294.62" y="-17" font-family="Helvetica,sans-Serif" font-size="10.00">lib/Dialect/ZML/IR</text>
<text text-anchor="middle" x="334.38" y="-5.75" font-family="Helvetica,sans-Serif" font-size="10.00">/Dialect.cpp</text>
</a>
</g>
</g>
<!-- Node1&#45;&gt;Node4 -->
<g id="edge3_Node000001_Node000004" class="edge">
<title>Node1&#45;&gt;Node4</title>
<g id="a_edge3_Node000001_Node000004"><a xlink:title=" ">
<path fill="none" stroke="#63b8ff" d="M456.06,-62.15C429.76,-52.23 397.86,-40.2 373.32,-30.94"/>
<polygon fill="#63b8ff" stroke="#63b8ff" points="454.56,-65.33 465.16,-65.58 457.04,-58.78 454.56,-65.33"/>
</a>
</g>
</g>
<!-- Node5 -->
<g id="Node000005" class="node">
<title>Node5</title>
<g id="a_Node000005"><a xlink:href="_ops_8cpp.html" target="_top" xlink:title=" ">
<polygon fill="white" stroke="#666666" points="496.12,-30.5 400.62,-30.5 400.62,0 496.12,0 496.12,-30.5"/>
<text text-anchor="start" x="408.62" y="-17" font-family="Helvetica,sans-Serif" font-size="10.00">lib/Dialect/ZML/IR</text>
<text text-anchor="middle" x="448.38" y="-5.75" font-family="Helvetica,sans-Serif" font-size="10.00">/Ops.cpp</text>
</a>
</g>
</g>
<!-- Node1&#45;&gt;Node5 -->
<g id="edge4_Node000001_Node000005" class="edge">
<title>Node1&#45;&gt;Node5</title>
<g id="a_edge4_Node000001_Node000005"><a xlink:title=" ">
<path fill="none" stroke="#63b8ff" d="M484.94,-57.63C477.04,-48.69 468.25,-38.74 461.26,-30.83"/>
<polygon fill="#63b8ff" stroke="#63b8ff" points="482.19,-59.8 491.44,-64.98 487.44,-55.17 482.19,-59.8"/>
</a>
</g>
</g>
<!-- Node6 -->
<g id="Node000006" class="node">
<title>Node6</title>
<g id="a_Node000006"><a xlink:href="_types_8cpp.html" target="_top" xlink:title=" ">
<polygon fill="white" stroke="#666666" points="610.12,-30.5 514.62,-30.5 514.62,0 610.12,0 610.12,-30.5"/>
<text text-anchor="start" x="522.62" y="-17" font-family="Helvetica,sans-Serif" font-size="10.00">lib/Dialect/ZML/IR</text>
<text text-anchor="middle" x="562.38" y="-5.75" font-family="Helvetica,sans-Serif" font-size="10.00">/Types.cpp</text>
</a>
</g>
</g>
<!-- Node1&#45;&gt;Node6 -->
<g id="edge5_Node000001_Node000006" class="edge">
<title>Node1&#45;&gt;Node6</title>
<g id="a_edge5_Node000001_Node000006"><a xlink:title=" ">
<path fill="none" stroke="#63b8ff" d="M525.81,-57.63C533.71,-48.69 542.5,-38.74 549.49,-30.83"/>
<polygon fill="#63b8ff" stroke="#63b8ff" points="523.31,-55.17 519.31,-64.98 528.56,-59.8 523.31,-55.17"/>
</a>
</g>
</g>
<!-- Node7 -->
<g id="Node000007" class="node">
<title>Node7</title>
<g id="a_Node000007"><a xlink:href="_materialize_8cpp.html" target="_top" xlink:title=" ">
<polygon fill="white" stroke="#666666" points="742.12,-30.5 628.62,-30.5 628.62,0 742.12,0 742.12,-30.5"/>
<text text-anchor="start" x="636.62" y="-17" font-family="Helvetica,sans-Serif" font-size="10.00">lib/Dialect/ZML/Typing</text>
<text text-anchor="middle" x="685.38" y="-5.75" font-family="Helvetica,sans-Serif" font-size="10.00">/Materialize.cpp</text>
</a>
</g>
</g>
<!-- Node1&#45;&gt;Node7 -->
<g id="edge6_Node000001_Node000007" class="edge">
<title>Node1&#45;&gt;Node7</title>
<g id="a_edge6_Node000001_Node000007"><a xlink:title=" ">
<path fill="none" stroke="#63b8ff" d="M556.92,-62.28C584.68,-52.33 618.44,-40.24 644.38,-30.94"/>
<polygon fill="#63b8ff" stroke="#63b8ff" points="555.88,-58.94 547.64,-65.6 558.24,-65.52 555.88,-58.94"/>
</a>
</g>
</g>
<!-- Node8 -->
<g id="Node000008" class="node">
<title>Node8</title>
<g id="a_Node000008"><a xlink:href="_l_l_z_k_type_converter_8cpp.html" target="_top" xlink:title=" ">
<polygon fill="white" stroke="#666666" points="904.5,-30.5 760.25,-30.5 760.25,0 904.5,0 904.5,-30.5"/>
<text text-anchor="start" x="768.25" y="-17" font-family="Helvetica,sans-Serif" font-size="10.00">lib/Passes/ConvertZmlToLlzk</text>
<text text-anchor="middle" x="832.38" y="-5.75" font-family="Helvetica,sans-Serif" font-size="10.00">/LLZKTypeConverter.cpp</text>
</a>
</g>
</g>
<!-- Node1&#45;&gt;Node8 -->
<g id="edge7_Node000001_Node000008" class="edge">
<title>Node1&#45;&gt;Node8</title>
<g id="a_edge7_Node000001_Node000008"><a xlink:title=" ">
<path fill="none" stroke="#63b8ff" d="M572.54,-67.5C627.16,-56.73 704.06,-41.56 760.02,-30.52"/>
<polygon fill="#63b8ff" stroke="#63b8ff" points="572.21,-64 563.07,-69.37 573.56,-70.87 572.21,-64"/>
</a>
</g>
</g>
<!-- Node9 -->
<g id="Node000009" class="node">
<title>Node9</title>
<g id="a_Node000009"><a xlink:href="_passes_2_convert_zml_to_llzk_2_patterns_8cpp.html" target="_top" xlink:title=" ">
<polygon fill="white" stroke="#666666" points="1066.5,-30.5 922.25,-30.5 922.25,0 1066.5,0 1066.5,-30.5"/>
<text text-anchor="start" x="930.25" y="-17" font-family="Helvetica,sans-Serif" font-size="10.00">lib/Passes/ConvertZmlToLlzk</text>
<text text-anchor="middle" x="994.38" y="-5.75" font-family="Helvetica,sans-Serif" font-size="10.00">/Patterns.cpp</text>
</a>
</g>
</g>
<!-- Node1&#45;&gt;Node9 -->
<g id="edge8_Node000001_Node000009" class="edge">
<title>Node1&#45;&gt;Node9</title>
<g id="a_edge8_Node000001_Node000009"><a xlink:title=" ">
<path fill="none" stroke="#63b8ff" d="M572.62,-73.54C653.62,-64.62 793.72,-48.38 913.38,-30.5 916.2,-30.08 919.08,-29.63 921.98,-29.18"/>
<polygon fill="#63b8ff" stroke="#63b8ff" points="572.66,-70.02 563.1,-74.59 573.42,-76.98 572.66,-70.02"/>
</a>
</g>
</g>
</g>
</svg>
