<?xml version="1.0" encoding="UTF-8" standalone="no"?>
<!DOCTYPE svg PUBLIC "-//W3C//DTD SVG 1.1//EN"
 "http://www.w3.org/Graphics/SVG/1.1/DTD/svg11.dtd">
<!-- Generated by graphviz version 12.2.1 (20241206.2353)
 -->
<!-- Title: lib/Dialect/ZML/ExtVal/BabyBear.cpp Pages: 1 -->
<svg width="2077pt" height="438pt"
 viewBox="0.00 0.00 2077.25 437.50" xmlns="http://www.w3.org/2000/svg" xmlns:xlink="http://www.w3.org/1999/xlink">
<g id="graph0" class="graph" transform="scale(1 1) rotate(0) translate(4 433.5)">
<title>lib/Dialect/ZML/ExtVal/BabyBear.cpp</title>
<!-- Node1 -->
<g id="Node000001" class="node">
<title>Node1</title>
<g id="a_Node000001"><a xlink:title=" ">
<polygon fill="#999999" stroke="#666666" points="903.25,-429.5 789.75,-429.5 789.75,-399 903.25,-399 903.25,-429.5"/>
<text text-anchor="start" x="797.75" y="-416" font-family="Helvetica,sans-Serif" font-size="10.00">lib/Dialect/ZML/ExtVal</text>
<text text-anchor="middle" x="846.5" y="-404.75" font-family="Helvetica,sans-Serif" font-size="10.00">/BabyBear.cpp</text>
</a>
</g>
</g>
<!-- Node2 -->
<g id="Node000002" class="node">
<title>Node2</title>
<g id="a_Node000002"><a xlink:href="_dialect_2_z_m_l_2_ext_val_2_baby_bear_8h.html" target="_top" xlink:title=" ">
<polygon fill="white" stroke="#666666" points="606.88,-363 506.12,-363 506.12,-332.5 606.88,-332.5 606.88,-363"/>
<text text-anchor="start" x="514.12" y="-349.5" font-family="Helvetica,sans-Serif" font-size="10.00">zklang/Dialect/ZML</text>
<text text-anchor="middle" x="556.5" y="-338.25" font-family="Helvetica,sans-Serif" font-size="10.00">/ExtVal/BabyBear.h</text>
</a>
</g>
</g>
<!-- Node1&#45;&gt;Node2 -->
<g id="edge1_Node000001_Node000002" class="edge">
<title>Node1&#45;&gt;Node2</title>
<g id="a_edge1_Node000001_Node000002"><a xlink:title=" ">
<path fill="none" stroke="#63b8ff" d="M789.55,-400.58C740.17,-389.6 668.86,-373.74 618.15,-362.46"/>
<polygon fill="#63b8ff" stroke="#63b8ff" points="619.02,-359.07 608.5,-360.31 617.5,-365.9 619.02,-359.07"/>
</a>
</g>
</g>
<!-- Node6 -->
<g id="Node000006" class="node">
<title>Node6</title>
<g id="a_Node000006"><a xlink:title=" ">
<polygon fill="#e0e0e0" stroke="#999999" points="732.38,-224.38 556.62,-224.38 556.62,-205.12 732.38,-205.12 732.38,-224.38"/>
<text text-anchor="middle" x="644.5" y="-210.88" font-family="Helvetica,sans-Serif" font-size="10.00">mlir/Transforms/DialectConversion.h</text>
</a>
</g>
</g>
<!-- Node1&#45;&gt;Node6 -->
<g id="edge58_Node000001_Node000006" class="edge">
<title>Node1&#45;&gt;Node6</title>
<g id="a_edge58_Node000001_Node000006"><a xlink:title=" ">
<path fill="none" stroke="#63b8ff" d="M831.65,-398.73C794.88,-362.78 699.84,-269.86 661.2,-232.08"/>
<polygon fill="#63b8ff" stroke="#63b8ff" points="664.13,-230.05 654.54,-225.56 659.24,-235.06 664.13,-230.05"/>
</a>
</g>
</g>
<!-- Node8 -->
<g id="Node000008" class="node">
<title>Node8</title>
<g id="a_Node000008"><a xlink:href="_ops_8h.html" target="_top" xlink:title=" ">
<polygon fill="white" stroke="#666666" points="850.88,-230 750.12,-230 750.12,-199.5 850.88,-199.5 850.88,-230"/>
<text text-anchor="start" x="758.12" y="-216.5" font-family="Helvetica,sans-Serif" font-size="10.00">zklang/Dialect/ZML</text>
<text text-anchor="middle" x="800.5" y="-205.25" font-family="Helvetica,sans-Serif" font-size="10.00">/IR/Ops.h</text>
</a>
</g>
</g>
<!-- Node1&#45;&gt;Node8 -->
<g id="edge59_Node000001_Node000008" class="edge">
<title>Node1&#45;&gt;Node8</title>
<g id="a_edge59_Node000001_Node000008"><a xlink:title=" ">
<path fill="none" stroke="#63b8ff" d="M840.13,-398.53C836.05,-388.64 830.9,-375.22 827.5,-363 815.85,-321.15 807.91,-271.19 803.79,-241.54"/>
<polygon fill="#63b8ff" stroke="#63b8ff" points="807.27,-241.1 802.47,-231.66 800.33,-242.04 807.27,-241.1"/>
</a>
</g>
</g>
<!-- Node35 -->
<g id="Node000035" class="node">
<title>Node35</title>
<g id="a_Node000035"><a xlink:title=" ">
<polygon fill="#e0e0e0" stroke="#999999" points="934.38,-363 836.62,-363 836.62,-332.5 934.38,-332.5 934.38,-363"/>
<text text-anchor="start" x="844.62" y="-349.5" font-family="Helvetica,sans-Serif" font-size="10.00">llzk/Dialect/Felt/IR</text>
<text text-anchor="middle" x="885.5" y="-338.25" font-family="Helvetica,sans-Serif" font-size="10.00">/Ops.h</text>
</a>
</g>
</g>
<!-- Node1&#45;&gt;Node35 -->
<g id="edge55_Node000001_Node000035" class="edge">
<title>Node1&#45;&gt;Node35</title>
<g id="a_edge55_Node000001_Node000035"><a xlink:title=" ">
<path fill="none" stroke="#63b8ff" d="M855.35,-398.61C859.94,-391.03 865.66,-381.56 870.88,-372.93"/>
<polygon fill="#63b8ff" stroke="#63b8ff" points="873.72,-374.99 875.9,-364.62 867.73,-371.37 873.72,-374.99"/>
</a>
</g>
</g>
<!-- Node36 -->
<g id="Node000036" class="node">
<title>Node36</title>
<g id="a_Node000036"><a xlink:title=" ">
<polygon fill="#e0e0e0" stroke="#999999" points="1050.38,-363 952.62,-363 952.62,-332.5 1050.38,-332.5 1050.38,-363"/>
<text text-anchor="start" x="960.62" y="-349.5" font-family="Helvetica,sans-Serif" font-size="10.00">llzk/Dialect/Felt/IR</text>
<text text-anchor="middle" x="1001.5" y="-338.25" font-family="Helvetica,sans-Serif" font-size="10.00">/Types.h</text>
</a>
</g>
</g>
<!-- Node1&#45;&gt;Node36 -->
<g id="edge56_Node000001_Node000036" class="edge">
<title>Node1&#45;&gt;Node36</title>
<g id="a_edge56_Node000001_Node000036"><a xlink:title=" ">
<path fill="none" stroke="#63b8ff" d="M881.67,-398.61C903.59,-389.49 932.03,-377.66 955.7,-367.81"/>
<polygon fill="#63b8ff" stroke="#63b8ff" points="956.91,-371.09 964.8,-364.02 954.22,-364.63 956.91,-371.09"/>
</a>
</g>
</g>
<!-- Node37 -->
<g id="Node000037" class="node">
<title>Node37</title>
<g id="a_Node000037"><a xlink:title=" ">
<polygon fill="#e0e0e0" stroke="#999999" points="1160.75,-363 1068.25,-363 1068.25,-332.5 1160.75,-332.5 1160.75,-363"/>
<text text-anchor="start" x="1076.25" y="-349.5" font-family="Helvetica,sans-Serif" font-size="10.00">mlir/Dialect/Index</text>
<text text-anchor="middle" x="1114.5" y="-338.25" font-family="Helvetica,sans-Serif" font-size="10.00">/IR/IndexOps.h</text>
</a>
</g>
</g>
<!-- Node1&#45;&gt;Node37 -->
<g id="edge57_Node000001_Node000037" class="edge">
<title>Node1&#45;&gt;Node37</title>
<g id="a_edge57_Node000001_Node000037"><a xlink:title=" ">
<path fill="none" stroke="#63b8ff" d="M903.54,-400.15C943.88,-390.8 999.52,-377.75 1056.9,-363.62"/>
<polygon fill="#63b8ff" stroke="#63b8ff" points="1057.67,-367.03 1066.54,-361.23 1055.99,-360.24 1057.67,-367.03"/>
</a>
</g>
</g>
<!-- Node3 -->
<g id="Node000003" class="node">
<title>Node3</title>
<g id="a_Node000003"><a xlink:title=" ">
<polygon fill="#e0e0e0" stroke="#999999" points="319.12,-157.88 273.88,-157.88 273.88,-138.62 319.12,-138.62 319.12,-157.88"/>
<text text-anchor="middle" x="296.5" y="-144.38" font-family="Helvetica,sans-Serif" font-size="10.00">cstdint</text>
</a>
</g>
</g>
<!-- Node2&#45;&gt;Node3 -->
<g id="edge2_Node000002_Node000003" class="edge">
<title>Node2&#45;&gt;Node3</title>
<g id="a_edge2_Node000002_Node000003"><a xlink:title=" ">
<path fill="none" stroke="#63b8ff" d="M505.7,-344.3C437.94,-339.84 323.47,-327.77 297.5,-296.5 267.37,-260.21 280.15,-199.74 289.64,-168.8"/>
<polygon fill="#63b8ff" stroke="#63b8ff" points="292.87,-170.19 292.66,-159.6 286.22,-168.01 292.87,-170.19"/>
</a>
</g>
</g>
<!-- Node4 -->
<g id="Node000004" class="node">
<title>Node4</title>
<g id="a_Node000004"><a xlink:title=" ">
<polygon fill="#e0e0e0" stroke="#999999" points="522.38,-224.38 430.62,-224.38 430.62,-205.12 522.38,-205.12 522.38,-224.38"/>
<text text-anchor="middle" x="476.5" y="-210.88" font-family="Helvetica,sans-Serif" font-size="10.00">mlir/IR/Builders.h</text>
</a>
</g>
</g>
<!-- Node2&#45;&gt;Node4 -->
<g id="edge3_Node000002_Node000004" class="edge">
<title>Node2&#45;&gt;Node4</title>
<g id="a_edge3_Node000002_Node000004"><a xlink:title=" ">
<path fill="none" stroke="#63b8ff" d="M505.66,-335.12C485.17,-327.66 463.57,-315.65 451.5,-296.5 439.21,-276.99 451.43,-251 462.7,-233.84"/>
<polygon fill="#63b8ff" stroke="#63b8ff" points="465.25,-236.3 468.16,-226.11 459.53,-232.26 465.25,-236.3"/>
</a>
</g>
</g>
<!-- Node5 -->
<g id="Node000005" class="node">
<title>Node5</title>
<g id="a_Node000005"><a xlink:title=" ">
<polygon fill="#e0e0e0" stroke="#999999" points="540.75,-290.88 460.25,-290.88 460.25,-271.62 540.75,-271.62 540.75,-290.88"/>
<text text-anchor="middle" x="500.5" y="-277.38" font-family="Helvetica,sans-Serif" font-size="10.00">mlir/IR/Value.h</text>
</a>
</g>
</g>
<!-- Node2&#45;&gt;Node5 -->
<g id="edge4_Node000002_Node000005" class="edge">
<title>Node2&#45;&gt;Node5</title>
<g id="a_edge4_Node000002_Node000005"><a xlink:title=" ">
<path fill="none" stroke="#63b8ff" d="M543.79,-332.11C535.39,-322.44 524.34,-309.71 515.51,-299.54"/>
<polygon fill="#63b8ff" stroke="#63b8ff" points="518.35,-297.47 509.15,-292.22 513.07,-302.06 518.35,-297.47"/>
</a>
</g>
</g>
<!-- Node2&#45;&gt;Node6 -->
<g id="edge5_Node000002_Node000006" class="edge">
<title>Node2&#45;&gt;Node6</title>
<g id="a_edge5_Node000002_Node000006"><a xlink:title=" ">
<path fill="none" stroke="#63b8ff" d="M607.14,-338.77C632.19,-331.99 660.25,-319.49 675.5,-296.5 688.67,-276.65 673.61,-250.4 660.26,-233.3"/>
<polygon fill="#63b8ff" stroke="#63b8ff" points="663.26,-231.44 654.17,-226 657.89,-235.92 663.26,-231.44"/>
</a>
</g>
</g>
<!-- Node7 -->
<g id="Node000007" class="node">
<title>Node7</title>
<g id="a_Node000007"><a xlink:href="_conversion_8h.html" target="_top" xlink:title=" ">
<polygon fill="white" stroke="#666666" points="666.62,-296.5 558.38,-296.5 558.38,-266 666.62,-266 666.62,-296.5"/>
<text text-anchor="start" x="566.38" y="-283" font-family="Helvetica,sans-Serif" font-size="10.00">zklang/Dialect/ZML</text>
<text text-anchor="middle" x="612.5" y="-271.75" font-family="Helvetica,sans-Serif" font-size="10.00">/ExtVal/Conversion.h</text>
</a>
</g>
</g>
<!-- Node2&#45;&gt;Node7 -->
<g id="edge6_Node000002_Node000007" class="edge">
<title>Node2&#45;&gt;Node7</title>
<g id="a_edge6_Node000002_Node000007"><a xlink:title=" ">
<path fill="none" stroke="#63b8ff" d="M569.21,-332.11C576.08,-324.2 584.73,-314.24 592.48,-305.3"/>
<polygon fill="#63b8ff" stroke="#63b8ff" points="594.94,-307.82 598.85,-297.97 589.65,-303.23 594.94,-307.82"/>
</a>
</g>
</g>
<!-- Node2&#45;&gt;Node8 -->
<g id="edge51_Node000002_Node000008" class="edge">
<title>Node2&#45;&gt;Node8</title>
<g id="a_edge51_Node000002_Node000008"><a xlink:title=" ">
<path fill="none" stroke="#63b8ff" d="M606.78,-332.02C633.11,-323.37 665.41,-311.23 692.5,-296.5 723.14,-279.84 754.69,-255.23 775.71,-237.56"/>
<polygon fill="#63b8ff" stroke="#63b8ff" points="777.83,-240.36 783.17,-231.2 773.29,-235.03 777.83,-240.36"/>
</a>
</g>
</g>
<!-- Node33 -->
<g id="Node000033" class="node">
<title>Node33</title>
<g id="a_Node000033"><a xlink:href="_finite_fields_2_baby_bear_8h.html" target="_top" xlink:title=" ">
<polygon fill="white" stroke="#666666" points="404.38,-296.5 306.62,-296.5 306.62,-266 404.38,-266 404.38,-296.5"/>
<text text-anchor="start" x="314.62" y="-283" font-family="Helvetica,sans-Serif" font-size="10.00">zklang/FiniteFields</text>
<text text-anchor="middle" x="355.5" y="-271.75" font-family="Helvetica,sans-Serif" font-size="10.00">/BabyBear.h</text>
</a>
</g>
</g>
<!-- Node2&#45;&gt;Node33 -->
<g id="edge52_Node000002_Node000033" class="edge">
<title>Node2&#45;&gt;Node33</title>
<g id="a_edge52_Node000002_Node000033"><a xlink:title=" ">
<path fill="none" stroke="#63b8ff" d="M510.64,-332.03C481.31,-322.62 443.05,-310.35 411.87,-300.34"/>
<polygon fill="#63b8ff" stroke="#63b8ff" points="413.2,-297.09 402.61,-297.37 411.06,-303.75 413.2,-297.09"/>
</a>
</g>
</g>
<!-- Node7&#45;&gt;Node4 -->
<g id="edge7_Node000007_Node000004" class="edge">
<title>Node7&#45;&gt;Node4</title>
<g id="a_edge7_Node000007_Node000004"><a xlink:title=" ">
<path fill="none" stroke="#63b8ff" d="M581.64,-265.61C558.88,-254.82 528.1,-240.22 505.73,-229.61"/>
<polygon fill="#63b8ff" stroke="#63b8ff" points="507.4,-226.53 496.86,-225.41 504.4,-232.86 507.4,-226.53"/>
</a>
</g>
</g>
<!-- Node7&#45;&gt;Node6 -->
<g id="edge8_Node000007_Node000006" class="edge">
<title>Node7&#45;&gt;Node6</title>
<g id="a_edge8_Node000007_Node000006"><a xlink:title=" ">
<path fill="none" stroke="#63b8ff" d="M619.76,-265.61C624.32,-256.43 630.24,-244.5 635.14,-234.61"/>
<polygon fill="#63b8ff" stroke="#63b8ff" points="638.14,-236.44 639.45,-225.93 631.87,-233.33 638.14,-236.44"/>
</a>
</g>
</g>
<!-- Node7&#45;&gt;Node8 -->
<g id="edge9_Node000007_Node000008" class="edge">
<title>Node7&#45;&gt;Node8</title>
<g id="a_edge9_Node000007_Node000008"><a xlink:title=" ">
<path fill="none" stroke="#63b8ff" d="M655.16,-265.61C682.35,-256.29 717.8,-244.12 746.88,-234.15"/>
<polygon fill="#63b8ff" stroke="#63b8ff" points="747.93,-237.49 756.25,-230.93 745.66,-230.87 747.93,-237.49"/>
</a>
</g>
</g>
<!-- Node9 -->
<g id="Node000009" class="node">
<title>Node9</title>
<g id="a_Node000009"><a xlink:title=" ">
<polygon fill="#e0e0e0" stroke="#999999" points="1919.25,-24.88 1811.75,-24.88 1811.75,-5.63 1919.25,-5.63 1919.25,-24.88"/>
<text text-anchor="middle" x="1865.5" y="-11.38" font-family="Helvetica,sans-Serif" font-size="10.00">llvm/ADT/ArrayRef.h</text>
</a>
</g>
</g>
<!-- Node8&#45;&gt;Node9 -->
<g id="edge10_Node000008_Node000009" class="edge">
<title>Node8&#45;&gt;Node9</title>
<g id="a_edge10_Node000008_Node000009"><a xlink:title=" ">
<path fill="none" stroke="#63b8ff" d="M851.07,-213.04C1043.03,-210.1 1720.38,-197.39 1810.5,-163.5 1855.07,-146.74 1873.76,-139.86 1894.5,-97 1904.6,-76.12 1891.69,-50.77 1880.02,-34.11"/>
<polygon fill="#63b8ff" stroke="#63b8ff" points="1882.86,-32.06 1874.04,-26.19 1877.27,-36.28 1882.86,-32.06"/>
</a>
</g>
</g>
<!-- Node10 -->
<g id="Node000010" class="node">
<title>Node10</title>
<g id="a_Node000010"><a xlink:title=" ">
<polygon fill="#e0e0e0" stroke="#999999" points="121,-24.88 0,-24.88 0,-5.63 121,-5.63 121,-24.88"/>
<text text-anchor="middle" x="60.5" y="-11.38" font-family="Helvetica,sans-Serif" font-size="10.00">llvm/ADT/SmallVector.h</text>
</a>
</g>
</g>
<!-- Node8&#45;&gt;Node10 -->
<g id="edge11_Node000008_Node000010" class="edge">
<title>Node8&#45;&gt;Node10</title>
<g id="a_edge11_Node000008_Node000010"><a xlink:title=" ">
<path fill="none" stroke="#63b8ff" d="M749.72,-201.12C746.95,-200.55 744.19,-200 741.5,-199.5 620.74,-177.05 586.84,-192.56 467.5,-163.5 322.61,-128.21 157.78,-59.15 90.99,-29.88"/>
<polygon fill="#63b8ff" stroke="#63b8ff" points="92.71,-26.81 82.15,-25.98 89.89,-33.22 92.71,-26.81"/>
</a>
</g>
</g>
<!-- Node11 -->
<g id="Node000011" class="node">
<title>Node11</title>
<g id="a_Node000011"><a xlink:title=" ">
<polygon fill="#e0e0e0" stroke="#999999" points="248.38,-24.88 138.62,-24.88 138.62,-5.63 248.38,-5.63 248.38,-24.88"/>
<text text-anchor="middle" x="193.5" y="-11.38" font-family="Helvetica,sans-Serif" font-size="10.00">llvm/ADT/StringRef.h</text>
</a>
</g>
</g>
<!-- Node8&#45;&gt;Node11 -->
<g id="edge12_Node000008_Node000011" class="edge">
<title>Node8&#45;&gt;Node11</title>
<g id="a_edge12_Node000008_Node000011"><a xlink:title=" ">
<path fill="none" stroke="#63b8ff" d="M749.7,-201.25C746.93,-200.64 744.18,-200.05 741.5,-199.5 648.76,-180.37 620.49,-195.88 531.5,-163.5 476.38,-143.45 467.45,-127.75 417.5,-97 396.29,-83.94 393.17,-76.79 370.5,-66.5 347.56,-56.08 285.67,-39.42 241.55,-28.17"/>
<polygon fill="#63b8ff" stroke="#63b8ff" points="242.49,-24.8 231.94,-25.73 240.77,-31.58 242.49,-24.8"/>
</a>
</g>
</g>
<!-- Node12 -->
<g id="Node000012" class="node">
<title>Node12</title>
<g id="a_Node000012"><a xlink:title=" ">
<polygon fill="#e0e0e0" stroke="#999999" points="399,-30.5 266,-30.5 266,0 399,0 399,-30.5"/>
<text text-anchor="start" x="274" y="-17" font-family="Helvetica,sans-Serif" font-size="10.00">mlir/Bytecode/BytecodeOp</text>
<text text-anchor="middle" x="332.5" y="-5.75" font-family="Helvetica,sans-Serif" font-size="10.00">Interface.h</text>
</a>
</g>
</g>
<!-- Node8&#45;&gt;Node12 -->
<g id="edge13_Node000008_Node000012" class="edge">
<title>Node8&#45;&gt;Node12</title>
<g id="a_edge13_Node000008_Node000012"><a xlink:title=" ">
<path fill="none" stroke="#63b8ff" d="M749.69,-201.47C690.18,-187.07 599.16,-164.94 595.5,-163.5 549.13,-145.23 426.16,-72.62 366.25,-36.66"/>
<polygon fill="#63b8ff" stroke="#63b8ff" points="368.19,-33.74 357.81,-31.58 364.58,-39.74 368.19,-33.74"/>
</a>
</g>
</g>
<!-- Node13 -->
<g id="Node000013" class="node">
<title>Node13</title>
<g id="a_Node000013"><a xlink:title=" ">
<polygon fill="#e0e0e0" stroke="#999999" points="520.38,-30.5 416.62,-30.5 416.62,0 520.38,0 520.38,-30.5"/>
<text text-anchor="start" x="424.62" y="-17" font-family="Helvetica,sans-Serif" font-size="10.00">mlir/Dialect/Func/IR</text>
<text text-anchor="middle" x="468.5" y="-5.75" font-family="Helvetica,sans-Serif" font-size="10.00">/FuncOps.h</text>
</a>
</g>
</g>
<!-- Node8&#45;&gt;Node13 -->
<g id="edge14_Node000008_Node000013" class="edge">
<title>Node8&#45;&gt;Node13</title>
<g id="a_edge14_Node000008_Node000013"><a xlink:title=" ">
<path fill="none" stroke="#63b8ff" d="M749.7,-199.67C711.53,-188.67 662.81,-173.6 644.5,-163.5 582.06,-129.05 520.89,-70.78 489.74,-38.85"/>
<polygon fill="#63b8ff" stroke="#63b8ff" points="492.64,-36.81 483.18,-32.04 487.6,-41.67 492.64,-36.81"/>
</a>
</g>
</g>
<!-- Node14 -->
<g id="Node000014" class="node">
<title>Node14</title>
<g id="a_Node000014"><a xlink:title=" ">
<polygon fill="#e0e0e0" stroke="#999999" points="640.25,-24.88 538.75,-24.88 538.75,-5.63 640.25,-5.63 640.25,-24.88"/>
<text text-anchor="middle" x="589.5" y="-11.38" font-family="Helvetica,sans-Serif" font-size="10.00">mlir/IR/BuiltinOps.h</text>
</a>
</g>
</g>
<!-- Node8&#45;&gt;Node14 -->
<g id="edge15_Node000008_Node000014" class="edge">
<title>Node8&#45;&gt;Node14</title>
<g id="a_edge15_Node000008_Node000014"><a xlink:title=" ">
<path fill="none" stroke="#63b8ff" d="M749.83,-201.71C725.3,-193.93 696.66,-181.77 675.5,-163.5 634.15,-127.8 607.73,-67.07 596.2,-35.94"/>
<polygon fill="#63b8ff" stroke="#63b8ff" points="599.55,-34.91 592.9,-26.65 592.95,-37.25 599.55,-34.91"/>
</a>
</g>
</g>
<!-- Node15 -->
<g id="Node000015" class="node">
<title>Node15</title>
<g id="a_Node000015"><a xlink:title=" ">
<polygon fill="#e0e0e0" stroke="#999999" points="768.75,-24.88 658.25,-24.88 658.25,-5.63 768.75,-5.63 768.75,-24.88"/>
<text text-anchor="middle" x="713.5" y="-11.38" font-family="Helvetica,sans-Serif" font-size="10.00">mlir/IR/OpDefinition.h</text>
</a>
</g>
</g>
<!-- Node8&#45;&gt;Node15 -->
<g id="edge16_Node000008_Node000015" class="edge">
<title>Node8&#45;&gt;Node15</title>
<g id="a_edge16_Node000008_Node000015"><a xlink:title=" ">
<path fill="none" stroke="#63b8ff" d="M756.39,-199.08C729.32,-189.09 698.37,-175.54 690.5,-163.5 664.4,-123.55 687.85,-64.73 702.99,-34.97"/>
<polygon fill="#63b8ff" stroke="#63b8ff" points="705.94,-36.89 707.56,-26.42 699.76,-33.59 705.94,-36.89"/>
</a>
</g>
</g>
<!-- Node16 -->
<g id="Node000016" class="node">
<title>Node16</title>
<g id="a_Node000016"><a xlink:title=" ">
<polygon fill="#e0e0e0" stroke="#999999" points="922.5,-24.88 786.5,-24.88 786.5,-5.63 922.5,-5.63 922.5,-24.88"/>
<text text-anchor="middle" x="854.5" y="-11.38" font-family="Helvetica,sans-Serif" font-size="10.00">mlir/IR/OpImplementation.h</text>
</a>
</g>
</g>
<!-- Node8&#45;&gt;Node16 -->
<g id="edge17_Node000008_Node000016" class="edge">
<title>Node8&#45;&gt;Node16</title>
<g id="a_edge17_Node000008_Node000016"><a xlink:title=" ">
<path fill="none" stroke="#63b8ff" d="M752.41,-199.08C735.48,-191.34 718.25,-179.93 708.5,-163.5 686.5,-126.42 683.46,-101.6 708.5,-66.5 719.58,-50.98 763.44,-37.19 800.22,-28"/>
<polygon fill="#63b8ff" stroke="#63b8ff" points="801,-31.41 809.9,-25.65 799.35,-24.61 801,-31.41"/>
</a>
</g>
</g>
<!-- Node17 -->
<g id="Node000017" class="node">
<title>Node17</title>
<g id="a_Node000017"><a xlink:title=" ">
<polygon fill="#e0e0e0" stroke="#999999" points="1090.62,-24.88 940.38,-24.88 940.38,-5.63 1090.62,-5.63 1090.62,-24.88"/>
<text text-anchor="middle" x="1015.5" y="-11.38" font-family="Helvetica,sans-Serif" font-size="10.00">mlir/Interfaces/CallInterfaces.h</text>
</a>
</g>
</g>
<!-- Node8&#45;&gt;Node17 -->
<g id="edge18_Node000008_Node000017" class="edge">
<title>Node8&#45;&gt;Node17</title>
<g id="a_edge18_Node000008_Node000017"><a xlink:title=" ">
<path fill="none" stroke="#63b8ff" d="M785.78,-199.25C758.82,-170.94 707.3,-107.55 741.5,-66.5 743.2,-64.45 872.38,-41.42 952.74,-27.25"/>
<polygon fill="#63b8ff" stroke="#63b8ff" points="953,-30.76 962.24,-25.58 951.79,-23.87 953,-30.76"/>
</a>
</g>
</g>
<!-- Node18 -->
<g id="Node000018" class="node">
<title>Node18</title>
<g id="a_Node000018"><a xlink:title=" ">
<polygon fill="#e0e0e0" stroke="#999999" points="1373.38,-30.5 1239.62,-30.5 1239.62,0 1373.38,0 1373.38,-30.5"/>
<text text-anchor="start" x="1247.62" y="-17" font-family="Helvetica,sans-Serif" font-size="10.00">mlir/Interfaces/ControlFlow</text>
<text text-anchor="middle" x="1306.5" y="-5.75" font-family="Helvetica,sans-Serif" font-size="10.00">Interfaces.h</text>
</a>
</g>
</g>
<!-- Node8&#45;&gt;Node18 -->
<g id="edge19_Node000008_Node000018" class="edge">
<title>Node8&#45;&gt;Node18</title>
<g id="a_edge19_Node000008_Node000018"><a xlink:title=" ">
<path fill="none" stroke="#63b8ff" d="M805.21,-199.36C816.03,-168.89 845.76,-98.08 897.5,-66.5 958.3,-29.39 1140.28,-40.29 1228.16,-30.56"/>
<polygon fill="#63b8ff" stroke="#63b8ff" points="1228.44,-34.06 1237.91,-29.31 1227.55,-27.11 1228.44,-34.06"/>
</a>
</g>
</g>
<!-- Node19 -->
<g id="Node000019" class="node">
<title>Node19</title>
<g id="a_Node000019"><a xlink:title=" ">
<polygon fill="#e0e0e0" stroke="#999999" points="2069.25,-30.5 1937.75,-30.5 1937.75,0 2069.25,0 2069.25,-30.5"/>
<text text-anchor="start" x="1945.75" y="-17" font-family="Helvetica,sans-Serif" font-size="10.00">mlir/Interfaces/DataLayout</text>
<text text-anchor="middle" x="2003.5" y="-5.75" font-family="Helvetica,sans-Serif" font-size="10.00">Interfaces.h</text>
</a>
</g>
</g>
<!-- Node8&#45;&gt;Node19 -->
<g id="edge20_Node000008_Node000019" class="edge">
<title>Node8&#45;&gt;Node19</title>
<g id="a_edge20_Node000008_Node000019"><a xlink:title=" ">
<path fill="none" stroke="#63b8ff" d="M851.36,-213.45C1049.34,-212.01 1762.19,-204.01 1854.5,-163.5 1914.82,-137.03 1964.37,-74.31 1988.2,-39.88"/>
<polygon fill="#63b8ff" stroke="#63b8ff" points="1990.94,-42.07 1993.64,-31.83 1985.14,-38.15 1990.94,-42.07"/>
</a>
</g>
</g>
<!-- Node20 -->
<g id="Node000020" class="node">
<title>Node20</title>
<g id="a_Node000020"><a xlink:title=" ">
<polygon fill="#e0e0e0" stroke="#999999" points="1509.88,-30.5 1391.12,-30.5 1391.12,0 1509.88,0 1509.88,-30.5"/>
<text text-anchor="start" x="1399.12" y="-17" font-family="Helvetica,sans-Serif" font-size="10.00">mlir/Interfaces/Function</text>
<text text-anchor="middle" x="1450.5" y="-5.75" font-family="Helvetica,sans-Serif" font-size="10.00">Interfaces.h</text>
</a>
</g>
</g>
<!-- Node8&#45;&gt;Node20 -->
<g id="edge21_Node000008_Node000020" class="edge">
<title>Node8&#45;&gt;Node20</title>
<g id="a_edge21_Node000008_Node000020"><a xlink:title=" ">
<path fill="none" stroke="#63b8ff" d="M851.26,-211.93C1048.64,-204.35 1757.32,-172.03 1820.5,-97 1885.7,-19.58 1964.67,-102.51 1521.39,-30.89"/>
<polygon fill="#63b8ff" stroke="#63b8ff" points="1522.07,-27.46 1511.64,-29.3 1520.95,-34.37 1522.07,-27.46"/>
</a>
</g>
</g>
<!-- Node21 -->
<g id="Node000021" class="node">
<title>Node21</title>
<g id="a_Node000021"><a xlink:title=" ">
<polygon fill="#e0e0e0" stroke="#999999" points="1649.38,-30.5 1527.62,-30.5 1527.62,0 1649.38,0 1649.38,-30.5"/>
<text text-anchor="start" x="1535.62" y="-17" font-family="Helvetica,sans-Serif" font-size="10.00">mlir/Interfaces/InferType</text>
<text text-anchor="middle" x="1588.5" y="-5.75" font-family="Helvetica,sans-Serif" font-size="10.00">OpInterface.h</text>
</a>
</g>
</g>
<!-- Node8&#45;&gt;Node21 -->
<g id="edge22_Node000008_Node000021" class="edge">
<title>Node8&#45;&gt;Node21</title>
<g id="a_edge22_Node000008_Node000021"><a xlink:title=" ">
<path fill="none" stroke="#63b8ff" d="M851.14,-212.5C1010.05,-208.31 1497.44,-193.31 1652.5,-163.5 1744.49,-145.81 1797.7,-172.97 1852.5,-97 1932.78,14.3 1913.89,-77.4 1660.63,-30.84"/>
<polygon fill="#63b8ff" stroke="#63b8ff" points="1661.53,-27.45 1651.06,-29.03 1660.23,-34.33 1661.53,-27.45"/>
</a>
</g>
</g>
<!-- Node22 -->
<g id="Node000022" class="node">
<title>Node22</title>
<g id="a_Node000022"><a xlink:title=" ">
<polygon fill="#e0e0e0" stroke="#999999" points="1794,-30.5 1667,-30.5 1667,0 1794,0 1794,-30.5"/>
<text text-anchor="start" x="1675" y="-17" font-family="Helvetica,sans-Serif" font-size="10.00">mlir/Interfaces/SideEffect</text>
<text text-anchor="middle" x="1730.5" y="-5.75" font-family="Helvetica,sans-Serif" font-size="10.00">Interfaces.h</text>
</a>
</g>
</g>
<!-- Node8&#45;&gt;Node22 -->
<g id="edge23_Node000008_Node000022" class="edge">
<title>Node8&#45;&gt;Node22</title>
<g id="a_edge23_Node000008_Node000022"><a xlink:title=" ">
<path fill="none" stroke="#63b8ff" d="M851.3,-213.86C1022.49,-213.8 1577.09,-209.92 1748.5,-163.5 1810.76,-146.64 1843.93,-152.08 1877.5,-97 1884.56,-85.43 1885.38,-77.53 1877.5,-66.5 1868.34,-53.69 1836.97,-42.12 1805.55,-33.31"/>
<polygon fill="#63b8ff" stroke="#63b8ff" points="1806.5,-29.94 1795.93,-30.71 1804.67,-36.7 1806.5,-29.94"/>
</a>
</g>
</g>
<!-- Node23 -->
<g id="Node000023" class="node">
<title>Node23</title>
<g id="a_Node000023"><a xlink:href="_op_interfaces_8h.html" target="_top" xlink:title=" ">
<polygon fill="white" stroke="#666666" points="850.88,-97 750.12,-97 750.12,-66.5 850.88,-66.5 850.88,-97"/>
<text text-anchor="start" x="758.12" y="-83.5" font-family="Helvetica,sans-Serif" font-size="10.00">zklang/Dialect/ZML</text>
<text text-anchor="middle" x="800.5" y="-72.25" font-family="Helvetica,sans-Serif" font-size="10.00">/IR/OpInterfaces.h</text>
</a>
</g>
</g>
<!-- Node8&#45;&gt;Node23 -->
<g id="edge24_Node000008_Node000023" class="edge">
<title>Node8&#45;&gt;Node23</title>
<g id="a_edge24_Node000008_Node000023"><a xlink:title=" ">
<path fill="none" stroke="#63b8ff" d="M800.5,-199.23C800.5,-177.39 800.5,-135.77 800.5,-108.65"/>
<polygon fill="#63b8ff" stroke="#63b8ff" points="804,-108.85 800.5,-98.85 797,-108.85 804,-108.85"/>
</a>
</g>
</g>
<!-- Node25 -->
<g id="Node000025" class="node">
<title>Node25</title>
<g id="a_Node000025"><a xlink:href="_types_8h.html" target="_top" xlink:title=" ">
<polygon fill="white" stroke="#666666" points="1319.88,-163.5 1219.12,-163.5 1219.12,-133 1319.88,-133 1319.88,-163.5"/>
<text text-anchor="start" x="1227.12" y="-150" font-family="Helvetica,sans-Serif" font-size="10.00">zklang/Dialect/ZML</text>
<text text-anchor="middle" x="1269.5" y="-138.75" font-family="Helvetica,sans-Serif" font-size="10.00">/IR/Types.h</text>
</a>
</g>
</g>
<!-- Node8&#45;&gt;Node25 -->
<g id="edge40_Node000008_Node000025" class="edge">
<title>Node8&#45;&gt;Node25</title>
<g id="a_edge40_Node000008_Node000025"><a xlink:title=" ">
<path fill="none" stroke="#63b8ff" d="M851.14,-206.79C937.65,-194.89 1113.65,-170.68 1207.43,-157.79"/>
<polygon fill="#63b8ff" stroke="#63b8ff" points="1207.79,-161.27 1217.22,-156.44 1206.84,-154.34 1207.79,-161.27"/>
</a>
</g>
</g>
<!-- Node31 -->
<g id="Node000031" class="node">
<title>Node31</title>
<g id="a_Node000031"><a xlink:href="_ops_8h_8inc.html" target="_top" xlink:title=" ">
<polygon fill="white" stroke="#666666" points="1811.88,-97 1711.12,-97 1711.12,-66.5 1811.88,-66.5 1811.88,-97"/>
<text text-anchor="start" x="1719.12" y="-83.5" font-family="Helvetica,sans-Serif" font-size="10.00">zklang/Dialect/ZML</text>
<text text-anchor="middle" x="1761.5" y="-72.25" font-family="Helvetica,sans-Serif" font-size="10.00">/IR/Ops.h.inc</text>
</a>
</g>
</g>
<!-- Node8&#45;&gt;Node31 -->
<g id="edge50_Node000008_Node000031" class="edge">
<title>Node8&#45;&gt;Node31</title>
<g id="a_edge50_Node000008_Node000031"><a xlink:title=" ">
<path fill="none" stroke="#63b8ff" d="M851.26,-210.33C945.56,-203.68 1154.04,-187.48 1328.5,-163.5 1493.59,-140.81 1534.14,-129.89 1697.5,-97 1698.32,-96.84 1699.14,-96.67 1699.96,-96.5"/>
<polygon fill="#63b8ff" stroke="#63b8ff" points="1700.33,-100 1709.4,-94.53 1698.9,-93.15 1700.33,-100"/>
</a>
</g>
</g>
<!-- Node23&#45;&gt;Node9 -->
<g id="edge25_Node000023_Node000009" class="edge">
<title>Node23&#45;&gt;Node9</title>
<g id="a_edge25_Node000023_Node000009"><a xlink:title=" ">
<path fill="none" stroke="#63b8ff" d="M851.22,-72.26C866.1,-70.05 882.42,-67.9 897.5,-66.5 1298.75,-29.16 1404.06,-83.87 1803.5,-30.5 1808.89,-29.78 1814.51,-28.81 1820.06,-27.71"/>
<polygon fill="#63b8ff" stroke="#63b8ff" points="1820.75,-31.14 1829.79,-25.63 1819.28,-24.3 1820.75,-31.14"/>
</a>
</g>
</g>
<!-- Node23&#45;&gt;Node10 -->
<g id="edge26_Node000023_Node000010" class="edge">
<title>Node23&#45;&gt;Node10</title>
<g id="a_edge26_Node000023_Node000010"><a xlink:title=" ">
<path fill="none" stroke="#63b8ff" d="M749.76,-79.18C637.48,-75.23 359.72,-62.76 129.5,-30.5 123.52,-29.66 117.28,-28.62 111.1,-27.48"/>
<polygon fill="#63b8ff" stroke="#63b8ff" points="112.09,-24.1 101.6,-25.63 110.75,-30.97 112.09,-24.1"/>
</a>
</g>
</g>
<!-- Node23&#45;&gt;Node11 -->
<g id="edge27_Node000023_Node000011" class="edge">
<title>Node23&#45;&gt;Node11</title>
<g id="a_edge27_Node000023_Node000011"><a xlink:title=" ">
<path fill="none" stroke="#63b8ff" d="M749.98,-78.29C653.55,-73.1 436.83,-59.1 256.5,-30.5 251.51,-29.71 246.32,-28.75 241.15,-27.72"/>
<polygon fill="#63b8ff" stroke="#63b8ff" points="241.98,-24.31 231.47,-25.66 240.53,-31.16 241.98,-24.31"/>
</a>
</g>
</g>
<!-- Node23&#45;&gt;Node12 -->
<g id="edge28_Node000023_Node000012" class="edge">
<title>Node23&#45;&gt;Node12</title>
<g id="a_edge28_Node000023_Node000012"><a xlink:title=" ">
<path fill="none" stroke="#63b8ff" d="M749.8,-75.26C676.92,-67.15 538.1,-50.9 410.27,-30.88"/>
<polygon fill="#63b8ff" stroke="#63b8ff" points="411.04,-27.46 400.61,-29.36 409.95,-34.38 411.04,-27.46"/>
</a>
</g>
</g>
<!-- Node23&#45;&gt;Node13 -->
<g id="edge29_Node000023_Node000013" class="edge">
<title>Node23&#45;&gt;Node13</title>
<g id="a_edge29_Node000023_Node000013"><a xlink:title=" ">
<path fill="none" stroke="#63b8ff" d="M749.67,-72.05C697.5,-62.95 613.73,-47.91 531.97,-30.96"/>
<polygon fill="#63b8ff" stroke="#63b8ff" points="532.69,-27.54 522.19,-28.92 531.26,-34.39 532.69,-27.54"/>
</a>
</g>
</g>
<!-- Node23&#45;&gt;Node14 -->
<g id="edge30_Node000023_Node000014" class="edge">
<title>Node23&#45;&gt;Node14</title>
<g id="a_edge30_Node000023_Node000014"><a xlink:title=" ">
<path fill="none" stroke="#63b8ff" d="M752.36,-66.03C715.37,-54.73 664.87,-39.29 629.96,-28.62"/>
<polygon fill="#63b8ff" stroke="#63b8ff" points="631.24,-25.35 620.65,-25.77 629.19,-32.04 631.24,-25.35"/>
</a>
</g>
</g>
<!-- Node23&#45;&gt;Node15 -->
<g id="edge31_Node000023_Node000015" class="edge">
<title>Node23&#45;&gt;Node15</title>
<g id="a_edge31_Node000023_Node000015"><a xlink:title=" ">
<path fill="none" stroke="#63b8ff" d="M780.76,-66.11C766.91,-55.85 748.42,-42.14 734.34,-31.7"/>
<polygon fill="#63b8ff" stroke="#63b8ff" points="736.73,-29.12 726.62,-25.97 732.56,-34.74 736.73,-29.12"/>
</a>
</g>
</g>
<!-- Node23&#45;&gt;Node16 -->
<g id="edge32_Node000023_Node000016" class="edge">
<title>Node23&#45;&gt;Node16</title>
<g id="a_edge32_Node000023_Node000016"><a xlink:title=" ">
<path fill="none" stroke="#63b8ff" d="M812.75,-66.11C820.77,-56.54 831.29,-43.97 839.76,-33.85"/>
<polygon fill="#63b8ff" stroke="#63b8ff" points="842.41,-36.15 846.14,-26.23 837.04,-31.65 842.41,-36.15"/>
</a>
</g>
</g>
<!-- Node23&#45;&gt;Node17 -->
<g id="edge33_Node000023_Node000017" class="edge">
<title>Node23&#45;&gt;Node17</title>
<g id="a_edge33_Node000023_Node000017"><a xlink:title=" ">
<path fill="none" stroke="#63b8ff" d="M849.56,-66.03C887.24,-54.73 938.7,-39.29 974.28,-28.62"/>
<polygon fill="#63b8ff" stroke="#63b8ff" points="975.21,-31.99 983.78,-25.77 973.2,-25.29 975.21,-31.99"/>
</a>
</g>
</g>
<!-- Node23&#45;&gt;Node18 -->
<g id="edge34_Node000023_Node000018" class="edge">
<title>Node23&#45;&gt;Node18</title>
<g id="a_edge34_Node000023_Node000018"><a xlink:title=" ">
<path fill="none" stroke="#63b8ff" d="M851.05,-68.9C855.58,-68.02 860.12,-67.2 864.5,-66.5 1022.28,-41.27 1066.7,-53.02 1228.1,-30.75"/>
<polygon fill="#63b8ff" stroke="#63b8ff" points="1228.5,-34.23 1237.92,-29.37 1227.53,-27.29 1228.5,-34.23"/>
</a>
</g>
</g>
<!-- Node23&#45;&gt;Node19 -->
<g id="edge35_Node000023_Node000019" class="edge">
<title>Node23&#45;&gt;Node19</title>
<g id="a_edge35_Node000023_Node000019"><a xlink:title=" ">
<path fill="none" stroke="#63b8ff" d="M851.22,-72.22C866.09,-70.01 882.41,-67.87 897.5,-66.5 1350.45,-25.45 1470.9,-80.54 1926.17,-30.63"/>
<polygon fill="#63b8ff" stroke="#63b8ff" points="1926.27,-34.14 1935.83,-29.56 1925.5,-27.18 1926.27,-34.14"/>
</a>
</g>
</g>
<!-- Node23&#45;&gt;Node20 -->
<g id="edge36_Node000023_Node000020" class="edge">
<title>Node23&#45;&gt;Node20</title>
<g id="a_edge36_Node000023_Node000020"><a xlink:title=" ">
<path fill="none" stroke="#63b8ff" d="M851.26,-72.59C866.13,-70.39 882.44,-68.16 897.5,-66.5 1108.67,-43.18 1166.51,-60.13 1379.62,-30.78"/>
<polygon fill="#63b8ff" stroke="#63b8ff" points="1379.96,-34.27 1389.38,-29.42 1378.99,-27.34 1379.96,-34.27"/>
</a>
</g>
</g>
<!-- Node23&#45;&gt;Node21 -->
<g id="edge37_Node000023_Node000021" class="edge">
<title>Node23&#45;&gt;Node21</title>
<g id="a_edge37_Node000023_Node000021"><a xlink:title=" ">
<path fill="none" stroke="#63b8ff" d="M851.24,-72.44C866.11,-70.23 882.43,-68.04 897.5,-66.5 1168.9,-38.75 1242.42,-65.44 1516.41,-30.63"/>
<polygon fill="#63b8ff" stroke="#63b8ff" points="1516.53,-34.14 1526,-29.4 1515.64,-27.2 1516.53,-34.14"/>
</a>
</g>
</g>
<!-- Node23&#45;&gt;Node22 -->
<g id="edge38_Node000023_Node000022" class="edge">
<title>Node23&#45;&gt;Node22</title>
<g id="a_edge38_Node000023_Node000022"><a xlink:title=" ">
<path fill="none" stroke="#63b8ff" d="M851.23,-72.33C866.1,-70.13 882.42,-67.96 897.5,-66.5 1230.9,-34.2 1320.47,-70.68 1655.58,-30.74"/>
<polygon fill="#63b8ff" stroke="#63b8ff" points="1655.58,-34.26 1665.09,-29.59 1654.74,-27.31 1655.58,-34.26"/>
</a>
</g>
</g>
<!-- Node24 -->
<g id="Node000024" class="node">
<title>Node24</title>
<g id="a_Node000024"><a xlink:href="_op_interfaces_8h_8inc.html" target="_top" xlink:title=" ">
<polygon fill="white" stroke="#666666" points="1221.88,-30.5 1109.12,-30.5 1109.12,0 1221.88,0 1221.88,-30.5"/>
<text text-anchor="start" x="1117.12" y="-17" font-family="Helvetica,sans-Serif" font-size="10.00">zklang/Dialect/ZML</text>
<text text-anchor="middle" x="1165.5" y="-5.75" font-family="Helvetica,sans-Serif" font-size="10.00">/IR/OpInterfaces.h.inc</text>
</a>
</g>
</g>
<!-- Node23&#45;&gt;Node24 -->
<g id="edge39_Node000023_Node000024" class="edge">
<title>Node23&#45;&gt;Node24</title>
<g id="a_edge39_Node000023_Node000024"><a xlink:title=" ">
<path fill="none" stroke="#63b8ff" d="M851.09,-69.16C855.62,-68.22 860.14,-67.32 864.5,-66.5 964.8,-47.67 993.64,-49.5 1097.36,-30.81"/>
<polygon fill="#63b8ff" stroke="#63b8ff" points="1097.96,-34.26 1107.17,-29.02 1096.71,-27.38 1097.96,-34.26"/>
</a>
</g>
</g>
<!-- Node25&#45;&gt;Node19 -->
<g id="edge45_Node000025_Node000019" class="edge">
<title>Node25&#45;&gt;Node19</title>
<g id="a_edge45_Node000025_Node000019"><a xlink:title=" ">
<path fill="none" stroke="#63b8ff" d="M1320.12,-144.24C1412.27,-138.19 1603.49,-122.9 1664.5,-97 1684.43,-88.54 1682.7,-75.27 1702.5,-66.5 1792.22,-26.74 1825.92,-46.48 1926.05,-30.8"/>
<polygon fill="#63b8ff" stroke="#63b8ff" points="1926.48,-34.28 1935.77,-29.19 1925.34,-27.38 1926.48,-34.28"/>
</a>
</g>
</g>
<!-- Node25&#45;&gt;Node23 -->
<g id="edge47_Node000025_Node000023" class="edge">
<title>Node25&#45;&gt;Node23</title>
<g id="a_edge47_Node000025_Node000023"><a xlink:title=" ">
<path fill="none" stroke="#63b8ff" d="M1218.63,-140.57C1146.96,-131.11 1012.21,-113.17 897.5,-97 886.25,-95.41 874.27,-93.69 862.71,-92"/>
<polygon fill="#63b8ff" stroke="#63b8ff" points="863.23,-88.54 852.83,-90.55 862.21,-95.46 863.23,-88.54"/>
</a>
</g>
</g>
<!-- Node26 -->
<g id="Node000026" class="node">
<title>Node26</title>
<g id="a_Node000026"><a xlink:title=" ">
<polygon fill="#e0e0e0" stroke="#999999" points="1655.25,-91.38 1535.75,-91.38 1535.75,-72.12 1655.25,-72.12 1655.25,-91.38"/>
<text text-anchor="middle" x="1595.5" y="-77.88" font-family="Helvetica,sans-Serif" font-size="10.00">llvm/ADT/TypeSwitch.h</text>
</a>
</g>
</g>
<!-- Node25&#45;&gt;Node26 -->
<g id="edge41_Node000025_Node000026" class="edge">
<title>Node25&#45;&gt;Node26</title>
<g id="a_edge41_Node000025_Node000026"><a xlink:title=" ">
<path fill="none" stroke="#63b8ff" d="M1320.25,-137.49C1372.11,-127.48 1454.96,-111.38 1526.5,-97 1531.09,-96.08 1535.84,-95.11 1540.62,-94.14"/>
<polygon fill="#63b8ff" stroke="#63b8ff" points="1541.14,-97.61 1550.23,-92.17 1539.73,-90.75 1541.14,-97.61"/>
</a>
</g>
</g>
<!-- Node27 -->
<g id="Node000027" class="node">
<title>Node27</title>
<g id="a_Node000027"><a xlink:title=" ">
<polygon fill="#e0e0e0" stroke="#999999" points="1016.38,-91.38 906.62,-91.38 906.62,-72.12 1016.38,-72.12 1016.38,-91.38"/>
<text text-anchor="middle" x="961.5" y="-77.88" font-family="Helvetica,sans-Serif" font-size="10.00">mlir/IR/BuiltinTypes.h</text>
</a>
</g>
</g>
<!-- Node25&#45;&gt;Node27 -->
<g id="edge42_Node000025_Node000027" class="edge">
<title>Node25&#45;&gt;Node27</title>
<g id="a_edge42_Node000025_Node000027"><a xlink:title=" ">
<path fill="none" stroke="#63b8ff" d="M1218.98,-137.09C1169.6,-127.1 1092.32,-111.32 1025.5,-97 1021.42,-96.13 1017.2,-95.21 1012.95,-94.28"/>
<polygon fill="#63b8ff" stroke="#63b8ff" points="1013.76,-90.88 1003.24,-92.14 1012.26,-97.71 1013.76,-90.88"/>
</a>
</g>
</g>
<!-- Node28 -->
<g id="Node000028" class="node">
<title>Node28</title>
<g id="a_Node000028"><a xlink:title=" ">
<polygon fill="#e0e0e0" stroke="#999999" points="1146.88,-91.38 1034.12,-91.38 1034.12,-72.12 1146.88,-72.12 1146.88,-91.38"/>
<text text-anchor="middle" x="1090.5" y="-77.88" font-family="Helvetica,sans-Serif" font-size="10.00">mlir/IR/SymbolTable.h</text>
</a>
</g>
</g>
<!-- Node25&#45;&gt;Node28 -->
<g id="edge43_Node000025_Node000028" class="edge">
<title>Node25&#45;&gt;Node28</title>
<g id="a_edge43_Node000025_Node000028"><a xlink:title=" ">
<path fill="none" stroke="#63b8ff" d="M1228.88,-132.61C1198.06,-121.51 1156.08,-106.38 1126.46,-95.71"/>
<polygon fill="#63b8ff" stroke="#63b8ff" points="1127.78,-92.46 1117.19,-92.37 1125.41,-99.05 1127.78,-92.46"/>
</a>
</g>
</g>
<!-- Node29 -->
<g id="Node000029" class="node">
<title>Node29</title>
<g id="a_Node000029"><a xlink:title=" ">
<polygon fill="#e0e0e0" stroke="#999999" points="1247.88,-91.38 1165.12,-91.38 1165.12,-72.12 1247.88,-72.12 1247.88,-91.38"/>
<text text-anchor="middle" x="1206.5" y="-77.88" font-family="Helvetica,sans-Serif" font-size="10.00">mlir/IR/Types.h</text>
</a>
</g>
</g>
<!-- Node25&#45;&gt;Node29 -->
<g id="edge44_Node000025_Node000029" class="edge">
<title>Node25&#45;&gt;Node29</title>
<g id="a_edge44_Node000025_Node000029"><a xlink:title=" ">
<path fill="none" stroke="#63b8ff" d="M1255.2,-132.61C1245.66,-122.84 1233.07,-109.95 1223.08,-99.73"/>
<polygon fill="#63b8ff" stroke="#63b8ff" points="1225.67,-97.36 1216.18,-92.66 1220.66,-102.25 1225.67,-97.36"/>
</a>
</g>
</g>
<!-- Node30 -->
<g id="Node000030" class="node">
<title>Node30</title>
<g id="a_Node000030"><a xlink:title=" ">
<polygon fill="#e0e0e0" stroke="#999999" points="1399.38,-97 1265.62,-97 1265.62,-66.5 1399.38,-66.5 1399.38,-97"/>
<text text-anchor="start" x="1273.62" y="-83.5" font-family="Helvetica,sans-Serif" font-size="10.00">mlir/Interfaces/MemorySlot</text>
<text text-anchor="middle" x="1332.5" y="-72.25" font-family="Helvetica,sans-Serif" font-size="10.00">Interfaces.h</text>
</a>
</g>
</g>
<!-- Node25&#45;&gt;Node30 -->
<g id="edge46_Node000025_Node000030" class="edge">
<title>Node25&#45;&gt;Node30</title>
<g id="a_edge46_Node000025_Node000030"><a xlink:title=" ">
<path fill="none" stroke="#63b8ff" d="M1283.8,-132.61C1291.61,-124.61 1301.46,-114.53 1310.25,-105.53"/>
<polygon fill="#63b8ff" stroke="#63b8ff" points="1312.72,-108.01 1317.2,-98.41 1307.71,-103.12 1312.72,-108.01"/>
</a>
</g>
</g>
<!-- Node25&#45;&gt;Node31 -->
<g id="edge48_Node000025_Node000031" class="edge">
<title>Node25&#45;&gt;Node31</title>
<g id="a_edge48_Node000025_Node000031"><a xlink:title=" ">
<path fill="none" stroke="#63b8ff" d="M1320.14,-142.99C1400.49,-135.86 1561.96,-119.98 1697.5,-97 1698.32,-96.86 1699.15,-96.72 1699.98,-96.57"/>
<polygon fill="#63b8ff" stroke="#63b8ff" points="1700.27,-100.08 1709.45,-94.79 1698.98,-93.2 1700.27,-100.08"/>
</a>
</g>
</g>
<!-- Node32 -->
<g id="Node000032" class="node">
<title>Node32</title>
<g id="a_Node000032"><a xlink:href="_types_8h_8inc.html" target="_top" xlink:title=" ">
<polygon fill="white" stroke="#666666" points="1517.88,-97 1417.12,-97 1417.12,-66.5 1517.88,-66.5 1517.88,-97"/>
<text text-anchor="start" x="1425.12" y="-83.5" font-family="Helvetica,sans-Serif" font-size="10.00">zklang/Dialect/ZML</text>
<text text-anchor="middle" x="1467.5" y="-72.25" font-family="Helvetica,sans-Serif" font-size="10.00">/IR/Types.h.inc</text>
</a>
</g>
</g>
<!-- Node25&#45;&gt;Node32 -->
<g id="edge49_Node000025_Node000032" class="edge">
<title>Node25&#45;&gt;Node32</title>
<g id="a_edge49_Node000025_Node000032"><a xlink:title=" ">
<path fill="none" stroke="#63b8ff" d="M1314.43,-132.61C1343.31,-123.2 1381.06,-110.91 1411.84,-100.88"/>
<polygon fill="#63b8ff" stroke="#63b8ff" points="1412.54,-104.33 1420.97,-97.91 1410.37,-97.68 1412.54,-104.33"/>
</a>
</g>
</g>
<!-- Node34 -->
<g id="Node000034" class="node">
<title>Node34</title>
<g id="a_Node000034"><a xlink:href="_field_8h.html" target="_top" xlink:title=" ">
<polygon fill="white" stroke="#666666" points="404.38,-230 306.62,-230 306.62,-199.5 404.38,-199.5 404.38,-230"/>
<text text-anchor="start" x="314.62" y="-216.5" font-family="Helvetica,sans-Serif" font-size="10.00">zklang/FiniteFields</text>
<text text-anchor="middle" x="355.5" y="-205.25" font-family="Helvetica,sans-Serif" font-size="10.00">/Field.h</text>
</a>
</g>
</g>
<!-- Node33&#45;&gt;Node34 -->
<g id="edge53_Node000033_Node000034" class="edge">
<title>Node33&#45;&gt;Node34</title>
<g id="a_edge53_Node000033_Node000034"><a xlink:title=" ">
<path fill="none" stroke="#63b8ff" d="M355.5,-265.61C355.5,-258.52 355.5,-249.79 355.5,-241.63"/>
<polygon fill="#63b8ff" stroke="#63b8ff" points="359,-241.84 355.5,-231.84 352,-241.84 359,-241.84"/>
</a>
</g>
</g>
<!-- Node34&#45;&gt;Node3 -->
<g id="edge54_Node000034_Node000003" class="edge">
<title>Node34&#45;&gt;Node3</title>
<g id="a_edge54_Node000034_Node000003"><a xlink:title=" ">
<path fill="none" stroke="#63b8ff" d="M342.11,-199.11C333.26,-189.44 321.62,-176.71 312.31,-166.54"/>
<polygon fill="#63b8ff" stroke="#63b8ff" points="314.92,-164.21 305.59,-159.19 309.76,-168.93 314.92,-164.21"/>
</a>
</g>
</g>
</g>
</svg>
