<?xml version="1.0" encoding="UTF-8" standalone="no"?>
<!DOCTYPE svg PUBLIC "-//W3C//DTD SVG 1.1//EN"
 "http://www.w3.org/Graphics/SVG/1.1/DTD/svg11.dtd">
<!-- Generated by graphviz version 12.2.1 (20241206.2353)
 -->
<!-- Title: include/zklang/Dialect/ZML/BuiltIns/BuiltIns.h Pages: 1 -->
<svg width="1138pt" height="105pt"
 viewBox="0.00 0.00 1137.88 105.00" xmlns="http://www.w3.org/2000/svg" xmlns:xlink="http://www.w3.org/1999/xlink">
<g id="graph0" class="graph" transform="scale(1 1) rotate(0) translate(4 101)">
<title>include/zklang/Dialect/ZML/BuiltIns/BuiltIns.h</title>
<!-- Node1 -->
<g id="Node000001" class="node">
<title>Node1</title>
<g id="a_Node000001"><a xlink:title=" ">
<polygon fill="#999999" stroke="#666666" points="586.75,-97 468,-97 468,-66.5 586.75,-66.5 586.75,-97"/>
<text text-anchor="start" x="476" y="-83.5" font-family="Helvetica,sans-Serif" font-size="10.00">include/zklang/Dialect</text>
<text text-anchor="middle" x="527.38" y="-72.25" font-family="Helvetica,sans-Serif" font-size="10.00">/ZML/BuiltIns/BuiltIns.h</text>
</a>
</g>
</g>
<!-- Node2 -->
<g id="Node000002" class="node">
<title>Node2</title>
<g id="a_Node000002"><a xlink:href="_analysis_8cpp.html" target="_top" xlink:title=" ">
<polygon fill="white" stroke="#666666" points="112.75,-30.5 0,-30.5 0,0 112.75,0 112.75,-30.5"/>
<text text-anchor="start" x="8" y="-17" font-family="Helvetica,sans-Serif" font-size="10.00">lib/Dialect/ZHL/Typing</text>
<text text-anchor="middle" x="56.38" y="-5.75" font-family="Helvetica,sans-Serif" font-size="10.00">/Analysis.cpp</text>
</a>
</g>
</g>
<!-- Node1&#45;&gt;Node2 -->
<g id="edge1_Node000001_Node000002" class="edge">
<title>Node1&#45;&gt;Node2</title>
<g id="a_edge1_Node000001_Node000002"><a xlink:title=" ">
<path fill="none" stroke="#63b8ff" d="M456.71,-73.91C375.67,-65.63 238.96,-50.28 122.38,-30.5 119.37,-29.99 116.29,-29.44 113.19,-28.85"/>
<polygon fill="#63b8ff" stroke="#63b8ff" points="455.96,-77.36 466.26,-74.88 456.67,-70.39 455.96,-77.36"/>
</a>
</g>
</g>
<!-- Node3 -->
<g id="Node000003" class="node">
<title>Node3</title>
<g id="a_Node000003"><a xlink:href="_print_type_bindings_8cpp.html" target="_top" xlink:title=" ">
<polygon fill="white" stroke="#666666" points="247.62,-30.5 131.12,-30.5 131.12,0 247.62,0 247.62,-30.5"/>
<text text-anchor="start" x="139.12" y="-17" font-family="Helvetica,sans-Serif" font-size="10.00">lib/Dialect/ZHL/Typing</text>
<text text-anchor="middle" x="189.38" y="-5.75" font-family="Helvetica,sans-Serif" font-size="10.00">/PrintTypeBindings.cpp</text>
</a>
</g>
</g>
<!-- Node1&#45;&gt;Node3 -->
<g id="edge2_Node000001_Node000003" class="edge">
<title>Node1&#45;&gt;Node3</title>
<g id="a_edge2_Node000001_Node000003"><a xlink:title=" ">
<path fill="none" stroke="#63b8ff" d="M456.24,-67.96C401.75,-58.06 324.73,-43.82 257.38,-30.5 254.3,-29.89 251.15,-29.26 247.96,-28.62"/>
<polygon fill="#63b8ff" stroke="#63b8ff" points="455.56,-71.4 466.02,-69.74 456.81,-64.51 455.56,-71.4"/>
</a>
</g>
</g>
<!-- Node4 -->
<g id="Node000004" class="node">
<title>Node4</title>
<g id="a_Node000004"><a xlink:href="_rules_8cpp.html" target="_top" xlink:title=" ">
<polygon fill="white" stroke="#666666" points="378.75,-30.5 266,-30.5 266,0 378.75,0 378.75,-30.5"/>
<text text-anchor="start" x="274" y="-17" font-family="Helvetica,sans-Serif" font-size="10.00">lib/Dialect/ZHL/Typing</text>
<text text-anchor="middle" x="322.38" y="-5.75" font-family="Helvetica,sans-Serif" font-size="10.00">/Rules.cpp</text>
</a>
</g>
</g>
<!-- Node1&#45;&gt;Node4 -->
<g id="edge3_Node000001_Node000004" class="edge">
<title>Node1&#45;&gt;Node4</title>
<g id="a_edge3_Node000001_Node000004"><a xlink:title=" ">
<path fill="none" stroke="#63b8ff" d="M469.67,-62.59C437.83,-52.58 398.82,-40.3 368.95,-30.9"/>
<polygon fill="#63b8ff" stroke="#63b8ff" points="468.57,-65.92 479.16,-65.58 470.67,-59.24 468.57,-65.92"/>
</a>
</g>
</g>
<!-- Node5 -->
<g id="Node000005" class="node">
<title>Node5</title>
<g id="a_Node000005"><a xlink:href="_built_ins_8cpp.html" target="_top" xlink:title=" ">
<polygon fill="white" stroke="#666666" points="514.38,-30.5 396.38,-30.5 396.38,0 514.38,0 514.38,-30.5"/>
<text text-anchor="start" x="404.38" y="-17" font-family="Helvetica,sans-Serif" font-size="10.00">lib/Dialect/ZML/BuiltIns</text>
<text text-anchor="middle" x="455.38" y="-5.75" font-family="Helvetica,sans-Serif" font-size="10.00">/BuiltIns.cpp</text>
</a>
</g>
</g>
<!-- Node1&#45;&gt;Node5 -->
<g id="edge4_Node000001_Node000005" class="edge">
<title>Node1&#45;&gt;Node5</title>
<g id="a_edge4_Node000001_Node000005"><a xlink:title=" ">
<path fill="none" stroke="#63b8ff" d="M502.5,-58.46C492.29,-49.32 480.75,-38.98 471.65,-30.83"/>
<polygon fill="#63b8ff" stroke="#63b8ff" points="500.13,-61.04 509.91,-65.1 504.8,-55.82 500.13,-61.04"/>
</a>
</g>
</g>
<!-- Node6 -->
<g id="Node000006" class="node">
<title>Node6</title>
<g id="a_Node000006"><a xlink:href="_inject_built_ins_8cpp.html" target="_top" xlink:title=" ">
<polygon fill="white" stroke="#666666" points="666.62,-30.5 532.12,-30.5 532.12,0 666.62,0 666.62,-30.5"/>
<text text-anchor="start" x="540.12" y="-17" font-family="Helvetica,sans-Serif" font-size="10.00">lib/Dialect/ZML/Transforms</text>
<text text-anchor="middle" x="599.38" y="-5.75" font-family="Helvetica,sans-Serif" font-size="10.00">/InjectBuiltIns.cpp</text>
</a>
</g>
</g>
<!-- Node1&#45;&gt;Node6 -->
<g id="edge5_Node000001_Node000006" class="edge">
<title>Node1&#45;&gt;Node6</title>
<g id="a_edge5_Node000001_Node000006"><a xlink:title=" ">
<path fill="none" stroke="#63b8ff" d="M552.25,-58.46C562.46,-49.32 574,-38.98 583.1,-30.83"/>
<polygon fill="#63b8ff" stroke="#63b8ff" points="549.95,-55.82 544.84,-65.1 554.62,-61.04 549.95,-55.82"/>
</a>
</g>
</g>
<!-- Node7 -->
<g id="Node000007" class="node">
<title>Node7</title>
<g id="a_Node000007"><a xlink:href="_lower_built_ins_8cpp.html" target="_top" xlink:title=" ">
<polygon fill="white" stroke="#666666" points="819.62,-30.5 685.12,-30.5 685.12,0 819.62,0 819.62,-30.5"/>
<text text-anchor="start" x="693.12" y="-17" font-family="Helvetica,sans-Serif" font-size="10.00">lib/Dialect/ZML/Transforms</text>
<text text-anchor="middle" x="752.38" y="-5.75" font-family="Helvetica,sans-Serif" font-size="10.00">/LowerBuiltIns.cpp</text>
</a>
</g>
</g>
<!-- Node1&#45;&gt;Node7 -->
<g id="edge6_Node000001_Node000007" class="edge">
<title>Node1&#45;&gt;Node7</title>
<g id="a_edge6_Node000001_Node000007"><a xlink:title=" ">
<path fill="none" stroke="#63b8ff" d="M589.34,-62.99C624.53,-52.9 668.04,-40.43 701.26,-30.9"/>
<polygon fill="#63b8ff" stroke="#63b8ff" points="588.82,-59.5 580.17,-65.62 590.74,-66.22 588.82,-59.5"/>
</a>
</g>
</g>
<!-- Node8 -->
<g id="Node000008" class="node">
<title>Node8</title>
<g id="a_Node000008"><a xlink:href="_remove_built_ins_8cpp.html" target="_top" xlink:title=" ">
<polygon fill="white" stroke="#666666" points="972.62,-30.5 838.12,-30.5 838.12,0 972.62,0 972.62,-30.5"/>
<text text-anchor="start" x="846.12" y="-17" font-family="Helvetica,sans-Serif" font-size="10.00">lib/Dialect/ZML/Transforms</text>
<text text-anchor="middle" x="905.38" y="-5.75" font-family="Helvetica,sans-Serif" font-size="10.00">/RemoveBuiltIns.cpp</text>
</a>
</g>
</g>
<!-- Node1&#45;&gt;Node8 -->
<g id="edge7_Node000001_Node000008" class="edge">
<title>Node1&#45;&gt;Node8</title>
<g id="a_edge7_Node000001_Node000008"><a xlink:title=" ">
<path fill="none" stroke="#63b8ff" d="M598.15,-69.29C659.19,-59.33 749.66,-44.35 828.38,-30.5 831.45,-29.96 834.6,-29.4 837.78,-28.83"/>
<polygon fill="#63b8ff" stroke="#63b8ff" points="597.91,-65.79 588.6,-70.85 599.04,-72.7 597.91,-65.79"/>
</a>
</g>
</g>
<!-- Node9 -->
<g id="Node000009" class="node">
<title>Node9</title>
<g id="a_Node000009"><a xlink:href="_driver_8cpp.html" target="_top" xlink:title=" ">
<polygon fill="white" stroke="#666666" points="1129.88,-24.88 990.88,-24.88 990.88,-5.63 1129.88,-5.63 1129.88,-24.88"/>
<text text-anchor="middle" x="1060.38" y="-11.38" font-family="Helvetica,sans-Serif" font-size="10.00">lib/Frontends/ZIR/Driver.cpp</text>
</a>
</g>
</g>
<!-- Node1&#45;&gt;Node9 -->
<g id="edge8_Node000001_Node000009" class="edge">
<title>Node1&#45;&gt;Node9</title>
<g id="a_edge8_Node000001_Node000009"><a xlink:title=" ">
<path fill="none" stroke="#63b8ff" d="M598.4,-74.4C687.92,-66.05 846.43,-50.12 981.38,-30.5 991.58,-29.02 1002.49,-27.2 1012.84,-25.37"/>
<polygon fill="#63b8ff" stroke="#63b8ff" points="598.17,-70.91 588.54,-75.32 598.82,-77.88 598.17,-70.91"/>
</a>
</g>
</g>
</g>
</svg>
