<?xml version="1.0" encoding="UTF-8" standalone="no"?>
<!DOCTYPE svg PUBLIC "-//W3C//DTD SVG 1.1//EN"
 "http://www.w3.org/Graphics/SVG/1.1/DTD/svg11.dtd">
<!-- Generated by graphviz version 12.2.1 (20241206.2353)
 -->
<!-- Title: include/zklang/Dialect/ZML/IR/Builder.h Pages: 1 -->
<svg width="554pt" height="105pt"
 viewBox="0.00 0.00 553.88 105.00" xmlns="http://www.w3.org/2000/svg" xmlns:xlink="http://www.w3.org/1999/xlink">
<g id="graph0" class="graph" transform="scale(1 1) rotate(0) translate(4 101)">
<title>include/zklang/Dialect/ZML/IR/Builder.h</title>
<!-- Node1 -->
<g id="Node000001" class="node">
<title>Node1</title>
<g id="a_Node000001"><a xlink:title=" ">
<polygon fill="#999999" stroke="#666666" points="328,-97 216,-97 216,-66.5 328,-66.5 328,-97"/>
<text text-anchor="start" x="224" y="-83.5" font-family="Helvetica,sans-Serif" font-size="10.00">include/zklang/Dialect</text>
<text text-anchor="middle" x="272" y="-72.25" font-family="Helvetica,sans-Serif" font-size="10.00">/ZML/IR/Builder.h</text>
</a>
</g>
</g>
<!-- Node2 -->
<g id="Node000002" class="node">
<title>Node2</title>
<g id="a_Node000002"><a xlink:href="_built_ins_8cpp.html" target="_top" xlink:title=" ">
<polygon fill="white" stroke="#666666" points="118,-30.5 0,-30.5 0,0 118,0 118,-30.5"/>
<text text-anchor="start" x="8" y="-17" font-family="Helvetica,sans-Serif" font-size="10.00">lib/Dialect/ZML/BuiltIns</text>
<text text-anchor="middle" x="59" y="-5.75" font-family="Helvetica,sans-Serif" font-size="10.00">/BuiltIns.cpp</text>
</a>
</g>
</g>
<!-- Node1&#45;&gt;Node2 -->
<g id="edge1_Node000001_Node000002" class="edge">
<title>Node1&#45;&gt;Node2</title>
<g id="a_edge1_Node000001_Node000002"><a xlink:title=" ">
<path fill="none" stroke="#63b8ff" d="M212.47,-62.72C179.32,-52.68 138.57,-40.34 107.39,-30.9"/>
<polygon fill="#63b8ff" stroke="#63b8ff" points="211.37,-66.05 221.95,-65.59 213.4,-59.35 211.37,-66.05"/>
</a>
</g>
</g>
<!-- Node3 -->
<g id="Node000003" class="node">
<title>Node3</title>
<g id="a_Node000003"><a xlink:href="_helpers_8cpp.html" target="_top" xlink:title=" ">
<polygon fill="white" stroke="#666666" points="273.75,-24.88 136.25,-24.88 136.25,-5.63 273.75,-5.63 273.75,-24.88"/>
<text text-anchor="middle" x="205" y="-11.38" font-family="Helvetica,sans-Serif" font-size="10.00">lib/Dialect/ZML/Helpers.cpp</text>
</a>
</g>
</g>
<!-- Node1&#45;&gt;Node3 -->
<g id="edge2_Node000001_Node000003" class="edge">
<title>Node1&#45;&gt;Node3</title>
<g id="a_edge2_Node000001_Node000003"><a xlink:title=" ">
<path fill="none" stroke="#63b8ff" d="M248.58,-58.21C236.72,-46.78 222.99,-33.57 214.16,-25.07"/>
<polygon fill="#63b8ff" stroke="#63b8ff" points="246.07,-60.65 255.71,-65.06 250.93,-55.61 246.07,-60.65"/>
</a>
</g>
</g>
<!-- Node4 -->
<g id="Node000004" class="node">
<title>Node4</title>
<g id="a_Node000004"><a xlink:href="_builder_8cpp.html" target="_top" xlink:title=" ">
<polygon fill="white" stroke="#666666" points="387.75,-30.5 292.25,-30.5 292.25,0 387.75,0 387.75,-30.5"/>
<text text-anchor="start" x="300.25" y="-17" font-family="Helvetica,sans-Serif" font-size="10.00">lib/Dialect/ZML/IR</text>
<text text-anchor="middle" x="340" y="-5.75" font-family="Helvetica,sans-Serif" font-size="10.00">/Builder.cpp</text>
</a>
</g>
</g>
<!-- Node1&#45;&gt;Node4 -->
<g id="edge3_Node000001_Node000004" class="edge">
<title>Node1&#45;&gt;Node4</title>
<g id="a_edge3_Node000001_Node000004"><a xlink:title=" ">
<path fill="none" stroke="#63b8ff" d="M295.49,-58.46C305.14,-49.32 316.03,-38.98 324.63,-30.83"/>
<polygon fill="#63b8ff" stroke="#63b8ff" points="293.38,-55.65 288.53,-65.07 298.19,-60.73 293.38,-55.65"/>
</a>
</g>
</g>
<!-- Node5 -->
<g id="Node000005" class="node">
<title>Node5</title>
<g id="a_Node000005"><a xlink:href="_passes_2_convert_zhl_to_zml_2_patterns_8cpp.html" target="_top" xlink:title=" ">
<polygon fill="white" stroke="#666666" points="545.88,-30.5 406.12,-30.5 406.12,0 545.88,0 545.88,-30.5"/>
<text text-anchor="start" x="414.12" y="-17" font-family="Helvetica,sans-Serif" font-size="10.00">lib/Passes/ConvertZhlToZml</text>
<text text-anchor="middle" x="476" y="-5.75" font-family="Helvetica,sans-Serif" font-size="10.00">/Patterns.cpp</text>
</a>
</g>
</g>
<!-- Node1&#45;&gt;Node5 -->
<g id="edge4_Node000001_Node000005" class="edge">
<title>Node1&#45;&gt;Node5</title>
<g id="a_edge4_Node000001_Node000005"><a xlink:title=" ">
<path fill="none" stroke="#63b8ff" d="M329.43,-62.59C361.11,-52.58 399.93,-40.3 429.65,-30.9"/>
<polygon fill="#63b8ff" stroke="#63b8ff" points="328.47,-59.23 319.99,-65.58 330.58,-65.9 328.47,-59.23"/>
</a>
</g>
</g>
</g>
</svg>
