<?xml version="1.0" encoding="UTF-8" standalone="no"?>
<!DOCTYPE svg PUBLIC "-//W3C//DTD SVG 1.1//EN"
 "http://www.w3.org/Graphics/SVG/1.1/DTD/svg11.dtd">
<!-- Generated by graphviz version 12.2.1 (20241206.2353)
 -->
<!-- Title: include/zklang/Dialect/ZML/BuiltIns/BuiltIns.h Pages: 1 -->
<svg width="2299pt" height="438pt"
 viewBox="0.00 0.00 2298.50 437.50" xmlns="http://www.w3.org/2000/svg" xmlns:xlink="http://www.w3.org/1999/xlink">
<g id="graph0" class="graph" transform="scale(1 1) rotate(0) translate(4 433.5)">
<title>include/zklang/Dialect/ZML/BuiltIns/BuiltIns.h</title>
<!-- Node1 -->
<g id="Node000001" class="node">
<title>Node1</title>
<g id="a_Node000001"><a xlink:title=" ">
<polygon fill="#999999" stroke="#666666" points="2190.12,-429.5 2071.38,-429.5 2071.38,-399 2190.12,-399 2190.12,-429.5"/>
<text text-anchor="start" x="2079.38" y="-416" font-family="Helvetica,sans-Serif" font-size="10.00">include/zklang/Dialect</text>
<text text-anchor="middle" x="2130.75" y="-404.75" font-family="Helvetica,sans-Serif" font-size="10.00">/ZML/BuiltIns/BuiltIns.h</text>
</a>
</g>
</g>
<!-- Node2 -->
<g id="Node000002" class="node">
<title>Node2</title>
<g id="a_Node000002"><a xlink:title=" ">
<polygon fill="#e0e0e0" stroke="#999999" points="2088.62,-91.38 1996.88,-91.38 1996.88,-72.12 2088.62,-72.12 2088.62,-91.38"/>
<text text-anchor="middle" x="2042.75" y="-77.88" font-family="Helvetica,sans-Serif" font-size="10.00">mlir/IR/Builders.h</text>
</a>
</g>
</g>
<!-- Node1&#45;&gt;Node2 -->
<g id="edge1_Node000001_Node000002" class="edge">
<title>Node1&#45;&gt;Node2</title>
<g id="a_edge1_Node000001_Node000002"><a xlink:title=" ">
<path fill="none" stroke="#63b8ff" d="M2125.11,-398.57C2116.42,-374.6 2100.75,-325.41 2100.75,-282.25 2100.75,-282.25 2100.75,-282.25 2100.75,-213.75 2100.75,-170.22 2073.65,-124.99 2056.5,-100.72"/>
<polygon fill="#63b8ff" stroke="#63b8ff" points="2059.49,-98.89 2050.76,-92.89 2053.85,-103.03 2059.49,-98.89"/>
</a>
</g>
</g>
<!-- Node3 -->
<g id="Node000003" class="node">
<title>Node3</title>
<g id="a_Node000003"><a xlink:title=" ">
<polygon fill="#e0e0e0" stroke="#999999" points="2194.5,-357.38 2129,-357.38 2129,-338.12 2194.5,-338.12 2194.5,-357.38"/>
<text text-anchor="middle" x="2161.75" y="-343.88" font-family="Helvetica,sans-Serif" font-size="10.00">string_view</text>
</a>
</g>
</g>
<!-- Node1&#45;&gt;Node3 -->
<g id="edge2_Node000001_Node000003" class="edge">
<title>Node1&#45;&gt;Node3</title>
<g id="a_edge2_Node000001_Node000003"><a xlink:title=" ">
<path fill="none" stroke="#63b8ff" d="M2137.78,-398.61C2142.15,-389.53 2147.81,-377.76 2152.53,-367.93"/>
<polygon fill="#63b8ff" stroke="#63b8ff" points="2155.68,-369.47 2156.85,-358.94 2149.37,-366.43 2155.68,-369.47"/>
</a>
</g>
</g>
<!-- Node4 -->
<g id="Node000004" class="node">
<title>Node4</title>
<g id="a_Node000004"><a xlink:title=" ">
<polygon fill="#e0e0e0" stroke="#999999" points="2290.5,-357.38 2213,-357.38 2213,-338.12 2290.5,-338.12 2290.5,-357.38"/>
<text text-anchor="middle" x="2251.75" y="-343.88" font-family="Helvetica,sans-Serif" font-size="10.00">unordered_set</text>
</a>
</g>
</g>
<!-- Node1&#45;&gt;Node4 -->
<g id="edge3_Node000001_Node000004" class="edge">
<title>Node1&#45;&gt;Node4</title>
<g id="a_edge3_Node000001_Node000004"><a xlink:title=" ">
<path fill="none" stroke="#63b8ff" d="M2158.21,-398.61C2178.18,-387.96 2205.1,-373.62 2224.92,-363.05"/>
<polygon fill="#63b8ff" stroke="#63b8ff" points="2226.33,-366.26 2233.51,-358.47 2223.04,-360.09 2226.33,-366.26"/>
</a>
</g>
</g>
<!-- Node5 -->
<g id="Node000005" class="node">
<title>Node5</title>
<g id="a_Node000005"><a xlink:href="_type_bindings_8h.html" target="_top" xlink:title=" ">
<polygon fill="white" stroke="#666666" points="1333.38,-363 1216.12,-363 1216.12,-332.5 1333.38,-332.5 1333.38,-363"/>
<text text-anchor="start" x="1224.12" y="-349.5" font-family="Helvetica,sans-Serif" font-size="10.00">zklang/Dialect/ZHL</text>
<text text-anchor="middle" x="1274.75" y="-338.25" font-family="Helvetica,sans-Serif" font-size="10.00">/Typing/TypeBindings.h</text>
</a>
</g>
</g>
<!-- Node1&#45;&gt;Node5 -->
<g id="edge4_Node000001_Node000005" class="edge">
<title>Node1&#45;&gt;Node5</title>
<g id="a_edge4_Node000001_Node000005"><a xlink:title=" ">
<path fill="none" stroke="#63b8ff" d="M2070.9,-408.74C1917.33,-397.17 1509.86,-366.47 1345.23,-354.06"/>
<polygon fill="#63b8ff" stroke="#63b8ff" points="1345.55,-350.57 1335.31,-353.31 1345.02,-357.56 1345.55,-350.57"/>
</a>
</g>
</g>
<!-- Node5&#45;&gt;Node2 -->
<g id="edge11_Node000005_Node000002" class="edge">
<title>Node5&#45;&gt;Node2</title>
<g id="a_edge11_Node000005_Node000002"><a xlink:title=" ">
<path fill="none" stroke="#63b8ff" d="M1333.8,-345.56C1486.58,-342 1886.42,-329.62 1935.75,-296.5 2004.42,-250.39 2031.02,-146.5 2039.44,-102.76"/>
<polygon fill="#63b8ff" stroke="#63b8ff" points="2042.84,-103.63 2041.15,-93.17 2035.95,-102.4 2042.84,-103.63"/>
</a>
</g>
</g>
<!-- Node6 -->
<g id="Node000006" class="node">
<title>Node6</title>
<g id="a_Node000006"><a xlink:title=" ">
<polygon fill="#e0e0e0" stroke="#999999" points="1102.88,-91.38 1054.62,-91.38 1054.62,-72.12 1102.88,-72.12 1102.88,-91.38"/>
<text text-anchor="middle" x="1078.75" y="-77.88" font-family="Helvetica,sans-Serif" font-size="10.00">cassert</text>
</a>
</g>
</g>
<!-- Node5&#45;&gt;Node6 -->
<g id="edge5_Node000005_Node000006" class="edge">
<title>Node5&#45;&gt;Node6</title>
<g id="a_edge5_Node000005_Node000006"><a xlink:title=" ">
<path fill="none" stroke="#63b8ff" d="M1215.89,-338.05C1168.4,-329.75 1106.93,-315.67 1090.75,-296.5 1043.62,-240.63 1061.82,-144.46 1072.79,-102.88"/>
<polygon fill="#63b8ff" stroke="#63b8ff" points="1076.15,-103.86 1075.47,-93.29 1069.41,-101.97 1076.15,-103.86"/>
</a>
</g>
</g>
<!-- Node7 -->
<g id="Node000007" class="node">
<title>Node7</title>
<g id="a_Node000007"><a xlink:title=" ">
<polygon fill="#e0e0e0" stroke="#999999" points="1132.38,-157.88 1087.12,-157.88 1087.12,-138.62 1132.38,-138.62 1132.38,-157.88"/>
<text text-anchor="middle" x="1109.75" y="-144.38" font-family="Helvetica,sans-Serif" font-size="10.00">cstdint</text>
</a>
</g>
</g>
<!-- Node5&#45;&gt;Node7 -->
<g id="edge6_Node000005_Node000007" class="edge">
<title>Node5&#45;&gt;Node7</title>
<g id="a_edge6_Node000005_Node000007"><a xlink:title=" ">
<path fill="none" stroke="#63b8ff" d="M1216.02,-345.7C1178.81,-341.6 1133.24,-329.51 1108.75,-296.5 1080.9,-258.97 1093.34,-199.95 1102.72,-169.27"/>
<polygon fill="#63b8ff" stroke="#63b8ff" points="1106.05,-170.37 1105.84,-159.77 1099.4,-168.18 1106.05,-170.37"/>
</a>
</g>
</g>
<!-- Node8 -->
<g id="Node000008" class="node">
<title>Node8</title>
<g id="a_Node000008"><a xlink:title=" ">
<polygon fill="#e0e0e0" stroke="#999999" points="1882.88,-290.88 1840.62,-290.88 1840.62,-271.62 1882.88,-271.62 1882.88,-290.88"/>
<text text-anchor="middle" x="1861.75" y="-277.38" font-family="Helvetica,sans-Serif" font-size="10.00">deque</text>
</a>
</g>
</g>
<!-- Node5&#45;&gt;Node8 -->
<g id="edge7_Node000005_Node000008" class="edge">
<title>Node5&#45;&gt;Node8</title>
<g id="a_edge7_Node000005_Node000008"><a xlink:title=" ">
<path fill="none" stroke="#63b8ff" d="M1333.69,-347.05C1435.67,-346.33 1650.97,-339.28 1826.75,-296.5 1828.38,-296.1 1830.04,-295.64 1831.7,-295.13"/>
<polygon fill="#63b8ff" stroke="#63b8ff" points="1832.8,-298.46 1841.04,-291.8 1830.45,-291.87 1832.8,-298.46"/>
</a>
</g>
</g>
<!-- Node9 -->
<g id="Node000009" class="node">
<title>Node9</title>
<g id="a_Node000009"><a xlink:title=" ">
<polygon fill="#e0e0e0" stroke="#999999" points="1391.12,-91.38 1278.38,-91.38 1278.38,-72.12 1391.12,-72.12 1391.12,-91.38"/>
<text text-anchor="middle" x="1334.75" y="-77.88" font-family="Helvetica,sans-Serif" font-size="10.00">llvm/ADT/StringMap.h</text>
</a>
</g>
</g>
<!-- Node5&#45;&gt;Node9 -->
<g id="edge8_Node000005_Node000009" class="edge">
<title>Node5&#45;&gt;Node9</title>
<g id="a_edge8_Node000005_Node000009"><a xlink:title=" ">
<path fill="none" stroke="#63b8ff" d="M1228.15,-332.06C1211.43,-324.29 1194.35,-312.86 1184.75,-296.5 1162.93,-259.32 1165.82,-238.23 1184.75,-199.5 1198.25,-171.88 1271.58,-122.61 1310.48,-97.84"/>
<polygon fill="#63b8ff" stroke="#63b8ff" points="1312.15,-100.93 1318.74,-92.63 1308.41,-95.01 1312.15,-100.93"/>
</a>
</g>
</g>
<!-- Node10 -->
<g id="Node000010" class="node">
<title>Node10</title>
<g id="a_Node000010"><a xlink:title=" ">
<polygon fill="#e0e0e0" stroke="#999999" points="1795.62,-91.38 1685.88,-91.38 1685.88,-72.12 1795.62,-72.12 1795.62,-91.38"/>
<text text-anchor="middle" x="1740.75" y="-77.88" font-family="Helvetica,sans-Serif" font-size="10.00">llvm/ADT/StringRef.h</text>
</a>
</g>
</g>
<!-- Node5&#45;&gt;Node10 -->
<g id="edge9_Node000005_Node000010" class="edge">
<title>Node5&#45;&gt;Node10</title>
<g id="a_edge9_Node000005_Node000010"><a xlink:title=" ">
<path fill="none" stroke="#63b8ff" d="M1333.74,-346.39C1480.77,-344.87 1854.39,-337.02 1891.75,-296.5 1954.23,-228.73 1822.85,-134.13 1765.63,-97.79"/>
<polygon fill="#63b8ff" stroke="#63b8ff" points="1767.5,-94.83 1757.16,-92.5 1763.79,-100.77 1767.5,-94.83"/>
</a>
</g>
</g>
<!-- Node11 -->
<g id="Node000011" class="node">
<title>Node11</title>
<g id="a_Node000011"><a xlink:title=" ">
<polygon fill="#e0e0e0" stroke="#999999" points="1924,-91.38 1813.5,-91.38 1813.5,-72.12 1924,-72.12 1924,-91.38"/>
<text text-anchor="middle" x="1868.75" y="-77.88" font-family="Helvetica,sans-Serif" font-size="10.00">llvm/Support/Debug.h</text>
</a>
</g>
</g>
<!-- Node5&#45;&gt;Node11 -->
<g id="edge10_Node000005_Node000011" class="edge">
<title>Node5&#45;&gt;Node11</title>
<g id="a_edge10_Node000005_Node000011"><a xlink:title=" ">
<path fill="none" stroke="#63b8ff" d="M1333.63,-346.57C1484.31,-345.48 1874.82,-338.61 1913.75,-296.5 1965.27,-240.77 1908.74,-141.56 1881.61,-100.89"/>
<polygon fill="#63b8ff" stroke="#63b8ff" points="1884.54,-98.98 1876,-92.72 1878.77,-102.94 1884.54,-98.98"/>
</a>
</g>
</g>
<!-- Node12 -->
<g id="Node000012" class="node">
<title>Node12</title>
<g id="a_Node000012"><a xlink:title=" ">
<polygon fill="#e0e0e0" stroke="#999999" points="1517.88,-91.38 1409.62,-91.38 1409.62,-72.12 1517.88,-72.12 1517.88,-91.38"/>
<text text-anchor="middle" x="1463.75" y="-77.88" font-family="Helvetica,sans-Serif" font-size="10.00">mlir/IR/Diagnostics.h</text>
</a>
</g>
</g>
<!-- Node5&#45;&gt;Node12 -->
<g id="edge12_Node000005_Node000012" class="edge">
<title>Node5&#45;&gt;Node12</title>
<g id="a_edge12_Node000005_Node000012"><a xlink:title=" ">
<path fill="none" stroke="#63b8ff" d="M1278.49,-332.05C1283.13,-315.3 1292.01,-287.48 1304.75,-266 1345.59,-197.12 1413.47,-129.47 1445.7,-99.22"/>
<polygon fill="#63b8ff" stroke="#63b8ff" points="1447.73,-102.11 1452.68,-92.74 1442.97,-96.98 1447.73,-102.11"/>
</a>
</g>
</g>
<!-- Node13 -->
<g id="Node000013" class="node">
<title>Node13</title>
<g id="a_Node000013"><a xlink:title=" ">
<polygon fill="#e0e0e0" stroke="#999999" points="1667.38,-91.38 1574.12,-91.38 1574.12,-72.12 1667.38,-72.12 1667.38,-91.38"/>
<text text-anchor="middle" x="1620.75" y="-77.88" font-family="Helvetica,sans-Serif" font-size="10.00">mlir/IR/Location.h</text>
</a>
</g>
</g>
<!-- Node5&#45;&gt;Node13 -->
<g id="edge13_Node000005_Node000013" class="edge">
<title>Node5&#45;&gt;Node13</title>
<g id="a_edge13_Node000005_Node000013"><a xlink:title=" ">
<path fill="none" stroke="#63b8ff" d="M1333.86,-341.44C1451.12,-329.55 1706.41,-296.47 1758.75,-230 1779.41,-203.77 1739.26,-140.81 1731.75,-133 1714.69,-115.26 1690.21,-103.26 1668.58,-95.46"/>
<polygon fill="#63b8ff" stroke="#63b8ff" points="1669.94,-92.22 1659.34,-92.34 1667.7,-98.85 1669.94,-92.22"/>
</a>
</g>
</g>
<!-- Node14 -->
<g id="Node000014" class="node">
<title>Node14</title>
<g id="a_Node000014"><a xlink:title=" ">
<polygon fill="#e0e0e0" stroke="#999999" points="1598,-24.88 1493.5,-24.88 1493.5,-5.63 1598,-5.63 1598,-24.88"/>
<text text-anchor="middle" x="1545.75" y="-11.38" font-family="Helvetica,sans-Serif" font-size="10.00">mlir/Support/LLVM.h</text>
</a>
</g>
</g>
<!-- Node5&#45;&gt;Node14 -->
<g id="edge14_Node000005_Node000014" class="edge">
<title>Node5&#45;&gt;Node14</title>
<g id="a_edge14_Node000005_Node000014"><a xlink:title=" ">
<path fill="none" stroke="#63b8ff" d="M1333.74,-345.21C1478.27,-340.98 1846.95,-327.42 1965.75,-296.5 2047.87,-275.13 2138.75,-300.6 2138.75,-215.75 2138.75,-215.75 2138.75,-215.75 2138.75,-147.25 2138.75,-107 2131.06,-89.09 2097.75,-66.5 2058.1,-39.61 1746.08,-24.15 1609.46,-18.61"/>
<polygon fill="#63b8ff" stroke="#63b8ff" points="1610,-15.12 1599.87,-18.22 1609.72,-22.12 1610,-15.12"/>
</a>
</g>
</g>
<!-- Node15 -->
<g id="Node000015" class="node">
<title>Node15</title>
<g id="a_Node000015"><a xlink:title=" ">
<polygon fill="#e0e0e0" stroke="#999999" points="1260.25,-91.38 1121.25,-91.38 1121.25,-72.12 1260.25,-72.12 1260.25,-91.38"/>
<text text-anchor="middle" x="1190.75" y="-77.88" font-family="Helvetica,sans-Serif" font-size="10.00">mlir/Support/LogicalResult.h</text>
</a>
</g>
</g>
<!-- Node5&#45;&gt;Node15 -->
<g id="edge15_Node000005_Node000015" class="edge">
<title>Node5&#45;&gt;Node15</title>
<g id="a_edge15_Node000005_Node000015"><a xlink:title=" ">
<path fill="none" stroke="#63b8ff" d="M1215.67,-332.58C1197.11,-325.05 1178.64,-313.65 1167.75,-296.5 1128.49,-234.69 1162.91,-142.1 1181.14,-102.19"/>
<polygon fill="#63b8ff" stroke="#63b8ff" points="1184.3,-103.69 1185.43,-93.16 1177.97,-100.69 1184.3,-103.69"/>
</a>
</g>
</g>
<!-- Node16 -->
<g id="Node000016" class="node">
<title>Node16</title>
<g id="a_Node000016"><a xlink:href="_expr_8h.html" target="_top" xlink:title=" ">
<polygon fill="white" stroke="#666666" points="846.75,-230 746.75,-230 746.75,-199.5 846.75,-199.5 846.75,-230"/>
<text text-anchor="start" x="754.75" y="-216.5" font-family="Helvetica,sans-Serif" font-size="10.00">zklang/Dialect/ZHL</text>
<text text-anchor="middle" x="796.75" y="-205.25" font-family="Helvetica,sans-Serif" font-size="10.00">/Typing/Expr.h</text>
</a>
</g>
</g>
<!-- Node5&#45;&gt;Node16 -->
<g id="edge16_Node000005_Node000016" class="edge">
<title>Node5&#45;&gt;Node16</title>
<g id="a_edge16_Node000005_Node000016"><a xlink:title=" ">
<path fill="none" stroke="#63b8ff" d="M1216.08,-336.69C1166.76,-327.73 1094.62,-313.44 1032.75,-296.5 966.88,-278.47 892.6,-252 845.27,-234.34"/>
<polygon fill="#63b8ff" stroke="#63b8ff" points="846.73,-231.15 836.13,-230.92 844.27,-237.71 846.73,-231.15"/>
</a>
</g>
</g>
<!-- Node26 -->
<g id="Node000026" class="node">
<title>Node26</title>
<g id="a_Node000026"><a xlink:href="_frame_8h.html" target="_top" xlink:title=" ">
<polygon fill="white" stroke="#666666" points="398.75,-230 298.75,-230 298.75,-199.5 398.75,-199.5 398.75,-230"/>
<text text-anchor="start" x="306.75" y="-216.5" font-family="Helvetica,sans-Serif" font-size="10.00">zklang/Dialect/ZHL</text>
<text text-anchor="middle" x="348.75" y="-205.25" font-family="Helvetica,sans-Serif" font-size="10.00">/Typing/Frame.h</text>
</a>
</g>
</g>
<!-- Node5&#45;&gt;Node26 -->
<g id="edge38_Node000005_Node000026" class="edge">
<title>Node5&#45;&gt;Node26</title>
<g id="a_edge38_Node000005_Node000026"><a xlink:title=" ">
<path fill="none" stroke="#63b8ff" d="M1215.77,-338.41C1049.68,-314.91 579.18,-248.35 410.16,-224.44"/>
<polygon fill="#63b8ff" stroke="#63b8ff" points="410.89,-221.01 400.49,-223.07 409.9,-227.94 410.89,-221.01"/>
</a>
</g>
</g>
<!-- Node29 -->
<g id="Node000029" class="node">
<title>Node29</title>
<g id="a_Node000029"><a xlink:href="_frame_slot_8h.html" target="_top" xlink:title=" ">
<polygon fill="white" stroke="#666666" points="164.62,-97 60.88,-97 60.88,-66.5 164.62,-66.5 164.62,-97"/>
<text text-anchor="start" x="68.88" y="-83.5" font-family="Helvetica,sans-Serif" font-size="10.00">zklang/Dialect/ZHL</text>
<text text-anchor="middle" x="112.75" y="-72.25" font-family="Helvetica,sans-Serif" font-size="10.00">/Typing/FrameSlot.h</text>
</a>
</g>
</g>
<!-- Node5&#45;&gt;Node29 -->
<g id="edge50_Node000005_Node000029" class="edge">
<title>Node5&#45;&gt;Node29</title>
<g id="a_edge50_Node000005_Node000029"><a xlink:title=" ">
<path fill="none" stroke="#63b8ff" d="M1215.71,-341.63C1114.98,-332.83 903.43,-314.09 724.75,-296.5 444.55,-268.91 354.15,-339.47 94.75,-230 43.27,-208.27 -14.39,-180.68 14.75,-133 23.01,-119.48 36.2,-109.44 50.25,-102.06"/>
<polygon fill="#63b8ff" stroke="#63b8ff" points="51.69,-105.25 59.21,-97.79 48.68,-98.93 51.69,-105.25"/>
</a>
</g>
</g>
<!-- Node32 -->
<g id="Node000032" class="node">
<title>Node32</title>
<g id="a_Node000032"><a xlink:href="_type_binding_8h.html" target="_top" xlink:title=" ">
<polygon fill="white" stroke="#666666" points="1425.75,-296.5 1313.75,-296.5 1313.75,-266 1425.75,-266 1425.75,-296.5"/>
<text text-anchor="start" x="1321.75" y="-283" font-family="Helvetica,sans-Serif" font-size="10.00">zklang/Dialect/ZHL</text>
<text text-anchor="middle" x="1369.75" y="-271.75" font-family="Helvetica,sans-Serif" font-size="10.00">/Typing/TypeBinding.h</text>
</a>
</g>
</g>
<!-- Node5&#45;&gt;Node32 -->
<g id="edge51_Node000005_Node000032" class="edge">
<title>Node5&#45;&gt;Node32</title>
<g id="a_edge51_Node000005_Node000032"><a xlink:title=" ">
<path fill="none" stroke="#63b8ff" d="M1296.31,-332.11C1308.94,-323.54 1325.1,-312.56 1339.05,-303.09"/>
<polygon fill="#63b8ff" stroke="#63b8ff" points="1340.72,-306.19 1347.03,-297.68 1336.79,-300.4 1340.72,-306.19"/>
</a>
</g>
</g>
<!-- Node16&#45;&gt;Node7 -->
<g id="edge18_Node000016_Node000007" class="edge">
<title>Node16&#45;&gt;Node7</title>
<g id="a_edge18_Node000016_Node000007"><a xlink:title=" ">
<path fill="none" stroke="#63b8ff" d="M847.04,-203.39C911.11,-190.18 1020.17,-167.71 1075.45,-156.32"/>
<polygon fill="#63b8ff" stroke="#63b8ff" points="1076.14,-159.75 1085.22,-154.3 1074.72,-152.89 1076.14,-159.75"/>
</a>
</g>
</g>
<!-- Node16&#45;&gt;Node14 -->
<g id="edge26_Node000016_Node000014" class="edge">
<title>Node16&#45;&gt;Node14</title>
<g id="a_edge26_Node000016_Node000014"><a xlink:title=" ">
<path fill="none" stroke="#63b8ff" d="M746.3,-210.17C684.55,-204.61 585.37,-191.5 562.75,-163.5 554.23,-152.96 553.84,-143.22 562.75,-133 623.36,-63.47 1273.67,-28.45 1481.96,-18.96"/>
<polygon fill="#63b8ff" stroke="#63b8ff" points="1481.95,-22.46 1491.78,-18.51 1481.63,-15.47 1481.95,-22.46"/>
</a>
</g>
</g>
<!-- Node16&#45;&gt;Node15 -->
<g id="edge27_Node000016_Node000015" class="edge">
<title>Node16&#45;&gt;Node15</title>
<g id="a_edge27_Node000016_Node000015"><a xlink:title=" ">
<path fill="none" stroke="#63b8ff" d="M847.11,-203.81C889.01,-194.97 949.96,-180.78 1001.75,-163.5 1032.55,-153.22 1115.08,-116.75 1160.22,-96.52"/>
<polygon fill="#63b8ff" stroke="#63b8ff" points="1161.5,-99.78 1169.19,-92.49 1158.64,-93.39 1161.5,-99.78"/>
</a>
</g>
</g>
<!-- Node17 -->
<g id="Node000017" class="node">
<title>Node17</title>
<g id="a_Node000017"><a xlink:title=" ">
<polygon fill="#e0e0e0" stroke="#999999" points="866.88,-157.88 818.62,-157.88 818.62,-138.62 866.88,-138.62 866.88,-157.88"/>
<text text-anchor="middle" x="842.75" y="-144.38" font-family="Helvetica,sans-Serif" font-size="10.00">cstddef</text>
</a>
</g>
</g>
<!-- Node16&#45;&gt;Node17 -->
<g id="edge17_Node000016_Node000017" class="edge">
<title>Node16&#45;&gt;Node17</title>
<g id="a_edge17_Node000016_Node000017"><a xlink:title=" ">
<path fill="none" stroke="#63b8ff" d="M807.19,-199.11C813.95,-189.64 822.8,-177.23 829.97,-167.16"/>
<polygon fill="#63b8ff" stroke="#63b8ff" points="832.62,-169.48 835.58,-159.3 826.92,-165.41 832.62,-169.48"/>
</a>
</g>
</g>
<!-- Node18 -->
<g id="Node000018" class="node">
<title>Node18</title>
<g id="a_Node000018"><a xlink:title=" ">
<polygon fill="#e0e0e0" stroke="#999999" points="992.5,-157.88 885,-157.88 885,-138.62 992.5,-138.62 992.5,-157.88"/>
<text text-anchor="middle" x="938.75" y="-144.38" font-family="Helvetica,sans-Serif" font-size="10.00">llvm/ADT/ArrayRef.h</text>
</a>
</g>
</g>
<!-- Node16&#45;&gt;Node18 -->
<g id="edge19_Node000016_Node000018" class="edge">
<title>Node16&#45;&gt;Node18</title>
<g id="a_edge19_Node000016_Node000018"><a xlink:title=" ">
<path fill="none" stroke="#63b8ff" d="M828.97,-199.11C852.85,-188.27 885.16,-173.59 908.55,-162.97"/>
<polygon fill="#63b8ff" stroke="#63b8ff" points="909.88,-166.21 917.54,-158.89 906.98,-159.83 909.88,-166.21"/>
</a>
</g>
</g>
<!-- Node19 -->
<g id="Node000019" class="node">
<title>Node19</title>
<g id="a_Node000019"><a xlink:title=" ">
<polygon fill="#e0e0e0" stroke="#999999" points="551.12,-24.88 432.38,-24.88 432.38,-5.63 551.12,-5.63 551.12,-24.88"/>
<text text-anchor="middle" x="491.75" y="-11.38" font-family="Helvetica,sans-Serif" font-size="10.00">llvm/ADT/SmallString.h</text>
</a>
</g>
</g>
<!-- Node16&#45;&gt;Node19 -->
<g id="edge20_Node000016_Node000019" class="edge">
<title>Node16&#45;&gt;Node19</title>
<g id="a_edge20_Node000016_Node000019"><a xlink:title=" ">
<path fill="none" stroke="#63b8ff" d="M746.35,-207.22C673.41,-197.32 545.4,-178.14 529.75,-163.5 494.17,-130.21 490.14,-68.38 490.66,-36.47"/>
<polygon fill="#63b8ff" stroke="#63b8ff" points="494.15,-36.77 491.01,-26.65 487.16,-36.52 494.15,-36.77"/>
</a>
</g>
</g>
<!-- Node20 -->
<g id="Node000020" class="node">
<title>Node20</title>
<g id="a_Node000020"><a xlink:title=" ">
<polygon fill="#e0e0e0" stroke="#999999" points="681.25,-157.88 572.25,-157.88 572.25,-138.62 681.25,-138.62 681.25,-157.88"/>
<text text-anchor="middle" x="626.75" y="-144.38" font-family="Helvetica,sans-Serif" font-size="10.00">llvm/ADT/StringSet.h</text>
</a>
</g>
</g>
<!-- Node16&#45;&gt;Node20 -->
<g id="edge21_Node000016_Node000020" class="edge">
<title>Node16&#45;&gt;Node20</title>
<g id="a_edge21_Node000016_Node000020"><a xlink:title=" ">
<path fill="none" stroke="#63b8ff" d="M758.17,-199.11C728.94,-188.02 689.15,-172.92 661.03,-162.25"/>
<polygon fill="#63b8ff" stroke="#63b8ff" points="662.5,-159.07 651.91,-158.8 660.02,-165.62 662.5,-159.07"/>
</a>
</g>
</g>
<!-- Node21 -->
<g id="Node000021" class="node">
<title>Node21</title>
<g id="a_Node000021"><a xlink:title=" ">
<polygon fill="#e0e0e0" stroke="#999999" points="380.38,-91.38 263.12,-91.38 263.12,-72.12 380.38,-72.12 380.38,-91.38"/>
<text text-anchor="middle" x="321.75" y="-77.88" font-family="Helvetica,sans-Serif" font-size="10.00">llvm/ADT/simple_ilist.h</text>
</a>
</g>
</g>
<!-- Node16&#45;&gt;Node21 -->
<g id="edge22_Node000016_Node000021" class="edge">
<title>Node16&#45;&gt;Node21</title>
<g id="a_edge22_Node000016_Node000021"><a xlink:title=" ">
<path fill="none" stroke="#63b8ff" d="M746.29,-213.65C677.68,-211.91 552.21,-202.96 453.75,-163.5 432,-154.78 430.53,-145.55 410.75,-133 390.56,-120.19 366.95,-106.93 349.13,-97.26"/>
<polygon fill="#63b8ff" stroke="#63b8ff" points="350.92,-94.25 340.45,-92.59 347.6,-100.41 350.92,-94.25"/>
</a>
</g>
</g>
<!-- Node22 -->
<g id="Node000022" class="node">
<title>Node22</title>
<g id="a_Node000022"><a xlink:title=" ">
<polygon fill="#e0e0e0" stroke="#999999" points="401.38,-157.88 350.12,-157.88 350.12,-138.62 401.38,-138.62 401.38,-157.88"/>
<text text-anchor="middle" x="375.75" y="-144.38" font-family="Helvetica,sans-Serif" font-size="10.00">memory</text>
</a>
</g>
</g>
<!-- Node16&#45;&gt;Node22 -->
<g id="edge23_Node000016_Node000022" class="edge">
<title>Node16&#45;&gt;Node22</title>
<g id="a_edge23_Node000016_Node000022"><a xlink:title=" ">
<path fill="none" stroke="#63b8ff" d="M746.51,-210.52C673.04,-205.03 532.33,-191.62 415.75,-163.5 413.6,-162.98 411.4,-162.39 409.2,-161.75"/>
<polygon fill="#63b8ff" stroke="#63b8ff" points="410.38,-158.45 399.78,-158.7 408.22,-165.11 410.38,-158.45"/>
</a>
</g>
</g>
<!-- Node23 -->
<g id="Node000023" class="node">
<title>Node23</title>
<g id="a_Node000023"><a xlink:title=" ">
<polygon fill="#e0e0e0" stroke="#999999" points="800.5,-157.88 699,-157.88 699,-138.62 800.5,-138.62 800.5,-157.88"/>
<text text-anchor="middle" x="749.75" y="-144.38" font-family="Helvetica,sans-Serif" font-size="10.00">mlir/IR/AffineExpr.h</text>
</a>
</g>
</g>
<!-- Node16&#45;&gt;Node23 -->
<g id="edge24_Node000016_Node000023" class="edge">
<title>Node16&#45;&gt;Node23</title>
<g id="a_edge24_Node000016_Node000023"><a xlink:title=" ">
<path fill="none" stroke="#63b8ff" d="M786.08,-199.11C779.18,-189.64 770.14,-177.23 762.8,-167.16"/>
<polygon fill="#63b8ff" stroke="#63b8ff" points="765.79,-165.32 757.07,-159.3 760.13,-169.44 765.79,-165.32"/>
</a>
</g>
</g>
<!-- Node24 -->
<g id="Node000024" class="node">
<title>Node24</title>
<g id="a_Node000024"><a xlink:title=" ">
<polygon fill="#e0e0e0" stroke="#999999" points="360,-24.88 261.5,-24.88 261.5,-5.63 360,-5.63 360,-24.88"/>
<text text-anchor="middle" x="310.75" y="-11.38" font-family="Helvetica,sans-Serif" font-size="10.00">mlir/IR/Attributes.h</text>
</a>
</g>
</g>
<!-- Node16&#45;&gt;Node24 -->
<g id="edge25_Node000016_Node000024" class="edge">
<title>Node16&#45;&gt;Node24</title>
<g id="a_edge25_Node000016_Node000024"><a xlink:title=" ">
<path fill="none" stroke="#63b8ff" d="M746.34,-208.36C674.3,-200.12 545.94,-183.23 503.75,-163.5 443.49,-135.32 443.28,-106 389.75,-66.5 372.37,-53.67 351.75,-40.62 335.93,-31.04"/>
<polygon fill="#63b8ff" stroke="#63b8ff" points="337.99,-28.19 327.61,-26.05 334.39,-34.19 337.99,-28.19"/>
</a>
</g>
</g>
<!-- Node25 -->
<g id="Node000025" class="node">
<title>Node25</title>
<g id="a_Node000025"><a xlink:href="_params_8h.html" target="_top" xlink:title=" ">
<polygon fill="white" stroke="#666666" points="1588.75,-163.5 1488.75,-163.5 1488.75,-133 1588.75,-133 1588.75,-163.5"/>
<text text-anchor="start" x="1496.75" y="-150" font-family="Helvetica,sans-Serif" font-size="10.00">zklang/Dialect/ZHL</text>
<text text-anchor="middle" x="1538.75" y="-138.75" font-family="Helvetica,sans-Serif" font-size="10.00">/Typing/Params.h</text>
</a>
</g>
</g>
<!-- Node16&#45;&gt;Node25 -->
<g id="edge28_Node000016_Node000025" class="edge">
<title>Node16&#45;&gt;Node25</title>
<g id="a_edge28_Node000016_Node000025"><a xlink:title=" ">
<path fill="none" stroke="#63b8ff" d="M847.17,-209.37C978.96,-197.91 1333.45,-167.1 1477.07,-154.61"/>
<polygon fill="#63b8ff" stroke="#63b8ff" points="1477.1,-158.12 1486.76,-153.77 1476.49,-151.15 1477.1,-158.12"/>
</a>
</g>
</g>
<!-- Node25&#45;&gt;Node2 -->
<g id="edge33_Node000025_Node000002" class="edge">
<title>Node25&#45;&gt;Node2</title>
<g id="a_edge33_Node000025_Node000002"><a xlink:title=" ">
<path fill="none" stroke="#63b8ff" d="M1589.23,-137.89C1599.32,-136.15 1609.86,-134.44 1619.75,-133 1758.32,-112.86 1793.76,-114 1932.75,-97 1949.76,-94.92 1968.23,-92.57 1985.09,-90.38"/>
<polygon fill="#63b8ff" stroke="#63b8ff" points="1985.51,-93.85 1994.97,-89.09 1984.6,-86.91 1985.51,-93.85"/>
</a>
</g>
</g>
<!-- Node25&#45;&gt;Node6 -->
<g id="edge29_Node000025_Node000006" class="edge">
<title>Node25&#45;&gt;Node6</title>
<g id="a_edge29_Node000025_Node000006"><a xlink:title=" ">
<path fill="none" stroke="#63b8ff" d="M1488.39,-145.84C1407.81,-142.59 1245.45,-131.9 1112.75,-97 1111.36,-96.63 1109.95,-96.22 1108.53,-95.78"/>
<polygon fill="#63b8ff" stroke="#63b8ff" points="1109.86,-92.53 1099.26,-92.37 1107.44,-99.1 1109.86,-92.53"/>
</a>
</g>
</g>
<!-- Node25&#45;&gt;Node9 -->
<g id="edge30_Node000025_Node000009" class="edge">
<title>Node25&#45;&gt;Node9</title>
<g id="a_edge30_Node000025_Node000009"><a xlink:title=" ">
<path fill="none" stroke="#63b8ff" d="M1492.2,-132.53C1456.6,-121.28 1408.04,-105.92 1374.3,-95.26"/>
<polygon fill="#63b8ff" stroke="#63b8ff" points="1375.5,-91.96 1364.91,-92.29 1373.39,-98.64 1375.5,-91.96"/>
</a>
</g>
</g>
<!-- Node25&#45;&gt;Node10 -->
<g id="edge31_Node000025_Node000010" class="edge">
<title>Node25&#45;&gt;Node10</title>
<g id="a_edge31_Node000025_Node000010"><a xlink:title=" ">
<path fill="none" stroke="#63b8ff" d="M1584.84,-132.53C1620.1,-121.28 1668.18,-105.92 1701.58,-95.26"/>
<polygon fill="#63b8ff" stroke="#63b8ff" points="1702.41,-98.67 1710.87,-92.29 1700.28,-92 1702.41,-98.67"/>
</a>
</g>
</g>
<!-- Node25&#45;&gt;Node11 -->
<g id="edge32_Node000025_Node000011" class="edge">
<title>Node25&#45;&gt;Node11</title>
<g id="a_edge32_Node000025_Node000011"><a xlink:title=" ">
<path fill="none" stroke="#63b8ff" d="M1588.85,-138.28C1642.39,-128.59 1729.72,-112.44 1804.75,-97 1809.02,-96.12 1813.44,-95.19 1817.88,-94.23"/>
<polygon fill="#63b8ff" stroke="#63b8ff" points="1818.34,-97.71 1827.37,-92.17 1816.85,-90.87 1818.34,-97.71"/>
</a>
</g>
</g>
<!-- Node25&#45;&gt;Node12 -->
<g id="edge34_Node000025_Node000012" class="edge">
<title>Node25&#45;&gt;Node12</title>
<g id="a_edge34_Node000025_Node000012"><a xlink:title=" ">
<path fill="none" stroke="#63b8ff" d="M1521.73,-132.61C1510.02,-122.54 1494.47,-109.17 1482.42,-98.81"/>
<polygon fill="#63b8ff" stroke="#63b8ff" points="1485.02,-96.43 1475.16,-92.56 1480.46,-101.73 1485.02,-96.43"/>
</a>
</g>
</g>
<!-- Node25&#45;&gt;Node13 -->
<g id="edge35_Node000025_Node000013" class="edge">
<title>Node25&#45;&gt;Node13</title>
<g id="a_edge35_Node000025_Node000013"><a xlink:title=" ">
<path fill="none" stroke="#63b8ff" d="M1557.36,-132.61C1570.29,-122.44 1587.5,-108.91 1600.73,-98.5"/>
<polygon fill="#63b8ff" stroke="#63b8ff" points="1602.65,-101.44 1608.34,-92.51 1598.32,-95.94 1602.65,-101.44"/>
</a>
</g>
</g>
<!-- Node25&#45;&gt;Node14 -->
<g id="edge36_Node000025_Node000014" class="edge">
<title>Node25&#45;&gt;Node14</title>
<g id="a_edge36_Node000025_Node000014"><a xlink:title=" ">
<path fill="none" stroke="#63b8ff" d="M1539.53,-132.73C1540.77,-109.37 1543.23,-63.38 1544.66,-36.71"/>
<polygon fill="#63b8ff" stroke="#63b8ff" points="1548.14,-37.04 1545.18,-26.86 1541.15,-36.66 1548.14,-37.04"/>
</a>
</g>
</g>
<!-- Node25&#45;&gt;Node15 -->
<g id="edge37_Node000025_Node000015" class="edge">
<title>Node25&#45;&gt;Node15</title>
<g id="a_edge37_Node000025_Node000015"><a xlink:title=" ">
<path fill="none" stroke="#63b8ff" d="M1488.52,-137.94C1425.71,-126.3 1318.29,-106.39 1251.08,-93.93"/>
<polygon fill="#63b8ff" stroke="#63b8ff" points="1251.8,-90.51 1241.33,-92.12 1250.52,-97.39 1251.8,-90.51"/>
</a>
</g>
</g>
<!-- Node26&#45;&gt;Node21 -->
<g id="edge39_Node000026_Node000021" class="edge">
<title>Node26&#45;&gt;Node21</title>
<g id="a_edge39_Node000026_Node000021"><a xlink:title=" ">
<path fill="none" stroke="#63b8ff" d="M345.76,-199.23C340.92,-175.77 331.38,-129.46 325.89,-102.85"/>
<polygon fill="#63b8ff" stroke="#63b8ff" points="329.38,-102.42 323.93,-93.33 322.52,-103.83 329.38,-102.42"/>
</a>
</g>
</g>
<!-- Node26&#45;&gt;Node22 -->
<g id="edge41_Node000026_Node000022" class="edge">
<title>Node26&#45;&gt;Node22</title>
<g id="a_edge41_Node000026_Node000022"><a xlink:title=" ">
<path fill="none" stroke="#63b8ff" d="M354.88,-199.11C358.68,-190.03 363.61,-178.26 367.72,-168.43"/>
<polygon fill="#63b8ff" stroke="#63b8ff" points="370.84,-170.04 371.47,-159.47 364.38,-167.34 370.84,-170.04"/>
</a>
</g>
</g>
<!-- Node27 -->
<g id="Node000027" class="node">
<title>Node27</title>
<g id="a_Node000027"><a xlink:title=" ">
<polygon fill="#e0e0e0" stroke="#999999" points="293.88,-157.88 155.62,-157.88 155.62,-138.62 293.88,-138.62 293.88,-157.88"/>
<text text-anchor="middle" x="224.75" y="-144.38" font-family="Helvetica,sans-Serif" font-size="10.00">llvm/Support/raw_ostream.h</text>
</a>
</g>
</g>
<!-- Node26&#45;&gt;Node27 -->
<g id="edge40_Node000026_Node000027" class="edge">
<title>Node26&#45;&gt;Node27</title>
<g id="a_edge40_Node000026_Node000027"><a xlink:title=" ">
<path fill="none" stroke="#63b8ff" d="M320.61,-199.11C300.14,-188.46 272.56,-174.12 252.24,-163.55"/>
<polygon fill="#63b8ff" stroke="#63b8ff" points="253.9,-160.47 243.41,-158.96 250.67,-166.68 253.9,-160.47"/>
</a>
</g>
</g>
<!-- Node28 -->
<g id="Node000028" class="node">
<title>Node28</title>
<g id="a_Node000028"><a xlink:href="_frame_info_8h.html" target="_top" xlink:title=" ">
<polygon fill="white" stroke="#666666" points="137.25,-163.5 34.25,-163.5 34.25,-133 137.25,-133 137.25,-163.5"/>
<text text-anchor="start" x="42.25" y="-150" font-family="Helvetica,sans-Serif" font-size="10.00">zklang/Dialect/ZHL</text>
<text text-anchor="middle" x="85.75" y="-138.75" font-family="Helvetica,sans-Serif" font-size="10.00">/Typing/FrameInfo.h</text>
</a>
</g>
</g>
<!-- Node26&#45;&gt;Node28 -->
<g id="edge42_Node000026_Node000028" class="edge">
<title>Node26&#45;&gt;Node28</title>
<g id="a_edge42_Node000026_Node000028"><a xlink:title=" ">
<path fill="none" stroke="#63b8ff" d="M298.35,-201.39C255.64,-190.91 194.19,-175.84 148.33,-164.6"/>
<polygon fill="#63b8ff" stroke="#63b8ff" points="149.34,-161.24 138.79,-162.26 147.67,-168.04 149.34,-161.24"/>
</a>
</g>
</g>
<!-- Node28&#45;&gt;Node21 -->
<g id="edge43_Node000028_Node000021" class="edge">
<title>Node28&#45;&gt;Node21</title>
<g id="a_edge43_Node000028_Node000021"><a xlink:title=" ">
<path fill="none" stroke="#63b8ff" d="M137.54,-133.1C179.5,-121.63 237.96,-105.65 277.69,-94.79"/>
<polygon fill="#63b8ff" stroke="#63b8ff" points="278.44,-98.22 287.16,-92.2 276.59,-91.46 278.44,-98.22"/>
</a>
</g>
</g>
<!-- Node28&#45;&gt;Node29 -->
<g id="edge44_Node000028_Node000029" class="edge">
<title>Node28&#45;&gt;Node29</title>
<g id="a_edge44_Node000028_Node000029"><a xlink:title=" ">
<path fill="none" stroke="#63b8ff" d="M91.88,-132.61C94.95,-125.27 98.76,-116.18 102.27,-107.77"/>
<polygon fill="#63b8ff" stroke="#63b8ff" points="105.43,-109.3 106.06,-98.72 98.97,-106.6 105.43,-109.3"/>
</a>
</g>
</g>
<!-- Node29&#45;&gt;Node14 -->
<g id="edge49_Node000029_Node000014" class="edge">
<title>Node29&#45;&gt;Node14</title>
<g id="a_edge49_Node000029_Node000014"><a xlink:title=" ">
<path fill="none" stroke="#63b8ff" d="M164.91,-74.7C191.48,-71.82 224.3,-68.56 253.75,-66.5 724.5,-33.59 1293.36,-20.84 1481.75,-17.34"/>
<polygon fill="#63b8ff" stroke="#63b8ff" points="1481.63,-20.84 1491.56,-17.16 1481.5,-13.84 1481.63,-20.84"/>
</a>
</g>
</g>
<!-- Node29&#45;&gt;Node19 -->
<g id="edge45_Node000029_Node000019" class="edge">
<title>Node29&#45;&gt;Node19</title>
<g id="a_edge45_Node000029_Node000019"><a xlink:title=" ">
<path fill="none" stroke="#63b8ff" d="M165.05,-71.85C233.43,-60.21 353.16,-39.84 427.14,-27.25"/>
<polygon fill="#63b8ff" stroke="#63b8ff" points="427.39,-30.75 436.66,-25.63 426.22,-23.85 427.39,-30.75"/>
</a>
</g>
</g>
<!-- Node29&#45;&gt;Node24 -->
<g id="edge48_Node000029_Node000024" class="edge">
<title>Node29&#45;&gt;Node24</title>
<g id="a_edge48_Node000029_Node000024"><a xlink:title=" ">
<path fill="none" stroke="#63b8ff" d="M157.68,-66.11C192.23,-54.86 239.44,-39.48 272.26,-28.79"/>
<polygon fill="#63b8ff" stroke="#63b8ff" points="272.94,-32.25 281.36,-25.82 270.77,-25.59 272.94,-32.25"/>
</a>
</g>
</g>
<!-- Node30 -->
<g id="Node000030" class="node">
<title>Node30</title>
<g id="a_Node000030"><a xlink:title=" ">
<polygon fill="#e0e0e0" stroke="#999999" points="229.62,-24.88 119.88,-24.88 119.88,-5.63 229.62,-5.63 229.62,-24.88"/>
<text text-anchor="middle" x="174.75" y="-11.38" font-family="Helvetica,sans-Serif" font-size="10.00">llvm/ADT/ilist_node.h</text>
</a>
</g>
</g>
<!-- Node29&#45;&gt;Node30 -->
<g id="edge46_Node000029_Node000030" class="edge">
<title>Node29&#45;&gt;Node30</title>
<g id="a_edge46_Node000029_Node000030"><a xlink:title=" ">
<path fill="none" stroke="#63b8ff" d="M126.82,-66.11C136.21,-56.34 148.6,-43.45 158.43,-33.23"/>
<polygon fill="#63b8ff" stroke="#63b8ff" points="160.81,-35.8 165.22,-26.16 155.77,-30.95 160.81,-35.8"/>
</a>
</g>
</g>
<!-- Node31 -->
<g id="Node000031" class="node">
<title>Node31</title>
<g id="a_Node000031"><a xlink:title=" ">
<polygon fill="#e0e0e0" stroke="#999999" points="101.5,-30.5 0,-30.5 0,0 101.5,0 101.5,-30.5"/>
<text text-anchor="start" x="8" y="-17" font-family="Helvetica,sans-Serif" font-size="10.00">llvm/ADT/ilist_node</text>
<text text-anchor="middle" x="50.75" y="-5.75" font-family="Helvetica,sans-Serif" font-size="10.00">_options.h</text>
</a>
</g>
</g>
<!-- Node29&#45;&gt;Node31 -->
<g id="edge47_Node000029_Node000031" class="edge">
<title>Node29&#45;&gt;Node31</title>
<g id="a_edge47_Node000029_Node000031"><a xlink:title=" ">
<path fill="none" stroke="#63b8ff" d="M98.68,-66.11C90.99,-58.11 81.3,-48.03 72.64,-39.03"/>
<polygon fill="#63b8ff" stroke="#63b8ff" points="75.27,-36.7 65.81,-31.92 70.22,-41.55 75.27,-36.7"/>
</a>
</g>
</g>
<!-- Node32&#45;&gt;Node2 -->
<g id="edge59_Node000032_Node000002" class="edge">
<title>Node32&#45;&gt;Node2</title>
<g id="a_edge59_Node000032_Node000002"><a xlink:title=" ">
<path fill="none" stroke="#63b8ff" d="M1426.21,-278.49C1565.69,-273.73 1918.48,-258.93 1962.75,-230 2008.32,-200.22 2030.01,-135.32 2038.39,-102.54"/>
<polygon fill="#63b8ff" stroke="#63b8ff" points="2041.71,-103.7 2040.62,-93.16 2034.9,-102.08 2041.71,-103.7"/>
</a>
</g>
</g>
<!-- Node32&#45;&gt;Node6 -->
<g id="edge52_Node000032_Node000006" class="edge">
<title>Node32&#45;&gt;Node6</title>
<g id="a_edge52_Node000032_Node000006"><a xlink:title=" ">
<path fill="none" stroke="#63b8ff" d="M1348.35,-265.73C1294.96,-229.49 1156.23,-135.33 1101.46,-98.16"/>
<polygon fill="#63b8ff" stroke="#63b8ff" points="1103.46,-95.29 1093.22,-92.57 1099.53,-101.08 1103.46,-95.29"/>
</a>
</g>
</g>
<!-- Node32&#45;&gt;Node7 -->
<g id="edge53_Node000032_Node000007" class="edge">
<title>Node32&#45;&gt;Node7</title>
<g id="a_edge53_Node000032_Node000007"><a xlink:title=" ">
<path fill="none" stroke="#63b8ff" d="M1336.6,-265.58C1314.87,-255.82 1285.94,-242.53 1260.75,-230 1216.42,-207.95 1165.86,-180.41 1135.94,-163.86"/>
<polygon fill="#63b8ff" stroke="#63b8ff" points="1137.66,-160.82 1127.22,-159.03 1134.27,-166.94 1137.66,-160.82"/>
</a>
</g>
</g>
<!-- Node32&#45;&gt;Node9 -->
<g id="edge55_Node000032_Node000009" class="edge">
<title>Node32&#45;&gt;Node9</title>
<g id="a_edge55_Node000032_Node000009"><a xlink:title=" ">
<path fill="none" stroke="#63b8ff" d="M1367.18,-265.73C1361.01,-230.92 1345.37,-142.66 1338.31,-102.81"/>
<polygon fill="#63b8ff" stroke="#63b8ff" points="1341.76,-102.23 1336.57,-92.99 1334.86,-103.45 1341.76,-102.23"/>
</a>
</g>
</g>
<!-- Node32&#45;&gt;Node10 -->
<g id="edge56_Node000032_Node000010" class="edge">
<title>Node32&#45;&gt;Node10</title>
<g id="a_edge56_Node000032_Node000010"><a xlink:title=" ">
<path fill="none" stroke="#63b8ff" d="M1426.08,-277.03C1528.6,-270.58 1737.14,-254.58 1758.75,-230 1790.4,-194 1766.51,-132.5 1751.11,-101.62"/>
<polygon fill="#63b8ff" stroke="#63b8ff" points="1754.38,-100.31 1746.64,-93.07 1748.17,-103.55 1754.38,-100.31"/>
</a>
</g>
</g>
<!-- Node32&#45;&gt;Node11 -->
<g id="edge57_Node000032_Node000011" class="edge">
<title>Node32&#45;&gt;Node11</title>
<g id="a_edge57_Node000032_Node000011"><a xlink:title=" ">
<path fill="none" stroke="#63b8ff" d="M1426.05,-279.33C1524.42,-276.77 1722.56,-267.02 1779.75,-230 1826.66,-199.63 1852.54,-135 1863.07,-102.41"/>
<polygon fill="#63b8ff" stroke="#63b8ff" points="1866.35,-103.66 1865.93,-93.07 1859.66,-101.61 1866.35,-103.66"/>
</a>
</g>
</g>
<!-- Node32&#45;&gt;Node12 -->
<g id="edge60_Node000032_Node000012" class="edge">
<title>Node32&#45;&gt;Node12</title>
<g id="a_edge60_Node000032_Node000012"><a xlink:title=" ">
<path fill="none" stroke="#63b8ff" d="M1376.58,-265.65C1384.16,-249.46 1396.78,-222.59 1407.75,-199.5 1424.09,-165.11 1443.32,-125.12 1454.47,-101.99"/>
<polygon fill="#63b8ff" stroke="#63b8ff" points="1457.52,-103.71 1458.71,-93.19 1451.22,-100.67 1457.52,-103.71"/>
</a>
</g>
</g>
<!-- Node32&#45;&gt;Node13 -->
<g id="edge61_Node000032_Node000013" class="edge">
<title>Node32&#45;&gt;Node13</title>
<g id="a_edge61_Node000032_Node000013"><a xlink:title=" ">
<path fill="none" stroke="#63b8ff" d="M1426.09,-281.21C1519.39,-281.47 1699.72,-275.84 1739.75,-230 1781.06,-182.7 1694.43,-123.99 1647.82,-97.24"/>
<polygon fill="#63b8ff" stroke="#63b8ff" points="1649.76,-94.32 1639.32,-92.48 1646.34,-100.42 1649.76,-94.32"/>
</a>
</g>
</g>
<!-- Node32&#45;&gt;Node14 -->
<g id="edge62_Node000032_Node000014" class="edge">
<title>Node32&#45;&gt;Node14</title>
<g id="a_edge62_Node000032_Node000014"><a xlink:title=" ">
<path fill="none" stroke="#63b8ff" d="M1426.16,-278.65C1529.33,-274.95 1743.91,-263.37 1809.75,-230 1881.57,-193.6 1903.4,-171.97 1932.75,-97 1937.69,-84.38 1941.7,-76.68 1932.75,-66.5 1911.79,-42.64 1713.99,-26.78 1609.59,-20"/>
<polygon fill="#63b8ff" stroke="#63b8ff" points="1609.97,-16.51 1599.77,-19.37 1609.53,-23.5 1609.97,-16.51"/>
</a>
</g>
</g>
<!-- Node32&#45;&gt;Node15 -->
<g id="edge63_Node000032_Node000015" class="edge">
<title>Node32&#45;&gt;Node15</title>
<g id="a_edge63_Node000032_Node000015"><a xlink:title=" ">
<path fill="none" stroke="#63b8ff" d="M1356.59,-265.73C1324.15,-229.94 1240.5,-137.64 1205.98,-99.56"/>
<polygon fill="#63b8ff" stroke="#63b8ff" points="1209.01,-97.68 1199.7,-92.63 1203.82,-102.39 1209.01,-97.68"/>
</a>
</g>
</g>
<!-- Node32&#45;&gt;Node16 -->
<g id="edge64_Node000032_Node000016" class="edge">
<title>Node32&#45;&gt;Node16</title>
<g id="a_edge64_Node000032_Node000016"><a xlink:title=" ">
<path fill="none" stroke="#63b8ff" d="M1313.5,-273.92C1205.66,-261.78 970.58,-235.32 858.53,-222.7"/>
<polygon fill="#63b8ff" stroke="#63b8ff" points="858.94,-219.23 848.62,-221.59 858.16,-226.18 858.94,-219.23"/>
</a>
</g>
</g>
<!-- Node32&#45;&gt;Node22 -->
<g id="edge58_Node000032_Node000022" class="edge">
<title>Node32&#45;&gt;Node22</title>
<g id="a_edge58_Node000032_Node000022"><a xlink:title=" ">
<path fill="none" stroke="#63b8ff" d="M1313.28,-278.02C1202.48,-273.13 948.96,-259.51 737.75,-230 589.14,-209.24 549.44,-209.93 406.75,-163.5 405.79,-163.19 404.82,-162.85 403.84,-162.5"/>
<polygon fill="#63b8ff" stroke="#63b8ff" points="405.48,-159.39 394.9,-158.84 402.83,-165.87 405.48,-159.39"/>
</a>
</g>
</g>
<!-- Node32&#45;&gt;Node25 -->
<g id="edge67_Node000032_Node000025" class="edge">
<title>Node32&#45;&gt;Node25</title>
<g id="a_edge67_Node000032_Node000025"><a xlink:title=" ">
<path fill="none" stroke="#63b8ff" d="M1426.25,-274.75C1457.98,-268.73 1495.88,-256.18 1519.75,-230 1533.25,-215.2 1537.69,-192.65 1538.93,-175.13"/>
<polygon fill="#63b8ff" stroke="#63b8ff" points="1542.42,-175.35 1539.29,-165.23 1535.43,-175.09 1542.42,-175.35"/>
</a>
</g>
</g>
<!-- Node32&#45;&gt;Node26 -->
<g id="edge65_Node000032_Node000026" class="edge">
<title>Node32&#45;&gt;Node26</title>
<g id="a_edge65_Node000032_Node000026"><a xlink:title=" ">
<path fill="none" stroke="#63b8ff" d="M1313.47,-277.35C1177.53,-270.25 820.49,-251.02 522.75,-230 485.43,-227.36 443.64,-223.96 410.37,-221.14"/>
<polygon fill="#63b8ff" stroke="#63b8ff" points="410.75,-217.66 400.49,-220.29 410.16,-224.63 410.75,-217.66"/>
</a>
</g>
</g>
<!-- Node32&#45;&gt;Node29 -->
<g id="edge66_Node000032_Node000029" class="edge">
<title>Node32&#45;&gt;Node29</title>
<g id="a_edge66_Node000032_Node000029"><a xlink:title=" ">
<path fill="none" stroke="#63b8ff" d="M1313.3,-280.07C1068.22,-278.68 105.21,-266.65 24.75,-163.5 16.41,-152.81 17.94,-144.72 24.75,-133 32.28,-120.03 44.56,-110.12 57.58,-102.68"/>
<polygon fill="#63b8ff" stroke="#63b8ff" points="59.02,-105.87 66.28,-98.16 55.79,-99.66 59.02,-105.87"/>
</a>
</g>
</g>
<!-- Node33 -->
<g id="Node000033" class="node">
<title>Node33</title>
<g id="a_Node000033"><a xlink:title=" ">
<polygon fill="#e0e0e0" stroke="#999999" points="1510.75,-224.38 1416.75,-224.38 1416.75,-205.12 1510.75,-205.12 1510.75,-224.38"/>
<text text-anchor="middle" x="1463.75" y="-210.88" font-family="Helvetica,sans-Serif" font-size="10.00">llvm/ADT/Bitset.h</text>
</a>
</g>
</g>
<!-- Node32&#45;&gt;Node33 -->
<g id="edge54_Node000032_Node000033" class="edge">
<title>Node32&#45;&gt;Node33</title>
<g id="a_edge54_Node000032_Node000033"><a xlink:title=" ">
<path fill="none" stroke="#63b8ff" d="M1391.08,-265.61C1406.1,-255.31 1426.16,-241.54 1441.4,-231.08"/>
<polygon fill="#63b8ff" stroke="#63b8ff" points="1443.11,-234.16 1449.37,-225.62 1439.15,-228.39 1443.11,-234.16"/>
</a>
</g>
</g>
<!-- Node34 -->
<g id="Node000034" class="node">
<title>Node34</title>
<g id="a_Node000034"><a xlink:href="_copyable_pointer_8h.html" target="_top" xlink:title=" ">
<polygon fill="white" stroke="#666666" points="1730.62,-224.38 1566.88,-224.38 1566.88,-205.12 1730.62,-205.12 1730.62,-224.38"/>
<text text-anchor="middle" x="1648.75" y="-210.88" font-family="Helvetica,sans-Serif" font-size="10.00">zklang/Support/CopyablePointer.h</text>
</a>
</g>
</g>
<!-- Node32&#45;&gt;Node34 -->
<g id="edge68_Node000032_Node000034" class="edge">
<title>Node32&#45;&gt;Node34</title>
<g id="a_edge68_Node000032_Node000034"><a xlink:title=" ">
<path fill="none" stroke="#63b8ff" d="M1426.21,-267.2C1476.62,-255.54 1549.79,-238.63 1598.29,-227.42"/>
<polygon fill="#63b8ff" stroke="#63b8ff" points="1599.02,-230.84 1607.98,-225.18 1597.44,-224.02 1599.02,-230.84"/>
</a>
</g>
</g>
<!-- Node35 -->
<g id="Node000035" class="node">
<title>Node35</title>
<g id="a_Node000035"><a xlink:title=" ">
<polygon fill="#e0e0e0" stroke="#999999" points="1668.38,-157.88 1629.12,-157.88 1629.12,-138.62 1668.38,-138.62 1668.38,-157.88"/>
<text text-anchor="middle" x="1648.75" y="-144.38" font-family="Helvetica,sans-Serif" font-size="10.00">utility</text>
</a>
</g>
</g>
<!-- Node34&#45;&gt;Node35 -->
<g id="edge69_Node000034_Node000035" class="edge">
<title>Node34&#45;&gt;Node35</title>
<g id="a_edge69_Node000034_Node000035"><a xlink:title=" ">
<path fill="none" stroke="#63b8ff" d="M1648.75,-204.78C1648.75,-195.73 1648.75,-181.45 1648.75,-169.63"/>
<polygon fill="#63b8ff" stroke="#63b8ff" points="1652.25,-169.66 1648.75,-159.66 1645.25,-169.66 1652.25,-169.66"/>
</a>
</g>
</g>
</g>
</svg>
