<?xml version="1.0" encoding="UTF-8" standalone="no"?>
<!DOCTYPE svg PUBLIC "-//W3C//DTD SVG 1.1//EN"
 "http://www.w3.org/Graphics/SVG/1.1/DTD/svg11.dtd">
<!-- Generated by graphviz version 12.2.1 (20241206.2353)
 -->
<!-- Title: include/zklang/Dialect/ZHL/Typing/ComponentSlot.h Pages: 1 -->
<svg width="940pt" height="238pt"
 viewBox="0.00 0.00 940.24 238.00" xmlns="http://www.w3.org/2000/svg" xmlns:xlink="http://www.w3.org/1999/xlink">
<g id="graph0" class="graph" transform="scale(1 1) rotate(0) translate(4 234)">
<title>include/zklang/Dialect/ZHL/Typing/ComponentSlot.h</title>
<!-- Node1 -->
<g id="Node000001" class="node">
<title>Node1</title>
<g id="a_Node000001"><a xlink:title=" ">
<polygon fill="#999999" stroke="#666666" points="477.86,-230 329.86,-230 329.86,-199.5 477.86,-199.5 477.86,-230"/>
<text text-anchor="start" x="337.86" y="-216.5" font-family="Helvetica,sans-Serif" font-size="10.00">include/zklang/Dialect</text>
<text text-anchor="middle" x="403.86" y="-205.25" font-family="Helvetica,sans-Serif" font-size="10.00">/ZHL/Typing/ComponentSlot.h</text>
</a>
</g>
</g>
<!-- Node2 -->
<g id="Node000002" class="node">
<title>Node2</title>
<g id="a_Node000002"><a xlink:href="_array_frame_8h.html" target="_top" xlink:title=" ">
<polygon fill="white" stroke="#666666" points="147.61,-163.5 16.11,-163.5 16.11,-133 147.61,-133 147.61,-163.5"/>
<text text-anchor="start" x="24.11" y="-150" font-family="Helvetica,sans-Serif" font-size="10.00">include/zklang/Dialect</text>
<text text-anchor="middle" x="81.86" y="-138.75" font-family="Helvetica,sans-Serif" font-size="10.00">/ZHL/Typing/ArrayFrame.h</text>
</a>
</g>
</g>
<!-- Node1&#45;&gt;Node2 -->
<g id="edge1_Node000001_Node000002" class="edge">
<title>Node1&#45;&gt;Node2</title>
<g id="a_edge1_Node000001_Node000002"><a xlink:title=" ">
<path fill="none" stroke="#63b8ff" d="M319.2,-196.79C265.65,-186.07 197.44,-172.4 147.9,-162.48"/>
<polygon fill="#63b8ff" stroke="#63b8ff" points="318.41,-200.2 328.91,-198.74 319.79,-193.34 318.41,-200.2"/>
</a>
</g>
</g>
<!-- Node3 -->
<g id="Node000003" class="node">
<title>Node3</title>
<g id="a_Node000003"><a xlink:href="_frame_8cpp.html" target="_top" xlink:title=" ">
<polygon fill="white" stroke="#666666" points="166.24,-97 53.49,-97 53.49,-66.5 166.24,-66.5 166.24,-97"/>
<text text-anchor="start" x="61.49" y="-83.5" font-family="Helvetica,sans-Serif" font-size="10.00">lib/Dialect/ZHL/Typing</text>
<text text-anchor="middle" x="109.86" y="-72.25" font-family="Helvetica,sans-Serif" font-size="10.00">/Frame.cpp</text>
</a>
</g>
</g>
<!-- Node1&#45;&gt;Node3 -->
<g id="edge16_Node000001_Node000003" class="edge">
<title>Node1&#45;&gt;Node3</title>
<g id="a_edge16_Node000001_Node000003"><a xlink:title=" ">
<path fill="none" stroke="#63b8ff" d="M318.2,-208.85C207.68,-201.63 27.1,-186.47 6.86,-163.5 -16.8,-136.65 27.64,-112.28 65.34,-97.49"/>
<polygon fill="#63b8ff" stroke="#63b8ff" points="317.95,-212.34 328.15,-209.49 318.39,-205.35 317.95,-212.34"/>
</a>
</g>
</g>
<!-- Node4 -->
<g id="Node000004" class="node">
<title>Node4</title>
<g id="a_Node000004"><a xlink:href="_rules_8cpp.html" target="_top" xlink:title=" ">
<polygon fill="white" stroke="#666666" points="334.24,-97 221.49,-97 221.49,-66.5 334.24,-66.5 334.24,-97"/>
<text text-anchor="start" x="229.49" y="-83.5" font-family="Helvetica,sans-Serif" font-size="10.00">lib/Dialect/ZHL/Typing</text>
<text text-anchor="middle" x="277.86" y="-72.25" font-family="Helvetica,sans-Serif" font-size="10.00">/Rules.cpp</text>
</a>
</g>
</g>
<!-- Node1&#45;&gt;Node4 -->
<g id="edge17_Node000001_Node000004" class="edge">
<title>Node1&#45;&gt;Node4</title>
<g id="a_edge17_Node000001_Node000004"><a xlink:title=" ">
<path fill="none" stroke="#63b8ff" d="M377.97,-191.73C368.28,-183.17 357.33,-173.13 347.86,-163.5 326.14,-141.4 302.97,-113.77 289.48,-97.23"/>
<polygon fill="#63b8ff" stroke="#63b8ff" points="375.46,-194.19 385.3,-198.12 380.06,-188.91 375.46,-194.19"/>
</a>
</g>
</g>
<!-- Node5 -->
<g id="Node000005" class="node">
<title>Node5</title>
<g id="a_Node000005"><a xlink:href="_passes_2_convert_zhl_to_zml_2_patterns_8cpp.html" target="_top" xlink:title=" ">
<polygon fill="white" stroke="#666666" points="431.74,-30.5 291.99,-30.5 291.99,0 431.74,0 431.74,-30.5"/>
<text text-anchor="start" x="299.99" y="-17" font-family="Helvetica,sans-Serif" font-size="10.00">lib/Passes/ConvertZhlToZml</text>
<text text-anchor="middle" x="361.86" y="-5.75" font-family="Helvetica,sans-Serif" font-size="10.00">/Patterns.cpp</text>
</a>
</g>
</g>
<!-- Node1&#45;&gt;Node5 -->
<g id="edge22_Node000001_Node000005" class="edge">
<title>Node1&#45;&gt;Node5</title>
<g id="a_edge22_Node000001_Node000005"><a xlink:title=" ">
<path fill="none" stroke="#63b8ff" d="M390.81,-189.14C387.06,-181.15 383.33,-172.12 380.86,-163.5 367.31,-116.17 363.4,-57.5 362.29,-30.75"/>
<polygon fill="#63b8ff" stroke="#63b8ff" points="387.57,-190.48 395.13,-197.89 393.84,-187.37 387.57,-190.48"/>
</a>
</g>
</g>
<!-- Node6 -->
<g id="Node000006" class="node">
<title>Node6</title>
<g id="a_Node000006"><a xlink:href="_inner_frame_8h.html" target="_top" xlink:title=" ">
<polygon fill="white" stroke="#666666" points="295.86,-163.5 165.86,-163.5 165.86,-133 295.86,-133 295.86,-163.5"/>
<text text-anchor="start" x="173.86" y="-150" font-family="Helvetica,sans-Serif" font-size="10.00">include/zklang/Dialect</text>
<text text-anchor="middle" x="230.86" y="-138.75" font-family="Helvetica,sans-Serif" font-size="10.00">/ZHL/Typing/InnerFrame.h</text>
</a>
</g>
</g>
<!-- Node1&#45;&gt;Node6 -->
<g id="edge5_Node000001_Node000006" class="edge">
<title>Node1&#45;&gt;Node6</title>
<g id="a_edge5_Node000001_Node000006"><a xlink:title=" ">
<path fill="none" stroke="#63b8ff" d="M353.96,-195.15C327.36,-185.23 295.09,-173.2 270.26,-163.94"/>
<polygon fill="#63b8ff" stroke="#63b8ff" points="352.59,-198.37 363.19,-198.59 355.04,-191.81 352.59,-198.37"/>
</a>
</g>
</g>
<!-- Node7 -->
<g id="Node000007" class="node">
<title>Node7</title>
<g id="a_Node000007"><a xlink:href="_helpers_8h.html" target="_top" xlink:title=" ">
<polygon fill="white" stroke="#666666" points="501.86,-163.5 389.86,-163.5 389.86,-133 501.86,-133 501.86,-163.5"/>
<text text-anchor="start" x="397.86" y="-150" font-family="Helvetica,sans-Serif" font-size="10.00">include/zklang/Dialect</text>
<text text-anchor="middle" x="445.86" y="-138.75" font-family="Helvetica,sans-Serif" font-size="10.00">/ZML/Utils/Helpers.h</text>
</a>
</g>
</g>
<!-- Node1&#45;&gt;Node7 -->
<g id="edge9_Node000001_Node000007" class="edge">
<title>Node1&#45;&gt;Node7</title>
<g id="a_edge9_Node000001_Node000007"><a xlink:title=" ">
<path fill="none" stroke="#63b8ff" d="M419.65,-189.51C425.27,-180.87 431.43,-171.41 436.37,-163.83"/>
<polygon fill="#63b8ff" stroke="#63b8ff" points="416.74,-187.56 414.22,-197.85 422.61,-191.38 416.74,-187.56"/>
</a>
</g>
</g>
<!-- Node10 -->
<g id="Node000010" class="node">
<title>Node10</title>
<g id="a_Node000010"><a xlink:href="_helpers_8cpp.html" target="_top" xlink:title=" ">
<polygon fill="white" stroke="#666666" points="763.61,-91.38 626.11,-91.38 626.11,-72.12 763.61,-72.12 763.61,-91.38"/>
<text text-anchor="middle" x="694.86" y="-77.88" font-family="Helvetica,sans-Serif" font-size="10.00">lib/Dialect/ZML/Helpers.cpp</text>
</a>
</g>
</g>
<!-- Node1&#45;&gt;Node10 -->
<g id="edge21_Node000001_Node000010" class="edge">
<title>Node1&#45;&gt;Node10</title>
<g id="a_edge21_Node000001_Node000010"><a xlink:title=" ">
<path fill="none" stroke="#63b8ff" d="M450.94,-194.55C470.07,-186.01 492.06,-175.23 510.86,-163.5 529.24,-152.04 529.9,-143.46 548.86,-133 583.6,-113.84 626.97,-100.04 657.38,-91.81"/>
<polygon fill="#63b8ff" stroke="#63b8ff" points="449.79,-191.23 442.03,-198.45 452.6,-197.64 449.79,-191.23"/>
</a>
</g>
</g>
<!-- Node11 -->
<g id="Node000011" class="node">
<title>Node11</title>
<g id="a_Node000011"><a xlink:href="_type_binding_8cpp.html" target="_top" xlink:title=" ">
<polygon fill="white" stroke="#666666" points="670.24,-163.5 557.49,-163.5 557.49,-133 670.24,-133 670.24,-163.5"/>
<text text-anchor="start" x="565.49" y="-150" font-family="Helvetica,sans-Serif" font-size="10.00">lib/Dialect/ZHL/Typing</text>
<text text-anchor="middle" x="613.86" y="-138.75" font-family="Helvetica,sans-Serif" font-size="10.00">/TypeBinding.cpp</text>
</a>
</g>
</g>
<!-- Node1&#45;&gt;Node11 -->
<g id="edge18_Node000001_Node000011" class="edge">
<title>Node1&#45;&gt;Node11</title>
<g id="a_edge18_Node000001_Node000011"><a xlink:title=" ">
<path fill="none" stroke="#63b8ff" d="M462.55,-195.72C495.24,-185.68 535.42,-173.34 566.15,-163.9"/>
<polygon fill="#63b8ff" stroke="#63b8ff" points="461.75,-192.31 453.22,-198.59 463.81,-199 461.75,-192.31"/>
</a>
</g>
</g>
<!-- Node12 -->
<g id="Node000012" class="node">
<title>Node12</title>
<g id="a_Node000012"><a xlink:href="_type_bindings_8cpp.html" target="_top" xlink:title=" ">
<polygon fill="white" stroke="#666666" points="801.24,-163.5 688.49,-163.5 688.49,-133 801.24,-133 801.24,-163.5"/>
<text text-anchor="start" x="696.49" y="-150" font-family="Helvetica,sans-Serif" font-size="10.00">lib/Dialect/ZHL/Typing</text>
<text text-anchor="middle" x="744.86" y="-138.75" font-family="Helvetica,sans-Serif" font-size="10.00">/TypeBindings.cpp</text>
</a>
</g>
</g>
<!-- Node1&#45;&gt;Node12 -->
<g id="edge19_Node000001_Node000012" class="edge">
<title>Node1&#45;&gt;Node12</title>
<g id="a_edge19_Node000001_Node000012"><a xlink:title=" ">
<path fill="none" stroke="#63b8ff" d="M489.42,-198.84C543.76,-189.19 615.54,-176.12 678.86,-163.5 681.85,-162.9 684.91,-162.28 688,-161.65"/>
<polygon fill="#63b8ff" stroke="#63b8ff" points="488.83,-195.39 479.59,-200.58 490.05,-202.28 488.83,-195.39"/>
</a>
</g>
</g>
<!-- Node13 -->
<g id="Node000013" class="node">
<title>Node13</title>
<g id="a_Node000013"><a xlink:href="_typing_8cpp.html" target="_top" xlink:title=" ">
<polygon fill="white" stroke="#666666" points="932.24,-163.5 819.49,-163.5 819.49,-133 932.24,-133 932.24,-163.5"/>
<text text-anchor="start" x="827.49" y="-150" font-family="Helvetica,sans-Serif" font-size="10.00">lib/Dialect/ZHL/Typing</text>
<text text-anchor="middle" x="875.86" y="-138.75" font-family="Helvetica,sans-Serif" font-size="10.00">/Typing.cpp</text>
</a>
</g>
</g>
<!-- Node1&#45;&gt;Node13 -->
<g id="edge20_Node000001_Node000013" class="edge">
<title>Node1&#45;&gt;Node13</title>
<g id="a_edge20_Node000001_Node000013"><a xlink:title=" ">
<path fill="none" stroke="#63b8ff" d="M489.55,-205.4C571.95,-196.83 699.84,-182.15 809.86,-163.5 812.87,-162.99 815.94,-162.44 819.04,-161.86"/>
<polygon fill="#63b8ff" stroke="#63b8ff" points="489.33,-201.9 479.74,-206.41 490.05,-208.86 489.33,-201.9"/>
</a>
</g>
</g>
<!-- Node2&#45;&gt;Node3 -->
<g id="edge2_Node000002_Node000003" class="edge">
<title>Node2&#45;&gt;Node3</title>
<g id="a_edge2_Node000002_Node000003"><a xlink:title=" ">
<path fill="none" stroke="#63b8ff" d="M92.75,-122.16C96.4,-113.75 100.35,-104.66 103.53,-97.33"/>
<polygon fill="#63b8ff" stroke="#63b8ff" points="89.59,-120.66 88.82,-131.23 96.01,-123.45 89.59,-120.66"/>
</a>
</g>
</g>
<!-- Node2&#45;&gt;Node4 -->
<g id="edge3_Node000002_Node000004" class="edge">
<title>Node2&#45;&gt;Node4</title>
<g id="a_edge3_Node000002_Node000004"><a xlink:title=" ">
<path fill="none" stroke="#63b8ff" d="M137.19,-129.04C167.56,-119.05 204.72,-106.82 233.22,-97.44"/>
<polygon fill="#63b8ff" stroke="#63b8ff" points="136.18,-125.69 127.77,-132.14 138.37,-132.34 136.18,-125.69"/>
</a>
</g>
</g>
<!-- Node2&#45;&gt;Node5 -->
<g id="edge4_Node000002_Node000005" class="edge">
<title>Node2&#45;&gt;Node5</title>
<g id="a_edge4_Node000002_Node000005"><a xlink:title=" ">
<path fill="none" stroke="#63b8ff" d="M58.76,-124.38C44.09,-107.07 30.36,-83.48 44.86,-66.5 75.94,-30.11 208,-19.93 291.56,-17.17"/>
<polygon fill="#63b8ff" stroke="#63b8ff" points="56.05,-126.6 65.36,-131.66 61.24,-121.9 56.05,-126.6"/>
</a>
</g>
</g>
<!-- Node6&#45;&gt;Node3 -->
<g id="edge6_Node000006_Node000003" class="edge">
<title>Node6&#45;&gt;Node3</title>
<g id="a_edge6_Node000006_Node000003"><a xlink:title=" ">
<path fill="none" stroke="#63b8ff" d="M193.42,-127.29C175.25,-117.61 153.82,-106.18 137.21,-97.33"/>
<polygon fill="#63b8ff" stroke="#63b8ff" points="191.6,-130.29 202.07,-131.9 194.89,-124.11 191.6,-130.29"/>
</a>
</g>
</g>
<!-- Node6&#45;&gt;Node4 -->
<g id="edge7_Node000006_Node000004" class="edge">
<title>Node6&#45;&gt;Node4</title>
<g id="a_edge7_Node000006_Node000004"><a xlink:title=" ">
<path fill="none" stroke="#63b8ff" d="M248.12,-123.57C254.52,-114.78 261.6,-105.07 267.24,-97.33"/>
<polygon fill="#63b8ff" stroke="#63b8ff" points="245.48,-121.25 242.42,-131.39 251.14,-125.37 245.48,-121.25"/>
</a>
</g>
</g>
<!-- Node6&#45;&gt;Node5 -->
<g id="edge8_Node000006_Node000005" class="edge">
<title>Node6&#45;&gt;Node5</title>
<g id="a_edge8_Node000006_Node000005"><a xlink:title=" ">
<path fill="none" stroke="#63b8ff" d="M216.04,-122.88C207.69,-105.7 201.07,-82.92 212.86,-66.5 230.93,-41.33 262.27,-28.6 291.56,-22.23"/>
<polygon fill="#63b8ff" stroke="#63b8ff" points="212.8,-124.24 220.6,-131.41 218.97,-120.94 212.8,-124.24"/>
</a>
</g>
</g>
<!-- Node7&#45;&gt;Node5 -->
<g id="edge15_Node000007_Node000005" class="edge">
<title>Node7&#45;&gt;Node5</title>
<g id="a_edge15_Node000007_Node000005"><a xlink:title=" ">
<path fill="none" stroke="#63b8ff" d="M430.46,-123.24C413.14,-96.22 385.56,-53.2 371.21,-30.83"/>
<polygon fill="#63b8ff" stroke="#63b8ff" points="427.39,-124.93 435.73,-131.46 433.28,-121.15 427.39,-124.93"/>
</a>
</g>
</g>
<!-- Node8 -->
<g id="Node000008" class="node">
<title>Node8</title>
<g id="a_Node000008"><a xlink:href="_passes_2_convert_zhl_to_zml_2_patterns_8h.html" target="_top" xlink:title=" ">
<polygon fill="white" stroke="#666666" points="569.86,-97 427.86,-97 427.86,-66.5 569.86,-66.5 569.86,-97"/>
<text text-anchor="start" x="435.86" y="-83.5" font-family="Helvetica,sans-Serif" font-size="10.00">include/zklang/Passes</text>
<text text-anchor="middle" x="498.86" y="-72.25" font-family="Helvetica,sans-Serif" font-size="10.00">/ConvertZhlToZml/Patterns.h</text>
</a>
</g>
</g>
<!-- Node7&#45;&gt;Node8 -->
<g id="edge10_Node000007_Node000008" class="edge">
<title>Node7&#45;&gt;Node8</title>
<g id="a_edge10_Node000007_Node000008"><a xlink:title=" ">
<path fill="none" stroke="#63b8ff" d="M465.09,-123.85C472.37,-114.98 480.45,-105.15 486.88,-97.33"/>
<polygon fill="#63b8ff" stroke="#63b8ff" points="462.49,-121.5 458.85,-131.44 467.9,-125.94 462.49,-121.5"/>
</a>
</g>
</g>
<!-- Node9 -->
<g id="Node000009" class="node">
<title>Node9</title>
<g id="a_Node000009"><a xlink:href="_convert_zhl_to_zml_2_pass_8cpp.html" target="_top" xlink:title=" ">
<polygon fill="white" stroke="#666666" points="628.74,-30.5 488.99,-30.5 488.99,0 628.74,0 628.74,-30.5"/>
<text text-anchor="start" x="496.99" y="-17" font-family="Helvetica,sans-Serif" font-size="10.00">lib/Passes/ConvertZhlToZml</text>
<text text-anchor="middle" x="558.86" y="-5.75" font-family="Helvetica,sans-Serif" font-size="10.00">/Pass.cpp</text>
</a>
</g>
</g>
<!-- Node7&#45;&gt;Node9 -->
<g id="edge14_Node000007_Node000009" class="edge">
<title>Node7&#45;&gt;Node9</title>
<g id="a_edge14_Node000007_Node000009"><a xlink:title=" ">
<path fill="none" stroke="#63b8ff" d="M512.97,-129.62C541.71,-120.58 570.59,-108.97 578.86,-97 592.74,-76.92 579.58,-48.16 569.03,-30.93"/>
<polygon fill="#63b8ff" stroke="#63b8ff" points="512,-126.25 503.45,-132.51 514.04,-132.95 512,-126.25"/>
</a>
</g>
</g>
<!-- Node7&#45;&gt;Node10 -->
<g id="edge13_Node000007_Node000010" class="edge">
<title>Node7&#45;&gt;Node10</title>
<g id="a_edge13_Node000007_Node000010"><a xlink:title=" ">
<path fill="none" stroke="#63b8ff" d="M513.16,-129.82C560.55,-117.54 622.07,-101.61 659.99,-91.78"/>
<polygon fill="#63b8ff" stroke="#63b8ff" points="512.32,-126.42 503.52,-132.31 514.08,-133.2 512.32,-126.42"/>
</a>
</g>
</g>
<!-- Node8&#45;&gt;Node5 -->
<g id="edge12_Node000008_Node000005" class="edge">
<title>Node8&#45;&gt;Node5</title>
<g id="a_edge12_Node000008_Node000005"><a xlink:title=" ">
<path fill="none" stroke="#63b8ff" d="M457.62,-61.33C436.8,-51.53 411.98,-39.85 392.83,-30.83"/>
<polygon fill="#63b8ff" stroke="#63b8ff" points="455.87,-64.38 466.4,-65.47 458.85,-58.04 455.87,-64.38"/>
</a>
</g>
</g>
<!-- Node8&#45;&gt;Node9 -->
<g id="edge11_Node000008_Node000009" class="edge">
<title>Node8&#45;&gt;Node9</title>
<g id="a_edge11_Node000008_Node000009"><a xlink:title=" ">
<path fill="none" stroke="#63b8ff" d="M520.11,-57.91C528.49,-48.9 537.87,-38.82 545.3,-30.83"/>
<polygon fill="#63b8ff" stroke="#63b8ff" points="517.76,-55.3 513.51,-65.01 522.88,-60.07 517.76,-55.3"/>
</a>
</g>
</g>
</g>
</svg>
