<?xml version="1.0" encoding="UTF-8" standalone="no"?>
<!DOCTYPE svg PUBLIC "-//W3C//DTD SVG 1.1//EN"
 "http://www.w3.org/Graphics/SVG/1.1/DTD/svg11.dtd">
<!-- Generated by graphviz version 12.2.1 (20241206.2353)
 -->
<!-- Title: include/zklang/Dialect/ZHL/Typing/ComponentSlot.h Pages: 1 -->
<svg width="2234pt" height="438pt"
 viewBox="0.00 0.00 2234.00 437.50" xmlns="http://www.w3.org/2000/svg" xmlns:xlink="http://www.w3.org/1999/xlink">
<g id="graph0" class="graph" transform="scale(1 1) rotate(0) translate(4 433.5)">
<title>include/zklang/Dialect/ZHL/Typing/ComponentSlot.h</title>
<!-- Node1 -->
<g id="Node000001" class="node">
<title>Node1</title>
<g id="a_Node000001"><a xlink:title=" ">
<polygon fill="#999999" stroke="#666666" points="1839,-429.5 1691,-429.5 1691,-399 1839,-399 1839,-429.5"/>
<text text-anchor="start" x="1699" y="-416" font-family="Helvetica,sans-Serif" font-size="10.00">include/zklang/Dialect</text>
<text text-anchor="middle" x="1765" y="-404.75" font-family="Helvetica,sans-Serif" font-size="10.00">/ZHL/Typing/ComponentSlot.h</text>
</a>
</g>
</g>
<!-- Node2 -->
<g id="Node000002" class="node">
<title>Node2</title>
<g id="a_Node000002"><a xlink:title=" ">
<polygon fill="#e0e0e0" stroke="#999999" points="1337.25,-24.88 1232.75,-24.88 1232.75,-5.63 1337.25,-5.63 1337.25,-24.88"/>
<text text-anchor="middle" x="1285" y="-11.38" font-family="Helvetica,sans-Serif" font-size="10.00">mlir/Support/LLVM.h</text>
</a>
</g>
</g>
<!-- Node1&#45;&gt;Node2 -->
<g id="edge1_Node000001_Node000002" class="edge">
<title>Node1&#45;&gt;Node2</title>
<g id="a_edge1_Node000001_Node000002"><a xlink:title=" ">
<path fill="none" stroke="#63b8ff" d="M1839.32,-407.55C1969.72,-395.48 2226,-361.66 2226,-282.25 2226,-282.25 2226,-282.25 2226,-147.25 2226,-108.48 2224.58,-89 2193,-66.5 2124.72,-17.85 1544.63,-15.34 1349.07,-15.89"/>
<polygon fill="#63b8ff" stroke="#63b8ff" points="1349.08,-12.39 1339.09,-15.93 1349.1,-19.39 1349.08,-12.39"/>
</a>
</g>
</g>
<!-- Node3 -->
<g id="Node000003" class="node">
<title>Node3</title>
<g id="a_Node000003"><a xlink:href="_frame_slot_8h.html" target="_top" xlink:title=" ">
<polygon fill="white" stroke="#666666" points="183.88,-97 80.12,-97 80.12,-66.5 183.88,-66.5 183.88,-97"/>
<text text-anchor="start" x="88.12" y="-83.5" font-family="Helvetica,sans-Serif" font-size="10.00">zklang/Dialect/ZHL</text>
<text text-anchor="middle" x="132" y="-72.25" font-family="Helvetica,sans-Serif" font-size="10.00">/Typing/FrameSlot.h</text>
</a>
</g>
</g>
<!-- Node1&#45;&gt;Node3 -->
<g id="edge2_Node000001_Node000003" class="edge">
<title>Node1&#45;&gt;Node3</title>
<g id="a_edge2_Node000001_Node000003"><a xlink:title=" ">
<path fill="none" stroke="#63b8ff" d="M1690.57,-411.69C1355.1,-404.16 0,-368.4 0,-282.25 0,-282.25 0,-282.25 0,-213.75 0,-162.33 51.09,-124.18 89.7,-102.7"/>
<polygon fill="#63b8ff" stroke="#63b8ff" points="91.21,-105.86 98.37,-98.06 87.91,-99.69 91.21,-105.86"/>
</a>
</g>
</g>
<!-- Node8 -->
<g id="Node000008" class="node">
<title>Node8</title>
<g id="a_Node000008"><a xlink:href="_type_bindings_8h.html" target="_top" xlink:title=" ">
<polygon fill="white" stroke="#666666" points="1823.62,-363 1706.38,-363 1706.38,-332.5 1823.62,-332.5 1823.62,-363"/>
<text text-anchor="start" x="1714.38" y="-349.5" font-family="Helvetica,sans-Serif" font-size="10.00">zklang/Dialect/ZHL</text>
<text text-anchor="middle" x="1765" y="-338.25" font-family="Helvetica,sans-Serif" font-size="10.00">/Typing/TypeBindings.h</text>
</a>
</g>
</g>
<!-- Node1&#45;&gt;Node8 -->
<g id="edge8_Node000001_Node000008" class="edge">
<title>Node1&#45;&gt;Node8</title>
<g id="a_edge8_Node000001_Node000008"><a xlink:title=" ">
<path fill="none" stroke="#63b8ff" d="M1765,-398.61C1765,-391.52 1765,-382.79 1765,-374.63"/>
<polygon fill="#63b8ff" stroke="#63b8ff" points="1768.5,-374.84 1765,-364.84 1761.5,-374.84 1768.5,-374.84"/>
</a>
</g>
</g>
<!-- Node3&#45;&gt;Node2 -->
<g id="edge7_Node000003_Node000002" class="edge">
<title>Node3&#45;&gt;Node2</title>
<g id="a_edge7_Node000003_Node000002"><a xlink:title=" ">
<path fill="none" stroke="#63b8ff" d="M184.13,-67.91C187.12,-67.38 190.09,-66.9 193,-66.5 294.58,-52.42 1003,-26.3 1221.19,-18.5"/>
<polygon fill="#63b8ff" stroke="#63b8ff" points="1221.04,-22.01 1230.91,-18.16 1220.79,-15.01 1221.04,-22.01"/>
</a>
</g>
</g>
<!-- Node4 -->
<g id="Node000004" class="node">
<title>Node4</title>
<g id="a_Node000004"><a xlink:title=" ">
<polygon fill="#e0e0e0" stroke="#999999" points="866.38,-24.88 747.62,-24.88 747.62,-5.63 866.38,-5.63 866.38,-24.88"/>
<text text-anchor="middle" x="807" y="-11.38" font-family="Helvetica,sans-Serif" font-size="10.00">llvm/ADT/SmallString.h</text>
</a>
</g>
</g>
<!-- Node3&#45;&gt;Node4 -->
<g id="edge3_Node000003_Node000004" class="edge">
<title>Node3&#45;&gt;Node4</title>
<g id="a_edge3_Node000003_Node000004"><a xlink:title=" ">
<path fill="none" stroke="#63b8ff" d="M184.14,-68.03C187.13,-67.47 190.1,-66.95 193,-66.5 295.9,-50.36 597.65,-29.69 736.1,-20.73"/>
<polygon fill="#63b8ff" stroke="#63b8ff" points="736.11,-24.23 745.87,-20.1 735.66,-17.25 736.11,-24.23"/>
</a>
</g>
</g>
<!-- Node5 -->
<g id="Node000005" class="node">
<title>Node5</title>
<g id="a_Node000005"><a xlink:title=" ">
<polygon fill="#e0e0e0" stroke="#999999" points="248.88,-24.88 139.12,-24.88 139.12,-5.63 248.88,-5.63 248.88,-24.88"/>
<text text-anchor="middle" x="194" y="-11.38" font-family="Helvetica,sans-Serif" font-size="10.00">llvm/ADT/ilist_node.h</text>
</a>
</g>
</g>
<!-- Node3&#45;&gt;Node5 -->
<g id="edge4_Node000003_Node000005" class="edge">
<title>Node3&#45;&gt;Node5</title>
<g id="a_edge4_Node000003_Node000005"><a xlink:title=" ">
<path fill="none" stroke="#63b8ff" d="M146.07,-66.11C155.46,-56.34 167.85,-43.45 177.68,-33.23"/>
<polygon fill="#63b8ff" stroke="#63b8ff" points="180.06,-35.8 184.47,-26.16 175.02,-30.95 180.06,-35.8"/>
</a>
</g>
</g>
<!-- Node6 -->
<g id="Node000006" class="node">
<title>Node6</title>
<g id="a_Node000006"><a xlink:title=" ">
<polygon fill="#e0e0e0" stroke="#999999" points="120.75,-30.5 19.25,-30.5 19.25,0 120.75,0 120.75,-30.5"/>
<text text-anchor="start" x="27.25" y="-17" font-family="Helvetica,sans-Serif" font-size="10.00">llvm/ADT/ilist_node</text>
<text text-anchor="middle" x="70" y="-5.75" font-family="Helvetica,sans-Serif" font-size="10.00">_options.h</text>
</a>
</g>
</g>
<!-- Node3&#45;&gt;Node6 -->
<g id="edge5_Node000003_Node000006" class="edge">
<title>Node3&#45;&gt;Node6</title>
<g id="a_edge5_Node000003_Node000006"><a xlink:title=" ">
<path fill="none" stroke="#63b8ff" d="M117.93,-66.11C110.24,-58.11 100.55,-48.03 91.89,-39.03"/>
<polygon fill="#63b8ff" stroke="#63b8ff" points="94.52,-36.7 85.06,-31.92 89.47,-41.55 94.52,-36.7"/>
</a>
</g>
</g>
<!-- Node7 -->
<g id="Node000007" class="node">
<title>Node7</title>
<g id="a_Node000007"><a xlink:title=" ">
<polygon fill="#e0e0e0" stroke="#999999" points="520.25,-24.88 421.75,-24.88 421.75,-5.63 520.25,-5.63 520.25,-24.88"/>
<text text-anchor="middle" x="471" y="-11.38" font-family="Helvetica,sans-Serif" font-size="10.00">mlir/IR/Attributes.h</text>
</a>
</g>
</g>
<!-- Node3&#45;&gt;Node7 -->
<g id="edge6_Node000003_Node000007" class="edge">
<title>Node3&#45;&gt;Node7</title>
<g id="a_edge6_Node000003_Node000007"><a xlink:title=" ">
<path fill="none" stroke="#63b8ff" d="M184.2,-68.37C187.18,-67.72 190.12,-67.1 193,-66.5 267.47,-51.08 353.73,-35.9 410.16,-26.33"/>
<polygon fill="#63b8ff" stroke="#63b8ff" points="410.62,-29.81 419.9,-24.69 409.45,-22.9 410.62,-29.81"/>
</a>
</g>
</g>
<!-- Node8&#45;&gt;Node2 -->
<g id="edge18_Node000008_Node000002" class="edge">
<title>Node8&#45;&gt;Node2</title>
<g id="a_edge18_Node000008_Node000002"><a xlink:title=" ">
<path fill="none" stroke="#63b8ff" d="M1823.98,-344.47C1914.52,-340.02 2082.56,-327.72 2133,-296.5 2169.92,-273.65 2188,-259.17 2188,-215.75 2188,-215.75 2188,-215.75 2188,-147.25 2188,-110.38 2197.24,-90.2 2169,-66.5 2137.65,-40.19 1546.46,-22.87 1348.77,-17.8"/>
<polygon fill="#63b8ff" stroke="#63b8ff" points="1349.03,-14.31 1338.95,-17.55 1348.85,-21.3 1349.03,-14.31"/>
</a>
</g>
</g>
<!-- Node8&#45;&gt;Node3 -->
<g id="edge49_Node000008_Node000003" class="edge">
<title>Node8&#45;&gt;Node3</title>
<g id="a_edge49_Node000008_Node000003"><a xlink:title=" ">
<path fill="none" stroke="#63b8ff" d="M1706.03,-346.85C1528.7,-346.6 984.92,-341.91 537,-296.5 353.77,-277.92 281.61,-331.59 128,-230 88.82,-204.08 68.98,-176.79 86,-133 90.03,-122.64 97.3,-113.11 104.89,-105.2"/>
<polygon fill="#63b8ff" stroke="#63b8ff" points="107.24,-107.8 112.02,-98.34 102.39,-102.75 107.24,-107.8"/>
</a>
</g>
</g>
<!-- Node9 -->
<g id="Node000009" class="node">
<title>Node9</title>
<g id="a_Node000009"><a xlink:title=" ">
<polygon fill="#e0e0e0" stroke="#999999" points="1230.12,-91.38 1181.88,-91.38 1181.88,-72.12 1230.12,-72.12 1230.12,-91.38"/>
<text text-anchor="middle" x="1206" y="-77.88" font-family="Helvetica,sans-Serif" font-size="10.00">cassert</text>
</a>
</g>
</g>
<!-- Node8&#45;&gt;Node9 -->
<g id="edge9_Node000008_Node000009" class="edge">
<title>Node8&#45;&gt;Node9</title>
<g id="a_edge9_Node000008_Node000009"><a xlink:title=" ">
<path fill="none" stroke="#63b8ff" d="M1706.01,-347.61C1595.2,-348.07 1361.4,-343.29 1298,-296.5 1233.34,-248.78 1213.62,-146.19 1208.04,-102.79"/>
<polygon fill="#63b8ff" stroke="#63b8ff" points="1211.54,-102.6 1206.92,-93.07 1204.59,-103.4 1211.54,-102.6"/>
</a>
</g>
</g>
<!-- Node10 -->
<g id="Node000010" class="node">
<title>Node10</title>
<g id="a_Node000010"><a xlink:title=" ">
<polygon fill="#e0e0e0" stroke="#999999" points="534.62,-157.88 489.38,-157.88 489.38,-138.62 534.62,-138.62 534.62,-157.88"/>
<text text-anchor="middle" x="512" y="-144.38" font-family="Helvetica,sans-Serif" font-size="10.00">cstdint</text>
</a>
</g>
</g>
<!-- Node8&#45;&gt;Node10 -->
<g id="edge10_Node000008_Node000010" class="edge">
<title>Node8&#45;&gt;Node10</title>
<g id="a_edge10_Node000008_Node000010"><a xlink:title=" ">
<path fill="none" stroke="#63b8ff" d="M1706.29,-345.53C1580.12,-342.31 1273.98,-331.29 1020,-296.5 876.08,-276.79 838.8,-272.84 700,-230 641.25,-211.86 576,-181.34 539.9,-163.47"/>
<polygon fill="#63b8ff" stroke="#63b8ff" points="541.53,-160.37 531.02,-159.03 538.4,-166.63 541.53,-160.37"/>
</a>
</g>
</g>
<!-- Node11 -->
<g id="Node000011" class="node">
<title>Node11</title>
<g id="a_Node000011"><a xlink:title=" ">
<polygon fill="#e0e0e0" stroke="#999999" points="2101.12,-290.88 2058.88,-290.88 2058.88,-271.62 2101.12,-271.62 2101.12,-290.88"/>
<text text-anchor="middle" x="2080" y="-277.38" font-family="Helvetica,sans-Serif" font-size="10.00">deque</text>
</a>
</g>
</g>
<!-- Node8&#45;&gt;Node11 -->
<g id="edge11_Node000008_Node000011" class="edge">
<title>Node8&#45;&gt;Node11</title>
<g id="a_edge11_Node000008_Node000011"><a xlink:title=" ">
<path fill="none" stroke="#63b8ff" d="M1824,-339.81C1881.24,-332.23 1970.17,-318.19 2045,-296.5 2046.38,-296.1 2047.78,-295.66 2049.19,-295.2"/>
<polygon fill="#63b8ff" stroke="#63b8ff" points="2050.29,-298.52 2058.48,-291.79 2047.88,-291.95 2050.29,-298.52"/>
</a>
</g>
</g>
<!-- Node12 -->
<g id="Node000012" class="node">
<title>Node12</title>
<g id="a_Node000012"><a xlink:title=" ">
<polygon fill="#e0e0e0" stroke="#999999" points="1556.38,-91.38 1443.62,-91.38 1443.62,-72.12 1556.38,-72.12 1556.38,-91.38"/>
<text text-anchor="middle" x="1500" y="-77.88" font-family="Helvetica,sans-Serif" font-size="10.00">llvm/ADT/StringMap.h</text>
</a>
</g>
</g>
<!-- Node8&#45;&gt;Node12 -->
<g id="edge12_Node000008_Node000012" class="edge">
<title>Node8&#45;&gt;Node12</title>
<g id="a_edge12_Node000008_Node000012"><a xlink:title=" ">
<path fill="none" stroke="#63b8ff" d="M1759.26,-332.06C1743.64,-293.89 1696.74,-190.54 1626,-133 1604.14,-115.22 1575.18,-103.08 1550.54,-95.19"/>
<polygon fill="#63b8ff" stroke="#63b8ff" points="1551.6,-91.86 1541.01,-92.3 1549.56,-98.56 1551.6,-91.86"/>
</a>
</g>
</g>
<!-- Node13 -->
<g id="Node000013" class="node">
<title>Node13</title>
<g id="a_Node000013"><a xlink:title=" ">
<polygon fill="#e0e0e0" stroke="#999999" points="1683.88,-91.38 1574.12,-91.38 1574.12,-72.12 1683.88,-72.12 1683.88,-91.38"/>
<text text-anchor="middle" x="1629" y="-77.88" font-family="Helvetica,sans-Serif" font-size="10.00">llvm/ADT/StringRef.h</text>
</a>
</g>
</g>
<!-- Node8&#45;&gt;Node13 -->
<g id="edge13_Node000008_Node000013" class="edge">
<title>Node8&#45;&gt;Node13</title>
<g id="a_edge13_Node000008_Node000013"><a xlink:title=" ">
<path fill="none" stroke="#63b8ff" d="M1771.25,-332.05C1781.95,-304.48 1800.65,-243.79 1779,-199.5 1754.46,-149.31 1696.78,-114.45 1660.52,-96.59"/>
<polygon fill="#63b8ff" stroke="#63b8ff" points="1662.37,-93.59 1651.83,-92.45 1659.36,-99.91 1662.37,-93.59"/>
</a>
</g>
</g>
<!-- Node14 -->
<g id="Node000014" class="node">
<title>Node14</title>
<g id="a_Node000014"><a xlink:title=" ">
<polygon fill="#e0e0e0" stroke="#999999" points="1924.25,-91.38 1813.75,-91.38 1813.75,-72.12 1924.25,-72.12 1924.25,-91.38"/>
<text text-anchor="middle" x="1869" y="-77.88" font-family="Helvetica,sans-Serif" font-size="10.00">llvm/Support/Debug.h</text>
</a>
</g>
</g>
<!-- Node8&#45;&gt;Node14 -->
<g id="edge14_Node000008_Node000014" class="edge">
<title>Node8&#45;&gt;Node14</title>
<g id="a_edge14_Node000008_Node000014"><a xlink:title=" ">
<path fill="none" stroke="#63b8ff" d="M1823.96,-333.63C1843.61,-326.15 1863.42,-314.52 1875,-296.5 1914.29,-235.36 1889.98,-142.75 1876.37,-102.54"/>
<polygon fill="#63b8ff" stroke="#63b8ff" points="1879.72,-101.51 1873.08,-93.26 1873.12,-103.85 1879.72,-101.51"/>
</a>
</g>
</g>
<!-- Node15 -->
<g id="Node000015" class="node">
<title>Node15</title>
<g id="a_Node000015"><a xlink:title=" ">
<polygon fill="#e0e0e0" stroke="#999999" points="2033.88,-91.38 1942.12,-91.38 1942.12,-72.12 2033.88,-72.12 2033.88,-91.38"/>
<text text-anchor="middle" x="1988" y="-77.88" font-family="Helvetica,sans-Serif" font-size="10.00">mlir/IR/Builders.h</text>
</a>
</g>
</g>
<!-- Node8&#45;&gt;Node15 -->
<g id="edge15_Node000008_Node000015" class="edge">
<title>Node8&#45;&gt;Node15</title>
<g id="a_edge15_Node000008_Node000015"><a xlink:title=" ">
<path fill="none" stroke="#63b8ff" d="M1824.04,-334.88C1848.79,-327.38 1876.33,-315.4 1896,-296.5 1953.44,-241.33 1976.97,-144.37 1984.75,-102.7"/>
<polygon fill="#63b8ff" stroke="#63b8ff" points="1988.19,-103.39 1986.46,-92.94 1981.29,-102.19 1988.19,-103.39"/>
</a>
</g>
</g>
<!-- Node16 -->
<g id="Node000016" class="node">
<title>Node16</title>
<g id="a_Node000016"><a xlink:title=" ">
<polygon fill="#e0e0e0" stroke="#999999" points="2160.12,-91.38 2051.88,-91.38 2051.88,-72.12 2160.12,-72.12 2160.12,-91.38"/>
<text text-anchor="middle" x="2106" y="-77.88" font-family="Helvetica,sans-Serif" font-size="10.00">mlir/IR/Diagnostics.h</text>
</a>
</g>
</g>
<!-- Node8&#45;&gt;Node16 -->
<g id="edge16_Node000008_Node000016" class="edge">
<title>Node8&#45;&gt;Node16</title>
<g id="a_edge16_Node000008_Node000016"><a xlink:title=" ">
<path fill="none" stroke="#63b8ff" d="M1823.96,-347.04C1912.6,-346.09 2073.72,-338.45 2110,-296.5 2158.07,-240.92 2129.39,-143.46 2113.93,-102.14"/>
<polygon fill="#63b8ff" stroke="#63b8ff" points="2117.19,-100.88 2110.29,-92.85 2110.68,-103.43 2117.19,-100.88"/>
</a>
</g>
</g>
<!-- Node17 -->
<g id="Node000017" class="node">
<title>Node17</title>
<g id="a_Node000017"><a xlink:title=" ">
<polygon fill="#e0e0e0" stroke="#999999" points="1795.62,-91.38 1702.38,-91.38 1702.38,-72.12 1795.62,-72.12 1795.62,-91.38"/>
<text text-anchor="middle" x="1749" y="-77.88" font-family="Helvetica,sans-Serif" font-size="10.00">mlir/IR/Location.h</text>
</a>
</g>
</g>
<!-- Node8&#45;&gt;Node17 -->
<g id="edge17_Node000008_Node000017" class="edge">
<title>Node8&#45;&gt;Node17</title>
<g id="a_edge17_Node000008_Node000017"><a xlink:title=" ">
<path fill="none" stroke="#63b8ff" d="M1811.6,-332.06C1828.32,-324.29 1845.4,-312.86 1855,-296.5 1876.82,-259.32 1870.53,-239.72 1855,-199.5 1838.21,-156.02 1796.87,-118.74 1771.06,-98.64"/>
<polygon fill="#63b8ff" stroke="#63b8ff" points="1773.31,-95.95 1763.22,-92.71 1769.09,-101.53 1773.31,-95.95"/>
</a>
</g>
</g>
<!-- Node18 -->
<g id="Node000018" class="node">
<title>Node18</title>
<g id="a_Node000018"><a xlink:title=" ">
<polygon fill="#e0e0e0" stroke="#999999" points="1387.5,-91.38 1248.5,-91.38 1248.5,-72.12 1387.5,-72.12 1387.5,-91.38"/>
<text text-anchor="middle" x="1318" y="-77.88" font-family="Helvetica,sans-Serif" font-size="10.00">mlir/Support/LogicalResult.h</text>
</a>
</g>
</g>
<!-- Node8&#45;&gt;Node18 -->
<g id="edge19_Node000008_Node000018" class="edge">
<title>Node8&#45;&gt;Node18</title>
<g id="a_edge19_Node000008_Node000018"><a xlink:title=" ">
<path fill="none" stroke="#63b8ff" d="M1706.06,-346.57C1601.38,-345.2 1388.34,-337.3 1328,-296.5 1266.11,-254.65 1295.28,-146.66 1310.64,-102.26"/>
<polygon fill="#63b8ff" stroke="#63b8ff" points="1313.9,-103.54 1314.01,-92.95 1307.32,-101.16 1313.9,-103.54"/>
</a>
</g>
</g>
<!-- Node19 -->
<g id="Node000019" class="node">
<title>Node19</title>
<g id="a_Node000019"><a xlink:href="_expr_8h.html" target="_top" xlink:title=" ">
<polygon fill="white" stroke="#666666" points="962,-230 862,-230 862,-199.5 962,-199.5 962,-230"/>
<text text-anchor="start" x="870" y="-216.5" font-family="Helvetica,sans-Serif" font-size="10.00">zklang/Dialect/ZHL</text>
<text text-anchor="middle" x="912" y="-205.25" font-family="Helvetica,sans-Serif" font-size="10.00">/Typing/Expr.h</text>
</a>
</g>
</g>
<!-- Node8&#45;&gt;Node19 -->
<g id="edge20_Node000008_Node000019" class="edge">
<title>Node8&#45;&gt;Node19</title>
<g id="a_edge20_Node000008_Node000019"><a xlink:title=" ">
<path fill="none" stroke="#63b8ff" d="M1706.07,-344.46C1567.95,-338.74 1226.57,-322.37 1115,-296.5 1055.64,-282.74 990.85,-254.45 950.81,-235.29"/>
<polygon fill="#63b8ff" stroke="#63b8ff" points="952.58,-232.25 942.05,-231.04 949.52,-238.55 952.58,-232.25"/>
</a>
</g>
</g>
<!-- Node27 -->
<g id="Node000027" class="node">
<title>Node27</title>
<g id="a_Node000027"><a xlink:href="_frame_8h.html" target="_top" xlink:title=" ">
<polygon fill="white" stroke="#666666" points="440,-230 340,-230 340,-199.5 440,-199.5 440,-230"/>
<text text-anchor="start" x="348" y="-216.5" font-family="Helvetica,sans-Serif" font-size="10.00">zklang/Dialect/ZHL</text>
<text text-anchor="middle" x="390" y="-205.25" font-family="Helvetica,sans-Serif" font-size="10.00">/Typing/Frame.h</text>
</a>
</g>
</g>
<!-- Node8&#45;&gt;Node27 -->
<g id="edge42_Node000008_Node000027" class="edge">
<title>Node8&#45;&gt;Node27</title>
<g id="a_edge42_Node000008_Node000027"><a xlink:title=" ">
<path fill="none" stroke="#63b8ff" d="M1706.21,-345.95C1508.05,-342.98 865.67,-330.84 662,-296.5 582.25,-283.05 492.91,-253.64 439.09,-234.27"/>
<polygon fill="#63b8ff" stroke="#63b8ff" points="440.5,-231.06 429.91,-230.93 438.11,-237.64 440.5,-231.06"/>
</a>
</g>
</g>
<!-- Node30 -->
<g id="Node000030" class="node">
<title>Node30</title>
<g id="a_Node000030"><a xlink:href="_type_binding_8h.html" target="_top" xlink:title=" ">
<polygon fill="white" stroke="#666666" points="1449,-296.5 1337,-296.5 1337,-266 1449,-266 1449,-296.5"/>
<text text-anchor="start" x="1345" y="-283" font-family="Helvetica,sans-Serif" font-size="10.00">zklang/Dialect/ZHL</text>
<text text-anchor="middle" x="1393" y="-271.75" font-family="Helvetica,sans-Serif" font-size="10.00">/Typing/TypeBinding.h</text>
</a>
</g>
</g>
<!-- Node8&#45;&gt;Node30 -->
<g id="edge50_Node000008_Node000030" class="edge">
<title>Node8&#45;&gt;Node30</title>
<g id="a_edge50_Node000008_Node000030"><a xlink:title=" ">
<path fill="none" stroke="#63b8ff" d="M1706.06,-336.53C1639.3,-324.95 1530.71,-306.13 1460.58,-293.97"/>
<polygon fill="#63b8ff" stroke="#63b8ff" points="1461.18,-290.52 1450.72,-292.26 1459.98,-297.42 1461.18,-290.52"/>
</a>
</g>
</g>
<!-- Node19&#45;&gt;Node2 -->
<g id="edge30_Node000019_Node000002" class="edge">
<title>Node19&#45;&gt;Node2</title>
<g id="a_edge30_Node000019_Node000002"><a xlink:title=" ">
<path fill="none" stroke="#63b8ff" d="M962.22,-211.68C1002.88,-207.52 1059.37,-195.8 1097,-163.5 1132.78,-132.78 1105.29,-98.42 1140,-66.5 1162.42,-45.88 1193.73,-33.66 1221.52,-26.44"/>
<polygon fill="#63b8ff" stroke="#63b8ff" points="1222,-29.93 1230.91,-24.18 1220.36,-23.12 1222,-29.93"/>
</a>
</g>
</g>
<!-- Node19&#45;&gt;Node4 -->
<g id="edge24_Node000019_Node000004" class="edge">
<title>Node19&#45;&gt;Node4</title>
<g id="a_edge24_Node000019_Node000004"><a xlink:title=" ">
<path fill="none" stroke="#63b8ff" d="M904.28,-199.23C885.57,-164.04 837.83,-74.24 816.99,-35.03"/>
<polygon fill="#63b8ff" stroke="#63b8ff" points="820.15,-33.53 812.36,-26.34 813.97,-36.81 820.15,-33.53"/>
</a>
</g>
</g>
<!-- Node19&#45;&gt;Node7 -->
<g id="edge29_Node000019_Node000007" class="edge">
<title>Node19&#45;&gt;Node7</title>
<g id="a_edge29_Node000019_Node000007"><a xlink:title=" ">
<path fill="none" stroke="#63b8ff" d="M861.51,-206.7C783.9,-195.62 642.05,-174.28 621,-163.5 588.95,-147.08 517.16,-68.46 485.96,-33.3"/>
<polygon fill="#63b8ff" stroke="#63b8ff" points="488.87,-31.31 479.63,-26.13 483.62,-35.94 488.87,-31.31"/>
</a>
</g>
</g>
<!-- Node19&#45;&gt;Node10 -->
<g id="edge22_Node000019_Node000010" class="edge">
<title>Node19&#45;&gt;Node10</title>
<g id="a_edge22_Node000019_Node000010"><a xlink:title=" ">
<path fill="none" stroke="#63b8ff" d="M861.71,-208.24C776.43,-198.65 607.06,-178.49 549,-163.5 547.25,-163.05 545.47,-162.54 543.69,-161.99"/>
<polygon fill="#63b8ff" stroke="#63b8ff" points="544.88,-158.7 534.29,-158.74 542.59,-165.32 544.88,-158.7"/>
</a>
</g>
</g>
<!-- Node19&#45;&gt;Node18 -->
<g id="edge31_Node000019_Node000018" class="edge">
<title>Node19&#45;&gt;Node18</title>
<g id="a_edge31_Node000019_Node000018"><a xlink:title=" ">
<path fill="none" stroke="#63b8ff" d="M962.48,-204.78C1007.12,-196.22 1073.7,-181.91 1130,-163.5 1188.29,-144.43 1253.46,-114.36 1289.72,-96.8"/>
<polygon fill="#63b8ff" stroke="#63b8ff" points="1291.2,-99.97 1298.65,-92.44 1288.13,-93.68 1291.2,-99.97"/>
</a>
</g>
</g>
<!-- Node20 -->
<g id="Node000020" class="node">
<title>Node20</title>
<g id="a_Node000020"><a xlink:title=" ">
<polygon fill="#e0e0e0" stroke="#999999" points="962.12,-157.88 913.88,-157.88 913.88,-138.62 962.12,-138.62 962.12,-157.88"/>
<text text-anchor="middle" x="938" y="-144.38" font-family="Helvetica,sans-Serif" font-size="10.00">cstddef</text>
</a>
</g>
</g>
<!-- Node19&#45;&gt;Node20 -->
<g id="edge21_Node000019_Node000020" class="edge">
<title>Node19&#45;&gt;Node20</title>
<g id="a_edge21_Node000019_Node000020"><a xlink:title=" ">
<path fill="none" stroke="#63b8ff" d="M917.9,-199.11C921.56,-190.03 926.31,-178.26 930.27,-168.43"/>
<polygon fill="#63b8ff" stroke="#63b8ff" points="933.39,-170.06 933.88,-159.48 926.89,-167.44 933.39,-170.06"/>
</a>
</g>
</g>
<!-- Node21 -->
<g id="Node000021" class="node">
<title>Node21</title>
<g id="a_Node000021"><a xlink:title=" ">
<polygon fill="#e0e0e0" stroke="#999999" points="1087.75,-157.88 980.25,-157.88 980.25,-138.62 1087.75,-138.62 1087.75,-157.88"/>
<text text-anchor="middle" x="1034" y="-144.38" font-family="Helvetica,sans-Serif" font-size="10.00">llvm/ADT/ArrayRef.h</text>
</a>
</g>
</g>
<!-- Node19&#45;&gt;Node21 -->
<g id="edge23_Node000019_Node000021" class="edge">
<title>Node19&#45;&gt;Node21</title>
<g id="a_edge23_Node000019_Node000021"><a xlink:title=" ">
<path fill="none" stroke="#63b8ff" d="M939.68,-199.11C959.83,-188.46 986.96,-174.12 1006.95,-163.55"/>
<polygon fill="#63b8ff" stroke="#63b8ff" points="1008.42,-166.74 1015.62,-158.97 1005.14,-160.55 1008.42,-166.74"/>
</a>
</g>
</g>
<!-- Node22 -->
<g id="Node000022" class="node">
<title>Node22</title>
<g id="a_Node000022"><a xlink:title=" ">
<polygon fill="#e0e0e0" stroke="#999999" points="738.5,-157.88 629.5,-157.88 629.5,-138.62 738.5,-138.62 738.5,-157.88"/>
<text text-anchor="middle" x="684" y="-144.38" font-family="Helvetica,sans-Serif" font-size="10.00">llvm/ADT/StringSet.h</text>
</a>
</g>
</g>
<!-- Node19&#45;&gt;Node22 -->
<g id="edge25_Node000019_Node000022" class="edge">
<title>Node19&#45;&gt;Node22</title>
<g id="a_edge25_Node000019_Node000022"><a xlink:title=" ">
<path fill="none" stroke="#63b8ff" d="M861.68,-199.52C821.22,-188.07 765,-172.16 726.71,-161.33"/>
<polygon fill="#63b8ff" stroke="#63b8ff" points="727.95,-158.05 717.38,-158.69 726.05,-164.78 727.95,-158.05"/>
</a>
</g>
</g>
<!-- Node23 -->
<g id="Node000023" class="node">
<title>Node23</title>
<g id="a_Node000023"><a xlink:title=" ">
<polygon fill="#e0e0e0" stroke="#999999" points="319.62,-91.38 202.38,-91.38 202.38,-72.12 319.62,-72.12 319.62,-91.38"/>
<text text-anchor="middle" x="261" y="-77.88" font-family="Helvetica,sans-Serif" font-size="10.00">llvm/ADT/simple_ilist.h</text>
</a>
</g>
</g>
<!-- Node19&#45;&gt;Node23 -->
<g id="edge26_Node000019_Node000023" class="edge">
<title>Node19&#45;&gt;Node23</title>
<g id="a_edge26_Node000019_Node000023"><a xlink:title=" ">
<path fill="none" stroke="#63b8ff" d="M861.53,-208.81C783.07,-200.65 635.81,-183.29 587,-163.5 565.29,-154.7 565.61,-142.05 544,-133 475.17,-104.19 390.19,-91.9 331.42,-86.65"/>
<polygon fill="#63b8ff" stroke="#63b8ff" points="331.79,-83.17 321.53,-85.82 331.2,-90.14 331.79,-83.17"/>
</a>
</g>
</g>
<!-- Node24 -->
<g id="Node000024" class="node">
<title>Node24</title>
<g id="a_Node000024"><a xlink:title=" ">
<polygon fill="#e0e0e0" stroke="#999999" points="471.62,-157.88 420.38,-157.88 420.38,-138.62 471.62,-138.62 471.62,-157.88"/>
<text text-anchor="middle" x="446" y="-144.38" font-family="Helvetica,sans-Serif" font-size="10.00">memory</text>
</a>
</g>
</g>
<!-- Node19&#45;&gt;Node24 -->
<g id="edge27_Node000019_Node000024" class="edge">
<title>Node19&#45;&gt;Node24</title>
<g id="a_edge27_Node000019_Node000024"><a xlink:title=" ">
<path fill="none" stroke="#63b8ff" d="M861.59,-212.46C780.11,-209.36 614.94,-198.87 480,-163.5 478.61,-163.13 477.2,-162.72 475.78,-162.28"/>
<polygon fill="#63b8ff" stroke="#63b8ff" points="477.11,-159.04 466.51,-158.88 474.69,-165.61 477.11,-159.04"/>
</a>
</g>
</g>
<!-- Node25 -->
<g id="Node000025" class="node">
<title>Node25</title>
<g id="a_Node000025"><a xlink:title=" ">
<polygon fill="#e0e0e0" stroke="#999999" points="857.75,-157.88 756.25,-157.88 756.25,-138.62 857.75,-138.62 857.75,-157.88"/>
<text text-anchor="middle" x="807" y="-144.38" font-family="Helvetica,sans-Serif" font-size="10.00">mlir/IR/AffineExpr.h</text>
</a>
</g>
</g>
<!-- Node19&#45;&gt;Node25 -->
<g id="edge28_Node000019_Node000025" class="edge">
<title>Node19&#45;&gt;Node25</title>
<g id="a_edge28_Node000019_Node000025"><a xlink:title=" ">
<path fill="none" stroke="#63b8ff" d="M888.17,-199.11C871.08,-188.61 848.13,-174.52 831,-163.99"/>
<polygon fill="#63b8ff" stroke="#63b8ff" points="833.31,-161.3 822.96,-159.05 829.65,-167.27 833.31,-161.3"/>
</a>
</g>
</g>
<!-- Node26 -->
<g id="Node000026" class="node">
<title>Node26</title>
<g id="a_Node000026"><a xlink:href="_params_8h.html" target="_top" xlink:title=" ">
<polygon fill="white" stroke="#666666" points="1559,-163.5 1459,-163.5 1459,-133 1559,-133 1559,-163.5"/>
<text text-anchor="start" x="1467" y="-150" font-family="Helvetica,sans-Serif" font-size="10.00">zklang/Dialect/ZHL</text>
<text text-anchor="middle" x="1509" y="-138.75" font-family="Helvetica,sans-Serif" font-size="10.00">/Typing/Params.h</text>
</a>
</g>
</g>
<!-- Node19&#45;&gt;Node26 -->
<g id="edge32_Node000019_Node000026" class="edge">
<title>Node19&#45;&gt;Node26</title>
<g id="a_edge32_Node000019_Node000026"><a xlink:title=" ">
<path fill="none" stroke="#63b8ff" d="M962.39,-208.31C1071.34,-196.53 1328.59,-168.74 1447.16,-155.93"/>
<polygon fill="#63b8ff" stroke="#63b8ff" points="1447.47,-159.42 1457.03,-154.86 1446.72,-152.46 1447.47,-159.42"/>
</a>
</g>
</g>
<!-- Node26&#45;&gt;Node2 -->
<g id="edge40_Node000026_Node000002" class="edge">
<title>Node26&#45;&gt;Node2</title>
<g id="a_edge40_Node000026_Node000002"><a xlink:title=" ">
<path fill="none" stroke="#63b8ff" d="M1486.33,-132.53C1471.52,-122.75 1451.86,-109.46 1435,-97 1417.58,-84.13 1415.47,-77.8 1397,-66.5 1372.63,-51.59 1343.07,-38.52 1320.44,-29.44"/>
<polygon fill="#63b8ff" stroke="#63b8ff" points="1321.93,-26.27 1311.34,-25.87 1319.37,-32.79 1321.93,-26.27"/>
</a>
</g>
</g>
<!-- Node26&#45;&gt;Node9 -->
<g id="edge33_Node000026_Node000009" class="edge">
<title>Node26&#45;&gt;Node9</title>
<g id="a_edge33_Node000026_Node000009"><a xlink:title=" ">
<path fill="none" stroke="#63b8ff" d="M1458.67,-141.1C1404.05,-133.68 1314.64,-119.34 1240,-97 1238.65,-96.6 1237.29,-96.16 1235.92,-95.69"/>
<polygon fill="#63b8ff" stroke="#63b8ff" points="1237.52,-92.56 1226.93,-92.3 1235.05,-99.11 1237.52,-92.56"/>
</a>
</g>
</g>
<!-- Node26&#45;&gt;Node12 -->
<g id="edge34_Node000026_Node000012" class="edge">
<title>Node26&#45;&gt;Node12</title>
<g id="a_edge34_Node000026_Node000012"><a xlink:title=" ">
<path fill="none" stroke="#63b8ff" d="M1506.96,-132.61C1505.73,-123.83 1504.15,-112.52 1502.81,-102.9"/>
<polygon fill="#63b8ff" stroke="#63b8ff" points="1506.29,-102.49 1501.44,-93.07 1499.36,-103.46 1506.29,-102.49"/>
</a>
</g>
</g>
<!-- Node26&#45;&gt;Node13 -->
<g id="edge35_Node000026_Node000013" class="edge">
<title>Node26&#45;&gt;Node13</title>
<g id="a_edge35_Node000026_Node000013"><a xlink:title=" ">
<path fill="none" stroke="#63b8ff" d="M1536.23,-132.61C1555.95,-122.01 1582.48,-107.75 1602.12,-97.2"/>
<polygon fill="#63b8ff" stroke="#63b8ff" points="1603.75,-100.29 1610.9,-92.48 1600.44,-94.13 1603.75,-100.29"/>
</a>
</g>
</g>
<!-- Node26&#45;&gt;Node14 -->
<g id="edge36_Node000026_Node000014" class="edge">
<title>Node26&#45;&gt;Node14</title>
<g id="a_edge36_Node000026_Node000014"><a xlink:title=" ">
<path fill="none" stroke="#63b8ff" d="M1559.47,-134.76C1562.35,-134.14 1565.21,-133.55 1568,-133 1672.55,-112.47 1700.27,-116.59 1805,-97 1809.59,-96.14 1814.36,-95.19 1819.13,-94.2"/>
<polygon fill="#63b8ff" stroke="#63b8ff" points="1819.64,-97.67 1828.69,-92.16 1818.18,-90.82 1819.64,-97.67"/>
</a>
</g>
</g>
<!-- Node26&#45;&gt;Node15 -->
<g id="edge37_Node000026_Node000015" class="edge">
<title>Node26&#45;&gt;Node15</title>
<g id="a_edge37_Node000026_Node000015"><a xlink:title=" ">
<path fill="none" stroke="#63b8ff" d="M1559.44,-134.58C1562.32,-134.01 1565.19,-133.47 1568,-133 1728.72,-105.8 1772.51,-125.53 1933,-97 1937.08,-96.28 1941.29,-95.41 1945.5,-94.46"/>
<polygon fill="#63b8ff" stroke="#63b8ff" points="1946.11,-97.91 1955.01,-92.17 1944.47,-91.1 1946.11,-97.91"/>
</a>
</g>
</g>
<!-- Node26&#45;&gt;Node16 -->
<g id="edge38_Node000026_Node000016" class="edge">
<title>Node26&#45;&gt;Node16</title>
<g id="a_edge38_Node000026_Node000016"><a xlink:title=" ">
<path fill="none" stroke="#63b8ff" d="M1559.42,-134.51C1562.32,-133.95 1565.19,-133.44 1568,-133 1777.14,-100.04 1833.63,-128.44 2043,-97 2048.27,-96.21 2053.75,-95.22 2059.18,-94.14"/>
<polygon fill="#63b8ff" stroke="#63b8ff" points="2059.65,-97.61 2068.71,-92.12 2058.2,-90.77 2059.65,-97.61"/>
</a>
</g>
</g>
<!-- Node26&#45;&gt;Node17 -->
<g id="edge39_Node000026_Node000017" class="edge">
<title>Node26&#45;&gt;Node17</title>
<g id="a_edge39_Node000026_Node000017"><a xlink:title=" ">
<path fill="none" stroke="#63b8ff" d="M1559.31,-133.73C1602.16,-122.21 1663.14,-105.83 1704.29,-94.77"/>
<polygon fill="#63b8ff" stroke="#63b8ff" points="1705.13,-98.16 1713.88,-92.19 1703.31,-91.4 1705.13,-98.16"/>
</a>
</g>
</g>
<!-- Node26&#45;&gt;Node18 -->
<g id="edge41_Node000026_Node000018" class="edge">
<title>Node26&#45;&gt;Node18</title>
<g id="a_edge41_Node000026_Node000018"><a xlink:title=" ">
<path fill="none" stroke="#63b8ff" d="M1465.66,-132.61C1432.48,-121.41 1387.18,-106.11 1355.54,-95.43"/>
<polygon fill="#63b8ff" stroke="#63b8ff" points="1356.99,-92.22 1346.39,-92.34 1354.75,-98.85 1356.99,-92.22"/>
</a>
</g>
</g>
<!-- Node27&#45;&gt;Node23 -->
<g id="edge43_Node000027_Node000023" class="edge">
<title>Node27&#45;&gt;Node23</title>
<g id="a_edge43_Node000027_Node000023"><a xlink:title=" ">
<path fill="none" stroke="#63b8ff" d="M339.6,-209.01C309.68,-203.31 273.98,-190.82 255,-163.5 242.62,-145.68 247.35,-119.99 253.06,-102.4"/>
<polygon fill="#63b8ff" stroke="#63b8ff" points="256.3,-103.73 256.45,-93.13 249.73,-101.32 256.3,-103.73"/>
</a>
</g>
</g>
<!-- Node27&#45;&gt;Node24 -->
<g id="edge45_Node000027_Node000024" class="edge">
<title>Node27&#45;&gt;Node24</title>
<g id="a_edge45_Node000027_Node000024"><a xlink:title=" ">
<path fill="none" stroke="#63b8ff" d="M402.71,-199.11C411.11,-189.44 422.16,-176.71 430.99,-166.54"/>
<polygon fill="#63b8ff" stroke="#63b8ff" points="433.43,-169.06 437.35,-159.22 428.15,-164.47 433.43,-169.06"/>
</a>
</g>
</g>
<!-- Node28 -->
<g id="Node000028" class="node">
<title>Node28</title>
<g id="a_Node000028"><a xlink:title=" ">
<polygon fill="#e0e0e0" stroke="#999999" points="402.12,-157.88 263.88,-157.88 263.88,-138.62 402.12,-138.62 402.12,-157.88"/>
<text text-anchor="middle" x="333" y="-144.38" font-family="Helvetica,sans-Serif" font-size="10.00">llvm/Support/raw_ostream.h</text>
</a>
</g>
</g>
<!-- Node27&#45;&gt;Node28 -->
<g id="edge44_Node000027_Node000028" class="edge">
<title>Node27&#45;&gt;Node28</title>
<g id="a_edge44_Node000027_Node000028"><a xlink:title=" ">
<path fill="none" stroke="#63b8ff" d="M377.07,-199.11C368.52,-189.44 357.27,-176.71 348.28,-166.54"/>
<polygon fill="#63b8ff" stroke="#63b8ff" points="351.04,-164.38 341.8,-159.21 345.8,-169.02 351.04,-164.38"/>
</a>
</g>
</g>
<!-- Node29 -->
<g id="Node000029" class="node">
<title>Node29</title>
<g id="a_Node000029"><a xlink:href="_frame_info_8h.html" target="_top" xlink:title=" ">
<polygon fill="white" stroke="#666666" points="207.5,-163.5 104.5,-163.5 104.5,-133 207.5,-133 207.5,-163.5"/>
<text text-anchor="start" x="112.5" y="-150" font-family="Helvetica,sans-Serif" font-size="10.00">zklang/Dialect/ZHL</text>
<text text-anchor="middle" x="156" y="-138.75" font-family="Helvetica,sans-Serif" font-size="10.00">/Typing/FrameInfo.h</text>
</a>
</g>
</g>
<!-- Node27&#45;&gt;Node29 -->
<g id="edge46_Node000027_Node000029" class="edge">
<title>Node27&#45;&gt;Node29</title>
<g id="a_edge46_Node000027_Node000029"><a xlink:title=" ">
<path fill="none" stroke="#63b8ff" d="M339.51,-199.83C304.05,-190.06 256.38,-176.92 218.52,-166.48"/>
<polygon fill="#63b8ff" stroke="#63b8ff" points="219.64,-163.16 209.07,-163.88 217.78,-169.91 219.64,-163.16"/>
</a>
</g>
</g>
<!-- Node29&#45;&gt;Node3 -->
<g id="edge48_Node000029_Node000003" class="edge">
<title>Node29&#45;&gt;Node3</title>
<g id="a_edge48_Node000029_Node000003"><a xlink:title=" ">
<path fill="none" stroke="#63b8ff" d="M150.55,-132.61C147.85,-125.36 144.51,-116.38 141.42,-108.06"/>
<polygon fill="#63b8ff" stroke="#63b8ff" points="144.72,-106.9 137.95,-98.75 138.16,-109.34 144.72,-106.9"/>
</a>
</g>
</g>
<!-- Node29&#45;&gt;Node23 -->
<g id="edge47_Node000029_Node000023" class="edge">
<title>Node29&#45;&gt;Node23</title>
<g id="a_edge47_Node000029_Node000023"><a xlink:title=" ">
<path fill="none" stroke="#63b8ff" d="M179.83,-132.61C196.92,-122.11 219.87,-108.02 237,-97.49"/>
<polygon fill="#63b8ff" stroke="#63b8ff" points="238.35,-100.77 245.04,-92.55 234.69,-94.8 238.35,-100.77"/>
</a>
</g>
</g>
<!-- Node30&#45;&gt;Node2 -->
<g id="edge61_Node000030_Node000002" class="edge">
<title>Node30&#45;&gt;Node2</title>
<g id="a_edge61_Node000030_Node000002"><a xlink:title=" ">
<path fill="none" stroke="#63b8ff" d="M1336.65,-265.51C1313.47,-257.57 1287.35,-246.04 1267,-230 1210.15,-185.19 1194.92,-165.99 1173,-97 1168.9,-84.08 1165.63,-77.88 1173,-66.5 1184.88,-48.15 1205.22,-36.44 1225.33,-28.99"/>
<polygon fill="#63b8ff" stroke="#63b8ff" points="1226.3,-32.36 1234.67,-25.86 1224.07,-25.72 1226.3,-32.36"/>
</a>
</g>
</g>
<!-- Node30&#45;&gt;Node3 -->
<g id="edge65_Node000030_Node000003" class="edge">
<title>Node30&#45;&gt;Node3</title>
<g id="a_edge65_Node000030_Node000003"><a xlink:title=" ">
<path fill="none" stroke="#63b8ff" d="M1336.74,-279.28C1146.38,-275.74 527.41,-262 331,-230 223.87,-212.54 161.48,-250.07 96,-163.5 82.68,-145.88 95.71,-122.55 109.68,-105.5"/>
<polygon fill="#63b8ff" stroke="#63b8ff" points="111.98,-108.19 115.93,-98.36 106.71,-103.57 111.98,-108.19"/>
</a>
</g>
</g>
<!-- Node30&#45;&gt;Node9 -->
<g id="edge51_Node000030_Node000009" class="edge">
<title>Node30&#45;&gt;Node9</title>
<g id="a_edge51_Node000030_Node000009"><a xlink:title=" ">
<path fill="none" stroke="#63b8ff" d="M1348.55,-265.5C1329.33,-257.4 1307.7,-245.74 1292,-230 1258.02,-195.95 1269.28,-173.92 1244,-133 1237,-121.67 1228.07,-109.76 1220.62,-100.37"/>
<polygon fill="#63b8ff" stroke="#63b8ff" points="1223.51,-98.38 1214.5,-92.82 1218.07,-102.79 1223.51,-98.38"/>
</a>
</g>
</g>
<!-- Node30&#45;&gt;Node10 -->
<g id="edge52_Node000030_Node000010" class="edge">
<title>Node30&#45;&gt;Node10</title>
<g id="a_edge52_Node000030_Node000010"><a xlink:title=" ">
<path fill="none" stroke="#63b8ff" d="M1336.77,-277.18C1238.3,-271.33 1028.46,-256.71 853,-230 817.85,-224.65 573.52,-175.36 540,-163.5 539.5,-163.32 538.99,-163.14 538.49,-162.95"/>
<polygon fill="#63b8ff" stroke="#63b8ff" points="539.91,-159.75 529.35,-158.89 537.07,-166.15 539.91,-159.75"/>
</a>
</g>
</g>
<!-- Node30&#45;&gt;Node12 -->
<g id="edge54_Node000030_Node000012" class="edge">
<title>Node30&#45;&gt;Node12</title>
<g id="a_edge54_Node000030_Node000012"><a xlink:title=" ">
<path fill="none" stroke="#63b8ff" d="M1398.56,-265.67C1412.51,-229.05 1448.08,-135.95 1450,-133 1458.21,-120.36 1470.01,-108.31 1480.09,-99.18"/>
<polygon fill="#63b8ff" stroke="#63b8ff" points="1482.32,-101.88 1487.56,-92.68 1477.72,-96.6 1482.32,-101.88"/>
</a>
</g>
</g>
<!-- Node30&#45;&gt;Node13 -->
<g id="edge55_Node000030_Node000013" class="edge">
<title>Node30&#45;&gt;Node13</title>
<g id="a_edge55_Node000030_Node000013"><a xlink:title=" ">
<path fill="none" stroke="#63b8ff" d="M1449.48,-278.25C1522.19,-274.35 1642.47,-262.97 1670,-230 1701.78,-191.93 1665.32,-130.98 1643.31,-100.83"/>
<polygon fill="#63b8ff" stroke="#63b8ff" points="1646.26,-98.93 1637.43,-93.08 1640.68,-103.16 1646.26,-98.93"/>
</a>
</g>
</g>
<!-- Node30&#45;&gt;Node14 -->
<g id="edge56_Node000030_Node000014" class="edge">
<title>Node30&#45;&gt;Node14</title>
<g id="a_edge56_Node000030_Node000014"><a xlink:title=" ">
<path fill="none" stroke="#63b8ff" d="M1449.25,-275.66C1529.19,-268.44 1671.07,-252.85 1717,-230 1779.63,-198.84 1833.18,-132.58 1856.51,-100.67"/>
<polygon fill="#63b8ff" stroke="#63b8ff" points="1859.14,-103 1862.11,-92.83 1853.45,-98.93 1859.14,-103"/>
</a>
</g>
</g>
<!-- Node30&#45;&gt;Node15 -->
<g id="edge58_Node000030_Node000015" class="edge">
<title>Node30&#45;&gt;Node15</title>
<g id="a_edge58_Node000030_Node000015"><a xlink:title=" ">
<path fill="none" stroke="#63b8ff" d="M1449.32,-279.62C1521.71,-277.2 1650.27,-267.41 1753,-230 1841,-197.96 1930.94,-129.59 1969.07,-98.61"/>
<polygon fill="#63b8ff" stroke="#63b8ff" points="1970.95,-101.6 1976.45,-92.54 1966.5,-96.19 1970.95,-101.6"/>
</a>
</g>
</g>
<!-- Node30&#45;&gt;Node16 -->
<g id="edge59_Node000030_Node000016" class="edge">
<title>Node30&#45;&gt;Node16</title>
<g id="a_edge59_Node000030_Node000016"><a xlink:title=" ">
<path fill="none" stroke="#63b8ff" d="M1449.32,-279C1528.79,-275.97 1677.68,-265.57 1799,-230 1910.48,-197.32 2031.72,-128.04 2082.04,-97.61"/>
<polygon fill="#63b8ff" stroke="#63b8ff" points="2083.66,-100.72 2090.38,-92.52 2080.02,-94.74 2083.66,-100.72"/>
</a>
</g>
</g>
<!-- Node30&#45;&gt;Node17 -->
<g id="edge60_Node000030_Node000017" class="edge">
<title>Node30&#45;&gt;Node17</title>
<g id="a_edge60_Node000030_Node000017"><a xlink:title=" ">
<path fill="none" stroke="#63b8ff" d="M1449.46,-277.19C1525.06,-272.03 1653.87,-259.14 1690,-230 1729.74,-197.95 1742.87,-135.1 1747.08,-102.86"/>
<polygon fill="#63b8ff" stroke="#63b8ff" points="1750.52,-103.62 1748.16,-93.29 1743.56,-102.84 1750.52,-103.62"/>
</a>
</g>
</g>
<!-- Node30&#45;&gt;Node18 -->
<g id="edge62_Node000030_Node000018" class="edge">
<title>Node30&#45;&gt;Node18</title>
<g id="a_edge62_Node000030_Node000018"><a xlink:title=" ">
<path fill="none" stroke="#63b8ff" d="M1344.4,-265.7C1327.29,-257.98 1309.87,-246.55 1300,-230 1293.06,-218.36 1296.6,-212.62 1300,-199.5 1304.59,-181.78 1315.41,-181.22 1320,-163.5 1323.4,-150.38 1320.27,-146.55 1320,-133 1319.8,-123.15 1319.39,-112.22 1318.99,-103.08"/>
<polygon fill="#63b8ff" stroke="#63b8ff" points="1322.49,-102.98 1318.53,-93.15 1315.5,-103.31 1322.49,-102.98"/>
</a>
</g>
</g>
<!-- Node30&#45;&gt;Node19 -->
<g id="edge63_Node000030_Node000019" class="edge">
<title>Node30&#45;&gt;Node19</title>
<g id="a_edge63_Node000030_Node000019"><a xlink:title=" ">
<path fill="none" stroke="#63b8ff" d="M1336.88,-272.72C1246.12,-260.55 1067.82,-236.64 973.64,-224.02"/>
<polygon fill="#63b8ff" stroke="#63b8ff" points="974.19,-220.56 963.81,-222.7 973.26,-227.5 974.19,-220.56"/>
</a>
</g>
</g>
<!-- Node30&#45;&gt;Node24 -->
<g id="edge57_Node000030_Node000024" class="edge">
<title>Node30&#45;&gt;Node24</title>
<g id="a_edge57_Node000030_Node000024"><a xlink:title=" ">
<path fill="none" stroke="#63b8ff" d="M1336.77,-280.36C1218.09,-279.69 933.67,-273.24 700,-230 599.56,-211.42 576.12,-198.07 480,-163.5 479.05,-163.16 478.09,-162.81 477.12,-162.44"/>
<polygon fill="#63b8ff" stroke="#63b8ff" points="478.72,-159.31 468.13,-158.89 476.15,-165.82 478.72,-159.31"/>
</a>
</g>
</g>
<!-- Node30&#45;&gt;Node26 -->
<g id="edge66_Node000030_Node000026" class="edge">
<title>Node30&#45;&gt;Node26</title>
<g id="a_edge66_Node000030_Node000026"><a xlink:title=" ">
<path fill="none" stroke="#63b8ff" d="M1409.01,-265.82C1419.57,-256.04 1433.53,-242.65 1445,-230 1461.77,-211.5 1479.28,-189.16 1491.74,-172.68"/>
<polygon fill="#63b8ff" stroke="#63b8ff" points="1494.35,-175.03 1497.54,-164.93 1488.74,-170.84 1494.35,-175.03"/>
</a>
</g>
</g>
<!-- Node30&#45;&gt;Node27 -->
<g id="edge64_Node000030_Node000027" class="edge">
<title>Node30&#45;&gt;Node27</title>
<g id="a_edge64_Node000030_Node000027"><a xlink:title=" ">
<path fill="none" stroke="#63b8ff" d="M1336.6,-278.67C1194.76,-274.36 811.81,-260.61 494,-230 480.19,-228.67 465.39,-226.87 451.42,-225"/>
<polygon fill="#63b8ff" stroke="#63b8ff" points="452.3,-221.59 441.92,-223.69 451.35,-228.52 452.3,-221.59"/>
</a>
</g>
</g>
<!-- Node31 -->
<g id="Node000031" class="node">
<title>Node31</title>
<g id="a_Node000031"><a xlink:title=" ">
<polygon fill="#e0e0e0" stroke="#999999" points="1403,-224.38 1309,-224.38 1309,-205.12 1403,-205.12 1403,-224.38"/>
<text text-anchor="middle" x="1356" y="-210.88" font-family="Helvetica,sans-Serif" font-size="10.00">llvm/ADT/Bitset.h</text>
</a>
</g>
</g>
<!-- Node30&#45;&gt;Node31 -->
<g id="edge53_Node000030_Node000031" class="edge">
<title>Node30&#45;&gt;Node31</title>
<g id="a_edge53_Node000030_Node000031"><a xlink:title=" ">
<path fill="none" stroke="#63b8ff" d="M1384.6,-265.61C1379.28,-256.33 1372.35,-244.25 1366.64,-234.3"/>
<polygon fill="#63b8ff" stroke="#63b8ff" points="1369.83,-232.82 1361.81,-225.89 1363.75,-236.3 1369.83,-232.82"/>
</a>
</g>
</g>
<!-- Node32 -->
<g id="Node000032" class="node">
<title>Node32</title>
<g id="a_Node000032"><a xlink:href="_copyable_pointer_8h.html" target="_top" xlink:title=" ">
<polygon fill="white" stroke="#666666" points="1660.88,-224.38 1497.12,-224.38 1497.12,-205.12 1660.88,-205.12 1660.88,-224.38"/>
<text text-anchor="middle" x="1579" y="-210.88" font-family="Helvetica,sans-Serif" font-size="10.00">zklang/Support/CopyablePointer.h</text>
</a>
</g>
</g>
<!-- Node30&#45;&gt;Node32 -->
<g id="edge67_Node000030_Node000032" class="edge">
<title>Node30&#45;&gt;Node32</title>
<g id="a_edge67_Node000030_Node000032"><a xlink:title=" ">
<path fill="none" stroke="#63b8ff" d="M1435.21,-265.61C1467.38,-254.46 1511.24,-239.25 1542.04,-228.57"/>
<polygon fill="#63b8ff" stroke="#63b8ff" points="1543.02,-231.93 1551.32,-225.35 1540.72,-225.32 1543.02,-231.93"/>
</a>
</g>
</g>
<!-- Node33 -->
<g id="Node000033" class="node">
<title>Node33</title>
<g id="a_Node000033"><a xlink:title=" ">
<polygon fill="#e0e0e0" stroke="#999999" points="1616.62,-157.88 1577.38,-157.88 1577.38,-138.62 1616.62,-138.62 1616.62,-157.88"/>
<text text-anchor="middle" x="1597" y="-144.38" font-family="Helvetica,sans-Serif" font-size="10.00">utility</text>
</a>
</g>
</g>
<!-- Node32&#45;&gt;Node33 -->
<g id="edge68_Node000032_Node000033" class="edge">
<title>Node32&#45;&gt;Node33</title>
<g id="a_edge68_Node000032_Node000033"><a xlink:title=" ">
<path fill="none" stroke="#63b8ff" d="M1581.5,-204.78C1584.08,-195.54 1588.19,-180.83 1591.52,-168.88"/>
<polygon fill="#63b8ff" stroke="#63b8ff" points="1594.79,-170.17 1594.11,-159.6 1588.05,-168.29 1594.79,-170.17"/>
</a>
</g>
</g>
</g>
</svg>
