<?xml version="1.0" encoding="UTF-8" standalone="no"?>
<!DOCTYPE svg PUBLIC "-//W3C//DTD SVG 1.1//EN"
 "http://www.w3.org/Graphics/SVG/1.1/DTD/svg11.dtd">
<!-- Generated by graphviz version 12.2.1 (20241206.2353)
 -->
<!-- Title: include/zklang/Dialect/ZML/ExtVal/Conversion.h Pages: 1 -->
<svg width="713pt" height="172pt"
 viewBox="0.00 0.00 712.50 171.50" xmlns="http://www.w3.org/2000/svg" xmlns:xlink="http://www.w3.org/1999/xlink">
<g id="graph0" class="graph" transform="scale(1 1) rotate(0) translate(4 167.5)">
<title>include/zklang/Dialect/ZML/ExtVal/Conversion.h</title>
<!-- Node1 -->
<g id="Node000001" class="node">
<title>Node1</title>
<g id="a_Node000001"><a xlink:title=" ">
<polygon fill="#999999" stroke="#666666" points="453.12,-163.5 322.38,-163.5 322.38,-133 453.12,-133 453.12,-163.5"/>
<text text-anchor="start" x="330.38" y="-150" font-family="Helvetica,sans-Serif" font-size="10.00">include/zklang/Dialect</text>
<text text-anchor="middle" x="387.75" y="-138.75" font-family="Helvetica,sans-Serif" font-size="10.00">/ZML/ExtVal/Conversion.h</text>
</a>
</g>
</g>
<!-- Node2 -->
<g id="Node000002" class="node">
<title>Node2</title>
<g id="a_Node000002"><a xlink:href="_dialect_2_z_m_l_2_ext_val_2_baby_bear_8h.html" target="_top" xlink:title=" ">
<polygon fill="white" stroke="#666666" points="146.38,-97 23.12,-97 23.12,-66.5 146.38,-66.5 146.38,-97"/>
<text text-anchor="start" x="31.12" y="-83.5" font-family="Helvetica,sans-Serif" font-size="10.00">include/zklang/Dialect</text>
<text text-anchor="middle" x="84.75" y="-72.25" font-family="Helvetica,sans-Serif" font-size="10.00">/ZML/ExtVal/BabyBear.h</text>
</a>
</g>
</g>
<!-- Node1&#45;&gt;Node2 -->
<g id="edge1_Node000001_Node000002" class="edge">
<title>Node1&#45;&gt;Node2</title>
<g id="a_edge1_Node000001_Node000002"><a xlink:title=" ">
<path fill="none" stroke="#63b8ff" d="M311.06,-130.93C260.19,-120.1 194.3,-106.07 146.75,-95.95"/>
<polygon fill="#63b8ff" stroke="#63b8ff" points="310.01,-134.28 320.52,-132.94 311.47,-127.43 310.01,-134.28"/>
</a>
</g>
</g>
<!-- Node4 -->
<g id="Node000004" class="node">
<title>Node4</title>
<g id="a_Node000004"><a xlink:href="_convert_zml_to_llzk_2_pass_8cpp.html" target="_top" xlink:title=" ">
<polygon fill="white" stroke="#666666" points="275.88,-30.5 131.62,-30.5 131.62,0 275.88,0 275.88,-30.5"/>
<text text-anchor="start" x="139.62" y="-17" font-family="Helvetica,sans-Serif" font-size="10.00">lib/Passes/ConvertZmlToLlzk</text>
<text text-anchor="middle" x="203.75" y="-5.75" font-family="Helvetica,sans-Serif" font-size="10.00">/Pass.cpp</text>
</a>
</g>
</g>
<!-- Node1&#45;&gt;Node4 -->
<g id="edge12_Node000001_Node000004" class="edge">
<title>Node1&#45;&gt;Node4</title>
<g id="a_edge12_Node000001_Node000004"><a xlink:title=" ">
<path fill="none" stroke="#63b8ff" d="M310.68,-137.03C263.07,-128.96 208.36,-115.88 193.75,-97 178.97,-77.9 188.39,-48.29 196.28,-30.73"/>
<polygon fill="#63b8ff" stroke="#63b8ff" points="310.04,-140.47 320.47,-138.63 311.17,-133.57 310.04,-140.47"/>
</a>
</g>
</g>
<!-- Node5 -->
<g id="Node000005" class="node">
<title>Node5</title>
<g id="a_Node000005"><a xlink:href="_dialect_2_z_m_l_2_ext_val_2_patterns_8h.html" target="_top" xlink:title=" ">
<polygon fill="white" stroke="#666666" points="534.75,-97 416.75,-97 416.75,-66.5 534.75,-66.5 534.75,-97"/>
<text text-anchor="start" x="424.75" y="-83.5" font-family="Helvetica,sans-Serif" font-size="10.00">include/zklang/Dialect</text>
<text text-anchor="middle" x="475.75" y="-72.25" font-family="Helvetica,sans-Serif" font-size="10.00">/ZML/ExtVal/Patterns.h</text>
</a>
</g>
</g>
<!-- Node1&#45;&gt;Node5 -->
<g id="edge4_Node000001_Node000005" class="edge">
<title>Node1&#45;&gt;Node5</title>
<g id="a_edge4_Node000001_Node000005"><a xlink:title=" ">
<path fill="none" stroke="#63b8ff" d="M416.65,-126.07C429.49,-116.66 444.29,-105.81 455.86,-97.33"/>
<polygon fill="#63b8ff" stroke="#63b8ff" points="414.94,-122.98 408.94,-131.72 419.07,-128.63 414.94,-122.98"/>
</a>
</g>
</g>
<!-- Node6 -->
<g id="Node000006" class="node">
<title>Node6</title>
<g id="a_Node000006"><a xlink:href="_dialect_2_z_m_l_2_ext_val_2_patterns_8cpp.html" target="_top" xlink:title=" ">
<polygon fill="white" stroke="#666666" points="594.5,-30.5 481,-30.5 481,0 594.5,0 594.5,-30.5"/>
<text text-anchor="start" x="489" y="-17" font-family="Helvetica,sans-Serif" font-size="10.00">lib/Dialect/ZML/ExtVal</text>
<text text-anchor="middle" x="537.75" y="-5.75" font-family="Helvetica,sans-Serif" font-size="10.00">/Patterns.cpp</text>
</a>
</g>
</g>
<!-- Node1&#45;&gt;Node6 -->
<g id="edge11_Node000001_Node000006" class="edge">
<title>Node1&#45;&gt;Node6</title>
<g id="a_edge11_Node000001_Node000006"><a xlink:title=" ">
<path fill="none" stroke="#63b8ff" d="M464.51,-141.46C494.21,-135.02 525.4,-122.19 543.75,-97 557.82,-77.68 550.56,-48.41 544.09,-30.93"/>
<polygon fill="#63b8ff" stroke="#63b8ff" points="463.88,-138.02 454.72,-143.34 465.2,-144.89 463.88,-138.02"/>
</a>
</g>
</g>
<!-- Node7 -->
<g id="Node000007" class="node">
<title>Node7</title>
<g id="a_Node000007"><a xlink:href="_l_l_z_k_type_converter_8h.html" target="_top" xlink:title=" ">
<polygon fill="white" stroke="#666666" points="398.75,-97 202.75,-97 202.75,-66.5 398.75,-66.5 398.75,-97"/>
<text text-anchor="start" x="210.75" y="-83.5" font-family="Helvetica,sans-Serif" font-size="10.00">include/zklang/Passes</text>
<text text-anchor="middle" x="300.75" y="-72.25" font-family="Helvetica,sans-Serif" font-size="10.00">/ConvertZmlToLlzk/LLZKTypeConverter.h</text>
</a>
</g>
</g>
<!-- Node1&#45;&gt;Node7 -->
<g id="edge7_Node000001_Node000007" class="edge">
<title>Node1&#45;&gt;Node7</title>
<g id="a_edge7_Node000001_Node000007"><a xlink:title=" ">
<path fill="none" stroke="#63b8ff" d="M358.81,-125.79C346.2,-116.44 331.75,-105.73 320.41,-97.33"/>
<polygon fill="#63b8ff" stroke="#63b8ff" points="356.67,-128.57 366.79,-131.71 360.84,-122.95 356.67,-128.57"/>
</a>
</g>
</g>
<!-- Node9 -->
<g id="Node000009" class="node">
<title>Node9</title>
<g id="a_Node000009"><a xlink:href="_conversion_8cpp.html" target="_top" xlink:title=" ">
<polygon fill="white" stroke="#666666" points="704.5,-97 591,-97 591,-66.5 704.5,-66.5 704.5,-97"/>
<text text-anchor="start" x="599" y="-83.5" font-family="Helvetica,sans-Serif" font-size="10.00">lib/Dialect/ZML/ExtVal</text>
<text text-anchor="middle" x="647.75" y="-72.25" font-family="Helvetica,sans-Serif" font-size="10.00">/Conversion.cpp</text>
</a>
</g>
</g>
<!-- Node1&#45;&gt;Node9 -->
<g id="edge10_Node000001_Node000009" class="edge">
<title>Node1&#45;&gt;Node9</title>
<g id="a_edge10_Node000001_Node000009"><a xlink:title=" ">
<path fill="none" stroke="#63b8ff" d="M458.25,-129.76C499.89,-119.43 551.91,-106.52 590.91,-96.85"/>
<polygon fill="#63b8ff" stroke="#63b8ff" points="457.41,-126.36 448.54,-132.17 459.09,-133.16 457.41,-126.36"/>
</a>
</g>
</g>
<!-- Node3 -->
<g id="Node000003" class="node">
<title>Node3</title>
<g id="a_Node000003"><a xlink:href="_baby_bear_8cpp.html" target="_top" xlink:title=" ">
<polygon fill="white" stroke="#666666" points="113.5,-30.5 0,-30.5 0,0 113.5,0 113.5,-30.5"/>
<text text-anchor="start" x="8" y="-17" font-family="Helvetica,sans-Serif" font-size="10.00">lib/Dialect/ZML/ExtVal</text>
<text text-anchor="middle" x="56.75" y="-5.75" font-family="Helvetica,sans-Serif" font-size="10.00">/BabyBear.cpp</text>
</a>
</g>
</g>
<!-- Node2&#45;&gt;Node3 -->
<g id="edge2_Node000002_Node000003" class="edge">
<title>Node2&#45;&gt;Node3</title>
<g id="a_edge2_Node000002_Node000003"><a xlink:title=" ">
<path fill="none" stroke="#63b8ff" d="M73.86,-55.66C70.21,-47.25 66.26,-38.16 63.08,-30.83"/>
<polygon fill="#63b8ff" stroke="#63b8ff" points="70.6,-56.95 77.79,-64.73 77.02,-54.16 70.6,-56.95"/>
</a>
</g>
</g>
<!-- Node2&#45;&gt;Node4 -->
<g id="edge3_Node000002_Node000004" class="edge">
<title>Node2&#45;&gt;Node4</title>
<g id="a_edge3_Node000002_Node000004"><a xlink:title=" ">
<path fill="none" stroke="#63b8ff" d="M121.82,-60.66C139.64,-51 160.59,-39.64 176.85,-30.83"/>
<polygon fill="#63b8ff" stroke="#63b8ff" points="120.21,-57.55 113.08,-65.39 123.54,-63.7 120.21,-57.55"/>
</a>
</g>
</g>
<!-- Node5&#45;&gt;Node4 -->
<g id="edge6_Node000005_Node000004" class="edge">
<title>Node5&#45;&gt;Node4</title>
<g id="a_edge6_Node000005_Node000004"><a xlink:title=" ">
<path fill="none" stroke="#63b8ff" d="M405.4,-64.07C362.2,-53.82 307.38,-40.83 265.81,-30.97"/>
<polygon fill="#63b8ff" stroke="#63b8ff" points="404.38,-67.42 414.92,-66.33 406,-60.61 404.38,-67.42"/>
</a>
</g>
</g>
<!-- Node5&#45;&gt;Node6 -->
<g id="edge5_Node000005_Node000006" class="edge">
<title>Node5&#45;&gt;Node6</title>
<g id="a_edge5_Node000005_Node000006"><a xlink:title=" ">
<path fill="none" stroke="#63b8ff" d="M497.71,-57.91C506.37,-48.9 516.06,-38.82 523.74,-30.83"/>
<polygon fill="#63b8ff" stroke="#63b8ff" points="495.27,-55.39 490.87,-65.02 500.32,-60.24 495.27,-55.39"/>
</a>
</g>
</g>
<!-- Node7&#45;&gt;Node4 -->
<g id="edge9_Node000007_Node000004" class="edge">
<title>Node7&#45;&gt;Node4</title>
<g id="a_edge9_Node000007_Node000004"><a xlink:title=" ">
<path fill="none" stroke="#63b8ff" d="M269.31,-59.84C255.06,-50.37 238.56,-39.39 225.67,-30.83"/>
<polygon fill="#63b8ff" stroke="#63b8ff" points="267.21,-62.65 277.48,-65.28 271.09,-56.82 267.21,-62.65"/>
</a>
</g>
</g>
<!-- Node8 -->
<g id="Node000008" class="node">
<title>Node8</title>
<g id="a_Node000008"><a xlink:href="_l_l_z_k_type_converter_8cpp.html" target="_top" xlink:title=" ">
<polygon fill="white" stroke="#666666" points="437.88,-30.5 293.62,-30.5 293.62,0 437.88,0 437.88,-30.5"/>
<text text-anchor="start" x="301.62" y="-17" font-family="Helvetica,sans-Serif" font-size="10.00">lib/Passes/ConvertZmlToLlzk</text>
<text text-anchor="middle" x="365.75" y="-5.75" font-family="Helvetica,sans-Serif" font-size="10.00">/LLZKTypeConverter.cpp</text>
</a>
</g>
</g>
<!-- Node7&#45;&gt;Node8 -->
<g id="edge8_Node000007_Node000008" class="edge">
<title>Node7&#45;&gt;Node8</title>
<g id="a_edge8_Node000007_Node000008"><a xlink:title=" ">
<path fill="none" stroke="#63b8ff" d="M323.49,-58.19C332.64,-49.11 342.92,-38.9 351.06,-30.83"/>
<polygon fill="#63b8ff" stroke="#63b8ff" points="321.21,-55.52 316.57,-65.05 326.14,-60.49 321.21,-55.52"/>
</a>
</g>
</g>
</g>
</svg>
