<?xml version="1.0" encoding="UTF-8" standalone="no"?>
<!DOCTYPE svg PUBLIC "-//W3C//DTD SVG 1.1//EN"
 "http://www.w3.org/Graphics/SVG/1.1/DTD/svg11.dtd">
<!-- Generated by graphviz version 12.2.1 (20241206.2353)
 -->
<!-- Title: include/zklang/Passes/ConvertZhlToZml/Pass.h Pages: 1 -->
<svg width="2357pt" height="360pt"
 viewBox="0.00 0.00 2357.00 359.75" xmlns="http://www.w3.org/2000/svg" xmlns:xlink="http://www.w3.org/1999/xlink">
<g id="graph0" class="graph" transform="scale(1 1) rotate(0) translate(4 355.75)">
<title>include/zklang/Passes/ConvertZhlToZml/Pass.h</title>
<!-- Node1 -->
<g id="Node000001" class="node">
<title>Node1</title>
<g id="a_Node000001"><a xlink:title=" ">
<polygon fill="#999999" stroke="#666666" points="498,-351.75 370.25,-351.75 370.25,-321.25 498,-321.25 498,-351.75"/>
<text text-anchor="start" x="378.25" y="-338.25" font-family="Helvetica,sans-Serif" font-size="10.00">include/zklang/Passes</text>
<text text-anchor="middle" x="434.12" y="-327" font-family="Helvetica,sans-Serif" font-size="10.00">/ConvertZhlToZml/Pass.h</text>
</a>
</g>
</g>
<!-- Node2 -->
<g id="Node000002" class="node">
<title>Node2</title>
<g id="a_Node000002"><a xlink:title=" ">
<polygon fill="#e0e0e0" stroke="#999999" points="48.25,-285.25 0,-285.25 0,-266 48.25,-266 48.25,-285.25"/>
<text text-anchor="middle" x="24.12" y="-271.75" font-family="Helvetica,sans-Serif" font-size="10.00">cassert</text>
</a>
</g>
</g>
<!-- Node1&#45;&gt;Node2 -->
<g id="edge1_Node000001_Node000002" class="edge">
<title>Node1&#45;&gt;Node2</title>
<g id="a_edge1_Node000001_Node000002"><a xlink:title=" ">
<path fill="none" stroke="#63b8ff" d="M370.03,-329.39C297.05,-321.89 174.12,-307.6 59.61,-285.53"/>
<polygon fill="#63b8ff" stroke="#63b8ff" points="60.53,-282.14 50.04,-283.66 59.18,-289.01 60.53,-282.14"/>
</a>
</g>
</g>
<!-- Node3 -->
<g id="Node000003" class="node">
<title>Node3</title>
<g id="a_Node000003"><a xlink:title=" ">
<polygon fill="#e0e0e0" stroke="#999999" points="182,-285.25 66.25,-285.25 66.25,-266 182,-266 182,-285.25"/>
<text text-anchor="middle" x="124.12" y="-271.75" font-family="Helvetica,sans-Serif" font-size="10.00">llvm/Support/Casting.h</text>
</a>
</g>
</g>
<!-- Node1&#45;&gt;Node3 -->
<g id="edge2_Node000001_Node000003" class="edge">
<title>Node1&#45;&gt;Node3</title>
<g id="a_edge2_Node000001_Node000003"><a xlink:title=" ">
<path fill="none" stroke="#63b8ff" d="M369.89,-323.3C314.92,-312.86 236.44,-297.96 183.06,-287.82"/>
<polygon fill="#63b8ff" stroke="#63b8ff" points="184.03,-284.44 173.55,-286.01 182.72,-291.32 184.03,-284.44"/>
</a>
</g>
</g>
<!-- Node4 -->
<g id="Node000004" class="node">
<title>Node4</title>
<g id="a_Node000004"><a xlink:title=" ">
<polygon fill="#e0e0e0" stroke="#999999" points="310.38,-285.25 199.88,-285.25 199.88,-266 310.38,-266 310.38,-285.25"/>
<text text-anchor="middle" x="255.12" y="-271.75" font-family="Helvetica,sans-Serif" font-size="10.00">llvm/Support/Debug.h</text>
</a>
</g>
</g>
<!-- Node1&#45;&gt;Node4 -->
<g id="edge3_Node000001_Node000004" class="edge">
<title>Node1&#45;&gt;Node4</title>
<g id="a_edge3_Node000001_Node000004"><a xlink:title=" ">
<path fill="none" stroke="#63b8ff" d="M389.42,-320.8C359.89,-311.08 321.6,-298.49 293.46,-289.23"/>
<polygon fill="#63b8ff" stroke="#63b8ff" points="294.87,-286.01 284.28,-286.21 292.68,-292.66 294.87,-286.01"/>
</a>
</g>
</g>
<!-- Node5 -->
<g id="Node000005" class="node">
<title>Node5</title>
<g id="a_Node000005"><a xlink:title=" ">
<polygon fill="#e0e0e0" stroke="#999999" points="353,-30.5 249.25,-30.5 249.25,0 353,0 353,-30.5"/>
<text text-anchor="start" x="257.25" y="-17" font-family="Helvetica,sans-Serif" font-size="10.00">mlir/Dialect/Func/IR</text>
<text text-anchor="middle" x="301.12" y="-5.75" font-family="Helvetica,sans-Serif" font-size="10.00">/FuncOps.h</text>
</a>
</g>
</g>
<!-- Node1&#45;&gt;Node5 -->
<g id="edge4_Node000001_Node000005" class="edge">
<title>Node1&#45;&gt;Node5</title>
<g id="a_edge4_Node000001_Node000005"><a xlink:title=" ">
<path fill="none" stroke="#63b8ff" d="M409.42,-320.8C368.75,-294.97 289.12,-237.14 258.12,-163.5 240.47,-121.56 265.53,-70.01 284.16,-40.36"/>
<polygon fill="#63b8ff" stroke="#63b8ff" points="287.02,-42.39 289.57,-32.11 281.16,-38.55 287.02,-42.39"/>
</a>
</g>
</g>
<!-- Node6 -->
<g id="Node000006" class="node">
<title>Node6</title>
<g id="a_Node000006"><a xlink:title=" ">
<polygon fill="#e0e0e0" stroke="#999999" points="750.62,-285.25 635.62,-285.25 635.62,-266 750.62,-266 750.62,-285.25"/>
<text text-anchor="middle" x="693.12" y="-271.75" font-family="Helvetica,sans-Serif" font-size="10.00">mlir/IR/MLIRContext.h</text>
</a>
</g>
</g>
<!-- Node1&#45;&gt;Node6 -->
<g id="edge5_Node000001_Node000006" class="edge">
<title>Node1&#45;&gt;Node6</title>
<g id="a_edge5_Node000001_Node000006"><a xlink:title=" ">
<path fill="none" stroke="#63b8ff" d="M498.48,-320.87C542.85,-310.79 601.01,-297.56 642.17,-288.21"/>
<polygon fill="#63b8ff" stroke="#63b8ff" points="642.85,-291.64 651.83,-286.01 641.3,-284.82 642.85,-291.64"/>
</a>
</g>
</g>
<!-- Node7 -->
<g id="Node000007" class="node">
<title>Node7</title>
<g id="a_Node000007"><a xlink:title=" ">
<polygon fill="#e0e0e0" stroke="#999999" points="901.25,-285.25 769,-285.25 769,-266 901.25,-266 901.25,-285.25"/>
<text text-anchor="middle" x="835.12" y="-271.75" font-family="Helvetica,sans-Serif" font-size="10.00">mlir/IR/OperationSupport.h</text>
</a>
</g>
</g>
<!-- Node1&#45;&gt;Node7 -->
<g id="edge6_Node000001_Node000007" class="edge">
<title>Node1&#45;&gt;Node7</title>
<g id="a_edge6_Node000001_Node000007"><a xlink:title=" ">
<path fill="none" stroke="#63b8ff" d="M498.11,-326.11C569.93,-315.56 686.27,-298.48 761.73,-287.4"/>
<polygon fill="#63b8ff" stroke="#63b8ff" points="762.14,-290.88 771.52,-285.96 761.12,-283.95 762.14,-290.88"/>
</a>
</g>
</g>
<!-- Node8 -->
<g id="Node000008" class="node">
<title>Node8</title>
<g id="a_Node000008"><a xlink:title=" ">
<polygon fill="#e0e0e0" stroke="#999999" points="479.62,-224.38 388.62,-224.38 388.62,-205.12 479.62,-205.12 479.62,-224.38"/>
<text text-anchor="middle" x="434.12" y="-210.88" font-family="Helvetica,sans-Serif" font-size="10.00">mlir/Pass/Pass.h</text>
</a>
</g>
</g>
<!-- Node1&#45;&gt;Node8 -->
<g id="edge7_Node000001_Node000008" class="edge">
<title>Node1&#45;&gt;Node8</title>
<g id="a_edge7_Node000001_Node000008"><a xlink:title=" ">
<path fill="none" stroke="#63b8ff" d="M434.12,-320.82C434.12,-299.53 434.12,-260.04 434.12,-236.01"/>
<polygon fill="#63b8ff" stroke="#63b8ff" points="437.63,-236.25 434.13,-226.25 430.63,-236.25 437.63,-236.25"/>
</a>
</g>
</g>
<!-- Node9 -->
<g id="Node000009" class="node">
<title>Node9</title>
<g id="a_Node000009"><a xlink:title=" ">
<polygon fill="#e0e0e0" stroke="#999999" points="1058.62,-285.25 919.62,-285.25 919.62,-266 1058.62,-266 1058.62,-285.25"/>
<text text-anchor="middle" x="989.12" y="-271.75" font-family="Helvetica,sans-Serif" font-size="10.00">mlir/Support/LogicalResult.h</text>
</a>
</g>
</g>
<!-- Node1&#45;&gt;Node9 -->
<g id="edge8_Node000001_Node000009" class="edge">
<title>Node1&#45;&gt;Node9</title>
<g id="a_edge8_Node000001_Node000009"><a xlink:title=" ">
<path fill="none" stroke="#63b8ff" d="M498.42,-328.79C587.75,-319.44 754.79,-301.91 908.31,-285.44"/>
<polygon fill="#63b8ff" stroke="#63b8ff" points="908.27,-288.97 917.83,-284.42 907.52,-282.01 908.27,-288.97"/>
</a>
</g>
</g>
<!-- Node10 -->
<g id="Node000010" class="node">
<title>Node10</title>
<g id="a_Node000010"><a xlink:href="_passes_2_pass_detail_8h.html" target="_top" xlink:title=" ">
<polygon fill="white" stroke="#666666" points="618,-285.25 478.25,-285.25 478.25,-266 618,-266 618,-285.25"/>
<text text-anchor="middle" x="548.12" y="-271.75" font-family="Helvetica,sans-Serif" font-size="10.00">zklang/Passes/PassDetail.h</text>
</a>
</g>
</g>
<!-- Node1&#45;&gt;Node10 -->
<g id="edge9_Node000001_Node000010" class="edge">
<title>Node1&#45;&gt;Node10</title>
<g id="a_edge9_Node000001_Node000010"><a xlink:title=" ">
<path fill="none" stroke="#63b8ff" d="M462.6,-320.8C480.29,-311.66 502.93,-299.97 520.47,-290.91"/>
<polygon fill="#63b8ff" stroke="#63b8ff" points="522.02,-294.05 529.3,-286.35 518.81,-287.83 522.02,-294.05"/>
</a>
</g>
</g>
<!-- Node10&#45;&gt;Node8 -->
<g id="edge12_Node000010_Node000008" class="edge">
<title>Node10&#45;&gt;Node8</title>
<g id="a_edge12_Node000010_Node000008"><a xlink:title=" ">
<path fill="none" stroke="#63b8ff" d="M530.81,-265.68C512.48,-256.22 483.28,-241.14 461.76,-230.02"/>
<polygon fill="#63b8ff" stroke="#63b8ff" points="463.44,-226.95 452.95,-225.47 460.23,-233.17 463.44,-226.95"/>
</a>
</g>
</g>
<!-- Node11 -->
<g id="Node000011" class="node">
<title>Node11</title>
<g id="a_Node000011"><a xlink:title=" ">
<polygon fill="#e0e0e0" stroke="#999999" points="1155.38,-230 1050.88,-230 1050.88,-199.5 1155.38,-199.5 1155.38,-230"/>
<text text-anchor="start" x="1058.88" y="-216.5" font-family="Helvetica,sans-Serif" font-size="10.00">llzk/Dialect/LLZK/IR</text>
<text text-anchor="middle" x="1103.12" y="-205.25" font-family="Helvetica,sans-Serif" font-size="10.00">/Dialect.h</text>
</a>
</g>
</g>
<!-- Node10&#45;&gt;Node11 -->
<g id="edge10_Node000010_Node000011" class="edge">
<title>Node10&#45;&gt;Node11</title>
<g id="a_edge10_Node000010_Node000011"><a xlink:title=" ">
<path fill="none" stroke="#63b8ff" d="M618.28,-266.79C620.93,-266.52 623.55,-266.25 626.12,-266 806.68,-248.19 856.27,-258.38 1039.08,-230.16"/>
<polygon fill="#63b8ff" stroke="#63b8ff" points="1039.62,-233.62 1048.96,-228.61 1038.54,-226.7 1039.62,-233.62"/>
</a>
</g>
</g>
<!-- Node12 -->
<g id="Node000012" class="node">
<title>Node12</title>
<g id="a_Node000012"><a xlink:title=" ">
<polygon fill="#e0e0e0" stroke="#999999" points="1267.12,-230 1173.12,-230 1173.12,-199.5 1267.12,-199.5 1267.12,-230"/>
<text text-anchor="start" x="1181.12" y="-216.5" font-family="Helvetica,sans-Serif" font-size="10.00">llzk/Dialect/Struct</text>
<text text-anchor="middle" x="1220.12" y="-205.25" font-family="Helvetica,sans-Serif" font-size="10.00">/IR/Ops.h</text>
</a>
</g>
</g>
<!-- Node10&#45;&gt;Node12 -->
<g id="edge11_Node000010_Node000012" class="edge">
<title>Node10&#45;&gt;Node12</title>
<g id="a_edge11_Node000010_Node000012"><a xlink:title=" ">
<path fill="none" stroke="#63b8ff" d="M618.27,-266.72C620.92,-266.47 623.55,-266.23 626.12,-266 861.1,-245.16 925.46,-267 1161.52,-230.21"/>
<polygon fill="#63b8ff" stroke="#63b8ff" points="1162.07,-233.67 1171.4,-228.65 1160.98,-226.75 1162.07,-233.67"/>
</a>
</g>
</g>
<!-- Node13 -->
<g id="Node000013" class="node">
<title>Node13</title>
<g id="a_Node000013"><a xlink:title=" ">
<polygon fill="#e0e0e0" stroke="#999999" points="1383,-230 1285.25,-230 1285.25,-199.5 1383,-199.5 1383,-230"/>
<text text-anchor="start" x="1293.25" y="-216.5" font-family="Helvetica,sans-Serif" font-size="10.00">zirgen/Dialect/ZHL</text>
<text text-anchor="middle" x="1334.12" y="-205.25" font-family="Helvetica,sans-Serif" font-size="10.00">/IR/ZHL.h</text>
</a>
</g>
</g>
<!-- Node10&#45;&gt;Node13 -->
<g id="edge13_Node000010_Node000013" class="edge">
<title>Node10&#45;&gt;Node13</title>
<g id="a_edge13_Node000010_Node000013"><a xlink:title=" ">
<path fill="none" stroke="#63b8ff" d="M618.27,-266.69C620.92,-266.44 623.55,-266.21 626.12,-266 910.81,-242.39 988.01,-271.93 1273.76,-230.15"/>
<polygon fill="#63b8ff" stroke="#63b8ff" points="1274.01,-233.65 1283.39,-228.73 1272.99,-226.73 1274.01,-233.65"/>
</a>
</g>
</g>
<!-- Node14 -->
<g id="Node000014" class="node">
<title>Node14</title>
<g id="a_Node000014"><a xlink:href="_dialect_8h.html" target="_top" xlink:title=" ">
<polygon fill="white" stroke="#666666" points="598.5,-230 497.75,-230 497.75,-199.5 598.5,-199.5 598.5,-230"/>
<text text-anchor="start" x="505.75" y="-216.5" font-family="Helvetica,sans-Serif" font-size="10.00">zklang/Dialect/ZML</text>
<text text-anchor="middle" x="548.12" y="-205.25" font-family="Helvetica,sans-Serif" font-size="10.00">/IR/Dialect.h</text>
</a>
</g>
</g>
<!-- Node10&#45;&gt;Node14 -->
<g id="edge14_Node000010_Node000014" class="edge">
<title>Node10&#45;&gt;Node14</title>
<g id="a_edge14_Node000010_Node000014"><a xlink:title=" ">
<path fill="none" stroke="#63b8ff" d="M548.12,-265.68C548.12,-259.23 548.12,-250.16 548.12,-241.51"/>
<polygon fill="#63b8ff" stroke="#63b8ff" points="551.63,-241.8 548.13,-231.8 544.63,-241.8 551.63,-241.8"/>
</a>
</g>
</g>
<!-- Node19 -->
<g id="Node000019" class="node">
<title>Node19</title>
<g id="a_Node000019"><a xlink:href="_ops_8h.html" target="_top" xlink:title=" ">
<polygon fill="white" stroke="#666666" points="1032.5,-230 931.75,-230 931.75,-199.5 1032.5,-199.5 1032.5,-230"/>
<text text-anchor="start" x="939.75" y="-216.5" font-family="Helvetica,sans-Serif" font-size="10.00">zklang/Dialect/ZML</text>
<text text-anchor="middle" x="982.12" y="-205.25" font-family="Helvetica,sans-Serif" font-size="10.00">/IR/Ops.h</text>
</a>
</g>
</g>
<!-- Node10&#45;&gt;Node19 -->
<g id="edge20_Node000010_Node000019" class="edge">
<title>Node10&#45;&gt;Node19</title>
<g id="a_edge20_Node000010_Node000019"><a xlink:title=" ">
<path fill="none" stroke="#63b8ff" d="M614.99,-265.55C698.33,-254.25 839.63,-235.08 920.47,-224.11"/>
<polygon fill="#63b8ff" stroke="#63b8ff" points="920.52,-227.64 929.96,-222.83 919.58,-220.7 920.52,-227.64"/>
</a>
</g>
</g>
<!-- Node43 -->
<g id="Node000043" class="node">
<title>Node43</title>
<g id="a_Node000043"><a xlink:href="_passes_2_passes_8h_8inc.html" target="_top" xlink:title=" ">
<polygon fill="white" stroke="#666666" points="1541.38,-224.38 1400.88,-224.38 1400.88,-205.12 1541.38,-205.12 1541.38,-224.38"/>
<text text-anchor="middle" x="1471.12" y="-210.88" font-family="Helvetica,sans-Serif" font-size="10.00">zklang/Passes/Passes.h.inc</text>
</a>
</g>
</g>
<!-- Node10&#45;&gt;Node43 -->
<g id="edge62_Node000010_Node000043" class="edge">
<title>Node10&#45;&gt;Node43</title>
<g id="a_edge62_Node000010_Node000043"><a xlink:title=" ">
<path fill="none" stroke="#63b8ff" d="M618.26,-266.66C620.92,-266.42 623.54,-266.2 626.12,-266 965.89,-239.26 1053.47,-268.33 1392.12,-230 1399.66,-229.15 1407.56,-228.01 1415.34,-226.76"/>
<polygon fill="#63b8ff" stroke="#63b8ff" points="1415.81,-230.23 1425.08,-225.1 1414.63,-223.32 1415.81,-230.23"/>
</a>
</g>
</g>
<!-- Node14&#45;&gt;Node5 -->
<g id="edge15_Node000014_Node000005" class="edge">
<title>Node14&#45;&gt;Node5</title>
<g id="a_edge15_Node000014_Node000005"><a xlink:title=" ">
<path fill="none" stroke="#63b8ff" d="M497.41,-201.98C470.84,-194.1 438.78,-181.76 414.12,-163.5 368.76,-129.9 332.56,-73.32 314.23,-40.96"/>
<polygon fill="#63b8ff" stroke="#63b8ff" points="317.35,-39.36 309.45,-32.3 311.22,-42.75 317.35,-39.36"/>
</a>
</g>
</g>
<!-- Node15 -->
<g id="Node000015" class="node">
<title>Node15</title>
<g id="a_Node000015"><a xlink:title=" ">
<polygon fill="#e0e0e0" stroke="#999999" points="518.88,-163.5 423.38,-163.5 423.38,-133 518.88,-133 518.88,-163.5"/>
<text text-anchor="start" x="431.38" y="-150" font-family="Helvetica,sans-Serif" font-size="10.00">mlir/Dialect/Index</text>
<text text-anchor="middle" x="471.12" y="-138.75" font-family="Helvetica,sans-Serif" font-size="10.00">/IR/IndexDialect.h</text>
</a>
</g>
</g>
<!-- Node14&#45;&gt;Node15 -->
<g id="edge16_Node000014_Node000015" class="edge">
<title>Node14&#45;&gt;Node15</title>
<g id="a_edge16_Node000014_Node000015"><a xlink:title=" ">
<path fill="none" stroke="#63b8ff" d="M530.65,-199.11C520.81,-190.87 508.32,-180.4 497.32,-171.19"/>
<polygon fill="#63b8ff" stroke="#63b8ff" points="499.6,-168.54 489.69,-164.8 495.11,-173.9 499.6,-168.54"/>
</a>
</g>
</g>
<!-- Node16 -->
<g id="Node000016" class="node">
<title>Node16</title>
<g id="a_Node000016"><a xlink:title=" ">
<polygon fill="#e0e0e0" stroke="#999999" points="639.25,-163.5 537,-163.5 537,-133 639.25,-133 639.25,-163.5"/>
<text text-anchor="start" x="545" y="-150" font-family="Helvetica,sans-Serif" font-size="10.00">mlir/Dialect/SCF/IR</text>
<text text-anchor="middle" x="588.12" y="-138.75" font-family="Helvetica,sans-Serif" font-size="10.00">/SCF.h</text>
</a>
</g>
</g>
<!-- Node14&#45;&gt;Node16 -->
<g id="edge17_Node000014_Node000016" class="edge">
<title>Node14&#45;&gt;Node16</title>
<g id="a_edge17_Node000014_Node000016"><a xlink:title=" ">
<path fill="none" stroke="#63b8ff" d="M557.2,-199.11C561.91,-191.53 567.78,-182.06 573.13,-173.43"/>
<polygon fill="#63b8ff" stroke="#63b8ff" points="575.99,-175.46 578.29,-165.11 570.04,-171.77 575.99,-175.46"/>
</a>
</g>
</g>
<!-- Node17 -->
<g id="Node000017" class="node">
<title>Node17</title>
<g id="a_Node000017"><a xlink:title=" ">
<polygon fill="#e0e0e0" stroke="#999999" points="744.75,-157.88 657.5,-157.88 657.5,-138.62 744.75,-138.62 744.75,-157.88"/>
<text text-anchor="middle" x="701.12" y="-144.38" font-family="Helvetica,sans-Serif" font-size="10.00">mlir/IR/Dialect.h</text>
</a>
</g>
</g>
<!-- Node14&#45;&gt;Node17 -->
<g id="edge18_Node000014_Node000017" class="edge">
<title>Node14&#45;&gt;Node17</title>
<g id="a_edge18_Node000014_Node000017"><a xlink:title=" ">
<path fill="none" stroke="#63b8ff" d="M582.84,-199.11C608.8,-188.17 644.02,-173.32 669.26,-162.68"/>
<polygon fill="#63b8ff" stroke="#63b8ff" points="670.5,-165.96 678.36,-158.85 667.78,-159.51 670.5,-165.96"/>
</a>
</g>
</g>
<!-- Node18 -->
<g id="Node000018" class="node">
<title>Node18</title>
<g id="a_Node000018"><a xlink:href="_dialect_8h_8inc.html" target="_top" xlink:title=" ">
<polygon fill="white" stroke="#666666" points="367.5,-163.5 266.75,-163.5 266.75,-133 367.5,-133 367.5,-163.5"/>
<text text-anchor="start" x="274.75" y="-150" font-family="Helvetica,sans-Serif" font-size="10.00">zklang/Dialect/ZML</text>
<text text-anchor="middle" x="317.12" y="-138.75" font-family="Helvetica,sans-Serif" font-size="10.00">/IR/Dialect.h.inc</text>
</a>
</g>
</g>
<!-- Node14&#45;&gt;Node18 -->
<g id="edge19_Node000014_Node000018" class="edge">
<title>Node14&#45;&gt;Node18</title>
<g id="a_edge19_Node000014_Node000018"><a xlink:title=" ">
<path fill="none" stroke="#63b8ff" d="M497.43,-199.6C462.38,-189.81 415.55,-176.73 378.4,-166.36"/>
<polygon fill="#63b8ff" stroke="#63b8ff" points="379.73,-163.1 369.16,-163.78 377.85,-169.84 379.73,-163.1"/>
</a>
</g>
</g>
<!-- Node19&#45;&gt;Node5 -->
<g id="edge25_Node000019_Node000005" class="edge">
<title>Node19&#45;&gt;Node5</title>
<g id="a_edge25_Node000019_Node000005"><a xlink:title=" ">
<path fill="none" stroke="#63b8ff" d="M944.14,-199.14C899.16,-182.11 821.8,-153.66 754.12,-133 680.98,-110.67 470.28,-58.01 364.01,-31.73"/>
<polygon fill="#63b8ff" stroke="#63b8ff" points="365.15,-28.4 354.6,-29.4 363.47,-35.2 365.15,-28.4"/>
</a>
</g>
</g>
<!-- Node20 -->
<g id="Node000020" class="node">
<title>Node20</title>
<g id="a_Node000020"><a xlink:title=" ">
<polygon fill="#e0e0e0" stroke="#999999" points="622.88,-24.88 515.38,-24.88 515.38,-5.63 622.88,-5.63 622.88,-24.88"/>
<text text-anchor="middle" x="569.12" y="-11.38" font-family="Helvetica,sans-Serif" font-size="10.00">llvm/ADT/ArrayRef.h</text>
</a>
</g>
</g>
<!-- Node19&#45;&gt;Node20 -->
<g id="edge21_Node000019_Node000020" class="edge">
<title>Node19&#45;&gt;Node20</title>
<g id="a_edge21_Node000019_Node000020"><a xlink:title=" ">
<path fill="none" stroke="#63b8ff" d="M960.54,-199.06C947.02,-189.5 929.49,-176.44 915.12,-163.5 871.43,-124.14 876.65,-94.86 825.12,-66.5 748.3,-24.22 716.99,-48.33 631.12,-30.5 627.05,-29.65 622.82,-28.75 618.59,-27.82"/>
<polygon fill="#63b8ff" stroke="#63b8ff" points="619.43,-24.42 608.91,-25.65 617.91,-31.25 619.43,-24.42"/>
</a>
</g>
</g>
<!-- Node21 -->
<g id="Node000021" class="node">
<title>Node21</title>
<g id="a_Node000021"><a xlink:title=" ">
<polygon fill="#e0e0e0" stroke="#999999" points="761.62,-24.88 640.62,-24.88 640.62,-5.63 761.62,-5.63 761.62,-24.88"/>
<text text-anchor="middle" x="701.12" y="-11.38" font-family="Helvetica,sans-Serif" font-size="10.00">llvm/ADT/SmallVector.h</text>
</a>
</g>
</g>
<!-- Node19&#45;&gt;Node21 -->
<g id="edge22_Node000019_Node000021" class="edge">
<title>Node19&#45;&gt;Node21</title>
<g id="a_edge22_Node000019_Node000021"><a xlink:title=" ">
<path fill="none" stroke="#63b8ff" d="M970.47,-199.1C941.18,-162.32 866.62,-68.87 863.12,-66.5 844.58,-53.92 790.83,-38.54 750.29,-28.13"/>
<polygon fill="#63b8ff" stroke="#63b8ff" points="751.26,-24.77 740.71,-25.71 749.54,-31.56 751.26,-24.77"/>
</a>
</g>
</g>
<!-- Node22 -->
<g id="Node000022" class="node">
<title>Node22</title>
<g id="a_Node000022"><a xlink:title=" ">
<polygon fill="#e0e0e0" stroke="#999999" points="889,-24.88 779.25,-24.88 779.25,-5.63 889,-5.63 889,-24.88"/>
<text text-anchor="middle" x="834.12" y="-11.38" font-family="Helvetica,sans-Serif" font-size="10.00">llvm/ADT/StringRef.h</text>
</a>
</g>
</g>
<!-- Node19&#45;&gt;Node22 -->
<g id="edge23_Node000019_Node000022" class="edge">
<title>Node19&#45;&gt;Node22</title>
<g id="a_edge23_Node000019_Node000022"><a xlink:title=" ">
<path fill="none" stroke="#63b8ff" d="M976.53,-199.11C965.34,-171.12 938.05,-109.02 901.12,-66.5 889.2,-52.77 872.93,-40.45 859.41,-31.45"/>
<polygon fill="#63b8ff" stroke="#63b8ff" points="861.3,-28.51 850.99,-26.07 857.53,-34.41 861.3,-28.51"/>
</a>
</g>
</g>
<!-- Node23 -->
<g id="Node000023" class="node">
<title>Node23</title>
<g id="a_Node000023"><a xlink:title=" ">
<polygon fill="#e0e0e0" stroke="#999999" points="1039.62,-30.5 906.62,-30.5 906.62,0 1039.62,0 1039.62,-30.5"/>
<text text-anchor="start" x="914.62" y="-17" font-family="Helvetica,sans-Serif" font-size="10.00">mlir/Bytecode/BytecodeOp</text>
<text text-anchor="middle" x="973.12" y="-5.75" font-family="Helvetica,sans-Serif" font-size="10.00">Interface.h</text>
</a>
</g>
</g>
<!-- Node19&#45;&gt;Node23 -->
<g id="edge24_Node000019_Node000023" class="edge">
<title>Node19&#45;&gt;Node23</title>
<g id="a_edge24_Node000019_Node000023"><a xlink:title=" ">
<path fill="none" stroke="#63b8ff" d="M981.46,-199.23C979.95,-166.06 976.23,-84.35 974.31,-42.25"/>
<polygon fill="#63b8ff" stroke="#63b8ff" points="977.81,-42.14 973.86,-32.31 970.82,-42.45 977.81,-42.14"/>
</a>
</g>
</g>
<!-- Node24 -->
<g id="Node000024" class="node">
<title>Node24</title>
<g id="a_Node000024"><a xlink:title=" ">
<polygon fill="#e0e0e0" stroke="#999999" points="1158.88,-24.88 1057.38,-24.88 1057.38,-5.63 1158.88,-5.63 1158.88,-24.88"/>
<text text-anchor="middle" x="1108.12" y="-11.38" font-family="Helvetica,sans-Serif" font-size="10.00">mlir/IR/BuiltinOps.h</text>
</a>
</g>
</g>
<!-- Node19&#45;&gt;Node24 -->
<g id="edge26_Node000019_Node000024" class="edge">
<title>Node19&#45;&gt;Node24</title>
<g id="a_edge26_Node000019_Node000024"><a xlink:title=" ">
<path fill="none" stroke="#63b8ff" d="M982.93,-199.23C985.18,-170.91 993.64,-107.47 1025.12,-66.5 1037.54,-50.35 1056.74,-38.25 1073.55,-29.97"/>
<polygon fill="#63b8ff" stroke="#63b8ff" points="1074.64,-33.32 1082.25,-25.94 1071.7,-26.97 1074.64,-33.32"/>
</a>
</g>
</g>
<!-- Node25 -->
<g id="Node000025" class="node">
<title>Node25</title>
<g id="a_Node000025"><a xlink:title=" ">
<polygon fill="#e0e0e0" stroke="#999999" points="1287.38,-24.88 1176.88,-24.88 1176.88,-5.63 1287.38,-5.63 1287.38,-24.88"/>
<text text-anchor="middle" x="1232.12" y="-11.38" font-family="Helvetica,sans-Serif" font-size="10.00">mlir/IR/OpDefinition.h</text>
</a>
</g>
</g>
<!-- Node19&#45;&gt;Node25 -->
<g id="edge27_Node000019_Node000025" class="edge">
<title>Node19&#45;&gt;Node25</title>
<g id="a_edge27_Node000019_Node000025"><a xlink:title=" ">
<path fill="none" stroke="#63b8ff" d="M988.86,-199.14C1005.26,-163.79 1046.79,-75.81 1058.12,-66.5 1068.02,-58.37 1135.81,-40.23 1183.78,-28.12"/>
<polygon fill="#63b8ff" stroke="#63b8ff" points="1184.58,-31.53 1193.43,-25.7 1182.88,-24.74 1184.58,-31.53"/>
</a>
</g>
</g>
<!-- Node26 -->
<g id="Node000026" class="node">
<title>Node26</title>
<g id="a_Node000026"><a xlink:title=" ">
<polygon fill="#e0e0e0" stroke="#999999" points="1572.12,-24.88 1436.12,-24.88 1436.12,-5.63 1572.12,-5.63 1572.12,-24.88"/>
<text text-anchor="middle" x="1504.12" y="-11.38" font-family="Helvetica,sans-Serif" font-size="10.00">mlir/IR/OpImplementation.h</text>
</a>
</g>
</g>
<!-- Node19&#45;&gt;Node26 -->
<g id="edge28_Node000019_Node000026" class="edge">
<title>Node19&#45;&gt;Node26</title>
<g id="a_edge28_Node000019_Node000026"><a xlink:title=" ">
<path fill="none" stroke="#63b8ff" d="M1013.15,-199.15C1032.71,-189.62 1058.31,-176.57 1080.12,-163.5 1124.65,-136.82 1133.62,-126.79 1176.12,-97 1195.31,-83.55 1197.49,-75.5 1219.12,-66.5 1305.75,-30.47 1334.78,-47.04 1427.12,-30.5 1432.75,-29.49 1438.61,-28.43 1444.46,-27.36"/>
<polygon fill="#63b8ff" stroke="#63b8ff" points="1444.98,-30.83 1454.18,-25.58 1443.72,-23.94 1444.98,-30.83"/>
</a>
</g>
</g>
<!-- Node27 -->
<g id="Node000027" class="node">
<title>Node27</title>
<g id="a_Node000027"><a xlink:title=" ">
<polygon fill="#e0e0e0" stroke="#999999" points="1740.25,-24.88 1590,-24.88 1590,-5.63 1740.25,-5.63 1740.25,-24.88"/>
<text text-anchor="middle" x="1665.12" y="-11.38" font-family="Helvetica,sans-Serif" font-size="10.00">mlir/Interfaces/CallInterfaces.h</text>
</a>
</g>
</g>
<!-- Node19&#45;&gt;Node27 -->
<g id="edge29_Node000019_Node000027" class="edge">
<title>Node19&#45;&gt;Node27</title>
<g id="a_edge29_Node000019_Node000027"><a xlink:title=" ">
<path fill="none" stroke="#63b8ff" d="M1030.54,-199C1056.84,-190.19 1089.52,-177.91 1117.12,-163.5 1121.32,-161.31 1252.69,-68.16 1257.12,-66.5 1392.81,-15.69 1437.64,-50.62 1581.12,-30.5 1588.32,-29.49 1595.85,-28.34 1603.32,-27.15"/>
<polygon fill="#63b8ff" stroke="#63b8ff" points="1603.76,-30.62 1613.07,-25.56 1602.63,-23.72 1603.76,-30.62"/>
</a>
</g>
</g>
<!-- Node28 -->
<g id="Node000028" class="node">
<title>Node28</title>
<g id="a_Node000028"><a xlink:title=" ">
<polygon fill="#e0e0e0" stroke="#999999" points="1892,-30.5 1758.25,-30.5 1758.25,0 1892,0 1892,-30.5"/>
<text text-anchor="start" x="1766.25" y="-17" font-family="Helvetica,sans-Serif" font-size="10.00">mlir/Interfaces/ControlFlow</text>
<text text-anchor="middle" x="1825.12" y="-5.75" font-family="Helvetica,sans-Serif" font-size="10.00">Interfaces.h</text>
</a>
</g>
</g>
<!-- Node19&#45;&gt;Node28 -->
<g id="edge30_Node000019_Node000028" class="edge">
<title>Node19&#45;&gt;Node28</title>
<g id="a_edge30_Node000019_Node000028"><a xlink:title=" ">
<path fill="none" stroke="#63b8ff" d="M1032.62,-200.67C1074.64,-189.44 1130.91,-173.53 1152.12,-163.5 1156.46,-161.45 1290.6,-68.09 1295.12,-66.5 1482.66,-0.67 1546.19,-55.14 1746.83,-30.66"/>
<polygon fill="#63b8ff" stroke="#63b8ff" points="1747.07,-34.16 1756.55,-29.42 1746.19,-27.21 1747.07,-34.16"/>
</a>
</g>
</g>
<!-- Node29 -->
<g id="Node000029" class="node">
<title>Node29</title>
<g id="a_Node000029"><a xlink:title=" ">
<polygon fill="#e0e0e0" stroke="#999999" points="2041.88,-30.5 1910.38,-30.5 1910.38,0 2041.88,0 2041.88,-30.5"/>
<text text-anchor="start" x="1918.38" y="-17" font-family="Helvetica,sans-Serif" font-size="10.00">mlir/Interfaces/DataLayout</text>
<text text-anchor="middle" x="1976.12" y="-5.75" font-family="Helvetica,sans-Serif" font-size="10.00">Interfaces.h</text>
</a>
</g>
</g>
<!-- Node19&#45;&gt;Node29 -->
<g id="edge31_Node000019_Node000029" class="edge">
<title>Node19&#45;&gt;Node29</title>
<g id="a_edge31_Node000019_Node000029"><a xlink:title=" ">
<path fill="none" stroke="#63b8ff" d="M1032.95,-201.52C1092.49,-187.16 1183.53,-165.09 1187.12,-163.5 1235.61,-142.08 1242.67,-127.36 1286.12,-97 1305.04,-83.79 1306.42,-74.31 1328.12,-66.5 1445.01,-24.44 1757.47,-45.26 1898.84,-30.56"/>
<polygon fill="#63b8ff" stroke="#63b8ff" points="1898.9,-34.08 1908.44,-29.46 1898.11,-27.13 1898.9,-34.08"/>
</a>
</g>
</g>
<!-- Node30 -->
<g id="Node000030" class="node">
<title>Node30</title>
<g id="a_Node000030"><a xlink:title=" ">
<polygon fill="#e0e0e0" stroke="#999999" points="2199.5,-30.5 2080.75,-30.5 2080.75,0 2199.5,0 2199.5,-30.5"/>
<text text-anchor="start" x="2088.75" y="-17" font-family="Helvetica,sans-Serif" font-size="10.00">mlir/Interfaces/Function</text>
<text text-anchor="middle" x="2140.12" y="-5.75" font-family="Helvetica,sans-Serif" font-size="10.00">Interfaces.h</text>
</a>
</g>
</g>
<!-- Node19&#45;&gt;Node30 -->
<g id="edge32_Node000019_Node000030" class="edge">
<title>Node19&#45;&gt;Node30</title>
<g id="a_edge32_Node000019_Node000030"><a xlink:title=" ">
<path fill="none" stroke="#63b8ff" d="M1032.74,-201.01C1035.9,-200.44 1039.05,-199.93 1042.12,-199.5 1412.25,-148.09 1510.73,-204.73 1882.12,-163.5 2047.75,-145.11 2144.25,-224.86 2251.12,-97 2272.62,-71.29 2237.01,-49.46 2200.54,-35.01"/>
<polygon fill="#63b8ff" stroke="#63b8ff" points="2201.78,-31.73 2191.19,-31.48 2199.31,-38.28 2201.78,-31.73"/>
</a>
</g>
</g>
<!-- Node31 -->
<g id="Node000031" class="node">
<title>Node31</title>
<g id="a_Node000031"><a xlink:title=" ">
<polygon fill="#e0e0e0" stroke="#999999" points="2349,-30.5 2227.25,-30.5 2227.25,0 2349,0 2349,-30.5"/>
<text text-anchor="start" x="2235.25" y="-17" font-family="Helvetica,sans-Serif" font-size="10.00">mlir/Interfaces/InferType</text>
<text text-anchor="middle" x="2288.12" y="-5.75" font-family="Helvetica,sans-Serif" font-size="10.00">OpInterface.h</text>
</a>
</g>
</g>
<!-- Node19&#45;&gt;Node31 -->
<g id="edge33_Node000019_Node000031" class="edge">
<title>Node19&#45;&gt;Node31</title>
<g id="a_edge33_Node000019_Node000031"><a xlink:title=" ">
<path fill="none" stroke="#63b8ff" d="M1032.73,-200.99C1035.9,-200.42 1039.05,-199.92 1042.12,-199.5 1491.66,-138.79 1615.34,-241.93 2062.12,-163.5 2156.88,-146.87 2202.5,-167.35 2268.12,-97 2281.83,-82.31 2286.54,-59.75 2287.99,-42.2"/>
<polygon fill="#63b8ff" stroke="#63b8ff" points="2291.49,-42.43 2288.48,-32.27 2284.5,-42.09 2291.49,-42.43"/>
</a>
</g>
</g>
<!-- Node32 -->
<g id="Node000032" class="node">
<title>Node32</title>
<g id="a_Node000032"><a xlink:title=" ">
<polygon fill="#e0e0e0" stroke="#999999" points="497.62,-30.5 370.62,-30.5 370.62,0 497.62,0 497.62,-30.5"/>
<text text-anchor="start" x="378.62" y="-17" font-family="Helvetica,sans-Serif" font-size="10.00">mlir/Interfaces/SideEffect</text>
<text text-anchor="middle" x="434.12" y="-5.75" font-family="Helvetica,sans-Serif" font-size="10.00">Interfaces.h</text>
</a>
</g>
</g>
<!-- Node19&#45;&gt;Node32 -->
<g id="edge34_Node000019_Node000032" class="edge">
<title>Node19&#45;&gt;Node32</title>
<g id="a_edge34_Node000019_Node000032"><a xlink:title=" ">
<path fill="none" stroke="#63b8ff" d="M947.04,-199.01C927.64,-190.08 903.6,-177.69 884.12,-163.5 859.49,-145.55 814.49,-79.94 787.12,-66.5 677.3,-12.58 632.93,-48.56 509.11,-30.83"/>
<polygon fill="#63b8ff" stroke="#63b8ff" points="509.99,-27.43 499.57,-29.37 508.92,-34.34 509.99,-27.43"/>
</a>
</g>
</g>
<!-- Node33 -->
<g id="Node000033" class="node">
<title>Node33</title>
<g id="a_Node000033"><a xlink:href="_op_interfaces_8h.html" target="_top" xlink:title=" ">
<polygon fill="white" stroke="#666666" points="1167.5,-97 1066.75,-97 1066.75,-66.5 1167.5,-66.5 1167.5,-97"/>
<text text-anchor="start" x="1074.75" y="-83.5" font-family="Helvetica,sans-Serif" font-size="10.00">zklang/Dialect/ZML</text>
<text text-anchor="middle" x="1117.12" y="-72.25" font-family="Helvetica,sans-Serif" font-size="10.00">/IR/OpInterfaces.h</text>
</a>
</g>
</g>
<!-- Node19&#45;&gt;Node33 -->
<g id="edge35_Node000019_Node000033" class="edge">
<title>Node19&#45;&gt;Node33</title>
<g id="a_edge35_Node000019_Node000033"><a xlink:title=" ">
<path fill="none" stroke="#63b8ff" d="M1006.43,-199.02C1020.79,-189.75 1038.87,-177 1053.12,-163.5 1071.36,-146.22 1088.85,-123.6 1100.92,-106.7"/>
<polygon fill="#63b8ff" stroke="#63b8ff" points="1103.64,-108.93 1106.5,-98.73 1097.9,-104.91 1103.64,-108.93"/>
</a>
</g>
</g>
<!-- Node35 -->
<g id="Node000035" class="node">
<title>Node35</title>
<g id="a_Node000035"><a xlink:href="_types_8h.html" target="_top" xlink:title=" ">
<polygon fill="white" stroke="#666666" points="1767.5,-163.5 1666.75,-163.5 1666.75,-133 1767.5,-133 1767.5,-163.5"/>
<text text-anchor="start" x="1674.75" y="-150" font-family="Helvetica,sans-Serif" font-size="10.00">zklang/Dialect/ZML</text>
<text text-anchor="middle" x="1717.12" y="-138.75" font-family="Helvetica,sans-Serif" font-size="10.00">/IR/Types.h</text>
</a>
</g>
</g>
<!-- Node19&#45;&gt;Node35 -->
<g id="edge51_Node000019_Node000035" class="edge">
<title>Node19&#45;&gt;Node35</title>
<g id="a_edge51_Node000019_Node000035"><a xlink:title=" ">
<path fill="none" stroke="#63b8ff" d="M1032.75,-201.13C1035.91,-200.53 1039.06,-199.98 1042.12,-199.5 1266.05,-164.8 1535.61,-153.86 1655.01,-150.58"/>
<polygon fill="#63b8ff" stroke="#63b8ff" points="1655.01,-154.08 1664.92,-150.32 1654.83,-147.08 1655.01,-154.08"/>
</a>
</g>
</g>
<!-- Node41 -->
<g id="Node000041" class="node">
<title>Node41</title>
<g id="a_Node000041"><a xlink:href="_ops_8h_8inc.html" target="_top" xlink:title=" ">
<polygon fill="white" stroke="#666666" points="2242.5,-97 2141.75,-97 2141.75,-66.5 2242.5,-66.5 2242.5,-97"/>
<text text-anchor="start" x="2149.75" y="-83.5" font-family="Helvetica,sans-Serif" font-size="10.00">zklang/Dialect/ZML</text>
<text text-anchor="middle" x="2192.12" y="-72.25" font-family="Helvetica,sans-Serif" font-size="10.00">/IR/Ops.h.inc</text>
</a>
</g>
</g>
<!-- Node19&#45;&gt;Node41 -->
<g id="edge61_Node000019_Node000041" class="edge">
<title>Node19&#45;&gt;Node41</title>
<g id="a_edge61_Node000019_Node000041"><a xlink:title=" ">
<path fill="none" stroke="#63b8ff" d="M1032.74,-201.04C1035.9,-200.46 1039.05,-199.94 1042.12,-199.5 1365.49,-153.57 1451.87,-202.72 1776.12,-163.5 1903.08,-148.14 2049.43,-116.41 2130.29,-97.62"/>
<polygon fill="#63b8ff" stroke="#63b8ff" points="2130.85,-101.09 2139.79,-95.41 2129.25,-94.27 2130.85,-101.09"/>
</a>
</g>
</g>
<!-- Node33&#45;&gt;Node5 -->
<g id="edge40_Node000033_Node000005" class="edge">
<title>Node33&#45;&gt;Node5</title>
<g id="a_edge40_Node000033_Node000005"><a xlink:title=" ">
<path fill="none" stroke="#63b8ff" d="M1066.42,-78.49C923.51,-71.93 518.3,-52.13 364.45,-30.81"/>
<polygon fill="#63b8ff" stroke="#63b8ff" points="365.28,-27.39 354.88,-29.42 364.27,-34.32 365.28,-27.39"/>
</a>
</g>
</g>
<!-- Node33&#45;&gt;Node20 -->
<g id="edge36_Node000033_Node000020" class="edge">
<title>Node33&#45;&gt;Node20</title>
<g id="a_edge36_Node000033_Node000020"><a xlink:title=" ">
<path fill="none" stroke="#63b8ff" d="M1066.48,-77.57C977.81,-71.55 788.86,-56.68 631.12,-30.5 626.27,-29.7 621.24,-28.74 616.22,-27.71"/>
<polygon fill="#63b8ff" stroke="#63b8ff" points="617.36,-24.37 606.85,-25.69 615.88,-31.22 617.36,-24.37"/>
</a>
</g>
</g>
<!-- Node33&#45;&gt;Node21 -->
<g id="edge37_Node000033_Node000021" class="edge">
<title>Node33&#45;&gt;Node21</title>
<g id="a_edge37_Node000033_Node000021"><a xlink:title=" ">
<path fill="none" stroke="#63b8ff" d="M1066.4,-74.37C998.67,-65.63 875.05,-48.91 770.12,-30.5 764.9,-29.58 759.47,-28.57 754.05,-27.52"/>
<polygon fill="#63b8ff" stroke="#63b8ff" points="754.99,-24.13 744.49,-25.61 753.62,-31 754.99,-24.13"/>
</a>
</g>
</g>
<!-- Node33&#45;&gt;Node22 -->
<g id="edge38_Node000033_Node000022" class="edge">
<title>Node33&#45;&gt;Node22</title>
<g id="a_edge38_Node000033_Node000022"><a xlink:title=" ">
<path fill="none" stroke="#63b8ff" d="M1066.53,-69.22C1015.24,-57.53 936.32,-39.54 884.95,-27.83"/>
<polygon fill="#63b8ff" stroke="#63b8ff" points="885.79,-24.44 875.26,-25.63 884.24,-31.26 885.79,-24.44"/>
</a>
</g>
</g>
<!-- Node33&#45;&gt;Node23 -->
<g id="edge39_Node000033_Node000023" class="edge">
<title>Node33&#45;&gt;Node23</title>
<g id="a_edge39_Node000033_Node000023"><a xlink:title=" ">
<path fill="none" stroke="#63b8ff" d="M1084.45,-66.11C1064.2,-57.04 1037.96,-45.29 1016.04,-35.47"/>
<polygon fill="#63b8ff" stroke="#63b8ff" points="1017.61,-32.34 1007.05,-31.45 1014.75,-38.73 1017.61,-32.34"/>
</a>
</g>
</g>
<!-- Node33&#45;&gt;Node24 -->
<g id="edge41_Node000033_Node000024" class="edge">
<title>Node33&#45;&gt;Node24</title>
<g id="a_edge41_Node000033_Node000024"><a xlink:title=" ">
<path fill="none" stroke="#63b8ff" d="M1115.08,-66.11C1113.86,-57.33 1112.28,-46.02 1110.94,-36.4"/>
<polygon fill="#63b8ff" stroke="#63b8ff" points="1114.41,-35.99 1109.57,-26.57 1107.48,-36.96 1114.41,-35.99"/>
</a>
</g>
</g>
<!-- Node33&#45;&gt;Node25 -->
<g id="edge42_Node000033_Node000025" class="edge">
<title>Node33&#45;&gt;Node25</title>
<g id="a_edge42_Node000033_Node000025"><a xlink:title=" ">
<path fill="none" stroke="#63b8ff" d="M1143.22,-66.11C1162.03,-55.56 1187.31,-41.38 1206.11,-30.84"/>
<polygon fill="#63b8ff" stroke="#63b8ff" points="1207.73,-33.94 1214.74,-26 1204.31,-27.84 1207.73,-33.94"/>
</a>
</g>
</g>
<!-- Node33&#45;&gt;Node26 -->
<g id="edge43_Node000033_Node000026" class="edge">
<title>Node33&#45;&gt;Node26</title>
<g id="a_edge43_Node000033_Node000026"><a xlink:title=" ">
<path fill="none" stroke="#63b8ff" d="M1167.71,-69.13C1172.24,-68.19 1176.76,-67.3 1181.12,-66.5 1289.79,-46.48 1318.11,-48.56 1427.12,-30.5 1433.08,-29.51 1439.28,-28.44 1445.47,-27.34"/>
<polygon fill="#63b8ff" stroke="#63b8ff" points="1445.82,-30.84 1455.04,-25.62 1444.58,-23.95 1445.82,-30.84"/>
</a>
</g>
</g>
<!-- Node33&#45;&gt;Node27 -->
<g id="edge44_Node000033_Node000027" class="edge">
<title>Node33&#45;&gt;Node27</title>
<g id="a_edge44_Node000033_Node000027"><a xlink:title=" ">
<path fill="none" stroke="#63b8ff" d="M1167.92,-73.25C1184.25,-70.95 1202.44,-68.49 1219.12,-66.5 1379.66,-47.31 1420.88,-52.03 1581.12,-30.5 1588.51,-29.51 1596.25,-28.35 1603.9,-27.14"/>
<polygon fill="#63b8ff" stroke="#63b8ff" points="1604.22,-30.64 1613.52,-25.57 1603.09,-23.73 1604.22,-30.64"/>
</a>
</g>
</g>
<!-- Node33&#45;&gt;Node28 -->
<g id="edge45_Node000033_Node000028" class="edge">
<title>Node33&#45;&gt;Node28</title>
<g id="a_edge45_Node000033_Node000028"><a xlink:title=" ">
<path fill="none" stroke="#63b8ff" d="M1167.96,-75.22C1194.52,-72.43 1227.55,-69.09 1257.12,-66.5 1471.92,-47.71 1529.79,-58.38 1746.92,-30.68"/>
<polygon fill="#63b8ff" stroke="#63b8ff" points="1747.08,-34.19 1756.55,-29.44 1746.19,-27.25 1747.08,-34.19"/>
</a>
</g>
</g>
<!-- Node33&#45;&gt;Node29 -->
<g id="edge46_Node000033_Node000029" class="edge">
<title>Node33&#45;&gt;Node29</title>
<g id="a_edge46_Node000033_Node000029"><a xlink:title=" ">
<path fill="none" stroke="#63b8ff" d="M1167.74,-76.42C1203.35,-73.44 1252.14,-69.5 1295.12,-66.5 1560.6,-47.99 1631.45,-63.32 1898.72,-30.69"/>
<polygon fill="#63b8ff" stroke="#63b8ff" points="1898.95,-34.18 1908.44,-29.49 1898.09,-27.24 1898.95,-34.18"/>
</a>
</g>
</g>
<!-- Node33&#45;&gt;Node30 -->
<g id="edge47_Node000033_Node000030" class="edge">
<title>Node33&#45;&gt;Node30</title>
<g id="a_edge47_Node000033_Node000030"><a xlink:title=" ">
<path fill="none" stroke="#63b8ff" d="M1167.84,-77.07C1210.57,-74.03 1273.33,-69.71 1328.12,-66.5 1649.3,-47.66 1731.14,-63.98 2051.12,-30.5 2057.06,-29.88 2063.2,-29.13 2069.35,-28.3"/>
<polygon fill="#63b8ff" stroke="#63b8ff" points="2069.49,-31.81 2078.9,-26.94 2068.51,-24.88 2069.49,-31.81"/>
</a>
</g>
</g>
<!-- Node33&#45;&gt;Node31 -->
<g id="edge48_Node000033_Node000031" class="edge">
<title>Node33&#45;&gt;Node31</title>
<g id="a_edge48_Node000033_Node000031"><a xlink:title=" ">
<path fill="none" stroke="#63b8ff" d="M1167.84,-76.95C1210.56,-73.83 1273.32,-69.47 1328.12,-66.5 1718.99,-45.31 1818.99,-72.92 2208.12,-30.5 2210.63,-30.23 2213.18,-29.92 2215.75,-29.59"/>
<polygon fill="#63b8ff" stroke="#63b8ff" points="2216.18,-33.07 2225.6,-28.21 2215.21,-26.13 2216.18,-33.07"/>
</a>
</g>
</g>
<!-- Node33&#45;&gt;Node32 -->
<g id="edge49_Node000033_Node000032" class="edge">
<title>Node33&#45;&gt;Node32</title>
<g id="a_edge49_Node000033_Node000032"><a xlink:title=" ">
<path fill="none" stroke="#63b8ff" d="M1066.62,-78.54C963.61,-73.6 721.7,-59.88 509.42,-30.86"/>
<polygon fill="#63b8ff" stroke="#63b8ff" points="509.94,-27.4 499.55,-29.5 508.98,-34.34 509.94,-27.4"/>
</a>
</g>
</g>
<!-- Node34 -->
<g id="Node000034" class="node">
<title>Node34</title>
<g id="a_Node000034"><a xlink:href="_op_interfaces_8h_8inc.html" target="_top" xlink:title=" ">
<polygon fill="white" stroke="#666666" points="1418.5,-30.5 1305.75,-30.5 1305.75,0 1418.5,0 1418.5,-30.5"/>
<text text-anchor="start" x="1313.75" y="-17" font-family="Helvetica,sans-Serif" font-size="10.00">zklang/Dialect/ZML</text>
<text text-anchor="middle" x="1362.12" y="-5.75" font-family="Helvetica,sans-Serif" font-size="10.00">/IR/OpInterfaces.h.inc</text>
</a>
</g>
</g>
<!-- Node33&#45;&gt;Node34 -->
<g id="edge50_Node000033_Node000034" class="edge">
<title>Node33&#45;&gt;Node34</title>
<g id="a_edge50_Node000033_Node000034"><a xlink:title=" ">
<path fill="none" stroke="#63b8ff" d="M1167.89,-67.39C1204.79,-57.67 1255.09,-44.43 1295.26,-33.85"/>
<polygon fill="#63b8ff" stroke="#63b8ff" points="1296.06,-37.26 1304.84,-31.33 1294.28,-30.49 1296.06,-37.26"/>
</a>
</g>
</g>
<!-- Node35&#45;&gt;Node29 -->
<g id="edge56_Node000035_Node000029" class="edge">
<title>Node35&#45;&gt;Node29</title>
<g id="a_edge56_Node000035_Node000029"><a xlink:title=" ">
<path fill="none" stroke="#63b8ff" d="M1767.66,-144.19C1865.67,-137.73 2073.86,-121.28 2095.12,-97 2118.23,-70.62 2080.16,-48.88 2041.09,-34.63"/>
<polygon fill="#63b8ff" stroke="#63b8ff" points="2042.66,-31.47 2032.07,-31.49 2040.36,-38.08 2042.66,-31.47"/>
</a>
</g>
</g>
<!-- Node35&#45;&gt;Node33 -->
<g id="edge58_Node000035_Node000033" class="edge">
<title>Node35&#45;&gt;Node33</title>
<g id="a_edge58_Node000035_Node000033"><a xlink:title=" ">
<path fill="none" stroke="#63b8ff" d="M1666.49,-141.81C1556.98,-130.03 1298.45,-102.24 1179.27,-89.43"/>
<polygon fill="#63b8ff" stroke="#63b8ff" points="1179.66,-85.95 1169.34,-88.36 1178.91,-92.91 1179.66,-85.95"/>
</a>
</g>
</g>
<!-- Node36 -->
<g id="Node000036" class="node">
<title>Node36</title>
<g id="a_Node000036"><a xlink:title=" ">
<polygon fill="#e0e0e0" stroke="#999999" points="1456.88,-91.38 1337.38,-91.38 1337.38,-72.12 1456.88,-72.12 1456.88,-91.38"/>
<text text-anchor="middle" x="1397.12" y="-77.88" font-family="Helvetica,sans-Serif" font-size="10.00">llvm/ADT/TypeSwitch.h</text>
</a>
</g>
</g>
<!-- Node35&#45;&gt;Node36 -->
<g id="edge52_Node000035_Node000036" class="edge">
<title>Node35&#45;&gt;Node36</title>
<g id="a_edge52_Node000035_Node000036"><a xlink:title=" ">
<path fill="none" stroke="#63b8ff" d="M1666.63,-137.23C1615.93,-127.16 1535.59,-111.13 1466.12,-97 1461.54,-96.07 1456.78,-95.1 1452.01,-94.12"/>
<polygon fill="#63b8ff" stroke="#63b8ff" points="1452.9,-90.73 1442.4,-92.14 1451.49,-97.58 1452.9,-90.73"/>
</a>
</g>
</g>
<!-- Node37 -->
<g id="Node000037" class="node">
<title>Node37</title>
<g id="a_Node000037"><a xlink:title=" ">
<polygon fill="#e0e0e0" stroke="#999999" points="1585,-91.38 1475.25,-91.38 1475.25,-72.12 1585,-72.12 1585,-91.38"/>
<text text-anchor="middle" x="1530.12" y="-77.88" font-family="Helvetica,sans-Serif" font-size="10.00">mlir/IR/BuiltinTypes.h</text>
</a>
</g>
</g>
<!-- Node35&#45;&gt;Node37 -->
<g id="edge53_Node000035_Node000037" class="edge">
<title>Node35&#45;&gt;Node37</title>
<g id="a_edge53_Node000035_Node000037"><a xlink:title=" ">
<path fill="none" stroke="#63b8ff" d="M1674.69,-132.61C1642.35,-121.46 1598.25,-106.25 1567.29,-95.57"/>
<polygon fill="#63b8ff" stroke="#63b8ff" points="1568.54,-92.3 1557.95,-92.35 1566.26,-98.92 1568.54,-92.3"/>
</a>
</g>
</g>
<!-- Node38 -->
<g id="Node000038" class="node">
<title>Node38</title>
<g id="a_Node000038"><a xlink:title=" ">
<polygon fill="#e0e0e0" stroke="#999999" points="1715.5,-91.38 1602.75,-91.38 1602.75,-72.12 1715.5,-72.12 1715.5,-91.38"/>
<text text-anchor="middle" x="1659.12" y="-77.88" font-family="Helvetica,sans-Serif" font-size="10.00">mlir/IR/SymbolTable.h</text>
</a>
</g>
</g>
<!-- Node35&#45;&gt;Node38 -->
<g id="edge54_Node000035_Node000038" class="edge">
<title>Node35&#45;&gt;Node38</title>
<g id="a_edge54_Node000035_Node000038"><a xlink:title=" ">
<path fill="none" stroke="#63b8ff" d="M1703.96,-132.61C1695.26,-122.94 1683.82,-110.21 1674.67,-100.04"/>
<polygon fill="#63b8ff" stroke="#63b8ff" points="1677.36,-97.79 1668.07,-92.7 1672.15,-102.47 1677.36,-97.79"/>
</a>
</g>
</g>
<!-- Node39 -->
<g id="Node000039" class="node">
<title>Node39</title>
<g id="a_Node000039"><a xlink:title=" ">
<polygon fill="#e0e0e0" stroke="#999999" points="1816.5,-91.38 1733.75,-91.38 1733.75,-72.12 1816.5,-72.12 1816.5,-91.38"/>
<text text-anchor="middle" x="1775.12" y="-77.88" font-family="Helvetica,sans-Serif" font-size="10.00">mlir/IR/Types.h</text>
</a>
</g>
</g>
<!-- Node35&#45;&gt;Node39 -->
<g id="edge55_Node000035_Node000039" class="edge">
<title>Node35&#45;&gt;Node39</title>
<g id="a_edge55_Node000035_Node000039"><a xlink:title=" ">
<path fill="none" stroke="#63b8ff" d="M1730.29,-132.61C1738.99,-122.94 1750.43,-110.21 1759.58,-100.04"/>
<polygon fill="#63b8ff" stroke="#63b8ff" points="1762.1,-102.47 1766.18,-92.7 1756.89,-97.79 1762.1,-102.47"/>
</a>
</g>
</g>
<!-- Node40 -->
<g id="Node000040" class="node">
<title>Node40</title>
<g id="a_Node000040"><a xlink:title=" ">
<polygon fill="#e0e0e0" stroke="#999999" points="1968,-97 1834.25,-97 1834.25,-66.5 1968,-66.5 1968,-97"/>
<text text-anchor="start" x="1842.25" y="-83.5" font-family="Helvetica,sans-Serif" font-size="10.00">mlir/Interfaces/MemorySlot</text>
<text text-anchor="middle" x="1901.12" y="-72.25" font-family="Helvetica,sans-Serif" font-size="10.00">Interfaces.h</text>
</a>
</g>
</g>
<!-- Node35&#45;&gt;Node40 -->
<g id="edge57_Node000035_Node000040" class="edge">
<title>Node35&#45;&gt;Node40</title>
<g id="a_edge57_Node000035_Node000040"><a xlink:title=" ">
<path fill="none" stroke="#63b8ff" d="M1758.88,-132.61C1785.48,-123.29 1820.18,-111.12 1848.65,-101.15"/>
<polygon fill="#63b8ff" stroke="#63b8ff" points="1849.51,-104.55 1857.79,-97.94 1847.2,-97.95 1849.51,-104.55"/>
</a>
</g>
</g>
<!-- Node35&#45;&gt;Node41 -->
<g id="edge59_Node000035_Node000041" class="edge">
<title>Node35&#45;&gt;Node41</title>
<g id="a_edge59_Node000035_Node000041"><a xlink:title=" ">
<path fill="none" stroke="#63b8ff" d="M1767.98,-142.64C1845.85,-135.22 1999.19,-119.18 2128.12,-97 2128.95,-96.86 2129.77,-96.71 2130.6,-96.57"/>
<polygon fill="#63b8ff" stroke="#63b8ff" points="2130.9,-100.07 2140.07,-94.77 2129.6,-93.19 2130.9,-100.07"/>
</a>
</g>
</g>
<!-- Node42 -->
<g id="Node000042" class="node">
<title>Node42</title>
<g id="a_Node000042"><a xlink:href="_types_8h_8inc.html" target="_top" xlink:title=" ">
<polygon fill="white" stroke="#666666" points="2086.5,-97 1985.75,-97 1985.75,-66.5 2086.5,-66.5 2086.5,-97"/>
<text text-anchor="start" x="1993.75" y="-83.5" font-family="Helvetica,sans-Serif" font-size="10.00">zklang/Dialect/ZML</text>
<text text-anchor="middle" x="2036.12" y="-72.25" font-family="Helvetica,sans-Serif" font-size="10.00">/IR/Types.h.inc</text>
</a>
</g>
</g>
<!-- Node35&#45;&gt;Node42 -->
<g id="edge60_Node000035_Node000042" class="edge">
<title>Node35&#45;&gt;Node42</title>
<g id="a_edge60_Node000035_Node000042"><a xlink:title=" ">
<path fill="none" stroke="#63b8ff" d="M1767.59,-138.21C1817.73,-129.07 1897.04,-114.18 1974.41,-97.54"/>
<polygon fill="#63b8ff" stroke="#63b8ff" points="1974.8,-101.04 1983.83,-95.5 1973.32,-94.19 1974.8,-101.04"/>
</a>
</g>
</g>
</g>
</svg>
