<?xml version="1.0" encoding="UTF-8" standalone="no"?>
<!DOCTYPE svg PUBLIC "-//W3C//DTD SVG 1.1//EN"
 "http://www.w3.org/Graphics/SVG/1.1/DTD/svg11.dtd">
<!-- Generated by graphviz version 12.2.1 (20241206.2353)
 -->
<!-- Title: include/zklang/Dialect/ZML/IR/Dialect.h Pages: 1 -->
<svg width="1594pt" height="238pt"
 viewBox="0.00 0.00 1594.00 238.00" xmlns="http://www.w3.org/2000/svg" xmlns:xlink="http://www.w3.org/1999/xlink">
<g id="graph0" class="graph" transform="scale(1 1) rotate(0) translate(4 234)">
<title>include/zklang/Dialect/ZML/IR/Dialect.h</title>
<!-- Node1 -->
<g id="Node000001" class="node">
<title>Node1</title>
<g id="a_Node000001"><a xlink:title=" ">
<polygon fill="#999999" stroke="#666666" points="1329.25,-230 1217.25,-230 1217.25,-199.5 1329.25,-199.5 1329.25,-230"/>
<text text-anchor="start" x="1225.25" y="-216.5" font-family="Helvetica,sans-Serif" font-size="10.00">include/zklang/Dialect</text>
<text text-anchor="middle" x="1273.25" y="-205.25" font-family="Helvetica,sans-Serif" font-size="10.00">/ZML/IR/Dialect.h</text>
</a>
</g>
</g>
<!-- Node2 -->
<g id="Node000002" class="node">
<title>Node2</title>
<g id="a_Node000002"><a xlink:href="_dialect_2_z_m_l_2_transforms_2_pass_detail_8h.html" target="_top" xlink:title=" ">
<polygon fill="white" stroke="#666666" points="525.38,-163.5 375.12,-163.5 375.12,-133 525.38,-133 525.38,-163.5"/>
<text text-anchor="start" x="383.12" y="-150" font-family="Helvetica,sans-Serif" font-size="10.00">include/zklang/Dialect</text>
<text text-anchor="middle" x="450.25" y="-138.75" font-family="Helvetica,sans-Serif" font-size="10.00">/ZML/Transforms/PassDetail.h</text>
</a>
</g>
</g>
<!-- Node1&#45;&gt;Node2 -->
<g id="edge1_Node000001_Node000002" class="edge">
<title>Node1&#45;&gt;Node2</title>
<g id="a_edge1_Node000001_Node000002"><a xlink:title=" ">
<path fill="none" stroke="#63b8ff" d="M1205.55,-208.44C1053.31,-196.51 684.81,-167.63 525.6,-155.16"/>
<polygon fill="#63b8ff" stroke="#63b8ff" points="1205.25,-211.93 1215.5,-209.22 1205.8,-204.95 1205.25,-211.93"/>
</a>
</g>
</g>
<!-- Node8 -->
<g id="Node000008" class="node">
<title>Node8</title>
<g id="a_Node000008"><a xlink:href="_passes_2_pass_detail_8h.html" target="_top" xlink:title=" ">
<polygon fill="white" stroke="#666666" points="1143.38,-163.5 1029.12,-163.5 1029.12,-133 1143.38,-133 1143.38,-163.5"/>
<text text-anchor="start" x="1037.12" y="-150" font-family="Helvetica,sans-Serif" font-size="10.00">include/zklang/Passes</text>
<text text-anchor="middle" x="1086.25" y="-138.75" font-family="Helvetica,sans-Serif" font-size="10.00">/PassDetail.h</text>
</a>
</g>
</g>
<!-- Node1&#45;&gt;Node8 -->
<g id="edge7_Node000001_Node000008" class="edge">
<title>Node1&#45;&gt;Node8</title>
<g id="a_edge7_Node000001_Node000008"><a xlink:title=" ">
<path fill="none" stroke="#63b8ff" d="M1220.08,-195.41C1191.18,-185.44 1155.91,-173.28 1128.84,-163.94"/>
<polygon fill="#63b8ff" stroke="#63b8ff" points="1218.79,-198.67 1229.39,-198.62 1221.07,-192.05 1218.79,-198.67"/>
</a>
</g>
</g>
<!-- Node10 -->
<g id="Node000010" class="node">
<title>Node10</title>
<g id="a_Node000010"><a xlink:href="_convert_zhl_to_zml_2_pass_8cpp.html" target="_top" xlink:title=" ">
<polygon fill="white" stroke="#666666" points="890.12,-30.5 750.38,-30.5 750.38,0 890.12,0 890.12,-30.5"/>
<text text-anchor="start" x="758.38" y="-17" font-family="Helvetica,sans-Serif" font-size="10.00">lib/Passes/ConvertZhlToZml</text>
<text text-anchor="middle" x="820.25" y="-5.75" font-family="Helvetica,sans-Serif" font-size="10.00">/Pass.cpp</text>
</a>
</g>
</g>
<!-- Node1&#45;&gt;Node10 -->
<g id="edge18_Node000001_Node000010" class="edge">
<title>Node1&#45;&gt;Node10</title>
<g id="a_edge18_Node000001_Node000010"><a xlink:title=" ">
<path fill="none" stroke="#63b8ff" d="M1205.79,-207.69C1085.6,-195.31 842.38,-162.58 793.25,-97 778.27,-77.01 794.84,-48.22 807.83,-30.96"/>
<polygon fill="#63b8ff" stroke="#63b8ff" points="1205.22,-211.15 1215.52,-208.67 1205.92,-204.18 1205.22,-211.15"/>
</a>
</g>
</g>
<!-- Node12 -->
<g id="Node000012" class="node">
<title>Node12</title>
<g id="a_Node000012"><a xlink:href="_convert_zml_to_llzk_2_pass_8cpp.html" target="_top" xlink:title=" ">
<polygon fill="white" stroke="#666666" points="1279.38,-30.5 1135.12,-30.5 1135.12,0 1279.38,0 1279.38,-30.5"/>
<text text-anchor="start" x="1143.12" y="-17" font-family="Helvetica,sans-Serif" font-size="10.00">lib/Passes/ConvertZmlToLlzk</text>
<text text-anchor="middle" x="1207.25" y="-5.75" font-family="Helvetica,sans-Serif" font-size="10.00">/Pass.cpp</text>
</a>
</g>
</g>
<!-- Node1&#45;&gt;Node12 -->
<g id="edge19_Node000001_Node000012" class="edge">
<title>Node1&#45;&gt;Node12</title>
<g id="a_edge19_Node000001_Node000012"><a xlink:title=" ">
<path fill="none" stroke="#63b8ff" d="M1268.69,-188.04C1262.92,-158.15 1251.71,-107.65 1235.25,-66.5 1230.21,-53.89 1222.62,-40.5 1216.61,-30.71"/>
<polygon fill="#63b8ff" stroke="#63b8ff" points="1265.21,-188.47 1270.49,-197.66 1272.09,-187.19 1265.21,-188.47"/>
</a>
</g>
</g>
<!-- Node14 -->
<g id="Node000014" class="node">
<title>Node14</title>
<g id="a_Node000014"><a xlink:href="_passes_2_passes_8h.html" target="_top" xlink:title=" ">
<polygon fill="white" stroke="#666666" points="1434.38,-163.5 1320.12,-163.5 1320.12,-133 1434.38,-133 1434.38,-163.5"/>
<text text-anchor="start" x="1328.12" y="-150" font-family="Helvetica,sans-Serif" font-size="10.00">include/zklang/Passes</text>
<text text-anchor="middle" x="1377.25" y="-138.75" font-family="Helvetica,sans-Serif" font-size="10.00">/Passes.h</text>
</a>
</g>
</g>
<!-- Node1&#45;&gt;Node14 -->
<g id="edge13_Node000001_Node000014" class="edge">
<title>Node1&#45;&gt;Node14</title>
<g id="a_edge13_Node000001_Node000014"><a xlink:title=" ">
<path fill="none" stroke="#63b8ff" d="M1306.52,-193.11C1321.9,-183.58 1339.8,-172.48 1353.74,-163.83"/>
<polygon fill="#63b8ff" stroke="#63b8ff" points="1304.79,-190.07 1298.14,-198.32 1308.48,-196.02 1304.79,-190.07"/>
</a>
</g>
</g>
<!-- Node15 -->
<g id="Node000015" class="node">
<title>Node15</title>
<g id="a_Node000015"><a xlink:href="_driver_8cpp.html" target="_top" xlink:title=" ">
<polygon fill="white" stroke="#666666" points="1421.75,-91.38 1282.75,-91.38 1282.75,-72.12 1421.75,-72.12 1421.75,-91.38"/>
<text text-anchor="middle" x="1352.25" y="-77.88" font-family="Helvetica,sans-Serif" font-size="10.00">lib/Frontends/ZIR/Driver.cpp</text>
</a>
</g>
</g>
<!-- Node1&#45;&gt;Node15 -->
<g id="edge17_Node000001_Node000015" class="edge">
<title>Node1&#45;&gt;Node15</title>
<g id="a_edge17_Node000001_Node000015"><a xlink:title=" ">
<path fill="none" stroke="#63b8ff" d="M1283.12,-188.79C1290.04,-172.41 1300.05,-150.79 1311.25,-133 1320.97,-117.57 1334.81,-101.54 1343.66,-91.86"/>
<polygon fill="#63b8ff" stroke="#63b8ff" points="1279.98,-187.22 1279.41,-197.8 1286.45,-189.88 1279.98,-187.22"/>
</a>
</g>
</g>
<!-- Node16 -->
<g id="Node000016" class="node">
<title>Node16</title>
<g id="a_Node000016"><a xlink:href="zklang-opt_2main_8cpp.html" target="_top" xlink:title=" ">
<polygon fill="white" stroke="#666666" points="1567.12,-91.38 1439.38,-91.38 1439.38,-72.12 1567.12,-72.12 1567.12,-91.38"/>
<text text-anchor="middle" x="1503.25" y="-77.88" font-family="Helvetica,sans-Serif" font-size="10.00">tools/zklang&#45;opt/main.cpp</text>
</a>
</g>
</g>
<!-- Node1&#45;&gt;Node16 -->
<g id="edge20_Node000001_Node000016" class="edge">
<title>Node1&#45;&gt;Node16</title>
<g id="a_edge20_Node000001_Node000016"><a xlink:title=" ">
<path fill="none" stroke="#63b8ff" d="M1340.62,-204.16C1373.76,-197 1412.99,-184.63 1443.25,-163.5 1470.74,-144.3 1490.75,-108.48 1499.03,-91.77"/>
<polygon fill="#63b8ff" stroke="#63b8ff" points="1340.22,-200.67 1331.12,-206.1 1341.62,-207.53 1340.22,-200.67"/>
</a>
</g>
</g>
<!-- Node17 -->
<g id="Node000017" class="node">
<title>Node17</title>
<g id="a_Node000017"><a xlink:href="_dialect_8cpp.html" target="_top" xlink:title=" ">
<polygon fill="white" stroke="#666666" points="1586,-163.5 1490.5,-163.5 1490.5,-133 1586,-133 1586,-163.5"/>
<text text-anchor="start" x="1498.5" y="-150" font-family="Helvetica,sans-Serif" font-size="10.00">lib/Dialect/ZML/IR</text>
<text text-anchor="middle" x="1538.25" y="-138.75" font-family="Helvetica,sans-Serif" font-size="10.00">/Dialect.cpp</text>
</a>
</g>
</g>
<!-- Node1&#45;&gt;Node17 -->
<g id="edge16_Node000001_Node000017" class="edge">
<title>Node1&#45;&gt;Node17</title>
<g id="a_edge16_Node000001_Node000017"><a xlink:title=" ">
<path fill="none" stroke="#63b8ff" d="M1340.39,-197.41C1387.08,-186.04 1448.24,-171.16 1490.13,-160.96"/>
<polygon fill="#63b8ff" stroke="#63b8ff" points="1339.81,-193.95 1330.92,-199.71 1341.46,-200.75 1339.81,-193.95"/>
</a>
</g>
</g>
<!-- Node3 -->
<g id="Node000003" class="node">
<title>Node3</title>
<g id="a_Node000003"><a xlink:href="_inject_built_ins_8cpp.html" target="_top" xlink:title=" ">
<polygon fill="white" stroke="#666666" points="593.5,-97 459,-97 459,-66.5 593.5,-66.5 593.5,-97"/>
<text text-anchor="start" x="467" y="-83.5" font-family="Helvetica,sans-Serif" font-size="10.00">lib/Dialect/ZML/Transforms</text>
<text text-anchor="middle" x="526.25" y="-72.25" font-family="Helvetica,sans-Serif" font-size="10.00">/InjectBuiltIns.cpp</text>
</a>
</g>
</g>
<!-- Node2&#45;&gt;Node3 -->
<g id="edge2_Node000002_Node000003" class="edge">
<title>Node2&#45;&gt;Node3</title>
<g id="a_edge2_Node000002_Node000003"><a xlink:title=" ">
<path fill="none" stroke="#63b8ff" d="M476.18,-125.24C487.04,-116.03 499.37,-105.56 509.07,-97.33"/>
<polygon fill="#63b8ff" stroke="#63b8ff" points="474.01,-122.5 468.65,-131.63 478.54,-127.83 474.01,-122.5"/>
</a>
</g>
</g>
<!-- Node4 -->
<g id="Node000004" class="node">
<title>Node4</title>
<g id="a_Node000004"><a xlink:href="_lower_built_ins_8cpp.html" target="_top" xlink:title=" ">
<polygon fill="white" stroke="#666666" points="746.5,-97 612,-97 612,-66.5 746.5,-66.5 746.5,-97"/>
<text text-anchor="start" x="620" y="-83.5" font-family="Helvetica,sans-Serif" font-size="10.00">lib/Dialect/ZML/Transforms</text>
<text text-anchor="middle" x="679.25" y="-72.25" font-family="Helvetica,sans-Serif" font-size="10.00">/LowerBuiltIns.cpp</text>
</a>
</g>
</g>
<!-- Node2&#45;&gt;Node4 -->
<g id="edge3_Node000002_Node000004" class="edge">
<title>Node2&#45;&gt;Node4</title>
<g id="a_edge3_Node000002_Node000004"><a xlink:title=" ">
<path fill="none" stroke="#63b8ff" d="M513.32,-129.49C549.13,-119.4 593.42,-106.93 627.22,-97.4"/>
<polygon fill="#63b8ff" stroke="#63b8ff" points="512.63,-126.04 503.96,-132.12 514.53,-132.78 512.63,-126.04"/>
</a>
</g>
</g>
<!-- Node5 -->
<g id="Node000005" class="node">
<title>Node5</title>
<g id="a_Node000005"><a xlink:href="_remove_built_ins_8cpp.html" target="_top" xlink:title=" ">
<polygon fill="white" stroke="#666666" points="134.5,-97 0,-97 0,-66.5 134.5,-66.5 134.5,-97"/>
<text text-anchor="start" x="8" y="-83.5" font-family="Helvetica,sans-Serif" font-size="10.00">lib/Dialect/ZML/Transforms</text>
<text text-anchor="middle" x="67.25" y="-72.25" font-family="Helvetica,sans-Serif" font-size="10.00">/RemoveBuiltIns.cpp</text>
</a>
</g>
</g>
<!-- Node2&#45;&gt;Node5 -->
<g id="edge4_Node000002_Node000005" class="edge">
<title>Node2&#45;&gt;Node5</title>
<g id="a_edge4_Node000002_Node000005"><a xlink:title=" ">
<path fill="none" stroke="#63b8ff" d="M363.55,-133.49C302.24,-123.65 218.14,-109.9 144.25,-97 141.17,-96.46 138.02,-95.91 134.84,-95.34"/>
<polygon fill="#63b8ff" stroke="#63b8ff" points="362.8,-136.92 373.23,-135.04 363.91,-130 362.8,-136.92"/>
</a>
</g>
</g>
<!-- Node6 -->
<g id="Node000006" class="node">
<title>Node6</title>
<g id="a_Node000006"><a xlink:href="_remove_illegal_ops_8cpp.html" target="_top" xlink:title=" ">
<polygon fill="white" stroke="#666666" points="287.5,-97 153,-97 153,-66.5 287.5,-66.5 287.5,-97"/>
<text text-anchor="start" x="161" y="-83.5" font-family="Helvetica,sans-Serif" font-size="10.00">lib/Dialect/ZML/Transforms</text>
<text text-anchor="middle" x="220.25" y="-72.25" font-family="Helvetica,sans-Serif" font-size="10.00">/RemoveIllegalOps.cpp</text>
</a>
</g>
</g>
<!-- Node2&#45;&gt;Node6 -->
<g id="edge5_Node000002_Node000006" class="edge">
<title>Node2&#45;&gt;Node6</title>
<g id="a_edge5_Node000002_Node000006"><a xlink:title=" ">
<path fill="none" stroke="#63b8ff" d="M386.9,-129.49C350.94,-119.4 306.46,-106.93 272.5,-97.4"/>
<polygon fill="#63b8ff" stroke="#63b8ff" points="385.74,-132.79 396.31,-132.12 387.63,-126.05 385.74,-132.79"/>
</a>
</g>
</g>
<!-- Node7 -->
<g id="Node000007" class="node">
<title>Node7</title>
<g id="a_Node000007"><a xlink:href="_split_component_body_8cpp.html" target="_top" xlink:title=" ">
<polygon fill="white" stroke="#666666" points="440.5,-97 306,-97 306,-66.5 440.5,-66.5 440.5,-97"/>
<text text-anchor="start" x="314" y="-83.5" font-family="Helvetica,sans-Serif" font-size="10.00">lib/Dialect/ZML/Transforms</text>
<text text-anchor="middle" x="373.25" y="-72.25" font-family="Helvetica,sans-Serif" font-size="10.00">/SplitComponentBody.cpp</text>
</a>
</g>
</g>
<!-- Node2&#45;&gt;Node7 -->
<g id="edge6_Node000002_Node000007" class="edge">
<title>Node2&#45;&gt;Node7</title>
<g id="a_edge6_Node000002_Node000007"><a xlink:title=" ">
<path fill="none" stroke="#63b8ff" d="M423.98,-125.24C412.97,-116.03 400.49,-105.56 390.65,-97.33"/>
<polygon fill="#63b8ff" stroke="#63b8ff" points="421.7,-127.9 431.62,-131.64 426.2,-122.54 421.7,-127.9"/>
</a>
</g>
</g>
<!-- Node9 -->
<g id="Node000009" class="node">
<title>Node9</title>
<g id="a_Node000009"><a xlink:href="_convert_zhl_to_zml_2_pass_8h.html" target="_top" xlink:title=" ">
<polygon fill="white" stroke="#666666" points="930.12,-97 802.38,-97 802.38,-66.5 930.12,-66.5 930.12,-97"/>
<text text-anchor="start" x="810.38" y="-83.5" font-family="Helvetica,sans-Serif" font-size="10.00">include/zklang/Passes</text>
<text text-anchor="middle" x="866.25" y="-72.25" font-family="Helvetica,sans-Serif" font-size="10.00">/ConvertZhlToZml/Pass.h</text>
</a>
</g>
</g>
<!-- Node8&#45;&gt;Node9 -->
<g id="edge8_Node000008_Node000009" class="edge">
<title>Node8&#45;&gt;Node9</title>
<g id="a_edge8_Node000008_Node000009"><a xlink:title=" ">
<path fill="none" stroke="#63b8ff" d="M1025.21,-129.35C990.89,-119.29 948.57,-106.89 916.23,-97.4"/>
<polygon fill="#63b8ff" stroke="#63b8ff" points="1024.02,-132.65 1034.6,-132.11 1025.99,-125.94 1024.02,-132.65"/>
</a>
</g>
</g>
<!-- Node11 -->
<g id="Node000011" class="node">
<title>Node11</title>
<g id="a_Node000011"><a xlink:href="_convert_zml_to_llzk_2_pass_8h.html" target="_top" xlink:title=" ">
<polygon fill="white" stroke="#666666" points="1226.38,-97 1094.12,-97 1094.12,-66.5 1226.38,-66.5 1226.38,-97"/>
<text text-anchor="start" x="1102.12" y="-83.5" font-family="Helvetica,sans-Serif" font-size="10.00">include/zklang/Passes</text>
<text text-anchor="middle" x="1160.25" y="-72.25" font-family="Helvetica,sans-Serif" font-size="10.00">/ConvertZmlToLlzk/Pass.h</text>
</a>
</g>
</g>
<!-- Node8&#45;&gt;Node11 -->
<g id="edge10_Node000008_Node000011" class="edge">
<title>Node8&#45;&gt;Node11</title>
<g id="a_edge10_Node000008_Node000011"><a xlink:title=" ">
<path fill="none" stroke="#63b8ff" d="M1111.5,-125.24C1122.07,-116.03 1134.08,-105.56 1143.52,-97.33"/>
<polygon fill="#63b8ff" stroke="#63b8ff" points="1109.42,-122.41 1104.18,-131.62 1114.02,-127.69 1109.42,-122.41"/>
</a>
</g>
</g>
<!-- Node13 -->
<g id="Node000013" class="node">
<title>Node13</title>
<g id="a_Node000013"><a xlink:href="_strip_tests_8cpp.html" target="_top" xlink:title=" ">
<polygon fill="white" stroke="#666666" points="1076.12,-91.38 948.38,-91.38 948.38,-72.12 1076.12,-72.12 1076.12,-91.38"/>
<text text-anchor="middle" x="1012.25" y="-77.88" font-family="Helvetica,sans-Serif" font-size="10.00">lib/Passes/StripTests.cpp</text>
</a>
</g>
</g>
<!-- Node8&#45;&gt;Node13 -->
<g id="edge12_Node000008_Node000013" class="edge">
<title>Node8&#45;&gt;Node13</title>
<g id="a_edge12_Node000008_Node000013"><a xlink:title=" ">
<path fill="none" stroke="#63b8ff" d="M1061.15,-125.37C1047.87,-113.8 1032.31,-100.24 1022.37,-91.57"/>
<polygon fill="#63b8ff" stroke="#63b8ff" points="1058.48,-127.69 1068.32,-131.62 1063.08,-122.41 1058.48,-127.69"/>
</a>
</g>
</g>
<!-- Node9&#45;&gt;Node10 -->
<g id="edge9_Node000009_Node000010" class="edge">
<title>Node9&#45;&gt;Node10</title>
<g id="a_edge9_Node000009_Node000010"><a xlink:title=" ">
<path fill="none" stroke="#63b8ff" d="M849.16,-56.79C842.94,-48.07 836.11,-38.49 830.65,-30.83"/>
<polygon fill="#63b8ff" stroke="#63b8ff" points="846.28,-58.77 854.93,-64.88 851.98,-54.71 846.28,-58.77"/>
</a>
</g>
</g>
<!-- Node11&#45;&gt;Node12 -->
<g id="edge11_Node000011_Node000012" class="edge">
<title>Node11&#45;&gt;Node12</title>
<g id="a_edge11_Node000011_Node000012"><a xlink:title=" ">
<path fill="none" stroke="#63b8ff" d="M1177.51,-57.07C1183.91,-48.28 1190.99,-38.57 1196.63,-30.83"/>
<polygon fill="#63b8ff" stroke="#63b8ff" points="1174.87,-54.75 1171.81,-64.89 1180.52,-58.87 1174.87,-54.75"/>
</a>
</g>
</g>
<!-- Node14&#45;&gt;Node15 -->
<g id="edge14_Node000014_Node000015" class="edge">
<title>Node14&#45;&gt;Node15</title>
<g id="a_edge14_Node000014_Node000015"><a xlink:title=" ">
<path fill="none" stroke="#63b8ff" d="M1367.47,-122.02C1363.3,-111.26 1358.71,-99.41 1355.67,-91.57"/>
<polygon fill="#63b8ff" stroke="#63b8ff" points="1364.15,-123.14 1371.03,-131.2 1370.68,-120.61 1364.15,-123.14"/>
</a>
</g>
</g>
<!-- Node14&#45;&gt;Node16 -->
<g id="edge15_Node000014_Node000016" class="edge">
<title>Node14&#45;&gt;Node16</title>
<g id="a_edge15_Node000014_Node000016"><a xlink:title=" ">
<path fill="none" stroke="#63b8ff" d="M1415.78,-127.53C1439.07,-115.6 1467.64,-100.98 1485.65,-91.76"/>
<polygon fill="#63b8ff" stroke="#63b8ff" points="1414.5,-124.25 1407.19,-131.92 1417.68,-130.48 1414.5,-124.25"/>
</a>
</g>
</g>
</g>
</svg>
