<?xml version="1.0" encoding="UTF-8" standalone="no"?>
<!DOCTYPE svg PUBLIC "-//W3C//DTD SVG 1.1//EN"
 "http://www.w3.org/Graphics/SVG/1.1/DTD/svg11.dtd">
<!-- Generated by graphviz version 12.2.1 (20241206.2353)
 -->
<!-- Title: include/zklang/Dialect/ZML/Utils/Patterns.h Pages: 1 -->
<svg width="304pt" height="105pt"
 viewBox="0.00 0.00 304.38 105.00" xmlns="http://www.w3.org/2000/svg" xmlns:xlink="http://www.w3.org/1999/xlink">
<g id="graph0" class="graph" transform="scale(1 1) rotate(0) translate(4 101)">
<title>include/zklang/Dialect/ZML/Utils/Patterns.h</title>
<!-- Node1 -->
<g id="Node000001" class="node">
<title>Node1</title>
<g id="a_Node000001"><a xlink:title=" ">
<polygon fill="#999999" stroke="#666666" points="201.25,-97 89.25,-97 89.25,-66.5 201.25,-66.5 201.25,-97"/>
<text text-anchor="start" x="97.25" y="-83.5" font-family="Helvetica,sans-Serif" font-size="10.00">include/zklang/Dialect</text>
<text text-anchor="middle" x="145.25" y="-72.25" font-family="Helvetica,sans-Serif" font-size="10.00">/ZML/Utils/Patterns.h</text>
</a>
</g>
</g>
<!-- Node2 -->
<g id="Node000002" class="node">
<title>Node2</title>
<g id="a_Node000002"><a xlink:href="_remove_illegal_ops_8cpp.html" target="_top" xlink:title=" ">
<polygon fill="white" stroke="#666666" points="134.5,-30.5 0,-30.5 0,0 134.5,0 134.5,-30.5"/>
<text text-anchor="start" x="8" y="-17" font-family="Helvetica,sans-Serif" font-size="10.00">lib/Dialect/ZML/Transforms</text>
<text text-anchor="middle" x="67.25" y="-5.75" font-family="Helvetica,sans-Serif" font-size="10.00">/RemoveIllegalOps.cpp</text>
</a>
</g>
</g>
<!-- Node1&#45;&gt;Node2 -->
<g id="edge1_Node000001_Node000002" class="edge">
<title>Node1&#45;&gt;Node2</title>
<g id="a_edge1_Node000001_Node000002"><a xlink:title=" ">
<path fill="none" stroke="#63b8ff" d="M118.97,-59.02C107.74,-49.73 94.94,-39.15 84.88,-30.83"/>
<polygon fill="#63b8ff" stroke="#63b8ff" points="116.45,-61.47 126.38,-65.15 120.91,-56.08 116.45,-61.47"/>
</a>
</g>
</g>
<!-- Node3 -->
<g id="Node000003" class="node">
<title>Node3</title>
<g id="a_Node000003"><a xlink:href="_convert_zml_to_llzk_2_pass_8cpp.html" target="_top" xlink:title=" ">
<polygon fill="white" stroke="#666666" points="296.38,-30.5 152.12,-30.5 152.12,0 296.38,0 296.38,-30.5"/>
<text text-anchor="start" x="160.12" y="-17" font-family="Helvetica,sans-Serif" font-size="10.00">lib/Passes/ConvertZmlToLlzk</text>
<text text-anchor="middle" x="224.25" y="-5.75" font-family="Helvetica,sans-Serif" font-size="10.00">/Pass.cpp</text>
</a>
</g>
</g>
<!-- Node1&#45;&gt;Node3 -->
<g id="edge2_Node000001_Node000003" class="edge">
<title>Node1&#45;&gt;Node3</title>
<g id="a_edge2_Node000001_Node000003"><a xlink:title=" ">
<path fill="none" stroke="#63b8ff" d="M171.87,-59.02C183.24,-49.73 196.21,-39.15 206.39,-30.83"/>
<polygon fill="#63b8ff" stroke="#63b8ff" points="169.88,-56.12 164.35,-65.16 174.31,-61.54 169.88,-56.12"/>
</a>
</g>
</g>
</g>
</svg>
