<?xml version="1.0" encoding="UTF-8" standalone="no"?>
<!DOCTYPE svg PUBLIC "-//W3C//DTD SVG 1.1//EN"
 "http://www.w3.org/Graphics/SVG/1.1/DTD/svg11.dtd">
<!-- Generated by graphviz version 12.2.1 (20241206.2353)
 -->
<!-- Title: include/zklang/Dialect/ZML/IR/Dialect.h Pages: 1 -->
<svg width="570pt" height="105pt"
 viewBox="0.00 0.00 570.25 105.00" xmlns="http://www.w3.org/2000/svg" xmlns:xlink="http://www.w3.org/1999/xlink">
<g id="graph0" class="graph" transform="scale(1 1) rotate(0) translate(4 101)">
<title>include/zklang/Dialect/ZML/IR/Dialect.h</title>
<!-- Node1 -->
<g id="Node000001" class="node">
<title>Node1</title>
<g id="a_Node000001"><a xlink:title=" ">
<polygon fill="#999999" stroke="#666666" points="342.88,-97 230.88,-97 230.88,-66.5 342.88,-66.5 342.88,-97"/>
<text text-anchor="start" x="238.88" y="-83.5" font-family="Helvetica,sans-Serif" font-size="10.00">include/zklang/Dialect</text>
<text text-anchor="middle" x="286.88" y="-72.25" font-family="Helvetica,sans-Serif" font-size="10.00">/ZML/IR/Dialect.h</text>
</a>
</g>
</g>
<!-- Node2 -->
<g id="Node000002" class="node">
<title>Node2</title>
<g id="a_Node000002"><a xlink:title=" ">
<polygon fill="#e0e0e0" stroke="#999999" points="103.75,-30.5 0,-30.5 0,0 103.75,0 103.75,-30.5"/>
<text text-anchor="start" x="8" y="-17" font-family="Helvetica,sans-Serif" font-size="10.00">mlir/Dialect/Func/IR</text>
<text text-anchor="middle" x="51.88" y="-5.75" font-family="Helvetica,sans-Serif" font-size="10.00">/FuncOps.h</text>
</a>
</g>
</g>
<!-- Node1&#45;&gt;Node2 -->
<g id="edge1_Node000001_Node000002" class="edge">
<title>Node1&#45;&gt;Node2</title>
<g id="a_edge1_Node000001_Node000002"><a xlink:title=" ">
<path fill="none" stroke="#63b8ff" d="M233.26,-66.03C197.99,-56.35 151.7,-43.65 114.71,-33.5"/>
<polygon fill="#63b8ff" stroke="#63b8ff" points="116.08,-30.24 105.51,-30.97 114.23,-36.99 116.08,-30.24"/>
</a>
</g>
</g>
<!-- Node3 -->
<g id="Node000003" class="node">
<title>Node3</title>
<g id="a_Node000003"><a xlink:title=" ">
<polygon fill="#e0e0e0" stroke="#999999" points="217.62,-30.5 122.12,-30.5 122.12,0 217.62,0 217.62,-30.5"/>
<text text-anchor="start" x="130.12" y="-17" font-family="Helvetica,sans-Serif" font-size="10.00">mlir/Dialect/Index</text>
<text text-anchor="middle" x="169.88" y="-5.75" font-family="Helvetica,sans-Serif" font-size="10.00">/IR/IndexDialect.h</text>
</a>
</g>
</g>
<!-- Node1&#45;&gt;Node3 -->
<g id="edge2_Node000001_Node000003" class="edge">
<title>Node1&#45;&gt;Node3</title>
<g id="a_edge2_Node000001_Node000003"><a xlink:title=" ">
<path fill="none" stroke="#63b8ff" d="M260.33,-66.11C244.32,-57.29 223.71,-45.93 206.21,-36.28"/>
<polygon fill="#63b8ff" stroke="#63b8ff" points="208.09,-33.32 197.64,-31.56 204.71,-39.45 208.09,-33.32"/>
</a>
</g>
</g>
<!-- Node4 -->
<g id="Node000004" class="node">
<title>Node4</title>
<g id="a_Node000004"><a xlink:title=" ">
<polygon fill="#e0e0e0" stroke="#999999" points="338,-30.5 235.75,-30.5 235.75,0 338,0 338,-30.5"/>
<text text-anchor="start" x="243.75" y="-17" font-family="Helvetica,sans-Serif" font-size="10.00">mlir/Dialect/SCF/IR</text>
<text text-anchor="middle" x="286.88" y="-5.75" font-family="Helvetica,sans-Serif" font-size="10.00">/SCF.h</text>
</a>
</g>
</g>
<!-- Node1&#45;&gt;Node4 -->
<g id="edge3_Node000001_Node000004" class="edge">
<title>Node1&#45;&gt;Node4</title>
<g id="a_edge3_Node000001_Node000004"><a xlink:title=" ">
<path fill="none" stroke="#63b8ff" d="M286.88,-66.11C286.88,-59.02 286.88,-50.29 286.88,-42.13"/>
<polygon fill="#63b8ff" stroke="#63b8ff" points="290.38,-42.34 286.88,-32.34 283.38,-42.34 290.38,-42.34"/>
</a>
</g>
</g>
<!-- Node5 -->
<g id="Node000005" class="node">
<title>Node5</title>
<g id="a_Node000005"><a xlink:title=" ">
<polygon fill="#e0e0e0" stroke="#999999" points="443.5,-24.88 356.25,-24.88 356.25,-5.63 443.5,-5.63 443.5,-24.88"/>
<text text-anchor="middle" x="399.88" y="-11.38" font-family="Helvetica,sans-Serif" font-size="10.00">mlir/IR/Dialect.h</text>
</a>
</g>
</g>
<!-- Node1&#45;&gt;Node5 -->
<g id="edge4_Node000001_Node000005" class="edge">
<title>Node1&#45;&gt;Node5</title>
<g id="a_edge4_Node000001_Node000005"><a xlink:title=" ">
<path fill="none" stroke="#63b8ff" d="M312.52,-66.11C331,-55.56 355.84,-41.38 374.31,-30.84"/>
<polygon fill="#63b8ff" stroke="#63b8ff" points="375.83,-34.01 382.78,-26.01 372.36,-27.93 375.83,-34.01"/>
</a>
</g>
</g>
<!-- Node6 -->
<g id="Node000006" class="node">
<title>Node6</title>
<g id="a_Node000006"><a xlink:href="_dialect_8h_8inc.html" target="_top" xlink:title=" ">
<polygon fill="white" stroke="#666666" points="562.25,-30.5 461.5,-30.5 461.5,0 562.25,0 562.25,-30.5"/>
<text text-anchor="start" x="469.5" y="-17" font-family="Helvetica,sans-Serif" font-size="10.00">zklang/Dialect/ZML</text>
<text text-anchor="middle" x="511.88" y="-5.75" font-family="Helvetica,sans-Serif" font-size="10.00">/IR/Dialect.h.inc</text>
</a>
</g>
</g>
<!-- Node1&#45;&gt;Node6 -->
<g id="edge5_Node000001_Node000006" class="edge">
<title>Node1&#45;&gt;Node6</title>
<g id="a_edge5_Node000001_Node000006"><a xlink:title=" ">
<path fill="none" stroke="#63b8ff" d="M338.21,-66.03C371.59,-56.46 415.3,-43.94 450.51,-33.84"/>
<polygon fill="#63b8ff" stroke="#63b8ff" points="451.04,-37.33 459.69,-31.21 449.11,-30.6 451.04,-37.33"/>
</a>
</g>
</g>
</g>
</svg>
