<?xml version="1.0" encoding="UTF-8" standalone="no"?>
<!DOCTYPE svg PUBLIC "-//W3C//DTD SVG 1.1//EN"
 "http://www.w3.org/Graphics/SVG/1.1/DTD/svg11.dtd">
<!-- Generated by graphviz version 12.2.1 (20241206.2353)
 -->
<!-- Title: include/zklang/Dialect/ZHL/Typing/PassDetail.h Pages: 1 -->
<svg width="460pt" height="105pt"
 viewBox="0.00 0.00 459.50 105.00" xmlns="http://www.w3.org/2000/svg" xmlns:xlink="http://www.w3.org/1999/xlink">
<g id="graph0" class="graph" transform="scale(1 1) rotate(0) translate(4 101)">
<title>include/zklang/Dialect/ZHL/Typing/PassDetail.h</title>
<!-- Node1 -->
<g id="Node000001" class="node">
<title>Node1</title>
<g id="a_Node000001"><a xlink:title=" ">
<polygon fill="#999999" stroke="#666666" points="285,-97 156.5,-97 156.5,-66.5 285,-66.5 285,-97"/>
<text text-anchor="start" x="164.5" y="-83.5" font-family="Helvetica,sans-Serif" font-size="10.00">include/zklang/Dialect</text>
<text text-anchor="middle" x="220.75" y="-72.25" font-family="Helvetica,sans-Serif" font-size="10.00">/ZHL/Typing/PassDetail.h</text>
</a>
</g>
</g>
<!-- Node2 -->
<g id="Node000002" class="node">
<title>Node2</title>
<g id="a_Node000002"><a xlink:title=" ">
<polygon fill="#e0e0e0" stroke="#999999" points="101.5,-24.88 0,-24.88 0,-5.63 101.5,-5.63 101.5,-24.88"/>
<text text-anchor="middle" x="50.75" y="-11.38" font-family="Helvetica,sans-Serif" font-size="10.00">mlir/IR/BuiltinOps.h</text>
</a>
</g>
</g>
<!-- Node1&#45;&gt;Node2 -->
<g id="edge1_Node000001_Node000002" class="edge">
<title>Node1&#45;&gt;Node2</title>
<g id="a_edge1_Node000001_Node000002"><a xlink:title=" ">
<path fill="none" stroke="#63b8ff" d="M182.17,-66.11C152.94,-55.02 113.15,-39.92 85.03,-29.25"/>
<polygon fill="#63b8ff" stroke="#63b8ff" points="86.5,-26.07 75.91,-25.8 84.02,-32.62 86.5,-26.07"/>
</a>
</g>
</g>
<!-- Node3 -->
<g id="Node000003" class="node">
<title>Node3</title>
<g id="a_Node000003"><a xlink:title=" ">
<polygon fill="#e0e0e0" stroke="#999999" points="210.25,-24.88 119.25,-24.88 119.25,-5.63 210.25,-5.63 210.25,-24.88"/>
<text text-anchor="middle" x="164.75" y="-11.38" font-family="Helvetica,sans-Serif" font-size="10.00">mlir/Pass/Pass.h</text>
</a>
</g>
</g>
<!-- Node1&#45;&gt;Node3 -->
<g id="edge2_Node000001_Node000003" class="edge">
<title>Node1&#45;&gt;Node3</title>
<g id="a_edge2_Node000001_Node000003"><a xlink:title=" ">
<path fill="none" stroke="#63b8ff" d="M208.04,-66.11C199.64,-56.44 188.59,-43.71 179.76,-33.54"/>
<polygon fill="#63b8ff" stroke="#63b8ff" points="182.6,-31.47 173.4,-26.22 177.32,-36.06 182.6,-31.47"/>
</a>
</g>
</g>
<!-- Node4 -->
<g id="Node000004" class="node">
<title>Node4</title>
<g id="a_Node000004"><a xlink:title=" ">
<polygon fill="#e0e0e0" stroke="#999999" points="325.62,-30.5 227.88,-30.5 227.88,0 325.62,0 325.62,-30.5"/>
<text text-anchor="start" x="235.88" y="-17" font-family="Helvetica,sans-Serif" font-size="10.00">zirgen/Dialect/ZHL</text>
<text text-anchor="middle" x="276.75" y="-5.75" font-family="Helvetica,sans-Serif" font-size="10.00">/IR/ZHL.h</text>
</a>
</g>
</g>
<!-- Node1&#45;&gt;Node4 -->
<g id="edge3_Node000001_Node000004" class="edge">
<title>Node1&#45;&gt;Node4</title>
<g id="a_edge3_Node000001_Node000004"><a xlink:title=" ">
<path fill="none" stroke="#63b8ff" d="M233.46,-66.11C240.33,-58.2 248.98,-48.24 256.73,-39.3"/>
<polygon fill="#63b8ff" stroke="#63b8ff" points="259.19,-41.82 263.1,-31.97 253.9,-37.23 259.19,-41.82"/>
</a>
</g>
</g>
<!-- Node5 -->
<g id="Node000005" class="node">
<title>Node5</title>
<g id="a_Node000005"><a xlink:href="_dialect_2_z_h_l_2_typing_2_passes_8h_8inc.html" target="_top" xlink:title=" ">
<polygon fill="white" stroke="#666666" points="451.5,-30.5 344,-30.5 344,0 451.5,0 451.5,-30.5"/>
<text text-anchor="start" x="352" y="-17" font-family="Helvetica,sans-Serif" font-size="10.00">zklang/Dialect/ZHL</text>
<text text-anchor="middle" x="397.75" y="-5.75" font-family="Helvetica,sans-Serif" font-size="10.00">/Typing/Passes.h.inc</text>
</a>
</g>
</g>
<!-- Node1&#45;&gt;Node5 -->
<g id="edge4_Node000001_Node000005" class="edge">
<title>Node1&#45;&gt;Node5</title>
<g id="a_edge4_Node000001_Node000005"><a xlink:title=" ">
<path fill="none" stroke="#63b8ff" d="M260.91,-66.11C286.4,-56.83 319.59,-44.73 346.9,-34.78"/>
<polygon fill="#63b8ff" stroke="#63b8ff" points="347.82,-38.17 356.02,-31.46 345.42,-31.59 347.82,-38.17"/>
</a>
</g>
</g>
</g>
</svg>
