<?xml version="1.0" encoding="UTF-8" standalone="no"?>
<!DOCTYPE svg PUBLIC "-//W3C//DTD SVG 1.1//EN"
 "http://www.w3.org/Graphics/SVG/1.1/DTD/svg11.dtd">
<!-- Generated by graphviz version 12.2.1 (20241206.2353)
 -->
<!-- Title: lib/Dialect/ZML/IR/Dialect.cpp Pages: 1 -->
<svg width="2349pt" height="305pt"
 viewBox="0.00 0.00 2348.62 304.50" xmlns="http://www.w3.org/2000/svg" xmlns:xlink="http://www.w3.org/1999/xlink">
<g id="graph0" class="graph" transform="scale(1 1) rotate(0) translate(4 300.5)">
<title>lib/Dialect/ZML/IR/Dialect.cpp</title>
<!-- Node1 -->
<g id="Node000001" class="node">
<title>Node1</title>
<g id="a_Node000001"><a xlink:title=" ">
<polygon fill="#999999" stroke="#666666" points="1495.75,-296.5 1400.25,-296.5 1400.25,-266 1495.75,-266 1495.75,-296.5"/>
<text text-anchor="start" x="1408.25" y="-283" font-family="Helvetica,sans-Serif" font-size="10.00">lib/Dialect/ZML/IR</text>
<text text-anchor="middle" x="1448" y="-271.75" font-family="Helvetica,sans-Serif" font-size="10.00">/Dialect.cpp</text>
</a>
</g>
</g>
<!-- Node2 -->
<g id="Node000002" class="node">
<title>Node2</title>
<g id="a_Node000002"><a xlink:title=" ">
<polygon fill="#e0e0e0" stroke="#999999" points="849.38,-230 760.62,-230 760.62,-199.5 849.38,-199.5 849.38,-230"/>
<text text-anchor="start" x="768.62" y="-216.5" font-family="Helvetica,sans-Serif" font-size="10.00">mlir/Dialect/Arith</text>
<text text-anchor="middle" x="805" y="-205.25" font-family="Helvetica,sans-Serif" font-size="10.00">/IR/Arith.h</text>
</a>
</g>
</g>
<!-- Node1&#45;&gt;Node2 -->
<g id="edge1_Node000001_Node000002" class="edge">
<title>Node1&#45;&gt;Node2</title>
<g id="a_edge1_Node000001_Node000002"><a xlink:title=" ">
<path fill="none" stroke="#63b8ff" d="M1399.92,-278.96C1300.83,-275.7 1066.62,-264.87 860.98,-230.11"/>
<polygon fill="#63b8ff" stroke="#63b8ff" points="861.6,-226.67 851.15,-228.43 860.41,-233.57 861.6,-226.67"/>
</a>
</g>
</g>
<!-- Node3 -->
<g id="Node000003" class="node">
<title>Node3</title>
<g id="a_Node000003"><a xlink:title=" ">
<polygon fill="#e0e0e0" stroke="#999999" points="960.25,-230 867.75,-230 867.75,-199.5 960.25,-199.5 960.25,-230"/>
<text text-anchor="start" x="875.75" y="-216.5" font-family="Helvetica,sans-Serif" font-size="10.00">mlir/Dialect/Index</text>
<text text-anchor="middle" x="914" y="-205.25" font-family="Helvetica,sans-Serif" font-size="10.00">/IR/IndexOps.h</text>
</a>
</g>
</g>
<!-- Node1&#45;&gt;Node3 -->
<g id="edge2_Node000001_Node000003" class="edge">
<title>Node1&#45;&gt;Node3</title>
<g id="a_edge2_Node000001_Node000003"><a xlink:title=" ">
<path fill="none" stroke="#63b8ff" d="M1399.85,-277.5C1315.22,-272.16 1134.23,-258.5 971.81,-230.13"/>
<polygon fill="#63b8ff" stroke="#63b8ff" points="972.59,-226.72 962.13,-228.42 971.37,-233.61 972.59,-226.72"/>
</a>
</g>
</g>
<!-- Node4 -->
<g id="Node000004" class="node">
<title>Node4</title>
<g id="a_Node000004"><a xlink:title=" ">
<polygon fill="#e0e0e0" stroke="#999999" points="1077.25,-224.38 978.75,-224.38 978.75,-205.12 1077.25,-205.12 1077.25,-224.38"/>
<text text-anchor="middle" x="1028" y="-210.88" font-family="Helvetica,sans-Serif" font-size="10.00">mlir/IR/Attributes.h</text>
</a>
</g>
</g>
<!-- Node1&#45;&gt;Node4 -->
<g id="edge3_Node000001_Node000004" class="edge">
<title>Node1&#45;&gt;Node4</title>
<g id="a_edge3_Node000001_Node000004"><a xlink:title=" ">
<path fill="none" stroke="#63b8ff" d="M1400.02,-275.18C1330.46,-267.48 1197.7,-251.42 1086,-230 1081.94,-229.22 1077.74,-228.34 1073.54,-227.41"/>
<polygon fill="#63b8ff" stroke="#63b8ff" points="1074.54,-224.05 1064,-225.19 1072.95,-230.86 1074.54,-224.05"/>
</a>
</g>
</g>
<!-- Node5 -->
<g id="Node000005" class="node">
<title>Node5</title>
<g id="a_Node000005"><a xlink:title=" ">
<polygon fill="#e0e0e0" stroke="#999999" points="1220.75,-224.38 1095.25,-224.38 1095.25,-205.12 1220.75,-205.12 1220.75,-224.38"/>
<text text-anchor="middle" x="1158" y="-210.88" font-family="Helvetica,sans-Serif" font-size="10.00">mlir/IR/BuiltinAttributes.h</text>
</a>
</g>
</g>
<!-- Node1&#45;&gt;Node5 -->
<g id="edge4_Node000001_Node000005" class="edge">
<title>Node1&#45;&gt;Node5</title>
<g id="a_edge4_Node000001_Node000005"><a xlink:title=" ">
<path fill="none" stroke="#63b8ff" d="M1399.79,-269.53C1347.31,-257.86 1263.71,-239.26 1209.84,-227.28"/>
<polygon fill="#63b8ff" stroke="#63b8ff" points="1210.82,-223.91 1200.3,-225.16 1209.3,-230.75 1210.82,-223.91"/>
</a>
</g>
</g>
<!-- Node6 -->
<g id="Node000006" class="node">
<title>Node6</title>
<g id="a_Node000006"><a xlink:title=" ">
<polygon fill="#e0e0e0" stroke="#999999" points="154,-157.88 0,-157.88 0,-138.62 154,-138.62 154,-157.88"/>
<text text-anchor="middle" x="77" y="-144.38" font-family="Helvetica,sans-Serif" font-size="10.00">mlir/IR/DialectImplementation.h</text>
</a>
</g>
</g>
<!-- Node1&#45;&gt;Node6 -->
<g id="edge5_Node000001_Node000006" class="edge">
<title>Node1&#45;&gt;Node6</title>
<g id="a_edge5_Node000001_Node000006"><a xlink:title=" ">
<path fill="none" stroke="#63b8ff" d="M1399.82,-272.3C1362.4,-264.84 1310,-251.56 1268,-230 1248.73,-220.11 1250.31,-207.03 1230,-199.5 1118.77,-158.26 281.04,-175.22 163,-163.5 154.32,-162.64 145.18,-161.44 136.24,-160.1"/>
<polygon fill="#63b8ff" stroke="#63b8ff" points="136.98,-156.68 126.56,-158.59 135.9,-163.59 136.98,-156.68"/>
</a>
</g>
</g>
<!-- Node7 -->
<g id="Node000007" class="node">
<title>Node7</title>
<g id="a_Node000007"><a xlink:title=" ">
<polygon fill="#e0e0e0" stroke="#999999" points="1500.25,-224.38 1395.75,-224.38 1395.75,-205.12 1500.25,-205.12 1500.25,-224.38"/>
<text text-anchor="middle" x="1448" y="-210.88" font-family="Helvetica,sans-Serif" font-size="10.00">mlir/Support/LLVM.h</text>
</a>
</g>
</g>
<!-- Node1&#45;&gt;Node7 -->
<g id="edge6_Node000001_Node000007" class="edge">
<title>Node1&#45;&gt;Node7</title>
<g id="a_edge6_Node000001_Node000007"><a xlink:title=" ">
<path fill="none" stroke="#63b8ff" d="M1448,-265.61C1448,-256.83 1448,-245.52 1448,-235.9"/>
<polygon fill="#63b8ff" stroke="#63b8ff" points="1451.5,-236.09 1448,-226.09 1444.5,-236.09 1451.5,-236.09"/>
</a>
</g>
</g>
<!-- Node8 -->
<g id="Node000008" class="node">
<title>Node8</title>
<g id="a_Node000008"><a xlink:href="_attrs_8h.html" target="_top" xlink:title=" ">
<polygon fill="white" stroke="#666666" points="1377.38,-230 1276.62,-230 1276.62,-199.5 1377.38,-199.5 1377.38,-230"/>
<text text-anchor="start" x="1284.62" y="-216.5" font-family="Helvetica,sans-Serif" font-size="10.00">zklang/Dialect/ZML</text>
<text text-anchor="middle" x="1327" y="-205.25" font-family="Helvetica,sans-Serif" font-size="10.00">/IR/Attrs.h</text>
</a>
</g>
</g>
<!-- Node1&#45;&gt;Node8 -->
<g id="edge7_Node000001_Node000008" class="edge">
<title>Node1&#45;&gt;Node8</title>
<g id="a_edge7_Node000001_Node000008"><a xlink:title=" ">
<path fill="none" stroke="#63b8ff" d="M1420.54,-265.61C1403.91,-256.75 1382.48,-245.32 1364.32,-235.64"/>
<polygon fill="#63b8ff" stroke="#63b8ff" points="1366.15,-232.66 1355.68,-231.04 1362.86,-238.83 1366.15,-232.66"/>
</a>
</g>
</g>
<!-- Node10 -->
<g id="Node000010" class="node">
<title>Node10</title>
<g id="a_Node000010"><a xlink:href="_dialect_8h.html" target="_top" xlink:title=" ">
<polygon fill="white" stroke="#666666" points="1850.38,-230 1749.62,-230 1749.62,-199.5 1850.38,-199.5 1850.38,-230"/>
<text text-anchor="start" x="1757.62" y="-216.5" font-family="Helvetica,sans-Serif" font-size="10.00">zklang/Dialect/ZML</text>
<text text-anchor="middle" x="1800" y="-205.25" font-family="Helvetica,sans-Serif" font-size="10.00">/IR/Dialect.h</text>
</a>
</g>
</g>
<!-- Node1&#45;&gt;Node10 -->
<g id="edge10_Node000001_Node000010" class="edge">
<title>Node1&#45;&gt;Node10</title>
<g id="a_edge10_Node000001_Node000010"><a xlink:title=" ">
<path fill="none" stroke="#63b8ff" d="M1496.21,-271.42C1559.08,-259.9 1669.15,-239.73 1738.12,-227.09"/>
<polygon fill="#63b8ff" stroke="#63b8ff" points="1738.55,-230.57 1747.76,-225.32 1737.29,-223.68 1738.55,-230.57"/>
</a>
</g>
</g>
<!-- Node16 -->
<g id="Node000016" class="node">
<title>Node16</title>
<g id="a_Node000016"><a xlink:href="_ops_8h.html" target="_top" xlink:title=" ">
<polygon fill="white" stroke="#666666" points="1619.38,-230 1518.62,-230 1518.62,-199.5 1619.38,-199.5 1619.38,-230"/>
<text text-anchor="start" x="1526.62" y="-216.5" font-family="Helvetica,sans-Serif" font-size="10.00">zklang/Dialect/ZML</text>
<text text-anchor="middle" x="1569" y="-205.25" font-family="Helvetica,sans-Serif" font-size="10.00">/IR/Ops.h</text>
</a>
</g>
</g>
<!-- Node1&#45;&gt;Node16 -->
<g id="edge16_Node000001_Node000016" class="edge">
<title>Node1&#45;&gt;Node16</title>
<g id="a_edge16_Node000001_Node000016"><a xlink:title=" ">
<path fill="none" stroke="#63b8ff" d="M1475.46,-265.61C1492.09,-256.75 1513.52,-245.32 1531.68,-235.64"/>
<polygon fill="#63b8ff" stroke="#63b8ff" points="1533.14,-238.83 1540.32,-231.04 1529.85,-232.66 1533.14,-238.83"/>
</a>
</g>
</g>
<!-- Node40 -->
<g id="Node000040" class="node">
<title>Node40</title>
<g id="a_Node000040"><a xlink:href="_dialect_8cpp_8inc.html" target="_top" xlink:title=" ">
<polygon fill="white" stroke="#666666" points="1969.38,-230 1868.62,-230 1868.62,-199.5 1969.38,-199.5 1969.38,-230"/>
<text text-anchor="start" x="1876.62" y="-216.5" font-family="Helvetica,sans-Serif" font-size="10.00">zklang/Dialect/ZML</text>
<text text-anchor="middle" x="1919" y="-205.25" font-family="Helvetica,sans-Serif" font-size="10.00">/IR/Dialect.cpp.inc</text>
</a>
</g>
</g>
<!-- Node1&#45;&gt;Node40 -->
<g id="edge58_Node000001_Node000040" class="edge">
<title>Node1&#45;&gt;Node40</title>
<g id="a_edge58_Node000001_Node000040"><a xlink:title=" ">
<path fill="none" stroke="#63b8ff" d="M1496.04,-276.13C1570.99,-269.32 1720.48,-254.2 1857.26,-230.17"/>
<polygon fill="#63b8ff" stroke="#63b8ff" points="1857.62,-233.66 1866.85,-228.47 1856.4,-226.77 1857.62,-233.66"/>
</a>
</g>
</g>
<!-- Node41 -->
<g id="Node000041" class="node">
<title>Node41</title>
<g id="a_Node000041"><a xlink:href="_types_8cpp_8inc.html" target="_top" xlink:title=" ">
<polygon fill="white" stroke="#666666" points="2088.38,-230 1987.62,-230 1987.62,-199.5 2088.38,-199.5 2088.38,-230"/>
<text text-anchor="start" x="1995.62" y="-216.5" font-family="Helvetica,sans-Serif" font-size="10.00">zklang/Dialect/ZML</text>
<text text-anchor="middle" x="2038" y="-205.25" font-family="Helvetica,sans-Serif" font-size="10.00">/IR/Types.cpp.inc</text>
</a>
</g>
</g>
<!-- Node1&#45;&gt;Node41 -->
<g id="edge59_Node000001_Node000041" class="edge">
<title>Node1&#45;&gt;Node41</title>
<g id="a_edge59_Node000001_Node000041"><a xlink:title=" ">
<path fill="none" stroke="#63b8ff" d="M1496.16,-277.92C1587.72,-273.02 1793.33,-259.68 1976.18,-230.13"/>
<polygon fill="#63b8ff" stroke="#63b8ff" points="1976.57,-233.61 1985.87,-228.54 1975.43,-226.71 1976.57,-233.61"/>
</a>
</g>
</g>
<!-- Node42 -->
<g id="Node000042" class="node">
<title>Node42</title>
<g id="a_Node000042"><a xlink:href="_attrs_8cpp_8inc.html" target="_top" xlink:title=" ">
<polygon fill="white" stroke="#666666" points="2207.38,-230 2106.62,-230 2106.62,-199.5 2207.38,-199.5 2207.38,-230"/>
<text text-anchor="start" x="2114.62" y="-216.5" font-family="Helvetica,sans-Serif" font-size="10.00">zklang/Dialect/ZML</text>
<text text-anchor="middle" x="2157" y="-205.25" font-family="Helvetica,sans-Serif" font-size="10.00">/IR/Attrs.cpp.inc</text>
</a>
</g>
</g>
<!-- Node1&#45;&gt;Node42 -->
<g id="edge60_Node000001_Node000042" class="edge">
<title>Node1&#45;&gt;Node42</title>
<g id="a_edge60_Node000001_Node000042"><a xlink:title=" ">
<path fill="none" stroke="#63b8ff" d="M1495.93,-279.09C1602.12,-275.98 1865.31,-265.25 2095.11,-230.11"/>
<polygon fill="#63b8ff" stroke="#63b8ff" points="2095.53,-233.58 2104.88,-228.59 2094.46,-226.67 2095.53,-233.58"/>
</a>
</g>
</g>
<!-- Node43 -->
<g id="Node000043" class="node">
<title>Node43</title>
<g id="a_Node000043"><a xlink:href="_ops_8cpp_8inc.html" target="_top" xlink:title=" ">
<polygon fill="white" stroke="#666666" points="2326.38,-230 2225.62,-230 2225.62,-199.5 2326.38,-199.5 2326.38,-230"/>
<text text-anchor="start" x="2233.62" y="-216.5" font-family="Helvetica,sans-Serif" font-size="10.00">zklang/Dialect/ZML</text>
<text text-anchor="middle" x="2276" y="-205.25" font-family="Helvetica,sans-Serif" font-size="10.00">/IR/Ops.cpp.inc</text>
</a>
</g>
</g>
<!-- Node1&#45;&gt;Node43 -->
<g id="edge61_Node000001_Node000043" class="edge">
<title>Node1&#45;&gt;Node43</title>
<g id="a_edge61_Node000001_Node000043"><a xlink:title=" ">
<path fill="none" stroke="#63b8ff" d="M1495.93,-279.9C1615.6,-278.43 1937.16,-270.84 2214.29,-230.06"/>
<polygon fill="#63b8ff" stroke="#63b8ff" points="2214.51,-233.56 2223.88,-228.63 2213.47,-226.64 2214.51,-233.56"/>
</a>
</g>
</g>
<!-- Node8&#45;&gt;Node6 -->
<g id="edge8_Node000008_Node000006" class="edge">
<title>Node8&#45;&gt;Node6</title>
<g id="a_edge8_Node000008_Node000006"><a xlink:title=" ">
<path fill="none" stroke="#63b8ff" d="M1276.15,-201.53C1271.72,-200.74 1267.29,-200.04 1263,-199.5 777.72,-138.08 649.78,-211.58 163,-163.5 154.32,-162.64 145.18,-161.45 136.24,-160.11"/>
<polygon fill="#63b8ff" stroke="#63b8ff" points="136.98,-156.69 126.56,-158.59 135.9,-163.6 136.98,-156.69"/>
</a>
</g>
</g>
<!-- Node9 -->
<g id="Node000009" class="node">
<title>Node9</title>
<g id="a_Node000009"><a xlink:href="_attrs_8h_8inc.html" target="_top" xlink:title=" ">
<polygon fill="white" stroke="#666666" points="272.38,-163.5 171.62,-163.5 171.62,-133 272.38,-133 272.38,-163.5"/>
<text text-anchor="start" x="179.62" y="-150" font-family="Helvetica,sans-Serif" font-size="10.00">zklang/Dialect/ZML</text>
<text text-anchor="middle" x="222" y="-138.75" font-family="Helvetica,sans-Serif" font-size="10.00">/IR/Attrs.h.inc</text>
</a>
</g>
</g>
<!-- Node8&#45;&gt;Node9 -->
<g id="edge9_Node000008_Node000009" class="edge">
<title>Node8&#45;&gt;Node9</title>
<g id="a_edge9_Node000008_Node000009"><a xlink:title=" ">
<path fill="none" stroke="#63b8ff" d="M1276.15,-201.55C1271.72,-200.75 1267.29,-200.05 1263,-199.5 832.04,-144.05 716.96,-218.95 286,-163.5 285.33,-163.41 284.66,-163.32 283.98,-163.23"/>
<polygon fill="#63b8ff" stroke="#63b8ff" points="284.78,-159.81 274.35,-161.69 283.67,-166.73 284.78,-159.81"/>
</a>
</g>
</g>
<!-- Node11 -->
<g id="Node000011" class="node">
<title>Node11</title>
<g id="a_Node000011"><a xlink:title=" ">
<polygon fill="#e0e0e0" stroke="#999999" points="2210.88,-30.5 2107.12,-30.5 2107.12,0 2210.88,0 2210.88,-30.5"/>
<text text-anchor="start" x="2115.12" y="-17" font-family="Helvetica,sans-Serif" font-size="10.00">mlir/Dialect/Func/IR</text>
<text text-anchor="middle" x="2159" y="-5.75" font-family="Helvetica,sans-Serif" font-size="10.00">/FuncOps.h</text>
</a>
</g>
</g>
<!-- Node10&#45;&gt;Node11 -->
<g id="edge11_Node000010_Node000011" class="edge">
<title>Node10&#45;&gt;Node11</title>
<g id="a_edge11_Node000010_Node000011"><a xlink:title=" ">
<path fill="none" stroke="#63b8ff" d="M1850.46,-201.34C1893.2,-190.4 1950.82,-174.53 1972,-163.5 1991.21,-153.49 1993.03,-146.46 2010,-133 2052.05,-99.65 2101.1,-61.33 2131.09,-37.96"/>
<polygon fill="#63b8ff" stroke="#63b8ff" points="2133.19,-40.76 2138.93,-31.85 2128.89,-35.24 2133.19,-40.76"/>
</a>
</g>
</g>
<!-- Node12 -->
<g id="Node000012" class="node">
<title>Node12</title>
<g id="a_Node000012"><a xlink:title=" ">
<polygon fill="#e0e0e0" stroke="#999999" points="2114.75,-163.5 2019.25,-163.5 2019.25,-133 2114.75,-133 2114.75,-163.5"/>
<text text-anchor="start" x="2027.25" y="-150" font-family="Helvetica,sans-Serif" font-size="10.00">mlir/Dialect/Index</text>
<text text-anchor="middle" x="2067" y="-138.75" font-family="Helvetica,sans-Serif" font-size="10.00">/IR/IndexDialect.h</text>
</a>
</g>
</g>
<!-- Node10&#45;&gt;Node12 -->
<g id="edge12_Node000010_Node000012" class="edge">
<title>Node10&#45;&gt;Node12</title>
<g id="a_edge12_Node000010_Node000012"><a xlink:title=" ">
<path fill="none" stroke="#63b8ff" d="M1850.85,-201.47C1895.67,-190.64 1960.99,-174.86 2008.08,-163.48"/>
<polygon fill="#63b8ff" stroke="#63b8ff" points="2008.66,-166.94 2017.56,-161.19 2007.02,-160.14 2008.66,-166.94"/>
</a>
</g>
</g>
<!-- Node13 -->
<g id="Node000013" class="node">
<title>Node13</title>
<g id="a_Node000013"><a xlink:title=" ">
<polygon fill="#e0e0e0" stroke="#999999" points="2235.12,-163.5 2132.88,-163.5 2132.88,-133 2235.12,-133 2235.12,-163.5"/>
<text text-anchor="start" x="2140.88" y="-150" font-family="Helvetica,sans-Serif" font-size="10.00">mlir/Dialect/SCF/IR</text>
<text text-anchor="middle" x="2184" y="-138.75" font-family="Helvetica,sans-Serif" font-size="10.00">/SCF.h</text>
</a>
</g>
</g>
<!-- Node10&#45;&gt;Node13 -->
<g id="edge13_Node000010_Node000013" class="edge">
<title>Node10&#45;&gt;Node13</title>
<g id="a_edge13_Node000010_Node000013"><a xlink:title=" ">
<path fill="none" stroke="#63b8ff" d="M1850.66,-201.35C1853.82,-200.69 1856.95,-200.07 1860,-199.5 1972.89,-178.45 2005.62,-184.79 2121.58,-163.83"/>
<polygon fill="#63b8ff" stroke="#63b8ff" points="2121.99,-167.31 2131.19,-162.06 2120.73,-160.43 2121.99,-167.31"/>
</a>
</g>
</g>
<!-- Node14 -->
<g id="Node000014" class="node">
<title>Node14</title>
<g id="a_Node000014"><a xlink:title=" ">
<polygon fill="#e0e0e0" stroke="#999999" points="2340.62,-157.88 2253.38,-157.88 2253.38,-138.62 2340.62,-138.62 2340.62,-157.88"/>
<text text-anchor="middle" x="2297" y="-144.38" font-family="Helvetica,sans-Serif" font-size="10.00">mlir/IR/Dialect.h</text>
</a>
</g>
</g>
<!-- Node10&#45;&gt;Node14 -->
<g id="edge14_Node000010_Node000014" class="edge">
<title>Node10&#45;&gt;Node14</title>
<g id="a_edge14_Node000010_Node000014"><a xlink:title=" ">
<path fill="none" stroke="#63b8ff" d="M1850.64,-201.2C1853.8,-200.58 1856.94,-200 1860,-199.5 2029.13,-171.63 2075.3,-193.86 2244,-163.5 2247.82,-162.81 2251.77,-161.98 2255.7,-161.07"/>
<polygon fill="#63b8ff" stroke="#63b8ff" points="2256.32,-164.53 2265.18,-158.72 2254.63,-157.73 2256.32,-164.53"/>
</a>
</g>
</g>
<!-- Node15 -->
<g id="Node000015" class="node">
<title>Node15</title>
<g id="a_Node000015"><a xlink:href="_dialect_8h_8inc.html" target="_top" xlink:title=" ">
<polygon fill="white" stroke="#666666" points="1963.38,-163.5 1862.62,-163.5 1862.62,-133 1963.38,-133 1963.38,-163.5"/>
<text text-anchor="start" x="1870.62" y="-150" font-family="Helvetica,sans-Serif" font-size="10.00">zklang/Dialect/ZML</text>
<text text-anchor="middle" x="1913" y="-138.75" font-family="Helvetica,sans-Serif" font-size="10.00">/IR/Dialect.h.inc</text>
</a>
</g>
</g>
<!-- Node10&#45;&gt;Node15 -->
<g id="edge15_Node000010_Node000015" class="edge">
<title>Node10&#45;&gt;Node15</title>
<g id="a_edge15_Node000010_Node000015"><a xlink:title=" ">
<path fill="none" stroke="#63b8ff" d="M1825.64,-199.11C1841.1,-190.29 1861.01,-178.93 1877.91,-169.28"/>
<polygon fill="#63b8ff" stroke="#63b8ff" points="1879.2,-172.58 1886.15,-164.58 1875.73,-166.5 1879.2,-172.58"/>
</a>
</g>
</g>
<!-- Node16&#45;&gt;Node11 -->
<g id="edge21_Node000016_Node000011" class="edge">
<title>Node16&#45;&gt;Node11</title>
<g id="a_edge21_Node000016_Node000011"><a xlink:title=" ">
<path fill="none" stroke="#63b8ff" d="M1619.65,-202.14C1659.03,-192.75 1714.88,-178.64 1763,-163.5 1830.34,-142.32 2020.27,-69.75 2110.38,-35.04"/>
<polygon fill="#63b8ff" stroke="#63b8ff" points="2111.64,-38.31 2119.71,-31.45 2109.12,-31.78 2111.64,-38.31"/>
</a>
</g>
</g>
<!-- Node17 -->
<g id="Node000017" class="node">
<title>Node17</title>
<g id="a_Node000017"><a xlink:title=" ">
<polygon fill="#e0e0e0" stroke="#999999" points="1552.75,-24.88 1445.25,-24.88 1445.25,-5.63 1552.75,-5.63 1552.75,-24.88"/>
<text text-anchor="middle" x="1499" y="-11.38" font-family="Helvetica,sans-Serif" font-size="10.00">llvm/ADT/ArrayRef.h</text>
</a>
</g>
</g>
<!-- Node16&#45;&gt;Node17 -->
<g id="edge17_Node000016_Node000017" class="edge">
<title>Node16&#45;&gt;Node17</title>
<g id="a_edge17_Node000016_Node000017"><a xlink:title=" ">
<path fill="none" stroke="#63b8ff" d="M1591.1,-199.09C1602.33,-190.27 1614.87,-177.95 1621,-163.5 1637.84,-123.81 1644.99,-102.32 1621,-66.5 1611.77,-52.71 1573.89,-38.43 1542.76,-28.63"/>
<polygon fill="#63b8ff" stroke="#63b8ff" points="1544.12,-25.39 1533.54,-25.81 1542.07,-32.08 1544.12,-25.39"/>
</a>
</g>
</g>
<!-- Node18 -->
<g id="Node000018" class="node">
<title>Node18</title>
<g id="a_Node000018"><a xlink:title=" ">
<polygon fill="#e0e0e0" stroke="#999999" points="1691.5,-24.88 1570.5,-24.88 1570.5,-5.63 1691.5,-5.63 1691.5,-24.88"/>
<text text-anchor="middle" x="1631" y="-11.38" font-family="Helvetica,sans-Serif" font-size="10.00">llvm/ADT/SmallVector.h</text>
</a>
</g>
</g>
<!-- Node16&#45;&gt;Node18 -->
<g id="edge18_Node000016_Node000018" class="edge">
<title>Node16&#45;&gt;Node18</title>
<g id="a_edge18_Node000016_Node000018"><a xlink:title=" ">
<path fill="none" stroke="#63b8ff" d="M1615.6,-199.06C1632.32,-191.29 1649.4,-179.86 1659,-163.5 1680.82,-126.32 1669.84,-108.23 1659,-66.5 1656.08,-55.25 1650.02,-43.83 1644.28,-34.74"/>
<polygon fill="#63b8ff" stroke="#63b8ff" points="1647.24,-32.86 1638.75,-26.52 1641.44,-36.77 1647.24,-32.86"/>
</a>
</g>
</g>
<!-- Node19 -->
<g id="Node000019" class="node">
<title>Node19</title>
<g id="a_Node000019"><a xlink:title=" ">
<polygon fill="#e0e0e0" stroke="#999999" points="1818.88,-24.88 1709.12,-24.88 1709.12,-5.63 1818.88,-5.63 1818.88,-24.88"/>
<text text-anchor="middle" x="1764" y="-11.38" font-family="Helvetica,sans-Serif" font-size="10.00">llvm/ADT/StringRef.h</text>
</a>
</g>
</g>
<!-- Node16&#45;&gt;Node19 -->
<g id="edge19_Node000016_Node000019" class="edge">
<title>Node16&#45;&gt;Node19</title>
<g id="a_edge19_Node000016_Node000019"><a xlink:title=" ">
<path fill="none" stroke="#63b8ff" d="M1617.47,-199.06C1638.16,-191.02 1661.52,-179.39 1679,-163.5 1719.3,-126.86 1745.66,-66.55 1757.24,-35.72"/>
<polygon fill="#63b8ff" stroke="#63b8ff" points="1760.45,-37.14 1760.56,-26.54 1753.87,-34.76 1760.45,-37.14"/>
</a>
</g>
</g>
<!-- Node20 -->
<g id="Node000020" class="node">
<title>Node20</title>
<g id="a_Node000020"><a xlink:title=" ">
<polygon fill="#e0e0e0" stroke="#999999" points="1969.5,-30.5 1836.5,-30.5 1836.5,0 1969.5,0 1969.5,-30.5"/>
<text text-anchor="start" x="1844.5" y="-17" font-family="Helvetica,sans-Serif" font-size="10.00">mlir/Bytecode/BytecodeOp</text>
<text text-anchor="middle" x="1903" y="-5.75" font-family="Helvetica,sans-Serif" font-size="10.00">Interface.h</text>
</a>
</g>
</g>
<!-- Node16&#45;&gt;Node20 -->
<g id="edge20_Node000016_Node000020" class="edge">
<title>Node16&#45;&gt;Node20</title>
<g id="a_edge20_Node000016_Node000020"><a xlink:title=" ">
<path fill="none" stroke="#63b8ff" d="M1619.74,-202.31C1647.07,-194.46 1680.33,-182.05 1706,-163.5 1750.62,-131.26 1739.12,-99.73 1783,-66.5 1800.55,-53.21 1822.14,-42.75 1842.14,-34.9"/>
<polygon fill="#63b8ff" stroke="#63b8ff" points="1843.19,-38.24 1851.32,-31.45 1840.73,-31.69 1843.19,-38.24"/>
</a>
</g>
</g>
<!-- Node21 -->
<g id="Node000021" class="node">
<title>Node21</title>
<g id="a_Node000021"><a xlink:title=" ">
<polygon fill="#e0e0e0" stroke="#999999" points="2088.75,-24.88 1987.25,-24.88 1987.25,-5.63 2088.75,-5.63 2088.75,-24.88"/>
<text text-anchor="middle" x="2038" y="-11.38" font-family="Helvetica,sans-Serif" font-size="10.00">mlir/IR/BuiltinOps.h</text>
</a>
</g>
</g>
<!-- Node16&#45;&gt;Node21 -->
<g id="edge22_Node000016_Node000021" class="edge">
<title>Node16&#45;&gt;Node21</title>
<g id="a_edge22_Node000016_Node000021"><a xlink:title=" ">
<path fill="none" stroke="#63b8ff" d="M1619.64,-205.72C1653.93,-198.58 1699.16,-185.72 1734,-163.5 1782.83,-132.36 1771.09,-95.87 1821,-66.5 1883.07,-29.98 1908.88,-46.95 1979,-30.5 1982.38,-29.71 1985.87,-28.88 1989.38,-28.05"/>
<polygon fill="#63b8ff" stroke="#63b8ff" points="1990.18,-31.45 1999.09,-25.72 1988.55,-24.65 1990.18,-31.45"/>
</a>
</g>
</g>
<!-- Node22 -->
<g id="Node000022" class="node">
<title>Node22</title>
<g id="a_Node000022"><a xlink:title=" ">
<polygon fill="#e0e0e0" stroke="#999999" points="252.25,-24.88 141.75,-24.88 141.75,-5.63 252.25,-5.63 252.25,-24.88"/>
<text text-anchor="middle" x="197" y="-11.38" font-family="Helvetica,sans-Serif" font-size="10.00">mlir/IR/OpDefinition.h</text>
</a>
</g>
</g>
<!-- Node16&#45;&gt;Node22 -->
<g id="edge23_Node000016_Node000022" class="edge">
<title>Node16&#45;&gt;Node22</title>
<g id="a_edge23_Node000016_Node000022"><a xlink:title=" ">
<path fill="none" stroke="#63b8ff" d="M1518.39,-200.98C1515.23,-200.41 1512.08,-199.91 1509,-199.5 1387.79,-183.29 525.08,-201.96 409,-163.5 326.21,-136.08 246.78,-65.25 213.45,-32.86"/>
<polygon fill="#63b8ff" stroke="#63b8ff" points="216.29,-30.76 206.72,-26.22 211.38,-35.74 216.29,-30.76"/>
</a>
</g>
</g>
<!-- Node23 -->
<g id="Node000023" class="node">
<title>Node23</title>
<g id="a_Node000023"><a xlink:title=" ">
<polygon fill="#e0e0e0" stroke="#999999" points="406,-24.88 270,-24.88 270,-5.63 406,-5.63 406,-24.88"/>
<text text-anchor="middle" x="338" y="-11.38" font-family="Helvetica,sans-Serif" font-size="10.00">mlir/IR/OpImplementation.h</text>
</a>
</g>
</g>
<!-- Node16&#45;&gt;Node23 -->
<g id="edge24_Node000016_Node000023" class="edge">
<title>Node16&#45;&gt;Node23</title>
<g id="a_edge24_Node000016_Node000023"><a xlink:title=" ">
<path fill="none" stroke="#63b8ff" d="M1518.39,-200.98C1515.23,-200.42 1512.08,-199.91 1509,-199.5 1392.76,-183.87 558.63,-216.5 454,-163.5 398.94,-135.61 361.8,-68.24 346.24,-35.18"/>
<polygon fill="#63b8ff" stroke="#63b8ff" points="349.59,-34.08 342.27,-26.42 343.21,-36.97 349.59,-34.08"/>
</a>
</g>
</g>
<!-- Node24 -->
<g id="Node000024" class="node">
<title>Node24</title>
<g id="a_Node000024"><a xlink:title=" ">
<polygon fill="#e0e0e0" stroke="#999999" points="574.12,-24.88 423.88,-24.88 423.88,-5.63 574.12,-5.63 574.12,-24.88"/>
<text text-anchor="middle" x="499" y="-11.38" font-family="Helvetica,sans-Serif" font-size="10.00">mlir/Interfaces/CallInterfaces.h</text>
</a>
</g>
</g>
<!-- Node16&#45;&gt;Node24 -->
<g id="edge25_Node000016_Node000024" class="edge">
<title>Node16&#45;&gt;Node24</title>
<g id="a_edge25_Node000016_Node000024"><a xlink:title=" ">
<path fill="none" stroke="#63b8ff" d="M1518.39,-200.99C1515.23,-200.42 1512.08,-199.92 1509,-199.5 1452.75,-191.91 535.13,-195.13 488,-163.5 450.53,-138.35 442.86,-109.01 458,-66.5 462.48,-53.93 471.59,-42.23 480.1,-33.29"/>
<polygon fill="#63b8ff" stroke="#63b8ff" points="482.43,-35.9 487.12,-26.4 477.53,-30.9 482.43,-35.9"/>
</a>
</g>
</g>
<!-- Node25 -->
<g id="Node000025" class="node">
<title>Node25</title>
<g id="a_Node000025"><a xlink:title=" ">
<polygon fill="#e0e0e0" stroke="#999999" points="875.88,-30.5 742.12,-30.5 742.12,0 875.88,0 875.88,-30.5"/>
<text text-anchor="start" x="750.12" y="-17" font-family="Helvetica,sans-Serif" font-size="10.00">mlir/Interfaces/ControlFlow</text>
<text text-anchor="middle" x="809" y="-5.75" font-family="Helvetica,sans-Serif" font-size="10.00">Interfaces.h</text>
</a>
</g>
</g>
<!-- Node16&#45;&gt;Node25 -->
<g id="edge26_Node000016_Node000025" class="edge">
<title>Node16&#45;&gt;Node25</title>
<g id="a_edge26_Node000016_Node000025"><a xlink:title=" ">
<path fill="none" stroke="#63b8ff" d="M1518.38,-201.1C1515.22,-200.5 1512.07,-199.96 1509,-199.5 1288.09,-166.32 654.87,-266.18 509,-97 403.33,25.56 255.16,-111.91 730.53,-30.89"/>
<polygon fill="#63b8ff" stroke="#63b8ff" points="731.13,-34.34 740.39,-29.19 729.94,-27.44 731.13,-34.34"/>
</a>
</g>
</g>
<!-- Node26 -->
<g id="Node000026" class="node">
<title>Node26</title>
<g id="a_Node000026"><a xlink:title=" ">
<polygon fill="#e0e0e0" stroke="#999999" points="723.75,-30.5 592.25,-30.5 592.25,0 723.75,0 723.75,-30.5"/>
<text text-anchor="start" x="600.25" y="-17" font-family="Helvetica,sans-Serif" font-size="10.00">mlir/Interfaces/DataLayout</text>
<text text-anchor="middle" x="658" y="-5.75" font-family="Helvetica,sans-Serif" font-size="10.00">Interfaces.h</text>
</a>
</g>
</g>
<!-- Node16&#45;&gt;Node26 -->
<g id="edge27_Node000016_Node000026" class="edge">
<title>Node16&#45;&gt;Node26</title>
<g id="a_edge27_Node000016_Node000026"><a xlink:title=" ">
<path fill="none" stroke="#63b8ff" d="M1518.39,-201C1515.23,-200.43 1512.08,-199.92 1509,-199.5 1403.68,-185.15 652.39,-201.2 553,-163.5 500.48,-143.58 437.85,-111.09 472,-66.5 479.04,-57.31 532.88,-43.36 580.83,-32.49"/>
<polygon fill="#63b8ff" stroke="#63b8ff" points="581.43,-35.94 590.43,-30.34 579.9,-29.11 581.43,-35.94"/>
</a>
</g>
</g>
<!-- Node27 -->
<g id="Node000027" class="node">
<title>Node27</title>
<g id="a_Node000027"><a xlink:title=" ">
<polygon fill="#e0e0e0" stroke="#999999" points="1012.38,-30.5 893.62,-30.5 893.62,0 1012.38,0 1012.38,-30.5"/>
<text text-anchor="start" x="901.62" y="-17" font-family="Helvetica,sans-Serif" font-size="10.00">mlir/Interfaces/Function</text>
<text text-anchor="middle" x="953" y="-5.75" font-family="Helvetica,sans-Serif" font-size="10.00">Interfaces.h</text>
</a>
</g>
</g>
<!-- Node16&#45;&gt;Node27 -->
<g id="edge28_Node000016_Node000027" class="edge">
<title>Node16&#45;&gt;Node27</title>
<g id="a_edge28_Node000016_Node000027"><a xlink:title=" ">
<path fill="none" stroke="#63b8ff" d="M1551.81,-199.05C1508.62,-162.17 1398.7,-68.48 1394,-66.5 1244.17,-3.51 1188.63,-53.1 1023.79,-30.59"/>
<polygon fill="#63b8ff" stroke="#63b8ff" points="1024.66,-27.18 1014.27,-29.22 1023.66,-34.11 1024.66,-27.18"/>
</a>
</g>
</g>
<!-- Node28 -->
<g id="Node000028" class="node">
<title>Node28</title>
<g id="a_Node000028"><a xlink:title=" ">
<polygon fill="#e0e0e0" stroke="#999999" points="1282.88,-30.5 1161.12,-30.5 1161.12,0 1282.88,0 1282.88,-30.5"/>
<text text-anchor="start" x="1169.12" y="-17" font-family="Helvetica,sans-Serif" font-size="10.00">mlir/Interfaces/InferType</text>
<text text-anchor="middle" x="1222" y="-5.75" font-family="Helvetica,sans-Serif" font-size="10.00">OpInterface.h</text>
</a>
</g>
</g>
<!-- Node16&#45;&gt;Node28 -->
<g id="edge29_Node000016_Node000028" class="edge">
<title>Node16&#45;&gt;Node28</title>
<g id="a_edge29_Node000016_Node000028"><a xlink:title=" ">
<path fill="none" stroke="#63b8ff" d="M1572.21,-199.19C1577.8,-169.65 1585.54,-102.41 1550,-66.5 1511.43,-27.53 1365.62,-38.86 1294.24,-30.5"/>
<polygon fill="#63b8ff" stroke="#63b8ff" points="1294.93,-27.06 1284.54,-29.12 1293.95,-33.99 1294.93,-27.06"/>
</a>
</g>
</g>
<!-- Node29 -->
<g id="Node000029" class="node">
<title>Node29</title>
<g id="a_Node000029"><a xlink:title=" ">
<polygon fill="#e0e0e0" stroke="#999999" points="1427.5,-30.5 1300.5,-30.5 1300.5,0 1427.5,0 1427.5,-30.5"/>
<text text-anchor="start" x="1308.5" y="-17" font-family="Helvetica,sans-Serif" font-size="10.00">mlir/Interfaces/SideEffect</text>
<text text-anchor="middle" x="1364" y="-5.75" font-family="Helvetica,sans-Serif" font-size="10.00">Interfaces.h</text>
</a>
</g>
</g>
<!-- Node16&#45;&gt;Node29 -->
<g id="edge30_Node000016_Node000029" class="edge">
<title>Node16&#45;&gt;Node29</title>
<g id="a_edge30_Node000016_Node000029"><a xlink:title=" ">
<path fill="none" stroke="#63b8ff" d="M1576.32,-199.32C1589.75,-170.6 1614.2,-105.67 1583,-66.5 1578.33,-60.64 1500.26,-43.69 1438.65,-31.08"/>
<polygon fill="#63b8ff" stroke="#63b8ff" points="1439.73,-27.73 1429.23,-29.17 1438.33,-34.59 1439.73,-27.73"/>
</a>
</g>
</g>
<!-- Node30 -->
<g id="Node000030" class="node">
<title>Node30</title>
<g id="a_Node000030"><a xlink:href="_op_interfaces_8h.html" target="_top" xlink:title=" ">
<polygon fill="white" stroke="#666666" points="1541.38,-97 1440.62,-97 1440.62,-66.5 1541.38,-66.5 1541.38,-97"/>
<text text-anchor="start" x="1448.62" y="-83.5" font-family="Helvetica,sans-Serif" font-size="10.00">zklang/Dialect/ZML</text>
<text text-anchor="middle" x="1491" y="-72.25" font-family="Helvetica,sans-Serif" font-size="10.00">/IR/OpInterfaces.h</text>
</a>
</g>
</g>
<!-- Node16&#45;&gt;Node30 -->
<g id="edge31_Node000016_Node000030" class="edge">
<title>Node16&#45;&gt;Node30</title>
<g id="a_edge31_Node000016_Node000030"><a xlink:title=" ">
<path fill="none" stroke="#63b8ff" d="M1560.35,-199.23C1547.12,-177 1521.67,-134.27 1505.56,-107.2"/>
<polygon fill="#63b8ff" stroke="#63b8ff" points="1508.58,-105.44 1500.46,-98.64 1502.57,-109.02 1508.58,-105.44"/>
</a>
</g>
</g>
<!-- Node32 -->
<g id="Node000032" class="node">
<title>Node32</title>
<g id="a_Node000032"><a xlink:href="_types_8h.html" target="_top" xlink:title=" ">
<polygon fill="white" stroke="#666666" points="1065.38,-163.5 964.62,-163.5 964.62,-133 1065.38,-133 1065.38,-163.5"/>
<text text-anchor="start" x="972.62" y="-150" font-family="Helvetica,sans-Serif" font-size="10.00">zklang/Dialect/ZML</text>
<text text-anchor="middle" x="1015" y="-138.75" font-family="Helvetica,sans-Serif" font-size="10.00">/IR/Types.h</text>
</a>
</g>
</g>
<!-- Node16&#45;&gt;Node32 -->
<g id="edge47_Node000016_Node000032" class="edge">
<title>Node16&#45;&gt;Node32</title>
<g id="a_edge47_Node000016_Node000032"><a xlink:title=" ">
<path fill="none" stroke="#63b8ff" d="M1518.36,-201.23C1515.2,-200.6 1512.06,-200.02 1509,-199.5 1354.78,-173.46 1171.03,-159.09 1077.07,-152.93"/>
<polygon fill="#63b8ff" stroke="#63b8ff" points="1077.5,-149.45 1067.3,-152.3 1077.05,-156.43 1077.5,-149.45"/>
</a>
</g>
</g>
<!-- Node38 -->
<g id="Node000038" class="node">
<title>Node38</title>
<g id="a_Node000038"><a xlink:href="_ops_8h_8inc.html" target="_top" xlink:title=" ">
<polygon fill="white" stroke="#666666" points="1385.38,-97 1284.62,-97 1284.62,-66.5 1385.38,-66.5 1385.38,-97"/>
<text text-anchor="start" x="1292.62" y="-83.5" font-family="Helvetica,sans-Serif" font-size="10.00">zklang/Dialect/ZML</text>
<text text-anchor="middle" x="1335" y="-72.25" font-family="Helvetica,sans-Serif" font-size="10.00">/IR/Ops.h.inc</text>
</a>
</g>
</g>
<!-- Node16&#45;&gt;Node38 -->
<g id="edge57_Node000016_Node000038" class="edge">
<title>Node16&#45;&gt;Node38</title>
<g id="a_edge57_Node000016_Node000038"><a xlink:title=" ">
<path fill="none" stroke="#63b8ff" d="M1518.2,-200.41C1471.87,-187.96 1409.11,-170.33 1399,-163.5 1377.56,-149.02 1359.92,-125.13 1348.63,-107.08"/>
<polygon fill="#63b8ff" stroke="#63b8ff" points="1351.65,-105.32 1343.51,-98.55 1345.65,-108.92 1351.65,-105.32"/>
</a>
</g>
</g>
<!-- Node30&#45;&gt;Node11 -->
<g id="edge36_Node000030_Node000011" class="edge">
<title>Node30&#45;&gt;Node11</title>
<g id="a_edge36_Node000030_Node000011"><a xlink:title=" ">
<path fill="none" stroke="#63b8ff" d="M1541.66,-79.07C1644.38,-75.12 1884.62,-63.14 2095.56,-30.72"/>
<polygon fill="#63b8ff" stroke="#63b8ff" points="2096.02,-34.19 2105.36,-29.2 2094.94,-27.28 2096.02,-34.19"/>
</a>
</g>
</g>
<!-- Node30&#45;&gt;Node17 -->
<g id="edge32_Node000030_Node000017" class="edge">
<title>Node30&#45;&gt;Node17</title>
<g id="a_edge32_Node000030_Node000017"><a xlink:title=" ">
<path fill="none" stroke="#63b8ff" d="M1492.82,-66.11C1493.91,-57.33 1495.31,-46.02 1496.5,-36.4"/>
<polygon fill="#63b8ff" stroke="#63b8ff" points="1499.96,-36.93 1497.72,-26.57 1493.02,-36.07 1499.96,-36.93"/>
</a>
</g>
</g>
<!-- Node30&#45;&gt;Node18 -->
<g id="edge33_Node000030_Node000018" class="edge">
<title>Node30&#45;&gt;Node18</title>
<g id="a_edge33_Node000030_Node000018"><a xlink:title=" ">
<path fill="none" stroke="#63b8ff" d="M1522.77,-66.11C1546.31,-55.27 1578.17,-40.59 1601.22,-29.97"/>
<polygon fill="#63b8ff" stroke="#63b8ff" points="1602.45,-33.26 1610.07,-25.89 1599.52,-26.9 1602.45,-33.26"/>
</a>
</g>
</g>
<!-- Node30&#45;&gt;Node19 -->
<g id="edge34_Node000030_Node000019" class="edge">
<title>Node30&#45;&gt;Node19</title>
<g id="a_edge34_Node000030_Node000019"><a xlink:title=" ">
<path fill="none" stroke="#63b8ff" d="M1541.71,-68.77C1591.06,-57.11 1665.58,-39.5 1714.51,-27.94"/>
<polygon fill="#63b8ff" stroke="#63b8ff" points="1715.06,-31.41 1723.99,-25.7 1713.45,-24.6 1715.06,-31.41"/>
</a>
</g>
</g>
<!-- Node30&#45;&gt;Node20 -->
<g id="edge35_Node000030_Node000020" class="edge">
<title>Node30&#45;&gt;Node20</title>
<g id="a_edge35_Node000030_Node000020"><a xlink:title=" ">
<path fill="none" stroke="#63b8ff" d="M1541.63,-73.84C1605.39,-65 1718.59,-48.83 1825.09,-30.96"/>
<polygon fill="#63b8ff" stroke="#63b8ff" points="1825.6,-34.42 1834.88,-29.3 1824.43,-27.52 1825.6,-34.42"/>
</a>
</g>
</g>
<!-- Node30&#45;&gt;Node21 -->
<g id="edge37_Node000030_Node000021" class="edge">
<title>Node30&#45;&gt;Node21</title>
<g id="a_edge37_Node000030_Node000021"><a xlink:title=" ">
<path fill="none" stroke="#63b8ff" d="M1541.53,-77.79C1630.47,-72.09 1820.55,-57.67 1979,-30.5 1983.56,-29.72 1988.28,-28.79 1992.99,-27.78"/>
<polygon fill="#63b8ff" stroke="#63b8ff" points="1993.39,-31.28 2002.37,-25.66 1991.84,-24.45 1993.39,-31.28"/>
</a>
</g>
</g>
<!-- Node30&#45;&gt;Node22 -->
<g id="edge38_Node000030_Node000022" class="edge">
<title>Node30&#45;&gt;Node22</title>
<g id="a_edge38_Node000030_Node000022"><a xlink:title=" ">
<path fill="none" stroke="#63b8ff" d="M1440.28,-72.18C1425.41,-69.98 1409.09,-67.84 1394,-66.5 892.18,-21.81 760.85,-93.52 261,-30.5 255.29,-29.78 249.33,-28.79 243.46,-27.66"/>
<polygon fill="#63b8ff" stroke="#63b8ff" points="244.32,-24.26 233.82,-25.67 242.9,-31.12 244.32,-24.26"/>
</a>
</g>
</g>
<!-- Node30&#45;&gt;Node23 -->
<g id="edge39_Node000030_Node000023" class="edge">
<title>Node30&#45;&gt;Node23</title>
<g id="a_edge39_Node000030_Node000023"><a xlink:title=" ">
<path fill="none" stroke="#63b8ff" d="M1440.28,-72.23C1425.41,-70.02 1409.09,-67.88 1394,-66.5 960.41,-26.8 847.78,-78.24 415,-30.5 407.56,-29.68 399.75,-28.55 392.08,-27.29"/>
<polygon fill="#63b8ff" stroke="#63b8ff" points="392.95,-23.88 382.49,-25.62 391.75,-30.78 392.95,-23.88"/>
</a>
</g>
</g>
<!-- Node30&#45;&gt;Node24 -->
<g id="edge40_Node000030_Node000024" class="edge">
<title>Node30&#45;&gt;Node24</title>
<g id="a_edge40_Node000030_Node000024"><a xlink:title=" ">
<path fill="none" stroke="#63b8ff" d="M1440.27,-72.31C1425.4,-70.1 1409.08,-67.94 1394,-66.5 1034.83,-32.24 941.77,-68.75 583,-30.5 574.72,-29.62 566.01,-28.43 557.47,-27.12"/>
<polygon fill="#63b8ff" stroke="#63b8ff" points="558.31,-23.71 547.89,-25.58 557.2,-30.62 558.31,-23.71"/>
</a>
</g>
</g>
<!-- Node30&#45;&gt;Node25 -->
<g id="edge41_Node000030_Node000025" class="edge">
<title>Node30&#45;&gt;Node25</title>
<g id="a_edge41_Node000030_Node000025"><a xlink:title=" ">
<path fill="none" stroke="#63b8ff" d="M1440.25,-72.56C1425.37,-70.36 1409.06,-68.14 1394,-66.5 1172.17,-42.4 1111.86,-58.89 887.24,-30.68"/>
<polygon fill="#63b8ff" stroke="#63b8ff" points="887.93,-27.24 877.57,-29.45 887.05,-34.18 887.93,-27.24"/>
</a>
</g>
</g>
<!-- Node30&#45;&gt;Node26 -->
<g id="edge42_Node000030_Node000026" class="edge">
<title>Node30&#45;&gt;Node26</title>
<g id="a_edge42_Node000030_Node000026"><a xlink:title=" ">
<path fill="none" stroke="#63b8ff" d="M1440.26,-72.4C1425.39,-70.2 1409.07,-68.01 1394,-66.5 1104.98,-37.46 1027.03,-65.31 735.53,-30.69"/>
<polygon fill="#63b8ff" stroke="#63b8ff" points="736.03,-27.22 725.68,-29.5 735.19,-34.17 736.03,-27.22"/>
</a>
</g>
</g>
<!-- Node30&#45;&gt;Node27 -->
<g id="edge43_Node000030_Node000027" class="edge">
<title>Node30&#45;&gt;Node27</title>
<g id="a_edge43_Node000030_Node000027"><a xlink:title=" ">
<path fill="none" stroke="#63b8ff" d="M1440.46,-68.86C1435.92,-67.98 1431.39,-67.18 1427,-66.5 1252.09,-39.37 1202.79,-56.1 1024.16,-30.68"/>
<polygon fill="#63b8ff" stroke="#63b8ff" points="1024.66,-27.22 1014.26,-29.25 1023.66,-34.15 1024.66,-27.22"/>
</a>
</g>
</g>
<!-- Node30&#45;&gt;Node28 -->
<g id="edge44_Node000030_Node000028" class="edge">
<title>Node30&#45;&gt;Node28</title>
<g id="a_edge44_Node000030_Node000028"><a xlink:title=" ">
<path fill="none" stroke="#63b8ff" d="M1440.4,-68.62C1399.21,-58.74 1340.53,-44.67 1294.36,-33.6"/>
<polygon fill="#63b8ff" stroke="#63b8ff" points="1295.23,-30.21 1284.69,-31.28 1293.6,-37.02 1295.23,-30.21"/>
</a>
</g>
</g>
<!-- Node30&#45;&gt;Node29 -->
<g id="edge45_Node000030_Node000029" class="edge">
<title>Node30&#45;&gt;Node29</title>
<g id="a_edge45_Node000030_Node000029"><a xlink:title=" ">
<path fill="none" stroke="#63b8ff" d="M1462.18,-66.11C1444.64,-57.21 1422.02,-45.72 1402.91,-36.01"/>
<polygon fill="#63b8ff" stroke="#63b8ff" points="1404.55,-32.92 1394.05,-31.51 1401.38,-39.16 1404.55,-32.92"/>
</a>
</g>
</g>
<!-- Node31 -->
<g id="Node000031" class="node">
<title>Node31</title>
<g id="a_Node000031"><a xlink:href="_op_interfaces_8h_8inc.html" target="_top" xlink:title=" ">
<polygon fill="white" stroke="#666666" points="1143.38,-30.5 1030.62,-30.5 1030.62,0 1143.38,0 1143.38,-30.5"/>
<text text-anchor="start" x="1038.62" y="-17" font-family="Helvetica,sans-Serif" font-size="10.00">zklang/Dialect/ZML</text>
<text text-anchor="middle" x="1087" y="-5.75" font-family="Helvetica,sans-Serif" font-size="10.00">/IR/OpInterfaces.h.inc</text>
</a>
</g>
</g>
<!-- Node30&#45;&gt;Node31 -->
<g id="edge46_Node000030_Node000031" class="edge">
<title>Node30&#45;&gt;Node31</title>
<g id="a_edge46_Node000030_Node000031"><a xlink:title=" ">
<path fill="none" stroke="#63b8ff" d="M1440.43,-69.05C1435.9,-68.14 1431.37,-67.27 1427,-66.5 1309.17,-45.71 1275.39,-51.35 1154.82,-30.9"/>
<polygon fill="#63b8ff" stroke="#63b8ff" points="1155.6,-27.48 1145.16,-29.23 1154.41,-34.38 1155.6,-27.48"/>
</a>
</g>
</g>
<!-- Node32&#45;&gt;Node26 -->
<g id="edge52_Node000032_Node000026" class="edge">
<title>Node32&#45;&gt;Node26</title>
<g id="a_edge52_Node000032_Node000026"><a xlink:title=" ">
<path fill="none" stroke="#63b8ff" d="M964.14,-145.99C841.85,-142.44 539.18,-130.33 509,-97 480.57,-65.61 531.22,-43.99 581,-31.08"/>
<polygon fill="#63b8ff" stroke="#63b8ff" points="581.58,-34.54 590.45,-28.74 579.9,-27.75 581.58,-34.54"/>
</a>
</g>
</g>
<!-- Node32&#45;&gt;Node30 -->
<g id="edge54_Node000032_Node000030" class="edge">
<title>Node32&#45;&gt;Node30</title>
<g id="a_edge54_Node000032_Node000030"><a xlink:title=" ">
<path fill="none" stroke="#63b8ff" d="M1065.61,-140.77C1138.31,-131.41 1276.5,-113.42 1394,-97 1405.25,-95.43 1417.23,-93.71 1428.79,-92.02"/>
<polygon fill="#63b8ff" stroke="#63b8ff" points="1429.29,-95.49 1438.68,-90.57 1428.27,-88.56 1429.29,-95.49"/>
</a>
</g>
</g>
<!-- Node33 -->
<g id="Node000033" class="node">
<title>Node33</title>
<g id="a_Node000033"><a xlink:title=" ">
<polygon fill="#e0e0e0" stroke="#999999" points="1138.75,-91.38 1019.25,-91.38 1019.25,-72.12 1138.75,-72.12 1138.75,-91.38"/>
<text text-anchor="middle" x="1079" y="-77.88" font-family="Helvetica,sans-Serif" font-size="10.00">llvm/ADT/TypeSwitch.h</text>
</a>
</g>
</g>
<!-- Node32&#45;&gt;Node33 -->
<g id="edge48_Node000032_Node000033" class="edge">
<title>Node32&#45;&gt;Node33</title>
<g id="a_edge48_Node000032_Node000033"><a xlink:title=" ">
<path fill="none" stroke="#63b8ff" d="M1029.52,-132.61C1039.22,-122.84 1052.01,-109.95 1062.15,-99.73"/>
<polygon fill="#63b8ff" stroke="#63b8ff" points="1064.62,-102.21 1069.18,-92.65 1059.65,-97.28 1064.62,-102.21"/>
</a>
</g>
</g>
<!-- Node34 -->
<g id="Node000034" class="node">
<title>Node34</title>
<g id="a_Node000034"><a xlink:title=" ">
<polygon fill="#e0e0e0" stroke="#999999" points="1266.88,-91.38 1157.12,-91.38 1157.12,-72.12 1266.88,-72.12 1266.88,-91.38"/>
<text text-anchor="middle" x="1212" y="-77.88" font-family="Helvetica,sans-Serif" font-size="10.00">mlir/IR/BuiltinTypes.h</text>
</a>
</g>
</g>
<!-- Node32&#45;&gt;Node34 -->
<g id="edge49_Node000032_Node000034" class="edge">
<title>Node32&#45;&gt;Node34</title>
<g id="a_edge49_Node000032_Node000034"><a xlink:title=" ">
<path fill="none" stroke="#63b8ff" d="M1059.7,-132.61C1093.92,-121.41 1140.64,-106.11 1173.28,-95.43"/>
<polygon fill="#63b8ff" stroke="#63b8ff" points="1174.34,-98.76 1182.76,-92.32 1172.16,-92.11 1174.34,-98.76"/>
</a>
</g>
</g>
<!-- Node35 -->
<g id="Node000035" class="node">
<title>Node35</title>
<g id="a_Node000035"><a xlink:title=" ">
<polygon fill="#e0e0e0" stroke="#999999" points="630.38,-91.38 517.62,-91.38 517.62,-72.12 630.38,-72.12 630.38,-91.38"/>
<text text-anchor="middle" x="574" y="-77.88" font-family="Helvetica,sans-Serif" font-size="10.00">mlir/IR/SymbolTable.h</text>
</a>
</g>
</g>
<!-- Node32&#45;&gt;Node35 -->
<g id="edge50_Node000032_Node000035" class="edge">
<title>Node32&#45;&gt;Node35</title>
<g id="a_edge50_Node000032_Node000035"><a xlink:title=" ">
<path fill="none" stroke="#63b8ff" d="M964.16,-141.74C891.87,-133.6 755.34,-117.15 640,-97 635.06,-96.14 629.93,-95.16 624.81,-94.14"/>
<polygon fill="#63b8ff" stroke="#63b8ff" points="625.67,-90.75 615.17,-92.16 624.26,-97.6 625.67,-90.75"/>
</a>
</g>
</g>
<!-- Node36 -->
<g id="Node000036" class="node">
<title>Node36</title>
<g id="a_Node000036"><a xlink:title=" ">
<polygon fill="#e0e0e0" stroke="#999999" points="731.38,-91.38 648.62,-91.38 648.62,-72.12 731.38,-72.12 731.38,-91.38"/>
<text text-anchor="middle" x="690" y="-77.88" font-family="Helvetica,sans-Serif" font-size="10.00">mlir/IR/Types.h</text>
</a>
</g>
</g>
<!-- Node32&#45;&gt;Node36 -->
<g id="edge51_Node000032_Node000036" class="edge">
<title>Node32&#45;&gt;Node36</title>
<g id="a_edge51_Node000032_Node000036"><a xlink:title=" ">
<path fill="none" stroke="#63b8ff" d="M964.26,-139.49C908.85,-130.67 817.63,-115.11 740,-97 737.05,-96.31 734.02,-95.56 730.97,-94.77"/>
<polygon fill="#63b8ff" stroke="#63b8ff" points="732.05,-91.44 721.48,-92.21 730.22,-98.2 732.05,-91.44"/>
</a>
</g>
</g>
<!-- Node37 -->
<g id="Node000037" class="node">
<title>Node37</title>
<g id="a_Node000037"><a xlink:title=" ">
<polygon fill="#e0e0e0" stroke="#999999" points="882.88,-97 749.12,-97 749.12,-66.5 882.88,-66.5 882.88,-97"/>
<text text-anchor="start" x="757.12" y="-83.5" font-family="Helvetica,sans-Serif" font-size="10.00">mlir/Interfaces/MemorySlot</text>
<text text-anchor="middle" x="816" y="-72.25" font-family="Helvetica,sans-Serif" font-size="10.00">Interfaces.h</text>
</a>
</g>
</g>
<!-- Node32&#45;&gt;Node37 -->
<g id="edge53_Node000032_Node000037" class="edge">
<title>Node32&#45;&gt;Node37</title>
<g id="a_edge53_Node000032_Node000037"><a xlink:title=" ">
<path fill="none" stroke="#63b8ff" d="M969.84,-132.61C940.81,-123.2 902.88,-110.91 871.95,-100.88"/>
<polygon fill="#63b8ff" stroke="#63b8ff" points="873.35,-97.66 862.76,-97.91 871.19,-104.32 873.35,-97.66"/>
</a>
</g>
</g>
<!-- Node32&#45;&gt;Node38 -->
<g id="edge55_Node000032_Node000038" class="edge">
<title>Node32&#45;&gt;Node38</title>
<g id="a_edge55_Node000032_Node000038"><a xlink:title=" ">
<path fill="none" stroke="#63b8ff" d="M1065.67,-138.22C1115.99,-129.09 1195.61,-114.21 1273.25,-97.55"/>
<polygon fill="#63b8ff" stroke="#63b8ff" points="1273.67,-101.03 1282.71,-95.5 1272.19,-94.19 1273.67,-101.03"/>
</a>
</g>
</g>
<!-- Node39 -->
<g id="Node000039" class="node">
<title>Node39</title>
<g id="a_Node000039"><a xlink:href="_types_8h_8inc.html" target="_top" xlink:title=" ">
<polygon fill="white" stroke="#666666" points="1001.38,-97 900.62,-97 900.62,-66.5 1001.38,-66.5 1001.38,-97"/>
<text text-anchor="start" x="908.62" y="-83.5" font-family="Helvetica,sans-Serif" font-size="10.00">zklang/Dialect/ZML</text>
<text text-anchor="middle" x="951" y="-72.25" font-family="Helvetica,sans-Serif" font-size="10.00">/IR/Types.h.inc</text>
</a>
</g>
</g>
<!-- Node32&#45;&gt;Node39 -->
<g id="edge56_Node000032_Node000039" class="edge">
<title>Node32&#45;&gt;Node39</title>
<g id="a_edge56_Node000032_Node000039"><a xlink:title=" ">
<path fill="none" stroke="#63b8ff" d="M1000.48,-132.61C992.46,-124.53 982.33,-114.32 973.32,-105.25"/>
<polygon fill="#63b8ff" stroke="#63b8ff" points="976.06,-103.04 966.53,-98.4 971.09,-107.97 976.06,-103.04"/>
</a>
</g>
</g>
</g>
</svg>
