<?xml version="1.0" encoding="UTF-8" standalone="no"?>
<!DOCTYPE svg PUBLIC "-//W3C//DTD SVG 1.1//EN"
 "http://www.w3.org/Graphics/SVG/1.1/DTD/svg11.dtd">
<!-- Generated by graphviz version 12.2.1 (20241206.2353)
 -->
<!-- Title: build/include/zklang/Dialect/ZHL/Typing/Passes.h.inc Pages: 1 -->
<svg width="429pt" height="172pt"
 viewBox="0.00 0.00 429.12 171.50" xmlns="http://www.w3.org/2000/svg" xmlns:xlink="http://www.w3.org/1999/xlink">
<g id="graph0" class="graph" transform="scale(1 1) rotate(0) translate(4 167.5)">
<title>build/include/zklang/Dialect/ZHL/Typing/Passes.h.inc</title>
<!-- Node1 -->
<g id="Node000001" class="node">
<title>Node1</title>
<g id="a_Node000001"><a xlink:title=" ">
<polygon fill="#999999" stroke="#666666" points="214.75,-163.5 51.75,-163.5 51.75,-133 214.75,-133 214.75,-163.5"/>
<text text-anchor="start" x="59.75" y="-150" font-family="Helvetica,sans-Serif" font-size="10.00">build/include/zklang</text>
<text text-anchor="middle" x="133.25" y="-138.75" font-family="Helvetica,sans-Serif" font-size="10.00">/Dialect/ZHL/Typing/Passes.h.inc</text>
</a>
</g>
</g>
<!-- Node2 -->
<g id="Node000002" class="node">
<title>Node2</title>
<g id="a_Node000002"><a xlink:href="_dialect_2_z_h_l_2_typing_2_pass_detail_8h.html" target="_top" xlink:title=" ">
<polygon fill="white" stroke="#666666" points="128.5,-97 0,-97 0,-66.5 128.5,-66.5 128.5,-97"/>
<text text-anchor="start" x="8" y="-83.5" font-family="Helvetica,sans-Serif" font-size="10.00">include/zklang/Dialect</text>
<text text-anchor="middle" x="64.25" y="-72.25" font-family="Helvetica,sans-Serif" font-size="10.00">/ZHL/Typing/PassDetail.h</text>
</a>
</g>
</g>
<!-- Node1&#45;&gt;Node2 -->
<g id="edge1_Node000001_Node000002" class="edge">
<title>Node1&#45;&gt;Node2</title>
<g id="a_edge1_Node000001_Node000002"><a xlink:title=" ">
<path fill="none" stroke="#63b8ff" d="M109.41,-124.96C99.62,-115.82 88.57,-105.48 79.85,-97.33"/>
<polygon fill="#63b8ff" stroke="#63b8ff" points="106.79,-127.31 116.49,-131.58 111.57,-122.19 106.79,-127.31"/>
</a>
</g>
</g>
<!-- Node4 -->
<g id="Node000004" class="node">
<title>Node4</title>
<g id="a_Node000004"><a xlink:href="_dialect_2_z_h_l_2_typing_2_passes_8h.html" target="_top" xlink:title=" ">
<polygon fill="white" stroke="#666666" points="263,-97 149.5,-97 149.5,-66.5 263,-66.5 263,-97"/>
<text text-anchor="start" x="157.5" y="-83.5" font-family="Helvetica,sans-Serif" font-size="10.00">include/zklang/Dialect</text>
<text text-anchor="middle" x="206.25" y="-72.25" font-family="Helvetica,sans-Serif" font-size="10.00">/ZHL/Typing/Passes.h</text>
</a>
</g>
</g>
<!-- Node1&#45;&gt;Node4 -->
<g id="edge3_Node000001_Node000004" class="edge">
<title>Node1&#45;&gt;Node4</title>
<g id="a_edge3_Node000001_Node000004"><a xlink:title=" ">
<path fill="none" stroke="#63b8ff" d="M158.16,-125.24C168.59,-116.03 180.43,-105.56 189.75,-97.33"/>
<polygon fill="#63b8ff" stroke="#63b8ff" points="156.13,-122.37 150.95,-131.61 160.76,-127.61 156.13,-122.37"/>
</a>
</g>
</g>
<!-- Node3 -->
<g id="Node000003" class="node">
<title>Node3</title>
<g id="a_Node000003"><a xlink:href="_print_type_bindings_8cpp.html" target="_top" xlink:title=" ">
<polygon fill="white" stroke="#666666" points="118.5,-30.5 2,-30.5 2,0 118.5,0 118.5,-30.5"/>
<text text-anchor="start" x="10" y="-17" font-family="Helvetica,sans-Serif" font-size="10.00">lib/Dialect/ZHL/Typing</text>
<text text-anchor="middle" x="60.25" y="-5.75" font-family="Helvetica,sans-Serif" font-size="10.00">/PrintTypeBindings.cpp</text>
</a>
</g>
</g>
<!-- Node2&#45;&gt;Node3 -->
<g id="edge2_Node000002_Node000003" class="edge">
<title>Node2&#45;&gt;Node3</title>
<g id="a_edge2_Node000002_Node000003"><a xlink:title=" ">
<path fill="none" stroke="#63b8ff" d="M62.64,-54.81C62.13,-46.64 61.59,-37.91 61.15,-30.83"/>
<polygon fill="#63b8ff" stroke="#63b8ff" points="59.14,-54.84 63.25,-64.6 66.12,-54.41 59.14,-54.84"/>
</a>
</g>
</g>
<!-- Node5 -->
<g id="Node000005" class="node">
<title>Node5</title>
<g id="a_Node000005"><a xlink:href="_driver_8cpp.html" target="_top" xlink:title=" ">
<polygon fill="white" stroke="#666666" points="275.75,-24.88 136.75,-24.88 136.75,-5.63 275.75,-5.63 275.75,-24.88"/>
<text text-anchor="middle" x="206.25" y="-11.38" font-family="Helvetica,sans-Serif" font-size="10.00">lib/Frontends/ZIR/Driver.cpp</text>
</a>
</g>
</g>
<!-- Node4&#45;&gt;Node5 -->
<g id="edge4_Node000004_Node000005" class="edge">
<title>Node4&#45;&gt;Node5</title>
<g id="a_edge4_Node000004_Node000005"><a xlink:title=" ">
<path fill="none" stroke="#63b8ff" d="M206.25,-54.84C206.25,-44.26 206.25,-32.75 206.25,-25.07"/>
<polygon fill="#63b8ff" stroke="#63b8ff" points="202.75,-54.6 206.25,-64.6 209.75,-54.6 202.75,-54.6"/>
</a>
</g>
</g>
<!-- Node6 -->
<g id="Node000006" class="node">
<title>Node6</title>
<g id="a_Node000006"><a xlink:href="zklang-opt_2main_8cpp.html" target="_top" xlink:title=" ">
<polygon fill="white" stroke="#666666" points="421.12,-24.88 293.38,-24.88 293.38,-5.63 421.12,-5.63 421.12,-24.88"/>
<text text-anchor="middle" x="357.25" y="-11.38" font-family="Helvetica,sans-Serif" font-size="10.00">tools/zklang&#45;opt/main.cpp</text>
</a>
</g>
</g>
<!-- Node4&#45;&gt;Node6 -->
<g id="edge5_Node000004_Node000006" class="edge">
<title>Node4&#45;&gt;Node6</title>
<g id="a_edge5_Node000004_Node000006"><a xlink:title=" ">
<path fill="none" stroke="#63b8ff" d="M250.93,-61.66C279.1,-49.63 314.19,-34.65 336.16,-25.26"/>
<polygon fill="#63b8ff" stroke="#63b8ff" points="249.73,-58.37 241.91,-65.52 252.48,-64.81 249.73,-58.37"/>
</a>
</g>
</g>
</g>
</svg>
