<?xml version="1.0" encoding="UTF-8" standalone="no"?>
<!DOCTYPE svg PUBLIC "-//W3C//DTD SVG 1.1//EN"
 "http://www.w3.org/Graphics/SVG/1.1/DTD/svg11.dtd">
<!-- Generated by graphviz version 12.2.1 (20241206.2353)
 -->
<!-- Title: build/include/zklang/Dialect/ZML/Transforms/Passes.h.inc Pages: 1 -->
<svg width="1057pt" height="183pt"
 viewBox="0.00 0.00 1057.12 182.75" xmlns="http://www.w3.org/2000/svg" xmlns:xlink="http://www.w3.org/1999/xlink">
<g id="graph0" class="graph" transform="scale(1 1) rotate(0) translate(4 178.75)">
<title>build/include/zklang/Dialect/ZML/Transforms/Passes.h.inc</title>
<!-- Node1 -->
<g id="Node000001" class="node">
<title>Node1</title>
<g id="a_Node000001"><a xlink:title=" ">
<polygon fill="#999999" stroke="#666666" points="666.62,-174.75 541.88,-174.75 541.88,-133 666.62,-133 666.62,-174.75"/>
<text text-anchor="start" x="549.88" y="-161.25" font-family="Helvetica,sans-Serif" font-size="10.00">build/include/zklang</text>
<text text-anchor="start" x="549.88" y="-150" font-family="Helvetica,sans-Serif" font-size="10.00">/Dialect/ZML/Transforms</text>
<text text-anchor="middle" x="604.25" y="-138.75" font-family="Helvetica,sans-Serif" font-size="10.00">/Passes.h.inc</text>
</a>
</g>
</g>
<!-- Node2 -->
<g id="Node000002" class="node">
<title>Node2</title>
<g id="a_Node000002"><a xlink:href="_dialect_2_z_m_l_2_transforms_2_pass_detail_8h.html" target="_top" xlink:title=" ">
<polygon fill="white" stroke="#666666" points="525.38,-97 375.12,-97 375.12,-66.5 525.38,-66.5 525.38,-97"/>
<text text-anchor="start" x="383.12" y="-83.5" font-family="Helvetica,sans-Serif" font-size="10.00">include/zklang/Dialect</text>
<text text-anchor="middle" x="450.25" y="-72.25" font-family="Helvetica,sans-Serif" font-size="10.00">/ZML/Transforms/PassDetail.h</text>
</a>
</g>
</g>
<!-- Node1&#45;&gt;Node2 -->
<g id="edge1_Node000001_Node000002" class="edge">
<title>Node1&#45;&gt;Node2</title>
<g id="a_edge1_Node000001_Node000002"><a xlink:title=" ">
<path fill="none" stroke="#63b8ff" d="M549.31,-127.86C526.91,-117.66 501.8,-106.22 482.47,-97.42"/>
<polygon fill="#63b8ff" stroke="#63b8ff" points="547.78,-131.01 558.33,-131.96 550.68,-124.64 547.78,-131.01"/>
</a>
</g>
</g>
<!-- Node8 -->
<g id="Node000008" class="node">
<title>Node8</title>
<g id="a_Node000008"><a xlink:href="_dialect_2_z_m_l_2_transforms_2_passes_8h.html" target="_top" xlink:title=" ">
<polygon fill="white" stroke="#666666" points="901.88,-97 766.62,-97 766.62,-66.5 901.88,-66.5 901.88,-97"/>
<text text-anchor="start" x="774.62" y="-83.5" font-family="Helvetica,sans-Serif" font-size="10.00">include/zklang/Dialect</text>
<text text-anchor="middle" x="834.25" y="-72.25" font-family="Helvetica,sans-Serif" font-size="10.00">/ZML/Transforms/Passes.h</text>
</a>
</g>
</g>
<!-- Node1&#45;&gt;Node8 -->
<g id="edge7_Node000001_Node000008" class="edge">
<title>Node1&#45;&gt;Node8</title>
<g id="a_edge7_Node000001_Node000008"><a xlink:title=" ">
<path fill="none" stroke="#63b8ff" d="M677.88,-130.43C713.29,-119.63 754.74,-106.99 786.07,-97.44"/>
<polygon fill="#63b8ff" stroke="#63b8ff" points="677.09,-127.01 668.55,-133.27 679.13,-133.7 677.09,-127.01"/>
</a>
</g>
</g>
<!-- Node3 -->
<g id="Node000003" class="node">
<title>Node3</title>
<g id="a_Node000003"><a xlink:href="_inject_built_ins_8cpp.html" target="_top" xlink:title=" ">
<polygon fill="white" stroke="#666666" points="134.5,-30.5 0,-30.5 0,0 134.5,0 134.5,-30.5"/>
<text text-anchor="start" x="8" y="-17" font-family="Helvetica,sans-Serif" font-size="10.00">lib/Dialect/ZML/Transforms</text>
<text text-anchor="middle" x="67.25" y="-5.75" font-family="Helvetica,sans-Serif" font-size="10.00">/InjectBuiltIns.cpp</text>
</a>
</g>
</g>
<!-- Node2&#45;&gt;Node3 -->
<g id="edge2_Node000002_Node000003" class="edge">
<title>Node2&#45;&gt;Node3</title>
<g id="a_edge2_Node000002_Node000003"><a xlink:title=" ">
<path fill="none" stroke="#63b8ff" d="M363.55,-66.99C302.24,-57.15 218.14,-43.4 144.25,-30.5 141.17,-29.96 138.02,-29.41 134.84,-28.84"/>
<polygon fill="#63b8ff" stroke="#63b8ff" points="362.8,-70.42 373.23,-68.54 363.91,-63.5 362.8,-70.42"/>
</a>
</g>
</g>
<!-- Node4 -->
<g id="Node000004" class="node">
<title>Node4</title>
<g id="a_Node000004"><a xlink:href="_lower_built_ins_8cpp.html" target="_top" xlink:title=" ">
<polygon fill="white" stroke="#666666" points="287.5,-30.5 153,-30.5 153,0 287.5,0 287.5,-30.5"/>
<text text-anchor="start" x="161" y="-17" font-family="Helvetica,sans-Serif" font-size="10.00">lib/Dialect/ZML/Transforms</text>
<text text-anchor="middle" x="220.25" y="-5.75" font-family="Helvetica,sans-Serif" font-size="10.00">/LowerBuiltIns.cpp</text>
</a>
</g>
</g>
<!-- Node2&#45;&gt;Node4 -->
<g id="edge3_Node000002_Node000004" class="edge">
<title>Node2&#45;&gt;Node4</title>
<g id="a_edge3_Node000002_Node000004"><a xlink:title=" ">
<path fill="none" stroke="#63b8ff" d="M386.9,-62.99C350.94,-52.9 306.46,-40.43 272.5,-30.9"/>
<polygon fill="#63b8ff" stroke="#63b8ff" points="385.74,-66.29 396.31,-65.62 387.63,-59.55 385.74,-66.29"/>
</a>
</g>
</g>
<!-- Node5 -->
<g id="Node000005" class="node">
<title>Node5</title>
<g id="a_Node000005"><a xlink:href="_remove_built_ins_8cpp.html" target="_top" xlink:title=" ">
<polygon fill="white" stroke="#666666" points="440.5,-30.5 306,-30.5 306,0 440.5,0 440.5,-30.5"/>
<text text-anchor="start" x="314" y="-17" font-family="Helvetica,sans-Serif" font-size="10.00">lib/Dialect/ZML/Transforms</text>
<text text-anchor="middle" x="373.25" y="-5.75" font-family="Helvetica,sans-Serif" font-size="10.00">/RemoveBuiltIns.cpp</text>
</a>
</g>
</g>
<!-- Node2&#45;&gt;Node5 -->
<g id="edge4_Node000002_Node000005" class="edge">
<title>Node2&#45;&gt;Node5</title>
<g id="a_edge4_Node000002_Node000005"><a xlink:title=" ">
<path fill="none" stroke="#63b8ff" d="M423.98,-58.74C412.97,-49.53 400.49,-39.06 390.65,-30.83"/>
<polygon fill="#63b8ff" stroke="#63b8ff" points="421.7,-61.4 431.62,-65.14 426.2,-56.04 421.7,-61.4"/>
</a>
</g>
</g>
<!-- Node6 -->
<g id="Node000006" class="node">
<title>Node6</title>
<g id="a_Node000006"><a xlink:href="_remove_illegal_ops_8cpp.html" target="_top" xlink:title=" ">
<polygon fill="white" stroke="#666666" points="593.5,-30.5 459,-30.5 459,0 593.5,0 593.5,-30.5"/>
<text text-anchor="start" x="467" y="-17" font-family="Helvetica,sans-Serif" font-size="10.00">lib/Dialect/ZML/Transforms</text>
<text text-anchor="middle" x="526.25" y="-5.75" font-family="Helvetica,sans-Serif" font-size="10.00">/RemoveIllegalOps.cpp</text>
</a>
</g>
</g>
<!-- Node2&#45;&gt;Node6 -->
<g id="edge5_Node000002_Node000006" class="edge">
<title>Node2&#45;&gt;Node6</title>
<g id="a_edge5_Node000002_Node000006"><a xlink:title=" ">
<path fill="none" stroke="#63b8ff" d="M476.18,-58.74C487.04,-49.53 499.37,-39.06 509.07,-30.83"/>
<polygon fill="#63b8ff" stroke="#63b8ff" points="474.01,-56 468.65,-65.13 478.54,-61.33 474.01,-56"/>
</a>
</g>
</g>
<!-- Node7 -->
<g id="Node000007" class="node">
<title>Node7</title>
<g id="a_Node000007"><a xlink:href="_split_component_body_8cpp.html" target="_top" xlink:title=" ">
<polygon fill="white" stroke="#666666" points="746.5,-30.5 612,-30.5 612,0 746.5,0 746.5,-30.5"/>
<text text-anchor="start" x="620" y="-17" font-family="Helvetica,sans-Serif" font-size="10.00">lib/Dialect/ZML/Transforms</text>
<text text-anchor="middle" x="679.25" y="-5.75" font-family="Helvetica,sans-Serif" font-size="10.00">/SplitComponentBody.cpp</text>
</a>
</g>
</g>
<!-- Node2&#45;&gt;Node7 -->
<g id="edge6_Node000002_Node000007" class="edge">
<title>Node2&#45;&gt;Node7</title>
<g id="a_edge6_Node000002_Node000007"><a xlink:title=" ">
<path fill="none" stroke="#63b8ff" d="M513.32,-62.99C549.13,-52.9 593.42,-40.43 627.22,-30.9"/>
<polygon fill="#63b8ff" stroke="#63b8ff" points="512.63,-59.54 503.96,-65.62 514.53,-66.28 512.63,-59.54"/>
</a>
</g>
</g>
<!-- Node9 -->
<g id="Node000009" class="node">
<title>Node9</title>
<g id="a_Node000009"><a xlink:href="_driver_8cpp.html" target="_top" xlink:title=" ">
<polygon fill="white" stroke="#666666" points="903.75,-24.88 764.75,-24.88 764.75,-5.63 903.75,-5.63 903.75,-24.88"/>
<text text-anchor="middle" x="834.25" y="-11.38" font-family="Helvetica,sans-Serif" font-size="10.00">lib/Frontends/ZIR/Driver.cpp</text>
</a>
</g>
</g>
<!-- Node8&#45;&gt;Node9 -->
<g id="edge8_Node000008_Node000009" class="edge">
<title>Node8&#45;&gt;Node9</title>
<g id="a_edge8_Node000008_Node000009"><a xlink:title=" ">
<path fill="none" stroke="#63b8ff" d="M834.25,-54.84C834.25,-44.26 834.25,-32.75 834.25,-25.07"/>
<polygon fill="#63b8ff" stroke="#63b8ff" points="830.75,-54.6 834.25,-64.6 837.75,-54.6 830.75,-54.6"/>
</a>
</g>
</g>
<!-- Node10 -->
<g id="Node000010" class="node">
<title>Node10</title>
<g id="a_Node000010"><a xlink:href="zklang-opt_2main_8cpp.html" target="_top" xlink:title=" ">
<polygon fill="white" stroke="#666666" points="1049.12,-24.88 921.38,-24.88 921.38,-5.63 1049.12,-5.63 1049.12,-24.88"/>
<text text-anchor="middle" x="985.25" y="-11.38" font-family="Helvetica,sans-Serif" font-size="10.00">tools/zklang&#45;opt/main.cpp</text>
</a>
</g>
</g>
<!-- Node8&#45;&gt;Node10 -->
<g id="edge9_Node000008_Node000010" class="edge">
<title>Node8&#45;&gt;Node10</title>
<g id="a_edge9_Node000008_Node000010"><a xlink:title=" ">
<path fill="none" stroke="#63b8ff" d="M878.93,-61.66C907.1,-49.63 942.19,-34.65 964.16,-25.26"/>
<polygon fill="#63b8ff" stroke="#63b8ff" points="877.73,-58.37 869.91,-65.52 880.48,-64.81 877.73,-58.37"/>
</a>
</g>
</g>
</g>
</svg>
