<?xml version="1.0" encoding="UTF-8" standalone="no"?>
<!DOCTYPE svg PUBLIC "-//W3C//DTD SVG 1.1//EN"
 "http://www.w3.org/Graphics/SVG/1.1/DTD/svg11.dtd">
<!-- Generated by graphviz version 12.2.1 (20241206.2353)
 -->
<!-- Title: include/zklang/Dialect/ZML/Transforms/Passes.h Pages: 1 -->
<svg width="292pt" height="94pt"
 viewBox="0.00 0.00 292.38 93.75" xmlns="http://www.w3.org/2000/svg" xmlns:xlink="http://www.w3.org/1999/xlink">
<g id="graph0" class="graph" transform="scale(1 1) rotate(0) translate(4 89.75)">
<title>include/zklang/Dialect/ZML/Transforms/Passes.h</title>
<!-- Node1 -->
<g id="Node000001" class="node">
<title>Node1</title>
<g id="a_Node000001"><a xlink:title=" ">
<polygon fill="#999999" stroke="#666666" points="212.12,-85.75 76.88,-85.75 76.88,-55.25 212.12,-55.25 212.12,-85.75"/>
<text text-anchor="start" x="84.88" y="-72.25" font-family="Helvetica,sans-Serif" font-size="10.00">include/zklang/Dialect</text>
<text text-anchor="middle" x="144.5" y="-61" font-family="Helvetica,sans-Serif" font-size="10.00">/ZML/Transforms/Passes.h</text>
</a>
</g>
</g>
<!-- Node2 -->
<g id="Node000002" class="node">
<title>Node2</title>
<g id="a_Node000002"><a xlink:href="_driver_8cpp.html" target="_top" xlink:title=" ">
<polygon fill="white" stroke="#666666" points="139,-19.25 0,-19.25 0,0 139,0 139,-19.25"/>
<text text-anchor="middle" x="69.5" y="-5.75" font-family="Helvetica,sans-Serif" font-size="10.00">lib/Frontends/ZIR/Driver.cpp</text>
</a>
</g>
</g>
<!-- Node1&#45;&gt;Node2 -->
<g id="edge1_Node000001_Node000002" class="edge">
<title>Node1&#45;&gt;Node2</title>
<g id="a_edge1_Node000001_Node000002"><a xlink:title=" ">
<path fill="none" stroke="#63b8ff" d="M117.26,-48.12C104.8,-38.33 90.69,-27.26 81.06,-19.7"/>
<polygon fill="#63b8ff" stroke="#63b8ff" points="114.74,-50.59 124.77,-54.01 119.07,-45.08 114.74,-50.59"/>
</a>
</g>
</g>
<!-- Node3 -->
<g id="Node000003" class="node">
<title>Node3</title>
<g id="a_Node000003"><a xlink:href="zklang-opt_2main_8cpp.html" target="_top" xlink:title=" ">
<polygon fill="white" stroke="#666666" points="284.38,-19.25 156.62,-19.25 156.62,0 284.38,0 284.38,-19.25"/>
<text text-anchor="middle" x="220.5" y="-5.75" font-family="Helvetica,sans-Serif" font-size="10.00">tools/zklang&#45;opt/main.cpp</text>
</a>
</g>
</g>
<!-- Node1&#45;&gt;Node3 -->
<g id="edge2_Node000001_Node000003" class="edge">
<title>Node1&#45;&gt;Node3</title>
<g id="a_edge2_Node000001_Node000003"><a xlink:title=" ">
<path fill="none" stroke="#63b8ff" d="M172.1,-48.12C184.73,-38.33 199.03,-27.26 208.78,-19.7"/>
<polygon fill="#63b8ff" stroke="#63b8ff" points="170.25,-45.13 164.48,-54.02 174.53,-50.66 170.25,-45.13"/>
</a>
</g>
</g>
</g>
</svg>
