<?xml version="1.0" encoding="UTF-8" standalone="no"?>
<!DOCTYPE svg PUBLIC "-//W3C//DTD SVG 1.1//EN"
 "http://www.w3.org/Graphics/SVG/1.1/DTD/svg11.dtd">
<!-- Generated by graphviz version 12.2.1 (20241206.2353)
 -->
<!-- Title: include/zklang/Dialect/ZHL/Typing/Passes.h Pages: 1 -->
<svg width="344pt" height="105pt"
 viewBox="0.00 0.00 343.50 105.00" xmlns="http://www.w3.org/2000/svg" xmlns:xlink="http://www.w3.org/1999/xlink">
<g id="graph0" class="graph" transform="scale(1 1) rotate(0) translate(4 101)">
<title>include/zklang/Dialect/ZHL/Typing/Passes.h</title>
<!-- Node1 -->
<g id="Node000001" class="node">
<title>Node1</title>
<g id="a_Node000001"><a xlink:title=" ">
<polygon fill="#999999" stroke="#666666" points="221.5,-97 108,-97 108,-66.5 221.5,-66.5 221.5,-97"/>
<text text-anchor="start" x="116" y="-83.5" font-family="Helvetica,sans-Serif" font-size="10.00">include/zklang/Dialect</text>
<text text-anchor="middle" x="164.75" y="-72.25" font-family="Helvetica,sans-Serif" font-size="10.00">/ZHL/Typing/Passes.h</text>
</a>
</g>
</g>
<!-- Node2 -->
<g id="Node000002" class="node">
<title>Node2</title>
<g id="a_Node000002"><a xlink:title=" ">
<polygon fill="#e0e0e0" stroke="#999999" points="101.5,-24.88 0,-24.88 0,-5.63 101.5,-5.63 101.5,-24.88"/>
<text text-anchor="middle" x="50.75" y="-11.38" font-family="Helvetica,sans-Serif" font-size="10.00">mlir/IR/BuiltinOps.h</text>
</a>
</g>
</g>
<!-- Node1&#45;&gt;Node2 -->
<g id="edge1_Node000001_Node000002" class="edge">
<title>Node1&#45;&gt;Node2</title>
<g id="a_edge1_Node000001_Node000002"><a xlink:title=" ">
<path fill="none" stroke="#63b8ff" d="M138.88,-66.11C120.23,-55.56 95.17,-41.38 76.54,-30.84"/>
<polygon fill="#63b8ff" stroke="#63b8ff" points="78.42,-27.88 67.99,-26.01 74.97,-33.98 78.42,-27.88"/>
</a>
</g>
</g>
<!-- Node3 -->
<g id="Node000003" class="node">
<title>Node3</title>
<g id="a_Node000003"><a xlink:title=" ">
<polygon fill="#e0e0e0" stroke="#999999" points="210.25,-24.88 119.25,-24.88 119.25,-5.63 210.25,-5.63 210.25,-24.88"/>
<text text-anchor="middle" x="164.75" y="-11.38" font-family="Helvetica,sans-Serif" font-size="10.00">mlir/Pass/Pass.h</text>
</a>
</g>
</g>
<!-- Node1&#45;&gt;Node3 -->
<g id="edge2_Node000001_Node000003" class="edge">
<title>Node1&#45;&gt;Node3</title>
<g id="a_edge2_Node000001_Node000003"><a xlink:title=" ">
<path fill="none" stroke="#63b8ff" d="M164.75,-66.11C164.75,-57.33 164.75,-46.02 164.75,-36.4"/>
<polygon fill="#63b8ff" stroke="#63b8ff" points="168.25,-36.59 164.75,-26.59 161.25,-36.59 168.25,-36.59"/>
</a>
</g>
</g>
<!-- Node4 -->
<g id="Node000004" class="node">
<title>Node4</title>
<g id="a_Node000004"><a xlink:href="_dialect_2_z_h_l_2_typing_2_passes_8h_8inc.html" target="_top" xlink:title=" ">
<polygon fill="white" stroke="#666666" points="335.5,-30.5 228,-30.5 228,0 335.5,0 335.5,-30.5"/>
<text text-anchor="start" x="236" y="-17" font-family="Helvetica,sans-Serif" font-size="10.00">zklang/Dialect/ZHL</text>
<text text-anchor="middle" x="281.75" y="-5.75" font-family="Helvetica,sans-Serif" font-size="10.00">/Typing/Passes.h.inc</text>
</a>
</g>
</g>
<!-- Node1&#45;&gt;Node4 -->
<g id="edge3_Node000001_Node000004" class="edge">
<title>Node1&#45;&gt;Node4</title>
<g id="a_edge3_Node000001_Node000004"><a xlink:title=" ">
<path fill="none" stroke="#63b8ff" d="M191.3,-66.11C207.31,-57.29 227.92,-45.93 245.42,-36.28"/>
<polygon fill="#63b8ff" stroke="#63b8ff" points="246.91,-39.45 253.98,-31.56 243.53,-33.32 246.91,-39.45"/>
</a>
</g>
</g>
</g>
</svg>
