<?xml version="1.0" encoding="UTF-8" standalone="no"?>
<!DOCTYPE svg PUBLIC "-//W3C//DTD SVG 1.1//EN"
 "http://www.w3.org/Graphics/SVG/1.1/DTD/svg11.dtd">
<!-- Generated by graphviz version 12.2.1 (20241206.2353)
 -->
<!-- Title: include/zklang/Dialect/ZML/Transforms/Passes.h Pages: 1 -->
<svg width="2292pt" height="305pt"
 viewBox="0.00 0.00 2292.12 304.50" xmlns="http://www.w3.org/2000/svg" xmlns:xlink="http://www.w3.org/1999/xlink">
<g id="graph0" class="graph" transform="scale(1 1) rotate(0) translate(4 300.5)">
<title>include/zklang/Dialect/ZML/Transforms/Passes.h</title>
<!-- Node1 -->
<g id="Node000001" class="node">
<title>Node1</title>
<g id="a_Node000001"><a xlink:title=" ">
<polygon fill="#999999" stroke="#666666" points="2122.5,-296.5 1987.25,-296.5 1987.25,-266 2122.5,-266 2122.5,-296.5"/>
<text text-anchor="start" x="1995.25" y="-283" font-family="Helvetica,sans-Serif" font-size="10.00">include/zklang/Dialect</text>
<text text-anchor="middle" x="2054.88" y="-271.75" font-family="Helvetica,sans-Serif" font-size="10.00">/ZML/Transforms/Passes.h</text>
</a>
</g>
</g>
<!-- Node2 -->
<g id="Node000002" class="node">
<title>Node2</title>
<g id="a_Node000002"><a xlink:title=" ">
<polygon fill="#e0e0e0" stroke="#999999" points="2068.62,-24.88 1967.12,-24.88 1967.12,-5.63 2068.62,-5.63 2068.62,-24.88"/>
<text text-anchor="middle" x="2017.88" y="-11.38" font-family="Helvetica,sans-Serif" font-size="10.00">mlir/IR/BuiltinOps.h</text>
</a>
</g>
</g>
<!-- Node1&#45;&gt;Node2 -->
<g id="edge1_Node000001_Node000002" class="edge">
<title>Node1&#45;&gt;Node2</title>
<g id="a_edge1_Node000001_Node000002"><a xlink:title=" ">
<path fill="none" stroke="#63b8ff" d="M2048.89,-265.55C2045.12,-255.67 2040.48,-242.25 2037.88,-230 2022.99,-160.06 2019.18,-74.9 2018.21,-36.62"/>
<polygon fill="#63b8ff" stroke="#63b8ff" points="2021.71,-36.76 2018,-26.84 2014.71,-36.91 2021.71,-36.76"/>
</a>
</g>
</g>
<!-- Node3 -->
<g id="Node000003" class="node">
<title>Node3</title>
<g id="a_Node000003"><a xlink:title=" ">
<polygon fill="#e0e0e0" stroke="#999999" points="2137.38,-224.38 2046.38,-224.38 2046.38,-205.12 2137.38,-205.12 2137.38,-224.38"/>
<text text-anchor="middle" x="2091.88" y="-210.88" font-family="Helvetica,sans-Serif" font-size="10.00">mlir/Pass/Pass.h</text>
</a>
</g>
</g>
<!-- Node1&#45;&gt;Node3 -->
<g id="edge2_Node000001_Node000003" class="edge">
<title>Node1&#45;&gt;Node3</title>
<g id="a_edge2_Node000001_Node000003"><a xlink:title=" ">
<path fill="none" stroke="#63b8ff" d="M2063.27,-265.61C2068.59,-256.33 2075.53,-244.25 2081.24,-234.3"/>
<polygon fill="#63b8ff" stroke="#63b8ff" points="2084.12,-236.3 2086.06,-225.89 2078.05,-232.82 2084.12,-236.3"/>
</a>
</g>
</g>
<!-- Node4 -->
<g id="Node000004" class="node">
<title>Node4</title>
<g id="a_Node000004"><a xlink:href="_ops_8h.html" target="_top" xlink:title=" ">
<polygon fill="white" stroke="#666666" points="878.25,-230 777.5,-230 777.5,-199.5 878.25,-199.5 878.25,-230"/>
<text text-anchor="start" x="785.5" y="-216.5" font-family="Helvetica,sans-Serif" font-size="10.00">zklang/Dialect/ZML</text>
<text text-anchor="middle" x="827.88" y="-205.25" font-family="Helvetica,sans-Serif" font-size="10.00">/IR/Ops.h</text>
</a>
</g>
</g>
<!-- Node1&#45;&gt;Node4 -->
<g id="edge3_Node000001_Node000004" class="edge">
<title>Node1&#45;&gt;Node4</title>
<g id="a_edge3_Node000001_Node000004"><a xlink:title=" ">
<path fill="none" stroke="#63b8ff" d="M1987.16,-276.69C1770.82,-265.32 1098.37,-229.97 890.05,-219.02"/>
<polygon fill="#63b8ff" stroke="#63b8ff" points="890.42,-215.53 880.25,-218.5 890.05,-222.52 890.42,-215.53"/>
</a>
</g>
</g>
<!-- Node28 -->
<g id="Node000028" class="node">
<title>Node28</title>
<g id="a_Node000028"><a xlink:href="_dialect_2_z_m_l_2_transforms_2_passes_8h_8inc.html" target="_top" xlink:title=" ">
<polygon fill="white" stroke="#666666" points="2284.12,-230 2155.62,-230 2155.62,-199.5 2284.12,-199.5 2284.12,-230"/>
<text text-anchor="start" x="2163.62" y="-216.5" font-family="Helvetica,sans-Serif" font-size="10.00">zklang/Dialect/ZML</text>
<text text-anchor="middle" x="2219.88" y="-205.25" font-family="Helvetica,sans-Serif" font-size="10.00">/Transforms/Passes.h.inc</text>
</a>
</g>
</g>
<!-- Node1&#45;&gt;Node28 -->
<g id="edge45_Node000001_Node000028" class="edge">
<title>Node1&#45;&gt;Node28</title>
<g id="a_edge45_Node000001_Node000028"><a xlink:title=" ">
<path fill="none" stroke="#63b8ff" d="M2092.32,-265.61C2115.86,-256.41 2146.47,-244.45 2171.8,-234.54"/>
<polygon fill="#63b8ff" stroke="#63b8ff" points="2172.85,-237.89 2180.89,-230.99 2170.3,-231.37 2172.85,-237.89"/>
</a>
</g>
</g>
<!-- Node4&#45;&gt;Node2 -->
<g id="edge9_Node000004_Node000002" class="edge">
<title>Node4&#45;&gt;Node2</title>
<g id="a_edge9_Node000004_Node000002"><a xlink:title=" ">
<path fill="none" stroke="#63b8ff" d="M878.57,-213.1C1070.99,-210.39 1749.94,-198.42 1839.88,-163.5 1912.01,-135.49 1976.53,-66.05 2003.93,-33.55"/>
<polygon fill="#63b8ff" stroke="#63b8ff" points="2006.29,-36.18 2009.97,-26.24 2000.9,-31.72 2006.29,-36.18"/>
</a>
</g>
</g>
<!-- Node5 -->
<g id="Node000005" class="node">
<title>Node5</title>
<g id="a_Node000005"><a xlink:title=" ">
<polygon fill="#e0e0e0" stroke="#999999" points="1660.62,-24.88 1553.12,-24.88 1553.12,-5.63 1660.62,-5.63 1660.62,-24.88"/>
<text text-anchor="middle" x="1606.88" y="-11.38" font-family="Helvetica,sans-Serif" font-size="10.00">llvm/ADT/ArrayRef.h</text>
</a>
</g>
</g>
<!-- Node4&#45;&gt;Node5 -->
<g id="edge4_Node000004_Node000005" class="edge">
<title>Node4&#45;&gt;Node5</title>
<g id="a_edge4_Node000004_Node000005"><a xlink:title=" ">
<path fill="none" stroke="#63b8ff" d="M878.7,-212.39C1033.03,-207.97 1494.64,-192.6 1641.88,-163.5 1731.7,-145.74 1783.59,-171.47 1836.88,-97 1909.05,3.87 1838.24,-67.69 1669.88,-30.5 1666.04,-29.65 1662.07,-28.77 1658.07,-27.88"/>
<polygon fill="#63b8ff" stroke="#63b8ff" points="1658.85,-24.46 1648.33,-25.69 1657.32,-31.29 1658.85,-24.46"/>
</a>
</g>
</g>
<!-- Node6 -->
<g id="Node000006" class="node">
<title>Node6</title>
<g id="a_Node000006"><a xlink:title=" ">
<polygon fill="#e0e0e0" stroke="#999999" points="1799.38,-24.88 1678.38,-24.88 1678.38,-5.63 1799.38,-5.63 1799.38,-24.88"/>
<text text-anchor="middle" x="1738.88" y="-11.38" font-family="Helvetica,sans-Serif" font-size="10.00">llvm/ADT/SmallVector.h</text>
</a>
</g>
</g>
<!-- Node4&#45;&gt;Node6 -->
<g id="edge5_Node000004_Node000006" class="edge">
<title>Node4&#45;&gt;Node6</title>
<g id="a_edge5_Node000004_Node000006"><a xlink:title=" ">
<path fill="none" stroke="#63b8ff" d="M878.51,-213.78C1044.65,-213.44 1571.79,-208.72 1734.88,-163.5 1802.98,-144.62 1900.2,-125.22 1860.88,-66.5 1851.64,-52.71 1813.77,-38.43 1782.64,-28.63"/>
<polygon fill="#63b8ff" stroke="#63b8ff" points="1784,-25.39 1773.41,-25.81 1781.95,-32.08 1784,-25.39"/>
</a>
</g>
</g>
<!-- Node7 -->
<g id="Node000007" class="node">
<title>Node7</title>
<g id="a_Node000007"><a xlink:title=" ">
<polygon fill="#e0e0e0" stroke="#999999" points="109.75,-24.88 0,-24.88 0,-5.63 109.75,-5.63 109.75,-24.88"/>
<text text-anchor="middle" x="54.88" y="-11.38" font-family="Helvetica,sans-Serif" font-size="10.00">llvm/ADT/StringRef.h</text>
</a>
</g>
</g>
<!-- Node4&#45;&gt;Node7 -->
<g id="edge6_Node000004_Node000007" class="edge">
<title>Node4&#45;&gt;Node7</title>
<g id="a_edge6_Node000004_Node000007"><a xlink:title=" ">
<path fill="none" stroke="#63b8ff" d="M777.23,-212.01C698.23,-208.31 541.38,-197.05 412.88,-163.5 284.32,-129.94 140.82,-60.4 82.12,-30.46"/>
<polygon fill="#63b8ff" stroke="#63b8ff" points="84.01,-27.5 73.52,-26.04 80.81,-33.73 84.01,-27.5"/>
</a>
</g>
</g>
<!-- Node8 -->
<g id="Node000008" class="node">
<title>Node8</title>
<g id="a_Node000008"><a xlink:title=" ">
<polygon fill="#e0e0e0" stroke="#999999" points="260.38,-30.5 127.38,-30.5 127.38,0 260.38,0 260.38,-30.5"/>
<text text-anchor="start" x="135.38" y="-17" font-family="Helvetica,sans-Serif" font-size="10.00">mlir/Bytecode/BytecodeOp</text>
<text text-anchor="middle" x="193.88" y="-5.75" font-family="Helvetica,sans-Serif" font-size="10.00">Interface.h</text>
</a>
</g>
</g>
<!-- Node4&#45;&gt;Node8 -->
<g id="edge7_Node000004_Node000008" class="edge">
<title>Node4&#45;&gt;Node8</title>
<g id="a_edge7_Node000004_Node000008"><a xlink:title=" ">
<path fill="none" stroke="#63b8ff" d="M777.19,-210.81C711.32,-205.92 593.31,-193.49 496.88,-163.5 393.78,-131.44 281.81,-69.05 227.38,-36.74"/>
<polygon fill="#63b8ff" stroke="#63b8ff" points="229.26,-33.79 218.88,-31.66 225.67,-39.8 229.26,-33.79"/>
</a>
</g>
</g>
<!-- Node9 -->
<g id="Node000009" class="node">
<title>Node9</title>
<g id="a_Node000009"><a xlink:title=" ">
<polygon fill="#e0e0e0" stroke="#999999" points="381.75,-30.5 278,-30.5 278,0 381.75,0 381.75,-30.5"/>
<text text-anchor="start" x="286" y="-17" font-family="Helvetica,sans-Serif" font-size="10.00">mlir/Dialect/Func/IR</text>
<text text-anchor="middle" x="329.88" y="-5.75" font-family="Helvetica,sans-Serif" font-size="10.00">/FuncOps.h</text>
</a>
</g>
</g>
<!-- Node4&#45;&gt;Node9 -->
<g id="edge8_Node000004_Node000009" class="edge">
<title>Node4&#45;&gt;Node9</title>
<g id="a_edge8_Node000004_Node000009"><a xlink:title=" ">
<path fill="none" stroke="#63b8ff" d="M777.18,-209.75C722.86,-204.18 634.86,-191.43 563.88,-163.5 482.45,-131.46 398.33,-70.38 356.64,-37.87"/>
<polygon fill="#63b8ff" stroke="#63b8ff" points="358.91,-35.2 348.89,-31.76 354.57,-40.69 358.91,-35.2"/>
</a>
</g>
</g>
<!-- Node10 -->
<g id="Node000010" class="node">
<title>Node10</title>
<g id="a_Node000010"><a xlink:title=" ">
<polygon fill="#e0e0e0" stroke="#999999" points="510.12,-24.88 399.62,-24.88 399.62,-5.63 510.12,-5.63 510.12,-24.88"/>
<text text-anchor="middle" x="454.88" y="-11.38" font-family="Helvetica,sans-Serif" font-size="10.00">mlir/IR/OpDefinition.h</text>
</a>
</g>
</g>
<!-- Node4&#45;&gt;Node10 -->
<g id="edge10_Node000004_Node000010" class="edge">
<title>Node4&#45;&gt;Node10</title>
<g id="a_edge10_Node000004_Node000010"><a xlink:title=" ">
<path fill="none" stroke="#63b8ff" d="M777.3,-209.26C732.23,-203.6 665.59,-191.01 613.88,-163.5 550.93,-130.02 494.05,-65.43 468.75,-34.12"/>
<polygon fill="#63b8ff" stroke="#63b8ff" points="471.57,-32.05 462.62,-26.4 466.09,-36.4 471.57,-32.05"/>
</a>
</g>
</g>
<!-- Node11 -->
<g id="Node000011" class="node">
<title>Node11</title>
<g id="a_Node000011"><a xlink:title=" ">
<polygon fill="#e0e0e0" stroke="#999999" points="663.88,-24.88 527.88,-24.88 527.88,-5.63 663.88,-5.63 663.88,-24.88"/>
<text text-anchor="middle" x="595.88" y="-11.38" font-family="Helvetica,sans-Serif" font-size="10.00">mlir/IR/OpImplementation.h</text>
</a>
</g>
</g>
<!-- Node4&#45;&gt;Node11 -->
<g id="edge11_Node000004_Node000011" class="edge">
<title>Node4&#45;&gt;Node11</title>
<g id="a_edge11_Node000004_Node000011"><a xlink:title=" ">
<path fill="none" stroke="#63b8ff" d="M777.09,-213.4C734.73,-210.36 675.56,-199.31 638.88,-163.5 603.7,-129.17 596.89,-67.8 595.83,-36.23"/>
<polygon fill="#63b8ff" stroke="#63b8ff" points="599.34,-36.48 595.69,-26.53 592.34,-36.59 599.34,-36.48"/>
</a>
</g>
</g>
<!-- Node12 -->
<g id="Node000012" class="node">
<title>Node12</title>
<g id="a_Node000012"><a xlink:title=" ">
<polygon fill="#e0e0e0" stroke="#999999" points="832,-24.88 681.75,-24.88 681.75,-5.63 832,-5.63 832,-24.88"/>
<text text-anchor="middle" x="756.88" y="-11.38" font-family="Helvetica,sans-Serif" font-size="10.00">mlir/Interfaces/CallInterfaces.h</text>
</a>
</g>
</g>
<!-- Node4&#45;&gt;Node12 -->
<g id="edge12_Node000004_Node000012" class="edge">
<title>Node4&#45;&gt;Node12</title>
<g id="a_edge12_Node000004_Node000012"><a xlink:title=" ">
<path fill="none" stroke="#63b8ff" d="M777.19,-205.5C732.78,-197.11 673.15,-182.64 658.88,-163.5 633.1,-128.94 636.4,-103.29 658.88,-66.5 669.76,-48.69 689.18,-36.93 707.89,-29.3"/>
<polygon fill="#63b8ff" stroke="#63b8ff" points="708.87,-32.67 717.02,-25.9 706.43,-26.11 708.87,-32.67"/>
</a>
</g>
</g>
<!-- Node13 -->
<g id="Node000013" class="node">
<title>Node13</title>
<g id="a_Node000013"><a xlink:title=" ">
<polygon fill="#e0e0e0" stroke="#999999" points="983.75,-30.5 850,-30.5 850,0 983.75,0 983.75,-30.5"/>
<text text-anchor="start" x="858" y="-17" font-family="Helvetica,sans-Serif" font-size="10.00">mlir/Interfaces/ControlFlow</text>
<text text-anchor="middle" x="916.88" y="-5.75" font-family="Helvetica,sans-Serif" font-size="10.00">Interfaces.h</text>
</a>
</g>
</g>
<!-- Node4&#45;&gt;Node13 -->
<g id="edge13_Node000004_Node000013" class="edge">
<title>Node4&#45;&gt;Node13</title>
<g id="a_edge13_Node000004_Node000013"><a xlink:title=" ">
<path fill="none" stroke="#63b8ff" d="M777.28,-208.25C748.57,-202.24 714.88,-189.7 696.88,-163.5 672.45,-127.97 670,-100.21 696.88,-66.5 701.48,-60.72 777.06,-44.3 838.36,-31.79"/>
<polygon fill="#63b8ff" stroke="#63b8ff" points="839.03,-35.23 848.14,-29.81 837.64,-28.37 839.03,-35.23"/>
</a>
</g>
</g>
<!-- Node14 -->
<g id="Node000014" class="node">
<title>Node14</title>
<g id="a_Node000014"><a xlink:title=" ">
<polygon fill="#e0e0e0" stroke="#999999" points="1948.62,-30.5 1817.12,-30.5 1817.12,0 1948.62,0 1948.62,-30.5"/>
<text text-anchor="start" x="1825.12" y="-17" font-family="Helvetica,sans-Serif" font-size="10.00">mlir/Interfaces/DataLayout</text>
<text text-anchor="middle" x="1882.88" y="-5.75" font-family="Helvetica,sans-Serif" font-size="10.00">Interfaces.h</text>
</a>
</g>
</g>
<!-- Node4&#45;&gt;Node14 -->
<g id="edge14_Node000004_Node000014" class="edge">
<title>Node4&#45;&gt;Node14</title>
<g id="a_edge14_Node000004_Node000014"><a xlink:title=" ">
<path fill="none" stroke="#63b8ff" d="M878.62,-212.94C1065.77,-209.7 1710.87,-196.23 1796.88,-163.5 1841.05,-146.69 1858.63,-139.22 1879.88,-97 1888.4,-80.06 1888.76,-58.49 1887.2,-41.91"/>
<polygon fill="#63b8ff" stroke="#63b8ff" points="1890.72,-41.84 1886,-32.35 1883.77,-42.71 1890.72,-41.84"/>
</a>
</g>
</g>
<!-- Node15 -->
<g id="Node000015" class="node">
<title>Node15</title>
<g id="a_Node000015"><a xlink:title=" ">
<polygon fill="#e0e0e0" stroke="#999999" points="1120.25,-30.5 1001.5,-30.5 1001.5,0 1120.25,0 1120.25,-30.5"/>
<text text-anchor="start" x="1009.5" y="-17" font-family="Helvetica,sans-Serif" font-size="10.00">mlir/Interfaces/Function</text>
<text text-anchor="middle" x="1060.88" y="-5.75" font-family="Helvetica,sans-Serif" font-size="10.00">Interfaces.h</text>
</a>
</g>
</g>
<!-- Node4&#45;&gt;Node15 -->
<g id="edge15_Node000004_Node000015" class="edge">
<title>Node4&#45;&gt;Node15</title>
<g id="a_edge15_Node000004_Node000015"><a xlink:title=" ">
<path fill="none" stroke="#63b8ff" d="M805.29,-199.07C765.62,-171.54 691.11,-110.93 729.88,-66.5 766.61,-24.39 917.59,-38.78 989.9,-30.59"/>
<polygon fill="#63b8ff" stroke="#63b8ff" points="990.3,-34.07 999.72,-29.21 989.33,-27.14 990.3,-34.07"/>
</a>
</g>
</g>
<!-- Node16 -->
<g id="Node000016" class="node">
<title>Node16</title>
<g id="a_Node000016"><a xlink:title=" ">
<polygon fill="#e0e0e0" stroke="#999999" points="1390.75,-30.5 1269,-30.5 1269,0 1390.75,0 1390.75,-30.5"/>
<text text-anchor="start" x="1277" y="-17" font-family="Helvetica,sans-Serif" font-size="10.00">mlir/Interfaces/InferType</text>
<text text-anchor="middle" x="1329.88" y="-5.75" font-family="Helvetica,sans-Serif" font-size="10.00">OpInterface.h</text>
</a>
</g>
</g>
<!-- Node4&#45;&gt;Node16 -->
<g id="edge16_Node000004_Node000016" class="edge">
<title>Node4&#45;&gt;Node16</title>
<g id="a_edge16_Node000004_Node000016"><a xlink:title=" ">
<path fill="none" stroke="#63b8ff" d="M828.81,-199.08C831.6,-168.71 842.65,-99.07 885.88,-66.5 949.95,-18.21 1159.98,-40.88 1257.54,-30.5"/>
<polygon fill="#63b8ff" stroke="#63b8ff" points="1257.88,-33.99 1267.36,-29.25 1257,-27.04 1257.88,-33.99"/>
</a>
</g>
</g>
<!-- Node17 -->
<g id="Node000017" class="node">
<title>Node17</title>
<g id="a_Node000017"><a xlink:title=" ">
<polygon fill="#e0e0e0" stroke="#999999" points="1535.38,-30.5 1408.38,-30.5 1408.38,0 1535.38,0 1535.38,-30.5"/>
<text text-anchor="start" x="1416.38" y="-17" font-family="Helvetica,sans-Serif" font-size="10.00">mlir/Interfaces/SideEffect</text>
<text text-anchor="middle" x="1471.88" y="-5.75" font-family="Helvetica,sans-Serif" font-size="10.00">Interfaces.h</text>
</a>
</g>
</g>
<!-- Node4&#45;&gt;Node17 -->
<g id="edge17_Node000004_Node000017" class="edge">
<title>Node4&#45;&gt;Node17</title>
<g id="a_edge17_Node000004_Node000017"><a xlink:title=" ">
<path fill="none" stroke="#63b8ff" d="M878.66,-211.69C1071.21,-203.37 1748.48,-169.12 1808.88,-97 1867.33,-27.2 1878.38,-85.04 1546.75,-30.92"/>
<polygon fill="#63b8ff" stroke="#63b8ff" points="1547.76,-27.54 1537.32,-29.36 1546.62,-34.44 1547.76,-27.54"/>
</a>
</g>
</g>
<!-- Node18 -->
<g id="Node000018" class="node">
<title>Node18</title>
<g id="a_Node000018"><a xlink:href="_op_interfaces_8h.html" target="_top" xlink:title=" ">
<polygon fill="white" stroke="#666666" points="839.25,-97 738.5,-97 738.5,-66.5 839.25,-66.5 839.25,-97"/>
<text text-anchor="start" x="746.5" y="-83.5" font-family="Helvetica,sans-Serif" font-size="10.00">zklang/Dialect/ZML</text>
<text text-anchor="middle" x="788.88" y="-72.25" font-family="Helvetica,sans-Serif" font-size="10.00">/IR/OpInterfaces.h</text>
</a>
</g>
</g>
<!-- Node4&#45;&gt;Node18 -->
<g id="edge18_Node000004_Node000018" class="edge">
<title>Node4&#45;&gt;Node18</title>
<g id="a_edge18_Node000004_Node000018"><a xlink:title=" ">
<path fill="none" stroke="#63b8ff" d="M823.55,-199.23C817.02,-177.3 804.55,-135.4 796.48,-108.29"/>
<polygon fill="#63b8ff" stroke="#63b8ff" points="799.86,-107.37 793.65,-98.79 793.15,-109.37 799.86,-107.37"/>
</a>
</g>
</g>
<!-- Node20 -->
<g id="Node000020" class="node">
<title>Node20</title>
<g id="a_Node000020"><a xlink:href="_types_8h.html" target="_top" xlink:title=" ">
<polygon fill="white" stroke="#666666" points="1325.25,-163.5 1224.5,-163.5 1224.5,-133 1325.25,-133 1325.25,-163.5"/>
<text text-anchor="start" x="1232.5" y="-150" font-family="Helvetica,sans-Serif" font-size="10.00">zklang/Dialect/ZML</text>
<text text-anchor="middle" x="1274.88" y="-138.75" font-family="Helvetica,sans-Serif" font-size="10.00">/IR/Types.h</text>
</a>
</g>
</g>
<!-- Node4&#45;&gt;Node20 -->
<g id="edge34_Node000004_Node000020" class="edge">
<title>Node4&#45;&gt;Node20</title>
<g id="a_edge34_Node000004_Node000020"><a xlink:title=" ">
<path fill="none" stroke="#63b8ff" d="M878.72,-206.41C961.14,-194.52 1123.67,-171.07 1212.8,-158.21"/>
<polygon fill="#63b8ff" stroke="#63b8ff" points="1213.19,-161.69 1222.58,-156.8 1212.19,-154.76 1213.19,-161.69"/>
</a>
</g>
</g>
<!-- Node26 -->
<g id="Node000026" class="node">
<title>Node26</title>
<g id="a_Node000026"><a xlink:href="_ops_8h_8inc.html" target="_top" xlink:title=" ">
<polygon fill="white" stroke="#666666" points="1800.25,-97 1699.5,-97 1699.5,-66.5 1800.25,-66.5 1800.25,-97"/>
<text text-anchor="start" x="1707.5" y="-83.5" font-family="Helvetica,sans-Serif" font-size="10.00">zklang/Dialect/ZML</text>
<text text-anchor="middle" x="1749.88" y="-72.25" font-family="Helvetica,sans-Serif" font-size="10.00">/IR/Ops.h.inc</text>
</a>
</g>
</g>
<!-- Node4&#45;&gt;Node26 -->
<g id="edge44_Node000004_Node000026" class="edge">
<title>Node4&#45;&gt;Node26</title>
<g id="a_edge44_Node000004_Node000026"><a xlink:title=" ">
<path fill="none" stroke="#63b8ff" d="M878.69,-210.19C970.07,-203.45 1168.07,-187.35 1333.88,-163.5 1491.47,-140.83 1529.93,-129.08 1685.88,-97 1686.69,-96.83 1687.51,-96.66 1688.34,-96.49"/>
<polygon fill="#63b8ff" stroke="#63b8ff" points="1688.71,-99.99 1697.77,-94.49 1687.26,-93.14 1688.71,-99.99"/>
</a>
</g>
</g>
<!-- Node18&#45;&gt;Node2 -->
<g id="edge24_Node000018_Node000002" class="edge">
<title>Node18&#45;&gt;Node2</title>
<g id="a_edge24_Node000018_Node000002"><a xlink:title=" ">
<path fill="none" stroke="#63b8ff" d="M839.59,-72.2C854.47,-69.99 870.79,-67.86 885.88,-66.5 1360.67,-23.79 1485.4,-93.89 1957.88,-30.5 1963.1,-29.8 1968.54,-28.84 1973.92,-27.75"/>
<polygon fill="#63b8ff" stroke="#63b8ff" points="1974.28,-31.25 1983.29,-25.68 1972.78,-24.41 1974.28,-31.25"/>
</a>
</g>
</g>
<!-- Node18&#45;&gt;Node5 -->
<g id="edge19_Node000018_Node000005" class="edge">
<title>Node18&#45;&gt;Node5</title>
<g id="a_edge19_Node000018_Node000005"><a xlink:title=" ">
<path fill="none" stroke="#63b8ff" d="M839.61,-72.4C854.49,-70.2 870.8,-68.02 885.88,-66.5 1177.73,-37.15 1254.43,-71.5 1544.88,-30.5 1550.13,-29.76 1555.61,-28.79 1561.02,-27.71"/>
<polygon fill="#63b8ff" stroke="#63b8ff" points="1561.46,-31.2 1570.51,-25.69 1560,-24.35 1561.46,-31.2"/>
</a>
</g>
</g>
<!-- Node18&#45;&gt;Node6 -->
<g id="edge20_Node000018_Node000006" class="edge">
<title>Node18&#45;&gt;Node6</title>
<g id="a_edge20_Node000018_Node000006"><a xlink:title=" ">
<path fill="none" stroke="#63b8ff" d="M839.6,-72.32C854.48,-70.11 870.8,-67.95 885.88,-66.5 1233.08,-33.11 1323.78,-73.91 1669.88,-30.5 1676.25,-29.7 1682.92,-28.63 1689.48,-27.43"/>
<polygon fill="#63b8ff" stroke="#63b8ff" points="1689.73,-30.95 1698.89,-25.61 1688.4,-24.07 1689.73,-30.95"/>
</a>
</g>
</g>
<!-- Node18&#45;&gt;Node7 -->
<g id="edge21_Node000018_Node000007" class="edge">
<title>Node18&#45;&gt;Node7</title>
<g id="a_edge21_Node000018_Node000007"><a xlink:title=" ">
<path fill="none" stroke="#63b8ff" d="M738.09,-79.5C625.72,-76.19 347.78,-64.92 117.88,-30.5 112.61,-29.71 107.13,-28.72 101.69,-27.64"/>
<polygon fill="#63b8ff" stroke="#63b8ff" points="102.67,-24.27 92.16,-25.62 101.22,-31.12 102.67,-24.27"/>
</a>
</g>
</g>
<!-- Node18&#45;&gt;Node8 -->
<g id="edge22_Node000018_Node000008" class="edge">
<title>Node18&#45;&gt;Node8</title>
<g id="a_edge22_Node000018_Node000008"><a xlink:title=" ">
<path fill="none" stroke="#63b8ff" d="M738.13,-77.39C646.84,-71.02 448.69,-55.66 271.83,-30.84"/>
<polygon fill="#63b8ff" stroke="#63b8ff" points="272.37,-27.38 261.98,-29.44 271.39,-34.31 272.37,-27.38"/>
</a>
</g>
</g>
<!-- Node18&#45;&gt;Node9 -->
<g id="edge23_Node000018_Node000009" class="edge">
<title>Node18&#45;&gt;Node9</title>
<g id="a_edge23_Node000018_Node000009"><a xlink:title=" ">
<path fill="none" stroke="#63b8ff" d="M738.04,-76.04C664.28,-68.83 523.07,-53.63 393.36,-30.83"/>
<polygon fill="#63b8ff" stroke="#63b8ff" points="393.99,-27.38 383.53,-29.08 392.77,-34.28 393.99,-27.38"/>
</a>
</g>
</g>
<!-- Node18&#45;&gt;Node10 -->
<g id="edge25_Node000018_Node000010" class="edge">
<title>Node18&#45;&gt;Node10</title>
<g id="a_edge25_Node000018_Node000010"><a xlink:title=" ">
<path fill="none" stroke="#63b8ff" d="M738.01,-71.83C683.66,-62.18 595.02,-46.06 518.88,-30.5 514.61,-29.63 510.18,-28.7 505.75,-27.75"/>
<polygon fill="#63b8ff" stroke="#63b8ff" points="506.77,-24.39 496.25,-25.68 505.28,-31.23 506.77,-24.39"/>
</a>
</g>
</g>
<!-- Node18&#45;&gt;Node11 -->
<g id="edge26_Node000018_Node000011" class="edge">
<title>Node18&#45;&gt;Node11</title>
<g id="a_edge26_Node000018_Node000011"><a xlink:title=" ">
<path fill="none" stroke="#63b8ff" d="M745.08,-66.11C711.55,-54.91 665.78,-39.61 633.81,-28.93"/>
<polygon fill="#63b8ff" stroke="#63b8ff" points="635.15,-25.68 624.55,-25.83 632.93,-32.32 635.15,-25.68"/>
</a>
</g>
</g>
<!-- Node18&#45;&gt;Node12 -->
<g id="edge27_Node000018_Node000012" class="edge">
<title>Node18&#45;&gt;Node12</title>
<g id="a_edge27_Node000018_Node000012"><a xlink:title=" ">
<path fill="none" stroke="#63b8ff" d="M781.61,-66.11C777.06,-56.93 771.14,-45 766.23,-35.11"/>
<polygon fill="#63b8ff" stroke="#63b8ff" points="769.5,-33.83 761.92,-26.43 763.23,-36.94 769.5,-33.83"/>
</a>
</g>
</g>
<!-- Node18&#45;&gt;Node13 -->
<g id="edge28_Node000018_Node000013" class="edge">
<title>Node18&#45;&gt;Node13</title>
<g id="a_edge28_Node000018_Node000013"><a xlink:title=" ">
<path fill="none" stroke="#63b8ff" d="M817.92,-66.11C835.6,-57.21 858.4,-45.72 877.66,-36.01"/>
<polygon fill="#63b8ff" stroke="#63b8ff" points="879.24,-39.13 886.59,-31.51 876.09,-32.88 879.24,-39.13"/>
</a>
</g>
</g>
<!-- Node18&#45;&gt;Node14 -->
<g id="edge29_Node000018_Node000014" class="edge">
<title>Node18&#45;&gt;Node14</title>
<g id="a_edge29_Node000018_Node000014"><a xlink:title=" ">
<path fill="none" stroke="#63b8ff" d="M839.6,-72.25C854.47,-70.05 870.79,-67.9 885.88,-66.5 1290.96,-28.95 1399.09,-76.57 1805.6,-30.77"/>
<polygon fill="#63b8ff" stroke="#63b8ff" points="1805.74,-34.27 1815.28,-29.66 1804.95,-27.32 1805.74,-34.27"/>
</a>
</g>
</g>
<!-- Node18&#45;&gt;Node15 -->
<g id="edge30_Node000018_Node000015" class="edge">
<title>Node18&#45;&gt;Node15</title>
<g id="a_edge30_Node000018_Node000015"><a xlink:title=" ">
<path fill="none" stroke="#63b8ff" d="M839.72,-68.69C882.14,-58.63 943.05,-44.19 990.22,-33.01"/>
<polygon fill="#63b8ff" stroke="#63b8ff" points="990.88,-36.44 999.81,-30.73 989.27,-29.63 990.88,-36.44"/>
</a>
</g>
</g>
<!-- Node18&#45;&gt;Node16 -->
<g id="edge31_Node000018_Node000016" class="edge">
<title>Node18&#45;&gt;Node16</title>
<g id="a_edge31_Node000018_Node000016"><a xlink:title=" ">
<path fill="none" stroke="#63b8ff" d="M839.41,-68.86C843.95,-67.98 848.49,-67.18 852.88,-66.5 1028.74,-39.26 1078.2,-55.95 1257.7,-30.69"/>
<polygon fill="#63b8ff" stroke="#63b8ff" points="1257.96,-34.19 1267.36,-29.31 1256.97,-27.26 1257.96,-34.19"/>
</a>
</g>
</g>
<!-- Node18&#45;&gt;Node17 -->
<g id="edge32_Node000018_Node000017" class="edge">
<title>Node18&#45;&gt;Node17</title>
<g id="a_edge32_Node000018_Node000017"><a xlink:title=" ">
<path fill="none" stroke="#63b8ff" d="M839.63,-72.55C854.5,-70.35 870.81,-68.13 885.88,-66.5 1109.88,-42.24 1170.93,-60.19 1396.73,-30.82"/>
<polygon fill="#63b8ff" stroke="#63b8ff" points="1397,-34.31 1406.45,-29.53 1396.08,-27.37 1397,-34.31"/>
</a>
</g>
</g>
<!-- Node19 -->
<g id="Node000019" class="node">
<title>Node19</title>
<g id="a_Node000019"><a xlink:href="_op_interfaces_8h_8inc.html" target="_top" xlink:title=" ">
<polygon fill="white" stroke="#666666" points="1251.25,-30.5 1138.5,-30.5 1138.5,0 1251.25,0 1251.25,-30.5"/>
<text text-anchor="start" x="1146.5" y="-17" font-family="Helvetica,sans-Serif" font-size="10.00">zklang/Dialect/ZML</text>
<text text-anchor="middle" x="1194.88" y="-5.75" font-family="Helvetica,sans-Serif" font-size="10.00">/IR/OpInterfaces.h.inc</text>
</a>
</g>
</g>
<!-- Node18&#45;&gt;Node19 -->
<g id="edge33_Node000018_Node000019" class="edge">
<title>Node18&#45;&gt;Node19</title>
<g id="a_edge33_Node000018_Node000019"><a xlink:title=" ">
<path fill="none" stroke="#63b8ff" d="M839.45,-69.05C843.98,-68.14 848.5,-67.27 852.88,-66.5 971.14,-45.66 1005.01,-51.21 1126.78,-30.76"/>
<polygon fill="#63b8ff" stroke="#63b8ff" points="1127.29,-34.22 1136.56,-29.09 1126.11,-27.32 1127.29,-34.22"/>
</a>
</g>
</g>
<!-- Node20&#45;&gt;Node14 -->
<g id="edge39_Node000020_Node000014" class="edge">
<title>Node20&#45;&gt;Node14</title>
<g id="a_edge39_Node000020_Node000014"><a xlink:title=" ">
<path fill="none" stroke="#63b8ff" d="M1325.41,-143.91C1414.37,-137.48 1594.98,-121.77 1652.88,-97 1672.79,-88.48 1671.53,-76.23 1690.88,-66.5 1711.23,-56.26 1761.82,-43.18 1805.96,-32.94"/>
<polygon fill="#63b8ff" stroke="#63b8ff" points="1806.58,-36.38 1815.55,-30.73 1805.02,-29.56 1806.58,-36.38"/>
</a>
</g>
</g>
<!-- Node20&#45;&gt;Node18 -->
<g id="edge41_Node000020_Node000018" class="edge">
<title>Node20&#45;&gt;Node18</title>
<g id="a_edge41_Node000020_Node000018"><a xlink:title=" ">
<path fill="none" stroke="#63b8ff" d="M1224.17,-140.99C1149.89,-131.74 1007.13,-113.74 885.88,-97 874.62,-95.45 862.64,-93.73 851.08,-92.05"/>
<polygon fill="#63b8ff" stroke="#63b8ff" points="851.6,-88.59 841.19,-90.61 850.58,-95.52 851.6,-88.59"/>
</a>
</g>
</g>
<!-- Node21 -->
<g id="Node000021" class="node">
<title>Node21</title>
<g id="a_Node000021"><a xlink:title=" ">
<polygon fill="#e0e0e0" stroke="#999999" points="1014.62,-91.38 895.12,-91.38 895.12,-72.12 1014.62,-72.12 1014.62,-91.38"/>
<text text-anchor="middle" x="954.88" y="-77.88" font-family="Helvetica,sans-Serif" font-size="10.00">llvm/ADT/TypeSwitch.h</text>
</a>
</g>
</g>
<!-- Node20&#45;&gt;Node21 -->
<g id="edge35_Node000020_Node000021" class="edge">
<title>Node20&#45;&gt;Node21</title>
<g id="a_edge35_Node000020_Node000021"><a xlink:title=" ">
<path fill="none" stroke="#63b8ff" d="M1224.38,-137.23C1173.68,-127.16 1093.34,-111.13 1023.88,-97 1019.29,-96.07 1014.53,-95.1 1009.76,-94.12"/>
<polygon fill="#63b8ff" stroke="#63b8ff" points="1010.65,-90.73 1000.15,-92.14 1009.24,-97.58 1010.65,-90.73"/>
</a>
</g>
</g>
<!-- Node22 -->
<g id="Node000022" class="node">
<title>Node22</title>
<g id="a_Node000022"><a xlink:title=" ">
<polygon fill="#e0e0e0" stroke="#999999" points="1142.75,-91.38 1033,-91.38 1033,-72.12 1142.75,-72.12 1142.75,-91.38"/>
<text text-anchor="middle" x="1087.88" y="-77.88" font-family="Helvetica,sans-Serif" font-size="10.00">mlir/IR/BuiltinTypes.h</text>
</a>
</g>
</g>
<!-- Node20&#45;&gt;Node22 -->
<g id="edge36_Node000020_Node000022" class="edge">
<title>Node20&#45;&gt;Node22</title>
<g id="a_edge36_Node000020_Node000022"><a xlink:title=" ">
<path fill="none" stroke="#63b8ff" d="M1232.44,-132.61C1200.1,-121.46 1156,-106.25 1125.04,-95.57"/>
<polygon fill="#63b8ff" stroke="#63b8ff" points="1126.29,-92.3 1115.7,-92.35 1124.01,-98.92 1126.29,-92.3"/>
</a>
</g>
</g>
<!-- Node23 -->
<g id="Node000023" class="node">
<title>Node23</title>
<g id="a_Node000023"><a xlink:title=" ">
<polygon fill="#e0e0e0" stroke="#999999" points="1273.25,-91.38 1160.5,-91.38 1160.5,-72.12 1273.25,-72.12 1273.25,-91.38"/>
<text text-anchor="middle" x="1216.88" y="-77.88" font-family="Helvetica,sans-Serif" font-size="10.00">mlir/IR/SymbolTable.h</text>
</a>
</g>
</g>
<!-- Node20&#45;&gt;Node23 -->
<g id="edge37_Node000020_Node000023" class="edge">
<title>Node20&#45;&gt;Node23</title>
<g id="a_edge37_Node000020_Node000023"><a xlink:title=" ">
<path fill="none" stroke="#63b8ff" d="M1261.71,-132.61C1253.01,-122.94 1241.57,-110.21 1232.42,-100.04"/>
<polygon fill="#63b8ff" stroke="#63b8ff" points="1235.11,-97.79 1225.82,-92.7 1229.9,-102.47 1235.11,-97.79"/>
</a>
</g>
</g>
<!-- Node24 -->
<g id="Node000024" class="node">
<title>Node24</title>
<g id="a_Node000024"><a xlink:title=" ">
<polygon fill="#e0e0e0" stroke="#999999" points="1374.25,-91.38 1291.5,-91.38 1291.5,-72.12 1374.25,-72.12 1374.25,-91.38"/>
<text text-anchor="middle" x="1332.88" y="-77.88" font-family="Helvetica,sans-Serif" font-size="10.00">mlir/IR/Types.h</text>
</a>
</g>
</g>
<!-- Node20&#45;&gt;Node24 -->
<g id="edge38_Node000020_Node000024" class="edge">
<title>Node20&#45;&gt;Node24</title>
<g id="a_edge38_Node000020_Node000024"><a xlink:title=" ">
<path fill="none" stroke="#63b8ff" d="M1288.04,-132.61C1296.74,-122.94 1308.18,-110.21 1317.33,-100.04"/>
<polygon fill="#63b8ff" stroke="#63b8ff" points="1319.85,-102.47 1323.93,-92.7 1314.64,-97.79 1319.85,-102.47"/>
</a>
</g>
</g>
<!-- Node25 -->
<g id="Node000025" class="node">
<title>Node25</title>
<g id="a_Node000025"><a xlink:title=" ">
<polygon fill="#e0e0e0" stroke="#999999" points="1525.75,-97 1392,-97 1392,-66.5 1525.75,-66.5 1525.75,-97"/>
<text text-anchor="start" x="1400" y="-83.5" font-family="Helvetica,sans-Serif" font-size="10.00">mlir/Interfaces/MemorySlot</text>
<text text-anchor="middle" x="1458.88" y="-72.25" font-family="Helvetica,sans-Serif" font-size="10.00">Interfaces.h</text>
</a>
</g>
</g>
<!-- Node20&#45;&gt;Node25 -->
<g id="edge40_Node000020_Node000025" class="edge">
<title>Node20&#45;&gt;Node25</title>
<g id="a_edge40_Node000020_Node000025"><a xlink:title=" ">
<path fill="none" stroke="#63b8ff" d="M1316.63,-132.61C1343.23,-123.29 1377.93,-111.12 1406.4,-101.15"/>
<polygon fill="#63b8ff" stroke="#63b8ff" points="1407.26,-104.55 1415.54,-97.94 1404.95,-97.95 1407.26,-104.55"/>
</a>
</g>
</g>
<!-- Node20&#45;&gt;Node26 -->
<g id="edge42_Node000020_Node000026" class="edge">
<title>Node20&#45;&gt;Node26</title>
<g id="a_edge42_Node000020_Node000026"><a xlink:title=" ">
<path fill="none" stroke="#63b8ff" d="M1325.73,-142.64C1403.6,-135.22 1556.94,-119.18 1685.88,-97 1686.7,-96.86 1687.52,-96.71 1688.35,-96.57"/>
<polygon fill="#63b8ff" stroke="#63b8ff" points="1688.65,-100.07 1697.82,-94.77 1687.35,-93.19 1688.65,-100.07"/>
</a>
</g>
</g>
<!-- Node27 -->
<g id="Node000027" class="node">
<title>Node27</title>
<g id="a_Node000027"><a xlink:href="_types_8h_8inc.html" target="_top" xlink:title=" ">
<polygon fill="white" stroke="#666666" points="1644.25,-97 1543.5,-97 1543.5,-66.5 1644.25,-66.5 1644.25,-97"/>
<text text-anchor="start" x="1551.5" y="-83.5" font-family="Helvetica,sans-Serif" font-size="10.00">zklang/Dialect/ZML</text>
<text text-anchor="middle" x="1593.88" y="-72.25" font-family="Helvetica,sans-Serif" font-size="10.00">/IR/Types.h.inc</text>
</a>
</g>
</g>
<!-- Node20&#45;&gt;Node27 -->
<g id="edge43_Node000020_Node000027" class="edge">
<title>Node20&#45;&gt;Node27</title>
<g id="a_edge43_Node000020_Node000027"><a xlink:title=" ">
<path fill="none" stroke="#63b8ff" d="M1325.34,-138.21C1375.48,-129.07 1454.79,-114.18 1532.16,-97.54"/>
<polygon fill="#63b8ff" stroke="#63b8ff" points="1532.55,-101.04 1541.58,-95.5 1531.07,-94.19 1532.55,-101.04"/>
</a>
</g>
</g>
</g>
</svg>
