<?xml version="1.0" encoding="UTF-8" standalone="no"?>
<!DOCTYPE svg PUBLIC "-//W3C//DTD SVG 1.1//EN"
 "http://www.w3.org/Graphics/SVG/1.1/DTD/svg11.dtd">
<!-- Generated by graphviz version 12.2.1 (20241206.2353)
 -->
<!-- Title: include/zklang/Dialect/ZML/Utils/Patterns.h Pages: 1 -->
<svg width="2508pt" height="305pt"
 viewBox="0.00 0.00 2507.75 304.50" xmlns="http://www.w3.org/2000/svg" xmlns:xlink="http://www.w3.org/1999/xlink">
<g id="graph0" class="graph" transform="scale(1 1) rotate(0) translate(4 300.5)">
<title>include/zklang/Dialect/ZML/Utils/Patterns.h</title>
<!-- Node1 -->
<g id="Node000001" class="node">
<title>Node1</title>
<g id="a_Node000001"><a xlink:title=" ">
<polygon fill="#999999" stroke="#666666" points="2152.88,-296.5 2040.88,-296.5 2040.88,-266 2152.88,-266 2152.88,-296.5"/>
<text text-anchor="start" x="2048.88" y="-283" font-family="Helvetica,sans-Serif" font-size="10.00">include/zklang/Dialect</text>
<text text-anchor="middle" x="2096.88" y="-271.75" font-family="Helvetica,sans-Serif" font-size="10.00">/ZML/Utils/Patterns.h</text>
</a>
</g>
</g>
<!-- Node2 -->
<g id="Node000002" class="node">
<title>Node2</title>
<g id="a_Node000002"><a xlink:title=" ">
<polygon fill="#e0e0e0" stroke="#999999" points="2068.75,-30.5 1965,-30.5 1965,0 2068.75,0 2068.75,-30.5"/>
<text text-anchor="start" x="1973" y="-17" font-family="Helvetica,sans-Serif" font-size="10.00">mlir/Dialect/Func/IR</text>
<text text-anchor="middle" x="2016.88" y="-5.75" font-family="Helvetica,sans-Serif" font-size="10.00">/FuncOps.h</text>
</a>
</g>
</g>
<!-- Node1&#45;&gt;Node2 -->
<g id="edge1_Node000001_Node000002" class="edge">
<title>Node1&#45;&gt;Node2</title>
<g id="a_edge1_Node000001_Node000002"><a xlink:title=" ">
<path fill="none" stroke="#63b8ff" d="M2070.65,-265.53C2057.9,-256.91 2043.68,-244.81 2035.88,-230 2003.68,-168.94 2008.14,-84.3 2013.05,-42.2"/>
<polygon fill="#63b8ff" stroke="#63b8ff" points="2016.52,-42.67 2014.33,-32.3 2009.58,-41.78 2016.52,-42.67"/>
</a>
</g>
</g>
<!-- Node3 -->
<g id="Node000003" class="node">
<title>Node3</title>
<g id="a_Node000003"><a xlink:title=" ">
<polygon fill="#e0e0e0" stroke="#999999" points="2149.12,-224.38 2044.62,-224.38 2044.62,-205.12 2149.12,-205.12 2149.12,-224.38"/>
<text text-anchor="middle" x="2096.88" y="-210.88" font-family="Helvetica,sans-Serif" font-size="10.00">mlir/Support/LLVM.h</text>
</a>
</g>
</g>
<!-- Node1&#45;&gt;Node3 -->
<g id="edge2_Node000001_Node000003" class="edge">
<title>Node1&#45;&gt;Node3</title>
<g id="a_edge2_Node000001_Node000003"><a xlink:title=" ">
<path fill="none" stroke="#63b8ff" d="M2096.88,-265.61C2096.88,-256.83 2096.88,-245.52 2096.88,-235.9"/>
<polygon fill="#63b8ff" stroke="#63b8ff" points="2100.38,-236.09 2096.88,-226.09 2093.38,-236.09 2100.38,-236.09"/>
</a>
</g>
</g>
<!-- Node4 -->
<g id="Node000004" class="node">
<title>Node4</title>
<g id="a_Node000004"><a xlink:title=" ">
<polygon fill="#e0e0e0" stroke="#999999" points="2306.38,-224.38 2167.38,-224.38 2167.38,-205.12 2306.38,-205.12 2306.38,-224.38"/>
<text text-anchor="middle" x="2236.88" y="-210.88" font-family="Helvetica,sans-Serif" font-size="10.00">mlir/Support/LogicalResult.h</text>
</a>
</g>
</g>
<!-- Node1&#45;&gt;Node4 -->
<g id="edge3_Node000001_Node000004" class="edge">
<title>Node1&#45;&gt;Node4</title>
<g id="a_edge3_Node000001_Node000004"><a xlink:title=" ">
<path fill="none" stroke="#63b8ff" d="M2128.64,-265.61C2152.18,-254.77 2184.04,-240.09 2207.1,-229.47"/>
<polygon fill="#63b8ff" stroke="#63b8ff" points="2208.33,-232.76 2215.94,-225.39 2205.4,-226.4 2208.33,-232.76"/>
</a>
</g>
</g>
<!-- Node5 -->
<g id="Node000005" class="node">
<title>Node5</title>
<g id="a_Node000005"><a xlink:title=" ">
<polygon fill="#e0e0e0" stroke="#999999" points="2499.75,-224.38 2324,-224.38 2324,-205.12 2499.75,-205.12 2499.75,-224.38"/>
<text text-anchor="middle" x="2411.88" y="-210.88" font-family="Helvetica,sans-Serif" font-size="10.00">mlir/Transforms/DialectConversion.h</text>
</a>
</g>
</g>
<!-- Node1&#45;&gt;Node5 -->
<g id="edge4_Node000001_Node000005" class="edge">
<title>Node1&#45;&gt;Node5</title>
<g id="a_edge4_Node000001_Node000005"><a xlink:title=" ">
<path fill="none" stroke="#63b8ff" d="M2153.19,-268.72C2210.76,-256.93 2299.6,-238.74 2356.74,-227.04"/>
<polygon fill="#63b8ff" stroke="#63b8ff" points="2357.15,-230.53 2366.24,-225.09 2355.74,-223.67 2357.15,-230.53"/>
</a>
</g>
</g>
<!-- Node6 -->
<g id="Node000006" class="node">
<title>Node6</title>
<g id="a_Node000006"><a xlink:href="_ops_8h.html" target="_top" xlink:title=" ">
<polygon fill="white" stroke="#666666" points="877.25,-230 776.5,-230 776.5,-199.5 877.25,-199.5 877.25,-230"/>
<text text-anchor="start" x="784.5" y="-216.5" font-family="Helvetica,sans-Serif" font-size="10.00">zklang/Dialect/ZML</text>
<text text-anchor="middle" x="826.88" y="-205.25" font-family="Helvetica,sans-Serif" font-size="10.00">/IR/Ops.h</text>
</a>
</g>
</g>
<!-- Node1&#45;&gt;Node6 -->
<g id="edge5_Node000001_Node000006" class="edge">
<title>Node1&#45;&gt;Node6</title>
<g id="a_edge5_Node000001_Node000006"><a xlink:title=" ">
<path fill="none" stroke="#63b8ff" d="M2040.67,-277.4C1832.55,-266.83 1106.65,-229.96 889.01,-218.91"/>
<polygon fill="#63b8ff" stroke="#63b8ff" points="889.2,-215.41 879.03,-218.4 888.84,-222.4 889.2,-215.41"/>
</a>
</g>
</g>
<!-- Node6&#45;&gt;Node2 -->
<g id="edge10_Node000006_Node000002" class="edge">
<title>Node6&#45;&gt;Node2</title>
<g id="a_edge10_Node000006_Node000002"><a xlink:title=" ">
<path fill="none" stroke="#63b8ff" d="M877.57,-213.1C1069.99,-210.39 1748.94,-198.42 1838.88,-163.5 1907.17,-136.98 1968.63,-73.33 1998.24,-39.04"/>
<polygon fill="#63b8ff" stroke="#63b8ff" points="2000.62,-41.65 2004.42,-31.76 1995.28,-37.12 2000.62,-41.65"/>
</a>
</g>
</g>
<!-- Node7 -->
<g id="Node000007" class="node">
<title>Node7</title>
<g id="a_Node000007"><a xlink:title=" ">
<polygon fill="#e0e0e0" stroke="#999999" points="1658.62,-24.88 1551.12,-24.88 1551.12,-5.63 1658.62,-5.63 1658.62,-24.88"/>
<text text-anchor="middle" x="1604.88" y="-11.38" font-family="Helvetica,sans-Serif" font-size="10.00">llvm/ADT/ArrayRef.h</text>
</a>
</g>
</g>
<!-- Node6&#45;&gt;Node7 -->
<g id="edge6_Node000006_Node000007" class="edge">
<title>Node6&#45;&gt;Node7</title>
<g id="a_edge6_Node000006_Node000007"><a xlink:title=" ">
<path fill="none" stroke="#63b8ff" d="M877.7,-212.39C1032.03,-207.97 1493.64,-192.6 1640.88,-163.5 1730.7,-145.74 1782.59,-171.47 1835.88,-97 1908.37,4.31 1838.99,-68.18 1667.88,-30.5 1664.04,-29.65 1660.07,-28.77 1656.07,-27.88"/>
<polygon fill="#63b8ff" stroke="#63b8ff" points="1656.85,-24.47 1646.33,-25.7 1655.32,-31.3 1656.85,-24.47"/>
</a>
</g>
</g>
<!-- Node8 -->
<g id="Node000008" class="node">
<title>Node8</title>
<g id="a_Node000008"><a xlink:title=" ">
<polygon fill="#e0e0e0" stroke="#999999" points="1797.38,-24.88 1676.38,-24.88 1676.38,-5.63 1797.38,-5.63 1797.38,-24.88"/>
<text text-anchor="middle" x="1736.88" y="-11.38" font-family="Helvetica,sans-Serif" font-size="10.00">llvm/ADT/SmallVector.h</text>
</a>
</g>
</g>
<!-- Node6&#45;&gt;Node8 -->
<g id="edge7_Node000006_Node000008" class="edge">
<title>Node6&#45;&gt;Node8</title>
<g id="a_edge7_Node000006_Node000008"><a xlink:title=" ">
<path fill="none" stroke="#63b8ff" d="M877.51,-213.78C1043.65,-213.44 1570.79,-208.72 1733.88,-163.5 1801.98,-144.62 1899.28,-125.17 1859.88,-66.5 1850.56,-52.63 1812.37,-38.36 1780.99,-28.59"/>
<polygon fill="#63b8ff" stroke="#63b8ff" points="1782.27,-25.32 1771.68,-25.77 1780.24,-32.01 1782.27,-25.32"/>
</a>
</g>
</g>
<!-- Node9 -->
<g id="Node000009" class="node">
<title>Node9</title>
<g id="a_Node000009"><a xlink:title=" ">
<polygon fill="#e0e0e0" stroke="#999999" points="109.75,-24.88 0,-24.88 0,-5.63 109.75,-5.63 109.75,-24.88"/>
<text text-anchor="middle" x="54.88" y="-11.38" font-family="Helvetica,sans-Serif" font-size="10.00">llvm/ADT/StringRef.h</text>
</a>
</g>
</g>
<!-- Node6&#45;&gt;Node9 -->
<g id="edge8_Node000006_Node000009" class="edge">
<title>Node6&#45;&gt;Node9</title>
<g id="a_edge8_Node000006_Node000009"><a xlink:title=" ">
<path fill="none" stroke="#63b8ff" d="M776.23,-212.02C697.22,-208.35 540.36,-197.11 411.88,-163.5 283.65,-129.96 140.56,-60.41 82.04,-30.47"/>
<polygon fill="#63b8ff" stroke="#63b8ff" points="83.96,-27.52 73.46,-26.05 80.75,-33.74 83.96,-27.52"/>
</a>
</g>
</g>
<!-- Node10 -->
<g id="Node000010" class="node">
<title>Node10</title>
<g id="a_Node000010"><a xlink:title=" ">
<polygon fill="#e0e0e0" stroke="#999999" points="260.38,-30.5 127.38,-30.5 127.38,0 260.38,0 260.38,-30.5"/>
<text text-anchor="start" x="135.38" y="-17" font-family="Helvetica,sans-Serif" font-size="10.00">mlir/Bytecode/BytecodeOp</text>
<text text-anchor="middle" x="193.88" y="-5.75" font-family="Helvetica,sans-Serif" font-size="10.00">Interface.h</text>
</a>
</g>
</g>
<!-- Node6&#45;&gt;Node10 -->
<g id="edge9_Node000006_Node000010" class="edge">
<title>Node6&#45;&gt;Node10</title>
<g id="a_edge9_Node000006_Node000010"><a xlink:title=" ">
<path fill="none" stroke="#63b8ff" d="M776.18,-210.83C710.3,-205.96 592.29,-193.55 495.88,-163.5 393.07,-131.46 281.5,-69.06 227.25,-36.74"/>
<polygon fill="#63b8ff" stroke="#63b8ff" points="229.17,-33.81 218.8,-31.67 225.57,-39.82 229.17,-33.81"/>
</a>
</g>
</g>
<!-- Node11 -->
<g id="Node000011" class="node">
<title>Node11</title>
<g id="a_Node000011"><a xlink:title=" ">
<polygon fill="#e0e0e0" stroke="#999999" points="379.62,-24.88 278.12,-24.88 278.12,-5.63 379.62,-5.63 379.62,-24.88"/>
<text text-anchor="middle" x="328.88" y="-11.38" font-family="Helvetica,sans-Serif" font-size="10.00">mlir/IR/BuiltinOps.h</text>
</a>
</g>
</g>
<!-- Node6&#45;&gt;Node11 -->
<g id="edge11_Node000006_Node000011" class="edge">
<title>Node6&#45;&gt;Node11</title>
<g id="a_edge11_Node000006_Node000011"><a xlink:title=" ">
<path fill="none" stroke="#63b8ff" d="M776.18,-209.75C721.86,-204.18 633.86,-191.43 562.88,-163.5 476.4,-129.48 386.9,-62.7 348.4,-32.17"/>
<polygon fill="#63b8ff" stroke="#63b8ff" points="350.91,-29.7 340.92,-26.18 346.53,-35.16 350.91,-29.7"/>
</a>
</g>
</g>
<!-- Node12 -->
<g id="Node000012" class="node">
<title>Node12</title>
<g id="a_Node000012"><a xlink:title=" ">
<polygon fill="#e0e0e0" stroke="#999999" points="508.12,-24.88 397.62,-24.88 397.62,-5.63 508.12,-5.63 508.12,-24.88"/>
<text text-anchor="middle" x="452.88" y="-11.38" font-family="Helvetica,sans-Serif" font-size="10.00">mlir/IR/OpDefinition.h</text>
</a>
</g>
</g>
<!-- Node6&#45;&gt;Node12 -->
<g id="edge12_Node000006_Node000012" class="edge">
<title>Node6&#45;&gt;Node12</title>
<g id="a_edge12_Node000006_Node000012"><a xlink:title=" ">
<path fill="none" stroke="#63b8ff" d="M776.32,-209.23C731.27,-203.53 664.64,-190.93 612.88,-163.5 549.67,-130.01 492.37,-65.42 466.86,-34.12"/>
<polygon fill="#63b8ff" stroke="#63b8ff" points="469.66,-32.01 460.68,-26.39 464.19,-36.39 469.66,-32.01"/>
</a>
</g>
</g>
<!-- Node13 -->
<g id="Node000013" class="node">
<title>Node13</title>
<g id="a_Node000013"><a xlink:title=" ">
<polygon fill="#e0e0e0" stroke="#999999" points="661.88,-24.88 525.88,-24.88 525.88,-5.63 661.88,-5.63 661.88,-24.88"/>
<text text-anchor="middle" x="593.88" y="-11.38" font-family="Helvetica,sans-Serif" font-size="10.00">mlir/IR/OpImplementation.h</text>
</a>
</g>
</g>
<!-- Node6&#45;&gt;Node13 -->
<g id="edge13_Node000006_Node000013" class="edge">
<title>Node6&#45;&gt;Node13</title>
<g id="a_edge13_Node000006_Node000013"><a xlink:title=" ">
<path fill="none" stroke="#63b8ff" d="M776.14,-213.34C733.82,-210.26 674.68,-199.19 637.88,-163.5 602.53,-129.21 595.28,-67.82 593.98,-36.24"/>
<polygon fill="#63b8ff" stroke="#63b8ff" points="597.49,-36.46 593.76,-26.54 590.49,-36.62 597.49,-36.46"/>
</a>
</g>
</g>
<!-- Node14 -->
<g id="Node000014" class="node">
<title>Node14</title>
<g id="a_Node000014"><a xlink:title=" ">
<polygon fill="#e0e0e0" stroke="#999999" points="830,-24.88 679.75,-24.88 679.75,-5.63 830,-5.63 830,-24.88"/>
<text text-anchor="middle" x="754.88" y="-11.38" font-family="Helvetica,sans-Serif" font-size="10.00">mlir/Interfaces/CallInterfaces.h</text>
</a>
</g>
</g>
<!-- Node6&#45;&gt;Node14 -->
<g id="edge14_Node000006_Node000014" class="edge">
<title>Node6&#45;&gt;Node14</title>
<g id="a_edge14_Node000006_Node000014"><a xlink:title=" ">
<path fill="none" stroke="#63b8ff" d="M776.19,-205.5C731.78,-197.11 672.15,-182.64 657.88,-163.5 632.1,-128.94 635.47,-103.33 657.88,-66.5 668.67,-48.76 687.98,-37 706.54,-29.35"/>
<polygon fill="#63b8ff" stroke="#63b8ff" points="707.76,-32.63 715.9,-25.84 705.3,-26.08 707.76,-32.63"/>
</a>
</g>
</g>
<!-- Node15 -->
<g id="Node000015" class="node">
<title>Node15</title>
<g id="a_Node000015"><a xlink:title=" ">
<polygon fill="#e0e0e0" stroke="#999999" points="981.75,-30.5 848,-30.5 848,0 981.75,0 981.75,-30.5"/>
<text text-anchor="start" x="856" y="-17" font-family="Helvetica,sans-Serif" font-size="10.00">mlir/Interfaces/ControlFlow</text>
<text text-anchor="middle" x="914.88" y="-5.75" font-family="Helvetica,sans-Serif" font-size="10.00">Interfaces.h</text>
</a>
</g>
</g>
<!-- Node6&#45;&gt;Node15 -->
<g id="edge15_Node000006_Node000015" class="edge">
<title>Node6&#45;&gt;Node15</title>
<g id="a_edge15_Node000006_Node000015"><a xlink:title=" ">
<path fill="none" stroke="#63b8ff" d="M776.28,-208.25C747.57,-202.24 713.88,-189.7 695.88,-163.5 671.45,-127.97 669.02,-100.22 695.88,-66.5 700.45,-60.76 775.46,-44.37 836.43,-31.86"/>
<polygon fill="#63b8ff" stroke="#63b8ff" points="837.05,-35.31 846.15,-29.88 835.65,-28.45 837.05,-35.31"/>
</a>
</g>
</g>
<!-- Node16 -->
<g id="Node000016" class="node">
<title>Node16</title>
<g id="a_Node000016"><a xlink:title=" ">
<polygon fill="#e0e0e0" stroke="#999999" points="1946.62,-30.5 1815.12,-30.5 1815.12,0 1946.62,0 1946.62,-30.5"/>
<text text-anchor="start" x="1823.12" y="-17" font-family="Helvetica,sans-Serif" font-size="10.00">mlir/Interfaces/DataLayout</text>
<text text-anchor="middle" x="1880.88" y="-5.75" font-family="Helvetica,sans-Serif" font-size="10.00">Interfaces.h</text>
</a>
</g>
</g>
<!-- Node6&#45;&gt;Node16 -->
<g id="edge16_Node000006_Node000016" class="edge">
<title>Node6&#45;&gt;Node16</title>
<g id="a_edge16_Node000006_Node000016"><a xlink:title=" ">
<path fill="none" stroke="#63b8ff" d="M877.62,-212.94C1064.77,-209.7 1709.87,-196.23 1795.88,-163.5 1840.05,-146.69 1857.89,-139.35 1878.88,-97 1887.29,-80.01 1887.38,-58.45 1885.58,-41.88"/>
<polygon fill="#63b8ff" stroke="#63b8ff" points="1889.1,-41.75 1884.25,-32.33 1882.17,-42.72 1889.1,-41.75"/>
</a>
</g>
</g>
<!-- Node17 -->
<g id="Node000017" class="node">
<title>Node17</title>
<g id="a_Node000017"><a xlink:title=" ">
<polygon fill="#e0e0e0" stroke="#999999" points="1118.25,-30.5 999.5,-30.5 999.5,0 1118.25,0 1118.25,-30.5"/>
<text text-anchor="start" x="1007.5" y="-17" font-family="Helvetica,sans-Serif" font-size="10.00">mlir/Interfaces/Function</text>
<text text-anchor="middle" x="1058.88" y="-5.75" font-family="Helvetica,sans-Serif" font-size="10.00">Interfaces.h</text>
</a>
</g>
</g>
<!-- Node6&#45;&gt;Node17 -->
<g id="edge17_Node000006_Node000017" class="edge">
<title>Node6&#45;&gt;Node17</title>
<g id="a_edge17_Node000006_Node000017"><a xlink:title=" ">
<path fill="none" stroke="#63b8ff" d="M804.3,-199.07C764.63,-171.55 690.13,-110.94 728.88,-66.5 765.46,-24.54 915.87,-38.77 987.94,-30.59"/>
<polygon fill="#63b8ff" stroke="#63b8ff" points="988.3,-34.07 997.72,-29.21 987.33,-27.14 988.3,-34.07"/>
</a>
</g>
</g>
<!-- Node18 -->
<g id="Node000018" class="node">
<title>Node18</title>
<g id="a_Node000018"><a xlink:title=" ">
<polygon fill="#e0e0e0" stroke="#999999" points="1388.75,-30.5 1267,-30.5 1267,0 1388.75,0 1388.75,-30.5"/>
<text text-anchor="start" x="1275" y="-17" font-family="Helvetica,sans-Serif" font-size="10.00">mlir/Interfaces/InferType</text>
<text text-anchor="middle" x="1327.88" y="-5.75" font-family="Helvetica,sans-Serif" font-size="10.00">OpInterface.h</text>
</a>
</g>
</g>
<!-- Node6&#45;&gt;Node18 -->
<g id="edge18_Node000006_Node000018" class="edge">
<title>Node6&#45;&gt;Node18</title>
<g id="a_edge18_Node000006_Node000018"><a xlink:title=" ">
<path fill="none" stroke="#63b8ff" d="M827.81,-199.08C830.61,-168.72 841.65,-99.08 884.88,-66.5 948.78,-18.33 1158.25,-40.87 1255.56,-30.5"/>
<polygon fill="#63b8ff" stroke="#63b8ff" points="1255.88,-33.99 1265.36,-29.25 1255,-27.04 1255.88,-33.99"/>
</a>
</g>
</g>
<!-- Node19 -->
<g id="Node000019" class="node">
<title>Node19</title>
<g id="a_Node000019"><a xlink:title=" ">
<polygon fill="#e0e0e0" stroke="#999999" points="1533.38,-30.5 1406.38,-30.5 1406.38,0 1533.38,0 1533.38,-30.5"/>
<text text-anchor="start" x="1414.38" y="-17" font-family="Helvetica,sans-Serif" font-size="10.00">mlir/Interfaces/SideEffect</text>
<text text-anchor="middle" x="1469.88" y="-5.75" font-family="Helvetica,sans-Serif" font-size="10.00">Interfaces.h</text>
</a>
</g>
</g>
<!-- Node6&#45;&gt;Node19 -->
<g id="edge19_Node000006_Node000019" class="edge">
<title>Node6&#45;&gt;Node19</title>
<g id="a_edge19_Node000006_Node000019"><a xlink:title=" ">
<path fill="none" stroke="#63b8ff" d="M877.66,-211.69C1070.21,-203.37 1747.48,-169.12 1807.88,-97 1866.51,-26.99 1879.16,-85.41 1544.84,-30.93"/>
<polygon fill="#63b8ff" stroke="#63b8ff" points="1545.76,-27.54 1535.32,-29.36 1544.62,-34.44 1545.76,-27.54"/>
</a>
</g>
</g>
<!-- Node20 -->
<g id="Node000020" class="node">
<title>Node20</title>
<g id="a_Node000020"><a xlink:href="_op_interfaces_8h.html" target="_top" xlink:title=" ">
<polygon fill="white" stroke="#666666" points="838.25,-97 737.5,-97 737.5,-66.5 838.25,-66.5 838.25,-97"/>
<text text-anchor="start" x="745.5" y="-83.5" font-family="Helvetica,sans-Serif" font-size="10.00">zklang/Dialect/ZML</text>
<text text-anchor="middle" x="787.88" y="-72.25" font-family="Helvetica,sans-Serif" font-size="10.00">/IR/OpInterfaces.h</text>
</a>
</g>
</g>
<!-- Node6&#45;&gt;Node20 -->
<g id="edge20_Node000006_Node000020" class="edge">
<title>Node6&#45;&gt;Node20</title>
<g id="a_edge20_Node000006_Node000020"><a xlink:title=" ">
<path fill="none" stroke="#63b8ff" d="M822.55,-199.23C816.02,-177.3 803.55,-135.4 795.48,-108.29"/>
<polygon fill="#63b8ff" stroke="#63b8ff" points="798.86,-107.37 792.65,-98.79 792.15,-109.37 798.86,-107.37"/>
</a>
</g>
</g>
<!-- Node22 -->
<g id="Node000022" class="node">
<title>Node22</title>
<g id="a_Node000022"><a xlink:href="_types_8h.html" target="_top" xlink:title=" ">
<polygon fill="white" stroke="#666666" points="1324.25,-163.5 1223.5,-163.5 1223.5,-133 1324.25,-133 1324.25,-163.5"/>
<text text-anchor="start" x="1231.5" y="-150" font-family="Helvetica,sans-Serif" font-size="10.00">zklang/Dialect/ZML</text>
<text text-anchor="middle" x="1273.88" y="-138.75" font-family="Helvetica,sans-Serif" font-size="10.00">/IR/Types.h</text>
</a>
</g>
</g>
<!-- Node6&#45;&gt;Node22 -->
<g id="edge36_Node000006_Node000022" class="edge">
<title>Node6&#45;&gt;Node22</title>
<g id="a_edge36_Node000006_Node000022"><a xlink:title=" ">
<path fill="none" stroke="#63b8ff" d="M877.72,-206.41C960.14,-194.52 1122.67,-171.07 1211.8,-158.21"/>
<polygon fill="#63b8ff" stroke="#63b8ff" points="1212.19,-161.69 1221.58,-156.8 1211.19,-154.76 1212.19,-161.69"/>
</a>
</g>
</g>
<!-- Node28 -->
<g id="Node000028" class="node">
<title>Node28</title>
<g id="a_Node000028"><a xlink:href="_ops_8h_8inc.html" target="_top" xlink:title=" ">
<polygon fill="white" stroke="#666666" points="1799.25,-97 1698.5,-97 1698.5,-66.5 1799.25,-66.5 1799.25,-97"/>
<text text-anchor="start" x="1706.5" y="-83.5" font-family="Helvetica,sans-Serif" font-size="10.00">zklang/Dialect/ZML</text>
<text text-anchor="middle" x="1748.88" y="-72.25" font-family="Helvetica,sans-Serif" font-size="10.00">/IR/Ops.h.inc</text>
</a>
</g>
</g>
<!-- Node6&#45;&gt;Node28 -->
<g id="edge46_Node000006_Node000028" class="edge">
<title>Node6&#45;&gt;Node28</title>
<g id="a_edge46_Node000006_Node000028"><a xlink:title=" ">
<path fill="none" stroke="#63b8ff" d="M877.69,-210.19C969.07,-203.45 1167.07,-187.35 1332.88,-163.5 1490.47,-140.83 1528.93,-129.08 1684.88,-97 1685.69,-96.83 1686.51,-96.66 1687.34,-96.49"/>
<polygon fill="#63b8ff" stroke="#63b8ff" points="1687.71,-99.99 1696.77,-94.49 1686.26,-93.14 1687.71,-99.99"/>
</a>
</g>
</g>
<!-- Node20&#45;&gt;Node2 -->
<g id="edge25_Node000020_Node000002" class="edge">
<title>Node20&#45;&gt;Node2</title>
<g id="a_edge25_Node000020_Node000002"><a xlink:title=" ">
<path fill="none" stroke="#63b8ff" d="M838.59,-72.2C853.47,-69.99 869.79,-67.86 884.88,-66.5 1355.52,-24.15 1481.75,-91.9 1953.55,-30.61"/>
<polygon fill="#63b8ff" stroke="#63b8ff" points="1953.8,-34.1 1963.25,-29.33 1952.88,-27.16 1953.8,-34.1"/>
</a>
</g>
</g>
<!-- Node20&#45;&gt;Node7 -->
<g id="edge21_Node000020_Node000007" class="edge">
<title>Node20&#45;&gt;Node7</title>
<g id="a_edge21_Node000020_Node000007"><a xlink:title=" ">
<path fill="none" stroke="#63b8ff" d="M838.61,-72.41C853.49,-70.2 869.8,-68.02 884.88,-66.5 1176.29,-37.18 1252.87,-71.45 1542.88,-30.5 1548.13,-29.76 1553.61,-28.79 1559.02,-27.71"/>
<polygon fill="#63b8ff" stroke="#63b8ff" points="1559.46,-31.2 1568.51,-25.69 1558,-24.35 1559.46,-31.2"/>
</a>
</g>
</g>
<!-- Node20&#45;&gt;Node8 -->
<g id="edge22_Node000020_Node000008" class="edge">
<title>Node20&#45;&gt;Node8</title>
<g id="a_edge22_Node000020_Node000008"><a xlink:title=" ">
<path fill="none" stroke="#63b8ff" d="M838.6,-72.32C853.48,-70.11 869.8,-67.95 884.88,-66.5 1231.64,-33.14 1322.22,-73.86 1667.88,-30.5 1674.25,-29.7 1680.92,-28.63 1687.48,-27.43"/>
<polygon fill="#63b8ff" stroke="#63b8ff" points="1687.73,-30.95 1696.89,-25.61 1686.4,-24.07 1687.73,-30.95"/>
</a>
</g>
</g>
<!-- Node20&#45;&gt;Node9 -->
<g id="edge23_Node000020_Node000009" class="edge">
<title>Node20&#45;&gt;Node9</title>
<g id="a_edge23_Node000020_Node000009"><a xlink:title=" ">
<path fill="none" stroke="#63b8ff" d="M737.16,-79.5C624.96,-76.17 347.44,-64.88 117.88,-30.5 112.61,-29.71 107.13,-28.72 101.69,-27.64"/>
<polygon fill="#63b8ff" stroke="#63b8ff" points="102.67,-24.27 92.16,-25.62 101.22,-31.12 102.67,-24.27"/>
</a>
</g>
</g>
<!-- Node20&#45;&gt;Node10 -->
<g id="edge24_Node000020_Node000010" class="edge">
<title>Node20&#45;&gt;Node10</title>
<g id="a_edge24_Node000020_Node000010"><a xlink:title=" ">
<path fill="none" stroke="#63b8ff" d="M737.23,-77.39C646.11,-71.01 448.34,-55.63 271.81,-30.84"/>
<polygon fill="#63b8ff" stroke="#63b8ff" points="272.37,-27.38 261.98,-29.44 271.39,-34.31 272.37,-27.38"/>
</a>
</g>
</g>
<!-- Node20&#45;&gt;Node11 -->
<g id="edge26_Node000020_Node000011" class="edge">
<title>Node20&#45;&gt;Node11</title>
<g id="a_edge26_Node000020_Node000011"><a xlink:title=" ">
<path fill="none" stroke="#63b8ff" d="M737.22,-76.14C661.19,-68.82 513.22,-53.03 388.88,-30.5 384.5,-29.71 379.96,-28.8 375.43,-27.83"/>
<polygon fill="#63b8ff" stroke="#63b8ff" points="376.28,-24.43 365.75,-25.66 374.75,-31.26 376.28,-24.43"/>
</a>
</g>
</g>
<!-- Node20&#45;&gt;Node12 -->
<g id="edge27_Node000020_Node000012" class="edge">
<title>Node20&#45;&gt;Node12</title>
<g id="a_edge27_Node000020_Node000012"><a xlink:title=" ">
<path fill="none" stroke="#63b8ff" d="M737.07,-71.89C682.54,-62.25 593.42,-46.11 516.88,-30.5 512.61,-29.63 508.18,-28.7 503.74,-27.75"/>
<polygon fill="#63b8ff" stroke="#63b8ff" points="504.77,-24.39 494.25,-25.69 503.28,-31.23 504.77,-24.39"/>
</a>
</g>
</g>
<!-- Node20&#45;&gt;Node13 -->
<g id="edge28_Node000020_Node000013" class="edge">
<title>Node20&#45;&gt;Node13</title>
<g id="a_edge28_Node000020_Node000013"><a xlink:title=" ">
<path fill="none" stroke="#63b8ff" d="M743.85,-66.11C710.15,-54.91 664.14,-39.61 632,-28.93"/>
<polygon fill="#63b8ff" stroke="#63b8ff" points="633.29,-25.67 622.69,-25.83 631.08,-32.31 633.29,-25.67"/>
</a>
</g>
</g>
<!-- Node20&#45;&gt;Node14 -->
<g id="edge29_Node000020_Node000014" class="edge">
<title>Node20&#45;&gt;Node14</title>
<g id="a_edge29_Node000020_Node000014"><a xlink:title=" ">
<path fill="none" stroke="#63b8ff" d="M780.39,-66.11C775.69,-56.93 769.59,-45 764.53,-35.11"/>
<polygon fill="#63b8ff" stroke="#63b8ff" points="767.75,-33.73 760.08,-26.42 761.52,-36.92 767.75,-33.73"/>
</a>
</g>
</g>
<!-- Node20&#45;&gt;Node15 -->
<g id="edge30_Node000020_Node000015" class="edge">
<title>Node20&#45;&gt;Node15</title>
<g id="a_edge30_Node000020_Node000015"><a xlink:title=" ">
<path fill="none" stroke="#63b8ff" d="M816.69,-66.11C834.23,-57.21 856.86,-45.72 875.97,-36.01"/>
<polygon fill="#63b8ff" stroke="#63b8ff" points="877.49,-39.16 884.82,-31.51 874.32,-32.92 877.49,-39.16"/>
</a>
</g>
</g>
<!-- Node20&#45;&gt;Node16 -->
<g id="edge31_Node000020_Node000016" class="edge">
<title>Node20&#45;&gt;Node16</title>
<g id="a_edge31_Node000020_Node000016"><a xlink:title=" ">
<path fill="none" stroke="#63b8ff" d="M838.6,-72.25C853.47,-70.05 869.79,-67.9 884.88,-66.5 1289.53,-28.99 1397.53,-76.53 1803.61,-30.76"/>
<polygon fill="#63b8ff" stroke="#63b8ff" points="1803.74,-34.27 1813.28,-29.66 1802.95,-27.32 1803.74,-34.27"/>
</a>
</g>
</g>
<!-- Node20&#45;&gt;Node17 -->
<g id="edge32_Node000020_Node000017" class="edge">
<title>Node20&#45;&gt;Node17</title>
<g id="a_edge32_Node000020_Node000017"><a xlink:title=" ">
<path fill="none" stroke="#63b8ff" d="M838.53,-68.69C880.65,-58.67 941.08,-44.29 988,-33.12"/>
<polygon fill="#63b8ff" stroke="#63b8ff" points="988.62,-36.57 997.54,-30.85 987,-29.76 988.62,-36.57"/>
</a>
</g>
</g>
<!-- Node20&#45;&gt;Node18 -->
<g id="edge33_Node000020_Node000018" class="edge">
<title>Node20&#45;&gt;Node18</title>
<g id="a_edge33_Node000020_Node000018"><a xlink:title=" ">
<path fill="none" stroke="#63b8ff" d="M838.41,-68.86C842.95,-67.98 847.49,-67.18 851.88,-66.5 1027.31,-39.31 1076.65,-55.91 1255.72,-30.69"/>
<polygon fill="#63b8ff" stroke="#63b8ff" points="1255.96,-34.19 1265.36,-29.31 1254.97,-27.26 1255.96,-34.19"/>
</a>
</g>
</g>
<!-- Node20&#45;&gt;Node19 -->
<g id="edge34_Node000020_Node000019" class="edge">
<title>Node20&#45;&gt;Node19</title>
<g id="a_edge34_Node000020_Node000019"><a xlink:title=" ">
<path fill="none" stroke="#63b8ff" d="M838.63,-72.55C853.5,-70.35 869.81,-68.13 884.88,-66.5 1108.44,-42.27 1169.37,-60.15 1394.75,-30.81"/>
<polygon fill="#63b8ff" stroke="#63b8ff" points="1395,-34.31 1404.45,-29.53 1394.08,-27.37 1395,-34.31"/>
</a>
</g>
</g>
<!-- Node21 -->
<g id="Node000021" class="node">
<title>Node21</title>
<g id="a_Node000021"><a xlink:href="_op_interfaces_8h_8inc.html" target="_top" xlink:title=" ">
<polygon fill="white" stroke="#666666" points="1249.25,-30.5 1136.5,-30.5 1136.5,0 1249.25,0 1249.25,-30.5"/>
<text text-anchor="start" x="1144.5" y="-17" font-family="Helvetica,sans-Serif" font-size="10.00">zklang/Dialect/ZML</text>
<text text-anchor="middle" x="1192.88" y="-5.75" font-family="Helvetica,sans-Serif" font-size="10.00">/IR/OpInterfaces.h.inc</text>
</a>
</g>
</g>
<!-- Node20&#45;&gt;Node21 -->
<g id="edge35_Node000020_Node000021" class="edge">
<title>Node20&#45;&gt;Node21</title>
<g id="a_edge35_Node000020_Node000021"><a xlink:title=" ">
<path fill="none" stroke="#63b8ff" d="M838.45,-69.05C842.98,-68.14 847.5,-67.27 851.88,-66.5 969.71,-45.71 1003.46,-51.17 1124.82,-30.75"/>
<polygon fill="#63b8ff" stroke="#63b8ff" points="1125.29,-34.22 1134.56,-29.09 1124.11,-27.32 1125.29,-34.22"/>
</a>
</g>
</g>
<!-- Node22&#45;&gt;Node16 -->
<g id="edge41_Node000022_Node000016" class="edge">
<title>Node22&#45;&gt;Node16</title>
<g id="a_edge41_Node000022_Node000016"><a xlink:title=" ">
<path fill="none" stroke="#63b8ff" d="M1324.41,-143.91C1413.37,-137.48 1593.98,-121.77 1651.88,-97 1671.79,-88.48 1670.54,-76.25 1689.88,-66.5 1710.06,-56.33 1760.1,-43.31 1803.9,-33.07"/>
<polygon fill="#63b8ff" stroke="#63b8ff" points="1804.45,-36.53 1813.41,-30.87 1802.88,-29.71 1804.45,-36.53"/>
</a>
</g>
</g>
<!-- Node22&#45;&gt;Node20 -->
<g id="edge43_Node000022_Node000020" class="edge">
<title>Node22&#45;&gt;Node20</title>
<g id="a_edge43_Node000022_Node000020"><a xlink:title=" ">
<path fill="none" stroke="#63b8ff" d="M1223.17,-140.99C1148.89,-131.74 1006.13,-113.74 884.88,-97 873.62,-95.45 861.64,-93.73 850.08,-92.05"/>
<polygon fill="#63b8ff" stroke="#63b8ff" points="850.6,-88.59 840.19,-90.61 849.58,-95.52 850.6,-88.59"/>
</a>
</g>
</g>
<!-- Node23 -->
<g id="Node000023" class="node">
<title>Node23</title>
<g id="a_Node000023"><a xlink:title=" ">
<polygon fill="#e0e0e0" stroke="#999999" points="1013.62,-91.38 894.12,-91.38 894.12,-72.12 1013.62,-72.12 1013.62,-91.38"/>
<text text-anchor="middle" x="953.88" y="-77.88" font-family="Helvetica,sans-Serif" font-size="10.00">llvm/ADT/TypeSwitch.h</text>
</a>
</g>
</g>
<!-- Node22&#45;&gt;Node23 -->
<g id="edge37_Node000022_Node000023" class="edge">
<title>Node22&#45;&gt;Node23</title>
<g id="a_edge37_Node000022_Node000023"><a xlink:title=" ">
<path fill="none" stroke="#63b8ff" d="M1223.38,-137.23C1172.68,-127.16 1092.34,-111.13 1022.88,-97 1018.29,-96.07 1013.53,-95.1 1008.76,-94.12"/>
<polygon fill="#63b8ff" stroke="#63b8ff" points="1009.65,-90.73 999.15,-92.14 1008.24,-97.58 1009.65,-90.73"/>
</a>
</g>
</g>
<!-- Node24 -->
<g id="Node000024" class="node">
<title>Node24</title>
<g id="a_Node000024"><a xlink:title=" ">
<polygon fill="#e0e0e0" stroke="#999999" points="1141.75,-91.38 1032,-91.38 1032,-72.12 1141.75,-72.12 1141.75,-91.38"/>
<text text-anchor="middle" x="1086.88" y="-77.88" font-family="Helvetica,sans-Serif" font-size="10.00">mlir/IR/BuiltinTypes.h</text>
</a>
</g>
</g>
<!-- Node22&#45;&gt;Node24 -->
<g id="edge38_Node000022_Node000024" class="edge">
<title>Node22&#45;&gt;Node24</title>
<g id="a_edge38_Node000022_Node000024"><a xlink:title=" ">
<path fill="none" stroke="#63b8ff" d="M1231.44,-132.61C1199.1,-121.46 1155,-106.25 1124.04,-95.57"/>
<polygon fill="#63b8ff" stroke="#63b8ff" points="1125.29,-92.3 1114.7,-92.35 1123.01,-98.92 1125.29,-92.3"/>
</a>
</g>
</g>
<!-- Node25 -->
<g id="Node000025" class="node">
<title>Node25</title>
<g id="a_Node000025"><a xlink:title=" ">
<polygon fill="#e0e0e0" stroke="#999999" points="1272.25,-91.38 1159.5,-91.38 1159.5,-72.12 1272.25,-72.12 1272.25,-91.38"/>
<text text-anchor="middle" x="1215.88" y="-77.88" font-family="Helvetica,sans-Serif" font-size="10.00">mlir/IR/SymbolTable.h</text>
</a>
</g>
</g>
<!-- Node22&#45;&gt;Node25 -->
<g id="edge39_Node000022_Node000025" class="edge">
<title>Node22&#45;&gt;Node25</title>
<g id="a_edge39_Node000022_Node000025"><a xlink:title=" ">
<path fill="none" stroke="#63b8ff" d="M1260.71,-132.61C1252.01,-122.94 1240.57,-110.21 1231.42,-100.04"/>
<polygon fill="#63b8ff" stroke="#63b8ff" points="1234.11,-97.79 1224.82,-92.7 1228.9,-102.47 1234.11,-97.79"/>
</a>
</g>
</g>
<!-- Node26 -->
<g id="Node000026" class="node">
<title>Node26</title>
<g id="a_Node000026"><a xlink:title=" ">
<polygon fill="#e0e0e0" stroke="#999999" points="1373.25,-91.38 1290.5,-91.38 1290.5,-72.12 1373.25,-72.12 1373.25,-91.38"/>
<text text-anchor="middle" x="1331.88" y="-77.88" font-family="Helvetica,sans-Serif" font-size="10.00">mlir/IR/Types.h</text>
</a>
</g>
</g>
<!-- Node22&#45;&gt;Node26 -->
<g id="edge40_Node000022_Node000026" class="edge">
<title>Node22&#45;&gt;Node26</title>
<g id="a_edge40_Node000022_Node000026"><a xlink:title=" ">
<path fill="none" stroke="#63b8ff" d="M1287.04,-132.61C1295.74,-122.94 1307.18,-110.21 1316.33,-100.04"/>
<polygon fill="#63b8ff" stroke="#63b8ff" points="1318.85,-102.47 1322.93,-92.7 1313.64,-97.79 1318.85,-102.47"/>
</a>
</g>
</g>
<!-- Node27 -->
<g id="Node000027" class="node">
<title>Node27</title>
<g id="a_Node000027"><a xlink:title=" ">
<polygon fill="#e0e0e0" stroke="#999999" points="1524.75,-97 1391,-97 1391,-66.5 1524.75,-66.5 1524.75,-97"/>
<text text-anchor="start" x="1399" y="-83.5" font-family="Helvetica,sans-Serif" font-size="10.00">mlir/Interfaces/MemorySlot</text>
<text text-anchor="middle" x="1457.88" y="-72.25" font-family="Helvetica,sans-Serif" font-size="10.00">Interfaces.h</text>
</a>
</g>
</g>
<!-- Node22&#45;&gt;Node27 -->
<g id="edge42_Node000022_Node000027" class="edge">
<title>Node22&#45;&gt;Node27</title>
<g id="a_edge42_Node000022_Node000027"><a xlink:title=" ">
<path fill="none" stroke="#63b8ff" d="M1315.63,-132.61C1342.23,-123.29 1376.93,-111.12 1405.4,-101.15"/>
<polygon fill="#63b8ff" stroke="#63b8ff" points="1406.26,-104.55 1414.54,-97.94 1403.95,-97.95 1406.26,-104.55"/>
</a>
</g>
</g>
<!-- Node22&#45;&gt;Node28 -->
<g id="edge44_Node000022_Node000028" class="edge">
<title>Node22&#45;&gt;Node28</title>
<g id="a_edge44_Node000022_Node000028"><a xlink:title=" ">
<path fill="none" stroke="#63b8ff" d="M1324.73,-142.64C1402.6,-135.22 1555.94,-119.18 1684.88,-97 1685.7,-96.86 1686.52,-96.71 1687.35,-96.57"/>
<polygon fill="#63b8ff" stroke="#63b8ff" points="1687.65,-100.07 1696.82,-94.77 1686.35,-93.19 1687.65,-100.07"/>
</a>
</g>
</g>
<!-- Node29 -->
<g id="Node000029" class="node">
<title>Node29</title>
<g id="a_Node000029"><a xlink:href="_types_8h_8inc.html" target="_top" xlink:title=" ">
<polygon fill="white" stroke="#666666" points="1643.25,-97 1542.5,-97 1542.5,-66.5 1643.25,-66.5 1643.25,-97"/>
<text text-anchor="start" x="1550.5" y="-83.5" font-family="Helvetica,sans-Serif" font-size="10.00">zklang/Dialect/ZML</text>
<text text-anchor="middle" x="1592.88" y="-72.25" font-family="Helvetica,sans-Serif" font-size="10.00">/IR/Types.h.inc</text>
</a>
</g>
</g>
<!-- Node22&#45;&gt;Node29 -->
<g id="edge45_Node000022_Node000029" class="edge">
<title>Node22&#45;&gt;Node29</title>
<g id="a_edge45_Node000022_Node000029"><a xlink:title=" ">
<path fill="none" stroke="#63b8ff" d="M1324.34,-138.21C1374.48,-129.07 1453.79,-114.18 1531.16,-97.54"/>
<polygon fill="#63b8ff" stroke="#63b8ff" points="1531.55,-101.04 1540.58,-95.5 1530.07,-94.19 1531.55,-101.04"/>
</a>
</g>
</g>
</g>
</svg>
