<?xml version="1.0" encoding="UTF-8" standalone="no"?>
<!DOCTYPE svg PUBLIC "-//W3C//DTD SVG 1.1//EN"
 "http://www.w3.org/Graphics/SVG/1.1/DTD/svg11.dtd">
<!-- Generated by graphviz version 12.2.1 (20241206.2353)
 -->
<!-- Title: include/zklang/Frontends/ZIR/Driver.h Pages: 1 -->
<svg width="276pt" height="94pt"
 viewBox="0.00 0.00 276.12 93.75" xmlns="http://www.w3.org/2000/svg" xmlns:xlink="http://www.w3.org/1999/xlink">
<g id="graph0" class="graph" transform="scale(1 1) rotate(0) translate(4 89.75)">
<title>include/zklang/Frontends/ZIR/Driver.h</title>
<!-- Node1 -->
<g id="Node000001" class="node">
<title>Node1</title>
<g id="a_Node000001"><a xlink:title=" ">
<polygon fill="#999999" stroke="#666666" points="202.88,-85.75 78.12,-85.75 78.12,-55.25 202.88,-55.25 202.88,-85.75"/>
<text text-anchor="start" x="86.12" y="-72.25" font-family="Helvetica,sans-Serif" font-size="10.00">include/zklang/Frontends</text>
<text text-anchor="middle" x="140.5" y="-61" font-family="Helvetica,sans-Serif" font-size="10.00">/ZIR/Driver.h</text>
</a>
</g>
</g>
<!-- Node2 -->
<g id="Node000002" class="node">
<title>Node2</title>
<g id="a_Node000002"><a xlink:href="_driver_8cpp.html" target="_top" xlink:title=" ">
<polygon fill="white" stroke="#666666" points="139,-19.25 0,-19.25 0,0 139,0 139,-19.25"/>
<text text-anchor="middle" x="69.5" y="-5.75" font-family="Helvetica,sans-Serif" font-size="10.00">lib/Frontends/ZIR/Driver.cpp</text>
</a>
</g>
</g>
<!-- Node1&#45;&gt;Node2 -->
<g id="edge1_Node000001_Node000002" class="edge">
<title>Node1&#45;&gt;Node2</title>
<g id="a_edge1_Node000001_Node000002"><a xlink:title=" ">
<path fill="none" stroke="#63b8ff" d="M114.37,-47.83C102.65,-38.12 89.47,-27.19 80.45,-19.7"/>
<polygon fill="#63b8ff" stroke="#63b8ff" points="111.85,-50.29 121.78,-53.98 116.32,-44.9 111.85,-50.29"/>
</a>
</g>
</g>
<!-- Node3 -->
<g id="Node000003" class="node">
<title>Node3</title>
<g id="a_Node000003"><a xlink:href="zklang_2main_8cpp.html" target="_top" xlink:title=" ">
<polygon fill="white" stroke="#666666" points="268.12,-19.25 156.88,-19.25 156.88,0 268.12,0 268.12,-19.25"/>
<text text-anchor="middle" x="212.5" y="-5.75" font-family="Helvetica,sans-Serif" font-size="10.00">tools/zklang/main.cpp</text>
</a>
</g>
</g>
<!-- Node1&#45;&gt;Node3 -->
<g id="edge2_Node000001_Node000003" class="edge">
<title>Node1&#45;&gt;Node3</title>
<g id="a_edge2_Node000001_Node000003"><a xlink:title=" ">
<path fill="none" stroke="#63b8ff" d="M167,-47.83C178.88,-38.12 192.25,-27.19 201.4,-19.7"/>
<polygon fill="#63b8ff" stroke="#63b8ff" points="165,-44.95 159.47,-53.99 169.43,-50.37 165,-44.95"/>
</a>
</g>
</g>
</g>
</svg>
