<?xml version="1.0" encoding="UTF-8" standalone="no"?>
<!DOCTYPE svg PUBLIC "-//W3C//DTD SVG 1.1//EN"
 "http://www.w3.org/Graphics/SVG/1.1/DTD/svg11.dtd">
<!-- Generated by graphviz version 12.2.1 (20241206.2353)
 -->
<!-- Title: include/zklang/Dialect/ZHL/Typing/Expr.h Pages: 1 -->
<svg width="1884pt" height="160pt"
 viewBox="0.00 0.00 1884.25 160.25" xmlns="http://www.w3.org/2000/svg" xmlns:xlink="http://www.w3.org/1999/xlink">
<g id="graph0" class="graph" transform="scale(1 1) rotate(0) translate(4 156.25)">
<title>include/zklang/Dialect/ZHL/Typing/Expr.h</title>
<!-- Node1 -->
<g id="Node000001" class="node">
<title>Node1</title>
<g id="a_Node000001"><a xlink:title=" ">
<polygon fill="#999999" stroke="#666666" points="684.12,-152.25 572.12,-152.25 572.12,-121.75 684.12,-121.75 684.12,-152.25"/>
<text text-anchor="start" x="580.12" y="-138.75" font-family="Helvetica,sans-Serif" font-size="10.00">include/zklang/Dialect</text>
<text text-anchor="middle" x="628.12" y="-127.5" font-family="Helvetica,sans-Serif" font-size="10.00">/ZHL/Typing/Expr.h</text>
</a>
</g>
</g>
<!-- Node2 -->
<g id="Node000002" class="node">
<title>Node2</title>
<g id="a_Node000002"><a xlink:title=" ">
<polygon fill="#e0e0e0" stroke="#999999" points="48.25,-80.12 0,-80.12 0,-60.88 48.25,-60.88 48.25,-80.12"/>
<text text-anchor="middle" x="24.12" y="-66.62" font-family="Helvetica,sans-Serif" font-size="10.00">cstddef</text>
</a>
</g>
</g>
<!-- Node1&#45;&gt;Node2 -->
<g id="edge1_Node000001_Node000002" class="edge">
<title>Node1&#45;&gt;Node2</title>
<g id="a_edge1_Node000001_Node000002"><a xlink:title=" ">
<path fill="none" stroke="#63b8ff" d="M572.02,-136.94C468.55,-137.39 241.4,-132.35 57.12,-85.75 55.73,-85.4 54.32,-84.99 52.9,-84.55"/>
<polygon fill="#63b8ff" stroke="#63b8ff" points="54.27,-81.32 43.68,-81.09 51.82,-87.88 54.27,-81.32"/>
</a>
</g>
</g>
<!-- Node3 -->
<g id="Node000003" class="node">
<title>Node3</title>
<g id="a_Node000003"><a xlink:title=" ">
<polygon fill="#e0e0e0" stroke="#999999" points="111.75,-80.12 66.5,-80.12 66.5,-60.88 111.75,-60.88 111.75,-80.12"/>
<text text-anchor="middle" x="89.12" y="-66.62" font-family="Helvetica,sans-Serif" font-size="10.00">cstdint</text>
</a>
</g>
</g>
<!-- Node1&#45;&gt;Node3 -->
<g id="edge2_Node000001_Node000003" class="edge">
<title>Node1&#45;&gt;Node3</title>
<g id="a_edge2_Node000001_Node000003"><a xlink:title=" ">
<path fill="none" stroke="#63b8ff" d="M571.78,-136.46C476.88,-135.92 279.87,-129.06 120.12,-85.75 118.95,-85.43 117.77,-85.07 116.59,-84.68"/>
<polygon fill="#63b8ff" stroke="#63b8ff" points="118.12,-81.53 107.53,-81.1 115.54,-88.03 118.12,-81.53"/>
</a>
</g>
</g>
<!-- Node4 -->
<g id="Node000004" class="node">
<title>Node4</title>
<g id="a_Node000004"><a xlink:title=" ">
<polygon fill="#e0e0e0" stroke="#999999" points="236.88,-80.12 129.38,-80.12 129.38,-60.88 236.88,-60.88 236.88,-80.12"/>
<text text-anchor="middle" x="183.12" y="-66.62" font-family="Helvetica,sans-Serif" font-size="10.00">llvm/ADT/ArrayRef.h</text>
</a>
</g>
</g>
<!-- Node1&#45;&gt;Node4 -->
<g id="edge3_Node000001_Node000004" class="edge">
<title>Node1&#45;&gt;Node4</title>
<g id="a_edge3_Node000001_Node000004"><a xlink:title=" ">
<path fill="none" stroke="#63b8ff" d="M571.89,-130.23C497.17,-122.2 361.2,-106.29 246.12,-85.75 241.47,-84.92 236.63,-83.97 231.81,-82.98"/>
<polygon fill="#63b8ff" stroke="#63b8ff" points="232.65,-79.58 222.13,-80.9 231.18,-86.42 232.65,-79.58"/>
</a>
</g>
</g>
<!-- Node5 -->
<g id="Node000005" class="node">
<title>Node5</title>
<g id="a_Node000005"><a xlink:title=" ">
<polygon fill="#e0e0e0" stroke="#999999" points="373.5,-80.12 254.75,-80.12 254.75,-60.88 373.5,-60.88 373.5,-80.12"/>
<text text-anchor="middle" x="314.12" y="-66.62" font-family="Helvetica,sans-Serif" font-size="10.00">llvm/ADT/SmallString.h</text>
</a>
</g>
</g>
<!-- Node1&#45;&gt;Node5 -->
<g id="edge4_Node000001_Node000005" class="edge">
<title>Node1&#45;&gt;Node5</title>
<g id="a_edge4_Node000001_Node000005"><a xlink:title=" ">
<path fill="none" stroke="#63b8ff" d="M571.93,-124.61C522.06,-114.47 447.22,-99.22 382.12,-85.75 377.61,-84.82 372.92,-83.84 368.22,-82.86"/>
<polygon fill="#63b8ff" stroke="#63b8ff" points="369.27,-79.51 358.77,-80.89 367.84,-86.36 369.27,-79.51"/>
</a>
</g>
</g>
<!-- Node6 -->
<g id="Node000006" class="node">
<title>Node6</title>
<g id="a_Node000006"><a xlink:title=" ">
<polygon fill="#e0e0e0" stroke="#999999" points="500.62,-80.12 391.62,-80.12 391.62,-60.88 500.62,-60.88 500.62,-80.12"/>
<text text-anchor="middle" x="446.12" y="-66.62" font-family="Helvetica,sans-Serif" font-size="10.00">llvm/ADT/StringSet.h</text>
</a>
</g>
</g>
<!-- Node1&#45;&gt;Node6 -->
<g id="edge5_Node000001_Node000006" class="edge">
<title>Node1&#45;&gt;Node6</title>
<g id="a_edge5_Node000001_Node000006"><a xlink:title=" ">
<path fill="none" stroke="#63b8ff" d="M586.83,-121.36C555.35,-110.21 512.42,-95 482.29,-84.32"/>
<polygon fill="#63b8ff" stroke="#63b8ff" points="483.83,-81.15 473.24,-81.11 481.5,-87.75 483.83,-81.15"/>
</a>
</g>
</g>
<!-- Node7 -->
<g id="Node000007" class="node">
<title>Node7</title>
<g id="a_Node000007"><a xlink:title=" ">
<polygon fill="#e0e0e0" stroke="#999999" points="635.75,-80.12 518.5,-80.12 518.5,-60.88 635.75,-60.88 635.75,-80.12"/>
<text text-anchor="middle" x="577.12" y="-66.62" font-family="Helvetica,sans-Serif" font-size="10.00">llvm/ADT/simple_ilist.h</text>
</a>
</g>
</g>
<!-- Node1&#45;&gt;Node7 -->
<g id="edge6_Node000001_Node000007" class="edge">
<title>Node1&#45;&gt;Node7</title>
<g id="a_edge6_Node000001_Node000007"><a xlink:title=" ">
<path fill="none" stroke="#63b8ff" d="M616.55,-121.36C608.98,-111.79 599.04,-99.22 591.04,-89.1"/>
<polygon fill="#63b8ff" stroke="#63b8ff" points="593.99,-87.18 585.04,-81.51 588.5,-91.52 593.99,-87.18"/>
</a>
</g>
</g>
<!-- Node8 -->
<g id="Node000008" class="node">
<title>Node8</title>
<g id="a_Node000008"><a xlink:title=" ">
<polygon fill="#e0e0e0" stroke="#999999" points="704.75,-80.12 653.5,-80.12 653.5,-60.88 704.75,-60.88 704.75,-80.12"/>
<text text-anchor="middle" x="679.12" y="-66.62" font-family="Helvetica,sans-Serif" font-size="10.00">memory</text>
</a>
</g>
</g>
<!-- Node1&#45;&gt;Node8 -->
<g id="edge7_Node000001_Node000008" class="edge">
<title>Node1&#45;&gt;Node8</title>
<g id="a_edge7_Node000001_Node000008"><a xlink:title=" ">
<path fill="none" stroke="#63b8ff" d="M639.7,-121.36C647.27,-111.79 657.21,-99.22 665.21,-89.1"/>
<polygon fill="#63b8ff" stroke="#63b8ff" points="667.75,-91.52 671.21,-81.51 662.26,-87.18 667.75,-91.52"/>
</a>
</g>
</g>
<!-- Node9 -->
<g id="Node000009" class="node">
<title>Node9</title>
<g id="a_Node000009"><a xlink:title=" ">
<polygon fill="#e0e0e0" stroke="#999999" points="823.88,-80.12 722.38,-80.12 722.38,-60.88 823.88,-60.88 823.88,-80.12"/>
<text text-anchor="middle" x="773.12" y="-66.62" font-family="Helvetica,sans-Serif" font-size="10.00">mlir/IR/AffineExpr.h</text>
</a>
</g>
</g>
<!-- Node1&#45;&gt;Node9 -->
<g id="edge8_Node000001_Node000009" class="edge">
<title>Node1&#45;&gt;Node9</title>
<g id="a_edge8_Node000001_Node000009"><a xlink:title=" ">
<path fill="none" stroke="#63b8ff" d="M661.03,-121.36C685.52,-110.47 718.71,-95.71 742.61,-85.08"/>
<polygon fill="#63b8ff" stroke="#63b8ff" points="743.77,-88.39 751.49,-81.12 740.93,-81.99 743.77,-88.39"/>
</a>
</g>
</g>
<!-- Node10 -->
<g id="Node000010" class="node">
<title>Node10</title>
<g id="a_Node000010"><a xlink:title=" ">
<polygon fill="#e0e0e0" stroke="#999999" points="940.38,-80.12 841.88,-80.12 841.88,-60.88 940.38,-60.88 940.38,-80.12"/>
<text text-anchor="middle" x="891.12" y="-66.62" font-family="Helvetica,sans-Serif" font-size="10.00">mlir/IR/Attributes.h</text>
</a>
</g>
</g>
<!-- Node1&#45;&gt;Node10 -->
<g id="edge9_Node000001_Node000010" class="edge">
<title>Node1&#45;&gt;Node10</title>
<g id="a_edge9_Node000001_Node000010"><a xlink:title=" ">
<path fill="none" stroke="#63b8ff" d="M684.25,-122.25C725.45,-112.16 782.77,-98.11 833.12,-85.75 836.44,-84.94 839.87,-84.1 843.31,-83.25"/>
<polygon fill="#63b8ff" stroke="#63b8ff" points="843.96,-86.69 852.84,-80.91 842.29,-79.9 843.96,-86.69"/>
</a>
</g>
</g>
<!-- Node11 -->
<g id="Node000011" class="node">
<title>Node11</title>
<g id="a_Node000011"><a xlink:title=" ">
<polygon fill="#e0e0e0" stroke="#999999" points="918.38,-19.25 813.88,-19.25 813.88,0 918.38,0 918.38,-19.25"/>
<text text-anchor="middle" x="866.12" y="-5.75" font-family="Helvetica,sans-Serif" font-size="10.00">mlir/Support/LLVM.h</text>
</a>
</g>
</g>
<!-- Node1&#45;&gt;Node11 -->
<g id="edge10_Node000001_Node000011" class="edge">
<title>Node1&#45;&gt;Node11</title>
<g id="a_edge10_Node000001_Node000011"><a xlink:title=" ">
<path fill="none" stroke="#63b8ff" d="M684.38,-135.62C767.18,-133.72 915.71,-124.81 949.12,-85.75 957.94,-75.45 956.08,-66.89 949.12,-55.25 940.46,-40.76 925.3,-30.7 910.28,-23.85"/>
<polygon fill="#63b8ff" stroke="#63b8ff" points="911.97,-20.76 901.39,-20.19 909.3,-27.24 911.97,-20.76"/>
</a>
</g>
</g>
<!-- Node12 -->
<g id="Node000012" class="node">
<title>Node12</title>
<g id="a_Node000012"><a xlink:title=" ">
<polygon fill="#e0e0e0" stroke="#999999" points="1075.62,-19.25 936.62,-19.25 936.62,0 1075.62,0 1075.62,-19.25"/>
<text text-anchor="middle" x="1006.12" y="-5.75" font-family="Helvetica,sans-Serif" font-size="10.00">mlir/Support/LogicalResult.h</text>
</a>
</g>
</g>
<!-- Node1&#45;&gt;Node12 -->
<g id="edge11_Node000001_Node000012" class="edge">
<title>Node1&#45;&gt;Node12</title>
<g id="a_edge11_Node000001_Node000012"><a xlink:title=" ">
<path fill="none" stroke="#63b8ff" d="M684.43,-133.69C768.53,-129.24 921.84,-117.01 966.12,-85.75 984.77,-72.59 995.48,-47.97 1001.04,-30.5"/>
<polygon fill="#63b8ff" stroke="#63b8ff" points="1004.37,-31.58 1003.74,-21 997.64,-29.66 1004.37,-31.58"/>
</a>
</g>
</g>
<!-- Node13 -->
<g id="Node000013" class="node">
<title>Node13</title>
<g id="a_Node000013"><a xlink:href="_params_8h.html" target="_top" xlink:title=" ">
<polygon fill="white" stroke="#666666" points="1329.12,-85.75 1229.12,-85.75 1229.12,-55.25 1329.12,-55.25 1329.12,-85.75"/>
<text text-anchor="start" x="1237.12" y="-72.25" font-family="Helvetica,sans-Serif" font-size="10.00">zklang/Dialect/ZHL</text>
<text text-anchor="middle" x="1279.12" y="-61" font-family="Helvetica,sans-Serif" font-size="10.00">/Typing/Params.h</text>
</a>
</g>
</g>
<!-- Node1&#45;&gt;Node13 -->
<g id="edge12_Node000001_Node000013" class="edge">
<title>Node1&#45;&gt;Node13</title>
<g id="a_edge12_Node000001_Node000013"><a xlink:title=" ">
<path fill="none" stroke="#63b8ff" d="M684.47,-130.42C805.93,-118.38 1091.58,-90.08 1217.58,-77.6"/>
<polygon fill="#63b8ff" stroke="#63b8ff" points="1217.79,-81.09 1227.39,-76.63 1217.1,-74.13 1217.79,-81.09"/>
</a>
</g>
</g>
<!-- Node13&#45;&gt;Node11 -->
<g id="edge20_Node000013_Node000011" class="edge">
<title>Node13&#45;&gt;Node11</title>
<g id="a_edge20_Node000013_Node000011"><a xlink:title=" ">
<path fill="none" stroke="#63b8ff" d="M1228.9,-62.34C1153.75,-51.63 1012.12,-31.44 929.81,-19.7"/>
<polygon fill="#63b8ff" stroke="#63b8ff" points="930.5,-16.27 920.1,-18.32 929.51,-23.2 930.5,-16.27"/>
</a>
</g>
</g>
<!-- Node13&#45;&gt;Node12 -->
<g id="edge21_Node000013_Node000012" class="edge">
<title>Node13&#45;&gt;Node12</title>
<g id="a_edge21_Node000013_Node000012"><a xlink:title=" ">
<path fill="none" stroke="#63b8ff" d="M1228.73,-58.63C1180.57,-48.24 1108.22,-32.64 1059.18,-22.07"/>
<polygon fill="#63b8ff" stroke="#63b8ff" points="1060.16,-18.7 1049.65,-20.01 1058.69,-25.54 1060.16,-18.7"/>
</a>
</g>
</g>
<!-- Node14 -->
<g id="Node000014" class="node">
<title>Node14</title>
<g id="a_Node000014"><a xlink:title=" ">
<polygon fill="#e0e0e0" stroke="#999999" points="1253.25,-19.25 1205,-19.25 1205,0 1253.25,0 1253.25,-19.25"/>
<text text-anchor="middle" x="1229.12" y="-5.75" font-family="Helvetica,sans-Serif" font-size="10.00">cassert</text>
</a>
</g>
</g>
<!-- Node13&#45;&gt;Node14 -->
<g id="edge13_Node000013_Node000014" class="edge">
<title>Node13&#45;&gt;Node14</title>
<g id="a_edge13_Node000013_Node000014"><a xlink:title=" ">
<path fill="none" stroke="#63b8ff" d="M1266.77,-54.95C1259.96,-46.93 1251.45,-36.92 1244.25,-28.44"/>
<polygon fill="#63b8ff" stroke="#63b8ff" points="1246.95,-26.21 1237.81,-20.85 1241.62,-30.74 1246.95,-26.21"/>
</a>
</g>
</g>
<!-- Node15 -->
<g id="Node000015" class="node">
<title>Node15</title>
<g id="a_Node000015"><a xlink:title=" ">
<polygon fill="#e0e0e0" stroke="#999999" points="1384.5,-19.25 1271.75,-19.25 1271.75,0 1384.5,0 1384.5,-19.25"/>
<text text-anchor="middle" x="1328.12" y="-5.75" font-family="Helvetica,sans-Serif" font-size="10.00">llvm/ADT/StringMap.h</text>
</a>
</g>
</g>
<!-- Node13&#45;&gt;Node15 -->
<g id="edge14_Node000013_Node000015" class="edge">
<title>Node13&#45;&gt;Node15</title>
<g id="a_edge14_Node000013_Node000015"><a xlink:title=" ">
<path fill="none" stroke="#63b8ff" d="M1291.24,-54.95C1297.91,-46.93 1306.24,-36.92 1313.3,-28.44"/>
<polygon fill="#63b8ff" stroke="#63b8ff" points="1315.9,-30.79 1319.6,-20.86 1310.52,-26.31 1315.9,-30.79"/>
</a>
</g>
</g>
<!-- Node16 -->
<g id="Node000016" class="node">
<title>Node16</title>
<g id="a_Node000016"><a xlink:title=" ">
<polygon fill="#e0e0e0" stroke="#999999" points="1512,-19.25 1402.25,-19.25 1402.25,0 1512,0 1512,-19.25"/>
<text text-anchor="middle" x="1457.12" y="-5.75" font-family="Helvetica,sans-Serif" font-size="10.00">llvm/ADT/StringRef.h</text>
</a>
</g>
</g>
<!-- Node13&#45;&gt;Node16 -->
<g id="edge15_Node000013_Node000016" class="edge">
<title>Node13&#45;&gt;Node16</title>
<g id="a_edge15_Node000013_Node000016"><a xlink:title=" ">
<path fill="none" stroke="#63b8ff" d="M1323.58,-54.8C1352.95,-45.08 1391.02,-32.49 1419,-23.23"/>
<polygon fill="#63b8ff" stroke="#63b8ff" points="1419.73,-26.68 1428.13,-20.22 1417.53,-20.03 1419.73,-26.68"/>
</a>
</g>
</g>
<!-- Node17 -->
<g id="Node000017" class="node">
<title>Node17</title>
<g id="a_Node000017"><a xlink:title=" ">
<polygon fill="#e0e0e0" stroke="#999999" points="1640.38,-19.25 1529.88,-19.25 1529.88,0 1640.38,0 1640.38,-19.25"/>
<text text-anchor="middle" x="1585.12" y="-5.75" font-family="Helvetica,sans-Serif" font-size="10.00">llvm/Support/Debug.h</text>
</a>
</g>
</g>
<!-- Node13&#45;&gt;Node17 -->
<g id="edge16_Node000013_Node000017" class="edge">
<title>Node13&#45;&gt;Node17</title>
<g id="a_edge16_Node000013_Node000017"><a xlink:title=" ">
<path fill="none" stroke="#63b8ff" d="M1329.31,-59.84C1383.52,-49.41 1469.76,-32.82 1526.91,-21.83"/>
<polygon fill="#63b8ff" stroke="#63b8ff" points="1527.28,-25.32 1536.44,-19.99 1525.96,-18.44 1527.28,-25.32"/>
</a>
</g>
</g>
<!-- Node18 -->
<g id="Node000018" class="node">
<title>Node18</title>
<g id="a_Node000018"><a xlink:title=" ">
<polygon fill="#e0e0e0" stroke="#999999" points="1750,-19.25 1658.25,-19.25 1658.25,0 1750,0 1750,-19.25"/>
<text text-anchor="middle" x="1704.12" y="-5.75" font-family="Helvetica,sans-Serif" font-size="10.00">mlir/IR/Builders.h</text>
</a>
</g>
</g>
<!-- Node13&#45;&gt;Node18 -->
<g id="edge17_Node000013_Node000018" class="edge">
<title>Node13&#45;&gt;Node18</title>
<g id="a_edge17_Node000013_Node000018"><a xlink:title=" ">
<path fill="none" stroke="#63b8ff" d="M1329.44,-63C1398.51,-54 1526.88,-37.02 1646.72,-19.58"/>
<polygon fill="#63b8ff" stroke="#63b8ff" points="1647.03,-23.07 1656.42,-18.16 1646.02,-16.14 1647.03,-23.07"/>
</a>
</g>
</g>
<!-- Node19 -->
<g id="Node000019" class="node">
<title>Node19</title>
<g id="a_Node000019"><a xlink:title=" ">
<polygon fill="#e0e0e0" stroke="#999999" points="1876.25,-19.25 1768,-19.25 1768,0 1876.25,0 1876.25,-19.25"/>
<text text-anchor="middle" x="1822.12" y="-5.75" font-family="Helvetica,sans-Serif" font-size="10.00">mlir/IR/Diagnostics.h</text>
</a>
</g>
</g>
<!-- Node13&#45;&gt;Node19 -->
<g id="edge18_Node000013_Node000019" class="edge">
<title>Node13&#45;&gt;Node19</title>
<g id="a_edge18_Node000013_Node000019"><a xlink:title=" ">
<path fill="none" stroke="#63b8ff" d="M1329.28,-64.78C1414.72,-56.62 1594.23,-38.98 1756.36,-19.55"/>
<polygon fill="#63b8ff" stroke="#63b8ff" points="1756.49,-23.06 1766,-18.39 1755.65,-16.11 1756.49,-23.06"/>
</a>
</g>
</g>
<!-- Node20 -->
<g id="Node000020" class="node">
<title>Node20</title>
<g id="a_Node000020"><a xlink:title=" ">
<polygon fill="#e0e0e0" stroke="#999999" points="1186.75,-19.25 1093.5,-19.25 1093.5,0 1186.75,0 1186.75,-19.25"/>
<text text-anchor="middle" x="1140.12" y="-5.75" font-family="Helvetica,sans-Serif" font-size="10.00">mlir/IR/Location.h</text>
</a>
</g>
</g>
<!-- Node13&#45;&gt;Node20 -->
<g id="edge19_Node000013_Node000020" class="edge">
<title>Node13&#45;&gt;Node20</title>
<g id="a_edge19_Node000013_Node000020"><a xlink:title=" ">
<path fill="none" stroke="#63b8ff" d="M1244.41,-54.8C1222.12,-45.35 1193.4,-33.19 1171.75,-24.02"/>
<polygon fill="#63b8ff" stroke="#63b8ff" points="1173.41,-20.92 1162.84,-20.24 1170.68,-27.37 1173.41,-20.92"/>
</a>
</g>
</g>
</g>
</svg>
