<?xml version="1.0" encoding="UTF-8" standalone="no"?>
<!DOCTYPE svg PUBLIC "-//W3C//DTD SVG 1.1//EN"
 "http://www.w3.org/Graphics/SVG/1.1/DTD/svg11.dtd">
<!-- Generated by graphviz version 12.2.1 (20241206.2353)
 -->
<!-- Title: include/zklang/FiniteFields/Field.h Pages: 1 -->
<svg width="592pt" height="238pt"
 viewBox="0.00 0.00 591.62 238.00" xmlns="http://www.w3.org/2000/svg" xmlns:xlink="http://www.w3.org/1999/xlink">
<g id="graph0" class="graph" transform="scale(1 1) rotate(0) translate(4 234)">
<title>include/zklang/FiniteFields/Field.h</title>
<!-- Node1 -->
<g id="Node000001" class="node">
<title>Node1</title>
<g id="a_Node000001"><a xlink:title=" ">
<polygon fill="#999999" stroke="#666666" points="425.38,-230 293.88,-230 293.88,-199.5 425.38,-199.5 425.38,-230"/>
<text text-anchor="start" x="301.88" y="-216.5" font-family="Helvetica,sans-Serif" font-size="10.00">include/zklang/FiniteFields</text>
<text text-anchor="middle" x="359.62" y="-205.25" font-family="Helvetica,sans-Serif" font-size="10.00">/Field.h</text>
</a>
</g>
</g>
<!-- Node2 -->
<g id="Node000002" class="node">
<title>Node2</title>
<g id="a_Node000002"><a xlink:href="_finite_fields_2_baby_bear_8h.html" target="_top" xlink:title=" ">
<polygon fill="white" stroke="#666666" points="269.38,-163.5 137.88,-163.5 137.88,-133 269.38,-133 269.38,-163.5"/>
<text text-anchor="start" x="145.88" y="-150" font-family="Helvetica,sans-Serif" font-size="10.00">include/zklang/FiniteFields</text>
<text text-anchor="middle" x="203.62" y="-138.75" font-family="Helvetica,sans-Serif" font-size="10.00">/BabyBear.h</text>
</a>
</g>
</g>
<!-- Node1&#45;&gt;Node2 -->
<g id="edge1_Node000001_Node000002" class="edge">
<title>Node1&#45;&gt;Node2</title>
<g id="a_edge1_Node000001_Node000002"><a xlink:title=" ">
<path fill="none" stroke="#63b8ff" d="M313.67,-194.75C289.86,-184.91 261.24,-173.07 239.15,-163.94"/>
<polygon fill="#63b8ff" stroke="#63b8ff" points="312.25,-197.95 322.83,-198.54 314.92,-191.48 312.25,-197.95"/>
</a>
</g>
</g>
<!-- Node5 -->
<g id="Node000005" class="node">
<title>Node5</title>
<g id="a_Node000005"><a xlink:href="_convert_zml_to_llzk_2_pass_8cpp.html" target="_top" xlink:title=" ">
<polygon fill="white" stroke="#666666" points="355.75,-30.5 211.5,-30.5 211.5,0 355.75,0 355.75,-30.5"/>
<text text-anchor="start" x="219.5" y="-17" font-family="Helvetica,sans-Serif" font-size="10.00">lib/Passes/ConvertZmlToLlzk</text>
<text text-anchor="middle" x="283.62" y="-5.75" font-family="Helvetica,sans-Serif" font-size="10.00">/Pass.cpp</text>
</a>
</g>
</g>
<!-- Node1&#45;&gt;Node5 -->
<g id="edge10_Node000001_Node000005" class="edge">
<title>Node1&#45;&gt;Node5</title>
<g id="a_edge10_Node000001_Node000005"><a xlink:title=" ">
<path fill="none" stroke="#63b8ff" d="M361.6,-187.96C362.81,-157.21 361.14,-105.11 340.62,-66.5 332.89,-51.94 319.12,-39.61 307.05,-30.82"/>
<polygon fill="#63b8ff" stroke="#63b8ff" points="358.11,-187.68 361.06,-197.86 365.1,-188.06 358.11,-187.68"/>
</a>
</g>
</g>
<!-- Node7 -->
<g id="Node000007" class="node">
<title>Node7</title>
<g id="a_Node000007"><a xlink:href="_l_l_z_k_type_converter_8h.html" target="_top" xlink:title=" ">
<polygon fill="white" stroke="#666666" points="583.62,-163.5 387.62,-163.5 387.62,-133 583.62,-133 583.62,-163.5"/>
<text text-anchor="start" x="395.62" y="-150" font-family="Helvetica,sans-Serif" font-size="10.00">include/zklang/Passes</text>
<text text-anchor="middle" x="485.62" y="-138.75" font-family="Helvetica,sans-Serif" font-size="10.00">/ConvertZmlToLlzk/LLZKTypeConverter.h</text>
</a>
</g>
</g>
<!-- Node1&#45;&gt;Node7 -->
<g id="edge7_Node000001_Node000007" class="edge">
<title>Node1&#45;&gt;Node7</title>
<g id="a_edge7_Node000001_Node000007"><a xlink:title=" ">
<path fill="none" stroke="#63b8ff" d="M398.35,-193.93C417.32,-184.21 439.77,-172.72 457.15,-163.83"/>
<polygon fill="#63b8ff" stroke="#63b8ff" points="396.87,-190.75 389.56,-198.42 400.06,-196.98 396.87,-190.75"/>
</a>
</g>
</g>
<!-- Node3 -->
<g id="Node000003" class="node">
<title>Node3</title>
<g id="a_Node000003"><a xlink:href="_dialect_2_z_m_l_2_ext_val_2_baby_bear_8h.html" target="_top" xlink:title=" ">
<polygon fill="white" stroke="#666666" points="123.25,-97 0,-97 0,-66.5 123.25,-66.5 123.25,-97"/>
<text text-anchor="start" x="8" y="-83.5" font-family="Helvetica,sans-Serif" font-size="10.00">include/zklang/Dialect</text>
<text text-anchor="middle" x="61.62" y="-72.25" font-family="Helvetica,sans-Serif" font-size="10.00">/ZML/ExtVal/BabyBear.h</text>
</a>
</g>
</g>
<!-- Node2&#45;&gt;Node3 -->
<g id="edge2_Node000002_Node000003" class="edge">
<title>Node2&#45;&gt;Node3</title>
<g id="a_edge2_Node000002_Node000003"><a xlink:title=" ">
<path fill="none" stroke="#63b8ff" d="M161.17,-127.97C139.54,-118.14 113.67,-106.39 93.72,-97.33"/>
<polygon fill="#63b8ff" stroke="#63b8ff" points="159.47,-131.04 170.02,-131.99 162.37,-124.67 159.47,-131.04"/>
</a>
</g>
</g>
<!-- Node2&#45;&gt;Node5 -->
<g id="edge6_Node000002_Node000005" class="edge">
<title>Node2&#45;&gt;Node5</title>
<g id="a_edge6_Node000002_Node000005"><a xlink:title=" ">
<path fill="none" stroke="#63b8ff" d="M182.78,-124.11C170.3,-107.33 158.93,-84.5 170.62,-66.5 181.56,-49.67 199.58,-38.43 218.06,-30.94"/>
<polygon fill="#63b8ff" stroke="#63b8ff" points="179.77,-125.94 188.75,-131.57 185.23,-121.57 179.77,-125.94"/>
</a>
</g>
</g>
<!-- Node6 -->
<g id="Node000006" class="node">
<title>Node6</title>
<g id="a_Node000006"><a xlink:href="_type_binding_specialization_8cpp.html" target="_top" xlink:title=" ">
<polygon fill="white" stroke="#666666" points="331.5,-97 179.75,-97 179.75,-66.5 331.5,-66.5 331.5,-97"/>
<text text-anchor="start" x="187.75" y="-83.5" font-family="Helvetica,sans-Serif" font-size="10.00">lib/Dialect/ZHL/Typing</text>
<text text-anchor="middle" x="255.62" y="-72.25" font-family="Helvetica,sans-Serif" font-size="10.00">/TypeBindingSpecialization.cpp</text>
</a>
</g>
</g>
<!-- Node2&#45;&gt;Node6 -->
<g id="edge5_Node000002_Node000006" class="edge">
<title>Node2&#45;&gt;Node6</title>
<g id="a_edge5_Node000002_Node000006"><a xlink:title=" ">
<path fill="none" stroke="#63b8ff" d="M222.49,-123.85C229.64,-114.98 237.56,-105.15 243.87,-97.33"/>
<polygon fill="#63b8ff" stroke="#63b8ff" points="219.93,-121.45 216.37,-131.44 225.38,-125.85 219.93,-121.45"/>
</a>
</g>
</g>
<!-- Node4 -->
<g id="Node000004" class="node">
<title>Node4</title>
<g id="a_Node000004"><a xlink:href="_baby_bear_8cpp.html" target="_top" xlink:title=" ">
<polygon fill="white" stroke="#666666" points="118.38,-30.5 4.88,-30.5 4.88,0 118.38,0 118.38,-30.5"/>
<text text-anchor="start" x="12.88" y="-17" font-family="Helvetica,sans-Serif" font-size="10.00">lib/Dialect/ZML/ExtVal</text>
<text text-anchor="middle" x="61.62" y="-5.75" font-family="Helvetica,sans-Serif" font-size="10.00">/BabyBear.cpp</text>
</a>
</g>
</g>
<!-- Node3&#45;&gt;Node4 -->
<g id="edge3_Node000003_Node000004" class="edge">
<title>Node3&#45;&gt;Node4</title>
<g id="a_edge3_Node000003_Node000004"><a xlink:title=" ">
<path fill="none" stroke="#63b8ff" d="M61.62,-54.81C61.62,-46.64 61.62,-37.91 61.62,-30.83"/>
<polygon fill="#63b8ff" stroke="#63b8ff" points="58.13,-54.6 61.63,-64.6 65.13,-54.6 58.13,-54.6"/>
</a>
</g>
</g>
<!-- Node3&#45;&gt;Node5 -->
<g id="edge4_Node000003_Node000005" class="edge">
<title>Node3&#45;&gt;Node5</title>
<g id="a_edge4_Node000003_Node000005"><a xlink:title=" ">
<path fill="none" stroke="#63b8ff" d="M123.22,-62.85C157.85,-52.79 200.56,-40.39 233.19,-30.9"/>
<polygon fill="#63b8ff" stroke="#63b8ff" points="122.36,-59.46 113.73,-65.61 124.31,-66.18 122.36,-59.46"/>
</a>
</g>
</g>
<!-- Node7&#45;&gt;Node5 -->
<g id="edge9_Node000007_Node000005" class="edge">
<title>Node7&#45;&gt;Node5</title>
<g id="a_edge9_Node000007_Node000005"><a xlink:title=" ">
<path fill="none" stroke="#63b8ff" d="M456.46,-125.96C426.15,-103.87 381.97,-71.81 373.62,-66.5 353.4,-53.62 329.69,-40.46 311.68,-30.84"/>
<polygon fill="#63b8ff" stroke="#63b8ff" points="454.39,-128.78 464.53,-131.84 458.51,-123.12 454.39,-128.78"/>
</a>
</g>
</g>
<!-- Node8 -->
<g id="Node000008" class="node">
<title>Node8</title>
<g id="a_Node000008"><a xlink:href="_l_l_z_k_type_converter_8cpp.html" target="_top" xlink:title=" ">
<polygon fill="white" stroke="#666666" points="569.75,-97 425.5,-97 425.5,-66.5 569.75,-66.5 569.75,-97"/>
<text text-anchor="start" x="433.5" y="-83.5" font-family="Helvetica,sans-Serif" font-size="10.00">lib/Passes/ConvertZmlToLlzk</text>
<text text-anchor="middle" x="497.62" y="-72.25" font-family="Helvetica,sans-Serif" font-size="10.00">/LLZKTypeConverter.cpp</text>
</a>
</g>
</g>
<!-- Node7&#45;&gt;Node8 -->
<g id="edge8_Node000007_Node000008" class="edge">
<title>Node7&#45;&gt;Node8</title>
<g id="a_edge8_Node000007_Node000008"><a xlink:title=" ">
<path fill="none" stroke="#63b8ff" d="M490.45,-121.31C491.97,-113.14 493.59,-104.41 494.91,-97.33"/>
<polygon fill="#63b8ff" stroke="#63b8ff" points="487.01,-120.65 488.62,-131.13 493.89,-121.93 487.01,-120.65"/>
</a>
</g>
</g>
</g>
</svg>
