<?xml version="1.0" encoding="UTF-8" standalone="no"?>
<!DOCTYPE svg PUBLIC "-//W3C//DTD SVG 1.1//EN"
 "http://www.w3.org/Graphics/SVG/1.1/DTD/svg11.dtd">
<!-- Generated by graphviz version 12.2.1 (20241206.2353)
 -->
<!-- Title: include/zklang/FiniteFields/BabyBear.h Pages: 1 -->
<svg width="140pt" height="160pt"
 viewBox="0.00 0.00 139.50 160.25" xmlns="http://www.w3.org/2000/svg" xmlns:xlink="http://www.w3.org/1999/xlink">
<g id="graph0" class="graph" transform="scale(1 1) rotate(0) translate(4 156.25)">
<title>include/zklang/FiniteFields/BabyBear.h</title>
<!-- Node1 -->
<g id="Node000001" class="node">
<title>Node1</title>
<g id="a_Node000001"><a xlink:title=" ">
<polygon fill="#999999" stroke="#666666" points="131.5,-152.25 0,-152.25 0,-121.75 131.5,-121.75 131.5,-152.25"/>
<text text-anchor="start" x="8" y="-138.75" font-family="Helvetica,sans-Serif" font-size="10.00">include/zklang/FiniteFields</text>
<text text-anchor="middle" x="65.75" y="-127.5" font-family="Helvetica,sans-Serif" font-size="10.00">/BabyBear.h</text>
</a>
</g>
</g>
<!-- Node2 -->
<g id="Node000002" class="node">
<title>Node2</title>
<g id="a_Node000002"><a xlink:href="_field_8h.html" target="_top" xlink:title=" ">
<polygon fill="white" stroke="#666666" points="114.62,-85.75 16.88,-85.75 16.88,-55.25 114.62,-55.25 114.62,-85.75"/>
<text text-anchor="start" x="24.88" y="-72.25" font-family="Helvetica,sans-Serif" font-size="10.00">zklang/FiniteFields</text>
<text text-anchor="middle" x="65.75" y="-61" font-family="Helvetica,sans-Serif" font-size="10.00">/Field.h</text>
</a>
</g>
</g>
<!-- Node1&#45;&gt;Node2 -->
<g id="edge1_Node000001_Node000002" class="edge">
<title>Node1&#45;&gt;Node2</title>
<g id="a_edge1_Node000001_Node000002"><a xlink:title=" ">
<path fill="none" stroke="#63b8ff" d="M65.75,-121.36C65.75,-114.27 65.75,-105.54 65.75,-97.38"/>
<polygon fill="#63b8ff" stroke="#63b8ff" points="69.25,-97.59 65.75,-87.59 62.25,-97.59 69.25,-97.59"/>
</a>
</g>
</g>
<!-- Node3 -->
<g id="Node000003" class="node">
<title>Node3</title>
<g id="a_Node000003"><a xlink:title=" ">
<polygon fill="#e0e0e0" stroke="#999999" points="88.38,-19.25 43.12,-19.25 43.12,0 88.38,0 88.38,-19.25"/>
<text text-anchor="middle" x="65.75" y="-5.75" font-family="Helvetica,sans-Serif" font-size="10.00">cstdint</text>
</a>
</g>
</g>
<!-- Node2&#45;&gt;Node3 -->
<g id="edge2_Node000002_Node000003" class="edge">
<title>Node2&#45;&gt;Node3</title>
<g id="a_edge2_Node000002_Node000003"><a xlink:title=" ">
<path fill="none" stroke="#63b8ff" d="M65.75,-54.95C65.75,-47.71 65.75,-38.84 65.75,-30.94"/>
<polygon fill="#63b8ff" stroke="#63b8ff" points="69.25,-31.21 65.75,-21.21 62.25,-31.21 69.25,-31.21"/>
</a>
</g>
</g>
</g>
</svg>
