<?xml version="1.0" encoding="UTF-8" standalone="no"?>
<!DOCTYPE svg PUBLIC "-//W3C//DTD SVG 1.1//EN"
 "http://www.w3.org/Graphics/SVG/1.1/DTD/svg11.dtd">
<!-- Generated by graphviz version 12.2.1 (20241206.2353)
 -->
<!-- Title: include/zklang/FiniteFields/BabyBear.h Pages: 1 -->
<svg width="392pt" height="172pt"
 viewBox="0.00 0.00 391.62 171.50" xmlns="http://www.w3.org/2000/svg" xmlns:xlink="http://www.w3.org/1999/xlink">
<g id="graph0" class="graph" transform="scale(1 1) rotate(0) translate(4 167.5)">
<title>include/zklang/FiniteFields/BabyBear.h</title>
<!-- Node1 -->
<g id="Node000001" class="node">
<title>Node1</title>
<g id="a_Node000001"><a xlink:title=" ">
<polygon fill="#999999" stroke="#666666" points="269.5,-163.5 138,-163.5 138,-133 269.5,-133 269.5,-163.5"/>
<text text-anchor="start" x="146" y="-150" font-family="Helvetica,sans-Serif" font-size="10.00">include/zklang/FiniteFields</text>
<text text-anchor="middle" x="203.75" y="-138.75" font-family="Helvetica,sans-Serif" font-size="10.00">/BabyBear.h</text>
</a>
</g>
</g>
<!-- Node2 -->
<g id="Node000002" class="node">
<title>Node2</title>
<g id="a_Node000002"><a xlink:href="_dialect_2_z_m_l_2_ext_val_2_baby_bear_8h.html" target="_top" xlink:title=" ">
<polygon fill="white" stroke="#666666" points="175.38,-97 52.12,-97 52.12,-66.5 175.38,-66.5 175.38,-97"/>
<text text-anchor="start" x="60.12" y="-83.5" font-family="Helvetica,sans-Serif" font-size="10.00">include/zklang/Dialect</text>
<text text-anchor="middle" x="113.75" y="-72.25" font-family="Helvetica,sans-Serif" font-size="10.00">/ZML/ExtVal/BabyBear.h</text>
</a>
</g>
</g>
<!-- Node1&#45;&gt;Node2 -->
<g id="edge1_Node000001_Node000002" class="edge">
<title>Node1&#45;&gt;Node2</title>
<g id="a_edge1_Node000001_Node000002"><a xlink:title=" ">
<path fill="none" stroke="#63b8ff" d="M174.19,-126.07C161.06,-116.66 145.93,-105.81 134.09,-97.33"/>
<polygon fill="#63b8ff" stroke="#63b8ff" points="171.93,-128.75 182.1,-131.73 176.01,-123.06 171.93,-128.75"/>
</a>
</g>
</g>
<!-- Node4 -->
<g id="Node000004" class="node">
<title>Node4</title>
<g id="a_Node000004"><a xlink:href="_convert_zml_to_llzk_2_pass_8cpp.html" target="_top" xlink:title=" ">
<polygon fill="white" stroke="#666666" points="275.88,-30.5 131.62,-30.5 131.62,0 275.88,0 275.88,-30.5"/>
<text text-anchor="start" x="139.62" y="-17" font-family="Helvetica,sans-Serif" font-size="10.00">lib/Passes/ConvertZmlToLlzk</text>
<text text-anchor="middle" x="203.75" y="-5.75" font-family="Helvetica,sans-Serif" font-size="10.00">/Pass.cpp</text>
</a>
</g>
</g>
<!-- Node1&#45;&gt;Node4 -->
<g id="edge5_Node000001_Node000004" class="edge">
<title>Node1&#45;&gt;Node4</title>
<g id="a_edge5_Node000001_Node000004"><a xlink:title=" ">
<path fill="none" stroke="#63b8ff" d="M203.75,-121.43C203.75,-94.34 203.75,-52.71 203.75,-30.83"/>
<polygon fill="#63b8ff" stroke="#63b8ff" points="200.25,-121.22 203.75,-131.22 207.25,-121.22 200.25,-121.22"/>
</a>
</g>
</g>
<!-- Node5 -->
<g id="Node000005" class="node">
<title>Node5</title>
<g id="a_Node000005"><a xlink:href="_type_binding_specialization_8cpp.html" target="_top" xlink:title=" ">
<polygon fill="white" stroke="#666666" points="383.62,-97 231.88,-97 231.88,-66.5 383.62,-66.5 383.62,-97"/>
<text text-anchor="start" x="239.88" y="-83.5" font-family="Helvetica,sans-Serif" font-size="10.00">lib/Dialect/ZHL/Typing</text>
<text text-anchor="middle" x="307.75" y="-72.25" font-family="Helvetica,sans-Serif" font-size="10.00">/TypeBindingSpecialization.cpp</text>
</a>
</g>
</g>
<!-- Node1&#45;&gt;Node5 -->
<g id="edge4_Node000001_Node000005" class="edge">
<title>Node1&#45;&gt;Node5</title>
<g id="a_edge4_Node000001_Node000005"><a xlink:title=" ">
<path fill="none" stroke="#63b8ff" d="M237.02,-126.61C252.4,-117.08 270.3,-105.98 284.24,-97.33"/>
<polygon fill="#63b8ff" stroke="#63b8ff" points="235.29,-123.57 228.64,-131.82 238.98,-129.52 235.29,-123.57"/>
</a>
</g>
</g>
<!-- Node3 -->
<g id="Node000003" class="node">
<title>Node3</title>
<g id="a_Node000003"><a xlink:href="_baby_bear_8cpp.html" target="_top" xlink:title=" ">
<polygon fill="white" stroke="#666666" points="113.5,-30.5 0,-30.5 0,0 113.5,0 113.5,-30.5"/>
<text text-anchor="start" x="8" y="-17" font-family="Helvetica,sans-Serif" font-size="10.00">lib/Dialect/ZML/ExtVal</text>
<text text-anchor="middle" x="56.75" y="-5.75" font-family="Helvetica,sans-Serif" font-size="10.00">/BabyBear.cpp</text>
</a>
</g>
</g>
<!-- Node2&#45;&gt;Node3 -->
<g id="edge2_Node000002_Node000003" class="edge">
<title>Node2&#45;&gt;Node3</title>
<g id="a_edge2_Node000002_Node000003"><a xlink:title=" ">
<path fill="none" stroke="#63b8ff" d="M93.32,-57.63C85.42,-48.69 76.62,-38.74 69.63,-30.83"/>
<polygon fill="#63b8ff" stroke="#63b8ff" points="90.57,-59.8 99.81,-64.98 95.81,-55.17 90.57,-59.8"/>
</a>
</g>
</g>
<!-- Node2&#45;&gt;Node4 -->
<g id="edge3_Node000002_Node000004" class="edge">
<title>Node2&#45;&gt;Node4</title>
<g id="a_edge3_Node000002_Node000004"><a xlink:title=" ">
<path fill="none" stroke="#63b8ff" d="M143.31,-59.57C156.44,-50.16 171.57,-39.31 183.41,-30.83"/>
<polygon fill="#63b8ff" stroke="#63b8ff" points="141.49,-56.56 135.4,-65.23 145.57,-62.25 141.49,-56.56"/>
</a>
</g>
</g>
</g>
</svg>
