<?xml version="1.0" encoding="UTF-8" standalone="no"?>
<!DOCTYPE svg PUBLIC "-//W3C//DTD SVG 1.1//EN"
 "http://www.w3.org/Graphics/SVG/1.1/DTD/svg11.dtd">
<!-- Generated by graphviz version 12.2.1 (20241206.2353)
 -->
<!-- Title: include/zklang/Dialect/ZHL/Typing/FrameInfo.h Pages: 1 -->
<svg width="614pt" height="172pt"
 viewBox="0.00 0.00 613.62 171.50" xmlns="http://www.w3.org/2000/svg" xmlns:xlink="http://www.w3.org/1999/xlink">
<g id="graph0" class="graph" transform="scale(1 1) rotate(0) translate(4 167.5)">
<title>include/zklang/Dialect/ZHL/Typing/FrameInfo.h</title>
<!-- Node1 -->
<g id="Node000001" class="node">
<title>Node1</title>
<g id="a_Node000001"><a xlink:title=" ">
<polygon fill="#999999" stroke="#666666" points="312.75,-163.5 188,-163.5 188,-133 312.75,-133 312.75,-163.5"/>
<text text-anchor="start" x="196" y="-150" font-family="Helvetica,sans-Serif" font-size="10.00">include/zklang/Dialect</text>
<text text-anchor="middle" x="250.38" y="-138.75" font-family="Helvetica,sans-Serif" font-size="10.00">/ZHL/Typing/FrameInfo.h</text>
</a>
</g>
</g>
<!-- Node2 -->
<g id="Node000002" class="node">
<title>Node2</title>
<g id="a_Node000002"><a xlink:title=" ">
<polygon fill="#e0e0e0" stroke="#999999" points="245,-91.38 127.75,-91.38 127.75,-72.12 245,-72.12 245,-91.38"/>
<text text-anchor="middle" x="186.38" y="-77.88" font-family="Helvetica,sans-Serif" font-size="10.00">llvm/ADT/simple_ilist.h</text>
</a>
</g>
</g>
<!-- Node1&#45;&gt;Node2 -->
<g id="edge1_Node000001_Node000002" class="edge">
<title>Node1&#45;&gt;Node2</title>
<g id="a_edge1_Node000001_Node000002"><a xlink:title=" ">
<path fill="none" stroke="#63b8ff" d="M235.85,-132.61C226.15,-122.84 213.37,-109.95 203.22,-99.73"/>
<polygon fill="#63b8ff" stroke="#63b8ff" points="205.72,-97.28 196.2,-92.65 200.75,-102.21 205.72,-97.28"/>
</a>
</g>
</g>
<!-- Node3 -->
<g id="Node000003" class="node">
<title>Node3</title>
<g id="a_Node000003"><a xlink:href="_frame_slot_8h.html" target="_top" xlink:title=" ">
<polygon fill="white" stroke="#666666" points="367.25,-97 263.5,-97 263.5,-66.5 367.25,-66.5 367.25,-97"/>
<text text-anchor="start" x="271.5" y="-83.5" font-family="Helvetica,sans-Serif" font-size="10.00">zklang/Dialect/ZHL</text>
<text text-anchor="middle" x="315.38" y="-72.25" font-family="Helvetica,sans-Serif" font-size="10.00">/Typing/FrameSlot.h</text>
</a>
</g>
</g>
<!-- Node1&#45;&gt;Node3 -->
<g id="edge2_Node000001_Node000003" class="edge">
<title>Node1&#45;&gt;Node3</title>
<g id="a_edge2_Node000001_Node000003"><a xlink:title=" ">
<path fill="none" stroke="#63b8ff" d="M265.12,-132.61C273.27,-124.53 283.56,-114.32 292.7,-105.25"/>
<polygon fill="#63b8ff" stroke="#63b8ff" points="294.98,-107.92 299.61,-98.39 290.05,-102.95 294.98,-107.92"/>
</a>
</g>
</g>
<!-- Node4 -->
<g id="Node000004" class="node">
<title>Node4</title>
<g id="a_Node000004"><a xlink:title=" ">
<polygon fill="#e0e0e0" stroke="#999999" points="118.75,-24.88 0,-24.88 0,-5.63 118.75,-5.63 118.75,-24.88"/>
<text text-anchor="middle" x="59.38" y="-11.38" font-family="Helvetica,sans-Serif" font-size="10.00">llvm/ADT/SmallString.h</text>
</a>
</g>
</g>
<!-- Node3&#45;&gt;Node4 -->
<g id="edge3_Node000003_Node000004" class="edge">
<title>Node3&#45;&gt;Node4</title>
<g id="a_edge3_Node000003_Node000004"><a xlink:title=" ">
<path fill="none" stroke="#63b8ff" d="M263.26,-67.62C217.27,-56.03 150.81,-39.29 106.41,-28.1"/>
<polygon fill="#63b8ff" stroke="#63b8ff" points="107.36,-24.73 96.81,-25.68 105.65,-31.52 107.36,-24.73"/>
</a>
</g>
</g>
<!-- Node5 -->
<g id="Node000005" class="node">
<title>Node5</title>
<g id="a_Node000005"><a xlink:title=" ">
<polygon fill="#e0e0e0" stroke="#999999" points="246.25,-24.88 136.5,-24.88 136.5,-5.63 246.25,-5.63 246.25,-24.88"/>
<text text-anchor="middle" x="191.38" y="-11.38" font-family="Helvetica,sans-Serif" font-size="10.00">llvm/ADT/ilist_node.h</text>
</a>
</g>
</g>
<!-- Node3&#45;&gt;Node5 -->
<g id="edge4_Node000003_Node000005" class="edge">
<title>Node3&#45;&gt;Node5</title>
<g id="a_edge4_Node000003_Node000005"><a xlink:title=" ">
<path fill="none" stroke="#63b8ff" d="M287.24,-66.11C266.76,-55.46 239.19,-41.12 218.87,-30.55"/>
<polygon fill="#63b8ff" stroke="#63b8ff" points="220.53,-27.47 210.04,-25.96 217.3,-33.68 220.53,-27.47"/>
</a>
</g>
</g>
<!-- Node6 -->
<g id="Node000006" class="node">
<title>Node6</title>
<g id="a_Node000006"><a xlink:title=" ">
<polygon fill="#e0e0e0" stroke="#999999" points="366.12,-30.5 264.62,-30.5 264.62,0 366.12,0 366.12,-30.5"/>
<text text-anchor="start" x="272.62" y="-17" font-family="Helvetica,sans-Serif" font-size="10.00">llvm/ADT/ilist_node</text>
<text text-anchor="middle" x="315.38" y="-5.75" font-family="Helvetica,sans-Serif" font-size="10.00">_options.h</text>
</a>
</g>
</g>
<!-- Node3&#45;&gt;Node6 -->
<g id="edge5_Node000003_Node000006" class="edge">
<title>Node3&#45;&gt;Node6</title>
<g id="a_edge5_Node000003_Node000006"><a xlink:title=" ">
<path fill="none" stroke="#63b8ff" d="M315.38,-66.11C315.38,-59.02 315.38,-50.29 315.38,-42.13"/>
<polygon fill="#63b8ff" stroke="#63b8ff" points="318.88,-42.34 315.38,-32.34 311.88,-42.34 318.88,-42.34"/>
</a>
</g>
</g>
<!-- Node7 -->
<g id="Node000007" class="node">
<title>Node7</title>
<g id="a_Node000007"><a xlink:title=" ">
<polygon fill="#e0e0e0" stroke="#999999" points="482.62,-24.88 384.12,-24.88 384.12,-5.63 482.62,-5.63 482.62,-24.88"/>
<text text-anchor="middle" x="433.38" y="-11.38" font-family="Helvetica,sans-Serif" font-size="10.00">mlir/IR/Attributes.h</text>
</a>
</g>
</g>
<!-- Node3&#45;&gt;Node7 -->
<g id="edge6_Node000003_Node000007" class="edge">
<title>Node3&#45;&gt;Node7</title>
<g id="a_edge6_Node000003_Node000007"><a xlink:title=" ">
<path fill="none" stroke="#63b8ff" d="M342.15,-66.11C361.54,-55.51 387.64,-41.25 406.95,-30.7"/>
<polygon fill="#63b8ff" stroke="#63b8ff" points="408.47,-33.85 415.56,-25.99 405.11,-27.71 408.47,-33.85"/>
</a>
</g>
</g>
<!-- Node8 -->
<g id="Node000008" class="node">
<title>Node8</title>
<g id="a_Node000008"><a xlink:title=" ">
<polygon fill="#e0e0e0" stroke="#999999" points="605.62,-24.88 501.12,-24.88 501.12,-5.63 605.62,-5.63 605.62,-24.88"/>
<text text-anchor="middle" x="553.38" y="-11.38" font-family="Helvetica,sans-Serif" font-size="10.00">mlir/Support/LLVM.h</text>
</a>
</g>
</g>
<!-- Node3&#45;&gt;Node8 -->
<g id="edge7_Node000003_Node000008" class="edge">
<title>Node3&#45;&gt;Node8</title>
<g id="a_edge7_Node000003_Node000008"><a xlink:title=" ">
<path fill="none" stroke="#63b8ff" d="M367.61,-66.6C409.91,-55.13 468.87,-39.15 508.94,-28.29"/>
<polygon fill="#63b8ff" stroke="#63b8ff" points="509.77,-31.69 518.51,-25.7 507.94,-24.94 509.77,-31.69"/>
</a>
</g>
</g>
</g>
</svg>
