<?xml version="1.0" encoding="UTF-8" standalone="no"?>
<!DOCTYPE svg PUBLIC "-//W3C//DTD SVG 1.1//EN"
 "http://www.w3.org/Graphics/SVG/1.1/DTD/svg11.dtd">
<!-- Generated by graphviz version 12.2.1 (20241206.2353)
 -->
<!-- Title: include/zklang/Dialect/ZHL/Typing/FrameSlot.h Pages: 1 -->
<svg width="614pt" height="105pt"
 viewBox="0.00 0.00 613.62 105.00" xmlns="http://www.w3.org/2000/svg" xmlns:xlink="http://www.w3.org/1999/xlink">
<g id="graph0" class="graph" transform="scale(1 1) rotate(0) translate(4 101)">
<title>include/zklang/Dialect/ZHL/Typing/FrameSlot.h</title>
<!-- Node1 -->
<g id="Node000001" class="node">
<title>Node1</title>
<g id="a_Node000001"><a xlink:title=" ">
<polygon fill="#999999" stroke="#666666" points="378.12,-97 252.62,-97 252.62,-66.5 378.12,-66.5 378.12,-97"/>
<text text-anchor="start" x="260.62" y="-83.5" font-family="Helvetica,sans-Serif" font-size="10.00">include/zklang/Dialect</text>
<text text-anchor="middle" x="315.38" y="-72.25" font-family="Helvetica,sans-Serif" font-size="10.00">/ZHL/Typing/FrameSlot.h</text>
</a>
</g>
</g>
<!-- Node2 -->
<g id="Node000002" class="node">
<title>Node2</title>
<g id="a_Node000002"><a xlink:title=" ">
<polygon fill="#e0e0e0" stroke="#999999" points="118.75,-24.88 0,-24.88 0,-5.63 118.75,-5.63 118.75,-24.88"/>
<text text-anchor="middle" x="59.38" y="-11.38" font-family="Helvetica,sans-Serif" font-size="10.00">llvm/ADT/SmallString.h</text>
</a>
</g>
</g>
<!-- Node1&#45;&gt;Node2 -->
<g id="edge1_Node000001_Node000002" class="edge">
<title>Node1&#45;&gt;Node2</title>
<g id="a_edge1_Node000001_Node000002"><a xlink:title=" ">
<path fill="none" stroke="#63b8ff" d="M256.96,-66.03C211.41,-54.56 148.96,-38.82 106.55,-28.14"/>
<polygon fill="#63b8ff" stroke="#63b8ff" points="107.44,-24.75 96.88,-25.7 105.73,-31.54 107.44,-24.75"/>
</a>
</g>
</g>
<!-- Node3 -->
<g id="Node000003" class="node">
<title>Node3</title>
<g id="a_Node000003"><a xlink:title=" ">
<polygon fill="#e0e0e0" stroke="#999999" points="246.25,-24.88 136.5,-24.88 136.5,-5.63 246.25,-5.63 246.25,-24.88"/>
<text text-anchor="middle" x="191.38" y="-11.38" font-family="Helvetica,sans-Serif" font-size="10.00">llvm/ADT/ilist_node.h</text>
</a>
</g>
</g>
<!-- Node1&#45;&gt;Node3 -->
<g id="edge2_Node000001_Node000003" class="edge">
<title>Node1&#45;&gt;Node3</title>
<g id="a_edge2_Node000001_Node000003"><a xlink:title=" ">
<path fill="none" stroke="#63b8ff" d="M287.24,-66.11C266.76,-55.46 239.19,-41.12 218.87,-30.55"/>
<polygon fill="#63b8ff" stroke="#63b8ff" points="220.53,-27.47 210.04,-25.96 217.3,-33.68 220.53,-27.47"/>
</a>
</g>
</g>
<!-- Node4 -->
<g id="Node000004" class="node">
<title>Node4</title>
<g id="a_Node000004"><a xlink:title=" ">
<polygon fill="#e0e0e0" stroke="#999999" points="366.12,-30.5 264.62,-30.5 264.62,0 366.12,0 366.12,-30.5"/>
<text text-anchor="start" x="272.62" y="-17" font-family="Helvetica,sans-Serif" font-size="10.00">llvm/ADT/ilist_node</text>
<text text-anchor="middle" x="315.38" y="-5.75" font-family="Helvetica,sans-Serif" font-size="10.00">_options.h</text>
</a>
</g>
</g>
<!-- Node1&#45;&gt;Node4 -->
<g id="edge3_Node000001_Node000004" class="edge">
<title>Node1&#45;&gt;Node4</title>
<g id="a_edge3_Node000001_Node000004"><a xlink:title=" ">
<path fill="none" stroke="#63b8ff" d="M315.38,-66.11C315.38,-59.02 315.38,-50.29 315.38,-42.13"/>
<polygon fill="#63b8ff" stroke="#63b8ff" points="318.88,-42.34 315.38,-32.34 311.88,-42.34 318.88,-42.34"/>
</a>
</g>
</g>
<!-- Node5 -->
<g id="Node000005" class="node">
<title>Node5</title>
<g id="a_Node000005"><a xlink:title=" ">
<polygon fill="#e0e0e0" stroke="#999999" points="482.62,-24.88 384.12,-24.88 384.12,-5.63 482.62,-5.63 482.62,-24.88"/>
<text text-anchor="middle" x="433.38" y="-11.38" font-family="Helvetica,sans-Serif" font-size="10.00">mlir/IR/Attributes.h</text>
</a>
</g>
</g>
<!-- Node1&#45;&gt;Node5 -->
<g id="edge4_Node000001_Node000005" class="edge">
<title>Node1&#45;&gt;Node5</title>
<g id="a_edge4_Node000001_Node000005"><a xlink:title=" ">
<path fill="none" stroke="#63b8ff" d="M342.15,-66.11C361.54,-55.51 387.64,-41.25 406.95,-30.7"/>
<polygon fill="#63b8ff" stroke="#63b8ff" points="408.47,-33.85 415.56,-25.99 405.11,-27.71 408.47,-33.85"/>
</a>
</g>
</g>
<!-- Node6 -->
<g id="Node000006" class="node">
<title>Node6</title>
<g id="a_Node000006"><a xlink:title=" ">
<polygon fill="#e0e0e0" stroke="#999999" points="605.62,-24.88 501.12,-24.88 501.12,-5.63 605.62,-5.63 605.62,-24.88"/>
<text text-anchor="middle" x="553.38" y="-11.38" font-family="Helvetica,sans-Serif" font-size="10.00">mlir/Support/LLVM.h</text>
</a>
</g>
</g>
<!-- Node1&#45;&gt;Node6 -->
<g id="edge5_Node000001_Node000006" class="edge">
<title>Node1&#45;&gt;Node6</title>
<g id="a_edge5_Node000001_Node000006"><a xlink:title=" ">
<path fill="none" stroke="#63b8ff" d="M369.68,-66.03C411.76,-54.63 469.35,-39.02 508.76,-28.34"/>
<polygon fill="#63b8ff" stroke="#63b8ff" points="509.67,-31.72 518.41,-25.73 507.84,-24.96 509.67,-31.72"/>
</a>
</g>
</g>
</g>
</svg>
