<?xml version="1.0" encoding="UTF-8" standalone="no"?>
<!DOCTYPE svg PUBLIC "-//W3C//DTD SVG 1.1//EN"
 "http://www.w3.org/Graphics/SVG/1.1/DTD/svg11.dtd">
<!-- Generated by graphviz version 12.2.1 (20241206.2353)
 -->
<!-- Title: include/zklang/Dialect/ZHL/Typing/Frame.h Pages: 1 -->
<svg width="614pt" height="238pt"
 viewBox="0.00 0.00 613.62 238.00" xmlns="http://www.w3.org/2000/svg" xmlns:xlink="http://www.w3.org/1999/xlink">
<g id="graph0" class="graph" transform="scale(1 1) rotate(0) translate(4 234)">
<title>include/zklang/Dialect/ZHL/Typing/Frame.h</title>
<!-- Node1 -->
<g id="Node000001" class="node">
<title>Node1</title>
<g id="a_Node000001"><a xlink:title=" ">
<polygon fill="#999999" stroke="#666666" points="219.38,-230 107.38,-230 107.38,-199.5 219.38,-199.5 219.38,-230"/>
<text text-anchor="start" x="115.38" y="-216.5" font-family="Helvetica,sans-Serif" font-size="10.00">include/zklang/Dialect</text>
<text text-anchor="middle" x="163.38" y="-205.25" font-family="Helvetica,sans-Serif" font-size="10.00">/ZHL/Typing/Frame.h</text>
</a>
</g>
</g>
<!-- Node2 -->
<g id="Node000002" class="node">
<title>Node2</title>
<g id="a_Node000002"><a xlink:title=" ">
<polygon fill="#e0e0e0" stroke="#999999" points="157,-91.38 39.75,-91.38 39.75,-72.12 157,-72.12 157,-91.38"/>
<text text-anchor="middle" x="98.38" y="-77.88" font-family="Helvetica,sans-Serif" font-size="10.00">llvm/ADT/simple_ilist.h</text>
</a>
</g>
</g>
<!-- Node1&#45;&gt;Node2 -->
<g id="edge1_Node000001_Node000002" class="edge">
<title>Node1&#45;&gt;Node2</title>
<g id="a_edge1_Node000001_Node000002"><a xlink:title=" ">
<path fill="none" stroke="#63b8ff" d="M106.89,-207.57C78.65,-201.3 46.85,-188.72 29.38,-163.5 21.65,-152.36 23.23,-145.08 29.38,-133 37.32,-117.38 52.66,-105.46 66.86,-97.17"/>
<polygon fill="#63b8ff" stroke="#63b8ff" points="68.4,-100.31 75.54,-92.48 65.08,-94.15 68.4,-100.31"/>
</a>
</g>
</g>
<!-- Node3 -->
<g id="Node000003" class="node">
<title>Node3</title>
<g id="a_Node000003"><a xlink:title=" ">
<polygon fill="#e0e0e0" stroke="#999999" points="176.5,-157.88 38.25,-157.88 38.25,-138.62 176.5,-138.62 176.5,-157.88"/>
<text text-anchor="middle" x="107.38" y="-144.38" font-family="Helvetica,sans-Serif" font-size="10.00">llvm/Support/raw_ostream.h</text>
</a>
</g>
</g>
<!-- Node1&#45;&gt;Node3 -->
<g id="edge2_Node000001_Node000003" class="edge">
<title>Node1&#45;&gt;Node3</title>
<g id="a_edge2_Node000001_Node000003"><a xlink:title=" ">
<path fill="none" stroke="#63b8ff" d="M150.67,-199.11C142.27,-189.44 131.22,-176.71 122.38,-166.54"/>
<polygon fill="#63b8ff" stroke="#63b8ff" points="125.23,-164.47 116.03,-159.22 119.94,-169.06 125.23,-164.47"/>
</a>
</g>
</g>
<!-- Node4 -->
<g id="Node000004" class="node">
<title>Node4</title>
<g id="a_Node000004"><a xlink:title=" ">
<polygon fill="#e0e0e0" stroke="#999999" points="246,-157.88 194.75,-157.88 194.75,-138.62 246,-138.62 246,-157.88"/>
<text text-anchor="middle" x="220.38" y="-144.38" font-family="Helvetica,sans-Serif" font-size="10.00">memory</text>
</a>
</g>
</g>
<!-- Node1&#45;&gt;Node4 -->
<g id="edge3_Node000001_Node000004" class="edge">
<title>Node1&#45;&gt;Node4</title>
<g id="a_edge3_Node000001_Node000004"><a xlink:title=" ">
<path fill="none" stroke="#63b8ff" d="M176.31,-199.11C184.86,-189.44 196.11,-176.71 205.1,-166.54"/>
<polygon fill="#63b8ff" stroke="#63b8ff" points="207.58,-169.02 211.58,-159.21 202.33,-164.38 207.58,-169.02"/>
</a>
</g>
</g>
<!-- Node5 -->
<g id="Node000005" class="node">
<title>Node5</title>
<g id="a_Node000005"><a xlink:href="_frame_info_8h.html" target="_top" xlink:title=" ">
<polygon fill="white" stroke="#666666" points="366.88,-163.5 263.88,-163.5 263.88,-133 366.88,-133 366.88,-163.5"/>
<text text-anchor="start" x="271.88" y="-150" font-family="Helvetica,sans-Serif" font-size="10.00">zklang/Dialect/ZHL</text>
<text text-anchor="middle" x="315.38" y="-138.75" font-family="Helvetica,sans-Serif" font-size="10.00">/Typing/FrameInfo.h</text>
</a>
</g>
</g>
<!-- Node1&#45;&gt;Node5 -->
<g id="edge4_Node000001_Node000005" class="edge">
<title>Node1&#45;&gt;Node5</title>
<g id="a_edge4_Node000001_Node000005"><a xlink:title=" ">
<path fill="none" stroke="#63b8ff" d="M197.87,-199.11C219.36,-189.99 247.25,-178.16 270.46,-168.31"/>
<polygon fill="#63b8ff" stroke="#63b8ff" points="271.53,-171.66 279.36,-164.53 268.79,-165.22 271.53,-171.66"/>
</a>
</g>
</g>
<!-- Node5&#45;&gt;Node2 -->
<g id="edge5_Node000005_Node000002" class="edge">
<title>Node5&#45;&gt;Node2</title>
<g id="a_edge5_Node000005_Node000002"><a xlink:title=" ">
<path fill="none" stroke="#63b8ff" d="M265.86,-132.53C227.66,-121.18 175.44,-105.66 139.52,-94.98"/>
<polygon fill="#63b8ff" stroke="#63b8ff" points="140.96,-91.76 130.38,-92.26 138.96,-98.47 140.96,-91.76"/>
</a>
</g>
</g>
<!-- Node6 -->
<g id="Node000006" class="node">
<title>Node6</title>
<g id="a_Node000006"><a xlink:href="_frame_slot_8h.html" target="_top" xlink:title=" ">
<polygon fill="white" stroke="#666666" points="367.25,-97 263.5,-97 263.5,-66.5 367.25,-66.5 367.25,-97"/>
<text text-anchor="start" x="271.5" y="-83.5" font-family="Helvetica,sans-Serif" font-size="10.00">zklang/Dialect/ZHL</text>
<text text-anchor="middle" x="315.38" y="-72.25" font-family="Helvetica,sans-Serif" font-size="10.00">/Typing/FrameSlot.h</text>
</a>
</g>
</g>
<!-- Node5&#45;&gt;Node6 -->
<g id="edge6_Node000005_Node000006" class="edge">
<title>Node5&#45;&gt;Node6</title>
<g id="a_edge6_Node000005_Node000006"><a xlink:title=" ">
<path fill="none" stroke="#63b8ff" d="M315.38,-132.61C315.38,-125.52 315.38,-116.79 315.38,-108.63"/>
<polygon fill="#63b8ff" stroke="#63b8ff" points="318.88,-108.84 315.38,-98.84 311.88,-108.84 318.88,-108.84"/>
</a>
</g>
</g>
<!-- Node7 -->
<g id="Node000007" class="node">
<title>Node7</title>
<g id="a_Node000007"><a xlink:title=" ">
<polygon fill="#e0e0e0" stroke="#999999" points="118.75,-24.88 0,-24.88 0,-5.63 118.75,-5.63 118.75,-24.88"/>
<text text-anchor="middle" x="59.38" y="-11.38" font-family="Helvetica,sans-Serif" font-size="10.00">llvm/ADT/SmallString.h</text>
</a>
</g>
</g>
<!-- Node6&#45;&gt;Node7 -->
<g id="edge7_Node000006_Node000007" class="edge">
<title>Node6&#45;&gt;Node7</title>
<g id="a_edge7_Node000006_Node000007"><a xlink:title=" ">
<path fill="none" stroke="#63b8ff" d="M263.26,-67.62C217.27,-56.03 150.81,-39.29 106.41,-28.1"/>
<polygon fill="#63b8ff" stroke="#63b8ff" points="107.36,-24.73 96.81,-25.68 105.65,-31.52 107.36,-24.73"/>
</a>
</g>
</g>
<!-- Node8 -->
<g id="Node000008" class="node">
<title>Node8</title>
<g id="a_Node000008"><a xlink:title=" ">
<polygon fill="#e0e0e0" stroke="#999999" points="246.25,-24.88 136.5,-24.88 136.5,-5.63 246.25,-5.63 246.25,-24.88"/>
<text text-anchor="middle" x="191.38" y="-11.38" font-family="Helvetica,sans-Serif" font-size="10.00">llvm/ADT/ilist_node.h</text>
</a>
</g>
</g>
<!-- Node6&#45;&gt;Node8 -->
<g id="edge8_Node000006_Node000008" class="edge">
<title>Node6&#45;&gt;Node8</title>
<g id="a_edge8_Node000006_Node000008"><a xlink:title=" ">
<path fill="none" stroke="#63b8ff" d="M287.24,-66.11C266.76,-55.46 239.19,-41.12 218.87,-30.55"/>
<polygon fill="#63b8ff" stroke="#63b8ff" points="220.53,-27.47 210.04,-25.96 217.3,-33.68 220.53,-27.47"/>
</a>
</g>
</g>
<!-- Node9 -->
<g id="Node000009" class="node">
<title>Node9</title>
<g id="a_Node000009"><a xlink:title=" ">
<polygon fill="#e0e0e0" stroke="#999999" points="366.12,-30.5 264.62,-30.5 264.62,0 366.12,0 366.12,-30.5"/>
<text text-anchor="start" x="272.62" y="-17" font-family="Helvetica,sans-Serif" font-size="10.00">llvm/ADT/ilist_node</text>
<text text-anchor="middle" x="315.38" y="-5.75" font-family="Helvetica,sans-Serif" font-size="10.00">_options.h</text>
</a>
</g>
</g>
<!-- Node6&#45;&gt;Node9 -->
<g id="edge9_Node000006_Node000009" class="edge">
<title>Node6&#45;&gt;Node9</title>
<g id="a_edge9_Node000006_Node000009"><a xlink:title=" ">
<path fill="none" stroke="#63b8ff" d="M315.38,-66.11C315.38,-59.02 315.38,-50.29 315.38,-42.13"/>
<polygon fill="#63b8ff" stroke="#63b8ff" points="318.88,-42.34 315.38,-32.34 311.88,-42.34 318.88,-42.34"/>
</a>
</g>
</g>
<!-- Node10 -->
<g id="Node000010" class="node">
<title>Node10</title>
<g id="a_Node000010"><a xlink:title=" ">
<polygon fill="#e0e0e0" stroke="#999999" points="482.62,-24.88 384.12,-24.88 384.12,-5.63 482.62,-5.63 482.62,-24.88"/>
<text text-anchor="middle" x="433.38" y="-11.38" font-family="Helvetica,sans-Serif" font-size="10.00">mlir/IR/Attributes.h</text>
</a>
</g>
</g>
<!-- Node6&#45;&gt;Node10 -->
<g id="edge10_Node000006_Node000010" class="edge">
<title>Node6&#45;&gt;Node10</title>
<g id="a_edge10_Node000006_Node000010"><a xlink:title=" ">
<path fill="none" stroke="#63b8ff" d="M342.15,-66.11C361.54,-55.51 387.64,-41.25 406.95,-30.7"/>
<polygon fill="#63b8ff" stroke="#63b8ff" points="408.47,-33.85 415.56,-25.99 405.11,-27.71 408.47,-33.85"/>
</a>
</g>
</g>
<!-- Node11 -->
<g id="Node000011" class="node">
<title>Node11</title>
<g id="a_Node000011"><a xlink:title=" ">
<polygon fill="#e0e0e0" stroke="#999999" points="605.62,-24.88 501.12,-24.88 501.12,-5.63 605.62,-5.63 605.62,-24.88"/>
<text text-anchor="middle" x="553.38" y="-11.38" font-family="Helvetica,sans-Serif" font-size="10.00">mlir/Support/LLVM.h</text>
</a>
</g>
</g>
<!-- Node6&#45;&gt;Node11 -->
<g id="edge11_Node000006_Node000011" class="edge">
<title>Node6&#45;&gt;Node11</title>
<g id="a_edge11_Node000006_Node000011"><a xlink:title=" ">
<path fill="none" stroke="#63b8ff" d="M367.61,-66.6C409.91,-55.13 468.87,-39.15 508.94,-28.29"/>
<polygon fill="#63b8ff" stroke="#63b8ff" points="509.77,-31.69 518.51,-25.7 507.94,-24.94 509.77,-31.69"/>
</a>
</g>
</g>
</g>
</svg>
