<?xml version="1.0" encoding="UTF-8" standalone="no"?>
<!DOCTYPE svg PUBLIC "-//W3C//DTD SVG 1.1//EN"
 "http://www.w3.org/Graphics/SVG/1.1/DTD/svg11.dtd">
<!-- Generated by graphviz version 12.2.1 (20241206.2353)
 -->
<!-- Title: include/zklang/Dialect/ZML/Utils/Helpers.h Pages: 1 -->
<svg width="422pt" height="172pt"
 viewBox="0.00 0.00 421.62 171.50" xmlns="http://www.w3.org/2000/svg" xmlns:xlink="http://www.w3.org/1999/xlink">
<g id="graph0" class="graph" transform="scale(1 1) rotate(0) translate(4 167.5)">
<title>include/zklang/Dialect/ZML/Utils/Helpers.h</title>
<!-- Node1 -->
<g id="Node000001" class="node">
<title>Node1</title>
<g id="a_Node000001"><a xlink:title=" ">
<polygon fill="#999999" stroke="#666666" points="253.88,-163.5 141.88,-163.5 141.88,-133 253.88,-133 253.88,-163.5"/>
<text text-anchor="start" x="149.88" y="-150" font-family="Helvetica,sans-Serif" font-size="10.00">include/zklang/Dialect</text>
<text text-anchor="middle" x="197.88" y="-138.75" font-family="Helvetica,sans-Serif" font-size="10.00">/ZML/Utils/Helpers.h</text>
</a>
</g>
</g>
<!-- Node2 -->
<g id="Node000002" class="node">
<title>Node2</title>
<g id="a_Node000002"><a xlink:href="_passes_2_convert_zhl_to_zml_2_patterns_8h.html" target="_top" xlink:title=" ">
<polygon fill="white" stroke="#666666" points="219.88,-97 77.88,-97 77.88,-66.5 219.88,-66.5 219.88,-97"/>
<text text-anchor="start" x="85.88" y="-83.5" font-family="Helvetica,sans-Serif" font-size="10.00">include/zklang/Passes</text>
<text text-anchor="middle" x="148.88" y="-72.25" font-family="Helvetica,sans-Serif" font-size="10.00">/ConvertZhlToZml/Patterns.h</text>
</a>
</g>
</g>
<!-- Node1&#45;&gt;Node2 -->
<g id="edge1_Node000001_Node000002" class="edge">
<title>Node1&#45;&gt;Node2</title>
<g id="a_edge1_Node000001_Node000002"><a xlink:title=" ">
<path fill="none" stroke="#63b8ff" d="M179.89,-123.57C173.21,-114.78 165.83,-105.07 159.95,-97.33"/>
<polygon fill="#63b8ff" stroke="#63b8ff" points="177,-125.56 185.84,-131.41 182.58,-121.33 177,-125.56"/>
</a>
</g>
</g>
<!-- Node3 -->
<g id="Node000003" class="node">
<title>Node3</title>
<g id="a_Node000003"><a xlink:href="_convert_zhl_to_zml_2_pass_8cpp.html" target="_top" xlink:title=" ">
<polygon fill="white" stroke="#666666" points="139.75,-30.5 0,-30.5 0,0 139.75,0 139.75,-30.5"/>
<text text-anchor="start" x="8" y="-17" font-family="Helvetica,sans-Serif" font-size="10.00">lib/Passes/ConvertZhlToZml</text>
<text text-anchor="middle" x="69.88" y="-5.75" font-family="Helvetica,sans-Serif" font-size="10.00">/Pass.cpp</text>
</a>
</g>
</g>
<!-- Node1&#45;&gt;Node3 -->
<g id="edge5_Node000001_Node000003" class="edge">
<title>Node1&#45;&gt;Node3</title>
<g id="a_edge5_Node000001_Node000003"><a xlink:title=" ">
<path fill="none" stroke="#63b8ff" d="M130.38,-136.97C106.93,-129.8 82.99,-117.64 68.88,-97 55.42,-77.32 60.28,-48.17 65.06,-30.8"/>
<polygon fill="#63b8ff" stroke="#63b8ff" points="129.42,-140.34 139.99,-139.61 131.28,-133.59 129.42,-140.34"/>
</a>
</g>
</g>
<!-- Node4 -->
<g id="Node000004" class="node">
<title>Node4</title>
<g id="a_Node000004"><a xlink:href="_passes_2_convert_zhl_to_zml_2_patterns_8cpp.html" target="_top" xlink:title=" ">
<polygon fill="white" stroke="#666666" points="307.75,-30.5 168,-30.5 168,0 307.75,0 307.75,-30.5"/>
<text text-anchor="start" x="176" y="-17" font-family="Helvetica,sans-Serif" font-size="10.00">lib/Passes/ConvertZhlToZml</text>
<text text-anchor="middle" x="237.88" y="-5.75" font-family="Helvetica,sans-Serif" font-size="10.00">/Patterns.cpp</text>
</a>
</g>
</g>
<!-- Node1&#45;&gt;Node4 -->
<g id="edge6_Node000001_Node000004" class="edge">
<title>Node1&#45;&gt;Node4</title>
<g id="a_edge6_Node000001_Node000004"><a xlink:title=" ">
<path fill="none" stroke="#63b8ff" d="M215.6,-123.35C220.7,-115.35 225.73,-106.13 228.88,-97 236.5,-74.86 238.02,-47.48 238.15,-30.97"/>
<polygon fill="#63b8ff" stroke="#63b8ff" points="212.8,-121.24 210.09,-131.49 218.59,-125.17 212.8,-121.24"/>
</a>
</g>
</g>
<!-- Node5 -->
<g id="Node000005" class="node">
<title>Node5</title>
<g id="a_Node000005"><a xlink:href="_helpers_8cpp.html" target="_top" xlink:title=" ">
<polygon fill="white" stroke="#666666" points="413.62,-91.38 276.12,-91.38 276.12,-72.12 413.62,-72.12 413.62,-91.38"/>
<text text-anchor="middle" x="344.88" y="-77.88" font-family="Helvetica,sans-Serif" font-size="10.00">lib/Dialect/ZML/Helpers.cpp</text>
</a>
</g>
</g>
<!-- Node1&#45;&gt;Node5 -->
<g id="edge4_Node000001_Node000005" class="edge">
<title>Node1&#45;&gt;Node5</title>
<g id="a_edge4_Node000001_Node000005"><a xlink:title=" ">
<path fill="none" stroke="#63b8ff" d="M241.74,-128.01C269.1,-116 303.05,-101.1 324.34,-91.76"/>
<polygon fill="#63b8ff" stroke="#63b8ff" points="240.37,-124.78 232.62,-132.01 243.18,-131.19 240.37,-124.78"/>
</a>
</g>
</g>
<!-- Node2&#45;&gt;Node3 -->
<g id="edge2_Node000002_Node000003" class="edge">
<title>Node2&#45;&gt;Node3</title>
<g id="a_edge2_Node000002_Node000003"><a xlink:title=" ">
<path fill="none" stroke="#63b8ff" d="M122.26,-59.02C110.89,-49.73 97.92,-39.15 87.73,-30.83"/>
<polygon fill="#63b8ff" stroke="#63b8ff" points="119.82,-61.54 129.78,-65.16 124.24,-56.12 119.82,-61.54"/>
</a>
</g>
</g>
<!-- Node2&#45;&gt;Node4 -->
<g id="edge3_Node000002_Node000004" class="edge">
<title>Node2&#45;&gt;Node4</title>
<g id="a_edge3_Node000002_Node000004"><a xlink:title=" ">
<path fill="none" stroke="#63b8ff" d="M178.1,-59.57C191.09,-50.16 206.05,-39.31 217.76,-30.83"/>
<polygon fill="#63b8ff" stroke="#63b8ff" points="176.34,-56.52 170.3,-65.23 180.45,-62.19 176.34,-56.52"/>
</a>
</g>
</g>
</g>
</svg>
