<?xml version="1.0" encoding="UTF-8" standalone="no"?>
<!DOCTYPE svg PUBLIC "-//W3C//DTD SVG 1.1//EN"
 "http://www.w3.org/Graphics/SVG/1.1/DTD/svg11.dtd">
<!-- Generated by graphviz version 12.2.1 (20241206.2353)
 -->
<!-- Title: include/zklang/Dialect/ZHL/Typing/InnerFrame.h Pages: 1 -->
<svg width="409pt" height="105pt"
 viewBox="0.00 0.00 409.25 105.00" xmlns="http://www.w3.org/2000/svg" xmlns:xlink="http://www.w3.org/1999/xlink">
<g id="graph0" class="graph" transform="scale(1 1) rotate(0) translate(4 101)">
<title>include/zklang/Dialect/ZHL/Typing/InnerFrame.h</title>
<!-- Node1 -->
<g id="Node000001" class="node">
<title>Node1</title>
<g id="a_Node000001"><a xlink:title=" ">
<polygon fill="#999999" stroke="#666666" points="252.38,-97 122.38,-97 122.38,-66.5 252.38,-66.5 252.38,-97"/>
<text text-anchor="start" x="130.38" y="-83.5" font-family="Helvetica,sans-Serif" font-size="10.00">include/zklang/Dialect</text>
<text text-anchor="middle" x="187.38" y="-72.25" font-family="Helvetica,sans-Serif" font-size="10.00">/ZHL/Typing/InnerFrame.h</text>
</a>
</g>
</g>
<!-- Node2 -->
<g id="Node000002" class="node">
<title>Node2</title>
<g id="a_Node000002"><a xlink:href="_frame_8cpp.html" target="_top" xlink:title=" ">
<polygon fill="white" stroke="#666666" points="112.75,-30.5 0,-30.5 0,0 112.75,0 112.75,-30.5"/>
<text text-anchor="start" x="8" y="-17" font-family="Helvetica,sans-Serif" font-size="10.00">lib/Dialect/ZHL/Typing</text>
<text text-anchor="middle" x="56.38" y="-5.75" font-family="Helvetica,sans-Serif" font-size="10.00">/Frame.cpp</text>
</a>
</g>
</g>
<!-- Node1&#45;&gt;Node2 -->
<g id="edge1_Node000001_Node000002" class="edge">
<title>Node1&#45;&gt;Node2</title>
<g id="a_edge1_Node000001_Node000002"><a xlink:title=" ">
<path fill="none" stroke="#63b8ff" d="M147.39,-61.06C127.6,-51.32 104.13,-39.76 85.98,-30.83"/>
<polygon fill="#63b8ff" stroke="#63b8ff" points="145.77,-64.17 156.29,-65.45 148.87,-57.89 145.77,-64.17"/>
</a>
</g>
</g>
<!-- Node3 -->
<g id="Node000003" class="node">
<title>Node3</title>
<g id="a_Node000003"><a xlink:href="_rules_8cpp.html" target="_top" xlink:title=" ">
<polygon fill="white" stroke="#666666" points="243.75,-30.5 131,-30.5 131,0 243.75,0 243.75,-30.5"/>
<text text-anchor="start" x="139" y="-17" font-family="Helvetica,sans-Serif" font-size="10.00">lib/Dialect/ZHL/Typing</text>
<text text-anchor="middle" x="187.38" y="-5.75" font-family="Helvetica,sans-Serif" font-size="10.00">/Rules.cpp</text>
</a>
</g>
</g>
<!-- Node1&#45;&gt;Node3 -->
<g id="edge2_Node000001_Node000003" class="edge">
<title>Node1&#45;&gt;Node3</title>
<g id="a_edge2_Node000001_Node000003"><a xlink:title=" ">
<path fill="none" stroke="#63b8ff" d="M187.38,-54.81C187.38,-46.64 187.38,-37.91 187.38,-30.83"/>
<polygon fill="#63b8ff" stroke="#63b8ff" points="183.88,-54.6 187.38,-64.6 190.88,-54.6 183.88,-54.6"/>
</a>
</g>
</g>
<!-- Node4 -->
<g id="Node000004" class="node">
<title>Node4</title>
<g id="a_Node000004"><a xlink:href="_passes_2_convert_zhl_to_zml_2_patterns_8cpp.html" target="_top" xlink:title=" ">
<polygon fill="white" stroke="#666666" points="401.25,-30.5 261.5,-30.5 261.5,0 401.25,0 401.25,-30.5"/>
<text text-anchor="start" x="269.5" y="-17" font-family="Helvetica,sans-Serif" font-size="10.00">lib/Passes/ConvertZhlToZml</text>
<text text-anchor="middle" x="331.38" y="-5.75" font-family="Helvetica,sans-Serif" font-size="10.00">/Patterns.cpp</text>
</a>
</g>
</g>
<!-- Node1&#45;&gt;Node4 -->
<g id="edge3_Node000001_Node000004" class="edge">
<title>Node1&#45;&gt;Node4</title>
<g id="a_edge3_Node000001_Node000004"><a xlink:title=" ">
<path fill="none" stroke="#63b8ff" d="M230.43,-61.47C252.36,-51.64 278.6,-39.89 298.83,-30.83"/>
<polygon fill="#63b8ff" stroke="#63b8ff" points="229.13,-58.21 221.43,-65.5 231.99,-64.6 229.13,-58.21"/>
</a>
</g>
</g>
</g>
</svg>
