<?xml version="1.0" encoding="UTF-8" standalone="no"?>
<!DOCTYPE svg PUBLIC "-//W3C//DTD SVG 1.1//EN"
 "http://www.w3.org/Graphics/SVG/1.1/DTD/svg11.dtd">
<!-- Generated by graphviz version 12.2.1 (20241206.2353)
 -->
<!-- Title: include/zklang/Dialect/ZHL/Typing/InnerFrame.h Pages: 1 -->
<svg width="2298pt" height="504pt"
 viewBox="0.00 0.00 2298.35 504.00" xmlns="http://www.w3.org/2000/svg" xmlns:xlink="http://www.w3.org/1999/xlink">
<g id="graph0" class="graph" transform="scale(1 1) rotate(0) translate(4 500)">
<title>include/zklang/Dialect/ZHL/Typing/InnerFrame.h</title>
<!-- Node1 -->
<g id="Node000001" class="node">
<title>Node1</title>
<g id="a_Node000001"><a xlink:title=" ">
<polygon fill="#999999" stroke="#666666" points="2290.35,-496 2160.35,-496 2160.35,-465.5 2290.35,-465.5 2290.35,-496"/>
<text text-anchor="start" x="2168.35" y="-482.5" font-family="Helvetica,sans-Serif" font-size="10.00">include/zklang/Dialect</text>
<text text-anchor="middle" x="2225.35" y="-471.25" font-family="Helvetica,sans-Serif" font-size="10.00">/ZHL/Typing/InnerFrame.h</text>
</a>
</g>
</g>
<!-- Node2 -->
<g id="Node000002" class="node">
<title>Node2</title>
<g id="a_Node000002"><a xlink:href="_component_slot_8h.html" target="_top" xlink:title=" ">
<polygon fill="white" stroke="#666666" points="1527.47,-429.5 1401.22,-429.5 1401.22,-399 1527.47,-399 1527.47,-429.5"/>
<text text-anchor="start" x="1409.22" y="-416" font-family="Helvetica,sans-Serif" font-size="10.00">zklang/Dialect/ZHL</text>
<text text-anchor="middle" x="1464.35" y="-404.75" font-family="Helvetica,sans-Serif" font-size="10.00">/Typing/ComponentSlot.h</text>
</a>
</g>
</g>
<!-- Node1&#45;&gt;Node2 -->
<g id="edge1_Node000001_Node000002" class="edge">
<title>Node1&#45;&gt;Node2</title>
<g id="a_edge1_Node000001_Node000002"><a xlink:title=" ">
<path fill="none" stroke="#63b8ff" d="M2160.14,-474.22C2019.45,-462.3 1688.14,-434.22 1539.19,-421.59"/>
<polygon fill="#63b8ff" stroke="#63b8ff" points="1539.69,-418.12 1529.43,-420.77 1539.1,-425.1 1539.69,-418.12"/>
</a>
</g>
</g>
<!-- Node4 -->
<g id="Node000004" class="node">
<title>Node4</title>
<g id="a_Node000004"><a xlink:href="_frame_slot_8h.html" target="_top" xlink:title=" ">
<polygon fill="white" stroke="#666666" points="2094.22,-97 1990.47,-97 1990.47,-66.5 2094.22,-66.5 2094.22,-97"/>
<text text-anchor="start" x="1998.47" y="-83.5" font-family="Helvetica,sans-Serif" font-size="10.00">zklang/Dialect/ZHL</text>
<text text-anchor="middle" x="2042.35" y="-72.25" font-family="Helvetica,sans-Serif" font-size="10.00">/Typing/FrameSlot.h</text>
</a>
</g>
</g>
<!-- Node1&#45;&gt;Node4 -->
<g id="edge71_Node000001_Node000004" class="edge">
<title>Node1&#45;&gt;Node4</title>
<g id="a_edge71_Node000001_Node000004"><a xlink:title=" ">
<path fill="none" stroke="#63b8ff" d="M2232.5,-465.22C2243.51,-441.46 2263.35,-392.56 2263.35,-348.75 2263.35,-348.75 2263.35,-348.75 2263.35,-213.75 2263.35,-139.96 2171.06,-106.84 2105.76,-92.63"/>
<polygon fill="#63b8ff" stroke="#63b8ff" points="2106.71,-89.25 2096.21,-90.66 2105.29,-96.11 2106.71,-89.25"/>
</a>
</g>
</g>
<!-- Node28 -->
<g id="Node000028" class="node">
<title>Node28</title>
<g id="a_Node000028"><a xlink:href="_frame_8h.html" target="_top" xlink:title=" ">
<polygon fill="white" stroke="#666666" points="1885.35,-230 1785.35,-230 1785.35,-199.5 1885.35,-199.5 1885.35,-230"/>
<text text-anchor="start" x="1793.35" y="-216.5" font-family="Helvetica,sans-Serif" font-size="10.00">zklang/Dialect/ZHL</text>
<text text-anchor="middle" x="1835.35" y="-205.25" font-family="Helvetica,sans-Serif" font-size="10.00">/Typing/Frame.h</text>
</a>
</g>
</g>
<!-- Node1&#45;&gt;Node28 -->
<g id="edge70_Node000001_Node000028" class="edge">
<title>Node1&#45;&gt;Node28</title>
<g id="a_edge70_Node000001_Node000028"><a xlink:title=" ">
<path fill="none" stroke="#63b8ff" d="M2203.83,-465.18C2138.44,-420.92 1941.95,-287.91 1865.89,-236.42"/>
<polygon fill="#63b8ff" stroke="#63b8ff" points="1868.3,-233.83 1858.06,-231.12 1864.38,-239.63 1868.3,-233.83"/>
</a>
</g>
</g>
<!-- Node3 -->
<g id="Node000003" class="node">
<title>Node3</title>
<g id="a_Node000003"><a xlink:title=" ">
<polygon fill="#e0e0e0" stroke="#999999" points="1232.6,-24.88 1128.1,-24.88 1128.1,-5.63 1232.6,-5.63 1232.6,-24.88"/>
<text text-anchor="middle" x="1180.35" y="-11.38" font-family="Helvetica,sans-Serif" font-size="10.00">mlir/Support/LLVM.h</text>
</a>
</g>
</g>
<!-- Node2&#45;&gt;Node3 -->
<g id="edge2_Node000002_Node000003" class="edge">
<title>Node2&#45;&gt;Node3</title>
<g id="a_edge2_Node000002_Node000003"><a xlink:title=" ">
<path fill="none" stroke="#63b8ff" d="M1401.06,-410.95C1120.44,-400.33 2.35,-353.56 2.35,-282.25 2.35,-282.25 2.35,-282.25 2.35,-147.25 2.35,-110.38 -7.05,-90.01 21.35,-66.5 63.76,-31.39 879.45,-19.6 1116.35,-16.9"/>
<polygon fill="#63b8ff" stroke="#63b8ff" points="1116.37,-20.4 1126.34,-16.79 1116.3,-13.4 1116.37,-20.4"/>
</a>
</g>
</g>
<!-- Node2&#45;&gt;Node4 -->
<g id="edge3_Node000002_Node000004" class="edge">
<title>Node2&#45;&gt;Node4</title>
<g id="a_edge3_Node000002_Node000004"><a xlink:title=" ">
<path fill="none" stroke="#63b8ff" d="M1527.88,-408.42C1704.3,-394.15 2187.35,-348.98 2187.35,-282.25 2187.35,-282.25 2187.35,-282.25 2187.35,-213.75 2187.35,-160.31 2132.46,-123.04 2090.22,-102.27"/>
<polygon fill="#63b8ff" stroke="#63b8ff" points="2091.97,-99.23 2081.44,-98.12 2088.98,-105.56 2091.97,-99.23"/>
</a>
</g>
</g>
<!-- Node9 -->
<g id="Node000009" class="node">
<title>Node9</title>
<g id="a_Node000009"><a xlink:href="_type_bindings_8h.html" target="_top" xlink:title=" ">
<polygon fill="white" stroke="#666666" points="946.97,-363 829.72,-363 829.72,-332.5 946.97,-332.5 946.97,-363"/>
<text text-anchor="start" x="837.72" y="-349.5" font-family="Helvetica,sans-Serif" font-size="10.00">zklang/Dialect/ZHL</text>
<text text-anchor="middle" x="888.35" y="-338.25" font-family="Helvetica,sans-Serif" font-size="10.00">/Typing/TypeBindings.h</text>
</a>
</g>
</g>
<!-- Node2&#45;&gt;Node9 -->
<g id="edge9_Node000002_Node000009" class="edge">
<title>Node2&#45;&gt;Node9</title>
<g id="a_edge9_Node000002_Node000009"><a xlink:title=" ">
<path fill="none" stroke="#63b8ff" d="M1400.78,-406.13C1292.16,-393.97 1071.64,-369.28 958.61,-356.62"/>
<polygon fill="#63b8ff" stroke="#63b8ff" points="959.18,-353.16 948.86,-355.53 958.4,-360.12 959.18,-353.16"/>
</a>
</g>
</g>
<!-- Node4&#45;&gt;Node3 -->
<g id="edge8_Node000004_Node000003" class="edge">
<title>Node4&#45;&gt;Node3</title>
<g id="a_edge8_Node000004_Node000003"><a xlink:title=" ">
<path fill="none" stroke="#63b8ff" d="M1990.21,-74.55C1966.48,-71.85 1938.02,-68.79 1912.35,-66.5 1665.66,-44.52 1371.45,-26.94 1244.2,-19.76"/>
<polygon fill="#63b8ff" stroke="#63b8ff" points="1244.47,-16.27 1234.29,-19.2 1244.07,-23.26 1244.47,-16.27"/>
</a>
</g>
</g>
<!-- Node5 -->
<g id="Node000005" class="node">
<title>Node5</title>
<g id="a_Node000005"><a xlink:title=" ">
<polygon fill="#e0e0e0" stroke="#999999" points="1845.72,-24.88 1726.97,-24.88 1726.97,-5.63 1845.72,-5.63 1845.72,-24.88"/>
<text text-anchor="middle" x="1786.35" y="-11.38" font-family="Helvetica,sans-Serif" font-size="10.00">llvm/ADT/SmallString.h</text>
</a>
</g>
</g>
<!-- Node4&#45;&gt;Node5 -->
<g id="edge4_Node000004_Node000005" class="edge">
<title>Node4&#45;&gt;Node5</title>
<g id="a_edge4_Node000004_Node000005"><a xlink:title=" ">
<path fill="none" stroke="#63b8ff" d="M1990.24,-67.62C1944.24,-56.03 1877.79,-39.29 1833.39,-28.1"/>
<polygon fill="#63b8ff" stroke="#63b8ff" points="1834.34,-24.73 1823.79,-25.68 1832.63,-31.52 1834.34,-24.73"/>
</a>
</g>
</g>
<!-- Node6 -->
<g id="Node000006" class="node">
<title>Node6</title>
<g id="a_Node000006"><a xlink:title=" ">
<polygon fill="#e0e0e0" stroke="#999999" points="2035.22,-24.88 1925.47,-24.88 1925.47,-5.63 2035.22,-5.63 2035.22,-24.88"/>
<text text-anchor="middle" x="1980.35" y="-11.38" font-family="Helvetica,sans-Serif" font-size="10.00">llvm/ADT/ilist_node.h</text>
</a>
</g>
</g>
<!-- Node4&#45;&gt;Node6 -->
<g id="edge5_Node000004_Node000006" class="edge">
<title>Node4&#45;&gt;Node6</title>
<g id="a_edge5_Node000004_Node000006"><a xlink:title=" ">
<path fill="none" stroke="#63b8ff" d="M2028.28,-66.11C2018.89,-56.34 2006.5,-43.45 1996.67,-33.23"/>
<polygon fill="#63b8ff" stroke="#63b8ff" points="1999.33,-30.95 1989.88,-26.16 1994.29,-35.8 1999.33,-30.95"/>
</a>
</g>
</g>
<!-- Node7 -->
<g id="Node000007" class="node">
<title>Node7</title>
<g id="a_Node000007"><a xlink:title=" ">
<polygon fill="#e0e0e0" stroke="#999999" points="2155.1,-30.5 2053.6,-30.5 2053.6,0 2155.1,0 2155.1,-30.5"/>
<text text-anchor="start" x="2061.6" y="-17" font-family="Helvetica,sans-Serif" font-size="10.00">llvm/ADT/ilist_node</text>
<text text-anchor="middle" x="2104.35" y="-5.75" font-family="Helvetica,sans-Serif" font-size="10.00">_options.h</text>
</a>
</g>
</g>
<!-- Node4&#45;&gt;Node7 -->
<g id="edge6_Node000004_Node000007" class="edge">
<title>Node4&#45;&gt;Node7</title>
<g id="a_edge6_Node000004_Node000007"><a xlink:title=" ">
<path fill="none" stroke="#63b8ff" d="M2056.42,-66.11C2064.11,-58.11 2073.8,-48.03 2082.46,-39.03"/>
<polygon fill="#63b8ff" stroke="#63b8ff" points="2084.88,-41.55 2089.29,-31.92 2079.83,-36.7 2084.88,-41.55"/>
</a>
</g>
</g>
<!-- Node8 -->
<g id="Node000008" class="node">
<title>Node8</title>
<g id="a_Node000008"><a xlink:title=" ">
<polygon fill="#e0e0e0" stroke="#999999" points="1646.6,-24.88 1548.1,-24.88 1548.1,-5.63 1646.6,-5.63 1646.6,-24.88"/>
<text text-anchor="middle" x="1597.35" y="-11.38" font-family="Helvetica,sans-Serif" font-size="10.00">mlir/IR/Attributes.h</text>
</a>
</g>
</g>
<!-- Node4&#45;&gt;Node8 -->
<g id="edge7_Node000004_Node000008" class="edge">
<title>Node4&#45;&gt;Node8</title>
<g id="a_edge7_Node000004_Node000008"><a xlink:title=" ">
<path fill="none" stroke="#63b8ff" d="M1989.99,-73.16C1907.1,-61.15 1746.05,-37.8 1658.16,-25.06"/>
<polygon fill="#63b8ff" stroke="#63b8ff" points="1658.68,-21.6 1648.28,-23.63 1657.67,-28.53 1658.68,-21.6"/>
</a>
</g>
</g>
<!-- Node9&#45;&gt;Node3 -->
<g id="edge19_Node000009_Node000003" class="edge">
<title>Node9&#45;&gt;Node3</title>
<g id="a_edge19_Node000009_Node000003"><a xlink:title=" ">
<path fill="none" stroke="#63b8ff" d="M947.4,-344.09C1142.99,-334.5 1757.35,-297.85 1757.35,-215.75 1757.35,-215.75 1757.35,-215.75 1757.35,-147.25 1757.35,-43.01 1394.67,-21.71 1244.39,-17.37"/>
<polygon fill="#63b8ff" stroke="#63b8ff" points="1244.69,-13.87 1234.6,-17.1 1244.5,-20.87 1244.69,-13.87"/>
</a>
</g>
</g>
<!-- Node9&#45;&gt;Node4 -->
<g id="edge50_Node000009_Node000004" class="edge">
<title>Node9&#45;&gt;Node4</title>
<g id="a_edge50_Node000009_Node000004"><a xlink:title=" ">
<path fill="none" stroke="#63b8ff" d="M947.29,-345.72C1122.44,-342.33 1637.81,-329.71 1802.35,-296.5 1947.71,-267.16 2033.08,-291.27 2108.35,-163.5 2115.23,-151.82 2114.37,-145.15 2108.35,-133 2102.46,-121.12 2092.28,-111.29 2081.65,-103.57"/>
<polygon fill="#63b8ff" stroke="#63b8ff" points="2083.81,-100.8 2073.55,-98.17 2079.93,-106.63 2083.81,-100.8"/>
</a>
</g>
</g>
<!-- Node10 -->
<g id="Node000010" class="node">
<title>Node10</title>
<g id="a_Node000010"><a xlink:title=" ">
<polygon fill="#e0e0e0" stroke="#999999" points="625.47,-91.38 577.22,-91.38 577.22,-72.12 625.47,-72.12 625.47,-91.38"/>
<text text-anchor="middle" x="601.35" y="-77.88" font-family="Helvetica,sans-Serif" font-size="10.00">cassert</text>
</a>
</g>
</g>
<!-- Node9&#45;&gt;Node10 -->
<g id="edge10_Node000009_Node000010" class="edge">
<title>Node9&#45;&gt;Node10</title>
<g id="a_edge10_Node000009_Node000010"><a xlink:title=" ">
<path fill="none" stroke="#63b8ff" d="M829.23,-338.96C718.31,-323.23 484.87,-284.45 426.35,-230 393.99,-199.89 377.23,-167.91 404.35,-133 414.31,-120.18 511.72,-99.83 565.73,-89.4"/>
<polygon fill="#63b8ff" stroke="#63b8ff" points="566.21,-92.87 575.38,-87.55 564.9,-85.99 566.21,-92.87"/>
</a>
</g>
</g>
<!-- Node11 -->
<g id="Node000011" class="node">
<title>Node11</title>
<g id="a_Node000011"><a xlink:title=" ">
<polygon fill="#e0e0e0" stroke="#999999" points="458.97,-157.88 413.72,-157.88 413.72,-138.62 458.97,-138.62 458.97,-157.88"/>
<text text-anchor="middle" x="436.35" y="-144.38" font-family="Helvetica,sans-Serif" font-size="10.00">cstdint</text>
</a>
</g>
</g>
<!-- Node9&#45;&gt;Node11 -->
<g id="edge11_Node000009_Node000011" class="edge">
<title>Node9&#45;&gt;Node11</title>
<g id="a_edge11_Node000009_Node000011"><a xlink:title=" ">
<path fill="none" stroke="#63b8ff" d="M829.29,-340.71C716.17,-327.8 475.72,-293.4 426.35,-230 412.82,-212.63 419.47,-186.48 426.75,-168.68"/>
<polygon fill="#63b8ff" stroke="#63b8ff" points="429.86,-170.29 430.79,-159.74 423.48,-167.41 429.86,-170.29"/>
</a>
</g>
</g>
<!-- Node12 -->
<g id="Node000012" class="node">
<title>Node12</title>
<g id="a_Node000012"><a xlink:title=" ">
<polygon fill="#e0e0e0" stroke="#999999" points="189.47,-290.88 147.22,-290.88 147.22,-271.62 189.47,-271.62 189.47,-290.88"/>
<text text-anchor="middle" x="168.35" y="-277.38" font-family="Helvetica,sans-Serif" font-size="10.00">deque</text>
</a>
</g>
</g>
<!-- Node9&#45;&gt;Node12 -->
<g id="edge12_Node000009_Node000012" class="edge">
<title>Node9&#45;&gt;Node12</title>
<g id="a_edge12_Node000009_Node000012"><a xlink:title=" ">
<path fill="none" stroke="#63b8ff" d="M829.44,-344.79C686,-339.65 321.7,-324.2 203.35,-296.5 201.71,-296.12 200.05,-295.67 198.39,-295.17"/>
<polygon fill="#63b8ff" stroke="#63b8ff" points="199.64,-291.9 189.04,-291.86 197.3,-298.5 199.64,-291.9"/>
</a>
</g>
</g>
<!-- Node13 -->
<g id="Node000013" class="node">
<title>Node13</title>
<g id="a_Node000013"><a xlink:title=" ">
<polygon fill="#e0e0e0" stroke="#999999" points="492.72,-91.38 379.97,-91.38 379.97,-72.12 492.72,-72.12 492.72,-91.38"/>
<text text-anchor="middle" x="436.35" y="-77.88" font-family="Helvetica,sans-Serif" font-size="10.00">llvm/ADT/StringMap.h</text>
</a>
</g>
</g>
<!-- Node9&#45;&gt;Node13 -->
<g id="edge13_Node000009_Node000013" class="edge">
<title>Node9&#45;&gt;Node13</title>
<g id="a_edge13_Node000009_Node000013"><a xlink:title=" ">
<path fill="none" stroke="#63b8ff" d="M829.42,-344.15C731.81,-339.07 541.39,-325.67 481.35,-296.5 416.24,-264.87 401.22,-234.54 387.35,-163.5 384.75,-150.2 382.24,-145.56 387.35,-133 392.83,-119.52 403.87,-107.68 414.08,-98.88"/>
<polygon fill="#63b8ff" stroke="#63b8ff" points="416.24,-101.63 421.86,-92.65 411.87,-96.17 416.24,-101.63"/>
</a>
</g>
</g>
<!-- Node14 -->
<g id="Node000014" class="node">
<title>Node14</title>
<g id="a_Node000014"><a xlink:title=" ">
<polygon fill="#e0e0e0" stroke="#999999" points="140.22,-91.38 30.47,-91.38 30.47,-72.12 140.22,-72.12 140.22,-91.38"/>
<text text-anchor="middle" x="85.35" y="-77.88" font-family="Helvetica,sans-Serif" font-size="10.00">llvm/ADT/StringRef.h</text>
</a>
</g>
</g>
<!-- Node9&#45;&gt;Node14 -->
<g id="edge14_Node000009_Node000014" class="edge">
<title>Node9&#45;&gt;Node14</title>
<g id="a_edge14_Node000009_Node000014"><a xlink:title=" ">
<path fill="none" stroke="#63b8ff" d="M829.38,-347.39C654.81,-348.69 149.63,-347.92 98.35,-296.5 46.37,-244.38 67.02,-145.03 79.04,-102.67"/>
<polygon fill="#63b8ff" stroke="#63b8ff" points="82.38,-103.72 81.91,-93.14 75.68,-101.71 82.38,-103.72"/>
</a>
</g>
</g>
<!-- Node15 -->
<g id="Node000015" class="node">
<title>Node15</title>
<g id="a_Node000015"><a xlink:title=" ">
<polygon fill="#e0e0e0" stroke="#999999" points="917.6,-91.38 807.1,-91.38 807.1,-72.12 917.6,-72.12 917.6,-91.38"/>
<text text-anchor="middle" x="862.35" y="-77.88" font-family="Helvetica,sans-Serif" font-size="10.00">llvm/Support/Debug.h</text>
</a>
</g>
</g>
<!-- Node9&#45;&gt;Node15 -->
<g id="edge15_Node000009_Node000015" class="edge">
<title>Node9&#45;&gt;Node15</title>
<g id="a_edge15_Node000009_Node000015"><a xlink:title=" ">
<path fill="none" stroke="#63b8ff" d="M921.61,-332.06C935.97,-323.83 951.3,-312.06 959.35,-296.5 979.16,-258.21 974,-240.05 959.35,-199.5 944.1,-157.27 906.18,-119.54 882.52,-99.02"/>
<polygon fill="#63b8ff" stroke="#63b8ff" points="885,-96.53 875.1,-92.77 880.49,-101.89 885,-96.53"/>
</a>
</g>
</g>
<!-- Node16 -->
<g id="Node000016" class="node">
<title>Node16</title>
<g id="a_Node000016"><a xlink:title=" ">
<polygon fill="#e0e0e0" stroke="#999999" points="362.22,-91.38 270.47,-91.38 270.47,-72.12 362.22,-72.12 362.22,-91.38"/>
<text text-anchor="middle" x="316.35" y="-77.88" font-family="Helvetica,sans-Serif" font-size="10.00">mlir/IR/Builders.h</text>
</a>
</g>
</g>
<!-- Node9&#45;&gt;Node16 -->
<g id="edge16_Node000009_Node000016" class="edge">
<title>Node9&#45;&gt;Node16</title>
<g id="a_edge16_Node000009_Node000016"><a xlink:title=" ">
<path fill="none" stroke="#63b8ff" d="M829.24,-347.31C660.42,-348.3 185.18,-346.57 138.35,-296.5 71.33,-224.83 222.83,-132.28 288.19,-97.14"/>
<polygon fill="#63b8ff" stroke="#63b8ff" points="289.71,-100.29 296.92,-92.52 286.44,-94.1 289.71,-100.29"/>
</a>
</g>
</g>
<!-- Node17 -->
<g id="Node000017" class="node">
<title>Node17</title>
<g id="a_Node000017"><a xlink:title=" ">
<polygon fill="#e0e0e0" stroke="#999999" points="789.47,-91.38 681.22,-91.38 681.22,-72.12 789.47,-72.12 789.47,-91.38"/>
<text text-anchor="middle" x="735.35" y="-77.88" font-family="Helvetica,sans-Serif" font-size="10.00">mlir/IR/Diagnostics.h</text>
</a>
</g>
</g>
<!-- Node9&#45;&gt;Node17 -->
<g id="edge17_Node000009_Node000017" class="edge">
<title>Node9&#45;&gt;Node17</title>
<g id="a_edge17_Node000009_Node000017"><a xlink:title=" ">
<path fill="none" stroke="#63b8ff" d="M888.12,-332.04C887.46,-315.53 885.15,-288.15 877.35,-266 854.45,-200.93 842.61,-185.06 797.35,-133 785.95,-119.88 770.83,-107.55 758.38,-98.39"/>
<polygon fill="#63b8ff" stroke="#63b8ff" points="760.49,-95.6 750.32,-92.64 756.43,-101.3 760.49,-95.6"/>
</a>
</g>
</g>
<!-- Node18 -->
<g id="Node000018" class="node">
<title>Node18</title>
<g id="a_Node000018"><a xlink:title=" ">
<polygon fill="#e0e0e0" stroke="#999999" points="251.97,-91.38 158.72,-91.38 158.72,-72.12 251.97,-72.12 251.97,-91.38"/>
<text text-anchor="middle" x="205.35" y="-77.88" font-family="Helvetica,sans-Serif" font-size="10.00">mlir/IR/Location.h</text>
</a>
</g>
</g>
<!-- Node9&#45;&gt;Node18 -->
<g id="edge18_Node000009_Node000018" class="edge">
<title>Node9&#45;&gt;Node18</title>
<g id="a_edge18_Node000009_Node000018"><a xlink:title=" ">
<path fill="none" stroke="#63b8ff" d="M829.51,-347.42C657.84,-348.77 166.64,-348.04 118.35,-296.5 63.09,-237.51 148.95,-138.75 187.83,-99.54"/>
<polygon fill="#63b8ff" stroke="#63b8ff" points="190.03,-102.28 194.69,-92.77 185.12,-97.3 190.03,-102.28"/>
</a>
</g>
</g>
<!-- Node19 -->
<g id="Node000019" class="node">
<title>Node19</title>
<g id="a_Node000019"><a xlink:title=" ">
<polygon fill="#e0e0e0" stroke="#999999" points="1112.85,-91.38 973.85,-91.38 973.85,-72.12 1112.85,-72.12 1112.85,-91.38"/>
<text text-anchor="middle" x="1043.35" y="-77.88" font-family="Helvetica,sans-Serif" font-size="10.00">mlir/Support/LogicalResult.h</text>
</a>
</g>
</g>
<!-- Node9&#45;&gt;Node19 -->
<g id="edge20_Node000009_Node000019" class="edge">
<title>Node9&#45;&gt;Node19</title>
<g id="a_edge20_Node000009_Node000019"><a xlink:title=" ">
<path fill="none" stroke="#63b8ff" d="M947.22,-338.27C1085.14,-316.99 1421.79,-256.29 1478.35,-163.5 1485.41,-151.93 1487.37,-143.12 1478.35,-133 1455.26,-107.09 1243.77,-92.58 1124.41,-86.38"/>
<polygon fill="#63b8ff" stroke="#63b8ff" points="1124.83,-82.9 1114.67,-85.89 1124.48,-89.89 1124.83,-82.9"/>
</a>
</g>
</g>
<!-- Node20 -->
<g id="Node000020" class="node">
<title>Node20</title>
<g id="a_Node000020"><a xlink:href="_expr_8h.html" target="_top" xlink:title=" ">
<polygon fill="white" stroke="#666666" points="1340.35,-230 1240.35,-230 1240.35,-199.5 1340.35,-199.5 1340.35,-230"/>
<text text-anchor="start" x="1248.35" y="-216.5" font-family="Helvetica,sans-Serif" font-size="10.00">zklang/Dialect/ZHL</text>
<text text-anchor="middle" x="1290.35" y="-205.25" font-family="Helvetica,sans-Serif" font-size="10.00">/Typing/Expr.h</text>
</a>
</g>
</g>
<!-- Node9&#45;&gt;Node20 -->
<g id="edge21_Node000009_Node000020" class="edge">
<title>Node9&#45;&gt;Node20</title>
<g id="a_edge21_Node000009_Node000020"><a xlink:title=" ">
<path fill="none" stroke="#63b8ff" d="M933.29,-332.1C1007.16,-308.03 1154.05,-260.17 1234.49,-233.95"/>
<polygon fill="#63b8ff" stroke="#63b8ff" points="1235.53,-237.3 1243.95,-230.87 1233.36,-230.64 1235.53,-237.3"/>
</a>
</g>
</g>
<!-- Node9&#45;&gt;Node28 -->
<g id="edge43_Node000009_Node000028" class="edge">
<title>Node9&#45;&gt;Node28</title>
<g id="a_edge43_Node000009_Node000028"><a xlink:title=" ">
<path fill="none" stroke="#63b8ff" d="M947.26,-346.18C1133.04,-343.99 1698.61,-334.25 1771.35,-296.5 1794.82,-284.32 1812.52,-259.28 1823.29,-240.3"/>
<polygon fill="#63b8ff" stroke="#63b8ff" points="1826.34,-242.03 1827.98,-231.56 1820.17,-238.72 1826.34,-242.03"/>
</a>
</g>
</g>
<!-- Node31 -->
<g id="Node000031" class="node">
<title>Node31</title>
<g id="a_Node000031"><a xlink:href="_type_binding_8h.html" target="_top" xlink:title=" ">
<polygon fill="white" stroke="#666666" points="868.35,-296.5 756.35,-296.5 756.35,-266 868.35,-266 868.35,-296.5"/>
<text text-anchor="start" x="764.35" y="-283" font-family="Helvetica,sans-Serif" font-size="10.00">zklang/Dialect/ZHL</text>
<text text-anchor="middle" x="812.35" y="-271.75" font-family="Helvetica,sans-Serif" font-size="10.00">/Typing/TypeBinding.h</text>
</a>
</g>
</g>
<!-- Node9&#45;&gt;Node31 -->
<g id="edge51_Node000009_Node000031" class="edge">
<title>Node9&#45;&gt;Node31</title>
<g id="a_edge51_Node000009_Node000031"><a xlink:title=" ">
<path fill="none" stroke="#63b8ff" d="M871.1,-332.11C861.39,-323.87 849.06,-313.4 838.21,-304.19"/>
<polygon fill="#63b8ff" stroke="#63b8ff" points="840.57,-301.61 830.68,-297.81 836.04,-306.95 840.57,-301.61"/>
</a>
</g>
</g>
<!-- Node20&#45;&gt;Node3 -->
<g id="edge31_Node000020_Node000003" class="edge">
<title>Node20&#45;&gt;Node3</title>
<g id="a_edge31_Node000020_Node000003"><a xlink:title=" ">
<path fill="none" stroke="#63b8ff" d="M1340.85,-200.65C1396.16,-186.23 1477.27,-164.91 1478.35,-163.5 1486.61,-152.75 1485.99,-144.2 1478.35,-133 1426.07,-56.37 1315.23,-30.03 1244.45,-20.98"/>
<polygon fill="#63b8ff" stroke="#63b8ff" points="1244.87,-17.51 1234.53,-19.81 1244.04,-24.46 1244.87,-17.51"/>
</a>
</g>
</g>
<!-- Node20&#45;&gt;Node5 -->
<g id="edge25_Node000020_Node000005" class="edge">
<title>Node20&#45;&gt;Node5</title>
<g id="a_edge25_Node000020_Node000005"><a xlink:title=" ">
<path fill="none" stroke="#63b8ff" d="M1340.68,-200.59C1342.25,-200.22 1343.81,-199.85 1345.35,-199.5 1424.43,-181.32 1448.27,-191.73 1524.35,-163.5 1549.27,-154.25 1700.51,-66.44 1761.19,-30.98"/>
<polygon fill="#63b8ff" stroke="#63b8ff" points="1762.92,-34.03 1769.79,-25.96 1759.39,-27.98 1762.92,-34.03"/>
</a>
</g>
</g>
<!-- Node20&#45;&gt;Node8 -->
<g id="edge30_Node000020_Node000008" class="edge">
<title>Node20&#45;&gt;Node8</title>
<g id="a_edge30_Node000020_Node000008"><a xlink:title=" ">
<path fill="none" stroke="#63b8ff" d="M1340.69,-200.67C1342.26,-200.27 1343.82,-199.88 1345.35,-199.5 1411.87,-182.9 1439.22,-202.86 1495.35,-163.5 1537.64,-133.85 1529.54,-108.68 1559.35,-66.5 1567.13,-55.5 1576.22,-43.45 1583.56,-33.9"/>
<polygon fill="#63b8ff" stroke="#63b8ff" points="1586.16,-36.26 1589.52,-26.21 1580.63,-31.97 1586.16,-36.26"/>
</a>
</g>
</g>
<!-- Node20&#45;&gt;Node11 -->
<g id="edge23_Node000020_Node000011" class="edge">
<title>Node20&#45;&gt;Node11</title>
<g id="a_edge23_Node000020_Node000011"><a xlink:title=" ">
<path fill="none" stroke="#63b8ff" d="M1239.99,-213.02C1114.93,-210.66 780.41,-201.05 504.35,-163.5 493.2,-161.98 481.15,-159.68 470.34,-157.37"/>
<polygon fill="#63b8ff" stroke="#63b8ff" points="471.18,-153.97 460.66,-155.21 469.66,-160.8 471.18,-153.97"/>
</a>
</g>
</g>
<!-- Node20&#45;&gt;Node19 -->
<g id="edge32_Node000020_Node000019" class="edge">
<title>Node20&#45;&gt;Node19</title>
<g id="a_edge32_Node000020_Node000019"><a xlink:title=" ">
<path fill="none" stroke="#63b8ff" d="M1239.88,-210.95C1174.25,-206.12 1065.07,-193.68 1040.35,-163.5 1026.56,-146.66 1030.59,-120.56 1035.9,-102.62"/>
<polygon fill="#63b8ff" stroke="#63b8ff" points="1039.22,-103.74 1039.1,-93.15 1032.59,-101.5 1039.22,-103.74"/>
</a>
</g>
</g>
<!-- Node21 -->
<g id="Node000021" class="node">
<title>Node21</title>
<g id="a_Node000021"><a xlink:title=" ">
<polygon fill="#e0e0e0" stroke="#999999" points="1469.47,-157.88 1421.22,-157.88 1421.22,-138.62 1469.47,-138.62 1469.47,-157.88"/>
<text text-anchor="middle" x="1445.35" y="-144.38" font-family="Helvetica,sans-Serif" font-size="10.00">cstddef</text>
</a>
</g>
</g>
<!-- Node20&#45;&gt;Node21 -->
<g id="edge22_Node000020_Node000021" class="edge">
<title>Node20&#45;&gt;Node21</title>
<g id="a_edge22_Node000020_Node000021"><a xlink:title=" ">
<path fill="none" stroke="#63b8ff" d="M1326.45,-199.07C1350.77,-189.13 1383.54,-175.65 1412.35,-163.5 1412.96,-163.24 1413.58,-162.98 1414.2,-162.72"/>
<polygon fill="#63b8ff" stroke="#63b8ff" points="1415.21,-166.09 1423.03,-158.94 1412.46,-159.65 1415.21,-166.09"/>
</a>
</g>
</g>
<!-- Node22 -->
<g id="Node000022" class="node">
<title>Node22</title>
<g id="a_Node000022"><a xlink:title=" ">
<polygon fill="#e0e0e0" stroke="#999999" points="1157.1,-157.88 1049.6,-157.88 1049.6,-138.62 1157.1,-138.62 1157.1,-157.88"/>
<text text-anchor="middle" x="1103.35" y="-144.38" font-family="Helvetica,sans-Serif" font-size="10.00">llvm/ADT/ArrayRef.h</text>
</a>
</g>
</g>
<!-- Node20&#45;&gt;Node22 -->
<g id="edge24_Node000020_Node000022" class="edge">
<title>Node20&#45;&gt;Node22</title>
<g id="a_edge24_Node000020_Node000022"><a xlink:title=" ">
<path fill="none" stroke="#63b8ff" d="M1247.92,-199.11C1215.57,-187.96 1171.47,-172.75 1140.51,-162.07"/>
<polygon fill="#63b8ff" stroke="#63b8ff" points="1141.77,-158.8 1131.18,-158.85 1139.49,-165.42 1141.77,-158.8"/>
</a>
</g>
</g>
<!-- Node23 -->
<g id="Node000023" class="node">
<title>Node23</title>
<g id="a_Node000023"><a xlink:title=" ">
<polygon fill="#e0e0e0" stroke="#999999" points="1283.85,-157.88 1174.85,-157.88 1174.85,-138.62 1283.85,-138.62 1283.85,-157.88"/>
<text text-anchor="middle" x="1229.35" y="-144.38" font-family="Helvetica,sans-Serif" font-size="10.00">llvm/ADT/StringSet.h</text>
</a>
</g>
</g>
<!-- Node20&#45;&gt;Node23 -->
<g id="edge26_Node000020_Node000023" class="edge">
<title>Node20&#45;&gt;Node23</title>
<g id="a_edge26_Node000020_Node000023"><a xlink:title=" ">
<path fill="none" stroke="#63b8ff" d="M1276.51,-199.11C1267.26,-189.34 1255.08,-176.45 1245.41,-166.23"/>
<polygon fill="#63b8ff" stroke="#63b8ff" points="1248.15,-164.03 1238.73,-159.17 1243.06,-168.84 1248.15,-164.03"/>
</a>
</g>
</g>
<!-- Node24 -->
<g id="Node000024" class="node">
<title>Node24</title>
<g id="a_Node000024"><a xlink:title=" ">
<polygon fill="#e0e0e0" stroke="#999999" points="1902.97,-91.38 1785.72,-91.38 1785.72,-72.12 1902.97,-72.12 1902.97,-91.38"/>
<text text-anchor="middle" x="1844.35" y="-77.88" font-family="Helvetica,sans-Serif" font-size="10.00">llvm/ADT/simple_ilist.h</text>
</a>
</g>
</g>
<!-- Node20&#45;&gt;Node24 -->
<g id="edge27_Node000020_Node000024" class="edge">
<title>Node20&#45;&gt;Node24</title>
<g id="a_edge27_Node000020_Node000024"><a xlink:title=" ">
<path fill="none" stroke="#63b8ff" d="M1340.64,-208.24C1400.23,-201.02 1502.16,-186.52 1587.35,-163.5 1624.49,-153.47 1631.82,-145.07 1668.35,-133 1712.05,-118.56 1762.63,-104.38 1798.32,-94.78"/>
<polygon fill="#63b8ff" stroke="#63b8ff" points="1799.14,-98.18 1807.9,-92.22 1797.34,-91.42 1799.14,-98.18"/>
</a>
</g>
</g>
<!-- Node25 -->
<g id="Node000025" class="node">
<title>Node25</title>
<g id="a_Node000025"><a xlink:title=" ">
<polygon fill="#e0e0e0" stroke="#999999" points="1728.97,-157.88 1677.72,-157.88 1677.72,-138.62 1728.97,-138.62 1728.97,-157.88"/>
<text text-anchor="middle" x="1703.35" y="-144.38" font-family="Helvetica,sans-Serif" font-size="10.00">memory</text>
</a>
</g>
</g>
<!-- Node20&#45;&gt;Node25 -->
<g id="edge28_Node000020_Node000025" class="edge">
<title>Node20&#45;&gt;Node25</title>
<g id="a_edge28_Node000020_Node000025"><a xlink:title=" ">
<path fill="none" stroke="#63b8ff" d="M1340.6,-208.29C1427.71,-198.62 1603.18,-178.1 1663.35,-163.5 1665.36,-163.01 1667.41,-162.46 1669.46,-161.87"/>
<polygon fill="#63b8ff" stroke="#63b8ff" points="1670.44,-165.23 1678.89,-158.83 1668.3,-158.56 1670.44,-165.23"/>
</a>
</g>
</g>
<!-- Node26 -->
<g id="Node000026" class="node">
<title>Node26</title>
<g id="a_Node000026"><a xlink:title=" ">
<polygon fill="#e0e0e0" stroke="#999999" points="1403.1,-157.88 1301.6,-157.88 1301.6,-138.62 1403.1,-138.62 1403.1,-157.88"/>
<text text-anchor="middle" x="1352.35" y="-144.38" font-family="Helvetica,sans-Serif" font-size="10.00">mlir/IR/AffineExpr.h</text>
</a>
</g>
</g>
<!-- Node20&#45;&gt;Node26 -->
<g id="edge29_Node000020_Node000026" class="edge">
<title>Node20&#45;&gt;Node26</title>
<g id="a_edge29_Node000020_Node000026"><a xlink:title=" ">
<path fill="none" stroke="#63b8ff" d="M1304.42,-199.11C1313.81,-189.34 1326.2,-176.45 1336.03,-166.23"/>
<polygon fill="#63b8ff" stroke="#63b8ff" points="1338.41,-168.8 1342.82,-159.16 1333.37,-163.95 1338.41,-168.8"/>
</a>
</g>
</g>
<!-- Node27 -->
<g id="Node000027" class="node">
<title>Node27</title>
<g id="a_Node000027"><a xlink:href="_params_8h.html" target="_top" xlink:title=" ">
<polygon fill="white" stroke="#666666" points="693.35,-163.5 593.35,-163.5 593.35,-133 693.35,-133 693.35,-163.5"/>
<text text-anchor="start" x="601.35" y="-150" font-family="Helvetica,sans-Serif" font-size="10.00">zklang/Dialect/ZHL</text>
<text text-anchor="middle" x="643.35" y="-138.75" font-family="Helvetica,sans-Serif" font-size="10.00">/Typing/Params.h</text>
</a>
</g>
</g>
<!-- Node20&#45;&gt;Node27 -->
<g id="edge33_Node000020_Node000027" class="edge">
<title>Node20&#45;&gt;Node27</title>
<g id="a_edge33_Node000020_Node000027"><a xlink:title=" ">
<path fill="none" stroke="#63b8ff" d="M1239.85,-208.72C1122.62,-197.03 832.32,-168.09 704.94,-155.39"/>
<polygon fill="#63b8ff" stroke="#63b8ff" points="705.3,-151.91 695,-154.4 704.6,-158.87 705.3,-151.91"/>
</a>
</g>
</g>
<!-- Node27&#45;&gt;Node3 -->
<g id="edge41_Node000027_Node000003" class="edge">
<title>Node27&#45;&gt;Node3</title>
<g id="a_edge41_Node000027_Node000003"><a xlink:title=" ">
<path fill="none" stroke="#63b8ff" d="M644.08,-132.61C645.86,-114.01 651.91,-82.44 672.35,-66.5 706.69,-39.72 987.8,-24.44 1116.48,-18.79"/>
<polygon fill="#63b8ff" stroke="#63b8ff" points="1116.35,-22.3 1126.19,-18.37 1116.04,-15.3 1116.35,-22.3"/>
</a>
</g>
</g>
<!-- Node27&#45;&gt;Node10 -->
<g id="edge34_Node000027_Node000010" class="edge">
<title>Node27&#45;&gt;Node10</title>
<g id="a_edge34_Node000027_Node000010"><a xlink:title=" ">
<path fill="none" stroke="#63b8ff" d="M633.82,-132.61C627.71,-123.23 619.74,-110.99 613.22,-100.98"/>
<polygon fill="#63b8ff" stroke="#63b8ff" points="616.31,-99.31 607.92,-92.84 610.44,-103.13 616.31,-99.31"/>
</a>
</g>
</g>
<!-- Node27&#45;&gt;Node13 -->
<g id="edge35_Node000027_Node000013" class="edge">
<title>Node27&#45;&gt;Node13</title>
<g id="a_edge35_Node000027_Node000013"><a xlink:title=" ">
<path fill="none" stroke="#63b8ff" d="M596.12,-132.53C559.83,-121.23 510.29,-105.79 476.04,-95.12"/>
<polygon fill="#63b8ff" stroke="#63b8ff" points="477.53,-91.91 466.94,-92.28 475.44,-98.6 477.53,-91.91"/>
</a>
</g>
</g>
<!-- Node27&#45;&gt;Node14 -->
<g id="edge36_Node000027_Node000014" class="edge">
<title>Node27&#45;&gt;Node14</title>
<g id="a_edge36_Node000027_Node000014"><a xlink:title=" ">
<path fill="none" stroke="#63b8ff" d="M592.9,-137.67C582.81,-135.96 572.26,-134.3 562.35,-133 379.67,-109.02 331.45,-125.08 149.35,-97 144.14,-96.2 138.72,-95.22 133.34,-94.15"/>
<polygon fill="#63b8ff" stroke="#63b8ff" points="134.4,-90.8 123.9,-92.18 132.98,-97.65 134.4,-90.8"/>
</a>
</g>
</g>
<!-- Node27&#45;&gt;Node15 -->
<g id="edge37_Node000027_Node000015" class="edge">
<title>Node27&#45;&gt;Node15</title>
<g id="a_edge37_Node000027_Node000015"><a xlink:title=" ">
<path fill="none" stroke="#63b8ff" d="M693.32,-132.53C731.87,-121.18 784.58,-105.66 820.83,-94.98"/>
<polygon fill="#63b8ff" stroke="#63b8ff" points="821.46,-98.44 830.07,-92.26 819.48,-91.73 821.46,-98.44"/>
</a>
</g>
</g>
<!-- Node27&#45;&gt;Node16 -->
<g id="edge38_Node000027_Node000016" class="edge">
<title>Node27&#45;&gt;Node16</title>
<g id="a_edge38_Node000027_Node000016"><a xlink:title=" ">
<path fill="none" stroke="#63b8ff" d="M592.92,-138.37C526.34,-126.58 412.72,-106.17 371.35,-97 367.99,-96.26 364.53,-95.45 361.05,-94.61"/>
<polygon fill="#63b8ff" stroke="#63b8ff" points="362.02,-91.25 351.47,-92.24 360.33,-98.04 362.02,-91.25"/>
</a>
</g>
</g>
<!-- Node27&#45;&gt;Node17 -->
<g id="edge39_Node000027_Node000017" class="edge">
<title>Node27&#45;&gt;Node17</title>
<g id="a_edge39_Node000027_Node000017"><a xlink:title=" ">
<path fill="none" stroke="#63b8ff" d="M664.23,-132.61C678.93,-122.31 698.56,-108.54 713.48,-98.08"/>
<polygon fill="#63b8ff" stroke="#63b8ff" points="715.08,-101.24 721.26,-92.63 711.06,-95.5 715.08,-101.24"/>
</a>
</g>
</g>
<!-- Node27&#45;&gt;Node18 -->
<g id="edge40_Node000027_Node000018" class="edge">
<title>Node27&#45;&gt;Node18</title>
<g id="a_edge40_Node000027_Node000018"><a xlink:title=" ">
<path fill="none" stroke="#63b8ff" d="M592.87,-137.93C582.77,-136.19 572.24,-134.46 562.35,-133 429.06,-113.32 393.8,-121.66 261.35,-97 257.32,-96.25 253.14,-95.37 248.97,-94.43"/>
<polygon fill="#63b8ff" stroke="#63b8ff" points="250.07,-91.1 239.53,-92.18 248.45,-97.91 250.07,-91.1"/>
</a>
</g>
</g>
<!-- Node27&#45;&gt;Node19 -->
<g id="edge42_Node000027_Node000019" class="edge">
<title>Node27&#45;&gt;Node19</title>
<g id="a_edge42_Node000027_Node000019"><a xlink:title=" ">
<path fill="none" stroke="#63b8ff" d="M693.61,-139.15C765.05,-127.63 896.14,-106.49 975.95,-93.62"/>
<polygon fill="#63b8ff" stroke="#63b8ff" points="976.05,-97.15 985.37,-92.1 974.94,-90.24 976.05,-97.15"/>
</a>
</g>
</g>
<!-- Node28&#45;&gt;Node24 -->
<g id="edge44_Node000028_Node000024" class="edge">
<title>Node28&#45;&gt;Node24</title>
<g id="a_edge44_Node000028_Node000024"><a xlink:title=" ">
<path fill="none" stroke="#63b8ff" d="M1826.87,-199.13C1818.56,-182.93 1808,-156.04 1814.35,-133 1817.53,-121.47 1824.13,-109.92 1830.33,-100.81"/>
<polygon fill="#63b8ff" stroke="#63b8ff" points="1833.02,-103.05 1836.07,-92.91 1827.36,-98.94 1833.02,-103.05"/>
</a>
</g>
</g>
<!-- Node28&#45;&gt;Node25 -->
<g id="edge46_Node000028_Node000025" class="edge">
<title>Node28&#45;&gt;Node25</title>
<g id="a_edge46_Node000028_Node000025"><a xlink:title=" ">
<path fill="none" stroke="#63b8ff" d="M1805.4,-199.11C1783.4,-188.37 1753.7,-173.86 1732.02,-163.26"/>
<polygon fill="#63b8ff" stroke="#63b8ff" points="1733.67,-160.17 1723.15,-158.92 1730.6,-166.46 1733.67,-160.17"/>
</a>
</g>
</g>
<!-- Node29 -->
<g id="Node000029" class="node">
<title>Node29</title>
<g id="a_Node000029"><a xlink:title=" ">
<polygon fill="#e0e0e0" stroke="#999999" points="2083.47,-157.88 1945.22,-157.88 1945.22,-138.62 2083.47,-138.62 2083.47,-157.88"/>
<text text-anchor="middle" x="2014.35" y="-144.38" font-family="Helvetica,sans-Serif" font-size="10.00">llvm/Support/raw_ostream.h</text>
</a>
</g>
</g>
<!-- Node28&#45;&gt;Node29 -->
<g id="edge45_Node000028_Node000029" class="edge">
<title>Node28&#45;&gt;Node29</title>
<g id="a_edge45_Node000028_Node000029"><a xlink:title=" ">
<path fill="none" stroke="#63b8ff" d="M1875.97,-199.11C1906.79,-188.01 1948.77,-172.88 1978.39,-162.21"/>
<polygon fill="#63b8ff" stroke="#63b8ff" points="1979.44,-165.55 1987.66,-158.87 1977.07,-158.96 1979.44,-165.55"/>
</a>
</g>
</g>
<!-- Node30 -->
<g id="Node000030" class="node">
<title>Node30</title>
<g id="a_Node000030"><a xlink:href="_frame_info_8h.html" target="_top" xlink:title=" ">
<polygon fill="white" stroke="#666666" points="1926.85,-163.5 1823.85,-163.5 1823.85,-133 1926.85,-133 1926.85,-163.5"/>
<text text-anchor="start" x="1831.85" y="-150" font-family="Helvetica,sans-Serif" font-size="10.00">zklang/Dialect/ZHL</text>
<text text-anchor="middle" x="1875.35" y="-138.75" font-family="Helvetica,sans-Serif" font-size="10.00">/Typing/FrameInfo.h</text>
</a>
</g>
</g>
<!-- Node28&#45;&gt;Node30 -->
<g id="edge47_Node000028_Node000030" class="edge">
<title>Node28&#45;&gt;Node30</title>
<g id="a_edge47_Node000028_Node000030"><a xlink:title=" ">
<path fill="none" stroke="#63b8ff" d="M1844.43,-199.11C1849.13,-191.53 1855,-182.06 1860.36,-173.43"/>
<polygon fill="#63b8ff" stroke="#63b8ff" points="1863.22,-175.46 1865.51,-165.11 1857.27,-171.77 1863.22,-175.46"/>
</a>
</g>
</g>
<!-- Node30&#45;&gt;Node4 -->
<g id="edge49_Node000030_Node000004" class="edge">
<title>Node30&#45;&gt;Node4</title>
<g id="a_edge49_Node000030_Node000004"><a xlink:title=" ">
<path fill="none" stroke="#63b8ff" d="M1913.24,-132.61C1937.07,-123.41 1968.05,-111.45 1993.69,-101.54"/>
<polygon fill="#63b8ff" stroke="#63b8ff" points="1994.84,-104.85 2002.9,-97.98 1992.31,-98.32 1994.84,-104.85"/>
</a>
</g>
</g>
<!-- Node30&#45;&gt;Node24 -->
<g id="edge48_Node000030_Node000024" class="edge">
<title>Node30&#45;&gt;Node24</title>
<g id="a_edge48_Node000030_Node000024"><a xlink:title=" ">
<path fill="none" stroke="#63b8ff" d="M1868.32,-132.61C1863.95,-123.53 1858.29,-111.76 1853.57,-101.93"/>
<polygon fill="#63b8ff" stroke="#63b8ff" points="1856.73,-100.43 1849.25,-92.94 1850.42,-103.47 1856.73,-100.43"/>
</a>
</g>
</g>
<!-- Node31&#45;&gt;Node3 -->
<g id="edge62_Node000031_Node000003" class="edge">
<title>Node31&#45;&gt;Node3</title>
<g id="a_edge62_Node000031_Node000003"><a xlink:title=" ">
<path fill="none" stroke="#63b8ff" d="M828.98,-265.76C839.48,-256.18 852.97,-243.02 863.35,-230 916.6,-163.21 894.98,-116.34 964.35,-66.5 1008.74,-34.61 1070.33,-22.63 1116.38,-18.29"/>
<polygon fill="#63b8ff" stroke="#63b8ff" points="1116.55,-21.79 1126.23,-17.47 1115.97,-14.82 1116.55,-21.79"/>
</a>
</g>
</g>
<!-- Node31&#45;&gt;Node4 -->
<g id="edge66_Node000031_Node000004" class="edge">
<title>Node31&#45;&gt;Node4</title>
<g id="a_edge66_Node000031_Node000004"><a xlink:title=" ">
<path fill="none" stroke="#63b8ff" d="M868.72,-279.69C1061.68,-277.46 1694.73,-267.4 1894.35,-230 1985.59,-212.9 2038.16,-238.87 2092.35,-163.5 2106.08,-144.4 2088.98,-121.51 2071.15,-104.99"/>
<polygon fill="#63b8ff" stroke="#63b8ff" points="2073.45,-102.35 2063.61,-98.43 2068.86,-107.63 2073.45,-102.35"/>
</a>
</g>
</g>
<!-- Node31&#45;&gt;Node10 -->
<g id="edge52_Node000031_Node000010" class="edge">
<title>Node31&#45;&gt;Node10</title>
<g id="a_edge52_Node000031_Node000010"><a xlink:title=" ">
<path fill="none" stroke="#63b8ff" d="M807.42,-265.63C801.29,-248.71 789.74,-220.49 774.35,-199.5 748.6,-164.37 738.21,-157.73 702.35,-133 681.03,-118.3 654.79,-105.38 634.39,-96.32"/>
<polygon fill="#63b8ff" stroke="#63b8ff" points="635.99,-93.19 625.42,-92.43 633.2,-99.62 635.99,-93.19"/>
</a>
</g>
</g>
<!-- Node31&#45;&gt;Node11 -->
<g id="edge53_Node000031_Node000011" class="edge">
<title>Node31&#45;&gt;Node11</title>
<g id="a_edge53_Node000031_Node000011"><a xlink:title=" ">
<path fill="none" stroke="#63b8ff" d="M756,-280.89C663.12,-280.64 484,-274.26 442.35,-230 427.32,-214.03 428.38,-187.54 431.5,-169.28"/>
<polygon fill="#63b8ff" stroke="#63b8ff" points="434.89,-170.17 433.51,-159.66 428.04,-168.74 434.89,-170.17"/>
</a>
</g>
</g>
<!-- Node31&#45;&gt;Node13 -->
<g id="edge55_Node000031_Node000013" class="edge">
<title>Node31&#45;&gt;Node13</title>
<g id="a_edge55_Node000031_Node000013"><a xlink:title=" ">
<path fill="none" stroke="#63b8ff" d="M755.86,-280.07C661.03,-278.61 475.39,-270.51 426.35,-230 392.27,-201.85 391.98,-175.44 404.35,-133 407.76,-121.31 414.79,-109.75 421.4,-100.67"/>
<polygon fill="#63b8ff" stroke="#63b8ff" points="424.16,-102.83 427.54,-92.79 418.64,-98.53 424.16,-102.83"/>
</a>
</g>
</g>
<!-- Node31&#45;&gt;Node14 -->
<g id="edge56_Node000031_Node000014" class="edge">
<title>Node31&#45;&gt;Node14</title>
<g id="a_edge56_Node000031_Node000014"><a xlink:title=" ">
<path fill="none" stroke="#63b8ff" d="M756.12,-277.93C643.25,-272.74 393.02,-258.34 312.35,-230 226.51,-199.85 140.61,-131.03 103.89,-99.31"/>
<polygon fill="#63b8ff" stroke="#63b8ff" points="106.23,-96.71 96.4,-92.75 101.61,-101.97 106.23,-96.71"/>
</a>
</g>
</g>
<!-- Node31&#45;&gt;Node15 -->
<g id="edge57_Node000031_Node000015" class="edge">
<title>Node31&#45;&gt;Node15</title>
<g id="a_edge57_Node000031_Node000015"><a xlink:title=" ">
<path fill="none" stroke="#63b8ff" d="M824.44,-265.85C831.76,-256.3 840.58,-243.15 845.35,-230 861.03,-186.78 863.1,-132.18 862.93,-103.12"/>
<polygon fill="#63b8ff" stroke="#63b8ff" points="866.43,-103.15 862.75,-93.22 859.43,-103.28 866.43,-103.15"/>
</a>
</g>
</g>
<!-- Node31&#45;&gt;Node16 -->
<g id="edge59_Node000031_Node000016" class="edge">
<title>Node31&#45;&gt;Node16</title>
<g id="a_edge59_Node000031_Node000016"><a xlink:title=" ">
<path fill="none" stroke="#63b8ff" d="M756,-279.67C656.46,-277.63 454.63,-268.7 397.35,-230 352.12,-199.44 329.74,-134.9 320.96,-102.37"/>
<polygon fill="#63b8ff" stroke="#63b8ff" points="324.46,-101.91 318.62,-93.07 317.67,-103.63 324.46,-101.91"/>
</a>
</g>
</g>
<!-- Node31&#45;&gt;Node17 -->
<g id="edge60_Node000031_Node000017" class="edge">
<title>Node31&#45;&gt;Node17</title>
<g id="a_edge60_Node000031_Node000017"><a xlink:title=" ">
<path fill="none" stroke="#63b8ff" d="M813.41,-265.61C814.15,-249.16 814.03,-221.84 807.35,-199.5 795.76,-160.72 767.82,-121.97 750.35,-100.3"/>
<polygon fill="#63b8ff" stroke="#63b8ff" points="753.2,-98.25 744.12,-92.78 747.8,-102.72 753.2,-98.25"/>
</a>
</g>
</g>
<!-- Node31&#45;&gt;Node18 -->
<g id="edge61_Node000031_Node000018" class="edge">
<title>Node31&#45;&gt;Node18</title>
<g id="a_edge61_Node000031_Node000018"><a xlink:title=" ">
<path fill="none" stroke="#63b8ff" d="M756.25,-278.34C651.83,-274.09 432.04,-261.57 363.35,-230 298.48,-200.19 242.71,-133.27 218.38,-100.93"/>
<polygon fill="#63b8ff" stroke="#63b8ff" points="221.26,-98.94 212.51,-92.96 215.62,-103.09 221.26,-98.94"/>
</a>
</g>
</g>
<!-- Node31&#45;&gt;Node19 -->
<g id="edge63_Node000031_Node000019" class="edge">
<title>Node31&#45;&gt;Node19</title>
<g id="a_edge63_Node000031_Node000019"><a xlink:title=" ">
<path fill="none" stroke="#63b8ff" d="M855.43,-265.57C876.55,-257.13 901.61,-245.18 921.35,-230 970.34,-192.33 1012.59,-131.59 1032,-101.25"/>
<polygon fill="#63b8ff" stroke="#63b8ff" points="1034.93,-103.15 1037.28,-92.82 1029,-99.44 1034.93,-103.15"/>
</a>
</g>
</g>
<!-- Node31&#45;&gt;Node20 -->
<g id="edge64_Node000031_Node000020" class="edge">
<title>Node31&#45;&gt;Node20</title>
<g id="a_edge64_Node000031_Node000020"><a xlink:title=" ">
<path fill="none" stroke="#63b8ff" d="M868.59,-272.66C958.85,-260.48 1135.38,-236.66 1228.86,-224.05"/>
<polygon fill="#63b8ff" stroke="#63b8ff" points="1229.17,-227.54 1238.61,-222.73 1228.24,-220.6 1229.17,-227.54"/>
</a>
</g>
</g>
<!-- Node31&#45;&gt;Node25 -->
<g id="edge58_Node000031_Node000025" class="edge">
<title>Node31&#45;&gt;Node25</title>
<g id="a_edge58_Node000031_Node000025"><a xlink:title=" ">
<path fill="none" stroke="#63b8ff" d="M868.7,-277.4C966.84,-271.91 1175.29,-257.84 1349.35,-230 1480.78,-208.98 1511.6,-193.18 1641.35,-163.5 1649.4,-161.66 1658.04,-159.68 1666.23,-157.79"/>
<polygon fill="#63b8ff" stroke="#63b8ff" points="1666.97,-161.21 1675.93,-155.56 1665.4,-154.39 1666.97,-161.21"/>
</a>
</g>
</g>
<!-- Node31&#45;&gt;Node27 -->
<g id="edge67_Node000031_Node000027" class="edge">
<title>Node31&#45;&gt;Node27</title>
<g id="a_edge67_Node000031_Node000027"><a xlink:title=" ">
<path fill="none" stroke="#63b8ff" d="M755.85,-274.75C724.12,-268.73 686.22,-256.18 662.35,-230 648.85,-215.2 644.41,-192.65 643.17,-175.13"/>
<polygon fill="#63b8ff" stroke="#63b8ff" points="646.67,-175.09 642.81,-165.23 639.68,-175.35 646.67,-175.09"/>
</a>
</g>
</g>
<!-- Node31&#45;&gt;Node28 -->
<g id="edge65_Node000031_Node000028" class="edge">
<title>Node31&#45;&gt;Node28</title>
<g id="a_edge65_Node000031_Node000028"><a xlink:title=" ">
<path fill="none" stroke="#63b8ff" d="M868.81,-276.69C1045.86,-265.53 1589.32,-231.26 1773.54,-219.65"/>
<polygon fill="#63b8ff" stroke="#63b8ff" points="1773.62,-223.15 1783.38,-219.03 1773.18,-216.16 1773.62,-223.15"/>
</a>
</g>
</g>
<!-- Node32 -->
<g id="Node000032" class="node">
<title>Node32</title>
<g id="a_Node000032"><a xlink:title=" ">
<polygon fill="#e0e0e0" stroke="#999999" points="765.35,-224.38 671.35,-224.38 671.35,-205.12 765.35,-205.12 765.35,-224.38"/>
<text text-anchor="middle" x="718.35" y="-210.88" font-family="Helvetica,sans-Serif" font-size="10.00">llvm/ADT/Bitset.h</text>
</a>
</g>
</g>
<!-- Node31&#45;&gt;Node32 -->
<g id="edge54_Node000031_Node000032" class="edge">
<title>Node31&#45;&gt;Node32</title>
<g id="a_edge54_Node000031_Node000032"><a xlink:title=" ">
<path fill="none" stroke="#63b8ff" d="M791.02,-265.61C776,-255.31 755.94,-241.54 740.7,-231.08"/>
<polygon fill="#63b8ff" stroke="#63b8ff" points="742.95,-228.39 732.73,-225.62 738.99,-234.16 742.95,-228.39"/>
</a>
</g>
</g>
<!-- Node33 -->
<g id="Node000033" class="node">
<title>Node33</title>
<g id="a_Node000033"><a xlink:href="_copyable_pointer_8h.html" target="_top" xlink:title=" ">
<polygon fill="white" stroke="#666666" points="615.22,-224.38 451.47,-224.38 451.47,-205.12 615.22,-205.12 615.22,-224.38"/>
<text text-anchor="middle" x="533.35" y="-210.88" font-family="Helvetica,sans-Serif" font-size="10.00">zklang/Support/CopyablePointer.h</text>
</a>
</g>
</g>
<!-- Node31&#45;&gt;Node33 -->
<g id="edge68_Node000031_Node000033" class="edge">
<title>Node31&#45;&gt;Node33</title>
<g id="a_edge68_Node000031_Node000033"><a xlink:title=" ">
<path fill="none" stroke="#63b8ff" d="M755.89,-267.2C705.48,-255.54 632.31,-238.63 583.81,-227.42"/>
<polygon fill="#63b8ff" stroke="#63b8ff" points="584.66,-224.02 574.12,-225.18 583.08,-230.84 584.66,-224.02"/>
</a>
</g>
</g>
<!-- Node34 -->
<g id="Node000034" class="node">
<title>Node34</title>
<g id="a_Node000034"><a xlink:title=" ">
<polygon fill="#e0e0e0" stroke="#999999" points="552.97,-157.88 513.72,-157.88 513.72,-138.62 552.97,-138.62 552.97,-157.88"/>
<text text-anchor="middle" x="533.35" y="-144.38" font-family="Helvetica,sans-Serif" font-size="10.00">utility</text>
</a>
</g>
</g>
<!-- Node33&#45;&gt;Node34 -->
<g id="edge69_Node000033_Node000034" class="edge">
<title>Node33&#45;&gt;Node34</title>
<g id="a_edge69_Node000033_Node000034"><a xlink:title=" ">
<path fill="none" stroke="#63b8ff" d="M533.35,-204.78C533.35,-195.73 533.35,-181.45 533.35,-169.63"/>
<polygon fill="#63b8ff" stroke="#63b8ff" points="536.85,-169.66 533.35,-159.66 529.85,-169.66 536.85,-169.66"/>
</a>
</g>
</g>
</g>
</svg>
