<?xml version="1.0" encoding="UTF-8" standalone="no"?>
<!DOCTYPE svg PUBLIC "-//W3C//DTD SVG 1.1//EN"
 "http://www.w3.org/Graphics/SVG/1.1/DTD/svg11.dtd">
<!-- Generated by graphviz version 12.2.1 (20241206.2353)
 -->
<!-- Title: include/zklang/Dialect/ZHL/Typing/Interpreter.h Pages: 1 -->
<svg width="2184pt" height="438pt"
 viewBox="0.00 0.00 2184.08 437.50" xmlns="http://www.w3.org/2000/svg" xmlns:xlink="http://www.w3.org/1999/xlink">
<g id="graph0" class="graph" transform="scale(1 1) rotate(0) translate(4 433.5)">
<title>include/zklang/Dialect/ZHL/Typing/Interpreter.h</title>
<!-- Node1 -->
<g id="Node000001" class="node">
<title>Node1</title>
<g id="a_Node000001"><a xlink:title=" ">
<polygon fill="#999999" stroke="#666666" points="781.83,-429.5 657.83,-429.5 657.83,-399 781.83,-399 781.83,-429.5"/>
<text text-anchor="start" x="665.83" y="-416" font-family="Helvetica,sans-Serif" font-size="10.00">include/zklang/Dialect</text>
<text text-anchor="middle" x="719.83" y="-404.75" font-family="Helvetica,sans-Serif" font-size="10.00">/ZHL/Typing/Interpreter.h</text>
</a>
</g>
</g>
<!-- Node2 -->
<g id="Node000002" class="node">
<title>Node2</title>
<g id="a_Node000002"><a xlink:title=" ">
<polygon fill="#e0e0e0" stroke="#999999" points="957.33,-91.38 818.33,-91.38 818.33,-72.12 957.33,-72.12 957.33,-91.38"/>
<text text-anchor="middle" x="887.83" y="-77.88" font-family="Helvetica,sans-Serif" font-size="10.00">mlir/Support/LogicalResult.h</text>
</a>
</g>
</g>
<!-- Node1&#45;&gt;Node2 -->
<g id="edge1_Node000001_Node000002" class="edge">
<title>Node1&#45;&gt;Node2</title>
<g id="a_edge1_Node000001_Node000002"><a xlink:title=" ">
<path fill="none" stroke="#63b8ff" d="M657.74,-404.71C550.95,-388.27 343.83,-347.92 343.83,-282.25 343.83,-282.25 343.83,-282.25 343.83,-213.75 343.83,-172.22 355.75,-155.22 390.83,-133 469.78,-82.99 717.21,-109.41 809.83,-97 816.73,-96.08 823.94,-94.96 831.07,-93.77"/>
<polygon fill="#63b8ff" stroke="#63b8ff" points="831.42,-97.26 840.67,-92.1 830.22,-90.36 831.42,-97.26"/>
</a>
</g>
</g>
<!-- Node3 -->
<g id="Node000003" class="node">
<title>Node3</title>
<g id="a_Node000003"><a xlink:title=" ">
<polygon fill="#e0e0e0" stroke="#999999" points="768.71,-363 670.96,-363 670.96,-332.5 768.71,-332.5 768.71,-363"/>
<text text-anchor="start" x="678.96" y="-349.5" font-family="Helvetica,sans-Serif" font-size="10.00">zirgen/Dialect/ZHL</text>
<text text-anchor="middle" x="719.83" y="-338.25" font-family="Helvetica,sans-Serif" font-size="10.00">/IR/ZHL.h</text>
</a>
</g>
</g>
<!-- Node1&#45;&gt;Node3 -->
<g id="edge2_Node000001_Node000003" class="edge">
<title>Node1&#45;&gt;Node3</title>
<g id="a_edge2_Node000001_Node000003"><a xlink:title=" ">
<path fill="none" stroke="#63b8ff" d="M719.83,-398.61C719.83,-391.52 719.83,-382.79 719.83,-374.63"/>
<polygon fill="#63b8ff" stroke="#63b8ff" points="723.33,-374.84 719.83,-364.84 716.33,-374.84 723.33,-374.84"/>
</a>
</g>
</g>
<!-- Node4 -->
<g id="Node000004" class="node">
<title>Node4</title>
<g id="a_Node000004"><a xlink:href="_type_bindings_8h.html" target="_top" xlink:title=" ">
<polygon fill="white" stroke="#666666" points="1316.46,-363 1199.21,-363 1199.21,-332.5 1316.46,-332.5 1316.46,-363"/>
<text text-anchor="start" x="1207.21" y="-349.5" font-family="Helvetica,sans-Serif" font-size="10.00">zklang/Dialect/ZHL</text>
<text text-anchor="middle" x="1257.83" y="-338.25" font-family="Helvetica,sans-Serif" font-size="10.00">/Typing/TypeBindings.h</text>
</a>
</g>
</g>
<!-- Node1&#45;&gt;Node4 -->
<g id="edge3_Node000001_Node000004" class="edge">
<title>Node1&#45;&gt;Node4</title>
<g id="a_edge3_Node000001_Node000004"><a xlink:title=" ">
<path fill="none" stroke="#63b8ff" d="M782.07,-405.79C883.09,-393.68 1082.04,-369.83 1187.83,-357.14"/>
<polygon fill="#63b8ff" stroke="#63b8ff" points="1188,-360.65 1197.51,-355.98 1187.17,-353.7 1188,-360.65"/>
</a>
</g>
</g>
<!-- Node4&#45;&gt;Node2 -->
<g id="edge14_Node000004_Node000002" class="edge">
<title>Node4&#45;&gt;Node2</title>
<g id="a_edge14_Node000004_Node000002"><a xlink:title=" ">
<path fill="none" stroke="#63b8ff" d="M1199.02,-343.91C1021.28,-333.92 496.03,-293.69 400.83,-163.5 392.83,-152.56 391.68,-143 400.83,-133 431.64,-99.36 764.62,-103.11 809.83,-97 816.73,-96.07 823.94,-94.95 831.07,-93.75"/>
<polygon fill="#63b8ff" stroke="#63b8ff" points="831.42,-97.25 840.67,-92.09 830.22,-90.35 831.42,-97.25"/>
</a>
</g>
</g>
<!-- Node5 -->
<g id="Node000005" class="node">
<title>Node5</title>
<g id="a_Node000005"><a xlink:title=" ">
<polygon fill="#e0e0e0" stroke="#999999" points="1615.96,-91.38 1567.71,-91.38 1567.71,-72.12 1615.96,-72.12 1615.96,-91.38"/>
<text text-anchor="middle" x="1591.83" y="-77.88" font-family="Helvetica,sans-Serif" font-size="10.00">cassert</text>
</a>
</g>
</g>
<!-- Node4&#45;&gt;Node5 -->
<g id="edge4_Node000004_Node000005" class="edge">
<title>Node4&#45;&gt;Node5</title>
<g id="a_edge4_Node000004_Node000005"><a xlink:title=" ">
<path fill="none" stroke="#63b8ff" d="M1316.92,-344.46C1380.22,-340.34 1482.65,-328.81 1564.83,-296.5 1614.51,-276.97 1639.62,-277.04 1664.83,-230 1689.87,-183.28 1640.12,-126.82 1610.95,-99.36"/>
<polygon fill="#63b8ff" stroke="#63b8ff" points="1613.53,-96.98 1603.78,-92.83 1608.82,-102.15 1613.53,-96.98"/>
</a>
</g>
</g>
<!-- Node6 -->
<g id="Node000006" class="node">
<title>Node6</title>
<g id="a_Node000006"><a xlink:title=" ">
<polygon fill="#e0e0e0" stroke="#999999" points="1116.46,-157.88 1071.21,-157.88 1071.21,-138.62 1116.46,-138.62 1116.46,-157.88"/>
<text text-anchor="middle" x="1093.83" y="-144.38" font-family="Helvetica,sans-Serif" font-size="10.00">cstdint</text>
</a>
</g>
</g>
<!-- Node4&#45;&gt;Node6 -->
<g id="edge5_Node000004_Node000006" class="edge">
<title>Node4&#45;&gt;Node6</title>
<g id="a_edge5_Node000004_Node000006"><a xlink:title=" ">
<path fill="none" stroke="#63b8ff" d="M1199.04,-345.55C1162.13,-341.36 1117.07,-329.22 1092.83,-296.5 1065.01,-258.95 1077.44,-199.94 1086.81,-169.27"/>
<polygon fill="#63b8ff" stroke="#63b8ff" points="1090.14,-170.36 1089.93,-159.77 1083.49,-168.18 1090.14,-170.36"/>
</a>
</g>
</g>
<!-- Node7 -->
<g id="Node000007" class="node">
<title>Node7</title>
<g id="a_Node000007"><a xlink:title=" ">
<polygon fill="#e0e0e0" stroke="#999999" points="964.96,-290.88 922.71,-290.88 922.71,-271.62 964.96,-271.62 964.96,-290.88"/>
<text text-anchor="middle" x="943.83" y="-277.38" font-family="Helvetica,sans-Serif" font-size="10.00">deque</text>
</a>
</g>
</g>
<!-- Node4&#45;&gt;Node7 -->
<g id="edge6_Node000004_Node000007" class="edge">
<title>Node4&#45;&gt;Node7</title>
<g id="a_edge6_Node000004_Node000007"><a xlink:title=" ">
<path fill="none" stroke="#63b8ff" d="M1198.77,-339.75C1141.73,-332.14 1053.28,-318.1 978.83,-296.5 977.45,-296.1 976.05,-295.66 974.64,-295.2"/>
<polygon fill="#63b8ff" stroke="#63b8ff" points="975.95,-291.95 965.36,-291.79 973.54,-298.52 975.95,-291.95"/>
</a>
</g>
</g>
<!-- Node8 -->
<g id="Node000008" class="node">
<title>Node8</title>
<g id="a_Node000008"><a xlink:title=" ">
<polygon fill="#e0e0e0" stroke="#999999" points="1353.21,-91.38 1240.46,-91.38 1240.46,-72.12 1353.21,-72.12 1353.21,-91.38"/>
<text text-anchor="middle" x="1296.83" y="-77.88" font-family="Helvetica,sans-Serif" font-size="10.00">llvm/ADT/StringMap.h</text>
</a>
</g>
</g>
<!-- Node4&#45;&gt;Node8 -->
<g id="edge7_Node000004_Node000008" class="edge">
<title>Node4&#45;&gt;Node8</title>
<g id="a_edge7_Node000004_Node000008"><a xlink:title=" ">
<path fill="none" stroke="#63b8ff" d="M1257.01,-332.19C1255.42,-297.19 1253.63,-205.84 1272.83,-133 1275.71,-122.1 1280.94,-110.71 1285.79,-101.53"/>
<polygon fill="#63b8ff" stroke="#63b8ff" points="1288.77,-103.37 1290.59,-92.94 1282.66,-99.96 1288.77,-103.37"/>
</a>
</g>
</g>
<!-- Node9 -->
<g id="Node000009" class="node">
<title>Node9</title>
<g id="a_Node000009"><a xlink:title=" ">
<polygon fill="#e0e0e0" stroke="#999999" points="1781.71,-91.38 1671.96,-91.38 1671.96,-72.12 1781.71,-72.12 1781.71,-91.38"/>
<text text-anchor="middle" x="1726.83" y="-77.88" font-family="Helvetica,sans-Serif" font-size="10.00">llvm/ADT/StringRef.h</text>
</a>
</g>
</g>
<!-- Node4&#45;&gt;Node9 -->
<g id="edge8_Node000004_Node000009" class="edge">
<title>Node4&#45;&gt;Node9</title>
<g id="a_edge8_Node000004_Node000009"><a xlink:title=" ">
<path fill="none" stroke="#63b8ff" d="M1316.93,-342.96C1404.46,-336.58 1563.74,-321.86 1614.83,-296.5 1652.41,-277.85 1660.16,-265.92 1681.83,-230 1706.73,-188.73 1718.88,-132.54 1723.89,-102.93"/>
<polygon fill="#63b8ff" stroke="#63b8ff" points="1727.33,-103.58 1725.42,-93.16 1720.41,-102.49 1727.33,-103.58"/>
</a>
</g>
</g>
<!-- Node10 -->
<g id="Node000010" class="node">
<title>Node10</title>
<g id="a_Node000010"><a xlink:title=" ">
<polygon fill="#e0e0e0" stroke="#999999" points="1910.08,-91.38 1799.58,-91.38 1799.58,-72.12 1910.08,-72.12 1910.08,-91.38"/>
<text text-anchor="middle" x="1854.83" y="-77.88" font-family="Helvetica,sans-Serif" font-size="10.00">llvm/Support/Debug.h</text>
</a>
</g>
</g>
<!-- Node4&#45;&gt;Node10 -->
<g id="edge9_Node000004_Node000010" class="edge">
<title>Node4&#45;&gt;Node10</title>
<g id="a_edge9_Node000004_Node000010"><a xlink:title=" ">
<path fill="none" stroke="#63b8ff" d="M1316.95,-343.98C1411.74,-338.73 1592.85,-325.22 1649.83,-296.5 1742.33,-249.87 1816.2,-144.26 1843.48,-101.37"/>
<polygon fill="#63b8ff" stroke="#63b8ff" points="1846.4,-103.3 1848.72,-92.96 1840.46,-99.6 1846.4,-103.3"/>
</a>
</g>
</g>
<!-- Node11 -->
<g id="Node000011" class="node">
<title>Node11</title>
<g id="a_Node000011"><a xlink:title=" ">
<polygon fill="#e0e0e0" stroke="#999999" points="2019.71,-91.38 1927.96,-91.38 1927.96,-72.12 2019.71,-72.12 2019.71,-91.38"/>
<text text-anchor="middle" x="1973.83" y="-77.88" font-family="Helvetica,sans-Serif" font-size="10.00">mlir/IR/Builders.h</text>
</a>
</g>
</g>
<!-- Node4&#45;&gt;Node11 -->
<g id="edge10_Node000004_Node000011" class="edge">
<title>Node4&#45;&gt;Node11</title>
<g id="a_edge10_Node000004_Node000011"><a xlink:title=" ">
<path fill="none" stroke="#63b8ff" d="M1316.67,-343.63C1418,-337.63 1620.89,-322.71 1686.83,-296.5 1804.62,-249.67 1916.96,-141.72 1957.71,-99.81"/>
<polygon fill="#63b8ff" stroke="#63b8ff" points="1960.05,-102.43 1964.45,-92.8 1955,-97.58 1960.05,-102.43"/>
</a>
</g>
</g>
<!-- Node12 -->
<g id="Node000012" class="node">
<title>Node12</title>
<g id="a_Node000012"><a xlink:title=" ">
<polygon fill="#e0e0e0" stroke="#999999" points="2145.96,-91.38 2037.71,-91.38 2037.71,-72.12 2145.96,-72.12 2145.96,-91.38"/>
<text text-anchor="middle" x="2091.83" y="-77.88" font-family="Helvetica,sans-Serif" font-size="10.00">mlir/IR/Diagnostics.h</text>
</a>
</g>
</g>
<!-- Node4&#45;&gt;Node12 -->
<g id="edge11_Node000004_Node000012" class="edge">
<title>Node4&#45;&gt;Node12</title>
<g id="a_edge11_Node000004_Node000012"><a xlink:title=" ">
<path fill="none" stroke="#63b8ff" d="M1316.83,-346.91C1407.41,-345.74 1585.42,-337.75 1729.83,-296.5 1860.38,-259.21 1892.73,-240.08 2004.83,-163.5 2032.36,-144.69 2059.85,-117.4 2076.34,-99.87"/>
<polygon fill="#63b8ff" stroke="#63b8ff" points="2078.67,-102.51 2082.89,-92.79 2073.53,-97.76 2078.67,-102.51"/>
</a>
</g>
</g>
<!-- Node13 -->
<g id="Node000013" class="node">
<title>Node13</title>
<g id="a_Node000013"><a xlink:title=" ">
<polygon fill="#e0e0e0" stroke="#999999" points="1483.46,-91.38 1390.21,-91.38 1390.21,-72.12 1483.46,-72.12 1483.46,-91.38"/>
<text text-anchor="middle" x="1436.83" y="-77.88" font-family="Helvetica,sans-Serif" font-size="10.00">mlir/IR/Location.h</text>
</a>
</g>
</g>
<!-- Node4&#45;&gt;Node13 -->
<g id="edge12_Node000004_Node000013" class="edge">
<title>Node4&#45;&gt;Node13</title>
<g id="a_edge12_Node000004_Node000013"><a xlink:title=" ">
<path fill="none" stroke="#63b8ff" d="M1316.58,-337.82C1415.41,-321.48 1608.05,-283.43 1647.83,-230 1673.38,-195.68 1612.52,-136.62 1607.83,-133 1575.35,-107.92 1530.62,-95.33 1495.05,-89.03"/>
<polygon fill="#63b8ff" stroke="#63b8ff" points="1495.78,-85.61 1485.35,-87.45 1494.65,-92.52 1495.78,-85.61"/>
</a>
</g>
</g>
<!-- Node14 -->
<g id="Node000014" class="node">
<title>Node14</title>
<g id="a_Node000014"><a xlink:title=" ">
<polygon fill="#e0e0e0" stroke="#999999" points="1564.08,-24.88 1459.58,-24.88 1459.58,-5.63 1564.08,-5.63 1564.08,-24.88"/>
<text text-anchor="middle" x="1511.83" y="-11.38" font-family="Helvetica,sans-Serif" font-size="10.00">mlir/Support/LLVM.h</text>
</a>
</g>
</g>
<!-- Node4&#45;&gt;Node14 -->
<g id="edge13_Node000004_Node000014" class="edge">
<title>Node4&#45;&gt;Node14</title>
<g id="a_edge13_Node000004_Node000014"><a xlink:title=" ">
<path fill="none" stroke="#63b8ff" d="M1316.88,-344.55C1519.45,-336.24 2173.83,-302.65 2173.83,-215.75 2173.83,-215.75 2173.83,-215.75 2173.83,-147.25 2173.83,-110.38 2182.82,-90.5 2154.83,-66.5 2111.5,-29.35 1729.29,-19.5 1575.51,-17.03"/>
<polygon fill="#63b8ff" stroke="#63b8ff" points="1575.97,-13.54 1565.92,-16.88 1575.86,-20.54 1575.97,-13.54"/>
</a>
</g>
</g>
<!-- Node15 -->
<g id="Node000015" class="node">
<title>Node15</title>
<g id="a_Node000015"><a xlink:href="_expr_8h.html" target="_top" xlink:title=" ">
<polygon fill="white" stroke="#666666" points="893.83,-230 793.83,-230 793.83,-199.5 893.83,-199.5 893.83,-230"/>
<text text-anchor="start" x="801.83" y="-216.5" font-family="Helvetica,sans-Serif" font-size="10.00">zklang/Dialect/ZHL</text>
<text text-anchor="middle" x="843.83" y="-205.25" font-family="Helvetica,sans-Serif" font-size="10.00">/Typing/Expr.h</text>
</a>
</g>
</g>
<!-- Node4&#45;&gt;Node15 -->
<g id="edge15_Node000004_Node000015" class="edge">
<title>Node4&#45;&gt;Node15</title>
<g id="a_edge15_Node000004_Node000015"><a xlink:title=" ">
<path fill="none" stroke="#63b8ff" d="M1198.82,-341.28C1148.72,-335.06 1075.79,-322.21 1016.83,-296.5 995.36,-287.13 994.47,-277.09 973.83,-266 950.74,-253.6 923.91,-242.69 900.64,-234.24"/>
<polygon fill="#63b8ff" stroke="#63b8ff" points="901.9,-230.97 891.31,-230.92 899.55,-237.57 901.9,-230.97"/>
</a>
</g>
</g>
<!-- Node25 -->
<g id="Node000025" class="node">
<title>Node25</title>
<g id="a_Node000025"><a xlink:href="_frame_8h.html" target="_top" xlink:title=" ">
<polygon fill="white" stroke="#666666" points="314.83,-230 214.83,-230 214.83,-199.5 314.83,-199.5 314.83,-230"/>
<text text-anchor="start" x="222.83" y="-216.5" font-family="Helvetica,sans-Serif" font-size="10.00">zklang/Dialect/ZHL</text>
<text text-anchor="middle" x="264.83" y="-205.25" font-family="Helvetica,sans-Serif" font-size="10.00">/Typing/Frame.h</text>
</a>
</g>
</g>
<!-- Node4&#45;&gt;Node25 -->
<g id="edge37_Node000004_Node000025" class="edge">
<title>Node4&#45;&gt;Node25</title>
<g id="a_edge37_Node000004_Node000025"><a xlink:title=" ">
<path fill="none" stroke="#63b8ff" d="M1198.78,-345.47C1012.52,-341.13 445.12,-325.65 367.83,-296.5 335.24,-284.21 304.74,-257.68 285.52,-238.37"/>
<polygon fill="#63b8ff" stroke="#63b8ff" points="288.28,-236.19 278.81,-231.43 283.25,-241.05 288.28,-236.19"/>
</a>
</g>
</g>
<!-- Node28 -->
<g id="Node000028" class="node">
<title>Node28</title>
<g id="a_Node000028"><a xlink:href="_frame_slot_8h.html" target="_top" xlink:title=" ">
<polygon fill="white" stroke="#666666" points="800.71,-97 696.96,-97 696.96,-66.5 800.71,-66.5 800.71,-97"/>
<text text-anchor="start" x="704.96" y="-83.5" font-family="Helvetica,sans-Serif" font-size="10.00">zklang/Dialect/ZHL</text>
<text text-anchor="middle" x="748.83" y="-72.25" font-family="Helvetica,sans-Serif" font-size="10.00">/Typing/FrameSlot.h</text>
</a>
</g>
</g>
<!-- Node4&#45;&gt;Node28 -->
<g id="edge49_Node000004_Node000028" class="edge">
<title>Node4&#45;&gt;Node28</title>
<g id="a_edge49_Node000004_Node000028"><a xlink:title=" ">
<path fill="none" stroke="#63b8ff" d="M1250.93,-332.17C1229.77,-288.1 1164.87,-157.77 1125.83,-133 1068.84,-96.83 895.99,-107.91 812.2,-97.04"/>
<polygon fill="#63b8ff" stroke="#63b8ff" points="812.9,-93.61 802.49,-95.58 811.86,-100.53 812.9,-93.61"/>
</a>
</g>
</g>
<!-- Node31 -->
<g id="Node000031" class="node">
<title>Node31</title>
<g id="a_Node000031"><a xlink:href="_type_binding_8h.html" target="_top" xlink:title=" ">
<polygon fill="white" stroke="#666666" points="1390.83,-296.5 1278.83,-296.5 1278.83,-266 1390.83,-266 1390.83,-296.5"/>
<text text-anchor="start" x="1286.83" y="-283" font-family="Helvetica,sans-Serif" font-size="10.00">zklang/Dialect/ZHL</text>
<text text-anchor="middle" x="1334.83" y="-271.75" font-family="Helvetica,sans-Serif" font-size="10.00">/Typing/TypeBinding.h</text>
</a>
</g>
</g>
<!-- Node4&#45;&gt;Node31 -->
<g id="edge50_Node000004_Node000031" class="edge">
<title>Node4&#45;&gt;Node31</title>
<g id="a_edge50_Node000004_Node000031"><a xlink:title=" ">
<path fill="none" stroke="#63b8ff" d="M1275.3,-332.11C1285.15,-323.87 1297.64,-313.4 1308.64,-304.19"/>
<polygon fill="#63b8ff" stroke="#63b8ff" points="1310.85,-306.9 1316.27,-297.8 1306.36,-301.54 1310.85,-306.9"/>
</a>
</g>
</g>
<!-- Node15&#45;&gt;Node2 -->
<g id="edge26_Node000015_Node000002" class="edge">
<title>Node15&#45;&gt;Node2</title>
<g id="a_edge26_Node000015_Node000002"><a xlink:title=" ">
<path fill="none" stroke="#63b8ff" d="M850.96,-199.03C855.58,-189.13 861.52,-175.71 865.83,-163.5 873,-143.19 879.24,-119.33 883.23,-102.84"/>
<polygon fill="#63b8ff" stroke="#63b8ff" points="886.59,-103.85 885.47,-93.32 879.77,-102.25 886.59,-103.85"/>
</a>
</g>
</g>
<!-- Node15&#45;&gt;Node6 -->
<g id="edge17_Node000015_Node000006" class="edge">
<title>Node15&#45;&gt;Node6</title>
<g id="a_edge17_Node000015_Node000006"><a xlink:title=" ">
<path fill="none" stroke="#63b8ff" d="M894.27,-203.87C937.76,-194.88 1002.02,-180.44 1056.83,-163.5 1058.2,-163.08 1059.59,-162.63 1060.99,-162.16"/>
<polygon fill="#63b8ff" stroke="#63b8ff" points="1062.03,-165.51 1070.27,-158.85 1059.68,-158.91 1062.03,-165.51"/>
</a>
</g>
</g>
<!-- Node15&#45;&gt;Node14 -->
<g id="edge25_Node000015_Node000014" class="edge">
<title>Node15&#45;&gt;Node14</title>
<g id="a_edge25_Node000015_Node000014"><a xlink:title=" ">
<path fill="none" stroke="#63b8ff" d="M893.96,-205.41C931.23,-197.89 982.56,-184.69 1023.83,-163.5 1043.1,-153.61 1043.09,-143.85 1061.83,-133 1132.05,-92.36 1153.76,-88.55 1231.83,-66.5 1304.8,-45.9 1390.94,-31.93 1448.22,-24.06"/>
<polygon fill="#63b8ff" stroke="#63b8ff" points="1448.34,-27.57 1457.78,-22.76 1447.4,-20.63 1448.34,-27.57"/>
</a>
</g>
</g>
<!-- Node16 -->
<g id="Node000016" class="node">
<title>Node16</title>
<g id="a_Node000016"><a xlink:title=" ">
<polygon fill="#e0e0e0" stroke="#999999" points="603.96,-157.88 555.71,-157.88 555.71,-138.62 603.96,-138.62 603.96,-157.88"/>
<text text-anchor="middle" x="579.83" y="-144.38" font-family="Helvetica,sans-Serif" font-size="10.00">cstddef</text>
</a>
</g>
</g>
<!-- Node15&#45;&gt;Node16 -->
<g id="edge16_Node000015_Node000016" class="edge">
<title>Node15&#45;&gt;Node16</title>
<g id="a_edge16_Node000015_Node000016"><a xlink:title=" ">
<path fill="none" stroke="#63b8ff" d="M793.53,-205.7C746.23,-197.46 673.79,-183.09 612.83,-163.5 611.84,-163.18 610.85,-162.85 609.84,-162.49"/>
<polygon fill="#63b8ff" stroke="#63b8ff" points="611.14,-159.24 600.55,-158.88 608.6,-165.77 611.14,-159.24"/>
</a>
</g>
</g>
<!-- Node17 -->
<g id="Node000017" class="node">
<title>Node17</title>
<g id="a_Node000017"><a xlink:title=" ">
<polygon fill="#e0e0e0" stroke="#999999" points="729.58,-157.88 622.08,-157.88 622.08,-138.62 729.58,-138.62 729.58,-157.88"/>
<text text-anchor="middle" x="675.83" y="-144.38" font-family="Helvetica,sans-Serif" font-size="10.00">llvm/ADT/ArrayRef.h</text>
</a>
</g>
</g>
<!-- Node15&#45;&gt;Node17 -->
<g id="edge18_Node000015_Node000017" class="edge">
<title>Node15&#45;&gt;Node17</title>
<g id="a_edge18_Node000015_Node000017"><a xlink:title=" ">
<path fill="none" stroke="#63b8ff" d="M805.71,-199.11C776.82,-188.02 737.49,-172.92 709.7,-162.25"/>
<polygon fill="#63b8ff" stroke="#63b8ff" points="711.3,-159.12 700.71,-158.8 708.79,-165.65 711.3,-159.12"/>
</a>
</g>
</g>
<!-- Node18 -->
<g id="Node000018" class="node">
<title>Node18</title>
<g id="a_Node000018"><a xlink:title=" ">
<polygon fill="#e0e0e0" stroke="#999999" points="676.21,-24.88 557.46,-24.88 557.46,-5.63 676.21,-5.63 676.21,-24.88"/>
<text text-anchor="middle" x="616.83" y="-11.38" font-family="Helvetica,sans-Serif" font-size="10.00">llvm/ADT/SmallString.h</text>
</a>
</g>
</g>
<!-- Node15&#45;&gt;Node18 -->
<g id="edge19_Node000015_Node000018" class="edge">
<title>Node15&#45;&gt;Node18</title>
<g id="a_edge19_Node000015_Node000018"><a xlink:title=" ">
<path fill="none" stroke="#63b8ff" d="M793.53,-208.77C713.01,-200.28 562.57,-182.12 546.83,-163.5 512.25,-122.57 567.09,-61.65 598.02,-32.69"/>
<polygon fill="#63b8ff" stroke="#63b8ff" points="600.2,-35.43 605.24,-26.11 595.49,-30.25 600.2,-35.43"/>
</a>
</g>
</g>
<!-- Node19 -->
<g id="Node000019" class="node">
<title>Node19</title>
<g id="a_Node000019"><a xlink:title=" ">
<polygon fill="#e0e0e0" stroke="#999999" points="856.33,-157.88 747.33,-157.88 747.33,-138.62 856.33,-138.62 856.33,-157.88"/>
<text text-anchor="middle" x="801.83" y="-144.38" font-family="Helvetica,sans-Serif" font-size="10.00">llvm/ADT/StringSet.h</text>
</a>
</g>
</g>
<!-- Node15&#45;&gt;Node19 -->
<g id="edge20_Node000015_Node000019" class="edge">
<title>Node15&#45;&gt;Node19</title>
<g id="a_edge20_Node000015_Node000019"><a xlink:title=" ">
<path fill="none" stroke="#63b8ff" d="M834.3,-199.11C828.19,-189.73 820.22,-177.49 813.7,-167.48"/>
<polygon fill="#63b8ff" stroke="#63b8ff" points="816.79,-165.81 808.4,-159.34 810.93,-169.63 816.79,-165.81"/>
</a>
</g>
</g>
<!-- Node20 -->
<g id="Node000020" class="node">
<title>Node20</title>
<g id="a_Node000020"><a xlink:title=" ">
<polygon fill="#e0e0e0" stroke="#999999" points="242.46,-91.38 125.21,-91.38 125.21,-72.12 242.46,-72.12 242.46,-91.38"/>
<text text-anchor="middle" x="183.83" y="-77.88" font-family="Helvetica,sans-Serif" font-size="10.00">llvm/ADT/simple_ilist.h</text>
</a>
</g>
</g>
<!-- Node15&#45;&gt;Node20 -->
<g id="edge21_Node000015_Node000020" class="edge">
<title>Node15&#45;&gt;Node20</title>
<g id="a_edge21_Node000015_Node000020"><a xlink:title=" ">
<path fill="none" stroke="#63b8ff" d="M793.49,-213.16C650.16,-211.03 247.31,-201.65 202.83,-163.5 185.69,-148.8 182.42,-121.81 182.46,-103.1"/>
<polygon fill="#63b8ff" stroke="#63b8ff" points="185.95,-103.36 182.83,-93.24 178.96,-103.1 185.95,-103.36"/>
</a>
</g>
</g>
<!-- Node21 -->
<g id="Node000021" class="node">
<title>Node21</title>
<g id="a_Node000021"><a xlink:title=" ">
<polygon fill="#e0e0e0" stroke="#999999" points="461.46,-157.88 410.21,-157.88 410.21,-138.62 461.46,-138.62 461.46,-157.88"/>
<text text-anchor="middle" x="435.83" y="-144.38" font-family="Helvetica,sans-Serif" font-size="10.00">memory</text>
</a>
</g>
</g>
<!-- Node15&#45;&gt;Node21 -->
<g id="edge22_Node000015_Node000021" class="edge">
<title>Node15&#45;&gt;Node21</title>
<g id="a_edge22_Node000015_Node000021"><a xlink:title=" ">
<path fill="none" stroke="#63b8ff" d="M793.52,-210.19C722.08,-204.39 587.5,-190.71 475.83,-163.5 473.82,-163.01 471.78,-162.46 469.72,-161.86"/>
<polygon fill="#63b8ff" stroke="#63b8ff" points="470.88,-158.56 460.29,-158.83 468.74,-165.22 470.88,-158.56"/>
</a>
</g>
</g>
<!-- Node22 -->
<g id="Node000022" class="node">
<title>Node22</title>
<g id="a_Node000022"><a xlink:title=" ">
<polygon fill="#e0e0e0" stroke="#999999" points="1014.58,-157.88 913.08,-157.88 913.08,-138.62 1014.58,-138.62 1014.58,-157.88"/>
<text text-anchor="middle" x="963.83" y="-144.38" font-family="Helvetica,sans-Serif" font-size="10.00">mlir/IR/AffineExpr.h</text>
</a>
</g>
</g>
<!-- Node15&#45;&gt;Node22 -->
<g id="edge23_Node000015_Node000022" class="edge">
<title>Node15&#45;&gt;Node22</title>
<g id="a_edge23_Node000015_Node000022"><a xlink:title=" ">
<path fill="none" stroke="#63b8ff" d="M871.06,-199.11C890.78,-188.51 917.32,-174.25 936.96,-163.7"/>
<polygon fill="#63b8ff" stroke="#63b8ff" points="938.59,-166.79 945.74,-158.98 935.27,-160.63 938.59,-166.79"/>
</a>
</g>
</g>
<!-- Node23 -->
<g id="Node000023" class="node">
<title>Node23</title>
<g id="a_Node000023"><a xlink:title=" ">
<polygon fill="#e0e0e0" stroke="#999999" points="539.08,-24.88 440.58,-24.88 440.58,-5.63 539.08,-5.63 539.08,-24.88"/>
<text text-anchor="middle" x="489.83" y="-11.38" font-family="Helvetica,sans-Serif" font-size="10.00">mlir/IR/Attributes.h</text>
</a>
</g>
</g>
<!-- Node15&#45;&gt;Node23 -->
<g id="edge24_Node000015_Node000023" class="edge">
<title>Node15&#45;&gt;Node23</title>
<g id="a_edge24_Node000015_Node000023"><a xlink:title=" ">
<path fill="none" stroke="#63b8ff" d="M793.57,-208.62C710.34,-199.7 551.11,-180.63 531.83,-163.5 495.15,-130.91 489.53,-68.77 489.25,-36.63"/>
<polygon fill="#63b8ff" stroke="#63b8ff" points="492.75,-36.76 489.35,-26.73 485.75,-36.69 492.75,-36.76"/>
</a>
</g>
</g>
<!-- Node24 -->
<g id="Node000024" class="node">
<title>Node24</title>
<g id="a_Node000024"><a xlink:href="_params_8h.html" target="_top" xlink:title=" ">
<polygon fill="white" stroke="#666666" points="1540.83,-163.5 1440.83,-163.5 1440.83,-133 1540.83,-133 1540.83,-163.5"/>
<text text-anchor="start" x="1448.83" y="-150" font-family="Helvetica,sans-Serif" font-size="10.00">zklang/Dialect/ZHL</text>
<text text-anchor="middle" x="1490.83" y="-138.75" font-family="Helvetica,sans-Serif" font-size="10.00">/Typing/Params.h</text>
</a>
</g>
</g>
<!-- Node15&#45;&gt;Node24 -->
<g id="edge27_Node000015_Node000024" class="edge">
<title>Node15&#45;&gt;Node24</title>
<g id="a_edge27_Node000015_Node000024"><a xlink:title=" ">
<path fill="none" stroke="#63b8ff" d="M894.33,-208.72C1011.57,-197.03 1301.86,-168.09 1429.25,-155.39"/>
<polygon fill="#63b8ff" stroke="#63b8ff" points="1429.58,-158.87 1439.18,-154.4 1428.89,-151.91 1429.58,-158.87"/>
</a>
</g>
</g>
<!-- Node24&#45;&gt;Node2 -->
<g id="edge36_Node000024_Node000002" class="edge">
<title>Node24&#45;&gt;Node2</title>
<g id="a_edge36_Node000024_Node000002"><a xlink:title=" ">
<path fill="none" stroke="#63b8ff" d="M1440.46,-141.86C1336.05,-130.69 1095.25,-104.94 968.77,-91.41"/>
<polygon fill="#63b8ff" stroke="#63b8ff" points="969.46,-87.96 959.14,-90.38 968.72,-94.92 969.46,-87.96"/>
</a>
</g>
</g>
<!-- Node24&#45;&gt;Node5 -->
<g id="edge28_Node000024_Node000005" class="edge">
<title>Node24&#45;&gt;Node5</title>
<g id="a_edge28_Node000024_Node000005"><a xlink:title=" ">
<path fill="none" stroke="#63b8ff" d="M1513.75,-132.61C1530.04,-122.21 1551.86,-108.28 1568.29,-97.79"/>
<polygon fill="#63b8ff" stroke="#63b8ff" points="1569.9,-100.91 1576.45,-92.57 1566.14,-95.01 1569.9,-100.91"/>
</a>
</g>
</g>
<!-- Node24&#45;&gt;Node8 -->
<g id="edge29_Node000024_Node000008" class="edge">
<title>Node24&#45;&gt;Node8</title>
<g id="a_edge29_Node000024_Node000008"><a xlink:title=" ">
<path fill="none" stroke="#63b8ff" d="M1446.81,-132.61C1413.11,-121.41 1367.1,-106.11 1334.96,-95.43"/>
<polygon fill="#63b8ff" stroke="#63b8ff" points="1336.24,-92.17 1325.65,-92.33 1334.04,-98.81 1336.24,-92.17"/>
</a>
</g>
</g>
<!-- Node24&#45;&gt;Node9 -->
<g id="edge30_Node000024_Node000009" class="edge">
<title>Node24&#45;&gt;Node9</title>
<g id="a_edge30_Node000024_Node000009"><a xlink:title=" ">
<path fill="none" stroke="#63b8ff" d="M1541.17,-133.49C1583.15,-122.02 1642.39,-105.83 1682.58,-94.84"/>
<polygon fill="#63b8ff" stroke="#63b8ff" points="1683.45,-98.23 1692.17,-92.22 1681.61,-91.48 1683.45,-98.23"/>
</a>
</g>
</g>
<!-- Node24&#45;&gt;Node10 -->
<g id="edge31_Node000024_Node000010" class="edge">
<title>Node24&#45;&gt;Node10</title>
<g id="a_edge31_Node000024_Node000010"><a xlink:title=" ">
<path fill="none" stroke="#63b8ff" d="M1541.3,-134.75C1544.18,-134.13 1547.04,-133.54 1549.83,-133 1656.13,-112.27 1684.35,-116.78 1790.83,-97 1795.43,-96.15 1800.2,-95.2 1804.96,-94.21"/>
<polygon fill="#63b8ff" stroke="#63b8ff" points="1805.47,-97.68 1814.52,-92.17 1804.01,-90.84 1805.47,-97.68"/>
</a>
</g>
</g>
<!-- Node24&#45;&gt;Node11 -->
<g id="edge32_Node000024_Node000011" class="edge">
<title>Node24&#45;&gt;Node11</title>
<g id="a_edge32_Node000024_Node000011"><a xlink:title=" ">
<path fill="none" stroke="#63b8ff" d="M1541.27,-134.58C1544.16,-134.01 1547.03,-133.47 1549.83,-133 1712.32,-105.59 1756.58,-125.75 1918.83,-97 1922.91,-96.28 1927.13,-95.41 1931.33,-94.46"/>
<polygon fill="#63b8ff" stroke="#63b8ff" points="1931.94,-97.91 1940.85,-92.17 1930.3,-91.11 1931.94,-97.91"/>
</a>
</g>
</g>
<!-- Node24&#45;&gt;Node12 -->
<g id="edge33_Node000024_Node000012" class="edge">
<title>Node24&#45;&gt;Node12</title>
<g id="a_edge33_Node000024_Node000012"><a xlink:title=" ">
<path fill="none" stroke="#63b8ff" d="M1541.25,-134.5C1544.15,-133.95 1547.02,-133.44 1549.83,-133 1760.73,-99.83 1817.7,-128.64 2028.83,-97 2034.1,-96.21 2039.58,-95.22 2045.02,-94.14"/>
<polygon fill="#63b8ff" stroke="#63b8ff" points="2045.49,-97.62 2054.54,-92.12 2044.04,-90.77 2045.49,-97.62"/>
</a>
</g>
</g>
<!-- Node24&#45;&gt;Node13 -->
<g id="edge34_Node000024_Node000013" class="edge">
<title>Node24&#45;&gt;Node13</title>
<g id="a_edge34_Node000024_Node000013"><a xlink:title=" ">
<path fill="none" stroke="#63b8ff" d="M1478.58,-132.61C1470.56,-123.04 1460.04,-110.47 1451.57,-100.35"/>
<polygon fill="#63b8ff" stroke="#63b8ff" points="1454.29,-98.15 1445.19,-92.73 1448.93,-102.65 1454.29,-98.15"/>
</a>
</g>
</g>
<!-- Node24&#45;&gt;Node14 -->
<g id="edge35_Node000024_Node000014" class="edge">
<title>Node24&#45;&gt;Node14</title>
<g id="a_edge35_Node000024_Node000014"><a xlink:title=" ">
<path fill="none" stroke="#63b8ff" d="M1493.16,-132.73C1496.9,-109.37 1504.28,-63.38 1508.55,-36.71"/>
<polygon fill="#63b8ff" stroke="#63b8ff" points="1512.01,-37.27 1510.13,-26.85 1505.1,-36.17 1512.01,-37.27"/>
</a>
</g>
</g>
<!-- Node25&#45;&gt;Node20 -->
<g id="edge38_Node000025_Node000020" class="edge">
<title>Node25&#45;&gt;Node20</title>
<g id="a_edge38_Node000025_Node000020"><a xlink:title=" ">
<path fill="none" stroke="#63b8ff" d="M214.59,-211.23C147.57,-206.69 34.37,-194.54 8.83,-163.5 -25.11,-122.25 51.36,-101.04 113.72,-90.92"/>
<polygon fill="#63b8ff" stroke="#63b8ff" points="113.92,-94.43 123.27,-89.45 112.86,-87.51 113.92,-94.43"/>
</a>
</g>
</g>
<!-- Node25&#45;&gt;Node21 -->
<g id="edge40_Node000025_Node000021" class="edge">
<title>Node25&#45;&gt;Node21</title>
<g id="a_edge40_Node000025_Node000021"><a xlink:title=" ">
<path fill="none" stroke="#63b8ff" d="M303.63,-199.11C333.04,-188.02 373.07,-172.92 401.36,-162.25"/>
<polygon fill="#63b8ff" stroke="#63b8ff" points="402.41,-165.6 410.53,-158.79 399.94,-159.05 402.41,-165.6"/>
</a>
</g>
</g>
<!-- Node26 -->
<g id="Node000026" class="node">
<title>Node26</title>
<g id="a_Node000026"><a xlink:title=" ">
<polygon fill="#e0e0e0" stroke="#999999" points="155.96,-157.88 17.71,-157.88 17.71,-138.62 155.96,-138.62 155.96,-157.88"/>
<text text-anchor="middle" x="86.83" y="-144.38" font-family="Helvetica,sans-Serif" font-size="10.00">llvm/Support/raw_ostream.h</text>
</a>
</g>
</g>
<!-- Node25&#45;&gt;Node26 -->
<g id="edge39_Node000025_Node000026" class="edge">
<title>Node25&#45;&gt;Node26</title>
<g id="a_edge39_Node000025_Node000026"><a xlink:title=" ">
<path fill="none" stroke="#63b8ff" d="M224.44,-199.11C193.79,-188.01 152.04,-172.88 122.59,-162.21"/>
<polygon fill="#63b8ff" stroke="#63b8ff" points="123.97,-158.99 113.38,-158.87 121.59,-165.57 123.97,-158.99"/>
</a>
</g>
</g>
<!-- Node27 -->
<g id="Node000027" class="node">
<title>Node27</title>
<g id="a_Node000027"><a xlink:href="_frame_info_8h.html" target="_top" xlink:title=" ">
<polygon fill="white" stroke="#666666" points="315.33,-163.5 212.33,-163.5 212.33,-133 315.33,-133 315.33,-163.5"/>
<text text-anchor="start" x="220.33" y="-150" font-family="Helvetica,sans-Serif" font-size="10.00">zklang/Dialect/ZHL</text>
<text text-anchor="middle" x="263.83" y="-138.75" font-family="Helvetica,sans-Serif" font-size="10.00">/Typing/FrameInfo.h</text>
</a>
</g>
</g>
<!-- Node25&#45;&gt;Node27 -->
<g id="edge41_Node000025_Node000027" class="edge">
<title>Node25&#45;&gt;Node27</title>
<g id="a_edge41_Node000025_Node000027"><a xlink:title=" ">
<path fill="none" stroke="#63b8ff" d="M264.61,-199.11C264.5,-192.02 264.36,-183.29 264.23,-175.13"/>
<polygon fill="#63b8ff" stroke="#63b8ff" points="267.74,-175.29 264.08,-165.34 260.74,-175.39 267.74,-175.29"/>
</a>
</g>
</g>
<!-- Node27&#45;&gt;Node20 -->
<g id="edge42_Node000027_Node000020" class="edge">
<title>Node27&#45;&gt;Node20</title>
<g id="a_edge42_Node000027_Node000020"><a xlink:title=" ">
<path fill="none" stroke="#63b8ff" d="M245.68,-132.61C233.07,-122.44 216.27,-108.91 203.37,-98.5"/>
<polygon fill="#63b8ff" stroke="#63b8ff" points="205.94,-96.07 195.95,-92.52 201.54,-101.52 205.94,-96.07"/>
</a>
</g>
</g>
<!-- Node27&#45;&gt;Node28 -->
<g id="edge43_Node000027_Node000028" class="edge">
<title>Node27&#45;&gt;Node28</title>
<g id="a_edge43_Node000027_Node000028"><a xlink:title=" ">
<path fill="none" stroke="#63b8ff" d="M315.63,-135.59C320.42,-134.66 325.21,-133.77 329.83,-133 455.13,-112.01 602.93,-96.4 685.26,-88.51"/>
<polygon fill="#63b8ff" stroke="#63b8ff" points="685.55,-92 695.17,-87.57 684.89,-85.03 685.55,-92"/>
</a>
</g>
</g>
<!-- Node28&#45;&gt;Node14 -->
<g id="edge48_Node000028_Node000014" class="edge">
<title>Node28&#45;&gt;Node14</title>
<g id="a_edge48_Node000028_Node000014"><a xlink:title=" ">
<path fill="none" stroke="#63b8ff" d="M800.97,-68C803.96,-67.45 806.93,-66.94 809.83,-66.5 1043.02,-31.14 1323.66,-20.54 1447.62,-17.46"/>
<polygon fill="#63b8ff" stroke="#63b8ff" points="1447.69,-20.96 1457.61,-17.22 1447.53,-13.96 1447.69,-20.96"/>
</a>
</g>
</g>
<!-- Node28&#45;&gt;Node18 -->
<g id="edge44_Node000028_Node000018" class="edge">
<title>Node28&#45;&gt;Node18</title>
<g id="a_edge44_Node000028_Node000018"><a xlink:title=" ">
<path fill="none" stroke="#63b8ff" d="M718.88,-66.11C696.89,-55.37 667.19,-40.86 645.5,-30.26"/>
<polygon fill="#63b8ff" stroke="#63b8ff" points="647.15,-27.17 636.63,-25.92 644.08,-33.46 647.15,-27.17"/>
</a>
</g>
</g>
<!-- Node28&#45;&gt;Node23 -->
<g id="edge47_Node000028_Node000023" class="edge">
<title>Node28&#45;&gt;Node23</title>
<g id="a_edge47_Node000028_Node000023"><a xlink:title=" ">
<path fill="none" stroke="#63b8ff" d="M696.73,-67.78C650.16,-56.18 582.49,-39.32 537.37,-28.09"/>
<polygon fill="#63b8ff" stroke="#63b8ff" points="538.42,-24.74 527.87,-25.72 536.73,-31.54 538.42,-24.74"/>
</a>
</g>
</g>
<!-- Node29 -->
<g id="Node000029" class="node">
<title>Node29</title>
<g id="a_Node000029"><a xlink:title=" ">
<polygon fill="#e0e0e0" stroke="#999999" points="803.71,-24.88 693.96,-24.88 693.96,-5.63 803.71,-5.63 803.71,-24.88"/>
<text text-anchor="middle" x="748.83" y="-11.38" font-family="Helvetica,sans-Serif" font-size="10.00">llvm/ADT/ilist_node.h</text>
</a>
</g>
</g>
<!-- Node28&#45;&gt;Node29 -->
<g id="edge45_Node000028_Node000029" class="edge">
<title>Node28&#45;&gt;Node29</title>
<g id="a_edge45_Node000028_Node000029"><a xlink:title=" ">
<path fill="none" stroke="#63b8ff" d="M748.83,-66.11C748.83,-57.33 748.83,-46.02 748.83,-36.4"/>
<polygon fill="#63b8ff" stroke="#63b8ff" points="752.33,-36.59 748.83,-26.59 745.33,-36.59 752.33,-36.59"/>
</a>
</g>
</g>
<!-- Node30 -->
<g id="Node000030" class="node">
<title>Node30</title>
<g id="a_Node000030"><a xlink:title=" ">
<polygon fill="#e0e0e0" stroke="#999999" points="923.58,-30.5 822.08,-30.5 822.08,0 923.58,0 923.58,-30.5"/>
<text text-anchor="start" x="830.08" y="-17" font-family="Helvetica,sans-Serif" font-size="10.00">llvm/ADT/ilist_node</text>
<text text-anchor="middle" x="872.83" y="-5.75" font-family="Helvetica,sans-Serif" font-size="10.00">_options.h</text>
</a>
</g>
</g>
<!-- Node28&#45;&gt;Node30 -->
<g id="edge46_Node000028_Node000030" class="edge">
<title>Node28&#45;&gt;Node30</title>
<g id="a_edge46_Node000028_Node000030"><a xlink:title=" ">
<path fill="none" stroke="#63b8ff" d="M776.97,-66.11C794.09,-57.21 816.19,-45.72 834.85,-36.01"/>
<polygon fill="#63b8ff" stroke="#63b8ff" points="836.21,-39.25 843.46,-31.53 832.98,-33.04 836.21,-39.25"/>
</a>
</g>
</g>
<!-- Node31&#45;&gt;Node2 -->
<g id="edge62_Node000031_Node000002" class="edge">
<title>Node31&#45;&gt;Node2</title>
<g id="a_edge62_Node000031_Node000002"><a xlink:title=" ">
<path fill="none" stroke="#63b8ff" d="M1315.6,-265.54C1302.79,-255.64 1285.65,-242.22 1270.83,-230 1220.03,-188.1 1218.17,-161.56 1158.83,-133 1099.13,-104.27 1024.73,-91.92 969,-86.63"/>
<polygon fill="#63b8ff" stroke="#63b8ff" points="969.54,-83.17 959.27,-85.77 968.92,-90.14 969.54,-83.17"/>
</a>
</g>
</g>
<!-- Node31&#45;&gt;Node5 -->
<g id="edge51_Node000031_Node000005" class="edge">
<title>Node31&#45;&gt;Node5</title>
<g id="a_edge51_Node000031_Node000005"><a xlink:title=" ">
<path fill="none" stroke="#63b8ff" d="M1391.03,-279.61C1472.04,-277.36 1615.48,-267.96 1647.83,-230 1681.27,-190.76 1635.11,-129.47 1608.43,-99.88"/>
<polygon fill="#63b8ff" stroke="#63b8ff" points="1611.3,-97.82 1601.92,-92.88 1606.17,-102.59 1611.3,-97.82"/>
</a>
</g>
</g>
<!-- Node31&#45;&gt;Node6 -->
<g id="edge52_Node000031_Node000006" class="edge">
<title>Node31&#45;&gt;Node6</title>
<g id="a_edge52_Node000031_Node000006"><a xlink:title=" ">
<path fill="none" stroke="#63b8ff" d="M1278.68,-270.95C1244.98,-263.56 1202.29,-250.89 1168.83,-230 1142.66,-213.66 1119.7,-185.87 1106.29,-167.53"/>
<polygon fill="#63b8ff" stroke="#63b8ff" points="1109.21,-165.6 1100.58,-159.46 1103.5,-169.64 1109.21,-165.6"/>
</a>
</g>
</g>
<!-- Node31&#45;&gt;Node8 -->
<g id="edge54_Node000031_Node000008" class="edge">
<title>Node31&#45;&gt;Node8</title>
<g id="a_edge54_Node000031_Node000008"><a xlink:title=" ">
<path fill="none" stroke="#63b8ff" d="M1312.73,-265.59C1301.5,-256.77 1288.96,-244.45 1282.83,-230 1264.75,-187.39 1279.07,-131.78 1289.13,-102.61"/>
<polygon fill="#63b8ff" stroke="#63b8ff" points="1292.4,-103.85 1292.55,-93.26 1285.83,-101.44 1292.4,-103.85"/>
</a>
</g>
</g>
<!-- Node31&#45;&gt;Node9 -->
<g id="edge55_Node000031_Node000009" class="edge">
<title>Node31&#45;&gt;Node9</title>
<g id="a_edge55_Node000031_Node000009"><a xlink:title=" ">
<path fill="none" stroke="#63b8ff" d="M1391.11,-276.81C1492.4,-270.06 1696.92,-253.64 1718.83,-230 1750.94,-195.36 1740.92,-134.16 1732.82,-102.68"/>
<polygon fill="#63b8ff" stroke="#63b8ff" points="1736.27,-102 1730.21,-93.31 1729.52,-103.88 1736.27,-102"/>
</a>
</g>
</g>
<!-- Node31&#45;&gt;Node10 -->
<g id="edge56_Node000031_Node000010" class="edge">
<title>Node31&#45;&gt;Node10</title>
<g id="a_edge56_Node000031_Node000010"><a xlink:title=" ">
<path fill="none" stroke="#63b8ff" d="M1390.95,-278.58C1487.98,-274.83 1682.35,-263.3 1740.83,-230 1793.63,-199.94 1830.34,-134.67 1846.14,-102.07"/>
<polygon fill="#63b8ff" stroke="#63b8ff" points="1849.29,-103.58 1850.36,-93.04 1842.95,-100.62 1849.29,-103.58"/>
</a>
</g>
</g>
<!-- Node31&#45;&gt;Node11 -->
<g id="edge58_Node000031_Node000011" class="edge">
<title>Node31&#45;&gt;Node11</title>
<g id="a_edge58_Node000031_Node000011"><a xlink:title=" ">
<path fill="none" stroke="#63b8ff" d="M1391.24,-277.38C1493.35,-271.58 1704.59,-256.72 1772.83,-230 1850.52,-199.58 1925.24,-131.42 1957.36,-99.65"/>
<polygon fill="#63b8ff" stroke="#63b8ff" points="1959.62,-102.34 1964.19,-92.79 1954.66,-97.4 1959.62,-102.34"/>
</a>
</g>
</g>
<!-- Node31&#45;&gt;Node12 -->
<g id="edge59_Node000031_Node000012" class="edge">
<title>Node31&#45;&gt;Node12</title>
<g id="a_edge59_Node000031_Node000012"><a xlink:title=" ">
<path fill="none" stroke="#63b8ff" d="M1391.28,-281.25C1482.43,-281.34 1666.79,-275.22 1814.83,-230 1916.79,-198.86 2024.79,-129.24 2069.97,-98.2"/>
<polygon fill="#63b8ff" stroke="#63b8ff" points="2071.89,-101.13 2078.11,-92.55 2067.9,-95.38 2071.89,-101.13"/>
</a>
</g>
</g>
<!-- Node31&#45;&gt;Node13 -->
<g id="edge60_Node000031_Node000013" class="edge">
<title>Node31&#45;&gt;Node13</title>
<g id="a_edge60_Node000031_Node000013"><a xlink:title=" ">
<path fill="none" stroke="#63b8ff" d="M1326.13,-265.78C1317.38,-249.26 1306.43,-221.64 1315.83,-199.5 1335.23,-153.83 1382.2,-117.34 1411.59,-97.97"/>
<polygon fill="#63b8ff" stroke="#63b8ff" points="1413.36,-101 1419.9,-92.66 1409.59,-95.1 1413.36,-101"/>
</a>
</g>
</g>
<!-- Node31&#45;&gt;Node14 -->
<g id="edge61_Node000031_Node000014" class="edge">
<title>Node31&#45;&gt;Node14</title>
<g id="a_edge61_Node000031_Node000014"><a xlink:title=" ">
<path fill="none" stroke="#63b8ff" d="M1391.06,-280.23C1476.5,-278.87 1632.8,-270.72 1667.83,-230 1716.84,-173.04 1679.07,-118.5 1624.83,-66.5 1606.54,-48.96 1581.08,-36.91 1558.97,-29.02"/>
<polygon fill="#63b8ff" stroke="#63b8ff" points="1560.12,-25.71 1549.53,-25.85 1557.89,-32.35 1560.12,-25.71"/>
</a>
</g>
</g>
<!-- Node31&#45;&gt;Node15 -->
<g id="edge63_Node000031_Node000015" class="edge">
<title>Node31&#45;&gt;Node15</title>
<g id="a_edge63_Node000031_Node000015"><a xlink:title=" ">
<path fill="none" stroke="#63b8ff" d="M1278.51,-272.85C1185.68,-260.66 1001.29,-236.43 905.24,-223.82"/>
<polygon fill="#63b8ff" stroke="#63b8ff" points="905.85,-220.37 895.47,-222.53 904.93,-227.31 905.85,-220.37"/>
</a>
</g>
</g>
<!-- Node31&#45;&gt;Node21 -->
<g id="edge57_Node000031_Node000021" class="edge">
<title>Node31&#45;&gt;Node21</title>
<g id="a_edge57_Node000031_Node000021"><a xlink:title=" ">
<path fill="none" stroke="#63b8ff" d="M1278.34,-277.35C1178.39,-271.71 963.98,-257.36 784.83,-230 645.96,-208.79 610.95,-201.93 475.83,-163.5 474.11,-163.01 472.36,-162.49 470.59,-161.94"/>
<polygon fill="#63b8ff" stroke="#63b8ff" points="471.81,-158.65 461.22,-158.83 469.61,-165.3 471.81,-158.65"/>
</a>
</g>
</g>
<!-- Node31&#45;&gt;Node24 -->
<g id="edge66_Node000031_Node000024" class="edge">
<title>Node31&#45;&gt;Node24</title>
<g id="a_edge66_Node000031_Node000024"><a xlink:title=" ">
<path fill="none" stroke="#63b8ff" d="M1369.65,-265.67C1388.09,-256.94 1410.45,-244.69 1427.83,-230 1447.13,-213.69 1464.42,-190.6 1475.98,-173.29"/>
<polygon fill="#63b8ff" stroke="#63b8ff" points="1478.77,-175.42 1481.27,-165.13 1472.89,-171.61 1478.77,-175.42"/>
</a>
</g>
</g>
<!-- Node31&#45;&gt;Node25 -->
<g id="edge64_Node000031_Node000025" class="edge">
<title>Node31&#45;&gt;Node25</title>
<g id="a_edge64_Node000031_Node000025"><a xlink:title=" ">
<path fill="none" stroke="#63b8ff" d="M1278.44,-276.85C1095.21,-265.81 517.51,-230.98 326.68,-219.48"/>
<polygon fill="#63b8ff" stroke="#63b8ff" points="326.92,-215.99 316.72,-218.88 326.5,-222.97 326.92,-215.99"/>
</a>
</g>
</g>
<!-- Node31&#45;&gt;Node28 -->
<g id="edge65_Node000031_Node000028" class="edge">
<title>Node31&#45;&gt;Node28</title>
<g id="a_edge65_Node000031_Node000028"><a xlink:title=" ">
<path fill="none" stroke="#63b8ff" d="M1315.6,-265.54C1302.79,-255.64 1285.65,-242.22 1270.83,-230 1220.03,-188.1 1219.27,-159.14 1158.83,-133 1019.07,-72.54 966.11,-120.43 812.24,-97.19"/>
<polygon fill="#63b8ff" stroke="#63b8ff" points="812.91,-93.75 802.48,-95.63 811.81,-100.67 812.91,-93.75"/>
</a>
</g>
</g>
<!-- Node32 -->
<g id="Node000032" class="node">
<title>Node32</title>
<g id="a_Node000032"><a xlink:title=" ">
<polygon fill="#e0e0e0" stroke="#999999" points="1418.83,-224.38 1324.83,-224.38 1324.83,-205.12 1418.83,-205.12 1418.83,-224.38"/>
<text text-anchor="middle" x="1371.83" y="-210.88" font-family="Helvetica,sans-Serif" font-size="10.00">llvm/ADT/Bitset.h</text>
</a>
</g>
</g>
<!-- Node31&#45;&gt;Node32 -->
<g id="edge53_Node000031_Node000032" class="edge">
<title>Node31&#45;&gt;Node32</title>
<g id="a_edge53_Node000031_Node000032"><a xlink:title=" ">
<path fill="none" stroke="#63b8ff" d="M1343.23,-265.61C1348.55,-256.33 1355.49,-244.25 1361.19,-234.3"/>
<polygon fill="#63b8ff" stroke="#63b8ff" points="1364.08,-236.3 1366.02,-225.89 1358.01,-232.82 1364.08,-236.3"/>
</a>
</g>
</g>
<!-- Node33 -->
<g id="Node000033" class="node">
<title>Node33</title>
<g id="a_Node000033"><a xlink:href="_copyable_pointer_8h.html" target="_top" xlink:title=" ">
<polygon fill="white" stroke="#666666" points="1638.71,-224.38 1474.96,-224.38 1474.96,-205.12 1638.71,-205.12 1638.71,-224.38"/>
<text text-anchor="middle" x="1556.83" y="-210.88" font-family="Helvetica,sans-Serif" font-size="10.00">zklang/Support/CopyablePointer.h</text>
</a>
</g>
</g>
<!-- Node31&#45;&gt;Node33 -->
<g id="edge67_Node000031_Node000033" class="edge">
<title>Node31&#45;&gt;Node33</title>
<g id="a_edge67_Node000031_Node000033"><a xlink:title=" ">
<path fill="none" stroke="#63b8ff" d="M1385.49,-265.53C1424.57,-254.18 1477.99,-238.66 1514.74,-227.98"/>
<polygon fill="#63b8ff" stroke="#63b8ff" points="1515.5,-231.4 1524.12,-225.25 1513.55,-224.68 1515.5,-231.4"/>
</a>
</g>
</g>
<!-- Node34 -->
<g id="Node000034" class="node">
<title>Node34</title>
<g id="a_Node000034"><a xlink:title=" ">
<polygon fill="#e0e0e0" stroke="#999999" points="1598.46,-157.88 1559.21,-157.88 1559.21,-138.62 1598.46,-138.62 1598.46,-157.88"/>
<text text-anchor="middle" x="1578.83" y="-144.38" font-family="Helvetica,sans-Serif" font-size="10.00">utility</text>
</a>
</g>
</g>
<!-- Node33&#45;&gt;Node34 -->
<g id="edge68_Node000033_Node000034" class="edge">
<title>Node33&#45;&gt;Node34</title>
<g id="a_edge68_Node000033_Node000034"><a xlink:title=" ">
<path fill="none" stroke="#63b8ff" d="M1559.89,-204.78C1563.04,-195.54 1568.06,-180.83 1572.14,-168.88"/>
<polygon fill="#63b8ff" stroke="#63b8ff" points="1575.4,-170.17 1575.31,-159.57 1568.77,-167.91 1575.4,-170.17"/>
</a>
</g>
</g>
</g>
</svg>
