<?xml version="1.0" encoding="UTF-8" standalone="no"?>
<!DOCTYPE svg PUBLIC "-//W3C//DTD SVG 1.1//EN"
 "http://www.w3.org/Graphics/SVG/1.1/DTD/svg11.dtd">
<!-- Generated by graphviz version 12.2.1 (20241206.2353)
 -->
<!-- Title: lib/Passes/ConvertZmlToLlzk/LLZKTypeConverter.cpp Pages: 1 -->
<svg width="3373pt" height="238pt"
 viewBox="0.00 0.00 3372.50 238.00" xmlns="http://www.w3.org/2000/svg" xmlns:xlink="http://www.w3.org/1999/xlink">
<g id="graph0" class="graph" transform="scale(1 1) rotate(0) translate(4 234)">
<title>lib/Passes/ConvertZmlToLlzk/LLZKTypeConverter.cpp</title>
<!-- Node1 -->
<g id="Node000001" class="node">
<title>Node1</title>
<g id="a_Node000001"><a xlink:title=" ">
<polygon fill="#999999" stroke="#666666" points="1604.62,-230 1460.38,-230 1460.38,-199.5 1604.62,-199.5 1604.62,-230"/>
<text text-anchor="start" x="1468.38" y="-216.5" font-family="Helvetica,sans-Serif" font-size="10.00">lib/Passes/ConvertZmlToLlzk</text>
<text text-anchor="middle" x="1532.5" y="-205.25" font-family="Helvetica,sans-Serif" font-size="10.00">/LLZKTypeConverter.cpp</text>
</a>
</g>
</g>
<!-- Node2 -->
<g id="Node000002" class="node">
<title>Node2</title>
<g id="a_Node000002"><a xlink:title=" ">
<polygon fill="#e0e0e0" stroke="#999999" points="128.38,-157.88 72.62,-157.88 72.62,-138.62 128.38,-138.62 128.38,-157.88"/>
<text text-anchor="middle" x="100.5" y="-144.38" font-family="Helvetica,sans-Serif" font-size="10.00">algorithm</text>
</a>
</g>
</g>
<!-- Node1&#45;&gt;Node2 -->
<g id="edge1_Node000001_Node000002" class="edge">
<title>Node1&#45;&gt;Node2</title>
<g id="a_edge1_Node000001_Node000002"><a xlink:title=" ">
<path fill="none" stroke="#63b8ff" d="M1460.18,-214.29C1211.7,-215.67 394.07,-215.99 137.5,-163.5 135.46,-163.08 133.39,-162.57 131.33,-161.98"/>
<polygon fill="#63b8ff" stroke="#63b8ff" points="132.52,-158.69 121.93,-158.82 130.29,-165.32 132.52,-158.69"/>
</a>
</g>
</g>
<!-- Node3 -->
<g id="Node000003" class="node">
<title>Node3</title>
<g id="a_Node000003"><a xlink:title=" ">
<polygon fill="#e0e0e0" stroke="#999999" points="192.5,-157.88 146.5,-157.88 146.5,-138.62 192.5,-138.62 192.5,-157.88"/>
<text text-anchor="middle" x="169.5" y="-144.38" font-family="Helvetica,sans-Serif" font-size="10.00">iterator</text>
</a>
</g>
</g>
<!-- Node1&#45;&gt;Node3 -->
<g id="edge2_Node000001_Node000003" class="edge">
<title>Node1&#45;&gt;Node3</title>
<g id="a_edge2_Node000001_Node000003"><a xlink:title=" ">
<path fill="none" stroke="#63b8ff" d="M1460.03,-214.13C1219.48,-214.92 449.08,-213.37 206.5,-163.5 204.46,-163.08 202.39,-162.56 200.33,-161.98"/>
<polygon fill="#63b8ff" stroke="#63b8ff" points="201.52,-158.68 190.93,-158.81 199.29,-165.32 201.52,-158.68"/>
</a>
</g>
</g>
<!-- Node4 -->
<g id="Node000004" class="node">
<title>Node4</title>
<g id="a_Node000004"><a xlink:title=" ">
<polygon fill="#e0e0e0" stroke="#999999" points="121,-24.88 0,-24.88 0,-5.63 121,-5.63 121,-24.88"/>
<text text-anchor="middle" x="60.5" y="-11.38" font-family="Helvetica,sans-Serif" font-size="10.00">llvm/ADT/SmallVector.h</text>
</a>
</g>
</g>
<!-- Node1&#45;&gt;Node4 -->
<g id="edge3_Node000001_Node000004" class="edge">
<title>Node1&#45;&gt;Node4</title>
<g id="a_edge3_Node000001_Node000004"><a xlink:title=" ">
<path fill="none" stroke="#63b8ff" d="M1460.08,-212.67C1216.4,-208.78 435.26,-194.02 326.5,-163.5 226.99,-135.57 124.09,-64.22 81.2,-32.21"/>
<polygon fill="#63b8ff" stroke="#63b8ff" points="83.37,-29.47 73.28,-26.23 79.15,-35.05 83.37,-29.47"/>
</a>
</g>
</g>
<!-- Node5 -->
<g id="Node000005" class="node">
<title>Node5</title>
<g id="a_Node000005"><a xlink:title=" ">
<polygon fill="#e0e0e0" stroke="#999999" points="762.62,-157.88 612.38,-157.88 612.38,-138.62 762.62,-138.62 762.62,-157.88"/>
<text text-anchor="middle" x="687.5" y="-144.38" font-family="Helvetica,sans-Serif" font-size="10.00">llvm/ADT/SmallVectorExtras.h</text>
</a>
</g>
</g>
<!-- Node1&#45;&gt;Node5 -->
<g id="edge4_Node000001_Node000005" class="edge">
<title>Node1&#45;&gt;Node5</title>
<g id="a_edge4_Node000001_Node000005"><a xlink:title=" ">
<path fill="none" stroke="#63b8ff" d="M1460.14,-211.43C1324.62,-206.55 1023.49,-193.12 771.5,-163.5 763.52,-162.56 755.15,-161.38 746.9,-160.1"/>
<polygon fill="#63b8ff" stroke="#63b8ff" points="747.72,-156.69 737.29,-158.55 746.6,-163.6 747.72,-156.69"/>
</a>
</g>
</g>
<!-- Node6 -->
<g id="Node000006" class="node">
<title>Node6</title>
<g id="a_Node000006"><a xlink:title=" ">
<polygon fill="#e0e0e0" stroke="#999999" points="406.25,-91.38 286.75,-91.38 286.75,-72.12 406.25,-72.12 406.25,-91.38"/>
<text text-anchor="middle" x="346.5" y="-77.88" font-family="Helvetica,sans-Serif" font-size="10.00">llvm/ADT/TypeSwitch.h</text>
</a>
</g>
</g>
<!-- Node1&#45;&gt;Node6 -->
<g id="edge5_Node000001_Node000006" class="edge">
<title>Node1&#45;&gt;Node6</title>
<g id="a_edge5_Node000001_Node000006"><a xlink:title=" ">
<path fill="none" stroke="#63b8ff" d="M1460.09,-212.65C1235.03,-208.92 557.24,-195.14 463.5,-163.5 423.78,-150.09 385.26,-118.93 363.83,-99.47"/>
<polygon fill="#63b8ff" stroke="#63b8ff" points="366.3,-96.99 356.6,-92.73 361.53,-102.11 366.3,-96.99"/>
</a>
</g>
</g>
<!-- Node7 -->
<g id="Node000007" class="node">
<title>Node7</title>
<g id="a_Node000007"><a xlink:title=" ">
<polygon fill="#e0e0e0" stroke="#999999" points="922.12,-157.88 780.88,-157.88 780.88,-138.62 922.12,-138.62 922.12,-157.88"/>
<text text-anchor="middle" x="851.5" y="-144.38" font-family="Helvetica,sans-Serif" font-size="10.00">llvm/Support/ErrorHandling.h</text>
</a>
</g>
</g>
<!-- Node1&#45;&gt;Node7 -->
<g id="edge6_Node000001_Node000007" class="edge">
<title>Node1&#45;&gt;Node7</title>
<g id="a_edge6_Node000001_Node000007"><a xlink:title=" ">
<path fill="none" stroke="#63b8ff" d="M1459.98,-209.93C1346.64,-203.46 1120.78,-188.55 930.5,-163.5 923.52,-162.58 916.21,-161.47 908.99,-160.28"/>
<polygon fill="#63b8ff" stroke="#63b8ff" points="909.69,-156.85 899.24,-158.61 908.51,-163.75 909.69,-156.85"/>
</a>
</g>
</g>
<!-- Node8 -->
<g id="Node000008" class="node">
<title>Node8</title>
<g id="a_Node000008"><a xlink:title=" ">
<polygon fill="#e0e0e0" stroke="#999999" points="1071.25,-157.88 939.75,-157.88 939.75,-138.62 1071.25,-138.62 1071.25,-157.88"/>
<text text-anchor="middle" x="1005.5" y="-144.38" font-family="Helvetica,sans-Serif" font-size="10.00">llvm/Support/FileSystem.h</text>
</a>
</g>
</g>
<!-- Node1&#45;&gt;Node8 -->
<g id="edge7_Node000001_Node000008" class="edge">
<title>Node1&#45;&gt;Node8</title>
<g id="a_edge7_Node000001_Node000008"><a xlink:title=" ">
<path fill="none" stroke="#63b8ff" d="M1460.09,-207.51C1370.46,-199.38 1213.28,-183.77 1079.5,-163.5 1073.44,-162.58 1067.11,-161.52 1060.83,-160.4"/>
<polygon fill="#63b8ff" stroke="#63b8ff" points="1061.57,-156.98 1051.11,-158.62 1060.31,-163.87 1061.57,-156.98"/>
</a>
</g>
</g>
<!-- Node9 -->
<g id="Node000009" class="node">
<title>Node9</title>
<g id="a_Node000009"><a xlink:title=" ">
<polygon fill="#e0e0e0" stroke="#999999" points="1180,-163.5 1089,-163.5 1089,-133 1180,-133 1180,-163.5"/>
<text text-anchor="start" x="1097" y="-150" font-family="Helvetica,sans-Serif" font-size="10.00">llzk/Dialect/Array</text>
<text text-anchor="middle" x="1134.5" y="-138.75" font-family="Helvetica,sans-Serif" font-size="10.00">/IR/Ops.h</text>
</a>
</g>
</g>
<!-- Node1&#45;&gt;Node9 -->
<g id="edge8_Node000001_Node000009" class="edge">
<title>Node1&#45;&gt;Node9</title>
<g id="a_edge8_Node000001_Node000009"><a xlink:title=" ">
<path fill="none" stroke="#63b8ff" d="M1459.94,-205.57C1392.56,-197.42 1289.28,-183.55 1191.36,-163.96"/>
<polygon fill="#63b8ff" stroke="#63b8ff" points="1192.35,-160.59 1181.86,-162.03 1190.96,-167.45 1192.35,-160.59"/>
</a>
</g>
</g>
<!-- Node10 -->
<g id="Node000010" class="node">
<title>Node10</title>
<g id="a_Node000010"><a xlink:title=" ">
<polygon fill="#e0e0e0" stroke="#999999" points="1289,-163.5 1198,-163.5 1198,-133 1289,-133 1289,-163.5"/>
<text text-anchor="start" x="1206" y="-150" font-family="Helvetica,sans-Serif" font-size="10.00">llzk/Dialect/Array</text>
<text text-anchor="middle" x="1243.5" y="-138.75" font-family="Helvetica,sans-Serif" font-size="10.00">/IR/Types.h</text>
</a>
</g>
</g>
<!-- Node1&#45;&gt;Node10 -->
<g id="edge9_Node000001_Node000010" class="edge">
<title>Node1&#45;&gt;Node10</title>
<g id="a_edge9_Node000001_Node000010"><a xlink:title=" ">
<path fill="none" stroke="#63b8ff" d="M1460.12,-199.02C1416.51,-189.96 1359.61,-177.81 1300.45,-163.91"/>
<polygon fill="#63b8ff" stroke="#63b8ff" points="1301.39,-160.53 1290.85,-161.64 1299.78,-167.34 1301.39,-160.53"/>
</a>
</g>
</g>
<!-- Node11 -->
<g id="Node000011" class="node">
<title>Node11</title>
<g id="a_Node000011"><a xlink:title=" ">
<polygon fill="#e0e0e0" stroke="#999999" points="1407.88,-163.5 1307.12,-163.5 1307.12,-133 1407.88,-133 1407.88,-163.5"/>
<text text-anchor="start" x="1315.12" y="-150" font-family="Helvetica,sans-Serif" font-size="10.00">llzk/Dialect/Bool/IR</text>
<text text-anchor="middle" x="1357.5" y="-138.75" font-family="Helvetica,sans-Serif" font-size="10.00">/Ops.h</text>
</a>
</g>
</g>
<!-- Node1&#45;&gt;Node11 -->
<g id="edge10_Node000001_Node000011" class="edge">
<title>Node1&#45;&gt;Node11</title>
<g id="a_edge10_Node000001_Node000011"><a xlink:title=" ">
<path fill="none" stroke="#63b8ff" d="M1492.79,-199.11C1467.71,-189.87 1435.07,-177.84 1408.13,-167.91"/>
<polygon fill="#63b8ff" stroke="#63b8ff" points="1409.37,-164.64 1398.78,-164.46 1406.95,-171.21 1409.37,-164.64"/>
</a>
</g>
</g>
<!-- Node12 -->
<g id="Node000012" class="node">
<title>Node12</title>
<g id="a_Node000012"><a xlink:title=" ">
<polygon fill="#e0e0e0" stroke="#999999" points="1523.38,-163.5 1425.62,-163.5 1425.62,-133 1523.38,-133 1523.38,-163.5"/>
<text text-anchor="start" x="1433.62" y="-150" font-family="Helvetica,sans-Serif" font-size="10.00">llzk/Dialect/Felt/IR</text>
<text text-anchor="middle" x="1474.5" y="-138.75" font-family="Helvetica,sans-Serif" font-size="10.00">/Ops.h</text>
</a>
</g>
</g>
<!-- Node1&#45;&gt;Node12 -->
<g id="edge11_Node000001_Node000012" class="edge">
<title>Node1&#45;&gt;Node12</title>
<g id="a_edge11_Node000001_Node000012"><a xlink:title=" ">
<path fill="none" stroke="#63b8ff" d="M1519.34,-199.11C1512.22,-191.2 1503.26,-181.24 1495.23,-172.3"/>
<polygon fill="#63b8ff" stroke="#63b8ff" points="1497.91,-170.05 1488.62,-164.95 1492.7,-174.73 1497.91,-170.05"/>
</a>
</g>
</g>
<!-- Node13 -->
<g id="Node000013" class="node">
<title>Node13</title>
<g id="a_Node000013"><a xlink:title=" ">
<polygon fill="#e0e0e0" stroke="#999999" points="1639.38,-163.5 1541.62,-163.5 1541.62,-133 1639.38,-133 1639.38,-163.5"/>
<text text-anchor="start" x="1549.62" y="-150" font-family="Helvetica,sans-Serif" font-size="10.00">llzk/Dialect/Felt/IR</text>
<text text-anchor="middle" x="1590.5" y="-138.75" font-family="Helvetica,sans-Serif" font-size="10.00">/Types.h</text>
</a>
</g>
</g>
<!-- Node1&#45;&gt;Node13 -->
<g id="edge12_Node000001_Node000013" class="edge">
<title>Node1&#45;&gt;Node13</title>
<g id="a_edge12_Node000001_Node000013"><a xlink:title=" ">
<path fill="none" stroke="#63b8ff" d="M1545.66,-199.11C1552.78,-191.2 1561.74,-181.24 1569.77,-172.3"/>
<polygon fill="#63b8ff" stroke="#63b8ff" points="1572.3,-174.73 1576.38,-164.95 1567.09,-170.05 1572.3,-174.73"/>
</a>
</g>
</g>
<!-- Node14 -->
<g id="Node000014" class="node">
<title>Node14</title>
<g id="a_Node000014"><a xlink:title=" ">
<polygon fill="#e0e0e0" stroke="#999999" points="1779.38,-163.5 1657.62,-163.5 1657.62,-133 1779.38,-133 1779.38,-163.5"/>
<text text-anchor="start" x="1665.62" y="-150" font-family="Helvetica,sans-Serif" font-size="10.00">llzk/Dialect/Polymorphic</text>
<text text-anchor="middle" x="1718.5" y="-138.75" font-family="Helvetica,sans-Serif" font-size="10.00">/IR/Ops.h</text>
</a>
</g>
</g>
<!-- Node1&#45;&gt;Node14 -->
<g id="edge13_Node000001_Node000014" class="edge">
<title>Node1&#45;&gt;Node14</title>
<g id="a_edge13_Node000001_Node000014"><a xlink:title=" ">
<path fill="none" stroke="#63b8ff" d="M1574.71,-199.11C1601.6,-189.79 1636.68,-177.62 1665.45,-167.65"/>
<polygon fill="#63b8ff" stroke="#63b8ff" points="1666.41,-171.02 1674.71,-164.44 1664.11,-164.41 1666.41,-171.02"/>
</a>
</g>
</g>
<!-- Node15 -->
<g id="Node000015" class="node">
<title>Node15</title>
<g id="a_Node000015"><a xlink:title=" ">
<polygon fill="#e0e0e0" stroke="#999999" points="1919.38,-163.5 1797.62,-163.5 1797.62,-133 1919.38,-133 1919.38,-163.5"/>
<text text-anchor="start" x="1805.62" y="-150" font-family="Helvetica,sans-Serif" font-size="10.00">llzk/Dialect/Polymorphic</text>
<text text-anchor="middle" x="1858.5" y="-138.75" font-family="Helvetica,sans-Serif" font-size="10.00">/IR/Types.h</text>
</a>
</g>
</g>
<!-- Node1&#45;&gt;Node15 -->
<g id="edge14_Node000001_Node000015" class="edge">
<title>Node1&#45;&gt;Node15</title>
<g id="a_edge14_Node000001_Node000015"><a xlink:title=" ">
<path fill="none" stroke="#63b8ff" d="M1605.08,-199.64C1653.64,-190.17 1719.29,-177.31 1786.23,-163.95"/>
<polygon fill="#63b8ff" stroke="#63b8ff" points="1786.82,-167.4 1795.94,-162.01 1785.45,-160.53 1786.82,-167.4"/>
</a>
</g>
</g>
<!-- Node16 -->
<g id="Node000016" class="node">
<title>Node16</title>
<g id="a_Node000016"><a xlink:title=" ">
<polygon fill="#e0e0e0" stroke="#999999" points="2031.12,-163.5 1937.88,-163.5 1937.88,-133 2031.12,-133 2031.12,-163.5"/>
<text text-anchor="start" x="1945.88" y="-150" font-family="Helvetica,sans-Serif" font-size="10.00">llzk/Dialect/String</text>
<text text-anchor="middle" x="1984.5" y="-138.75" font-family="Helvetica,sans-Serif" font-size="10.00">/IR/Types.h</text>
</a>
</g>
</g>
<!-- Node1&#45;&gt;Node16 -->
<g id="edge15_Node000001_Node000016" class="edge">
<title>Node1&#45;&gt;Node16</title>
<g id="a_edge15_Node000001_Node000016"><a xlink:title=" ">
<path fill="none" stroke="#63b8ff" d="M1604.82,-207.27C1682.11,-199.73 1808.4,-185.69 1926.5,-163.73"/>
<polygon fill="#63b8ff" stroke="#63b8ff" points="1926.87,-167.22 1936.05,-161.93 1925.58,-160.34 1926.87,-167.22"/>
</a>
</g>
</g>
<!-- Node17 -->
<g id="Node000017" class="node">
<title>Node17</title>
<g id="a_Node000017"><a xlink:title=" ">
<polygon fill="#e0e0e0" stroke="#999999" points="2143.5,-163.5 2049.5,-163.5 2049.5,-133 2143.5,-133 2143.5,-163.5"/>
<text text-anchor="start" x="2057.5" y="-150" font-family="Helvetica,sans-Serif" font-size="10.00">llzk/Dialect/Struct</text>
<text text-anchor="middle" x="2096.5" y="-138.75" font-family="Helvetica,sans-Serif" font-size="10.00">/IR/Ops.h</text>
</a>
</g>
</g>
<!-- Node1&#45;&gt;Node17 -->
<g id="edge16_Node000001_Node000017" class="edge">
<title>Node1&#45;&gt;Node17</title>
<g id="a_edge16_Node000001_Node000017"><a xlink:title=" ">
<path fill="none" stroke="#63b8ff" d="M1604.89,-210.03C1701.63,-204.29 1878.48,-191.13 2038.27,-163.72"/>
<polygon fill="#63b8ff" stroke="#63b8ff" points="2038.51,-167.23 2047.76,-162.07 2037.31,-160.33 2038.51,-167.23"/>
</a>
</g>
</g>
<!-- Node18 -->
<g id="Node000018" class="node">
<title>Node18</title>
<g id="a_Node000018"><a xlink:title=" ">
<polygon fill="#e0e0e0" stroke="#999999" points="2255.5,-163.5 2161.5,-163.5 2161.5,-133 2255.5,-133 2255.5,-163.5"/>
<text text-anchor="start" x="2169.5" y="-150" font-family="Helvetica,sans-Serif" font-size="10.00">llzk/Dialect/Struct</text>
<text text-anchor="middle" x="2208.5" y="-138.75" font-family="Helvetica,sans-Serif" font-size="10.00">/IR/Types.h</text>
</a>
</g>
</g>
<!-- Node1&#45;&gt;Node18 -->
<g id="edge17_Node000001_Node000018" class="edge">
<title>Node1&#45;&gt;Node18</title>
<g id="a_edge17_Node000001_Node000018"><a xlink:title=" ">
<path fill="none" stroke="#63b8ff" d="M1605.06,-211.82C1719.22,-207.92 1947.78,-196.61 2150.12,-163.7"/>
<polygon fill="#63b8ff" stroke="#63b8ff" points="2150.47,-167.19 2159.77,-162.11 2149.33,-160.29 2150.47,-167.19"/>
</a>
</g>
</g>
<!-- Node19 -->
<g id="Node000019" class="node">
<title>Node19</title>
<g id="a_Node000019"><a xlink:title=" ">
<polygon fill="#e0e0e0" stroke="#999999" points="2361.88,-163.5 2273.12,-163.5 2273.12,-133 2361.88,-133 2361.88,-163.5"/>
<text text-anchor="start" x="2281.12" y="-150" font-family="Helvetica,sans-Serif" font-size="10.00">mlir/Dialect/Arith</text>
<text text-anchor="middle" x="2317.5" y="-138.75" font-family="Helvetica,sans-Serif" font-size="10.00">/IR/Arith.h</text>
</a>
</g>
</g>
<!-- Node1&#45;&gt;Node19 -->
<g id="edge18_Node000001_Node000019" class="edge">
<title>Node1&#45;&gt;Node19</title>
<g id="a_edge18_Node000001_Node000019"><a xlink:title=" ">
<path fill="none" stroke="#63b8ff" d="M1604.99,-213.42C1735.06,-211.81 2016.62,-203.72 2261.55,-163.78"/>
<polygon fill="#63b8ff" stroke="#63b8ff" points="2262.03,-167.25 2271.32,-162.17 2260.88,-160.35 2262.03,-167.25"/>
</a>
</g>
</g>
<!-- Node20 -->
<g id="Node000020" class="node">
<title>Node20</title>
<g id="a_Node000020"><a xlink:title=" ">
<polygon fill="#e0e0e0" stroke="#999999" points="2472.75,-163.5 2380.25,-163.5 2380.25,-133 2472.75,-133 2472.75,-163.5"/>
<text text-anchor="start" x="2388.25" y="-150" font-family="Helvetica,sans-Serif" font-size="10.00">mlir/Dialect/Index</text>
<text text-anchor="middle" x="2426.5" y="-138.75" font-family="Helvetica,sans-Serif" font-size="10.00">/IR/IndexOps.h</text>
</a>
</g>
</g>
<!-- Node1&#45;&gt;Node20 -->
<g id="edge19_Node000001_Node000020" class="edge">
<title>Node1&#45;&gt;Node20</title>
<g id="a_edge19_Node000001_Node000020"><a xlink:title=" ">
<path fill="none" stroke="#63b8ff" d="M1605.01,-214C1749.03,-213.5 2081.28,-207.38 2368.82,-163.52"/>
<polygon fill="#63b8ff" stroke="#63b8ff" points="2369.04,-167.03 2378.39,-162.05 2367.97,-160.11 2369.04,-167.03"/>
</a>
</g>
</g>
<!-- Node21 -->
<g id="Node000021" class="node">
<title>Node21</title>
<g id="a_Node000021"><a xlink:title=" ">
<polygon fill="#e0e0e0" stroke="#999999" points="2589.75,-157.88 2491.25,-157.88 2491.25,-138.62 2589.75,-138.62 2589.75,-157.88"/>
<text text-anchor="middle" x="2540.5" y="-144.38" font-family="Helvetica,sans-Serif" font-size="10.00">mlir/IR/Attributes.h</text>
</a>
</g>
</g>
<!-- Node1&#45;&gt;Node21 -->
<g id="edge20_Node000001_Node000021" class="edge">
<title>Node1&#45;&gt;Node21</title>
<g id="a_edge20_Node000001_Node000021"><a xlink:title=" ">
<path fill="none" stroke="#63b8ff" d="M1604.97,-214.44C1764.37,-214.97 2157.03,-210.86 2481.5,-163.5 2486.44,-162.78 2491.58,-161.84 2496.67,-160.78"/>
<polygon fill="#63b8ff" stroke="#63b8ff" points="2497.16,-164.25 2506.16,-158.65 2495.63,-157.42 2497.16,-164.25"/>
</a>
</g>
</g>
<!-- Node22 -->
<g id="Node000022" class="node">
<title>Node22</title>
<g id="a_Node000022"><a xlink:title=" ">
<polygon fill="#e0e0e0" stroke="#999999" points="2784.38,-24.88 2692.62,-24.88 2692.62,-5.63 2784.38,-5.63 2784.38,-24.88"/>
<text text-anchor="middle" x="2738.5" y="-11.38" font-family="Helvetica,sans-Serif" font-size="10.00">mlir/IR/Builders.h</text>
</a>
</g>
</g>
<!-- Node1&#45;&gt;Node22 -->
<g id="edge21_Node000001_Node000022" class="edge">
<title>Node1&#45;&gt;Node22</title>
<g id="a_edge21_Node000001_Node000022"><a xlink:title=" ">
<path fill="none" stroke="#63b8ff" d="M1604.83,-212.68C1838.45,-208.92 2559.98,-194.83 2598.5,-163.5 2633.04,-135.41 2594.63,-100.39 2623.5,-66.5 2639.03,-48.27 2662.43,-36.43 2684.07,-28.85"/>
<polygon fill="#63b8ff" stroke="#63b8ff" points="2684.97,-32.24 2693.41,-25.83 2682.82,-25.58 2684.97,-32.24"/>
</a>
</g>
</g>
<!-- Node23 -->
<g id="Node000023" class="node">
<title>Node23</title>
<g id="a_Node000023"><a xlink:title=" ">
<polygon fill="#e0e0e0" stroke="#999999" points="240.25,-24.88 138.75,-24.88 138.75,-5.63 240.25,-5.63 240.25,-24.88"/>
<text text-anchor="middle" x="189.5" y="-11.38" font-family="Helvetica,sans-Serif" font-size="10.00">mlir/IR/BuiltinOps.h</text>
</a>
</g>
</g>
<!-- Node1&#45;&gt;Node23 -->
<g id="edge22_Node000001_Node000023" class="edge">
<title>Node1&#45;&gt;Node23</title>
<g id="a_edge22_Node000001_Node000023"><a xlink:title=" ">
<path fill="none" stroke="#63b8ff" d="M1459.96,-212.35C1226.8,-207.59 505.82,-190.83 404.5,-163.5 342.98,-146.91 329.64,-133.63 277.5,-97 250.19,-77.82 222.44,-50.84 205.59,-33.45"/>
<polygon fill="#63b8ff" stroke="#63b8ff" points="208.32,-31.23 198.88,-26.41 203.25,-36.07 208.32,-31.23"/>
</a>
</g>
</g>
<!-- Node24 -->
<g id="Node000024" class="node">
<title>Node24</title>
<g id="a_Node000024"><a xlink:title=" ">
<polygon fill="#e0e0e0" stroke="#999999" points="506.88,-91.38 424.12,-91.38 424.12,-72.12 506.88,-72.12 506.88,-91.38"/>
<text text-anchor="middle" x="465.5" y="-77.88" font-family="Helvetica,sans-Serif" font-size="10.00">mlir/IR/Types.h</text>
</a>
</g>
</g>
<!-- Node1&#45;&gt;Node24 -->
<g id="edge23_Node000001_Node000024" class="edge">
<title>Node1&#45;&gt;Node24</title>
<g id="a_edge23_Node000001_Node000024"><a xlink:title=" ">
<path fill="none" stroke="#63b8ff" d="M1460.16,-212.65C1229.13,-208.84 521.96,-194.66 484.5,-163.5 467.14,-149.06 463.92,-122.01 464.03,-103.22"/>
<polygon fill="#63b8ff" stroke="#63b8ff" points="467.52,-103.43 464.44,-93.3 460.53,-103.14 467.52,-103.43"/>
</a>
</g>
</g>
<!-- Node25 -->
<g id="Node000025" class="node">
<title>Node25</title>
<g id="a_Node000025"><a xlink:title=" ">
<polygon fill="#e0e0e0" stroke="#999999" points="2971,-157.88 2832,-157.88 2832,-138.62 2971,-138.62 2971,-157.88"/>
<text text-anchor="middle" x="2901.5" y="-144.38" font-family="Helvetica,sans-Serif" font-size="10.00">mlir/Support/LogicalResult.h</text>
</a>
</g>
</g>
<!-- Node1&#45;&gt;Node25 -->
<g id="edge24_Node000001_Node000025" class="edge">
<title>Node1&#45;&gt;Node25</title>
<g id="a_edge24_Node000001_Node000025"><a xlink:title=" ">
<path fill="none" stroke="#63b8ff" d="M1604.79,-214.46C1801.16,-215.63 2360.74,-213.89 2822.5,-163.5 2830.22,-162.66 2838.33,-161.51 2846.28,-160.22"/>
<polygon fill="#63b8ff" stroke="#63b8ff" points="2846.61,-163.72 2855.88,-158.59 2845.43,-156.81 2846.61,-163.72"/>
</a>
</g>
</g>
<!-- Node26 -->
<g id="Node000026" class="node">
<title>Node26</title>
<g id="a_Node000026"><a xlink:title=" ">
<polygon fill="#e0e0e0" stroke="#999999" points="3038.38,-157.88 2988.62,-157.88 2988.62,-138.62 3038.38,-138.62 3038.38,-157.88"/>
<text text-anchor="middle" x="3013.5" y="-144.38" font-family="Helvetica,sans-Serif" font-size="10.00">optional</text>
</a>
</g>
</g>
<!-- Node1&#45;&gt;Node26 -->
<g id="edge25_Node000001_Node000026" class="edge">
<title>Node1&#45;&gt;Node26</title>
<g id="a_edge25_Node000001_Node000026"><a xlink:title=" ">
<path fill="none" stroke="#63b8ff" d="M1604.67,-212.82C1878.67,-209.06 2845.91,-193.76 2980.5,-163.5 2982.1,-163.14 2983.72,-162.71 2985.33,-162.21"/>
<polygon fill="#63b8ff" stroke="#63b8ff" points="2986.18,-165.63 2994.33,-158.87 2983.74,-159.07 2986.18,-165.63"/>
</a>
</g>
</g>
<!-- Node27 -->
<g id="Node000027" class="node">
<title>Node27</title>
<g id="a_Node000027"><a xlink:href="_attrs_8h.html" target="_top" xlink:title=" ">
<polygon fill="white" stroke="#666666" points="3192.88,-163.5 3092.12,-163.5 3092.12,-133 3192.88,-133 3192.88,-163.5"/>
<text text-anchor="start" x="3100.12" y="-150" font-family="Helvetica,sans-Serif" font-size="10.00">zklang/Dialect/ZML</text>
<text text-anchor="middle" x="3142.5" y="-138.75" font-family="Helvetica,sans-Serif" font-size="10.00">/IR/Attrs.h</text>
</a>
</g>
</g>
<!-- Node1&#45;&gt;Node27 -->
<g id="edge26_Node000001_Node000027" class="edge">
<title>Node1&#45;&gt;Node27</title>
<g id="a_edge26_Node000001_Node000027"><a xlink:title=" ">
<path fill="none" stroke="#63b8ff" d="M1604.83,-214.31C1823.1,-215.38 2494.19,-214 3047.5,-163.5 3058.22,-162.52 3069.58,-161.13 3080.57,-159.6"/>
<polygon fill="#63b8ff" stroke="#63b8ff" points="3080.96,-163.08 3090.35,-158.17 3079.95,-156.15 3080.96,-163.08"/>
</a>
</g>
</g>
<!-- Node30 -->
<g id="Node000030" class="node">
<title>Node30</title>
<g id="a_Node000030"><a xlink:href="_types_8h.html" target="_top" xlink:title=" ">
<polygon fill="white" stroke="#666666" points="593.88,-163.5 493.12,-163.5 493.12,-133 593.88,-133 593.88,-163.5"/>
<text text-anchor="start" x="501.12" y="-150" font-family="Helvetica,sans-Serif" font-size="10.00">zklang/Dialect/ZML</text>
<text text-anchor="middle" x="543.5" y="-138.75" font-family="Helvetica,sans-Serif" font-size="10.00">/IR/Types.h</text>
</a>
</g>
</g>
<!-- Node1&#45;&gt;Node30 -->
<g id="edge29_Node000001_Node000030" class="edge">
<title>Node1&#45;&gt;Node30</title>
<g id="a_edge29_Node000001_Node000030"><a xlink:title=" ">
<path fill="none" stroke="#63b8ff" d="M1460.09,-214.23C1304.9,-214.3 928.79,-209.41 605.12,-163.52"/>
<polygon fill="#63b8ff" stroke="#63b8ff" points="606.01,-160.12 595.61,-162.16 605.02,-167.04 606.01,-160.12"/>
</a>
</g>
</g>
<!-- Node50 -->
<g id="Node000050" class="node">
<title>Node50</title>
<g id="a_Node000050"><a xlink:href="_l_l_z_k_type_converter_8h.html" target="_top" xlink:title=" ">
<polygon fill="white" stroke="#666666" points="2813.5,-163.5 2671.5,-163.5 2671.5,-133 2813.5,-133 2813.5,-163.5"/>
<text text-anchor="start" x="2679.5" y="-150" font-family="Helvetica,sans-Serif" font-size="10.00">zklang/Passes/ConvertZml</text>
<text text-anchor="middle" x="2742.5" y="-138.75" font-family="Helvetica,sans-Serif" font-size="10.00">ToLlzk/LLZKTypeConverter.h</text>
</a>
</g>
</g>
<!-- Node1&#45;&gt;Node50 -->
<g id="edge49_Node000001_Node000050" class="edge">
<title>Node1&#45;&gt;Node50</title>
<g id="a_edge49_Node000001_Node000050"><a xlink:title=" ">
<path fill="none" stroke="#63b8ff" d="M1604.97,-212.49C1781.08,-208.98 2245.47,-197.05 2631.5,-163.5 2640.75,-162.7 2650.42,-161.7 2660.02,-160.6"/>
<polygon fill="#63b8ff" stroke="#63b8ff" points="2660.21,-164.1 2669.73,-159.45 2659.39,-157.15 2660.21,-164.1"/>
</a>
</g>
</g>
<!-- Node28 -->
<g id="Node000028" class="node">
<title>Node28</title>
<g id="a_Node000028"><a xlink:title=" ">
<polygon fill="#e0e0e0" stroke="#999999" points="3364.5,-91.38 3210.5,-91.38 3210.5,-72.12 3364.5,-72.12 3364.5,-91.38"/>
<text text-anchor="middle" x="3287.5" y="-77.88" font-family="Helvetica,sans-Serif" font-size="10.00">mlir/IR/DialectImplementation.h</text>
</a>
</g>
</g>
<!-- Node27&#45;&gt;Node28 -->
<g id="edge27_Node000027_Node000028" class="edge">
<title>Node27&#45;&gt;Node28</title>
<g id="a_edge27_Node000027_Node000028"><a xlink:title=" ">
<path fill="none" stroke="#63b8ff" d="M3175.4,-132.61C3199.89,-121.72 3233.08,-106.96 3256.98,-96.33"/>
<polygon fill="#63b8ff" stroke="#63b8ff" points="3258.15,-99.64 3265.86,-92.37 3255.3,-93.24 3258.15,-99.64"/>
</a>
</g>
</g>
<!-- Node29 -->
<g id="Node000029" class="node">
<title>Node29</title>
<g id="a_Node000029"><a xlink:href="_attrs_8h_8inc.html" target="_top" xlink:title=" ">
<polygon fill="white" stroke="#666666" points="3192.88,-97 3092.12,-97 3092.12,-66.5 3192.88,-66.5 3192.88,-97"/>
<text text-anchor="start" x="3100.12" y="-83.5" font-family="Helvetica,sans-Serif" font-size="10.00">zklang/Dialect/ZML</text>
<text text-anchor="middle" x="3142.5" y="-72.25" font-family="Helvetica,sans-Serif" font-size="10.00">/IR/Attrs.h.inc</text>
</a>
</g>
</g>
<!-- Node27&#45;&gt;Node29 -->
<g id="edge28_Node000027_Node000029" class="edge">
<title>Node27&#45;&gt;Node29</title>
<g id="a_edge28_Node000027_Node000029"><a xlink:title=" ">
<path fill="none" stroke="#63b8ff" d="M3142.5,-132.61C3142.5,-125.52 3142.5,-116.79 3142.5,-108.63"/>
<polygon fill="#63b8ff" stroke="#63b8ff" points="3146,-108.84 3142.5,-98.84 3139,-108.84 3146,-108.84"/>
</a>
</g>
</g>
<!-- Node30&#45;&gt;Node6 -->
<g id="edge30_Node000030_Node000006" class="edge">
<title>Node30&#45;&gt;Node6</title>
<g id="a_edge30_Node000030_Node000006"><a xlink:title=" ">
<path fill="none" stroke="#63b8ff" d="M498.8,-132.61C464.58,-121.41 417.86,-106.11 385.22,-95.43"/>
<polygon fill="#63b8ff" stroke="#63b8ff" points="386.34,-92.11 375.74,-92.32 384.16,-98.76 386.34,-92.11"/>
</a>
</g>
</g>
<!-- Node30&#45;&gt;Node24 -->
<g id="edge33_Node000030_Node000024" class="edge">
<title>Node30&#45;&gt;Node24</title>
<g id="a_edge33_Node000030_Node000024"><a xlink:title=" ">
<path fill="none" stroke="#63b8ff" d="M525.8,-132.61C513.62,-122.54 497.45,-109.17 484.92,-98.81"/>
<polygon fill="#63b8ff" stroke="#63b8ff" points="487.27,-96.21 477.34,-92.54 482.81,-101.61 487.27,-96.21"/>
</a>
</g>
</g>
<!-- Node31 -->
<g id="Node000031" class="node">
<title>Node31</title>
<g id="a_Node000031"><a xlink:title=" ">
<polygon fill="#e0e0e0" stroke="#999999" points="753.38,-91.38 643.62,-91.38 643.62,-72.12 753.38,-72.12 753.38,-91.38"/>
<text text-anchor="middle" x="698.5" y="-77.88" font-family="Helvetica,sans-Serif" font-size="10.00">mlir/IR/BuiltinTypes.h</text>
</a>
</g>
</g>
<!-- Node30&#45;&gt;Node31 -->
<g id="edge31_Node000030_Node000031" class="edge">
<title>Node30&#45;&gt;Node31</title>
<g id="a_edge31_Node000030_Node000031"><a xlink:title=" ">
<path fill="none" stroke="#63b8ff" d="M578.67,-132.61C604.97,-121.67 640.65,-106.82 666.22,-96.18"/>
<polygon fill="#63b8ff" stroke="#63b8ff" points="667.56,-99.41 675.45,-92.34 664.87,-92.95 667.56,-99.41"/>
</a>
</g>
</g>
<!-- Node32 -->
<g id="Node000032" class="node">
<title>Node32</title>
<g id="a_Node000032"><a xlink:title=" ">
<polygon fill="#e0e0e0" stroke="#999999" points="883.88,-91.38 771.12,-91.38 771.12,-72.12 883.88,-72.12 883.88,-91.38"/>
<text text-anchor="middle" x="827.5" y="-77.88" font-family="Helvetica,sans-Serif" font-size="10.00">mlir/IR/SymbolTable.h</text>
</a>
</g>
</g>
<!-- Node30&#45;&gt;Node32 -->
<g id="edge32_Node000030_Node000032" class="edge">
<title>Node30&#45;&gt;Node32</title>
<g id="a_edge32_Node000030_Node000032"><a xlink:title=" ">
<path fill="none" stroke="#63b8ff" d="M594.23,-135.15C597.36,-134.42 600.47,-133.7 603.5,-133 662.21,-119.44 729.7,-104.37 775.13,-94.3"/>
<polygon fill="#63b8ff" stroke="#63b8ff" points="775.7,-97.76 784.7,-92.18 774.18,-90.93 775.7,-97.76"/>
</a>
</g>
</g>
<!-- Node33 -->
<g id="Node000033" class="node">
<title>Node33</title>
<g id="a_Node000033"><a xlink:title=" ">
<polygon fill="#e0e0e0" stroke="#999999" points="1366.25,-30.5 1234.75,-30.5 1234.75,0 1366.25,0 1366.25,-30.5"/>
<text text-anchor="start" x="1242.75" y="-17" font-family="Helvetica,sans-Serif" font-size="10.00">mlir/Interfaces/DataLayout</text>
<text text-anchor="middle" x="1300.5" y="-5.75" font-family="Helvetica,sans-Serif" font-size="10.00">Interfaces.h</text>
</a>
</g>
</g>
<!-- Node30&#45;&gt;Node33 -->
<g id="edge34_Node000030_Node000033" class="edge">
<title>Node30&#45;&gt;Node33</title>
<g id="a_edge34_Node000030_Node000033"><a xlink:title=" ">
<path fill="none" stroke="#63b8ff" d="M594.12,-134.55C597.28,-133.97 600.43,-133.44 603.5,-133 678.17,-122.24 1223.63,-145.39 1281.5,-97 1297.2,-83.88 1301.32,-60.45 1301.89,-42.2"/>
<polygon fill="#63b8ff" stroke="#63b8ff" points="1305.39,-42.34 1301.83,-32.36 1298.39,-42.38 1305.39,-42.34"/>
</a>
</g>
</g>
<!-- Node34 -->
<g id="Node000034" class="node">
<title>Node34</title>
<g id="a_Node000034"><a xlink:title=" ">
<polygon fill="#e0e0e0" stroke="#999999" points="1035.38,-97 901.62,-97 901.62,-66.5 1035.38,-66.5 1035.38,-97"/>
<text text-anchor="start" x="909.62" y="-83.5" font-family="Helvetica,sans-Serif" font-size="10.00">mlir/Interfaces/MemorySlot</text>
<text text-anchor="middle" x="968.5" y="-72.25" font-family="Helvetica,sans-Serif" font-size="10.00">Interfaces.h</text>
</a>
</g>
</g>
<!-- Node30&#45;&gt;Node34 -->
<g id="edge35_Node000030_Node000034" class="edge">
<title>Node30&#45;&gt;Node34</title>
<g id="a_edge35_Node000030_Node000034"><a xlink:title=" ">
<path fill="none" stroke="#63b8ff" d="M594.16,-134.81C597.31,-134.16 600.44,-133.55 603.5,-133 727.27,-110.66 762.62,-116.57 890.02,-97.31"/>
<polygon fill="#63b8ff" stroke="#63b8ff" points="890.55,-100.77 899.91,-95.79 889.49,-93.85 890.55,-100.77"/>
</a>
</g>
</g>
<!-- Node35 -->
<g id="Node000035" class="node">
<title>Node35</title>
<g id="a_Node000035"><a xlink:href="_op_interfaces_8h.html" target="_top" xlink:title=" ">
<polygon fill="#fff0f0" stroke="red" points="625.88,-97 525.12,-97 525.12,-66.5 625.88,-66.5 625.88,-97"/>
<text text-anchor="start" x="533.12" y="-83.5" font-family="Helvetica,sans-Serif" font-size="10.00">zklang/Dialect/ZML</text>
<text text-anchor="middle" x="575.5" y="-72.25" font-family="Helvetica,sans-Serif" font-size="10.00">/IR/OpInterfaces.h</text>
</a>
</g>
</g>
<!-- Node30&#45;&gt;Node35 -->
<g id="edge36_Node000030_Node000035" class="edge">
<title>Node30&#45;&gt;Node35</title>
<g id="a_edge36_Node000030_Node000035"><a xlink:title=" ">
<path fill="none" stroke="#63b8ff" d="M550.76,-132.61C554.44,-125.19 559.02,-115.97 563.23,-107.49"/>
<polygon fill="#63b8ff" stroke="#63b8ff" points="566.29,-109.2 567.59,-98.68 560.02,-106.09 566.29,-109.2"/>
</a>
</g>
</g>
<!-- Node48 -->
<g id="Node000048" class="node">
<title>Node48</title>
<g id="a_Node000048"><a xlink:href="_ops_8h_8inc.html" target="_top" xlink:title=" ">
<polygon fill="white" stroke="#666666" points="1153.88,-97 1053.12,-97 1053.12,-66.5 1153.88,-66.5 1153.88,-97"/>
<text text-anchor="start" x="1061.12" y="-83.5" font-family="Helvetica,sans-Serif" font-size="10.00">zklang/Dialect/ZML</text>
<text text-anchor="middle" x="1103.5" y="-72.25" font-family="Helvetica,sans-Serif" font-size="10.00">/IR/Ops.h.inc</text>
</a>
</g>
</g>
<!-- Node30&#45;&gt;Node48 -->
<g id="edge47_Node000030_Node000048" class="edge">
<title>Node30&#45;&gt;Node48</title>
<g id="a_edge47_Node000030_Node000048"><a xlink:title=" ">
<path fill="none" stroke="#63b8ff" d="M594.13,-134.65C597.29,-134.05 600.43,-133.49 603.5,-133 794.12,-102.76 848.33,-127.23 1041.64,-97.29"/>
<polygon fill="#63b8ff" stroke="#63b8ff" points="1041.93,-100.79 1051.26,-95.77 1040.83,-93.88 1041.93,-100.79"/>
</a>
</g>
</g>
<!-- Node49 -->
<g id="Node000049" class="node">
<title>Node49</title>
<g id="a_Node000049"><a xlink:href="_types_8h_8inc.html" target="_top" xlink:title=" ">
<polygon fill="white" stroke="#666666" points="1272.88,-97 1172.12,-97 1172.12,-66.5 1272.88,-66.5 1272.88,-97"/>
<text text-anchor="start" x="1180.12" y="-83.5" font-family="Helvetica,sans-Serif" font-size="10.00">zklang/Dialect/ZML</text>
<text text-anchor="middle" x="1222.5" y="-72.25" font-family="Helvetica,sans-Serif" font-size="10.00">/IR/Types.h.inc</text>
</a>
</g>
</g>
<!-- Node30&#45;&gt;Node49 -->
<g id="edge48_Node000030_Node000049" class="edge">
<title>Node30&#45;&gt;Node49</title>
<g id="a_edge48_Node000030_Node000049"><a xlink:title=" ">
<path fill="none" stroke="#63b8ff" d="M594.12,-134.59C597.28,-134 600.43,-133.46 603.5,-133 846.1,-96.65 914.3,-132.8 1160.77,-97.05"/>
<polygon fill="#63b8ff" stroke="#63b8ff" points="1161,-100.55 1170.38,-95.63 1159.98,-93.63 1161,-100.55"/>
</a>
</g>
</g>
<!-- Node35&#45;&gt;Node4 -->
<g id="edge38_Node000035_Node000004" class="edge">
<title>Node35&#45;&gt;Node4</title>
<g id="a_edge38_Node000035_Node000004"><a xlink:title=" ">
<path fill="none" stroke="#63b8ff" d="M524.86,-68.2C521.7,-67.58 518.56,-67 515.5,-66.5 345.49,-38.52 299.91,-55.96 129.5,-30.5 123.82,-29.65 117.91,-28.64 112.04,-27.54"/>
<polygon fill="#63b8ff" stroke="#63b8ff" points="112.84,-24.13 102.35,-25.66 111.5,-31 112.84,-24.13"/>
</a>
</g>
</g>
<!-- Node35&#45;&gt;Node23 -->
<g id="edge42_Node000035_Node000023" class="edge">
<title>Node35&#45;&gt;Node23</title>
<g id="a_edge42_Node000035_Node000023"><a xlink:title=" ">
<path fill="none" stroke="#63b8ff" d="M524.84,-68.35C521.68,-67.69 518.55,-67.07 515.5,-66.5 398.21,-44.69 366.79,-52.31 249.5,-30.5 245.18,-29.7 240.71,-28.79 236.24,-27.82"/>
<polygon fill="#63b8ff" stroke="#63b8ff" points="237.23,-24.46 226.71,-25.68 235.69,-31.29 237.23,-24.46"/>
</a>
</g>
</g>
<!-- Node35&#45;&gt;Node33 -->
<g id="edge46_Node000035_Node000033" class="edge">
<title>Node35&#45;&gt;Node33</title>
<g id="a_edge46_Node000035_Node000033"><a xlink:title=" ">
<path fill="none" stroke="#63b8ff" d="M626.24,-67.9C629.02,-67.38 631.79,-66.91 634.5,-66.5 891.06,-28.01 962.37,-62.13 1222.97,-30.69"/>
<polygon fill="#63b8ff" stroke="#63b8ff" points="1223.32,-34.18 1232.82,-29.48 1222.46,-27.23 1223.32,-34.18"/>
</a>
</g>
</g>
<!-- Node36 -->
<g id="Node000036" class="node">
<title>Node36</title>
<g id="a_Node000036"><a xlink:title=" ">
<polygon fill="#e0e0e0" stroke="#999999" points="366.25,-24.88 258.75,-24.88 258.75,-5.63 366.25,-5.63 366.25,-24.88"/>
<text text-anchor="middle" x="312.5" y="-11.38" font-family="Helvetica,sans-Serif" font-size="10.00">llvm/ADT/ArrayRef.h</text>
</a>
</g>
</g>
<!-- Node35&#45;&gt;Node36 -->
<g id="edge37_Node000035_Node000036" class="edge">
<title>Node35&#45;&gt;Node36</title>
<g id="a_edge37_Node000035_Node000036"><a xlink:title=" ">
<path fill="none" stroke="#63b8ff" d="M524.79,-68.31C477.35,-56.68 407.02,-39.43 360.48,-28.02"/>
<polygon fill="#63b8ff" stroke="#63b8ff" points="361.5,-24.66 350.95,-25.68 359.83,-31.46 361.5,-24.66"/>
</a>
</g>
</g>
<!-- Node37 -->
<g id="Node000037" class="node">
<title>Node37</title>
<g id="a_Node000037"><a xlink:title=" ">
<polygon fill="#e0e0e0" stroke="#999999" points="494.38,-24.88 384.62,-24.88 384.62,-5.63 494.38,-5.63 494.38,-24.88"/>
<text text-anchor="middle" x="439.5" y="-11.38" font-family="Helvetica,sans-Serif" font-size="10.00">llvm/ADT/StringRef.h</text>
</a>
</g>
</g>
<!-- Node35&#45;&gt;Node37 -->
<g id="edge39_Node000035_Node000037" class="edge">
<title>Node35&#45;&gt;Node37</title>
<g id="a_edge39_Node000035_Node000037"><a xlink:title=" ">
<path fill="none" stroke="#63b8ff" d="M544.64,-66.11C521.88,-55.32 491.1,-40.72 468.73,-30.11"/>
<polygon fill="#63b8ff" stroke="#63b8ff" points="470.4,-27.03 459.86,-25.91 467.4,-33.36 470.4,-27.03"/>
</a>
</g>
</g>
<!-- Node38 -->
<g id="Node000038" class="node">
<title>Node38</title>
<g id="a_Node000038"><a xlink:title=" ">
<polygon fill="#e0e0e0" stroke="#999999" points="645,-30.5 512,-30.5 512,0 645,0 645,-30.5"/>
<text text-anchor="start" x="520" y="-17" font-family="Helvetica,sans-Serif" font-size="10.00">mlir/Bytecode/BytecodeOp</text>
<text text-anchor="middle" x="578.5" y="-5.75" font-family="Helvetica,sans-Serif" font-size="10.00">Interface.h</text>
</a>
</g>
</g>
<!-- Node35&#45;&gt;Node38 -->
<g id="edge40_Node000035_Node000038" class="edge">
<title>Node35&#45;&gt;Node38</title>
<g id="a_edge40_Node000035_Node000038"><a xlink:title=" ">
<path fill="none" stroke="#63b8ff" d="M576.18,-66.11C576.51,-59.02 576.92,-50.29 577.3,-42.13"/>
<polygon fill="#63b8ff" stroke="#63b8ff" points="580.78,-42.49 577.75,-32.34 573.79,-42.17 580.78,-42.49"/>
</a>
</g>
</g>
<!-- Node39 -->
<g id="Node000039" class="node">
<title>Node39</title>
<g id="a_Node000039"><a xlink:title=" ">
<polygon fill="#e0e0e0" stroke="#999999" points="766.38,-30.5 662.62,-30.5 662.62,0 766.38,0 766.38,-30.5"/>
<text text-anchor="start" x="670.62" y="-17" font-family="Helvetica,sans-Serif" font-size="10.00">mlir/Dialect/Func/IR</text>
<text text-anchor="middle" x="714.5" y="-5.75" font-family="Helvetica,sans-Serif" font-size="10.00">/FuncOps.h</text>
</a>
</g>
</g>
<!-- Node35&#45;&gt;Node39 -->
<g id="edge41_Node000035_Node000039" class="edge">
<title>Node35&#45;&gt;Node39</title>
<g id="a_edge41_Node000035_Node000039"><a xlink:title=" ">
<path fill="none" stroke="#63b8ff" d="M607.04,-66.11C626.5,-57.08 651.69,-45.4 672.79,-35.61"/>
<polygon fill="#63b8ff" stroke="#63b8ff" points="674.11,-38.85 681.71,-31.47 671.17,-32.5 674.11,-38.85"/>
</a>
</g>
</g>
<!-- Node40 -->
<g id="Node000040" class="node">
<title>Node40</title>
<g id="a_Node000040"><a xlink:title=" ">
<polygon fill="#e0e0e0" stroke="#999999" points="894.75,-24.88 784.25,-24.88 784.25,-5.63 894.75,-5.63 894.75,-24.88"/>
<text text-anchor="middle" x="839.5" y="-11.38" font-family="Helvetica,sans-Serif" font-size="10.00">mlir/IR/OpDefinition.h</text>
</a>
</g>
</g>
<!-- Node35&#45;&gt;Node40 -->
<g id="edge43_Node000035_Node000040" class="edge">
<title>Node35&#45;&gt;Node40</title>
<g id="a_edge43_Node000035_Node000040"><a xlink:title=" ">
<path fill="none" stroke="#63b8ff" d="M626.09,-68.39C673.67,-56.77 744.4,-39.48 791.22,-28.05"/>
<polygon fill="#63b8ff" stroke="#63b8ff" points="791.93,-31.48 800.81,-25.7 790.27,-24.68 791.93,-31.48"/>
</a>
</g>
</g>
<!-- Node41 -->
<g id="Node000041" class="node">
<title>Node41</title>
<g id="a_Node000041"><a xlink:title=" ">
<polygon fill="#e0e0e0" stroke="#999999" points="1048.5,-24.88 912.5,-24.88 912.5,-5.63 1048.5,-5.63 1048.5,-24.88"/>
<text text-anchor="middle" x="980.5" y="-11.38" font-family="Helvetica,sans-Serif" font-size="10.00">mlir/IR/OpImplementation.h</text>
</a>
</g>
</g>
<!-- Node35&#45;&gt;Node41 -->
<g id="edge44_Node000035_Node000041" class="edge">
<title>Node35&#45;&gt;Node41</title>
<g id="a_edge44_Node000035_Node000041"><a xlink:title=" ">
<path fill="none" stroke="#63b8ff" d="M626.28,-68.13C629.05,-67.55 631.81,-67 634.5,-66.5 753.06,-44.31 784.38,-49.48 903.5,-30.5 909.54,-29.54 915.84,-28.47 922.11,-27.37"/>
<polygon fill="#63b8ff" stroke="#63b8ff" points="922.61,-30.84 931.84,-25.63 921.38,-23.95 922.61,-30.84"/>
</a>
</g>
</g>
<!-- Node42 -->
<g id="Node000042" class="node">
<title>Node42</title>
<g id="a_Node000042"><a xlink:title=" ">
<polygon fill="#e0e0e0" stroke="#999999" points="1216.62,-24.88 1066.38,-24.88 1066.38,-5.63 1216.62,-5.63 1216.62,-24.88"/>
<text text-anchor="middle" x="1141.5" y="-11.38" font-family="Helvetica,sans-Serif" font-size="10.00">mlir/Interfaces/CallInterfaces.h</text>
</a>
</g>
</g>
<!-- Node35&#45;&gt;Node42 -->
<g id="edge45_Node000035_Node000042" class="edge">
<title>Node35&#45;&gt;Node42</title>
<g id="a_edge45_Node000035_Node000042"><a xlink:title=" ">
<path fill="none" stroke="#63b8ff" d="M626.25,-67.97C629.03,-67.44 631.8,-66.94 634.5,-66.5 820.74,-36.26 870.33,-54.3 1057.5,-30.5 1064.99,-29.55 1072.84,-28.41 1080.6,-27.19"/>
<polygon fill="#63b8ff" stroke="#63b8ff" points="1081.05,-30.67 1090.36,-25.62 1079.93,-23.76 1081.05,-30.67"/>
</a>
</g>
</g>
<!-- Node51 -->
<g id="Node000051" class="node">
<title>Node51</title>
<g id="a_Node000051"><a xlink:title=" ">
<polygon fill="#e0e0e0" stroke="#999999" points="3111.38,-24.88 2935.62,-24.88 2935.62,-5.63 3111.38,-5.63 3111.38,-24.88"/>
<text text-anchor="middle" x="3023.5" y="-11.38" font-family="Helvetica,sans-Serif" font-size="10.00">mlir/Transforms/DialectConversion.h</text>
</a>
</g>
</g>
<!-- Node50&#45;&gt;Node51 -->
<g id="edge50_Node000050_Node000051" class="edge">
<title>Node50&#45;&gt;Node51</title>
<g id="a_edge50_Node000050_Node000051"><a xlink:title=" ">
<path fill="none" stroke="#63b8ff" d="M2813.61,-134.68C2816.95,-134.11 2820.26,-133.55 2823.5,-133 2872.78,-124.67 3013.11,-135.06 3045.5,-97 3060.53,-79.33 3048.26,-52.29 3036.89,-34.44"/>
<polygon fill="#63b8ff" stroke="#63b8ff" points="3039.91,-32.66 3031.37,-26.38 3034.13,-36.61 3039.91,-32.66"/>
</a>
</g>
</g>
<!-- Node52 -->
<g id="Node000052" class="node">
<title>Node52</title>
<g id="a_Node000052"><a xlink:title=" ">
<polygon fill="#e0e0e0" stroke="#999999" points="2698.25,-91.38 2632.75,-91.38 2632.75,-72.12 2698.25,-72.12 2698.25,-91.38"/>
<text text-anchor="middle" x="2665.5" y="-77.88" font-family="Helvetica,sans-Serif" font-size="10.00">string_view</text>
</a>
</g>
</g>
<!-- Node50&#45;&gt;Node52 -->
<g id="edge51_Node000050_Node000052" class="edge">
<title>Node50&#45;&gt;Node52</title>
<g id="a_edge51_Node000050_Node000052"><a xlink:title=" ">
<path fill="none" stroke="#63b8ff" d="M2725.03,-132.61C2713.01,-122.54 2697.04,-109.17 2684.67,-98.81"/>
<polygon fill="#63b8ff" stroke="#63b8ff" points="2687.11,-96.28 2677.19,-92.54 2682.61,-101.65 2687.11,-96.28"/>
</a>
</g>
</g>
<!-- Node53 -->
<g id="Node000053" class="node">
<title>Node53</title>
<g id="a_Node000053"><a xlink:title=" ">
<polygon fill="#e0e0e0" stroke="#999999" points="2794.25,-91.38 2716.75,-91.38 2716.75,-72.12 2794.25,-72.12 2794.25,-91.38"/>
<text text-anchor="middle" x="2755.5" y="-77.88" font-family="Helvetica,sans-Serif" font-size="10.00">unordered_set</text>
</a>
</g>
</g>
<!-- Node50&#45;&gt;Node53 -->
<g id="edge52_Node000050_Node000053" class="edge">
<title>Node50&#45;&gt;Node53</title>
<g id="a_edge52_Node000050_Node000053"><a xlink:title=" ">
<path fill="none" stroke="#63b8ff" d="M2745.45,-132.61C2747.24,-123.73 2749.55,-112.27 2751.5,-102.58"/>
<polygon fill="#63b8ff" stroke="#63b8ff" points="2754.88,-103.55 2753.42,-93.06 2748.02,-102.17 2754.88,-103.55"/>
</a>
</g>
</g>
<!-- Node54 -->
<g id="Node000054" class="node">
<title>Node54</title>
<g id="a_Node000054"><a xlink:href="_conversion_8h.html" target="_top" xlink:title=" ">
<polygon fill="#fff0f0" stroke="red" points="3036.62,-97 2928.38,-97 2928.38,-66.5 3036.62,-66.5 3036.62,-97"/>
<text text-anchor="start" x="2936.38" y="-83.5" font-family="Helvetica,sans-Serif" font-size="10.00">zklang/Dialect/ZML</text>
<text text-anchor="middle" x="2982.5" y="-72.25" font-family="Helvetica,sans-Serif" font-size="10.00">/ExtVal/Conversion.h</text>
</a>
</g>
</g>
<!-- Node50&#45;&gt;Node54 -->
<g id="edge53_Node000050_Node000054" class="edge">
<title>Node50&#45;&gt;Node54</title>
<g id="a_edge53_Node000050_Node000054"><a xlink:title=" ">
<path fill="none" stroke="#63b8ff" d="M2797.26,-132.53C2832.89,-122.96 2879.56,-110.42 2917.13,-100.32"/>
<polygon fill="#63b8ff" stroke="#63b8ff" points="2917.76,-103.77 2926.51,-97.8 2915.95,-97.01 2917.76,-103.77"/>
</a>
</g>
</g>
<!-- Node56 -->
<g id="Node000056" class="node">
<title>Node56</title>
<g id="a_Node000056"><a xlink:href="_field_8h.html" target="_top" xlink:title=" ">
<polygon fill="#fff0f0" stroke="red" points="2910.38,-97 2812.62,-97 2812.62,-66.5 2910.38,-66.5 2910.38,-97"/>
<text text-anchor="start" x="2820.62" y="-83.5" font-family="Helvetica,sans-Serif" font-size="10.00">zklang/FiniteFields</text>
<text text-anchor="middle" x="2861.5" y="-72.25" font-family="Helvetica,sans-Serif" font-size="10.00">/Field.h</text>
</a>
</g>
</g>
<!-- Node50&#45;&gt;Node56 -->
<g id="edge56_Node000050_Node000056" class="edge">
<title>Node50&#45;&gt;Node56</title>
<g id="a_edge56_Node000050_Node000056"><a xlink:title=" ">
<path fill="none" stroke="#63b8ff" d="M2769.5,-132.61C2785.78,-123.79 2806.74,-112.43 2824.55,-102.78"/>
<polygon fill="#63b8ff" stroke="#63b8ff" points="2826.15,-105.89 2833.27,-98.05 2822.81,-99.74 2826.15,-105.89"/>
</a>
</g>
</g>
<!-- Node54&#45;&gt;Node22 -->
<g id="edge54_Node000054_Node000022" class="edge">
<title>Node54&#45;&gt;Node22</title>
<g id="a_edge54_Node000054_Node000022"><a xlink:title=" ">
<path fill="none" stroke="#63b8ff" d="M2928.05,-66.36C2884.65,-54.88 2824.61,-39.01 2783.81,-28.23"/>
<polygon fill="#63b8ff" stroke="#63b8ff" points="2784.87,-24.89 2774.31,-25.72 2783.08,-31.66 2784.87,-24.89"/>
</a>
</g>
</g>
<!-- Node54&#45;&gt;Node51 -->
<g id="edge55_Node000054_Node000051" class="edge">
<title>Node54&#45;&gt;Node51</title>
<g id="a_edge55_Node000054_Node000051"><a xlink:title=" ">
<path fill="none" stroke="#63b8ff" d="M2991.8,-66.11C2997.77,-56.73 3005.55,-44.49 3011.91,-34.48"/>
<polygon fill="#63b8ff" stroke="#63b8ff" points="3014.67,-36.67 3017.08,-26.35 3008.76,-32.91 3014.67,-36.67"/>
</a>
</g>
</g>
</g>
</svg>
