<?xml version="1.0" encoding="UTF-8" standalone="no"?>
<!DOCTYPE svg PUBLIC "-//W3C//DTD SVG 1.1//EN"
 "http://www.w3.org/Graphics/SVG/1.1/DTD/svg11.dtd">
<!-- Generated by graphviz version 12.2.1 (20241206.2353)
 -->
<!-- Title: include/zklang/Passes/ConvertZmlToLlzk/LLZKTypeConverter.h Pages: 1 -->
<svg width="2077pt" height="371pt"
 viewBox="0.00 0.00 2076.50 371.00" xmlns="http://www.w3.org/2000/svg" xmlns:xlink="http://www.w3.org/1999/xlink">
<g id="graph0" class="graph" transform="scale(1 1) rotate(0) translate(4 367)">
<title>include/zklang/Passes/ConvertZmlToLlzk/LLZKTypeConverter.h</title>
<!-- Node1 -->
<g id="Node000001" class="node">
<title>Node1</title>
<g id="a_Node000001"><a xlink:title=" ">
<polygon fill="#999999" stroke="#666666" points="924.75,-363 728.75,-363 728.75,-332.5 924.75,-332.5 924.75,-363"/>
<text text-anchor="start" x="736.75" y="-349.5" font-family="Helvetica,sans-Serif" font-size="10.00">include/zklang/Passes</text>
<text text-anchor="middle" x="826.75" y="-338.25" font-family="Helvetica,sans-Serif" font-size="10.00">/ConvertZmlToLlzk/LLZKTypeConverter.h</text>
</a>
</g>
</g>
<!-- Node2 -->
<g id="Node000002" class="node">
<title>Node2</title>
<g id="a_Node000002"><a xlink:title=" ">
<polygon fill="#e0e0e0" stroke="#999999" points="675.62,-224.38 499.88,-224.38 499.88,-205.12 675.62,-205.12 675.62,-224.38"/>
<text text-anchor="middle" x="587.75" y="-210.88" font-family="Helvetica,sans-Serif" font-size="10.00">mlir/Transforms/DialectConversion.h</text>
</a>
</g>
</g>
<!-- Node1&#45;&gt;Node2 -->
<g id="edge1_Node000001_Node000002" class="edge">
<title>Node1&#45;&gt;Node2</title>
<g id="a_edge1_Node000001_Node000002"><a xlink:title=" ">
<path fill="none" stroke="#63b8ff" d="M745.03,-332.04C716.25,-324.42 684.64,-313.1 658.75,-296.5 633.53,-280.33 612.02,-252.69 599.49,-234.33"/>
<polygon fill="#63b8ff" stroke="#63b8ff" points="602.44,-232.44 594.02,-226 596.59,-236.28 602.44,-232.44"/>
</a>
</g>
</g>
<!-- Node3 -->
<g id="Node000003" class="node">
<title>Node3</title>
<g id="a_Node000003"><a xlink:title=" ">
<polygon fill="#e0e0e0" stroke="#999999" points="859.5,-290.88 794,-290.88 794,-271.62 859.5,-271.62 859.5,-290.88"/>
<text text-anchor="middle" x="826.75" y="-277.38" font-family="Helvetica,sans-Serif" font-size="10.00">string_view</text>
</a>
</g>
</g>
<!-- Node1&#45;&gt;Node3 -->
<g id="edge2_Node000001_Node000003" class="edge">
<title>Node1&#45;&gt;Node3</title>
<g id="a_edge2_Node000001_Node000003"><a xlink:title=" ">
<path fill="none" stroke="#63b8ff" d="M826.75,-332.11C826.75,-323.33 826.75,-312.02 826.75,-302.4"/>
<polygon fill="#63b8ff" stroke="#63b8ff" points="830.25,-302.59 826.75,-292.59 823.25,-302.59 830.25,-302.59"/>
</a>
</g>
</g>
<!-- Node4 -->
<g id="Node000004" class="node">
<title>Node4</title>
<g id="a_Node000004"><a xlink:title=" ">
<polygon fill="#e0e0e0" stroke="#999999" points="955.5,-290.88 878,-290.88 878,-271.62 955.5,-271.62 955.5,-290.88"/>
<text text-anchor="middle" x="916.75" y="-277.38" font-family="Helvetica,sans-Serif" font-size="10.00">unordered_set</text>
</a>
</g>
</g>
<!-- Node1&#45;&gt;Node4 -->
<g id="edge3_Node000001_Node000004" class="edge">
<title>Node1&#45;&gt;Node4</title>
<g id="a_edge3_Node000001_Node000004"><a xlink:title=" ">
<path fill="none" stroke="#63b8ff" d="M847.17,-332.11C861.42,-321.91 880.4,-308.3 894.94,-297.88"/>
<polygon fill="#63b8ff" stroke="#63b8ff" points="896.86,-300.81 902.95,-292.14 892.78,-295.12 896.86,-300.81"/>
</a>
</g>
</g>
<!-- Node5 -->
<g id="Node000005" class="node">
<title>Node5</title>
<g id="a_Node000005"><a xlink:href="_conversion_8h.html" target="_top" xlink:title=" ">
<polygon fill="white" stroke="#666666" points="775.88,-296.5 667.62,-296.5 667.62,-266 775.88,-266 775.88,-296.5"/>
<text text-anchor="start" x="675.62" y="-283" font-family="Helvetica,sans-Serif" font-size="10.00">zklang/Dialect/ZML</text>
<text text-anchor="middle" x="721.75" y="-271.75" font-family="Helvetica,sans-Serif" font-size="10.00">/ExtVal/Conversion.h</text>
</a>
</g>
</g>
<!-- Node1&#45;&gt;Node5 -->
<g id="edge4_Node000001_Node000005" class="edge">
<title>Node1&#45;&gt;Node5</title>
<g id="a_edge4_Node000001_Node000005"><a xlink:title=" ">
<path fill="none" stroke="#63b8ff" d="M802.92,-332.11C788.83,-323.45 770.75,-312.35 755.24,-302.82"/>
<polygon fill="#63b8ff" stroke="#63b8ff" points="757.12,-299.87 746.77,-297.62 753.46,-305.84 757.12,-299.87"/>
</a>
</g>
</g>
<!-- Node32 -->
<g id="Node000032" class="node">
<title>Node32</title>
<g id="a_Node000032"><a xlink:href="_field_8h.html" target="_top" xlink:title=" ">
<polygon fill="white" stroke="#666666" points="1071.62,-296.5 973.88,-296.5 973.88,-266 1071.62,-266 1071.62,-296.5"/>
<text text-anchor="start" x="981.88" y="-283" font-family="Helvetica,sans-Serif" font-size="10.00">zklang/FiniteFields</text>
<text text-anchor="middle" x="1022.75" y="-271.75" font-family="Helvetica,sans-Serif" font-size="10.00">/Field.h</text>
</a>
</g>
</g>
<!-- Node1&#45;&gt;Node32 -->
<g id="edge49_Node000001_Node000032" class="edge">
<title>Node1&#45;&gt;Node32</title>
<g id="a_edge49_Node000001_Node000032"><a xlink:title=" ">
<path fill="none" stroke="#63b8ff" d="M871.23,-332.11C899.69,-322.75 936.85,-310.52 967.25,-300.51"/>
<polygon fill="#63b8ff" stroke="#63b8ff" points="968.27,-303.86 976.67,-297.41 966.08,-297.21 968.27,-303.86"/>
</a>
</g>
</g>
<!-- Node5&#45;&gt;Node2 -->
<g id="edge6_Node000005_Node000002" class="edge">
<title>Node5&#45;&gt;Node2</title>
<g id="a_edge6_Node000005_Node000002"><a xlink:title=" ">
<path fill="none" stroke="#63b8ff" d="M691.34,-265.61C668.91,-254.82 638.59,-240.22 616.55,-229.61"/>
<polygon fill="#63b8ff" stroke="#63b8ff" points="618.36,-226.6 607.83,-225.42 615.32,-232.91 618.36,-226.6"/>
</a>
</g>
</g>
<!-- Node6 -->
<g id="Node000006" class="node">
<title>Node6</title>
<g id="a_Node000006"><a xlink:title=" ">
<polygon fill="#e0e0e0" stroke="#999999" points="785.62,-224.38 693.88,-224.38 693.88,-205.12 785.62,-205.12 785.62,-224.38"/>
<text text-anchor="middle" x="739.75" y="-210.88" font-family="Helvetica,sans-Serif" font-size="10.00">mlir/IR/Builders.h</text>
</a>
</g>
</g>
<!-- Node5&#45;&gt;Node6 -->
<g id="edge5_Node000005_Node000006" class="edge">
<title>Node5&#45;&gt;Node6</title>
<g id="a_edge5_Node000005_Node000006"><a xlink:title=" ">
<path fill="none" stroke="#63b8ff" d="M725.83,-265.61C728.31,-256.73 731.51,-245.27 734.22,-235.58"/>
<polygon fill="#63b8ff" stroke="#63b8ff" points="737.56,-236.6 736.88,-226.03 730.82,-234.72 737.56,-236.6"/>
</a>
</g>
</g>
<!-- Node7 -->
<g id="Node000007" class="node">
<title>Node7</title>
<g id="a_Node000007"><a xlink:href="_ops_8h.html" target="_top" xlink:title=" ">
<polygon fill="white" stroke="#666666" points="904.12,-230 803.38,-230 803.38,-199.5 904.12,-199.5 904.12,-230"/>
<text text-anchor="start" x="811.38" y="-216.5" font-family="Helvetica,sans-Serif" font-size="10.00">zklang/Dialect/ZML</text>
<text text-anchor="middle" x="853.75" y="-205.25" font-family="Helvetica,sans-Serif" font-size="10.00">/IR/Ops.h</text>
</a>
</g>
</g>
<!-- Node5&#45;&gt;Node7 -->
<g id="edge7_Node000005_Node000007" class="edge">
<title>Node5&#45;&gt;Node7</title>
<g id="a_edge7_Node000005_Node000007"><a xlink:title=" ">
<path fill="none" stroke="#63b8ff" d="M751.7,-265.61C770.01,-256.67 793.67,-245.11 813.59,-235.37"/>
<polygon fill="#63b8ff" stroke="#63b8ff" points="815.11,-238.53 822.56,-230.99 812.03,-232.24 815.11,-238.53"/>
</a>
</g>
</g>
<!-- Node8 -->
<g id="Node000008" class="node">
<title>Node8</title>
<g id="a_Node000008"><a xlink:title=" ">
<polygon fill="#e0e0e0" stroke="#999999" points="107.5,-24.88 0,-24.88 0,-5.63 107.5,-5.63 107.5,-24.88"/>
<text text-anchor="middle" x="53.75" y="-11.38" font-family="Helvetica,sans-Serif" font-size="10.00">llvm/ADT/ArrayRef.h</text>
</a>
</g>
</g>
<!-- Node7&#45;&gt;Node8 -->
<g id="edge8_Node000007_Node000008" class="edge">
<title>Node7&#45;&gt;Node8</title>
<g id="a_edge8_Node000007_Node000008"><a xlink:title=" ">
<path fill="none" stroke="#63b8ff" d="M802.99,-201.03C800.21,-200.48 797.45,-199.96 794.75,-199.5 641.94,-173.24 598.7,-198.93 447.75,-163.5 306.28,-130.3 146.69,-59.75 82.62,-29.97"/>
<polygon fill="#63b8ff" stroke="#63b8ff" points="84.39,-26.93 73.85,-25.86 81.43,-33.27 84.39,-26.93"/>
</a>
</g>
</g>
<!-- Node9 -->
<g id="Node000009" class="node">
<title>Node9</title>
<g id="a_Node000009"><a xlink:title=" ">
<polygon fill="#e0e0e0" stroke="#999999" points="246.25,-24.88 125.25,-24.88 125.25,-5.63 246.25,-5.63 246.25,-24.88"/>
<text text-anchor="middle" x="185.75" y="-11.38" font-family="Helvetica,sans-Serif" font-size="10.00">llvm/ADT/SmallVector.h</text>
</a>
</g>
</g>
<!-- Node7&#45;&gt;Node9 -->
<g id="edge9_Node000007_Node000009" class="edge">
<title>Node7&#45;&gt;Node9</title>
<g id="a_edge9_Node000007_Node000009"><a xlink:title=" ">
<path fill="none" stroke="#63b8ff" d="M802.97,-201.17C800.19,-200.58 797.44,-200.02 794.75,-199.5 684.95,-178.35 653.64,-192.89 545.75,-163.5 416.95,-128.42 272.39,-59.7 213.22,-30.23"/>
<polygon fill="#63b8ff" stroke="#63b8ff" points="215.05,-27.23 204.54,-25.87 211.91,-33.49 215.05,-27.23"/>
</a>
</g>
</g>
<!-- Node10 -->
<g id="Node000010" class="node">
<title>Node10</title>
<g id="a_Node000010"><a xlink:title=" ">
<polygon fill="#e0e0e0" stroke="#999999" points="373.62,-24.88 263.88,-24.88 263.88,-5.63 373.62,-5.63 373.62,-24.88"/>
<text text-anchor="middle" x="318.75" y="-11.38" font-family="Helvetica,sans-Serif" font-size="10.00">llvm/ADT/StringRef.h</text>
</a>
</g>
</g>
<!-- Node7&#45;&gt;Node10 -->
<g id="edge10_Node000007_Node000010" class="edge">
<title>Node7&#45;&gt;Node10</title>
<g id="a_edge10_Node000007_Node000010"><a xlink:title=" ">
<path fill="none" stroke="#63b8ff" d="M802.92,-201.37C800.16,-200.73 797.42,-200.1 794.75,-199.5 718.99,-182.38 697.26,-188.57 623.75,-163.5 515.16,-126.47 394.92,-60.35 343.87,-30.99"/>
<polygon fill="#63b8ff" stroke="#63b8ff" points="345.77,-28.05 335.36,-26.07 342.27,-34.1 345.77,-28.05"/>
</a>
</g>
</g>
<!-- Node11 -->
<g id="Node000011" class="node">
<title>Node11</title>
<g id="a_Node000011"><a xlink:title=" ">
<polygon fill="#e0e0e0" stroke="#999999" points="524.25,-30.5 391.25,-30.5 391.25,0 524.25,0 524.25,-30.5"/>
<text text-anchor="start" x="399.25" y="-17" font-family="Helvetica,sans-Serif" font-size="10.00">mlir/Bytecode/BytecodeOp</text>
<text text-anchor="middle" x="457.75" y="-5.75" font-family="Helvetica,sans-Serif" font-size="10.00">Interface.h</text>
</a>
</g>
</g>
<!-- Node7&#45;&gt;Node11 -->
<g id="edge11_Node000007_Node000011" class="edge">
<title>Node7&#45;&gt;Node11</title>
<g id="a_edge11_Node000007_Node000011"><a xlink:title=" ">
<path fill="none" stroke="#63b8ff" d="M802.89,-200.46C760.94,-189.18 704.99,-173.3 683.75,-163.5 606.99,-128.07 526.1,-69.38 485.08,-37.86"/>
<polygon fill="#63b8ff" stroke="#63b8ff" points="487.25,-35.11 477.2,-31.76 482.96,-40.65 487.25,-35.11"/>
</a>
</g>
</g>
<!-- Node12 -->
<g id="Node000012" class="node">
<title>Node12</title>
<g id="a_Node000012"><a xlink:title=" ">
<polygon fill="#e0e0e0" stroke="#999999" points="645.62,-30.5 541.88,-30.5 541.88,0 645.62,0 645.62,-30.5"/>
<text text-anchor="start" x="549.88" y="-17" font-family="Helvetica,sans-Serif" font-size="10.00">mlir/Dialect/Func/IR</text>
<text text-anchor="middle" x="593.75" y="-5.75" font-family="Helvetica,sans-Serif" font-size="10.00">/FuncOps.h</text>
</a>
</g>
</g>
<!-- Node7&#45;&gt;Node12 -->
<g id="edge12_Node000007_Node000012" class="edge">
<title>Node7&#45;&gt;Node12</title>
<g id="a_edge12_Node000007_Node000012"><a xlink:title=" ">
<path fill="none" stroke="#63b8ff" d="M803.05,-200.63C777.52,-192.5 746.93,-180.36 722.75,-163.5 673.69,-129.3 631.13,-72.55 609.31,-40.4"/>
<polygon fill="#63b8ff" stroke="#63b8ff" points="612.27,-38.53 603.81,-32.15 606.44,-42.41 612.27,-38.53"/>
</a>
</g>
</g>
<!-- Node13 -->
<g id="Node000013" class="node">
<title>Node13</title>
<g id="a_Node000013"><a xlink:title=" ">
<polygon fill="#e0e0e0" stroke="#999999" points="765.5,-24.88 664,-24.88 664,-5.63 765.5,-5.63 765.5,-24.88"/>
<text text-anchor="middle" x="714.75" y="-11.38" font-family="Helvetica,sans-Serif" font-size="10.00">mlir/IR/BuiltinOps.h</text>
</a>
</g>
</g>
<!-- Node7&#45;&gt;Node13 -->
<g id="edge13_Node000007_Node000013" class="edge">
<title>Node7&#45;&gt;Node13</title>
<g id="a_edge13_Node000007_Node000013"><a xlink:title=" ">
<path fill="none" stroke="#63b8ff" d="M802.89,-201.66C781.61,-194.09 758.45,-182.12 743.75,-163.5 714.36,-126.28 712.1,-67.56 713.25,-36.72"/>
<polygon fill="#63b8ff" stroke="#63b8ff" points="716.74,-37.04 713.8,-26.86 709.75,-36.65 716.74,-37.04"/>
</a>
</g>
</g>
<!-- Node14 -->
<g id="Node000014" class="node">
<title>Node14</title>
<g id="a_Node000014"><a xlink:title=" ">
<polygon fill="#e0e0e0" stroke="#999999" points="894,-24.88 783.5,-24.88 783.5,-5.63 894,-5.63 894,-24.88"/>
<text text-anchor="middle" x="838.75" y="-11.38" font-family="Helvetica,sans-Serif" font-size="10.00">mlir/IR/OpDefinition.h</text>
</a>
</g>
</g>
<!-- Node7&#45;&gt;Node14 -->
<g id="edge14_Node000007_Node000014" class="edge">
<title>Node7&#45;&gt;Node14</title>
<g id="a_edge14_Node000007_Node000014"><a xlink:title=" ">
<path fill="none" stroke="#63b8ff" d="M805.66,-199.08C788.73,-191.34 771.5,-179.93 761.75,-163.5 739.75,-126.42 741.22,-104.41 761.75,-66.5 770.67,-50.03 787.58,-38.11 803.29,-30.02"/>
<polygon fill="#63b8ff" stroke="#63b8ff" points="804.44,-33.34 811.97,-25.89 801.44,-27.02 804.44,-33.34"/>
</a>
</g>
</g>
<!-- Node15 -->
<g id="Node000015" class="node">
<title>Node15</title>
<g id="a_Node000015"><a xlink:title=" ">
<polygon fill="#e0e0e0" stroke="#999999" points="1047.75,-24.88 911.75,-24.88 911.75,-5.63 1047.75,-5.63 1047.75,-24.88"/>
<text text-anchor="middle" x="979.75" y="-11.38" font-family="Helvetica,sans-Serif" font-size="10.00">mlir/IR/OpImplementation.h</text>
</a>
</g>
</g>
<!-- Node7&#45;&gt;Node15 -->
<g id="edge15_Node000007_Node000015" class="edge">
<title>Node7&#45;&gt;Node15</title>
<g id="a_edge15_Node000007_Node000015"><a xlink:title=" ">
<path fill="none" stroke="#63b8ff" d="M838.92,-199.06C812.39,-170.98 762.47,-108.72 794.75,-66.5 802.82,-55.94 872.88,-38.99 924.41,-27.74"/>
<polygon fill="#63b8ff" stroke="#63b8ff" points="924.91,-31.21 933.94,-25.67 923.43,-24.37 924.91,-31.21"/>
</a>
</g>
</g>
<!-- Node16 -->
<g id="Node000016" class="node">
<title>Node16</title>
<g id="a_Node000016"><a xlink:title=" ">
<polygon fill="#e0e0e0" stroke="#999999" points="1346.88,-24.88 1196.62,-24.88 1196.62,-5.63 1346.88,-5.63 1346.88,-24.88"/>
<text text-anchor="middle" x="1271.75" y="-11.38" font-family="Helvetica,sans-Serif" font-size="10.00">mlir/Interfaces/CallInterfaces.h</text>
</a>
</g>
</g>
<!-- Node7&#45;&gt;Node16 -->
<g id="edge16_Node000007_Node000016" class="edge">
<title>Node7&#45;&gt;Node16</title>
<g id="a_edge16_Node000007_Node000016"><a xlink:title=" ">
<path fill="none" stroke="#63b8ff" d="M859.23,-199.08C871.42,-168.69 903.84,-99.03 955.75,-66.5 1043.8,-11.32 1084.18,-47.09 1186.75,-30.5 1193.44,-29.42 1200.42,-28.27 1207.38,-27.12"/>
<polygon fill="#63b8ff" stroke="#63b8ff" points="1207.48,-30.65 1216.77,-25.56 1206.33,-23.75 1207.48,-30.65"/>
</a>
</g>
</g>
<!-- Node17 -->
<g id="Node000017" class="node">
<title>Node17</title>
<g id="a_Node000017"><a xlink:title=" ">
<polygon fill="#e0e0e0" stroke="#999999" points="1498.62,-30.5 1364.88,-30.5 1364.88,0 1498.62,0 1498.62,-30.5"/>
<text text-anchor="start" x="1372.88" y="-17" font-family="Helvetica,sans-Serif" font-size="10.00">mlir/Interfaces/ControlFlow</text>
<text text-anchor="middle" x="1431.75" y="-5.75" font-family="Helvetica,sans-Serif" font-size="10.00">Interfaces.h</text>
</a>
</g>
</g>
<!-- Node7&#45;&gt;Node17 -->
<g id="edge17_Node000007_Node000017" class="edge">
<title>Node7&#45;&gt;Node17</title>
<g id="a_edge17_Node000007_Node000017"><a xlink:title=" ">
<path fill="none" stroke="#63b8ff" d="M867.24,-199.02C900.74,-162.51 985.63,-70.47 993.75,-66.5 1063.46,-32.4 1259.18,-41.16 1353.42,-30.58"/>
<polygon fill="#63b8ff" stroke="#63b8ff" points="1353.68,-34.08 1363.16,-29.34 1352.8,-27.13 1353.68,-34.08"/>
</a>
</g>
</g>
<!-- Node18 -->
<g id="Node000018" class="node">
<title>Node18</title>
<g id="a_Node000018"><a xlink:title=" ">
<polygon fill="#e0e0e0" stroke="#999999" points="2068.5,-30.5 1937,-30.5 1937,0 2068.5,0 2068.5,-30.5"/>
<text text-anchor="start" x="1945" y="-17" font-family="Helvetica,sans-Serif" font-size="10.00">mlir/Interfaces/DataLayout</text>
<text text-anchor="middle" x="2002.75" y="-5.75" font-family="Helvetica,sans-Serif" font-size="10.00">Interfaces.h</text>
</a>
</g>
</g>
<!-- Node7&#45;&gt;Node18 -->
<g id="edge18_Node000007_Node000018" class="edge">
<title>Node7&#45;&gt;Node18</title>
<g id="a_edge18_Node000007_Node000018"><a xlink:title=" ">
<path fill="none" stroke="#63b8ff" d="M904.43,-207.72C930.24,-204.84 962.13,-201.58 990.75,-199.5 1184.41,-185.45 1676.81,-215.97 1863.75,-163.5 1922.46,-147.02 1946.95,-145.62 1983.75,-97 1995.64,-81.29 2000.25,-59.31 2001.96,-42.25"/>
<polygon fill="#63b8ff" stroke="#63b8ff" points="2005.45,-42.59 2002.65,-32.37 1998.46,-42.1 2005.45,-42.59"/>
</a>
</g>
</g>
<!-- Node19 -->
<g id="Node000019" class="node">
<title>Node19</title>
<g id="a_Node000019"><a xlink:title=" ">
<polygon fill="#e0e0e0" stroke="#999999" points="1635.12,-30.5 1516.38,-30.5 1516.38,0 1635.12,0 1635.12,-30.5"/>
<text text-anchor="start" x="1524.38" y="-17" font-family="Helvetica,sans-Serif" font-size="10.00">mlir/Interfaces/Function</text>
<text text-anchor="middle" x="1575.75" y="-5.75" font-family="Helvetica,sans-Serif" font-size="10.00">Interfaces.h</text>
</a>
</g>
</g>
<!-- Node7&#45;&gt;Node19 -->
<g id="edge19_Node000007_Node000019" class="edge">
<title>Node7&#45;&gt;Node19</title>
<g id="a_edge19_Node000007_Node000019"><a xlink:title=" ">
<path fill="none" stroke="#63b8ff" d="M877.15,-199.08C891.84,-189.53 910.92,-176.47 926.75,-163.5 932.74,-158.59 1019.69,-69.67 1026.75,-66.5 1121.46,-23.93 1384.48,-44.15 1504.92,-30.63"/>
<polygon fill="#63b8ff" stroke="#63b8ff" points="1505.14,-34.13 1514.62,-29.4 1504.26,-27.18 1505.14,-34.13"/>
</a>
</g>
</g>
<!-- Node20 -->
<g id="Node000020" class="node">
<title>Node20</title>
<g id="a_Node000020"><a xlink:title=" ">
<polygon fill="#e0e0e0" stroke="#999999" points="1774.62,-30.5 1652.88,-30.5 1652.88,0 1774.62,0 1774.62,-30.5"/>
<text text-anchor="start" x="1660.88" y="-17" font-family="Helvetica,sans-Serif" font-size="10.00">mlir/Interfaces/InferType</text>
<text text-anchor="middle" x="1713.75" y="-5.75" font-family="Helvetica,sans-Serif" font-size="10.00">OpInterface.h</text>
</a>
</g>
</g>
<!-- Node7&#45;&gt;Node20 -->
<g id="edge20_Node000007_Node000020" class="edge">
<title>Node7&#45;&gt;Node20</title>
<g id="a_edge20_Node000007_Node000020"><a xlink:title=" ">
<path fill="none" stroke="#63b8ff" d="M904.45,-207.96C930.26,-205.14 962.15,-201.86 990.75,-199.5 1097.55,-190.67 1880.95,-179.16 1949.75,-97 1958.45,-86.61 1958.28,-77.04 1949.75,-66.5 1948.42,-64.86 1855.11,-45.34 1786.23,-31.13"/>
<polygon fill="#63b8ff" stroke="#63b8ff" points="1786.96,-27.7 1776.46,-29.11 1785.55,-34.56 1786.96,-27.7"/>
</a>
</g>
</g>
<!-- Node21 -->
<g id="Node000021" class="node">
<title>Node21</title>
<g id="a_Node000021"><a xlink:title=" ">
<polygon fill="#e0e0e0" stroke="#999999" points="1919.25,-30.5 1792.25,-30.5 1792.25,0 1919.25,0 1919.25,-30.5"/>
<text text-anchor="start" x="1800.25" y="-17" font-family="Helvetica,sans-Serif" font-size="10.00">mlir/Interfaces/SideEffect</text>
<text text-anchor="middle" x="1855.75" y="-5.75" font-family="Helvetica,sans-Serif" font-size="10.00">Interfaces.h</text>
</a>
</g>
</g>
<!-- Node7&#45;&gt;Node21 -->
<g id="edge21_Node000007_Node000021" class="edge">
<title>Node7&#45;&gt;Node21</title>
<g id="a_edge21_Node000007_Node000021"><a xlink:title=" ">
<path fill="none" stroke="#63b8ff" d="M904.44,-207.78C930.24,-204.91 962.13,-201.65 990.75,-199.5 1335.48,-173.61 1427.91,-226.89 1767.75,-163.5 1859.42,-146.4 1912.25,-172.67 1966.75,-97 1985.95,-70.34 1952.27,-48.97 1917.09,-34.93"/>
<polygon fill="#63b8ff" stroke="#63b8ff" points="1918.69,-31.79 1908.1,-31.52 1916.21,-38.34 1918.69,-31.79"/>
</a>
</g>
</g>
<!-- Node22 -->
<g id="Node000022" class="node">
<title>Node22</title>
<g id="a_Node000022"><a xlink:href="_op_interfaces_8h.html" target="_top" xlink:title=" ">
<polygon fill="white" stroke="#666666" points="904.12,-97 803.38,-97 803.38,-66.5 904.12,-66.5 904.12,-97"/>
<text text-anchor="start" x="811.38" y="-83.5" font-family="Helvetica,sans-Serif" font-size="10.00">zklang/Dialect/ZML</text>
<text text-anchor="middle" x="853.75" y="-72.25" font-family="Helvetica,sans-Serif" font-size="10.00">/IR/OpInterfaces.h</text>
</a>
</g>
</g>
<!-- Node7&#45;&gt;Node22 -->
<g id="edge22_Node000007_Node000022" class="edge">
<title>Node7&#45;&gt;Node22</title>
<g id="a_edge22_Node000007_Node000022"><a xlink:title=" ">
<path fill="none" stroke="#63b8ff" d="M853.75,-199.23C853.75,-177.39 853.75,-135.77 853.75,-108.65"/>
<polygon fill="#63b8ff" stroke="#63b8ff" points="857.25,-108.85 853.75,-98.85 850.25,-108.85 857.25,-108.85"/>
</a>
</g>
</g>
<!-- Node24 -->
<g id="Node000024" class="node">
<title>Node24</title>
<g id="a_Node000024"><a xlink:href="_types_8h.html" target="_top" xlink:title=" ">
<polygon fill="white" stroke="#666666" points="1461.12,-163.5 1360.38,-163.5 1360.38,-133 1461.12,-133 1461.12,-163.5"/>
<text text-anchor="start" x="1368.38" y="-150" font-family="Helvetica,sans-Serif" font-size="10.00">zklang/Dialect/ZML</text>
<text text-anchor="middle" x="1410.75" y="-138.75" font-family="Helvetica,sans-Serif" font-size="10.00">/IR/Types.h</text>
</a>
</g>
</g>
<!-- Node7&#45;&gt;Node24 -->
<g id="edge38_Node000007_Node000024" class="edge">
<title>Node7&#45;&gt;Node24</title>
<g id="a_edge38_Node000007_Node000024"><a xlink:title=" ">
<path fill="none" stroke="#63b8ff" d="M904.16,-207.91C1006.33,-196.08 1237.5,-169.31 1348.71,-156.43"/>
<polygon fill="#63b8ff" stroke="#63b8ff" points="1349.02,-159.92 1358.55,-155.3 1348.21,-152.97 1349.02,-159.92"/>
</a>
</g>
</g>
<!-- Node30 -->
<g id="Node000030" class="node">
<title>Node30</title>
<g id="a_Node000030"><a xlink:href="_ops_8h_8inc.html" target="_top" xlink:title=" ">
<polygon fill="white" stroke="#666666" points="1941.12,-97 1840.38,-97 1840.38,-66.5 1941.12,-66.5 1941.12,-97"/>
<text text-anchor="start" x="1848.38" y="-83.5" font-family="Helvetica,sans-Serif" font-size="10.00">zklang/Dialect/ZML</text>
<text text-anchor="middle" x="1890.75" y="-72.25" font-family="Helvetica,sans-Serif" font-size="10.00">/IR/Ops.h.inc</text>
</a>
</g>
</g>
<!-- Node7&#45;&gt;Node30 -->
<g id="edge48_Node000007_Node000030" class="edge">
<title>Node7&#45;&gt;Node30</title>
<g id="a_edge48_Node000007_Node000030"><a xlink:title=" ">
<path fill="none" stroke="#63b8ff" d="M904.46,-208.13C930.28,-205.35 962.17,-202.06 990.75,-199.5 1203.39,-180.45 1258.05,-191.09 1469.75,-163.5 1598.56,-146.71 1747.43,-115.28 1829.12,-96.98"/>
<polygon fill="#63b8ff" stroke="#63b8ff" points="1829.73,-100.43 1838.72,-94.82 1828.19,-93.6 1829.73,-100.43"/>
</a>
</g>
</g>
<!-- Node22&#45;&gt;Node8 -->
<g id="edge23_Node000022_Node000008" class="edge">
<title>Node22&#45;&gt;Node8</title>
<g id="a_edge23_Node000022_Node000008"><a xlink:title=" ">
<path fill="none" stroke="#63b8ff" d="M802.9,-80.05C682.73,-77.79 372.05,-68.44 115.75,-30.5 110.7,-29.75 105.45,-28.81 100.23,-27.77"/>
<polygon fill="#63b8ff" stroke="#63b8ff" points="100.97,-24.34 90.46,-25.68 99.5,-31.19 100.97,-24.34"/>
</a>
</g>
</g>
<!-- Node22&#45;&gt;Node9 -->
<g id="edge24_Node000022_Node000009" class="edge">
<title>Node22&#45;&gt;Node9</title>
<g id="a_edge24_Node000022_Node000009"><a xlink:title=" ">
<path fill="none" stroke="#63b8ff" d="M803.03,-78.55C699.52,-73.61 456.67,-59.71 254.75,-30.5 248.85,-29.65 242.69,-28.6 236.59,-27.47"/>
<polygon fill="#63b8ff" stroke="#63b8ff" points="237.71,-24.12 227.23,-25.65 236.37,-30.99 237.71,-24.12"/>
</a>
</g>
</g>
<!-- Node22&#45;&gt;Node10 -->
<g id="edge25_Node000022_Node000010" class="edge">
<title>Node22&#45;&gt;Node10</title>
<g id="a_edge25_Node000022_Node000010"><a xlink:title=" ">
<path fill="none" stroke="#63b8ff" d="M803.19,-77.31C716.53,-70.98 534.18,-55.77 381.75,-30.5 376.83,-29.68 371.71,-28.72 366.61,-27.69"/>
<polygon fill="#63b8ff" stroke="#63b8ff" points="367.58,-24.31 357.07,-25.65 366.12,-31.16 367.58,-24.31"/>
</a>
</g>
</g>
<!-- Node22&#45;&gt;Node11 -->
<g id="edge26_Node000022_Node000011" class="edge">
<title>Node22&#45;&gt;Node11</title>
<g id="a_edge26_Node000022_Node000011"><a xlink:title=" ">
<path fill="none" stroke="#63b8ff" d="M803.07,-73.34C742.03,-64.29 636.08,-48.23 535.65,-30.97"/>
<polygon fill="#63b8ff" stroke="#63b8ff" points="536.33,-27.54 525.88,-29.28 535.14,-34.43 536.33,-27.54"/>
</a>
</g>
</g>
<!-- Node22&#45;&gt;Node12 -->
<g id="edge27_Node000022_Node000012" class="edge">
<title>Node22&#45;&gt;Node12</title>
<g id="a_edge27_Node000022_Node000012"><a xlink:title=" ">
<path fill="none" stroke="#63b8ff" d="M803,-68.16C761.18,-57.78 701.65,-43.02 656.78,-31.89"/>
<polygon fill="#63b8ff" stroke="#63b8ff" points="657.72,-28.51 647.17,-29.5 656.04,-35.31 657.72,-28.51"/>
</a>
</g>
</g>
<!-- Node22&#45;&gt;Node13 -->
<g id="edge28_Node000022_Node000013" class="edge">
<title>Node22&#45;&gt;Node13</title>
<g id="a_edge28_Node000022_Node000013"><a xlink:title=" ">
<path fill="none" stroke="#63b8ff" d="M822.21,-66.11C798.84,-55.27 767.2,-40.59 744.32,-29.97"/>
<polygon fill="#63b8ff" stroke="#63b8ff" points="746.08,-26.93 735.54,-25.9 743.14,-33.28 746.08,-26.93"/>
</a>
</g>
</g>
<!-- Node22&#45;&gt;Node14 -->
<g id="edge29_Node000022_Node000014" class="edge">
<title>Node22&#45;&gt;Node14</title>
<g id="a_edge29_Node000022_Node000014"><a xlink:title=" ">
<path fill="none" stroke="#63b8ff" d="M850.35,-66.11C848.28,-57.23 845.61,-45.77 843.36,-36.08"/>
<polygon fill="#63b8ff" stroke="#63b8ff" points="846.82,-35.49 841.14,-26.55 840,-37.08 846.82,-35.49"/>
</a>
</g>
</g>
<!-- Node22&#45;&gt;Node15 -->
<g id="edge30_Node000022_Node000015" class="edge">
<title>Node22&#45;&gt;Node15</title>
<g id="a_edge30_Node000022_Node000015"><a xlink:title=" ">
<path fill="none" stroke="#63b8ff" d="M882.34,-66.11C903.24,-55.42 931.43,-40.99 952.1,-30.4"/>
<polygon fill="#63b8ff" stroke="#63b8ff" points="953.5,-33.62 960.8,-25.95 950.31,-27.39 953.5,-33.62"/>
</a>
</g>
</g>
<!-- Node22&#45;&gt;Node16 -->
<g id="edge31_Node000022_Node000016" class="edge">
<title>Node22&#45;&gt;Node16</title>
<g id="a_edge31_Node000022_Node000016"><a xlink:title=" ">
<path fill="none" stroke="#63b8ff" d="M904.32,-69.07C908.85,-68.15 913.38,-67.28 917.75,-66.5 1036.51,-45.37 1067.48,-48.47 1186.75,-30.5 1193.64,-29.46 1200.84,-28.33 1208.01,-27.17"/>
<polygon fill="#63b8ff" stroke="#63b8ff" points="1208.4,-30.65 1217.7,-25.58 1207.27,-23.75 1208.4,-30.65"/>
</a>
</g>
</g>
<!-- Node22&#45;&gt;Node17 -->
<g id="edge32_Node000022_Node000017" class="edge">
<title>Node22&#45;&gt;Node17</title>
<g id="a_edge32_Node000022_Node000017"><a xlink:title=" ">
<path fill="none" stroke="#63b8ff" d="M904.53,-73.16C920.86,-70.85 939.05,-68.42 955.75,-66.5 1129.45,-46.56 1177,-54.63 1353.42,-30.73"/>
<polygon fill="#63b8ff" stroke="#63b8ff" points="1353.74,-34.22 1363.17,-29.39 1352.79,-27.28 1353.74,-34.22"/>
</a>
</g>
</g>
<!-- Node22&#45;&gt;Node18 -->
<g id="edge33_Node000022_Node000018" class="edge">
<title>Node22&#45;&gt;Node18</title>
<g id="a_edge33_Node000022_Node000018"><a xlink:title=" ">
<path fill="none" stroke="#63b8ff" d="M904.43,-76.01C938.89,-72.92 985.54,-69.02 1026.75,-66.5 1423.5,-42.25 1528.26,-75.93 1925.43,-30.78"/>
<polygon fill="#63b8ff" stroke="#63b8ff" points="1925.62,-34.28 1935.16,-29.66 1924.82,-27.32 1925.62,-34.28"/>
</a>
</g>
</g>
<!-- Node22&#45;&gt;Node19 -->
<g id="edge34_Node000022_Node000019" class="edge">
<title>Node22&#45;&gt;Node19</title>
<g id="a_edge34_Node000022_Node000019"><a xlink:title=" ">
<path fill="none" stroke="#63b8ff" d="M904.59,-75.19C931.14,-72.38 964.18,-69.04 993.75,-66.5 1218.24,-47.22 1278.99,-61.58 1504.89,-30.78"/>
<polygon fill="#63b8ff" stroke="#63b8ff" points="1505.2,-34.27 1514.63,-29.43 1504.24,-27.33 1505.2,-34.27"/>
</a>
</g>
</g>
<!-- Node22&#45;&gt;Node20 -->
<g id="edge35_Node000022_Node000020" class="edge">
<title>Node22&#45;&gt;Node20</title>
<g id="a_edge35_Node000022_Node000020"><a xlink:title=" ">
<path fill="none" stroke="#63b8ff" d="M904.44,-76.25C938.91,-73.27 985.56,-69.4 1026.75,-66.5 1297.15,-47.48 1369.47,-65.5 1641.73,-30.63"/>
<polygon fill="#63b8ff" stroke="#63b8ff" points="1641.78,-34.15 1651.25,-29.39 1640.88,-27.21 1641.78,-34.15"/>
</a>
</g>
</g>
<!-- Node22&#45;&gt;Node21 -->
<g id="edge36_Node000022_Node000021" class="edge">
<title>Node22&#45;&gt;Node21</title>
<g id="a_edge36_Node000022_Node000021"><a xlink:title=" ">
<path fill="none" stroke="#63b8ff" d="M904.43,-76.11C938.9,-73.07 985.55,-69.18 1026.75,-66.5 1359.26,-44.91 1447.52,-70.74 1780.89,-30.74"/>
<polygon fill="#63b8ff" stroke="#63b8ff" points="1780.83,-34.27 1790.34,-29.59 1779.99,-27.32 1780.83,-34.27"/>
</a>
</g>
</g>
<!-- Node23 -->
<g id="Node000023" class="node">
<title>Node23</title>
<g id="a_Node000023"><a xlink:href="_op_interfaces_8h_8inc.html" target="_top" xlink:title=" ">
<polygon fill="white" stroke="#666666" points="1178.12,-30.5 1065.38,-30.5 1065.38,0 1178.12,0 1178.12,-30.5"/>
<text text-anchor="start" x="1073.38" y="-17" font-family="Helvetica,sans-Serif" font-size="10.00">zklang/Dialect/ZML</text>
<text text-anchor="middle" x="1121.75" y="-5.75" font-family="Helvetica,sans-Serif" font-size="10.00">/IR/OpInterfaces.h.inc</text>
</a>
</g>
</g>
<!-- Node22&#45;&gt;Node23 -->
<g id="edge37_Node000022_Node000023" class="edge">
<title>Node22&#45;&gt;Node23</title>
<g id="a_edge37_Node000022_Node000023"><a xlink:title=" ">
<path fill="none" stroke="#63b8ff" d="M904.47,-68.54C946.81,-58.35 1007.52,-43.74 1054.02,-32.55"/>
<polygon fill="#63b8ff" stroke="#63b8ff" points="1054.83,-35.96 1063.74,-30.21 1053.19,-29.15 1054.83,-35.96"/>
</a>
</g>
</g>
<!-- Node24&#45;&gt;Node18 -->
<g id="edge43_Node000024_Node000018" class="edge">
<title>Node24&#45;&gt;Node18</title>
<g id="a_edge43_Node000024_Node000018"><a xlink:title=" ">
<path fill="none" stroke="#63b8ff" d="M1461.6,-143.99C1551.6,-137.66 1735,-122.07 1793.75,-97 1813.67,-88.5 1812.55,-76.52 1831.75,-66.5 1860.94,-51.26 1895.42,-40.01 1925.74,-32.06"/>
<polygon fill="#63b8ff" stroke="#63b8ff" points="1926.4,-35.5 1935.24,-29.65 1924.68,-28.72 1926.4,-35.5"/>
</a>
</g>
</g>
<!-- Node24&#45;&gt;Node22 -->
<g id="edge45_Node000024_Node000022" class="edge">
<title>Node24&#45;&gt;Node22</title>
<g id="a_edge45_Node000024_Node000022"><a xlink:title=" ">
<path fill="none" stroke="#63b8ff" d="M1360.34,-141.41C1258.17,-129.58 1027,-102.81 915.79,-89.93"/>
<polygon fill="#63b8ff" stroke="#63b8ff" points="916.29,-86.47 905.95,-88.8 915.48,-93.42 916.29,-86.47"/>
</a>
</g>
</g>
<!-- Node25 -->
<g id="Node000025" class="node">
<title>Node25</title>
<g id="a_Node000025"><a xlink:title=" ">
<polygon fill="#e0e0e0" stroke="#999999" points="1273.5,-91.38 1154,-91.38 1154,-72.12 1273.5,-72.12 1273.5,-91.38"/>
<text text-anchor="middle" x="1213.75" y="-77.88" font-family="Helvetica,sans-Serif" font-size="10.00">llvm/ADT/TypeSwitch.h</text>
</a>
</g>
</g>
<!-- Node24&#45;&gt;Node25 -->
<g id="edge39_Node000024_Node000025" class="edge">
<title>Node24&#45;&gt;Node25</title>
<g id="a_edge39_Node000024_Node000025"><a xlink:title=" ">
<path fill="none" stroke="#63b8ff" d="M1366.05,-132.61C1331.83,-121.41 1285.11,-106.11 1252.47,-95.43"/>
<polygon fill="#63b8ff" stroke="#63b8ff" points="1253.59,-92.11 1242.99,-92.32 1251.41,-98.76 1253.59,-92.11"/>
</a>
</g>
</g>
<!-- Node26 -->
<g id="Node000026" class="node">
<title>Node26</title>
<g id="a_Node000026"><a xlink:title=" ">
<polygon fill="#e0e0e0" stroke="#999999" points="1401.62,-91.38 1291.88,-91.38 1291.88,-72.12 1401.62,-72.12 1401.62,-91.38"/>
<text text-anchor="middle" x="1346.75" y="-77.88" font-family="Helvetica,sans-Serif" font-size="10.00">mlir/IR/BuiltinTypes.h</text>
</a>
</g>
</g>
<!-- Node24&#45;&gt;Node26 -->
<g id="edge40_Node000024_Node000026" class="edge">
<title>Node24&#45;&gt;Node26</title>
<g id="a_edge40_Node000024_Node000026"><a xlink:title=" ">
<path fill="none" stroke="#63b8ff" d="M1396.23,-132.61C1386.53,-122.84 1373.74,-109.95 1363.6,-99.73"/>
<polygon fill="#63b8ff" stroke="#63b8ff" points="1366.1,-97.28 1356.57,-92.65 1361.13,-102.21 1366.1,-97.28"/>
</a>
</g>
</g>
<!-- Node27 -->
<g id="Node000027" class="node">
<title>Node27</title>
<g id="a_Node000027"><a xlink:title=" ">
<polygon fill="#e0e0e0" stroke="#999999" points="1532.12,-91.38 1419.38,-91.38 1419.38,-72.12 1532.12,-72.12 1532.12,-91.38"/>
<text text-anchor="middle" x="1475.75" y="-77.88" font-family="Helvetica,sans-Serif" font-size="10.00">mlir/IR/SymbolTable.h</text>
</a>
</g>
</g>
<!-- Node24&#45;&gt;Node27 -->
<g id="edge41_Node000024_Node000027" class="edge">
<title>Node24&#45;&gt;Node27</title>
<g id="a_edge41_Node000024_Node000027"><a xlink:title=" ">
<path fill="none" stroke="#63b8ff" d="M1425.5,-132.61C1435.45,-122.74 1448.6,-109.69 1458.95,-99.42"/>
<polygon fill="#63b8ff" stroke="#63b8ff" points="1461.15,-102.17 1465.78,-92.64 1456.22,-97.2 1461.15,-102.17"/>
</a>
</g>
</g>
<!-- Node28 -->
<g id="Node000028" class="node">
<title>Node28</title>
<g id="a_Node000028"><a xlink:title=" ">
<polygon fill="#e0e0e0" stroke="#999999" points="1633.12,-91.38 1550.38,-91.38 1550.38,-72.12 1633.12,-72.12 1633.12,-91.38"/>
<text text-anchor="middle" x="1591.75" y="-77.88" font-family="Helvetica,sans-Serif" font-size="10.00">mlir/IR/Types.h</text>
</a>
</g>
</g>
<!-- Node24&#45;&gt;Node28 -->
<g id="edge42_Node000024_Node000028" class="edge">
<title>Node24&#45;&gt;Node28</title>
<g id="a_edge42_Node000024_Node000028"><a xlink:title=" ">
<path fill="none" stroke="#63b8ff" d="M1451.82,-132.61C1482.99,-121.51 1525.44,-106.38 1555.39,-95.71"/>
<polygon fill="#63b8ff" stroke="#63b8ff" points="1556.53,-99.02 1564.78,-92.36 1554.18,-92.42 1556.53,-99.02"/>
</a>
</g>
</g>
<!-- Node29 -->
<g id="Node000029" class="node">
<title>Node29</title>
<g id="a_Node000029"><a xlink:title=" ">
<polygon fill="#e0e0e0" stroke="#999999" points="1784.62,-97 1650.88,-97 1650.88,-66.5 1784.62,-66.5 1784.62,-97"/>
<text text-anchor="start" x="1658.88" y="-83.5" font-family="Helvetica,sans-Serif" font-size="10.00">mlir/Interfaces/MemorySlot</text>
<text text-anchor="middle" x="1717.75" y="-72.25" font-family="Helvetica,sans-Serif" font-size="10.00">Interfaces.h</text>
</a>
</g>
</g>
<!-- Node24&#45;&gt;Node29 -->
<g id="edge44_Node000024_Node000029" class="edge">
<title>Node24&#45;&gt;Node29</title>
<g id="a_edge44_Node000024_Node000029"><a xlink:title=" ">
<path fill="none" stroke="#63b8ff" d="M1461.44,-136.6C1509.9,-126.42 1583.66,-110.92 1639.63,-99.16"/>
<polygon fill="#63b8ff" stroke="#63b8ff" points="1640.02,-102.66 1649.09,-97.18 1638.58,-95.81 1640.02,-102.66"/>
</a>
</g>
</g>
<!-- Node24&#45;&gt;Node30 -->
<g id="edge46_Node000024_Node000030" class="edge">
<title>Node24&#45;&gt;Node30</title>
<g id="a_edge46_Node000024_Node000030"><a xlink:title=" ">
<path fill="none" stroke="#63b8ff" d="M1461.57,-142.75C1540.19,-135.41 1695.89,-119.42 1826.75,-97 1827.57,-96.86 1828.4,-96.72 1829.23,-96.57"/>
<polygon fill="#63b8ff" stroke="#63b8ff" points="1829.52,-100.07 1838.7,-94.77 1828.22,-93.2 1829.52,-100.07"/>
</a>
</g>
</g>
<!-- Node31 -->
<g id="Node000031" class="node">
<title>Node31</title>
<g id="a_Node000031"><a xlink:href="_types_8h_8inc.html" target="_top" xlink:title=" ">
<polygon fill="white" stroke="#666666" points="1136.12,-97 1035.38,-97 1035.38,-66.5 1136.12,-66.5 1136.12,-97"/>
<text text-anchor="start" x="1043.38" y="-83.5" font-family="Helvetica,sans-Serif" font-size="10.00">zklang/Dialect/ZML</text>
<text text-anchor="middle" x="1085.75" y="-72.25" font-family="Helvetica,sans-Serif" font-size="10.00">/IR/Types.h.inc</text>
</a>
</g>
</g>
<!-- Node24&#45;&gt;Node31 -->
<g id="edge47_Node000024_Node000031" class="edge">
<title>Node24&#45;&gt;Node31</title>
<g id="a_edge47_Node000024_Node000031"><a xlink:title=" ">
<path fill="none" stroke="#63b8ff" d="M1360.1,-138.46C1308.88,-129.4 1227.17,-114.48 1147.75,-97.59"/>
<polygon fill="#63b8ff" stroke="#63b8ff" points="1148.55,-94.18 1138.04,-95.51 1147.09,-101.03 1148.55,-94.18"/>
</a>
</g>
</g>
<!-- Node33 -->
<g id="Node000033" class="node">
<title>Node33</title>
<g id="a_Node000033"><a xlink:title=" ">
<polygon fill="#e0e0e0" stroke="#999999" points="1045.38,-224.38 1000.12,-224.38 1000.12,-205.12 1045.38,-205.12 1045.38,-224.38"/>
<text text-anchor="middle" x="1022.75" y="-210.88" font-family="Helvetica,sans-Serif" font-size="10.00">cstdint</text>
</a>
</g>
</g>
<!-- Node32&#45;&gt;Node33 -->
<g id="edge50_Node000032_Node000033" class="edge">
<title>Node32&#45;&gt;Node33</title>
<g id="a_edge50_Node000032_Node000033"><a xlink:title=" ">
<path fill="none" stroke="#63b8ff" d="M1022.75,-265.61C1022.75,-256.83 1022.75,-245.52 1022.75,-235.9"/>
<polygon fill="#63b8ff" stroke="#63b8ff" points="1026.25,-236.09 1022.75,-226.09 1019.25,-236.09 1026.25,-236.09"/>
</a>
</g>
</g>
</g>
</svg>
