<?xml version="1.0" encoding="UTF-8" standalone="no"?>
<!DOCTYPE svg PUBLIC "-//W3C//DTD SVG 1.1//EN"
 "http://www.w3.org/Graphics/SVG/1.1/DTD/svg11.dtd">
<!-- Generated by graphviz version 12.2.1 (20241206.2353)
 -->
<!-- Title: include/zklang/Dialect/ZML/Typing/Materialize.h Pages: 1 -->
<svg width="534pt" height="172pt"
 viewBox="0.00 0.00 533.62 171.50" xmlns="http://www.w3.org/2000/svg" xmlns:xlink="http://www.w3.org/1999/xlink">
<g id="graph0" class="graph" transform="scale(1 1) rotate(0) translate(4 167.5)">
<title>include/zklang/Dialect/ZML/Typing/Materialize.h</title>
<!-- Node1 -->
<g id="Node000001" class="node">
<title>Node1</title>
<g id="a_Node000001"><a xlink:title=" ">
<polygon fill="#999999" stroke="#666666" points="340.12,-163.5 211.62,-163.5 211.62,-133 340.12,-133 340.12,-163.5"/>
<text text-anchor="start" x="219.62" y="-150" font-family="Helvetica,sans-Serif" font-size="10.00">include/zklang/Dialect</text>
<text text-anchor="middle" x="275.88" y="-138.75" font-family="Helvetica,sans-Serif" font-size="10.00">/ZML/Typing/Materialize.h</text>
</a>
</g>
</g>
<!-- Node2 -->
<g id="Node000002" class="node">
<title>Node2</title>
<g id="a_Node000002"><a xlink:href="_passes_2_convert_zhl_to_zml_2_patterns_8h.html" target="_top" xlink:title=" ">
<polygon fill="white" stroke="#666666" points="199.88,-97 57.88,-97 57.88,-66.5 199.88,-66.5 199.88,-97"/>
<text text-anchor="start" x="65.88" y="-83.5" font-family="Helvetica,sans-Serif" font-size="10.00">include/zklang/Passes</text>
<text text-anchor="middle" x="128.88" y="-72.25" font-family="Helvetica,sans-Serif" font-size="10.00">/ConvertZhlToZml/Patterns.h</text>
</a>
</g>
</g>
<!-- Node1&#45;&gt;Node2 -->
<g id="edge1_Node000001_Node000002" class="edge">
<title>Node1&#45;&gt;Node2</title>
<g id="a_edge1_Node000001_Node000002"><a xlink:title=" ">
<path fill="none" stroke="#63b8ff" d="M232.27,-128.12C209.9,-118.3 183.07,-106.53 162.35,-97.44"/>
<polygon fill="#63b8ff" stroke="#63b8ff" points="230.57,-131.19 241.13,-132.01 233.38,-124.78 230.57,-131.19"/>
</a>
</g>
</g>
<!-- Node4 -->
<g id="Node000004" class="node">
<title>Node4</title>
<g id="a_Node000004"><a xlink:href="_passes_2_convert_zhl_to_zml_2_patterns_8cpp.html" target="_top" xlink:title=" ">
<polygon fill="white" stroke="#666666" points="297.75,-30.5 158,-30.5 158,0 297.75,0 297.75,-30.5"/>
<text text-anchor="start" x="166" y="-17" font-family="Helvetica,sans-Serif" font-size="10.00">lib/Passes/ConvertZhlToZml</text>
<text text-anchor="middle" x="227.88" y="-5.75" font-family="Helvetica,sans-Serif" font-size="10.00">/Patterns.cpp</text>
</a>
</g>
</g>
<!-- Node1&#45;&gt;Node4 -->
<g id="edge6_Node000001_Node000004" class="edge">
<title>Node1&#45;&gt;Node4</title>
<g id="a_edge6_Node000001_Node000004"><a xlink:title=" ">
<path fill="none" stroke="#63b8ff" d="M260.17,-123.34C255.37,-115.23 250.42,-105.95 246.88,-97 238.07,-74.77 232.69,-47.42 230,-30.93"/>
<polygon fill="#63b8ff" stroke="#63b8ff" points="257.03,-124.92 265.26,-131.58 262.98,-121.24 257.03,-124.92"/>
</a>
</g>
</g>
<!-- Node5 -->
<g id="Node000005" class="node">
<title>Node5</title>
<g id="a_Node000005"><a xlink:href="_helpers_8cpp.html" target="_top" xlink:title=" ">
<polygon fill="white" stroke="#666666" points="393.62,-91.38 256.12,-91.38 256.12,-72.12 393.62,-72.12 393.62,-91.38"/>
<text text-anchor="middle" x="324.88" y="-77.88" font-family="Helvetica,sans-Serif" font-size="10.00">lib/Dialect/ZML/Helpers.cpp</text>
</a>
</g>
</g>
<!-- Node1&#45;&gt;Node5 -->
<g id="edge4_Node000001_Node000005" class="edge">
<title>Node1&#45;&gt;Node5</title>
<g id="a_edge4_Node000001_Node000005"><a xlink:title=" ">
<path fill="none" stroke="#63b8ff" d="M293.76,-123.7C302.26,-112.52 311.9,-99.82 318.17,-91.57"/>
<polygon fill="#63b8ff" stroke="#63b8ff" points="291.17,-121.33 287.91,-131.41 296.75,-125.56 291.17,-121.33"/>
</a>
</g>
</g>
<!-- Node6 -->
<g id="Node000006" class="node">
<title>Node6</title>
<g id="a_Node000006"><a xlink:href="_materialize_8cpp.html" target="_top" xlink:title=" ">
<polygon fill="white" stroke="#666666" points="525.62,-97 412.12,-97 412.12,-66.5 525.62,-66.5 525.62,-97"/>
<text text-anchor="start" x="420.12" y="-83.5" font-family="Helvetica,sans-Serif" font-size="10.00">lib/Dialect/ZML/Typing</text>
<text text-anchor="middle" x="468.88" y="-72.25" font-family="Helvetica,sans-Serif" font-size="10.00">/Materialize.cpp</text>
</a>
</g>
</g>
<!-- Node1&#45;&gt;Node6 -->
<g id="edge5_Node000001_Node000006" class="edge">
<title>Node1&#45;&gt;Node6</title>
<g id="a_edge5_Node000001_Node000006"><a xlink:title=" ">
<path fill="none" stroke="#63b8ff" d="M330.36,-129.04C360.26,-119.05 396.86,-106.82 424.92,-97.44"/>
<polygon fill="#63b8ff" stroke="#63b8ff" points="329.48,-125.64 321.11,-132.13 331.7,-132.28 329.48,-125.64"/>
</a>
</g>
</g>
<!-- Node3 -->
<g id="Node000003" class="node">
<title>Node3</title>
<g id="a_Node000003"><a xlink:href="_convert_zhl_to_zml_2_pass_8cpp.html" target="_top" xlink:title=" ">
<polygon fill="white" stroke="#666666" points="139.75,-30.5 0,-30.5 0,0 139.75,0 139.75,-30.5"/>
<text text-anchor="start" x="8" y="-17" font-family="Helvetica,sans-Serif" font-size="10.00">lib/Passes/ConvertZhlToZml</text>
<text text-anchor="middle" x="69.88" y="-5.75" font-family="Helvetica,sans-Serif" font-size="10.00">/Pass.cpp</text>
</a>
</g>
</g>
<!-- Node2&#45;&gt;Node3 -->
<g id="edge2_Node000002_Node000003" class="edge">
<title>Node2&#45;&gt;Node3</title>
<g id="a_edge2_Node000002_Node000003"><a xlink:title=" ">
<path fill="none" stroke="#63b8ff" d="M107.73,-57.63C99.55,-48.69 90.44,-38.74 83.21,-30.83"/>
<polygon fill="#63b8ff" stroke="#63b8ff" points="105.13,-59.98 114.47,-65 110.3,-55.26 105.13,-59.98"/>
</a>
</g>
</g>
<!-- Node2&#45;&gt;Node4 -->
<g id="edge3_Node000002_Node000004" class="edge">
<title>Node2&#45;&gt;Node4</title>
<g id="a_edge3_Node000002_Node000004"><a xlink:title=" ">
<path fill="none" stroke="#63b8ff" d="M160.97,-59.84C175.51,-50.37 192.35,-39.39 205.5,-30.83"/>
<polygon fill="#63b8ff" stroke="#63b8ff" points="159.08,-56.9 152.61,-65.29 162.9,-62.76 159.08,-56.9"/>
</a>
</g>
</g>
</g>
</svg>
