<?xml version="1.0" encoding="UTF-8" standalone="no"?>
<!DOCTYPE svg PUBLIC "-//W3C//DTD SVG 1.1//EN"
 "http://www.w3.org/Graphics/SVG/1.1/DTD/svg11.dtd">
<!-- Generated by graphviz version 12.2.1 (20241206.2353)
 -->
<!-- Title: include/zklang/Dialect/ZHL/Typing/OpBindings.h Pages: 1 -->
<svg width="436pt" height="238pt"
 viewBox="0.00 0.00 436.36 238.00" xmlns="http://www.w3.org/2000/svg" xmlns:xlink="http://www.w3.org/1999/xlink">
<g id="graph0" class="graph" transform="scale(1 1) rotate(0) translate(4 234)">
<title>include/zklang/Dialect/ZHL/Typing/OpBindings.h</title>
<!-- Node1 -->
<g id="Node000001" class="node">
<title>Node1</title>
<g id="a_Node000001"><a xlink:title=" ">
<polygon fill="#999999" stroke="#666666" points="219.48,-230 88.73,-230 88.73,-199.5 219.48,-199.5 219.48,-230"/>
<text text-anchor="start" x="96.73" y="-216.5" font-family="Helvetica,sans-Serif" font-size="10.00">include/zklang/Dialect</text>
<text text-anchor="middle" x="154.11" y="-205.25" font-family="Helvetica,sans-Serif" font-size="10.00">/ZHL/Typing/OpBindings.h</text>
</a>
</g>
</g>
<!-- Node2 -->
<g id="Node000002" class="node">
<title>Node2</title>
<g id="a_Node000002"><a xlink:href="_typing_8h.html" target="_top" xlink:title=" ">
<polygon fill="white" stroke="#666666" points="210.11,-163.5 98.11,-163.5 98.11,-133 210.11,-133 210.11,-163.5"/>
<text text-anchor="start" x="106.11" y="-150" font-family="Helvetica,sans-Serif" font-size="10.00">include/zklang/Dialect</text>
<text text-anchor="middle" x="154.11" y="-138.75" font-family="Helvetica,sans-Serif" font-size="10.00">/ZHL/Typing/Typing.h</text>
</a>
</g>
</g>
<!-- Node1&#45;&gt;Node2 -->
<g id="edge1_Node000001_Node000002" class="edge">
<title>Node1&#45;&gt;Node2</title>
<g id="a_edge1_Node000001_Node000002"><a xlink:title=" ">
<path fill="none" stroke="#63b8ff" d="M154.11,-187.81C154.11,-179.64 154.11,-170.91 154.11,-163.83"/>
<polygon fill="#63b8ff" stroke="#63b8ff" points="150.61,-187.6 154.11,-197.6 157.61,-187.6 150.61,-187.6"/>
</a>
</g>
</g>
<!-- Node5 -->
<g id="Node000005" class="node">
<title>Node5</title>
<g id="a_Node000005"><a xlink:href="_typing_8cpp.html" target="_top" xlink:title=" ">
<polygon fill="white" stroke="#666666" points="186.48,-30.5 73.73,-30.5 73.73,0 186.48,0 186.48,-30.5"/>
<text text-anchor="start" x="81.73" y="-17" font-family="Helvetica,sans-Serif" font-size="10.00">lib/Dialect/ZHL/Typing</text>
<text text-anchor="middle" x="130.11" y="-5.75" font-family="Helvetica,sans-Serif" font-size="10.00">/Typing.cpp</text>
</a>
</g>
</g>
<!-- Node1&#45;&gt;Node5 -->
<g id="edge11_Node000001_Node000005" class="edge">
<title>Node1&#45;&gt;Node5</title>
<g id="a_edge11_Node000001_Node000005"><a xlink:title=" ">
<path fill="none" stroke="#63b8ff" d="M109.39,-194.13C72.91,-175.26 24.39,-142.82 5.11,-97 -0.15,-84.51 -2.48,-77.73 5.11,-66.5 20.5,-43.73 48.09,-31.28 73.45,-24.46"/>
<polygon fill="#63b8ff" stroke="#63b8ff" points="107.46,-197.08 117.97,-198.41 110.58,-190.81 107.46,-197.08"/>
</a>
</g>
</g>
<!-- Node6 -->
<g id="Node000006" class="node">
<title>Node6</title>
<g id="a_Node000006"><a xlink:href="_analysis_8cpp.html" target="_top" xlink:title=" ">
<polygon fill="white" stroke="#666666" points="126.48,-97 13.73,-97 13.73,-66.5 126.48,-66.5 126.48,-97"/>
<text text-anchor="start" x="21.73" y="-83.5" font-family="Helvetica,sans-Serif" font-size="10.00">lib/Dialect/ZHL/Typing</text>
<text text-anchor="middle" x="70.11" y="-72.25" font-family="Helvetica,sans-Serif" font-size="10.00">/Analysis.cpp</text>
</a>
</g>
</g>
<!-- Node1&#45;&gt;Node6 -->
<g id="edge8_Node000001_Node000006" class="edge">
<title>Node1&#45;&gt;Node6</title>
<g id="a_edge8_Node000001_Node000006"><a xlink:title=" ">
<path fill="none" stroke="#63b8ff" d="M118.07,-192.68C107.32,-184.78 96.45,-174.91 89.11,-163.5 75.94,-143.03 71.88,-114.4 70.64,-97.3"/>
<polygon fill="#63b8ff" stroke="#63b8ff" points="115.93,-195.45 126.15,-198.24 119.9,-189.69 115.93,-195.45"/>
</a>
</g>
</g>
<!-- Node7 -->
<g id="Node000007" class="node">
<title>Node7</title>
<g id="a_Node000007"><a xlink:href="_print_type_bindings_8cpp.html" target="_top" xlink:title=" ">
<polygon fill="white" stroke="#666666" points="428.36,-97 311.86,-97 311.86,-66.5 428.36,-66.5 428.36,-97"/>
<text text-anchor="start" x="319.86" y="-83.5" font-family="Helvetica,sans-Serif" font-size="10.00">lib/Dialect/ZHL/Typing</text>
<text text-anchor="middle" x="370.11" y="-72.25" font-family="Helvetica,sans-Serif" font-size="10.00">/PrintTypeBindings.cpp</text>
</a>
</g>
</g>
<!-- Node1&#45;&gt;Node7 -->
<g id="edge10_Node000001_Node000007" class="edge">
<title>Node1&#45;&gt;Node7</title>
<g id="a_edge10_Node000001_Node000007"><a xlink:title=" ">
<path fill="none" stroke="#63b8ff" d="M182.34,-192.1C193.79,-183.28 207.12,-172.95 219.11,-163.5 236.12,-150.1 238.62,-144.27 257.11,-133 280.3,-118.86 308.16,-106.43 330.42,-97.46"/>
<polygon fill="#63b8ff" stroke="#63b8ff" points="180.23,-189.31 174.44,-198.19 184.5,-194.86 180.23,-189.31"/>
</a>
</g>
</g>
<!-- Node8 -->
<g id="Node000008" class="node">
<title>Node8</title>
<g id="a_Node000008"><a xlink:href="_op_bindings_8cpp.html" target="_top" xlink:title=" ">
<polygon fill="white" stroke="#666666" points="378.48,-163.5 265.73,-163.5 265.73,-133 378.48,-133 378.48,-163.5"/>
<text text-anchor="start" x="273.73" y="-150" font-family="Helvetica,sans-Serif" font-size="10.00">lib/Dialect/ZHL/Typing</text>
<text text-anchor="middle" x="322.11" y="-138.75" font-family="Helvetica,sans-Serif" font-size="10.00">/OpBindings.cpp</text>
</a>
</g>
</g>
<!-- Node1&#45;&gt;Node8 -->
<g id="edge9_Node000001_Node000008" class="edge">
<title>Node1&#45;&gt;Node8</title>
<g id="a_edge9_Node000001_Node000008"><a xlink:title=" ">
<path fill="none" stroke="#63b8ff" d="M202.91,-195.01C228.68,-185.12 259.85,-173.15 283.85,-163.94"/>
<polygon fill="#63b8ff" stroke="#63b8ff" points="201.73,-191.72 193.64,-198.57 204.23,-198.25 201.73,-191.72"/>
</a>
</g>
</g>
<!-- Node3 -->
<g id="Node000003" class="node">
<title>Node3</title>
<g id="a_Node000003"><a xlink:href="_rules_8h.html" target="_top" xlink:title=" ">
<polygon fill="white" stroke="#666666" points="294.11,-97 182.11,-97 182.11,-66.5 294.11,-66.5 294.11,-97"/>
<text text-anchor="start" x="190.11" y="-83.5" font-family="Helvetica,sans-Serif" font-size="10.00">include/zklang/Dialect</text>
<text text-anchor="middle" x="238.11" y="-72.25" font-family="Helvetica,sans-Serif" font-size="10.00">/ZHL/Typing/Rules.h</text>
</a>
</g>
</g>
<!-- Node2&#45;&gt;Node3 -->
<g id="edge2_Node000002_Node000003" class="edge">
<title>Node2&#45;&gt;Node3</title>
<g id="a_edge2_Node000002_Node000003"><a xlink:title=" ">
<path fill="none" stroke="#63b8ff" d="M182.05,-125.79C194.23,-116.44 208.18,-105.73 219.12,-97.33"/>
<polygon fill="#63b8ff" stroke="#63b8ff" points="180.17,-122.83 174.37,-131.69 184.43,-128.38 180.17,-122.83"/>
</a>
</g>
</g>
<!-- Node2&#45;&gt;Node5 -->
<g id="edge7_Node000002_Node000005" class="edge">
<title>Node2&#45;&gt;Node5</title>
<g id="a_edge7_Node000002_Node000005"><a xlink:title=" ">
<path fill="none" stroke="#63b8ff" d="M149.38,-121.43C144.42,-94.34 136.79,-52.71 132.78,-30.83"/>
<polygon fill="#63b8ff" stroke="#63b8ff" points="145.93,-122.04 151.18,-131.24 152.82,-120.77 145.93,-122.04"/>
</a>
</g>
</g>
<!-- Node2&#45;&gt;Node6 -->
<g id="edge5_Node000002_Node000006" class="edge">
<title>Node2&#45;&gt;Node6</title>
<g id="a_edge5_Node000002_Node000006"><a xlink:title=" ">
<path fill="none" stroke="#63b8ff" d="M126.17,-125.79C113.99,-116.44 100.04,-105.73 89.09,-97.33"/>
<polygon fill="#63b8ff" stroke="#63b8ff" points="123.78,-128.38 133.85,-131.69 128.05,-122.83 123.78,-128.38"/>
</a>
</g>
</g>
<!-- Node2&#45;&gt;Node7 -->
<g id="edge6_Node000002_Node000007" class="edge">
<title>Node2&#45;&gt;Node7</title>
<g id="a_edge6_Node000002_Node000007"><a xlink:title=" ">
<path fill="none" stroke="#63b8ff" d="M214.04,-129.35C247.74,-119.29 289.28,-106.89 321.04,-97.4"/>
<polygon fill="#63b8ff" stroke="#63b8ff" points="213.42,-125.89 204.84,-132.1 215.43,-132.59 213.42,-125.89"/>
</a>
</g>
</g>
<!-- Node4 -->
<g id="Node000004" class="node">
<title>Node4</title>
<g id="a_Node000004"><a xlink:href="_rules_8cpp.html" target="_top" xlink:title=" ">
<polygon fill="white" stroke="#666666" points="317.48,-30.5 204.73,-30.5 204.73,0 317.48,0 317.48,-30.5"/>
<text text-anchor="start" x="212.73" y="-17" font-family="Helvetica,sans-Serif" font-size="10.00">lib/Dialect/ZHL/Typing</text>
<text text-anchor="middle" x="261.11" y="-5.75" font-family="Helvetica,sans-Serif" font-size="10.00">/Rules.cpp</text>
</a>
</g>
</g>
<!-- Node3&#45;&gt;Node4 -->
<g id="edge3_Node000003_Node000004" class="edge">
<title>Node3&#45;&gt;Node4</title>
<g id="a_edge3_Node000003_Node000004"><a xlink:title=" ">
<path fill="none" stroke="#63b8ff" d="M247.16,-55.38C250.13,-47.05 253.33,-38.08 255.91,-30.83"/>
<polygon fill="#63b8ff" stroke="#63b8ff" points="243.9,-54.09 243.84,-64.69 250.49,-56.44 243.9,-54.09"/>
</a>
</g>
</g>
<!-- Node3&#45;&gt;Node5 -->
<g id="edge4_Node000003_Node000005" class="edge">
<title>Node3&#45;&gt;Node5</title>
<g id="a_edge4_Node000003_Node000005"><a xlink:title=" ">
<path fill="none" stroke="#63b8ff" d="M204.01,-60.39C187.94,-50.79 169.14,-39.56 154.52,-30.83"/>
<polygon fill="#63b8ff" stroke="#63b8ff" points="201.92,-63.22 212.3,-65.34 205.51,-57.21 201.92,-63.22"/>
</a>
</g>
</g>
</g>
</svg>
