<?xml version="1.0" encoding="UTF-8" standalone="no"?>
<!DOCTYPE svg PUBLIC "-//W3C//DTD SVG 1.1//EN"
 "http://www.w3.org/Graphics/SVG/1.1/DTD/svg11.dtd">
<!-- Generated by graphviz version 12.2.1 (20241206.2353)
 -->
<!-- Title: include/zklang/Dialect/ZHL/Typing/OpBindings.h Pages: 1 -->
<svg width="2334pt" height="438pt"
 viewBox="0.00 0.00 2334.00 437.50" xmlns="http://www.w3.org/2000/svg" xmlns:xlink="http://www.w3.org/1999/xlink">
<g id="graph0" class="graph" transform="scale(1 1) rotate(0) translate(4 433.5)">
<title>include/zklang/Dialect/ZHL/Typing/OpBindings.h</title>
<!-- Node1 -->
<g id="Node000001" class="node">
<title>Node1</title>
<g id="a_Node000001"><a xlink:title=" ">
<polygon fill="#999999" stroke="#666666" points="2204.12,-429.5 2073.38,-429.5 2073.38,-399 2204.12,-399 2204.12,-429.5"/>
<text text-anchor="start" x="2081.38" y="-416" font-family="Helvetica,sans-Serif" font-size="10.00">include/zklang/Dialect</text>
<text text-anchor="middle" x="2138.75" y="-404.75" font-family="Helvetica,sans-Serif" font-size="10.00">/ZHL/Typing/OpBindings.h</text>
</a>
</g>
</g>
<!-- Node2 -->
<g id="Node000002" class="node">
<title>Node2</title>
<g id="a_Node000002"><a xlink:title=" ">
<polygon fill="#e0e0e0" stroke="#999999" points="2099,-91.38 1988.5,-91.38 1988.5,-72.12 2099,-72.12 2099,-91.38"/>
<text text-anchor="middle" x="2043.75" y="-77.88" font-family="Helvetica,sans-Serif" font-size="10.00">llvm/Support/Debug.h</text>
</a>
</g>
</g>
<!-- Node1&#45;&gt;Node2 -->
<g id="edge1_Node000001_Node000002" class="edge">
<title>Node1&#45;&gt;Node2</title>
<g id="a_edge1_Node000001_Node000002"><a xlink:title=" ">
<path fill="none" stroke="#63b8ff" d="M2131.6,-398.72C2120.59,-374.96 2100.75,-326.06 2100.75,-282.25 2100.75,-282.25 2100.75,-282.25 2100.75,-213.75 2100.75,-170.35 2074.11,-125.07 2057.26,-100.76"/>
<polygon fill="#63b8ff" stroke="#63b8ff" points="2060.3,-99 2051.62,-92.92 2054.62,-103.08 2060.3,-99"/>
</a>
</g>
</g>
<!-- Node3 -->
<g id="Node000003" class="node">
<title>Node3</title>
<g id="a_Node000003"><a xlink:title=" ">
<polygon fill="#e0e0e0" stroke="#999999" points="2227,-357.38 2128.5,-357.38 2128.5,-338.12 2227,-338.12 2227,-357.38"/>
<text text-anchor="middle" x="2177.75" y="-343.88" font-family="Helvetica,sans-Serif" font-size="10.00">mlir/IR/Operation.h</text>
</a>
</g>
</g>
<!-- Node1&#45;&gt;Node3 -->
<g id="edge2_Node000001_Node000003" class="edge">
<title>Node1&#45;&gt;Node3</title>
<g id="a_edge2_Node000001_Node000003"><a xlink:title=" ">
<path fill="none" stroke="#63b8ff" d="M2147.6,-398.61C2153.21,-389.33 2160.52,-377.25 2166.54,-367.3"/>
<polygon fill="#63b8ff" stroke="#63b8ff" points="2169.45,-369.24 2171.63,-358.87 2163.46,-365.61 2169.45,-369.24"/>
</a>
</g>
</g>
<!-- Node4 -->
<g id="Node000004" class="node">
<title>Node4</title>
<g id="a_Node000004"><a xlink:title=" ">
<polygon fill="#e0e0e0" stroke="#999999" points="2326,-357.38 2245.5,-357.38 2245.5,-338.12 2326,-338.12 2326,-357.38"/>
<text text-anchor="middle" x="2285.75" y="-343.88" font-family="Helvetica,sans-Serif" font-size="10.00">mlir/IR/Value.h</text>
</a>
</g>
</g>
<!-- Node1&#45;&gt;Node4 -->
<g id="edge3_Node000001_Node000004" class="edge">
<title>Node1&#45;&gt;Node4</title>
<g id="a_edge3_Node000001_Node000004"><a xlink:title=" ">
<path fill="none" stroke="#63b8ff" d="M2172.11,-398.61C2196.94,-387.72 2230.58,-372.96 2254.81,-362.33"/>
<polygon fill="#63b8ff" stroke="#63b8ff" points="2256.08,-365.59 2263.83,-358.37 2253.27,-359.18 2256.08,-365.59"/>
</a>
</g>
</g>
<!-- Node5 -->
<g id="Node000005" class="node">
<title>Node5</title>
<g id="a_Node000005"><a xlink:href="_type_bindings_8h.html" target="_top" xlink:title=" ">
<polygon fill="white" stroke="#666666" points="1333.38,-363 1216.12,-363 1216.12,-332.5 1333.38,-332.5 1333.38,-363"/>
<text text-anchor="start" x="1224.12" y="-349.5" font-family="Helvetica,sans-Serif" font-size="10.00">zklang/Dialect/ZHL</text>
<text text-anchor="middle" x="1274.75" y="-338.25" font-family="Helvetica,sans-Serif" font-size="10.00">/Typing/TypeBindings.h</text>
</a>
</g>
</g>
<!-- Node1&#45;&gt;Node5 -->
<g id="edge4_Node000001_Node000005" class="edge">
<title>Node1&#45;&gt;Node5</title>
<g id="a_edge4_Node000001_Node000005"><a xlink:title=" ">
<path fill="none" stroke="#63b8ff" d="M2073.1,-408.35C1913.98,-396.47 1508.81,-366.22 1345.03,-354"/>
<polygon fill="#63b8ff" stroke="#63b8ff" points="1345.4,-350.51 1335.17,-353.26 1344.88,-357.5 1345.4,-350.51"/>
</a>
</g>
</g>
<!-- Node5&#45;&gt;Node2 -->
<g id="edge10_Node000005_Node000002" class="edge">
<title>Node5&#45;&gt;Node2</title>
<g id="a_edge10_Node000005_Node000002"><a xlink:title=" ">
<path fill="none" stroke="#63b8ff" d="M1333.79,-345.54C1486.56,-341.97 1886.36,-329.53 1935.75,-296.5 2004.64,-250.43 2031.73,-146.52 2040.34,-102.77"/>
<polygon fill="#63b8ff" stroke="#63b8ff" points="2043.74,-103.64 2042.1,-93.17 2036.86,-102.38 2043.74,-103.64"/>
</a>
</g>
</g>
<!-- Node6 -->
<g id="Node000006" class="node">
<title>Node6</title>
<g id="a_Node000006"><a xlink:title=" ">
<polygon fill="#e0e0e0" stroke="#999999" points="1113.88,-91.38 1065.62,-91.38 1065.62,-72.12 1113.88,-72.12 1113.88,-91.38"/>
<text text-anchor="middle" x="1089.75" y="-77.88" font-family="Helvetica,sans-Serif" font-size="10.00">cassert</text>
</a>
</g>
</g>
<!-- Node5&#45;&gt;Node6 -->
<g id="edge5_Node000005_Node000006" class="edge">
<title>Node5&#45;&gt;Node6</title>
<g id="a_edge5_Node000005_Node000006"><a xlink:title=" ">
<path fill="none" stroke="#63b8ff" d="M1215.89,-338.05C1168.4,-329.75 1106.93,-315.67 1090.75,-296.5 1043.59,-240.6 1068.45,-144.09 1082.39,-102.62"/>
<polygon fill="#63b8ff" stroke="#63b8ff" points="1085.67,-103.86 1085.69,-93.26 1079.06,-101.53 1085.67,-103.86"/>
</a>
</g>
</g>
<!-- Node7 -->
<g id="Node000007" class="node">
<title>Node7</title>
<g id="a_Node000007"><a xlink:title=" ">
<polygon fill="#e0e0e0" stroke="#999999" points="1132.38,-157.88 1087.12,-157.88 1087.12,-138.62 1132.38,-138.62 1132.38,-157.88"/>
<text text-anchor="middle" x="1109.75" y="-144.38" font-family="Helvetica,sans-Serif" font-size="10.00">cstdint</text>
</a>
</g>
</g>
<!-- Node5&#45;&gt;Node7 -->
<g id="edge6_Node000005_Node000007" class="edge">
<title>Node5&#45;&gt;Node7</title>
<g id="a_edge6_Node000005_Node000007"><a xlink:title=" ">
<path fill="none" stroke="#63b8ff" d="M1216.02,-345.7C1178.81,-341.6 1133.24,-329.51 1108.75,-296.5 1080.9,-258.97 1093.34,-199.95 1102.72,-169.27"/>
<polygon fill="#63b8ff" stroke="#63b8ff" points="1106.05,-170.37 1105.84,-159.77 1099.4,-168.18 1106.05,-170.37"/>
</a>
</g>
</g>
<!-- Node8 -->
<g id="Node000008" class="node">
<title>Node8</title>
<g id="a_Node000008"><a xlink:title=" ">
<polygon fill="#e0e0e0" stroke="#999999" points="1882.88,-290.88 1840.62,-290.88 1840.62,-271.62 1882.88,-271.62 1882.88,-290.88"/>
<text text-anchor="middle" x="1861.75" y="-277.38" font-family="Helvetica,sans-Serif" font-size="10.00">deque</text>
</a>
</g>
</g>
<!-- Node5&#45;&gt;Node8 -->
<g id="edge7_Node000005_Node000008" class="edge">
<title>Node5&#45;&gt;Node8</title>
<g id="a_edge7_Node000005_Node000008"><a xlink:title=" ">
<path fill="none" stroke="#63b8ff" d="M1333.69,-347.05C1435.67,-346.33 1650.97,-339.28 1826.75,-296.5 1828.38,-296.1 1830.04,-295.64 1831.7,-295.13"/>
<polygon fill="#63b8ff" stroke="#63b8ff" points="1832.8,-298.46 1841.04,-291.8 1830.45,-291.87 1832.8,-298.46"/>
</a>
</g>
</g>
<!-- Node9 -->
<g id="Node000009" class="node">
<title>Node9</title>
<g id="a_Node000009"><a xlink:title=" ">
<polygon fill="#e0e0e0" stroke="#999999" points="1402.12,-91.38 1289.38,-91.38 1289.38,-72.12 1402.12,-72.12 1402.12,-91.38"/>
<text text-anchor="middle" x="1345.75" y="-77.88" font-family="Helvetica,sans-Serif" font-size="10.00">llvm/ADT/StringMap.h</text>
</a>
</g>
</g>
<!-- Node5&#45;&gt;Node9 -->
<g id="edge8_Node000005_Node000009" class="edge">
<title>Node5&#45;&gt;Node9</title>
<g id="a_edge8_Node000005_Node000009"><a xlink:title=" ">
<path fill="none" stroke="#63b8ff" d="M1228.15,-332.06C1211.43,-324.29 1194.35,-312.86 1184.75,-296.5 1162.93,-259.32 1165.16,-237.9 1184.75,-199.5 1199.39,-170.79 1278.29,-121.87 1319.95,-97.48"/>
<polygon fill="#63b8ff" stroke="#63b8ff" points="1321.47,-100.64 1328.37,-92.6 1317.96,-94.59 1321.47,-100.64"/>
</a>
</g>
</g>
<!-- Node10 -->
<g id="Node000010" class="node">
<title>Node10</title>
<g id="a_Node000010"><a xlink:title=" ">
<polygon fill="#e0e0e0" stroke="#999999" points="1810.62,-91.38 1700.88,-91.38 1700.88,-72.12 1810.62,-72.12 1810.62,-91.38"/>
<text text-anchor="middle" x="1755.75" y="-77.88" font-family="Helvetica,sans-Serif" font-size="10.00">llvm/ADT/StringRef.h</text>
</a>
</g>
</g>
<!-- Node5&#45;&gt;Node10 -->
<g id="edge9_Node000005_Node000010" class="edge">
<title>Node5&#45;&gt;Node10</title>
<g id="a_edge9_Node000005_Node000010"><a xlink:title=" ">
<path fill="none" stroke="#63b8ff" d="M1333.74,-346.39C1480.77,-344.87 1854.39,-337.02 1891.75,-296.5 1952.11,-231.03 1831.94,-135.43 1779.03,-98.3"/>
<polygon fill="#63b8ff" stroke="#63b8ff" points="1781.17,-95.53 1770.95,-92.73 1777.2,-101.29 1781.17,-95.53"/>
</a>
</g>
</g>
<!-- Node11 -->
<g id="Node000011" class="node">
<title>Node11</title>
<g id="a_Node000011"><a xlink:title=" ">
<polygon fill="#e0e0e0" stroke="#999999" points="1920.62,-91.38 1828.88,-91.38 1828.88,-72.12 1920.62,-72.12 1920.62,-91.38"/>
<text text-anchor="middle" x="1874.75" y="-77.88" font-family="Helvetica,sans-Serif" font-size="10.00">mlir/IR/Builders.h</text>
</a>
</g>
</g>
<!-- Node5&#45;&gt;Node11 -->
<g id="edge11_Node000005_Node000011" class="edge">
<title>Node5&#45;&gt;Node11</title>
<g id="a_edge11_Node000005_Node000011"><a xlink:title=" ">
<path fill="none" stroke="#63b8ff" d="M1333.63,-346.57C1484.31,-345.48 1874.82,-338.61 1913.75,-296.5 1964.99,-241.07 1912.29,-141.68 1886.84,-100.94"/>
<polygon fill="#63b8ff" stroke="#63b8ff" points="1889.94,-99.28 1881.58,-92.76 1884.05,-103.07 1889.94,-99.28"/>
</a>
</g>
</g>
<!-- Node12 -->
<g id="Node000012" class="node">
<title>Node12</title>
<g id="a_Node000012"><a xlink:title=" ">
<polygon fill="#e0e0e0" stroke="#999999" points="1528.88,-91.38 1420.62,-91.38 1420.62,-72.12 1528.88,-72.12 1528.88,-91.38"/>
<text text-anchor="middle" x="1474.75" y="-77.88" font-family="Helvetica,sans-Serif" font-size="10.00">mlir/IR/Diagnostics.h</text>
</a>
</g>
</g>
<!-- Node5&#45;&gt;Node12 -->
<g id="edge12_Node000005_Node000012" class="edge">
<title>Node5&#45;&gt;Node12</title>
<g id="a_edge12_Node000005_Node000012"><a xlink:title=" ">
<path fill="none" stroke="#63b8ff" d="M1278.43,-332.01C1283.01,-315.23 1291.85,-287.39 1304.75,-266 1347.34,-195.39 1420.37,-128.64 1455.18,-98.92"/>
<polygon fill="#63b8ff" stroke="#63b8ff" points="1457,-101.96 1462.39,-92.84 1452.49,-96.61 1457,-101.96"/>
</a>
</g>
</g>
<!-- Node13 -->
<g id="Node000013" class="node">
<title>Node13</title>
<g id="a_Node000013"><a xlink:title=" ">
<polygon fill="#e0e0e0" stroke="#999999" points="1682.38,-91.38 1589.12,-91.38 1589.12,-72.12 1682.38,-72.12 1682.38,-91.38"/>
<text text-anchor="middle" x="1635.75" y="-77.88" font-family="Helvetica,sans-Serif" font-size="10.00">mlir/IR/Location.h</text>
</a>
</g>
</g>
<!-- Node5&#45;&gt;Node13 -->
<g id="edge13_Node000005_Node000013" class="edge">
<title>Node5&#45;&gt;Node13</title>
<g id="a_edge13_Node000005_Node000013"><a xlink:title=" ">
<path fill="none" stroke="#63b8ff" d="M1333.86,-341.44C1451.12,-329.55 1706.41,-296.47 1758.75,-230 1777.99,-205.57 1742.75,-142.05 1734.75,-133 1719.57,-115.82 1697.11,-103.75 1677.43,-95.76"/>
<polygon fill="#63b8ff" stroke="#63b8ff" points="1678.85,-92.55 1668.25,-92.27 1676.36,-99.1 1678.85,-92.55"/>
</a>
</g>
</g>
<!-- Node14 -->
<g id="Node000014" class="node">
<title>Node14</title>
<g id="a_Node000014"><a xlink:title=" ">
<polygon fill="#e0e0e0" stroke="#999999" points="1609,-24.88 1504.5,-24.88 1504.5,-5.63 1609,-5.63 1609,-24.88"/>
<text text-anchor="middle" x="1556.75" y="-11.38" font-family="Helvetica,sans-Serif" font-size="10.00">mlir/Support/LLVM.h</text>
</a>
</g>
</g>
<!-- Node5&#45;&gt;Node14 -->
<g id="edge14_Node000005_Node000014" class="edge">
<title>Node5&#45;&gt;Node14</title>
<g id="a_edge14_Node000005_Node000014"><a xlink:title=" ">
<path fill="none" stroke="#63b8ff" d="M1333.74,-345.21C1478.27,-340.98 1846.95,-327.42 1965.75,-296.5 2047.87,-275.13 2138.75,-300.6 2138.75,-215.75 2138.75,-215.75 2138.75,-215.75 2138.75,-147.25 2138.75,-108.81 2138.41,-89.69 2107.75,-66.5 2069.61,-37.65 1757.35,-23.28 1620.55,-18.32"/>
<polygon fill="#63b8ff" stroke="#63b8ff" points="1621.07,-14.83 1610.96,-17.97 1620.82,-21.83 1621.07,-14.83"/>
</a>
</g>
</g>
<!-- Node15 -->
<g id="Node000015" class="node">
<title>Node15</title>
<g id="a_Node000015"><a xlink:title=" ">
<polygon fill="#e0e0e0" stroke="#999999" points="1271.25,-91.38 1132.25,-91.38 1132.25,-72.12 1271.25,-72.12 1271.25,-91.38"/>
<text text-anchor="middle" x="1201.75" y="-77.88" font-family="Helvetica,sans-Serif" font-size="10.00">mlir/Support/LogicalResult.h</text>
</a>
</g>
</g>
<!-- Node5&#45;&gt;Node15 -->
<g id="edge15_Node000005_Node000015" class="edge">
<title>Node5&#45;&gt;Node15</title>
<g id="a_edge15_Node000005_Node000015"><a xlink:title=" ">
<path fill="none" stroke="#63b8ff" d="M1215.67,-332.58C1197.11,-325.05 1178.64,-313.65 1167.75,-296.5 1128.06,-234.01 1169.6,-141.11 1190.85,-101.61"/>
<polygon fill="#63b8ff" stroke="#63b8ff" points="1193.79,-103.52 1195.6,-93.08 1187.67,-100.11 1193.79,-103.52"/>
</a>
</g>
</g>
<!-- Node16 -->
<g id="Node000016" class="node">
<title>Node16</title>
<g id="a_Node000016"><a xlink:href="_expr_8h.html" target="_top" xlink:title=" ">
<polygon fill="white" stroke="#666666" points="845.75,-230 745.75,-230 745.75,-199.5 845.75,-199.5 845.75,-230"/>
<text text-anchor="start" x="753.75" y="-216.5" font-family="Helvetica,sans-Serif" font-size="10.00">zklang/Dialect/ZHL</text>
<text text-anchor="middle" x="795.75" y="-205.25" font-family="Helvetica,sans-Serif" font-size="10.00">/Typing/Expr.h</text>
</a>
</g>
</g>
<!-- Node5&#45;&gt;Node16 -->
<g id="edge16_Node000005_Node000016" class="edge">
<title>Node5&#45;&gt;Node16</title>
<g id="a_edge16_Node000005_Node000016"><a xlink:title=" ">
<path fill="none" stroke="#63b8ff" d="M1216.08,-336.67C1166.77,-327.7 1094.63,-313.4 1032.75,-296.5 966.61,-278.44 892.02,-251.99 844.48,-234.33"/>
<polygon fill="#63b8ff" stroke="#63b8ff" points="845.89,-231.12 835.3,-230.91 843.45,-237.68 845.89,-231.12"/>
</a>
</g>
</g>
<!-- Node26 -->
<g id="Node000026" class="node">
<title>Node26</title>
<g id="a_Node000026"><a xlink:href="_frame_8h.html" target="_top" xlink:title=" ">
<polygon fill="white" stroke="#666666" points="398.75,-230 298.75,-230 298.75,-199.5 398.75,-199.5 398.75,-230"/>
<text text-anchor="start" x="306.75" y="-216.5" font-family="Helvetica,sans-Serif" font-size="10.00">zklang/Dialect/ZHL</text>
<text text-anchor="middle" x="348.75" y="-205.25" font-family="Helvetica,sans-Serif" font-size="10.00">/Typing/Frame.h</text>
</a>
</g>
</g>
<!-- Node5&#45;&gt;Node26 -->
<g id="edge38_Node000005_Node000026" class="edge">
<title>Node5&#45;&gt;Node26</title>
<g id="a_edge38_Node000005_Node000026"><a xlink:title=" ">
<path fill="none" stroke="#63b8ff" d="M1215.77,-338.41C1049.68,-314.91 579.18,-248.35 410.16,-224.44"/>
<polygon fill="#63b8ff" stroke="#63b8ff" points="410.89,-221.01 400.49,-223.07 409.9,-227.94 410.89,-221.01"/>
</a>
</g>
</g>
<!-- Node29 -->
<g id="Node000029" class="node">
<title>Node29</title>
<g id="a_Node000029"><a xlink:href="_frame_slot_8h.html" target="_top" xlink:title=" ">
<polygon fill="white" stroke="#666666" points="164.62,-97 60.88,-97 60.88,-66.5 164.62,-66.5 164.62,-97"/>
<text text-anchor="start" x="68.88" y="-83.5" font-family="Helvetica,sans-Serif" font-size="10.00">zklang/Dialect/ZHL</text>
<text text-anchor="middle" x="112.75" y="-72.25" font-family="Helvetica,sans-Serif" font-size="10.00">/Typing/FrameSlot.h</text>
</a>
</g>
</g>
<!-- Node5&#45;&gt;Node29 -->
<g id="edge50_Node000005_Node000029" class="edge">
<title>Node5&#45;&gt;Node29</title>
<g id="a_edge50_Node000005_Node000029"><a xlink:title=" ">
<path fill="none" stroke="#63b8ff" d="M1215.71,-341.63C1114.98,-332.83 903.43,-314.09 724.75,-296.5 444.55,-268.91 354.15,-339.47 94.75,-230 43.27,-208.27 -14.39,-180.68 14.75,-133 23.01,-119.48 36.2,-109.44 50.25,-102.06"/>
<polygon fill="#63b8ff" stroke="#63b8ff" points="51.69,-105.25 59.21,-97.79 48.68,-98.93 51.69,-105.25"/>
</a>
</g>
</g>
<!-- Node32 -->
<g id="Node000032" class="node">
<title>Node32</title>
<g id="a_Node000032"><a xlink:href="_type_binding_8h.html" target="_top" xlink:title=" ">
<polygon fill="white" stroke="#666666" points="1425.75,-296.5 1313.75,-296.5 1313.75,-266 1425.75,-266 1425.75,-296.5"/>
<text text-anchor="start" x="1321.75" y="-283" font-family="Helvetica,sans-Serif" font-size="10.00">zklang/Dialect/ZHL</text>
<text text-anchor="middle" x="1369.75" y="-271.75" font-family="Helvetica,sans-Serif" font-size="10.00">/Typing/TypeBinding.h</text>
</a>
</g>
</g>
<!-- Node5&#45;&gt;Node32 -->
<g id="edge51_Node000005_Node000032" class="edge">
<title>Node5&#45;&gt;Node32</title>
<g id="a_edge51_Node000005_Node000032"><a xlink:title=" ">
<path fill="none" stroke="#63b8ff" d="M1296.31,-332.11C1308.94,-323.54 1325.1,-312.56 1339.05,-303.09"/>
<polygon fill="#63b8ff" stroke="#63b8ff" points="1340.72,-306.19 1347.03,-297.68 1336.79,-300.4 1340.72,-306.19"/>
</a>
</g>
</g>
<!-- Node16&#45;&gt;Node7 -->
<g id="edge18_Node000016_Node000007" class="edge">
<title>Node16&#45;&gt;Node7</title>
<g id="a_edge18_Node000016_Node000007"><a xlink:title=" ">
<path fill="none" stroke="#63b8ff" d="M846.2,-203.39C910.62,-190.16 1020.34,-167.62 1075.68,-156.25"/>
<polygon fill="#63b8ff" stroke="#63b8ff" points="1076.06,-159.74 1085.15,-154.3 1074.65,-152.89 1076.06,-159.74"/>
</a>
</g>
</g>
<!-- Node16&#45;&gt;Node14 -->
<g id="edge26_Node000016_Node000014" class="edge">
<title>Node16&#45;&gt;Node14</title>
<g id="a_edge26_Node000016_Node000014"><a xlink:title=" ">
<path fill="none" stroke="#63b8ff" d="M745.51,-210.14C684.02,-204.55 585.27,-191.39 562.75,-163.5 554.23,-152.95 553.83,-143.2 562.75,-133 624.17,-62.75 1282.41,-28.19 1492.61,-18.89"/>
<polygon fill="#63b8ff" stroke="#63b8ff" points="1492.7,-22.39 1502.54,-18.45 1492.39,-15.4 1492.7,-22.39"/>
</a>
</g>
</g>
<!-- Node16&#45;&gt;Node15 -->
<g id="edge27_Node000016_Node000015" class="edge">
<title>Node16&#45;&gt;Node15</title>
<g id="a_edge27_Node000016_Node000015"><a xlink:title=" ">
<path fill="none" stroke="#63b8ff" d="M845.84,-203.65C887.91,-194.67 949.36,-180.37 1001.75,-163.5 1003.86,-162.82 1112.83,-118.74 1169.01,-96"/>
<polygon fill="#63b8ff" stroke="#63b8ff" points="1170.13,-99.33 1178.09,-92.33 1167.51,-92.84 1170.13,-99.33"/>
</a>
</g>
</g>
<!-- Node17 -->
<g id="Node000017" class="node">
<title>Node17</title>
<g id="a_Node000017"><a xlink:title=" ">
<polygon fill="#e0e0e0" stroke="#999999" points="866.88,-157.88 818.62,-157.88 818.62,-138.62 866.88,-138.62 866.88,-157.88"/>
<text text-anchor="middle" x="842.75" y="-144.38" font-family="Helvetica,sans-Serif" font-size="10.00">cstddef</text>
</a>
</g>
</g>
<!-- Node16&#45;&gt;Node17 -->
<g id="edge17_Node000016_Node000017" class="edge">
<title>Node16&#45;&gt;Node17</title>
<g id="a_edge17_Node000016_Node000017"><a xlink:title=" ">
<path fill="none" stroke="#63b8ff" d="M806.42,-199.11C813.32,-189.64 822.36,-177.23 829.7,-167.16"/>
<polygon fill="#63b8ff" stroke="#63b8ff" points="832.37,-169.44 835.43,-159.3 826.71,-165.32 832.37,-169.44"/>
</a>
</g>
</g>
<!-- Node18 -->
<g id="Node000018" class="node">
<title>Node18</title>
<g id="a_Node000018"><a xlink:title=" ">
<polygon fill="#e0e0e0" stroke="#999999" points="992.5,-157.88 885,-157.88 885,-138.62 992.5,-138.62 992.5,-157.88"/>
<text text-anchor="middle" x="938.75" y="-144.38" font-family="Helvetica,sans-Serif" font-size="10.00">llvm/ADT/ArrayRef.h</text>
</a>
</g>
</g>
<!-- Node16&#45;&gt;Node18 -->
<g id="edge19_Node000016_Node000018" class="edge">
<title>Node16&#45;&gt;Node18</title>
<g id="a_edge19_Node000016_Node000018"><a xlink:title=" ">
<path fill="none" stroke="#63b8ff" d="M828.2,-199.11C852.24,-188.27 884.79,-173.59 908.33,-162.97"/>
<polygon fill="#63b8ff" stroke="#63b8ff" points="909.72,-166.18 917.4,-158.88 906.84,-159.8 909.72,-166.18"/>
</a>
</g>
</g>
<!-- Node19 -->
<g id="Node000019" class="node">
<title>Node19</title>
<g id="a_Node000019"><a xlink:title=" ">
<polygon fill="#e0e0e0" stroke="#999999" points="551.12,-24.88 432.38,-24.88 432.38,-5.63 551.12,-5.63 551.12,-24.88"/>
<text text-anchor="middle" x="491.75" y="-11.38" font-family="Helvetica,sans-Serif" font-size="10.00">llvm/ADT/SmallString.h</text>
</a>
</g>
</g>
<!-- Node16&#45;&gt;Node19 -->
<g id="edge20_Node000016_Node000019" class="edge">
<title>Node16&#45;&gt;Node19</title>
<g id="a_edge20_Node000016_Node000019"><a xlink:title=" ">
<path fill="none" stroke="#63b8ff" d="M745.53,-207.2C672.87,-197.29 545.34,-178.09 529.75,-163.5 494.18,-130.2 490.15,-68.37 490.67,-36.47"/>
<polygon fill="#63b8ff" stroke="#63b8ff" points="494.16,-36.76 491.02,-26.65 487.16,-36.52 494.16,-36.76"/>
</a>
</g>
</g>
<!-- Node20 -->
<g id="Node000020" class="node">
<title>Node20</title>
<g id="a_Node000020"><a xlink:title=" ">
<polygon fill="#e0e0e0" stroke="#999999" points="681.25,-157.88 572.25,-157.88 572.25,-138.62 681.25,-138.62 681.25,-157.88"/>
<text text-anchor="middle" x="626.75" y="-144.38" font-family="Helvetica,sans-Serif" font-size="10.00">llvm/ADT/StringSet.h</text>
</a>
</g>
</g>
<!-- Node16&#45;&gt;Node20 -->
<g id="edge21_Node000016_Node000020" class="edge">
<title>Node16&#45;&gt;Node20</title>
<g id="a_edge21_Node000016_Node000020"><a xlink:title=" ">
<path fill="none" stroke="#63b8ff" d="M757.4,-199.11C728.34,-188.02 688.78,-172.92 660.82,-162.25"/>
<polygon fill="#63b8ff" stroke="#63b8ff" points="662.36,-159.1 651.77,-158.8 659.87,-165.64 662.36,-159.1"/>
</a>
</g>
</g>
<!-- Node21 -->
<g id="Node000021" class="node">
<title>Node21</title>
<g id="a_Node000021"><a xlink:title=" ">
<polygon fill="#e0e0e0" stroke="#999999" points="380.38,-91.38 263.12,-91.38 263.12,-72.12 380.38,-72.12 380.38,-91.38"/>
<text text-anchor="middle" x="321.75" y="-77.88" font-family="Helvetica,sans-Serif" font-size="10.00">llvm/ADT/simple_ilist.h</text>
</a>
</g>
</g>
<!-- Node16&#45;&gt;Node21 -->
<g id="edge22_Node000016_Node000021" class="edge">
<title>Node16&#45;&gt;Node21</title>
<g id="a_edge22_Node000016_Node000021"><a xlink:title=" ">
<path fill="none" stroke="#63b8ff" d="M745.44,-213.62C677.02,-211.85 551.92,-202.87 453.75,-163.5 432,-154.78 430.53,-145.55 410.75,-133 390.56,-120.19 366.95,-106.93 349.13,-97.26"/>
<polygon fill="#63b8ff" stroke="#63b8ff" points="350.92,-94.25 340.45,-92.59 347.6,-100.41 350.92,-94.25"/>
</a>
</g>
</g>
<!-- Node22 -->
<g id="Node000022" class="node">
<title>Node22</title>
<g id="a_Node000022"><a xlink:title=" ">
<polygon fill="#e0e0e0" stroke="#999999" points="401.38,-157.88 350.12,-157.88 350.12,-138.62 401.38,-138.62 401.38,-157.88"/>
<text text-anchor="middle" x="375.75" y="-144.38" font-family="Helvetica,sans-Serif" font-size="10.00">memory</text>
</a>
</g>
</g>
<!-- Node16&#45;&gt;Node22 -->
<g id="edge23_Node000016_Node000022" class="edge">
<title>Node16&#45;&gt;Node22</title>
<g id="a_edge23_Node000016_Node000022"><a xlink:title=" ">
<path fill="none" stroke="#63b8ff" d="M745.34,-210.48C671.97,-204.96 531.87,-191.53 415.75,-163.5 413.6,-162.98 411.4,-162.39 409.2,-161.75"/>
<polygon fill="#63b8ff" stroke="#63b8ff" points="410.38,-158.45 399.78,-158.7 408.22,-165.11 410.38,-158.45"/>
</a>
</g>
</g>
<!-- Node23 -->
<g id="Node000023" class="node">
<title>Node23</title>
<g id="a_Node000023"><a xlink:title=" ">
<polygon fill="#e0e0e0" stroke="#999999" points="800.5,-157.88 699,-157.88 699,-138.62 800.5,-138.62 800.5,-157.88"/>
<text text-anchor="middle" x="749.75" y="-144.38" font-family="Helvetica,sans-Serif" font-size="10.00">mlir/IR/AffineExpr.h</text>
</a>
</g>
</g>
<!-- Node16&#45;&gt;Node23 -->
<g id="edge24_Node000016_Node000023" class="edge">
<title>Node16&#45;&gt;Node23</title>
<g id="a_edge24_Node000016_Node000023"><a xlink:title=" ">
<path fill="none" stroke="#63b8ff" d="M785.31,-199.11C778.55,-189.64 769.7,-177.23 762.53,-167.16"/>
<polygon fill="#63b8ff" stroke="#63b8ff" points="765.58,-165.41 756.92,-159.3 759.88,-169.48 765.58,-165.41"/>
</a>
</g>
</g>
<!-- Node24 -->
<g id="Node000024" class="node">
<title>Node24</title>
<g id="a_Node000024"><a xlink:title=" ">
<polygon fill="#e0e0e0" stroke="#999999" points="360,-24.88 261.5,-24.88 261.5,-5.63 360,-5.63 360,-24.88"/>
<text text-anchor="middle" x="310.75" y="-11.38" font-family="Helvetica,sans-Serif" font-size="10.00">mlir/IR/Attributes.h</text>
</a>
</g>
</g>
<!-- Node16&#45;&gt;Node24 -->
<g id="edge25_Node000016_Node000024" class="edge">
<title>Node16&#45;&gt;Node24</title>
<g id="a_edge25_Node000016_Node000024"><a xlink:title=" ">
<path fill="none" stroke="#63b8ff" d="M745.51,-208.35C673.71,-200.09 545.8,-183.18 503.75,-163.5 443.5,-135.3 443.28,-106 389.75,-66.5 372.37,-53.67 351.75,-40.62 335.93,-31.04"/>
<polygon fill="#63b8ff" stroke="#63b8ff" points="337.99,-28.19 327.61,-26.05 334.39,-34.19 337.99,-28.19"/>
</a>
</g>
</g>
<!-- Node25 -->
<g id="Node000025" class="node">
<title>Node25</title>
<g id="a_Node000025"><a xlink:href="_params_8h.html" target="_top" xlink:title=" ">
<polygon fill="white" stroke="#666666" points="1588.75,-163.5 1488.75,-163.5 1488.75,-133 1588.75,-133 1588.75,-163.5"/>
<text text-anchor="start" x="1496.75" y="-150" font-family="Helvetica,sans-Serif" font-size="10.00">zklang/Dialect/ZHL</text>
<text text-anchor="middle" x="1538.75" y="-138.75" font-family="Helvetica,sans-Serif" font-size="10.00">/Typing/Params.h</text>
</a>
</g>
</g>
<!-- Node16&#45;&gt;Node25 -->
<g id="edge28_Node000016_Node000025" class="edge">
<title>Node16&#45;&gt;Node25</title>
<g id="a_edge28_Node000016_Node000025"><a xlink:title=" ">
<path fill="none" stroke="#63b8ff" d="M846.24,-209.37C978.37,-197.9 1334.03,-167.02 1477.5,-154.57"/>
<polygon fill="#63b8ff" stroke="#63b8ff" points="1477.52,-158.08 1487.18,-153.73 1476.91,-151.11 1477.52,-158.08"/>
</a>
</g>
</g>
<!-- Node25&#45;&gt;Node2 -->
<g id="edge32_Node000025_Node000002" class="edge">
<title>Node25&#45;&gt;Node2</title>
<g id="a_edge32_Node000025_Node000002"><a xlink:title=" ">
<path fill="none" stroke="#63b8ff" d="M1589.23,-137.9C1599.32,-136.16 1609.86,-134.44 1619.75,-133 1757,-112.98 1792.04,-113.6 1929.75,-97 1945.05,-95.16 1961.49,-93.13 1977,-91.19"/>
<polygon fill="#63b8ff" stroke="#63b8ff" points="1977.11,-94.71 1986.6,-89.99 1976.24,-87.76 1977.11,-94.71"/>
</a>
</g>
</g>
<!-- Node25&#45;&gt;Node6 -->
<g id="edge29_Node000025_Node000006" class="edge">
<title>Node25&#45;&gt;Node6</title>
<g id="a_edge29_Node000025_Node000006"><a xlink:title=" ">
<path fill="none" stroke="#63b8ff" d="M1488.4,-145.62C1409.47,-142.08 1252.32,-131.02 1123.75,-97 1122.36,-96.63 1120.95,-96.22 1119.53,-95.77"/>
<polygon fill="#63b8ff" stroke="#63b8ff" points="1120.86,-92.53 1110.27,-92.36 1118.44,-99.1 1120.86,-92.53"/>
</a>
</g>
</g>
<!-- Node25&#45;&gt;Node9 -->
<g id="edge30_Node000025_Node000009" class="edge">
<title>Node25&#45;&gt;Node9</title>
<g id="a_edge30_Node000025_Node000009"><a xlink:title=" ">
<path fill="none" stroke="#63b8ff" d="M1494.96,-132.61C1461.43,-121.41 1415.66,-106.11 1383.68,-95.43"/>
<polygon fill="#63b8ff" stroke="#63b8ff" points="1385.02,-92.18 1374.43,-92.33 1382.8,-98.82 1385.02,-92.18"/>
</a>
</g>
</g>
<!-- Node25&#45;&gt;Node10 -->
<g id="edge31_Node000025_Node000010" class="edge">
<title>Node25&#45;&gt;Node10</title>
<g id="a_edge31_Node000025_Node000010"><a xlink:title=" ">
<path fill="none" stroke="#63b8ff" d="M1588.26,-132.53C1626.47,-121.18 1678.69,-105.66 1714.61,-94.98"/>
<polygon fill="#63b8ff" stroke="#63b8ff" points="1715.16,-98.47 1723.75,-92.26 1713.17,-91.76 1715.16,-98.47"/>
</a>
</g>
</g>
<!-- Node25&#45;&gt;Node11 -->
<g id="edge33_Node000025_Node000011" class="edge">
<title>Node25&#45;&gt;Node11</title>
<g id="a_edge33_Node000025_Node000011"><a xlink:title=" ">
<path fill="none" stroke="#63b8ff" d="M1589.02,-138.36C1666.79,-124.6 1808.55,-99.45 1819.75,-97 1823.27,-96.23 1826.9,-95.39 1830.54,-94.52"/>
<polygon fill="#63b8ff" stroke="#63b8ff" points="1831.07,-97.99 1839.93,-92.19 1829.38,-91.2 1831.07,-97.99"/>
</a>
</g>
</g>
<!-- Node25&#45;&gt;Node12 -->
<g id="edge34_Node000025_Node000012" class="edge">
<title>Node25&#45;&gt;Node12</title>
<g id="a_edge34_Node000025_Node000012"><a xlink:title=" ">
<path fill="none" stroke="#63b8ff" d="M1524.23,-132.61C1514.53,-122.84 1501.74,-109.95 1491.6,-99.73"/>
<polygon fill="#63b8ff" stroke="#63b8ff" points="1494.1,-97.28 1484.57,-92.65 1489.13,-102.21 1494.1,-97.28"/>
</a>
</g>
</g>
<!-- Node25&#45;&gt;Node13 -->
<g id="edge35_Node000025_Node000013" class="edge">
<title>Node25&#45;&gt;Node13</title>
<g id="a_edge35_Node000025_Node000013"><a xlink:title=" ">
<path fill="none" stroke="#63b8ff" d="M1560.76,-132.61C1576.26,-122.31 1596.96,-108.54 1612.69,-98.08"/>
<polygon fill="#63b8ff" stroke="#63b8ff" points="1614.55,-101.05 1620.94,-92.6 1610.67,-95.22 1614.55,-101.05"/>
</a>
</g>
</g>
<!-- Node25&#45;&gt;Node14 -->
<g id="edge36_Node000025_Node000014" class="edge">
<title>Node25&#45;&gt;Node14</title>
<g id="a_edge36_Node000025_Node000014"><a xlink:title=" ">
<path fill="none" stroke="#63b8ff" d="M1540.75,-132.73C1543.95,-109.37 1550.27,-63.38 1553.94,-36.71"/>
<polygon fill="#63b8ff" stroke="#63b8ff" points="1557.4,-37.23 1555.29,-26.85 1550.46,-36.28 1557.4,-37.23"/>
</a>
</g>
</g>
<!-- Node25&#45;&gt;Node15 -->
<g id="edge37_Node000025_Node000015" class="edge">
<title>Node25&#45;&gt;Node15</title>
<g id="a_edge37_Node000025_Node000015"><a xlink:title=" ">
<path fill="none" stroke="#63b8ff" d="M1488.3,-137.59C1427.33,-125.92 1324.91,-106.32 1260.46,-93.99"/>
<polygon fill="#63b8ff" stroke="#63b8ff" points="1261.24,-90.57 1250.76,-92.13 1259.92,-97.45 1261.24,-90.57"/>
</a>
</g>
</g>
<!-- Node26&#45;&gt;Node21 -->
<g id="edge39_Node000026_Node000021" class="edge">
<title>Node26&#45;&gt;Node21</title>
<g id="a_edge39_Node000026_Node000021"><a xlink:title=" ">
<path fill="none" stroke="#63b8ff" d="M345.76,-199.23C340.92,-175.77 331.38,-129.46 325.89,-102.85"/>
<polygon fill="#63b8ff" stroke="#63b8ff" points="329.38,-102.42 323.93,-93.33 322.52,-103.83 329.38,-102.42"/>
</a>
</g>
</g>
<!-- Node26&#45;&gt;Node22 -->
<g id="edge41_Node000026_Node000022" class="edge">
<title>Node26&#45;&gt;Node22</title>
<g id="a_edge41_Node000026_Node000022"><a xlink:title=" ">
<path fill="none" stroke="#63b8ff" d="M354.88,-199.11C358.68,-190.03 363.61,-178.26 367.72,-168.43"/>
<polygon fill="#63b8ff" stroke="#63b8ff" points="370.84,-170.04 371.47,-159.47 364.38,-167.34 370.84,-170.04"/>
</a>
</g>
</g>
<!-- Node27 -->
<g id="Node000027" class="node">
<title>Node27</title>
<g id="a_Node000027"><a xlink:title=" ">
<polygon fill="#e0e0e0" stroke="#999999" points="293.88,-157.88 155.62,-157.88 155.62,-138.62 293.88,-138.62 293.88,-157.88"/>
<text text-anchor="middle" x="224.75" y="-144.38" font-family="Helvetica,sans-Serif" font-size="10.00">llvm/Support/raw_ostream.h</text>
</a>
</g>
</g>
<!-- Node26&#45;&gt;Node27 -->
<g id="edge40_Node000026_Node000027" class="edge">
<title>Node26&#45;&gt;Node27</title>
<g id="a_edge40_Node000026_Node000027"><a xlink:title=" ">
<path fill="none" stroke="#63b8ff" d="M320.61,-199.11C300.14,-188.46 272.56,-174.12 252.24,-163.55"/>
<polygon fill="#63b8ff" stroke="#63b8ff" points="253.9,-160.47 243.41,-158.96 250.67,-166.68 253.9,-160.47"/>
</a>
</g>
</g>
<!-- Node28 -->
<g id="Node000028" class="node">
<title>Node28</title>
<g id="a_Node000028"><a xlink:href="_frame_info_8h.html" target="_top" xlink:title=" ">
<polygon fill="white" stroke="#666666" points="137.25,-163.5 34.25,-163.5 34.25,-133 137.25,-133 137.25,-163.5"/>
<text text-anchor="start" x="42.25" y="-150" font-family="Helvetica,sans-Serif" font-size="10.00">zklang/Dialect/ZHL</text>
<text text-anchor="middle" x="85.75" y="-138.75" font-family="Helvetica,sans-Serif" font-size="10.00">/Typing/FrameInfo.h</text>
</a>
</g>
</g>
<!-- Node26&#45;&gt;Node28 -->
<g id="edge42_Node000026_Node000028" class="edge">
<title>Node26&#45;&gt;Node28</title>
<g id="a_edge42_Node000026_Node000028"><a xlink:title=" ">
<path fill="none" stroke="#63b8ff" d="M298.35,-201.39C255.64,-190.91 194.19,-175.84 148.33,-164.6"/>
<polygon fill="#63b8ff" stroke="#63b8ff" points="149.34,-161.24 138.79,-162.26 147.67,-168.04 149.34,-161.24"/>
</a>
</g>
</g>
<!-- Node28&#45;&gt;Node21 -->
<g id="edge43_Node000028_Node000021" class="edge">
<title>Node28&#45;&gt;Node21</title>
<g id="a_edge43_Node000028_Node000021"><a xlink:title=" ">
<path fill="none" stroke="#63b8ff" d="M137.54,-133.1C179.5,-121.63 237.96,-105.65 277.69,-94.79"/>
<polygon fill="#63b8ff" stroke="#63b8ff" points="278.44,-98.22 287.16,-92.2 276.59,-91.46 278.44,-98.22"/>
</a>
</g>
</g>
<!-- Node28&#45;&gt;Node29 -->
<g id="edge44_Node000028_Node000029" class="edge">
<title>Node28&#45;&gt;Node29</title>
<g id="a_edge44_Node000028_Node000029"><a xlink:title=" ">
<path fill="none" stroke="#63b8ff" d="M91.88,-132.61C94.95,-125.27 98.76,-116.18 102.27,-107.77"/>
<polygon fill="#63b8ff" stroke="#63b8ff" points="105.43,-109.3 106.06,-98.72 98.97,-106.6 105.43,-109.3"/>
</a>
</g>
</g>
<!-- Node29&#45;&gt;Node14 -->
<g id="edge49_Node000029_Node000014" class="edge">
<title>Node29&#45;&gt;Node14</title>
<g id="a_edge49_Node000029_Node000014"><a xlink:title=" ">
<path fill="none" stroke="#63b8ff" d="M164.91,-74.7C191.47,-71.81 224.3,-68.55 253.75,-66.5 729.06,-33.35 1303.55,-20.74 1492.86,-17.31"/>
<polygon fill="#63b8ff" stroke="#63b8ff" points="1492.8,-20.81 1502.73,-17.13 1492.67,-13.81 1492.8,-20.81"/>
</a>
</g>
</g>
<!-- Node29&#45;&gt;Node19 -->
<g id="edge45_Node000029_Node000019" class="edge">
<title>Node29&#45;&gt;Node19</title>
<g id="a_edge45_Node000029_Node000019"><a xlink:title=" ">
<path fill="none" stroke="#63b8ff" d="M165.05,-71.85C233.43,-60.21 353.16,-39.84 427.14,-27.25"/>
<polygon fill="#63b8ff" stroke="#63b8ff" points="427.39,-30.75 436.66,-25.63 426.22,-23.85 427.39,-30.75"/>
</a>
</g>
</g>
<!-- Node29&#45;&gt;Node24 -->
<g id="edge48_Node000029_Node000024" class="edge">
<title>Node29&#45;&gt;Node24</title>
<g id="a_edge48_Node000029_Node000024"><a xlink:title=" ">
<path fill="none" stroke="#63b8ff" d="M157.68,-66.11C192.23,-54.86 239.44,-39.48 272.26,-28.79"/>
<polygon fill="#63b8ff" stroke="#63b8ff" points="272.94,-32.25 281.36,-25.82 270.77,-25.59 272.94,-32.25"/>
</a>
</g>
</g>
<!-- Node30 -->
<g id="Node000030" class="node">
<title>Node30</title>
<g id="a_Node000030"><a xlink:title=" ">
<polygon fill="#e0e0e0" stroke="#999999" points="229.62,-24.88 119.88,-24.88 119.88,-5.63 229.62,-5.63 229.62,-24.88"/>
<text text-anchor="middle" x="174.75" y="-11.38" font-family="Helvetica,sans-Serif" font-size="10.00">llvm/ADT/ilist_node.h</text>
</a>
</g>
</g>
<!-- Node29&#45;&gt;Node30 -->
<g id="edge46_Node000029_Node000030" class="edge">
<title>Node29&#45;&gt;Node30</title>
<g id="a_edge46_Node000029_Node000030"><a xlink:title=" ">
<path fill="none" stroke="#63b8ff" d="M126.82,-66.11C136.21,-56.34 148.6,-43.45 158.43,-33.23"/>
<polygon fill="#63b8ff" stroke="#63b8ff" points="160.81,-35.8 165.22,-26.16 155.77,-30.95 160.81,-35.8"/>
</a>
</g>
</g>
<!-- Node31 -->
<g id="Node000031" class="node">
<title>Node31</title>
<g id="a_Node000031"><a xlink:title=" ">
<polygon fill="#e0e0e0" stroke="#999999" points="101.5,-30.5 0,-30.5 0,0 101.5,0 101.5,-30.5"/>
<text text-anchor="start" x="8" y="-17" font-family="Helvetica,sans-Serif" font-size="10.00">llvm/ADT/ilist_node</text>
<text text-anchor="middle" x="50.75" y="-5.75" font-family="Helvetica,sans-Serif" font-size="10.00">_options.h</text>
</a>
</g>
</g>
<!-- Node29&#45;&gt;Node31 -->
<g id="edge47_Node000029_Node000031" class="edge">
<title>Node29&#45;&gt;Node31</title>
<g id="a_edge47_Node000029_Node000031"><a xlink:title=" ">
<path fill="none" stroke="#63b8ff" d="M98.68,-66.11C90.99,-58.11 81.3,-48.03 72.64,-39.03"/>
<polygon fill="#63b8ff" stroke="#63b8ff" points="75.27,-36.7 65.81,-31.92 70.22,-41.55 75.27,-36.7"/>
</a>
</g>
</g>
<!-- Node32&#45;&gt;Node2 -->
<g id="edge57_Node000032_Node000002" class="edge">
<title>Node32&#45;&gt;Node2</title>
<g id="a_edge57_Node000032_Node000002"><a xlink:title=" ">
<path fill="none" stroke="#63b8ff" d="M1426.2,-278.48C1565.66,-273.68 1918.4,-258.82 1962.75,-230 2008.52,-200.26 2030.66,-135.34 2039.25,-102.55"/>
<polygon fill="#63b8ff" stroke="#63b8ff" points="2042.57,-103.71 2041.55,-93.16 2035.77,-102.04 2042.57,-103.71"/>
</a>
</g>
</g>
<!-- Node32&#45;&gt;Node6 -->
<g id="edge52_Node000032_Node000006" class="edge">
<title>Node32&#45;&gt;Node6</title>
<g id="a_edge52_Node000032_Node000006"><a xlink:title=" ">
<path fill="none" stroke="#63b8ff" d="M1349.16,-265.73C1297.79,-229.49 1164.3,-135.33 1111.6,-98.16"/>
<polygon fill="#63b8ff" stroke="#63b8ff" points="1113.89,-95.5 1103.7,-92.59 1109.86,-101.22 1113.89,-95.5"/>
</a>
</g>
</g>
<!-- Node32&#45;&gt;Node7 -->
<g id="edge53_Node000032_Node000007" class="edge">
<title>Node32&#45;&gt;Node7</title>
<g id="a_edge53_Node000032_Node000007"><a xlink:title=" ">
<path fill="none" stroke="#63b8ff" d="M1336.6,-265.58C1314.87,-255.82 1285.94,-242.53 1260.75,-230 1216.42,-207.95 1165.86,-180.41 1135.94,-163.86"/>
<polygon fill="#63b8ff" stroke="#63b8ff" points="1137.66,-160.82 1127.22,-159.03 1134.27,-166.94 1137.66,-160.82"/>
</a>
</g>
</g>
<!-- Node32&#45;&gt;Node9 -->
<g id="edge55_Node000032_Node000009" class="edge">
<title>Node32&#45;&gt;Node9</title>
<g id="a_edge55_Node000032_Node000009"><a xlink:title=" ">
<path fill="none" stroke="#63b8ff" d="M1367.99,-265.73C1363.76,-230.92 1353.03,-142.66 1348.19,-102.81"/>
<polygon fill="#63b8ff" stroke="#63b8ff" points="1351.68,-102.51 1347,-93.01 1344.73,-103.36 1351.68,-102.51"/>
</a>
</g>
</g>
<!-- Node32&#45;&gt;Node10 -->
<g id="edge56_Node000032_Node000010" class="edge">
<title>Node32&#45;&gt;Node10</title>
<g id="a_edge56_Node000032_Node000010"><a xlink:title=" ">
<path fill="none" stroke="#63b8ff" d="M1426.08,-277.03C1528.6,-270.58 1737.14,-254.58 1758.75,-230 1789.9,-194.57 1774.59,-133.72 1763.61,-102.5"/>
<polygon fill="#63b8ff" stroke="#63b8ff" points="1766.9,-101.31 1760.12,-93.18 1760.35,-103.77 1766.9,-101.31"/>
</a>
</g>
</g>
<!-- Node32&#45;&gt;Node11 -->
<g id="edge59_Node000032_Node000011" class="edge">
<title>Node32&#45;&gt;Node11</title>
<g id="a_edge59_Node000032_Node000011"><a xlink:title=" ">
<path fill="none" stroke="#63b8ff" d="M1426.1,-279.21C1524.56,-276.45 1722.97,-266.4 1780.75,-230 1828.76,-199.75 1856.8,-135.07 1868.42,-102.44"/>
<polygon fill="#63b8ff" stroke="#63b8ff" points="1871.7,-103.67 1871.59,-93.07 1865.07,-101.42 1871.7,-103.67"/>
</a>
</g>
</g>
<!-- Node32&#45;&gt;Node12 -->
<g id="edge60_Node000032_Node000012" class="edge">
<title>Node32&#45;&gt;Node12</title>
<g id="a_edge60_Node000032_Node000012"><a xlink:title=" ">
<path fill="none" stroke="#63b8ff" d="M1376.13,-265.78C1383.41,-249.49 1395.86,-222.31 1407.75,-199.5 1426.13,-164.24 1449.67,-124.27 1463.4,-101.43"/>
<polygon fill="#63b8ff" stroke="#63b8ff" points="1466.33,-103.36 1468.5,-92.99 1460.33,-99.74 1466.33,-103.36"/>
</a>
</g>
</g>
<!-- Node32&#45;&gt;Node13 -->
<g id="edge61_Node000032_Node000013" class="edge">
<title>Node32&#45;&gt;Node13</title>
<g id="a_edge61_Node000032_Node000013"><a xlink:title=" ">
<path fill="none" stroke="#63b8ff" d="M1426.09,-281.21C1519.39,-281.47 1699.72,-275.84 1739.75,-230 1778.93,-185.14 1702.38,-125.6 1660.52,-98"/>
<polygon fill="#63b8ff" stroke="#63b8ff" points="1662.53,-95.13 1652.23,-92.67 1658.75,-101.02 1662.53,-95.13"/>
</a>
</g>
</g>
<!-- Node32&#45;&gt;Node14 -->
<g id="edge62_Node000032_Node000014" class="edge">
<title>Node32&#45;&gt;Node14</title>
<g id="a_edge62_Node000032_Node000014"><a xlink:title=" ">
<path fill="none" stroke="#63b8ff" d="M1425.93,-278.78C1529.27,-275.28 1744.95,-264.02 1810.75,-230 1881.21,-193.57 1901.44,-171.09 1929.75,-97 1934.59,-84.34 1938.67,-76.71 1929.75,-66.5 1909.74,-43.62 1721.75,-27.45 1620.55,-20.33"/>
<polygon fill="#63b8ff" stroke="#63b8ff" points="1620.98,-16.85 1610.76,-19.65 1620.49,-23.83 1620.98,-16.85"/>
</a>
</g>
</g>
<!-- Node32&#45;&gt;Node15 -->
<g id="edge63_Node000032_Node000015" class="edge">
<title>Node32&#45;&gt;Node15</title>
<g id="a_edge63_Node000032_Node000015"><a xlink:title=" ">
<path fill="none" stroke="#63b8ff" d="M1357.4,-265.73C1327.08,-230.09 1249.1,-138.41 1216.46,-100.04"/>
<polygon fill="#63b8ff" stroke="#63b8ff" points="1219.32,-98.01 1210.18,-92.66 1213.99,-102.54 1219.32,-98.01"/>
</a>
</g>
</g>
<!-- Node32&#45;&gt;Node16 -->
<g id="edge64_Node000032_Node000016" class="edge">
<title>Node32&#45;&gt;Node16</title>
<g id="a_edge64_Node000032_Node000016"><a xlink:title=" ">
<path fill="none" stroke="#63b8ff" d="M1313.4,-273.92C1205.26,-261.77 969.41,-235.26 857.3,-222.67"/>
<polygon fill="#63b8ff" stroke="#63b8ff" points="858.03,-219.23 847.7,-221.59 857.25,-226.18 858.03,-219.23"/>
</a>
</g>
</g>
<!-- Node32&#45;&gt;Node22 -->
<g id="edge58_Node000032_Node000022" class="edge">
<title>Node32&#45;&gt;Node22</title>
<g id="a_edge58_Node000032_Node000022"><a xlink:title=" ">
<path fill="none" stroke="#63b8ff" d="M1313.62,-278.05C1202.86,-273.21 948.55,-259.64 736.75,-230 588.58,-209.27 549.01,-209.83 406.75,-163.5 405.79,-163.19 404.82,-162.85 403.84,-162.5"/>
<polygon fill="#63b8ff" stroke="#63b8ff" points="405.48,-159.39 394.9,-158.84 402.83,-165.87 405.48,-159.39"/>
</a>
</g>
</g>
<!-- Node32&#45;&gt;Node25 -->
<g id="edge67_Node000032_Node000025" class="edge">
<title>Node32&#45;&gt;Node25</title>
<g id="a_edge67_Node000032_Node000025"><a xlink:title=" ">
<path fill="none" stroke="#63b8ff" d="M1426.25,-274.75C1457.98,-268.73 1495.88,-256.18 1519.75,-230 1533.25,-215.2 1537.69,-192.65 1538.93,-175.13"/>
<polygon fill="#63b8ff" stroke="#63b8ff" points="1542.42,-175.35 1539.29,-165.23 1535.43,-175.09 1542.42,-175.35"/>
</a>
</g>
</g>
<!-- Node32&#45;&gt;Node26 -->
<g id="edge65_Node000032_Node000026" class="edge">
<title>Node32&#45;&gt;Node26</title>
<g id="a_edge65_Node000032_Node000026"><a xlink:title=" ">
<path fill="none" stroke="#63b8ff" d="M1313.63,-276.9C1181.74,-269 841.75,-248.47 557.75,-230 508.16,-226.77 451.96,-222.93 410.33,-220.05"/>
<polygon fill="#63b8ff" stroke="#63b8ff" points="410.73,-216.57 400.51,-219.37 410.24,-223.55 410.73,-216.57"/>
</a>
</g>
</g>
<!-- Node32&#45;&gt;Node29 -->
<g id="edge66_Node000032_Node000029" class="edge">
<title>Node32&#45;&gt;Node29</title>
<g id="a_edge66_Node000032_Node000029"><a xlink:title=" ">
<path fill="none" stroke="#63b8ff" d="M1313.3,-280.07C1068.22,-278.68 105.21,-266.65 24.75,-163.5 16.41,-152.81 17.94,-144.72 24.75,-133 32.28,-120.03 44.56,-110.12 57.58,-102.68"/>
<polygon fill="#63b8ff" stroke="#63b8ff" points="59.02,-105.87 66.28,-98.16 55.79,-99.66 59.02,-105.87"/>
</a>
</g>
</g>
<!-- Node33 -->
<g id="Node000033" class="node">
<title>Node33</title>
<g id="a_Node000033"><a xlink:title=" ">
<polygon fill="#e0e0e0" stroke="#999999" points="1510.75,-224.38 1416.75,-224.38 1416.75,-205.12 1510.75,-205.12 1510.75,-224.38"/>
<text text-anchor="middle" x="1463.75" y="-210.88" font-family="Helvetica,sans-Serif" font-size="10.00">llvm/ADT/Bitset.h</text>
</a>
</g>
</g>
<!-- Node32&#45;&gt;Node33 -->
<g id="edge54_Node000032_Node000033" class="edge">
<title>Node32&#45;&gt;Node33</title>
<g id="a_edge54_Node000032_Node000033"><a xlink:title=" ">
<path fill="none" stroke="#63b8ff" d="M1391.08,-265.61C1406.1,-255.31 1426.16,-241.54 1441.4,-231.08"/>
<polygon fill="#63b8ff" stroke="#63b8ff" points="1443.11,-234.16 1449.37,-225.62 1439.15,-228.39 1443.11,-234.16"/>
</a>
</g>
</g>
<!-- Node34 -->
<g id="Node000034" class="node">
<title>Node34</title>
<g id="a_Node000034"><a xlink:href="_copyable_pointer_8h.html" target="_top" xlink:title=" ">
<polygon fill="white" stroke="#666666" points="1730.62,-224.38 1566.88,-224.38 1566.88,-205.12 1730.62,-205.12 1730.62,-224.38"/>
<text text-anchor="middle" x="1648.75" y="-210.88" font-family="Helvetica,sans-Serif" font-size="10.00">zklang/Support/CopyablePointer.h</text>
</a>
</g>
</g>
<!-- Node32&#45;&gt;Node34 -->
<g id="edge68_Node000032_Node000034" class="edge">
<title>Node32&#45;&gt;Node34</title>
<g id="a_edge68_Node000032_Node000034"><a xlink:title=" ">
<path fill="none" stroke="#63b8ff" d="M1426.21,-267.2C1476.62,-255.54 1549.79,-238.63 1598.29,-227.42"/>
<polygon fill="#63b8ff" stroke="#63b8ff" points="1599.02,-230.84 1607.98,-225.18 1597.44,-224.02 1599.02,-230.84"/>
</a>
</g>
</g>
<!-- Node35 -->
<g id="Node000035" class="node">
<title>Node35</title>
<g id="a_Node000035"><a xlink:title=" ">
<polygon fill="#e0e0e0" stroke="#999999" points="1668.38,-157.88 1629.12,-157.88 1629.12,-138.62 1668.38,-138.62 1668.38,-157.88"/>
<text text-anchor="middle" x="1648.75" y="-144.38" font-family="Helvetica,sans-Serif" font-size="10.00">utility</text>
</a>
</g>
</g>
<!-- Node34&#45;&gt;Node35 -->
<g id="edge69_Node000034_Node000035" class="edge">
<title>Node34&#45;&gt;Node35</title>
<g id="a_edge69_Node000034_Node000035"><a xlink:title=" ">
<path fill="none" stroke="#63b8ff" d="M1648.75,-204.78C1648.75,-195.73 1648.75,-181.45 1648.75,-169.63"/>
<polygon fill="#63b8ff" stroke="#63b8ff" points="1652.25,-169.66 1648.75,-159.66 1645.25,-169.66 1652.25,-169.66"/>
</a>
</g>
</g>
</g>
</svg>
