<?xml version="1.0" encoding="UTF-8" standalone="no"?>
<!DOCTYPE svg PUBLIC "-//W3C//DTD SVG 1.1//EN"
 "http://www.w3.org/Graphics/SVG/1.1/DTD/svg11.dtd">
<!-- Generated by graphviz version 12.2.1 (20241206.2353)
 -->
<!-- Title: include/zklang/Dialect/ZML/IR/OpInterfaces.h Pages: 1 -->
<svg width="2077pt" height="105pt"
 viewBox="0.00 0.00 2077.12 105.00" xmlns="http://www.w3.org/2000/svg" xmlns:xlink="http://www.w3.org/1999/xlink">
<g id="graph0" class="graph" transform="scale(1 1) rotate(0) translate(4 101)">
<title>include/zklang/Dialect/ZML/IR/OpInterfaces.h</title>
<!-- Node1 -->
<g id="Node000001" class="node">
<title>Node1</title>
<g id="a_Node000001"><a xlink:title=" ">
<polygon fill="#999999" stroke="#666666" points="1039.5,-97 920,-97 920,-66.5 1039.5,-66.5 1039.5,-97"/>
<text text-anchor="start" x="928" y="-83.5" font-family="Helvetica,sans-Serif" font-size="10.00">include/zklang/Dialect</text>
<text text-anchor="middle" x="979.75" y="-72.25" font-family="Helvetica,sans-Serif" font-size="10.00">/ZML/IR/OpInterfaces.h</text>
</a>
</g>
</g>
<!-- Node2 -->
<g id="Node000002" class="node">
<title>Node2</title>
<g id="a_Node000002"><a xlink:title=" ">
<polygon fill="#e0e0e0" stroke="#999999" points="107.5,-24.88 0,-24.88 0,-5.63 107.5,-5.63 107.5,-24.88"/>
<text text-anchor="middle" x="53.75" y="-11.38" font-family="Helvetica,sans-Serif" font-size="10.00">llvm/ADT/ArrayRef.h</text>
</a>
</g>
</g>
<!-- Node1&#45;&gt;Node2 -->
<g id="edge1_Node000001_Node000002" class="edge">
<title>Node1&#45;&gt;Node2</title>
<g id="a_edge1_Node000001_Node000002"><a xlink:title=" ">
<path fill="none" stroke="#63b8ff" d="M919.7,-80.71C778.65,-79.88 415.46,-73.35 115.75,-30.5 110.49,-29.75 105.02,-28.78 99.6,-27.69"/>
<polygon fill="#63b8ff" stroke="#63b8ff" points="100.63,-24.33 90.12,-25.66 99.17,-31.18 100.63,-24.33"/>
</a>
</g>
</g>
<!-- Node3 -->
<g id="Node000003" class="node">
<title>Node3</title>
<g id="a_Node000003"><a xlink:title=" ">
<polygon fill="#e0e0e0" stroke="#999999" points="246.25,-24.88 125.25,-24.88 125.25,-5.63 246.25,-5.63 246.25,-24.88"/>
<text text-anchor="middle" x="185.75" y="-11.38" font-family="Helvetica,sans-Serif" font-size="10.00">llvm/ADT/SmallVector.h</text>
</a>
</g>
</g>
<!-- Node1&#45;&gt;Node3 -->
<g id="edge2_Node000001_Node000003" class="edge">
<title>Node1&#45;&gt;Node3</title>
<g id="a_edge2_Node000001_Node000003"><a xlink:title=" ">
<path fill="none" stroke="#63b8ff" d="M919.79,-79.32C795.33,-75.75 500.06,-64.18 254.75,-30.5 248.69,-29.67 242.37,-28.62 236.11,-27.47"/>
<polygon fill="#63b8ff" stroke="#63b8ff" points="236.97,-24.07 226.49,-25.6 235.63,-30.94 236.97,-24.07"/>
</a>
</g>
</g>
<!-- Node4 -->
<g id="Node000004" class="node">
<title>Node4</title>
<g id="a_Node000004"><a xlink:title=" ">
<polygon fill="#e0e0e0" stroke="#999999" points="373.62,-24.88 263.88,-24.88 263.88,-5.63 373.62,-5.63 373.62,-24.88"/>
<text text-anchor="middle" x="318.75" y="-11.38" font-family="Helvetica,sans-Serif" font-size="10.00">llvm/ADT/StringRef.h</text>
</a>
</g>
</g>
<!-- Node1&#45;&gt;Node4 -->
<g id="edge3_Node000001_Node000004" class="edge">
<title>Node1&#45;&gt;Node4</title>
<g id="a_edge3_Node000001_Node000004"><a xlink:title=" ">
<path fill="none" stroke="#63b8ff" d="M919.59,-78.45C811.41,-73.72 577.13,-60.66 381.75,-30.5 376.55,-29.7 371.14,-28.71 365.78,-27.63"/>
<polygon fill="#63b8ff" stroke="#63b8ff" points="366.89,-24.29 356.38,-25.64 365.44,-31.14 366.89,-24.29"/>
</a>
</g>
</g>
<!-- Node5 -->
<g id="Node000005" class="node">
<title>Node5</title>
<g id="a_Node000005"><a xlink:title=" ">
<polygon fill="#e0e0e0" stroke="#999999" points="524.25,-30.5 391.25,-30.5 391.25,0 524.25,0 524.25,-30.5"/>
<text text-anchor="start" x="399.25" y="-17" font-family="Helvetica,sans-Serif" font-size="10.00">mlir/Bytecode/BytecodeOp</text>
<text text-anchor="middle" x="457.75" y="-5.75" font-family="Helvetica,sans-Serif" font-size="10.00">Interface.h</text>
</a>
</g>
</g>
<!-- Node1&#45;&gt;Node5 -->
<g id="edge4_Node000001_Node000005" class="edge">
<title>Node1&#45;&gt;Node5</title>
<g id="a_edge4_Node000001_Node000005"><a xlink:title=" ">
<path fill="none" stroke="#63b8ff" d="M919.55,-75.44C835.71,-67.73 678.81,-52.13 535.53,-30.85"/>
<polygon fill="#63b8ff" stroke="#63b8ff" points="536.27,-27.42 525.86,-29.4 535.23,-34.35 536.27,-27.42"/>
</a>
</g>
</g>
<!-- Node6 -->
<g id="Node000006" class="node">
<title>Node6</title>
<g id="a_Node000006"><a xlink:title=" ">
<polygon fill="#e0e0e0" stroke="#999999" points="645.62,-30.5 541.88,-30.5 541.88,0 645.62,0 645.62,-30.5"/>
<text text-anchor="start" x="549.88" y="-17" font-family="Helvetica,sans-Serif" font-size="10.00">mlir/Dialect/Func/IR</text>
<text text-anchor="middle" x="593.75" y="-5.75" font-family="Helvetica,sans-Serif" font-size="10.00">/FuncOps.h</text>
</a>
</g>
</g>
<!-- Node1&#45;&gt;Node6 -->
<g id="edge5_Node000001_Node000006" class="edge">
<title>Node1&#45;&gt;Node6</title>
<g id="a_edge5_Node000001_Node000006"><a xlink:title=" ">
<path fill="none" stroke="#63b8ff" d="M919.61,-72.85C856.63,-64.26 754.6,-49.47 657.18,-30.88"/>
<polygon fill="#63b8ff" stroke="#63b8ff" points="657.91,-27.46 647.42,-29 656.58,-34.33 657.91,-27.46"/>
</a>
</g>
</g>
<!-- Node7 -->
<g id="Node000007" class="node">
<title>Node7</title>
<g id="a_Node000007"><a xlink:title=" ">
<polygon fill="#e0e0e0" stroke="#999999" points="765.5,-24.88 664,-24.88 664,-5.63 765.5,-5.63 765.5,-24.88"/>
<text text-anchor="middle" x="714.75" y="-11.38" font-family="Helvetica,sans-Serif" font-size="10.00">mlir/IR/BuiltinOps.h</text>
</a>
</g>
</g>
<!-- Node1&#45;&gt;Node7 -->
<g id="edge6_Node000001_Node000007" class="edge">
<title>Node1&#45;&gt;Node7</title>
<g id="a_edge6_Node000001_Node000007"><a xlink:title=" ">
<path fill="none" stroke="#63b8ff" d="M919.62,-66.11C872.28,-54.59 807.16,-38.74 763.14,-28.03"/>
<polygon fill="#63b8ff" stroke="#63b8ff" points="764.17,-24.68 753.62,-25.71 762.51,-31.48 764.17,-24.68"/>
</a>
</g>
</g>
<!-- Node8 -->
<g id="Node000008" class="node">
<title>Node8</title>
<g id="a_Node000008"><a xlink:title=" ">
<polygon fill="#e0e0e0" stroke="#999999" points="894,-24.88 783.5,-24.88 783.5,-5.63 894,-5.63 894,-24.88"/>
<text text-anchor="middle" x="838.75" y="-11.38" font-family="Helvetica,sans-Serif" font-size="10.00">mlir/IR/OpDefinition.h</text>
</a>
</g>
</g>
<!-- Node1&#45;&gt;Node8 -->
<g id="edge7_Node000001_Node000008" class="edge">
<title>Node1&#45;&gt;Node8</title>
<g id="a_edge7_Node000001_Node000008"><a xlink:title=" ">
<path fill="none" stroke="#63b8ff" d="M947.75,-66.11C924.05,-55.27 891.96,-40.59 868.74,-29.97"/>
<polygon fill="#63b8ff" stroke="#63b8ff" points="870.37,-26.87 859.82,-25.89 867.46,-33.23 870.37,-26.87"/>
</a>
</g>
</g>
<!-- Node9 -->
<g id="Node000009" class="node">
<title>Node9</title>
<g id="a_Node000009"><a xlink:title=" ">
<polygon fill="#e0e0e0" stroke="#999999" points="1047.75,-24.88 911.75,-24.88 911.75,-5.63 1047.75,-5.63 1047.75,-24.88"/>
<text text-anchor="middle" x="979.75" y="-11.38" font-family="Helvetica,sans-Serif" font-size="10.00">mlir/IR/OpImplementation.h</text>
</a>
</g>
</g>
<!-- Node1&#45;&gt;Node9 -->
<g id="edge8_Node000001_Node000009" class="edge">
<title>Node1&#45;&gt;Node9</title>
<g id="a_edge8_Node000001_Node000009"><a xlink:title=" ">
<path fill="none" stroke="#63b8ff" d="M979.75,-66.11C979.75,-57.33 979.75,-46.02 979.75,-36.4"/>
<polygon fill="#63b8ff" stroke="#63b8ff" points="983.25,-36.59 979.75,-26.59 976.25,-36.59 983.25,-36.59"/>
</a>
</g>
</g>
<!-- Node10 -->
<g id="Node000010" class="node">
<title>Node10</title>
<g id="a_Node000010"><a xlink:title=" ">
<polygon fill="#e0e0e0" stroke="#999999" points="1215.88,-24.88 1065.62,-24.88 1065.62,-5.63 1215.88,-5.63 1215.88,-24.88"/>
<text text-anchor="middle" x="1140.75" y="-11.38" font-family="Helvetica,sans-Serif" font-size="10.00">mlir/Interfaces/CallInterfaces.h</text>
</a>
</g>
</g>
<!-- Node1&#45;&gt;Node10 -->
<g id="edge9_Node000001_Node000010" class="edge">
<title>Node1&#45;&gt;Node10</title>
<g id="a_edge9_Node000001_Node000010"><a xlink:title=" ">
<path fill="none" stroke="#63b8ff" d="M1016.28,-66.11C1043.72,-55.12 1080.99,-40.19 1107.58,-29.54"/>
<polygon fill="#63b8ff" stroke="#63b8ff" points="1108.87,-32.79 1116.86,-25.82 1106.27,-26.29 1108.87,-32.79"/>
</a>
</g>
</g>
<!-- Node11 -->
<g id="Node000011" class="node">
<title>Node11</title>
<g id="a_Node000011"><a xlink:title=" ">
<polygon fill="#e0e0e0" stroke="#999999" points="1367.62,-30.5 1233.88,-30.5 1233.88,0 1367.62,0 1367.62,-30.5"/>
<text text-anchor="start" x="1241.88" y="-17" font-family="Helvetica,sans-Serif" font-size="10.00">mlir/Interfaces/ControlFlow</text>
<text text-anchor="middle" x="1300.75" y="-5.75" font-family="Helvetica,sans-Serif" font-size="10.00">Interfaces.h</text>
</a>
</g>
</g>
<!-- Node1&#45;&gt;Node11 -->
<g id="edge10_Node000001_Node000011" class="edge">
<title>Node1&#45;&gt;Node11</title>
<g id="a_edge10_Node000001_Node000011"><a xlink:title=" ">
<path fill="none" stroke="#63b8ff" d="M1039.75,-68.69C1091.38,-58.32 1166.23,-43.28 1222.55,-31.96"/>
<polygon fill="#63b8ff" stroke="#63b8ff" points="1222.96,-35.45 1232.07,-30.05 1221.58,-28.59 1222.96,-35.45"/>
</a>
</g>
</g>
<!-- Node12 -->
<g id="Node000012" class="node">
<title>Node12</title>
<g id="a_Node000012"><a xlink:title=" ">
<polygon fill="#e0e0e0" stroke="#999999" points="1517.5,-30.5 1386,-30.5 1386,0 1517.5,0 1517.5,-30.5"/>
<text text-anchor="start" x="1394" y="-17" font-family="Helvetica,sans-Serif" font-size="10.00">mlir/Interfaces/DataLayout</text>
<text text-anchor="middle" x="1451.75" y="-5.75" font-family="Helvetica,sans-Serif" font-size="10.00">Interfaces.h</text>
</a>
</g>
</g>
<!-- Node1&#45;&gt;Node12 -->
<g id="edge11_Node000001_Node000012" class="edge">
<title>Node1&#45;&gt;Node12</title>
<g id="a_edge11_Node000001_Node000012"><a xlink:title=" ">
<path fill="none" stroke="#63b8ff" d="M1039.77,-74.32C1115.38,-65.97 1249.54,-50.28 1374.27,-30.83"/>
<polygon fill="#63b8ff" stroke="#63b8ff" points="1374.71,-34.31 1384.04,-29.3 1373.62,-27.39 1374.71,-34.31"/>
</a>
</g>
</g>
<!-- Node13 -->
<g id="Node000013" class="node">
<title>Node13</title>
<g id="a_Node000013"><a xlink:title=" ">
<polygon fill="#e0e0e0" stroke="#999999" points="1654.12,-30.5 1535.38,-30.5 1535.38,0 1654.12,0 1654.12,-30.5"/>
<text text-anchor="start" x="1543.38" y="-17" font-family="Helvetica,sans-Serif" font-size="10.00">mlir/Interfaces/Function</text>
<text text-anchor="middle" x="1594.75" y="-5.75" font-family="Helvetica,sans-Serif" font-size="10.00">Interfaces.h</text>
</a>
</g>
</g>
<!-- Node1&#45;&gt;Node13 -->
<g id="edge12_Node000001_Node000013" class="edge">
<title>Node1&#45;&gt;Node13</title>
<g id="a_edge12_Node000001_Node000013"><a xlink:title=" ">
<path fill="none" stroke="#63b8ff" d="M1039.92,-77.49C1138.87,-71.64 1342.3,-57.51 1523.75,-30.84"/>
<polygon fill="#63b8ff" stroke="#63b8ff" points="1524.24,-34.31 1533.62,-29.37 1523.21,-27.38 1524.24,-34.31"/>
</a>
</g>
</g>
<!-- Node14 -->
<g id="Node000014" class="node">
<title>Node14</title>
<g id="a_Node000014"><a xlink:title=" ">
<polygon fill="#e0e0e0" stroke="#999999" points="1793.62,-30.5 1671.88,-30.5 1671.88,0 1793.62,0 1793.62,-30.5"/>
<text text-anchor="start" x="1679.88" y="-17" font-family="Helvetica,sans-Serif" font-size="10.00">mlir/Interfaces/InferType</text>
<text text-anchor="middle" x="1732.75" y="-5.75" font-family="Helvetica,sans-Serif" font-size="10.00">OpInterface.h</text>
</a>
</g>
</g>
<!-- Node1&#45;&gt;Node14 -->
<g id="edge13_Node000001_Node000014" class="edge">
<title>Node1&#45;&gt;Node14</title>
<g id="a_edge13_Node000001_Node000014"><a xlink:title=" ">
<path fill="none" stroke="#63b8ff" d="M1039.86,-78.9C1157.27,-74.73 1425.41,-62.46 1660.57,-30.67"/>
<polygon fill="#63b8ff" stroke="#63b8ff" points="1660.81,-34.17 1670.25,-29.35 1659.86,-27.24 1660.81,-34.17"/>
</a>
</g>
</g>
<!-- Node15 -->
<g id="Node000015" class="node">
<title>Node15</title>
<g id="a_Node000015"><a xlink:title=" ">
<polygon fill="#e0e0e0" stroke="#999999" points="1938.25,-30.5 1811.25,-30.5 1811.25,0 1938.25,0 1938.25,-30.5"/>
<text text-anchor="start" x="1819.25" y="-17" font-family="Helvetica,sans-Serif" font-size="10.00">mlir/Interfaces/SideEffect</text>
<text text-anchor="middle" x="1874.75" y="-5.75" font-family="Helvetica,sans-Serif" font-size="10.00">Interfaces.h</text>
</a>
</g>
</g>
<!-- Node1&#45;&gt;Node15 -->
<g id="edge14_Node000001_Node000015" class="edge">
<title>Node1&#45;&gt;Node15</title>
<g id="a_edge14_Node000001_Node000015"><a xlink:title=" ">
<path fill="none" stroke="#63b8ff" d="M1039.9,-79.84C1174.47,-77.22 1510.14,-67.35 1799.69,-30.79"/>
<polygon fill="#63b8ff" stroke="#63b8ff" points="1799.86,-34.29 1809.33,-29.56 1798.97,-27.35 1799.86,-34.29"/>
</a>
</g>
</g>
<!-- Node16 -->
<g id="Node000016" class="node">
<title>Node16</title>
<g id="a_Node000016"><a xlink:href="_op_interfaces_8h_8inc.html" target="_top" xlink:title=" ">
<polygon fill="white" stroke="#666666" points="2069.12,-30.5 1956.38,-30.5 1956.38,0 2069.12,0 2069.12,-30.5"/>
<text text-anchor="start" x="1964.38" y="-17" font-family="Helvetica,sans-Serif" font-size="10.00">zklang/Dialect/ZML</text>
<text text-anchor="middle" x="2012.75" y="-5.75" font-family="Helvetica,sans-Serif" font-size="10.00">/IR/OpInterfaces.h.inc</text>
</a>
</g>
</g>
<!-- Node1&#45;&gt;Node16 -->
<g id="edge15_Node000001_Node000016" class="edge">
<title>Node1&#45;&gt;Node16</title>
<g id="a_edge15_Node000001_Node000016"><a xlink:title=" ">
<path fill="none" stroke="#63b8ff" d="M1039.83,-81.04C1190.68,-81.05 1597.61,-76.55 1944.84,-30.74"/>
<polygon fill="#63b8ff" stroke="#63b8ff" points="1945.18,-34.23 1954.63,-29.44 1944.25,-27.29 1945.18,-34.23"/>
</a>
</g>
</g>
</g>
</svg>
