<?xml version="1.0" encoding="UTF-8" standalone="no"?>
<!DOCTYPE svg PUBLIC "-//W3C//DTD SVG 1.1//EN"
 "http://www.w3.org/Graphics/SVG/1.1/DTD/svg11.dtd">
<!-- Generated by graphviz version 12.2.1 (20241206.2353)
 -->
<!-- Title: build/include/zklang/Dialect/ZML/IR/Ops.cpp.inc Pages: 1 -->
<svg width="218pt" height="105pt"
 viewBox="0.00 0.00 217.50 105.00" xmlns="http://www.w3.org/2000/svg" xmlns:xlink="http://www.w3.org/1999/xlink">
<g id="graph0" class="graph" transform="scale(1 1) rotate(0) translate(4 101)">
<title>build/include/zklang/Dialect/ZML/IR/Ops.cpp.inc</title>
<!-- Node1 -->
<g id="Node000001" class="node">
<title>Node1</title>
<g id="a_Node000001"><a xlink:title=" ">
<polygon fill="#999999" stroke="#666666" points="175.38,-97 34.12,-97 34.12,-66.5 175.38,-66.5 175.38,-97"/>
<text text-anchor="start" x="42.12" y="-83.5" font-family="Helvetica,sans-Serif" font-size="10.00">build/include/zklang</text>
<text text-anchor="middle" x="104.75" y="-72.25" font-family="Helvetica,sans-Serif" font-size="10.00">/Dialect/ZML/IR/Ops.cpp.inc</text>
</a>
</g>
</g>
<!-- Node2 -->
<g id="Node000002" class="node">
<title>Node2</title>
<g id="a_Node000002"><a xlink:href="_dialect_8cpp.html" target="_top" xlink:title=" ">
<polygon fill="white" stroke="#666666" points="95.5,-30.5 0,-30.5 0,0 95.5,0 95.5,-30.5"/>
<text text-anchor="start" x="8" y="-17" font-family="Helvetica,sans-Serif" font-size="10.00">lib/Dialect/ZML/IR</text>
<text text-anchor="middle" x="47.75" y="-5.75" font-family="Helvetica,sans-Serif" font-size="10.00">/Dialect.cpp</text>
</a>
</g>
</g>
<!-- Node1&#45;&gt;Node2 -->
<g id="edge1_Node000001_Node000002" class="edge">
<title>Node1&#45;&gt;Node2</title>
<g id="a_edge1_Node000001_Node000002"><a xlink:title=" ">
<path fill="none" stroke="#63b8ff" d="M84.32,-57.63C76.42,-48.69 67.62,-38.74 60.63,-30.83"/>
<polygon fill="#63b8ff" stroke="#63b8ff" points="81.57,-59.8 90.81,-64.98 86.81,-55.17 81.57,-59.8"/>
</a>
</g>
</g>
<!-- Node3 -->
<g id="Node000003" class="node">
<title>Node3</title>
<g id="a_Node000003"><a xlink:href="_ops_8cpp.html" target="_top" xlink:title=" ">
<polygon fill="white" stroke="#666666" points="209.5,-30.5 114,-30.5 114,0 209.5,0 209.5,-30.5"/>
<text text-anchor="start" x="122" y="-17" font-family="Helvetica,sans-Serif" font-size="10.00">lib/Dialect/ZML/IR</text>
<text text-anchor="middle" x="161.75" y="-5.75" font-family="Helvetica,sans-Serif" font-size="10.00">/Ops.cpp</text>
</a>
</g>
</g>
<!-- Node1&#45;&gt;Node3 -->
<g id="edge2_Node000001_Node000003" class="edge">
<title>Node1&#45;&gt;Node3</title>
<g id="a_edge2_Node000001_Node000003"><a xlink:title=" ">
<path fill="none" stroke="#63b8ff" d="M125.18,-57.63C133.08,-48.69 141.88,-38.74 148.87,-30.83"/>
<polygon fill="#63b8ff" stroke="#63b8ff" points="122.69,-55.17 118.69,-64.98 127.93,-59.8 122.69,-55.17"/>
</a>
</g>
</g>
</g>
</svg>
