<?xml version="1.0" encoding="UTF-8" standalone="no"?>
<!DOCTYPE svg PUBLIC "-//W3C//DTD SVG 1.1//EN"
 "http://www.w3.org/Graphics/SVG/1.1/DTD/svg11.dtd">
<!-- Generated by graphviz version 12.2.1 (20241206.2353)
 -->
<!-- Title: lib/Dialect/ZHL/Typing/Params.cpp Pages: 1 -->
<svg width="2406pt" height="438pt"
 viewBox="0.00 0.00 2406.00 437.50" xmlns="http://www.w3.org/2000/svg" xmlns:xlink="http://www.w3.org/1999/xlink">
<g id="graph0" class="graph" transform="scale(1 1) rotate(0) translate(4 433.5)">
<title>lib/Dialect/ZHL/Typing/Params.cpp</title>
<!-- Node1 -->
<g id="Node000001" class="node">
<title>Node1</title>
<g id="a_Node000001"><a xlink:title=" ">
<polygon fill="#999999" stroke="#666666" points="1251.38,-429.5 1138.62,-429.5 1138.62,-399 1251.38,-399 1251.38,-429.5"/>
<text text-anchor="start" x="1146.62" y="-416" font-family="Helvetica,sans-Serif" font-size="10.00">lib/Dialect/ZHL/Typing</text>
<text text-anchor="middle" x="1195" y="-404.75" font-family="Helvetica,sans-Serif" font-size="10.00">/Params.cpp</text>
</a>
</g>
</g>
<!-- Node2 -->
<g id="Node000002" class="node">
<title>Node2</title>
<g id="a_Node000002"><a xlink:title=" ">
<polygon fill="#e0e0e0" stroke="#999999" points="1057.12,-91.38 1008.88,-91.38 1008.88,-72.12 1057.12,-72.12 1057.12,-91.38"/>
<text text-anchor="middle" x="1033" y="-77.88" font-family="Helvetica,sans-Serif" font-size="10.00">cassert</text>
</a>
</g>
</g>
<!-- Node1&#45;&gt;Node2 -->
<g id="edge1_Node000001_Node000002" class="edge">
<title>Node1&#45;&gt;Node2</title>
<g id="a_edge1_Node000001_Node000002"><a xlink:title=" ">
<path fill="none" stroke="#63b8ff" d="M1191.77,-398.57C1185.52,-371.54 1170.49,-312.42 1149,-266 1119.17,-201.56 1070.34,-132.61 1046.69,-100.77"/>
<polygon fill="#63b8ff" stroke="#63b8ff" points="1049.66,-98.9 1040.86,-93 1044.06,-103.1 1049.66,-98.9"/>
</a>
</g>
</g>
<!-- Node3 -->
<g id="Node000003" class="node">
<title>Node3</title>
<g id="a_Node000003"><a xlink:title=" ">
<polygon fill="#e0e0e0" stroke="#999999" points="258.38,-357.38 175.62,-357.38 175.62,-338.12 258.38,-338.12 258.38,-357.38"/>
<text text-anchor="middle" x="217" y="-343.88" font-family="Helvetica,sans-Serif" font-size="10.00">mlir/IR/Types.h</text>
</a>
</g>
</g>
<!-- Node1&#45;&gt;Node3 -->
<g id="edge2_Node000001_Node000003" class="edge">
<title>Node1&#45;&gt;Node3</title>
<g id="a_edge2_Node000001_Node000003"><a xlink:title=" ">
<path fill="none" stroke="#63b8ff" d="M1138.39,-411.65C964.62,-406.49 440.39,-389.13 272,-363 267.63,-362.32 263.1,-361.44 258.61,-360.46"/>
<polygon fill="#63b8ff" stroke="#63b8ff" points="259.62,-357.1 249.08,-358.18 257.99,-363.91 259.62,-357.1"/>
</a>
</g>
</g>
<!-- Node4 -->
<g id="Node000004" class="node">
<title>Node4</title>
<g id="a_Node000004"><a xlink:title=" ">
<polygon fill="#e0e0e0" stroke="#999999" points="1297.5,-91.38 1158.5,-91.38 1158.5,-72.12 1297.5,-72.12 1297.5,-91.38"/>
<text text-anchor="middle" x="1228" y="-77.88" font-family="Helvetica,sans-Serif" font-size="10.00">mlir/Support/LogicalResult.h</text>
</a>
</g>
</g>
<!-- Node1&#45;&gt;Node4 -->
<g id="edge3_Node000001_Node000004" class="edge">
<title>Node1&#45;&gt;Node4</title>
<g id="a_edge3_Node000001_Node000004"><a xlink:title=" ">
<path fill="none" stroke="#63b8ff" d="M1251.84,-409.62C1430.36,-397.49 1968,-354.9 1968,-282.25 1968,-282.25 1968,-282.25 1968,-213.75 1968,-176.88 1977.09,-156.88 1949,-133 1901.18,-92.34 1487.59,-84.54 1309.26,-83.08"/>
<polygon fill="#63b8ff" stroke="#63b8ff" points="1309.4,-79.58 1299.38,-83 1309.35,-86.58 1309.4,-79.58"/>
</a>
</g>
</g>
<!-- Node5 -->
<g id="Node000005" class="node">
<title>Node5</title>
<g id="a_Node000005"><a xlink:href="_frame_8h.html" target="_top" xlink:title=" ">
<polygon fill="white" stroke="#666666" points="2096,-230 1996,-230 1996,-199.5 2096,-199.5 2096,-230"/>
<text text-anchor="start" x="2004" y="-216.5" font-family="Helvetica,sans-Serif" font-size="10.00">zklang/Dialect/ZHL</text>
<text text-anchor="middle" x="2046" y="-205.25" font-family="Helvetica,sans-Serif" font-size="10.00">/Typing/Frame.h</text>
</a>
</g>
</g>
<!-- Node1&#45;&gt;Node5 -->
<g id="edge4_Node000001_Node000005" class="edge">
<title>Node1&#45;&gt;Node5</title>
<g id="a_edge4_Node000001_Node000005"><a xlink:title=" ">
<path fill="none" stroke="#63b8ff" d="M1251.79,-413C1422.46,-411.79 1922.65,-404.68 1982,-363 2022.23,-334.75 2037.4,-275.55 2042.95,-241.44"/>
<polygon fill="#63b8ff" stroke="#63b8ff" points="2046.4,-242.01 2044.37,-231.61 2039.48,-241.01 2046.4,-242.01"/>
</a>
</g>
</g>
<!-- Node10 -->
<g id="Node000010" class="node">
<title>Node10</title>
<g id="a_Node000010"><a xlink:href="_frame_slot_8h.html" target="_top" xlink:title=" ">
<polygon fill="white" stroke="#666666" points="2317.88,-97 2214.12,-97 2214.12,-66.5 2317.88,-66.5 2317.88,-97"/>
<text text-anchor="start" x="2222.12" y="-83.5" font-family="Helvetica,sans-Serif" font-size="10.00">zklang/Dialect/ZHL</text>
<text text-anchor="middle" x="2266" y="-72.25" font-family="Helvetica,sans-Serif" font-size="10.00">/Typing/FrameSlot.h</text>
</a>
</g>
</g>
<!-- Node1&#45;&gt;Node10 -->
<g id="edge16_Node000001_Node000010" class="edge">
<title>Node1&#45;&gt;Node10</title>
<g id="a_edge16_Node000001_Node000010"><a xlink:title=" ">
<path fill="none" stroke="#63b8ff" d="M1251.81,-413.11C1490.27,-411.78 2398,-399.05 2398,-282.25 2398,-282.25 2398,-282.25 2398,-213.75 2398,-162.33 2346.91,-124.18 2308.3,-102.7"/>
<polygon fill="#63b8ff" stroke="#63b8ff" points="2310.09,-99.69 2299.63,-98.06 2306.79,-105.86 2310.09,-99.69"/>
</a>
</g>
</g>
<!-- Node16 -->
<g id="Node000016" class="node">
<title>Node16</title>
<g id="a_Node000016"><a xlink:href="_params_8h.html" target="_top" xlink:title=" ">
<polygon fill="white" stroke="#666666" points="798,-163.5 698,-163.5 698,-133 798,-133 798,-163.5"/>
<text text-anchor="start" x="706" y="-150" font-family="Helvetica,sans-Serif" font-size="10.00">zklang/Dialect/ZHL</text>
<text text-anchor="middle" x="748" y="-138.75" font-family="Helvetica,sans-Serif" font-size="10.00">/Typing/Params.h</text>
</a>
</g>
</g>
<!-- Node1&#45;&gt;Node16 -->
<g id="edge17_Node000001_Node000016" class="edge">
<title>Node1&#45;&gt;Node16</title>
<g id="a_edge17_Node000001_Node000016"><a xlink:title=" ">
<path fill="none" stroke="#63b8ff" d="M1138.28,-409.72C966.8,-397.77 459.47,-352.46 361,-230 236.99,-75.78 -137.04,-270.28 651,-163.5 662.5,-161.94 674.76,-160.2 686.56,-158.49"/>
<polygon fill="#63b8ff" stroke="#63b8ff" points="686.8,-161.99 696.19,-157.08 685.79,-155.06 686.8,-161.99"/>
</a>
</g>
</g>
<!-- Node23 -->
<g id="Node000023" class="node">
<title>Node23</title>
<g id="a_Node000023"><a xlink:href="_params_storage_8h.html" target="_top" xlink:title=" ">
<polygon fill="white" stroke="#666666" points="139.12,-363 12.88,-363 12.88,-332.5 139.12,-332.5 139.12,-363"/>
<text text-anchor="start" x="20.88" y="-349.5" font-family="Helvetica,sans-Serif" font-size="10.00">zklang/Dialect/ZHL</text>
<text text-anchor="middle" x="76" y="-338.25" font-family="Helvetica,sans-Serif" font-size="10.00">/Typing/ParamsStorage.h</text>
</a>
</g>
</g>
<!-- Node1&#45;&gt;Node23 -->
<g id="edge27_Node000001_Node000023" class="edge">
<title>Node1&#45;&gt;Node23</title>
<g id="a_edge27_Node000001_Node000023"><a xlink:title=" ">
<path fill="none" stroke="#63b8ff" d="M1138.29,-412.6C982.68,-410.34 536.06,-400.81 167,-363 161.71,-362.46 156.26,-361.82 150.78,-361.11"/>
<polygon fill="#63b8ff" stroke="#63b8ff" points="151.41,-357.66 141.03,-359.79 150.47,-364.6 151.41,-357.66"/>
</a>
</g>
</g>
<!-- Node34 -->
<g id="Node000034" class="node">
<title>Node34</title>
<g id="a_Node000034"><a xlink:href="_type_bindings_8h.html" target="_top" xlink:title=" ">
<polygon fill="white" stroke="#666666" points="1109.62,-363 992.38,-363 992.38,-332.5 1109.62,-332.5 1109.62,-363"/>
<text text-anchor="start" x="1000.38" y="-349.5" font-family="Helvetica,sans-Serif" font-size="10.00">zklang/Dialect/ZHL</text>
<text text-anchor="middle" x="1051" y="-338.25" font-family="Helvetica,sans-Serif" font-size="10.00">/Typing/TypeBindings.h</text>
</a>
</g>
</g>
<!-- Node1&#45;&gt;Node34 -->
<g id="edge62_Node000001_Node000034" class="edge">
<title>Node1&#45;&gt;Node34</title>
<g id="a_edge62_Node000001_Node000034"><a xlink:title=" ">
<path fill="none" stroke="#63b8ff" d="M1162.32,-398.61C1142.07,-389.54 1115.83,-377.79 1093.91,-367.97"/>
<polygon fill="#63b8ff" stroke="#63b8ff" points="1095.48,-364.84 1084.93,-363.95 1092.62,-371.23 1095.48,-364.84"/>
</a>
</g>
</g>
<!-- Node6 -->
<g id="Node000006" class="node">
<title>Node6</title>
<g id="a_Node000006"><a xlink:title=" ">
<polygon fill="#e0e0e0" stroke="#999999" points="2195.62,-91.38 2078.38,-91.38 2078.38,-72.12 2195.62,-72.12 2195.62,-91.38"/>
<text text-anchor="middle" x="2137" y="-77.88" font-family="Helvetica,sans-Serif" font-size="10.00">llvm/ADT/simple_ilist.h</text>
</a>
</g>
</g>
<!-- Node5&#45;&gt;Node6 -->
<g id="edge5_Node000005_Node000006" class="edge">
<title>Node5&#45;&gt;Node6</title>
<g id="a_edge5_Node000005_Node000006"><a xlink:title=" ">
<path fill="none" stroke="#63b8ff" d="M2096.38,-199.79C2114.3,-192.13 2132.6,-180.6 2143,-163.5 2154.16,-145.14 2149.86,-119.93 2144.58,-102.58"/>
<polygon fill="#63b8ff" stroke="#63b8ff" points="2147.92,-101.53 2141.35,-93.21 2141.3,-103.81 2147.92,-101.53"/>
</a>
</g>
</g>
<!-- Node7 -->
<g id="Node000007" class="node">
<title>Node7</title>
<g id="a_Node000007"><a xlink:title=" ">
<polygon fill="#e0e0e0" stroke="#999999" points="2134.12,-157.88 1995.88,-157.88 1995.88,-138.62 2134.12,-138.62 2134.12,-157.88"/>
<text text-anchor="middle" x="2065" y="-144.38" font-family="Helvetica,sans-Serif" font-size="10.00">llvm/Support/raw_ostream.h</text>
</a>
</g>
</g>
<!-- Node5&#45;&gt;Node7 -->
<g id="edge6_Node000005_Node000007" class="edge">
<title>Node5&#45;&gt;Node7</title>
<g id="a_edge6_Node000005_Node000007"><a xlink:title=" ">
<path fill="none" stroke="#63b8ff" d="M2050.31,-199.11C2052.93,-190.23 2056.3,-178.77 2059.16,-169.08"/>
<polygon fill="#63b8ff" stroke="#63b8ff" points="2062.5,-170.11 2061.97,-159.52 2055.79,-168.13 2062.5,-170.11"/>
</a>
</g>
</g>
<!-- Node8 -->
<g id="Node000008" class="node">
<title>Node8</title>
<g id="a_Node000008"><a xlink:title=" ">
<polygon fill="#e0e0e0" stroke="#999999" points="1939.62,-157.88 1888.38,-157.88 1888.38,-138.62 1939.62,-138.62 1939.62,-157.88"/>
<text text-anchor="middle" x="1914" y="-144.38" font-family="Helvetica,sans-Serif" font-size="10.00">memory</text>
</a>
</g>
</g>
<!-- Node5&#45;&gt;Node8 -->
<g id="edge7_Node000005_Node000008" class="edge">
<title>Node5&#45;&gt;Node8</title>
<g id="a_edge7_Node000005_Node000008"><a xlink:title=" ">
<path fill="none" stroke="#63b8ff" d="M2016.05,-199.11C1994.05,-188.37 1964.35,-173.86 1942.67,-163.26"/>
<polygon fill="#63b8ff" stroke="#63b8ff" points="1944.32,-160.17 1933.8,-158.92 1941.25,-166.46 1944.32,-160.17"/>
</a>
</g>
</g>
<!-- Node9 -->
<g id="Node000009" class="node">
<title>Node9</title>
<g id="a_Node000009"><a xlink:href="_frame_info_8h.html" target="_top" xlink:title=" ">
<polygon fill="white" stroke="#666666" points="2293.5,-163.5 2190.5,-163.5 2190.5,-133 2293.5,-133 2293.5,-163.5"/>
<text text-anchor="start" x="2198.5" y="-150" font-family="Helvetica,sans-Serif" font-size="10.00">zklang/Dialect/ZHL</text>
<text text-anchor="middle" x="2242" y="-138.75" font-family="Helvetica,sans-Serif" font-size="10.00">/Typing/FrameInfo.h</text>
</a>
</g>
</g>
<!-- Node5&#45;&gt;Node9 -->
<g id="edge8_Node000005_Node000009" class="edge">
<title>Node5&#45;&gt;Node9</title>
<g id="a_edge8_Node000005_Node000009"><a xlink:title=" ">
<path fill="none" stroke="#63b8ff" d="M2090.48,-199.11C2118.94,-189.75 2156.1,-177.52 2186.5,-167.51"/>
<polygon fill="#63b8ff" stroke="#63b8ff" points="2187.52,-170.86 2195.92,-164.41 2185.33,-164.21 2187.52,-170.86"/>
</a>
</g>
</g>
<!-- Node9&#45;&gt;Node6 -->
<g id="edge9_Node000009_Node000006" class="edge">
<title>Node9&#45;&gt;Node6</title>
<g id="a_edge9_Node000009_Node000006"><a xlink:title=" ">
<path fill="none" stroke="#63b8ff" d="M2218.17,-132.61C2201.08,-122.11 2178.13,-108.02 2161,-97.49"/>
<polygon fill="#63b8ff" stroke="#63b8ff" points="2163.31,-94.8 2152.96,-92.55 2159.65,-100.77 2163.31,-94.8"/>
</a>
</g>
</g>
<!-- Node9&#45;&gt;Node10 -->
<g id="edge10_Node000009_Node000010" class="edge">
<title>Node9&#45;&gt;Node10</title>
<g id="a_edge10_Node000009_Node000010"><a xlink:title=" ">
<path fill="none" stroke="#63b8ff" d="M2247.45,-132.61C2250.15,-125.36 2253.49,-116.38 2256.58,-108.06"/>
<polygon fill="#63b8ff" stroke="#63b8ff" points="2259.84,-109.34 2260.05,-98.75 2253.28,-106.9 2259.84,-109.34"/>
</a>
</g>
</g>
<!-- Node11 -->
<g id="Node000011" class="node">
<title>Node11</title>
<g id="a_Node000011"><a xlink:title=" ">
<polygon fill="#e0e0e0" stroke="#999999" points="2096.38,-24.88 1977.62,-24.88 1977.62,-5.63 2096.38,-5.63 2096.38,-24.88"/>
<text text-anchor="middle" x="2037" y="-11.38" font-family="Helvetica,sans-Serif" font-size="10.00">llvm/ADT/SmallString.h</text>
</a>
</g>
</g>
<!-- Node10&#45;&gt;Node11 -->
<g id="edge11_Node000010_Node000011" class="edge">
<title>Node10&#45;&gt;Node11</title>
<g id="a_edge11_Node000010_Node000011"><a xlink:title=" ">
<path fill="none" stroke="#63b8ff" d="M2213.75,-66.03C2173.26,-54.63 2117.85,-39.02 2079.93,-28.34"/>
<polygon fill="#63b8ff" stroke="#63b8ff" points="2081.27,-25.08 2070.7,-25.74 2079.37,-31.82 2081.27,-25.08"/>
</a>
</g>
</g>
<!-- Node12 -->
<g id="Node000012" class="node">
<title>Node12</title>
<g id="a_Node000012"><a xlink:title=" ">
<polygon fill="#e0e0e0" stroke="#999999" points="2382.88,-24.88 2273.12,-24.88 2273.12,-5.63 2382.88,-5.63 2382.88,-24.88"/>
<text text-anchor="middle" x="2328" y="-11.38" font-family="Helvetica,sans-Serif" font-size="10.00">llvm/ADT/ilist_node.h</text>
</a>
</g>
</g>
<!-- Node10&#45;&gt;Node12 -->
<g id="edge12_Node000010_Node000012" class="edge">
<title>Node10&#45;&gt;Node12</title>
<g id="a_edge12_Node000010_Node000012"><a xlink:title=" ">
<path fill="none" stroke="#63b8ff" d="M2280.07,-66.11C2289.46,-56.34 2301.85,-43.45 2311.68,-33.23"/>
<polygon fill="#63b8ff" stroke="#63b8ff" points="2314.06,-35.8 2318.47,-26.16 2309.02,-30.95 2314.06,-35.8"/>
</a>
</g>
</g>
<!-- Node13 -->
<g id="Node000013" class="node">
<title>Node13</title>
<g id="a_Node000013"><a xlink:title=" ">
<polygon fill="#e0e0e0" stroke="#999999" points="2254.75,-30.5 2153.25,-30.5 2153.25,0 2254.75,0 2254.75,-30.5"/>
<text text-anchor="start" x="2161.25" y="-17" font-family="Helvetica,sans-Serif" font-size="10.00">llvm/ADT/ilist_node</text>
<text text-anchor="middle" x="2204" y="-5.75" font-family="Helvetica,sans-Serif" font-size="10.00">_options.h</text>
</a>
</g>
</g>
<!-- Node10&#45;&gt;Node13 -->
<g id="edge13_Node000010_Node000013" class="edge">
<title>Node10&#45;&gt;Node13</title>
<g id="a_edge13_Node000010_Node000013"><a xlink:title=" ">
<path fill="none" stroke="#63b8ff" d="M2251.93,-66.11C2244.24,-58.11 2234.55,-48.03 2225.89,-39.03"/>
<polygon fill="#63b8ff" stroke="#63b8ff" points="2228.52,-36.7 2219.06,-31.92 2223.47,-41.55 2228.52,-36.7"/>
</a>
</g>
</g>
<!-- Node14 -->
<g id="Node000014" class="node">
<title>Node14</title>
<g id="a_Node000014"><a xlink:title=" ">
<polygon fill="#e0e0e0" stroke="#999999" points="1896.25,-24.88 1797.75,-24.88 1797.75,-5.63 1896.25,-5.63 1896.25,-24.88"/>
<text text-anchor="middle" x="1847" y="-11.38" font-family="Helvetica,sans-Serif" font-size="10.00">mlir/IR/Attributes.h</text>
</a>
</g>
</g>
<!-- Node10&#45;&gt;Node14 -->
<g id="edge14_Node000010_Node000014" class="edge">
<title>Node10&#45;&gt;Node14</title>
<g id="a_edge14_Node000010_Node000014"><a xlink:title=" ">
<path fill="none" stroke="#63b8ff" d="M2213.82,-68.24C2210.84,-67.62 2207.89,-67.04 2205,-66.5 2101.2,-47.13 1979.2,-31.52 1907.76,-23.09"/>
<polygon fill="#63b8ff" stroke="#63b8ff" points="1908.59,-19.66 1898.25,-21.97 1907.77,-26.61 1908.59,-19.66"/>
</a>
</g>
</g>
<!-- Node15 -->
<g id="Node000015" class="node">
<title>Node15</title>
<g id="a_Node000015"><a xlink:title=" ">
<polygon fill="#e0e0e0" stroke="#999999" points="989.25,-24.88 884.75,-24.88 884.75,-5.63 989.25,-5.63 989.25,-24.88"/>
<text text-anchor="middle" x="937" y="-11.38" font-family="Helvetica,sans-Serif" font-size="10.00">mlir/Support/LLVM.h</text>
</a>
</g>
</g>
<!-- Node10&#45;&gt;Node15 -->
<g id="edge15_Node000010_Node000015" class="edge">
<title>Node10&#45;&gt;Node15</title>
<g id="a_edge15_Node000010_Node000015"><a xlink:title=" ">
<path fill="none" stroke="#63b8ff" d="M2213.88,-67.89C2210.88,-67.36 2207.91,-66.89 2205,-66.5 1968.53,-34.49 1224.33,-20.67 1000.98,-17.18"/>
<polygon fill="#63b8ff" stroke="#63b8ff" points="1001.07,-13.68 991.02,-17.02 1000.96,-20.68 1001.07,-13.68"/>
</a>
</g>
</g>
<!-- Node16&#45;&gt;Node2 -->
<g id="edge18_Node000016_Node000002" class="edge">
<title>Node16&#45;&gt;Node2</title>
<g id="a_edge18_Node000016_Node000002"><a xlink:title=" ">
<path fill="none" stroke="#63b8ff" d="M798.03,-140.46C849.44,-132.74 931.43,-118.38 1000,-97 1001.16,-96.64 1002.34,-96.25 1003.52,-95.84"/>
<polygon fill="#63b8ff" stroke="#63b8ff" points="1004.6,-99.17 1012.65,-92.28 1002.06,-92.65 1004.6,-99.17"/>
</a>
</g>
</g>
<!-- Node16&#45;&gt;Node4 -->
<g id="edge26_Node000016_Node000004" class="edge">
<title>Node16&#45;&gt;Node4</title>
<g id="a_edge26_Node000016_Node000004"><a xlink:title=" ">
<path fill="none" stroke="#63b8ff" d="M798.46,-140.47C882.01,-129.24 1049.71,-106.71 1149.05,-93.36"/>
<polygon fill="#63b8ff" stroke="#63b8ff" points="1149.28,-96.86 1158.72,-92.06 1148.35,-89.92 1149.28,-96.86"/>
</a>
</g>
</g>
<!-- Node16&#45;&gt;Node15 -->
<g id="edge25_Node000016_Node000015" class="edge">
<title>Node16&#45;&gt;Node15</title>
<g id="a_edge25_Node000016_Node000015"><a xlink:title=" ">
<path fill="none" stroke="#63b8ff" d="M746.25,-132.76C744.95,-114.9 745.65,-84.71 762,-66.5 789.84,-35.48 835.43,-23.08 873.1,-18.36"/>
<polygon fill="#63b8ff" stroke="#63b8ff" points="873.43,-21.84 883,-17.29 872.68,-14.88 873.43,-21.84"/>
</a>
</g>
</g>
<!-- Node17 -->
<g id="Node000017" class="node">
<title>Node17</title>
<g id="a_Node000017"><a xlink:title=" ">
<polygon fill="#e0e0e0" stroke="#999999" points="167.38,-91.38 54.62,-91.38 54.62,-72.12 167.38,-72.12 167.38,-91.38"/>
<text text-anchor="middle" x="111" y="-77.88" font-family="Helvetica,sans-Serif" font-size="10.00">llvm/ADT/StringMap.h</text>
</a>
</g>
</g>
<!-- Node16&#45;&gt;Node17 -->
<g id="edge19_Node000016_Node000017" class="edge">
<title>Node16&#45;&gt;Node17</title>
<g id="a_edge19_Node000016_Node000017"><a xlink:title=" ">
<path fill="none" stroke="#63b8ff" d="M697.73,-139.27C682.72,-137.05 666.22,-134.77 651,-133 464.46,-111.34 416.81,-116.17 230,-97 213.52,-95.31 195.78,-93.29 179.15,-91.31"/>
<polygon fill="#63b8ff" stroke="#63b8ff" points="179.7,-87.85 169.36,-90.14 178.87,-94.8 179.7,-87.85"/>
</a>
</g>
</g>
<!-- Node18 -->
<g id="Node000018" class="node">
<title>Node18</title>
<g id="a_Node000018"><a xlink:title=" ">
<polygon fill="#e0e0e0" stroke="#999999" points="348.88,-91.38 239.12,-91.38 239.12,-72.12 348.88,-72.12 348.88,-91.38"/>
<text text-anchor="middle" x="294" y="-77.88" font-family="Helvetica,sans-Serif" font-size="10.00">llvm/ADT/StringRef.h</text>
</a>
</g>
</g>
<!-- Node16&#45;&gt;Node18 -->
<g id="edge20_Node000016_Node000018" class="edge">
<title>Node16&#45;&gt;Node18</title>
<g id="a_edge20_Node000016_Node000018"><a xlink:title=" ">
<path fill="none" stroke="#63b8ff" d="M697.67,-139.75C682.66,-137.54 666.17,-135.14 651,-133 532.87,-116.33 503.05,-114.23 385,-97 377.06,-95.84 368.73,-94.59 360.48,-93.32"/>
<polygon fill="#63b8ff" stroke="#63b8ff" points="361.23,-89.9 350.81,-91.83 360.16,-96.82 361.23,-89.9"/>
</a>
</g>
</g>
<!-- Node19 -->
<g id="Node000019" class="node">
<title>Node19</title>
<g id="a_Node000019"><a xlink:title=" ">
<polygon fill="#e0e0e0" stroke="#999999" points="881.25,-91.38 770.75,-91.38 770.75,-72.12 881.25,-72.12 881.25,-91.38"/>
<text text-anchor="middle" x="826" y="-77.88" font-family="Helvetica,sans-Serif" font-size="10.00">llvm/Support/Debug.h</text>
</a>
</g>
</g>
<!-- Node16&#45;&gt;Node19 -->
<g id="edge21_Node000016_Node000019" class="edge">
<title>Node16&#45;&gt;Node19</title>
<g id="a_edge21_Node000016_Node000019"><a xlink:title=" ">
<path fill="none" stroke="#63b8ff" d="M765.7,-132.61C777.88,-122.54 794.05,-109.17 806.58,-98.81"/>
<polygon fill="#63b8ff" stroke="#63b8ff" points="808.69,-101.61 814.16,-92.54 804.23,-96.21 808.69,-101.61"/>
</a>
</g>
</g>
<!-- Node20 -->
<g id="Node000020" class="node">
<title>Node20</title>
<g id="a_Node000020"><a xlink:title=" ">
<polygon fill="#e0e0e0" stroke="#999999" points="990.88,-91.38 899.12,-91.38 899.12,-72.12 990.88,-72.12 990.88,-91.38"/>
<text text-anchor="middle" x="945" y="-77.88" font-family="Helvetica,sans-Serif" font-size="10.00">mlir/IR/Builders.h</text>
</a>
</g>
</g>
<!-- Node16&#45;&gt;Node20 -->
<g id="edge22_Node000016_Node000020" class="edge">
<title>Node16&#45;&gt;Node20</title>
<g id="a_edge22_Node000016_Node000020"><a xlink:title=" ">
<path fill="none" stroke="#63b8ff" d="M792.7,-132.61C826.92,-121.41 873.64,-106.11 906.28,-95.43"/>
<polygon fill="#63b8ff" stroke="#63b8ff" points="907.34,-98.76 915.76,-92.32 905.16,-92.11 907.34,-98.76"/>
</a>
</g>
</g>
<!-- Node21 -->
<g id="Node000021" class="node">
<title>Node21</title>
<g id="a_Node000021"><a xlink:title=" ">
<polygon fill="#e0e0e0" stroke="#999999" points="502.12,-91.38 393.88,-91.38 393.88,-72.12 502.12,-72.12 502.12,-91.38"/>
<text text-anchor="middle" x="448" y="-77.88" font-family="Helvetica,sans-Serif" font-size="10.00">mlir/IR/Diagnostics.h</text>
</a>
</g>
</g>
<!-- Node16&#45;&gt;Node21 -->
<g id="edge23_Node000016_Node000021" class="edge">
<title>Node16&#45;&gt;Node21</title>
<g id="a_edge23_Node000016_Node000021"><a xlink:title=" ">
<path fill="none" stroke="#63b8ff" d="M697.79,-136.45C643.32,-124.74 556.74,-106.13 501.16,-94.18"/>
<polygon fill="#63b8ff" stroke="#63b8ff" points="502.12,-90.81 491.61,-92.13 500.65,-97.65 502.12,-90.81"/>
</a>
</g>
</g>
<!-- Node22 -->
<g id="Node000022" class="node">
<title>Node22</title>
<g id="a_Node000022"><a xlink:title=" ">
<polygon fill="#e0e0e0" stroke="#999999" points="714.62,-91.38 621.38,-91.38 621.38,-72.12 714.62,-72.12 714.62,-91.38"/>
<text text-anchor="middle" x="668" y="-77.88" font-family="Helvetica,sans-Serif" font-size="10.00">mlir/IR/Location.h</text>
</a>
</g>
</g>
<!-- Node16&#45;&gt;Node22 -->
<g id="edge24_Node000016_Node000022" class="edge">
<title>Node16&#45;&gt;Node22</title>
<g id="a_edge24_Node000016_Node000022"><a xlink:title=" ">
<path fill="none" stroke="#63b8ff" d="M729.85,-132.61C717.23,-122.44 700.44,-108.91 687.54,-98.5"/>
<polygon fill="#63b8ff" stroke="#63b8ff" points="690.1,-96.07 680.12,-92.52 685.71,-101.52 690.1,-96.07"/>
</a>
</g>
</g>
<!-- Node23&#45;&gt;Node15 -->
<g id="edge30_Node000023_Node000015" class="edge">
<title>Node23&#45;&gt;Node15</title>
<g id="a_edge30_Node000023_Node000015"><a xlink:title=" ">
<path fill="none" stroke="#63b8ff" d="M60.62,-332.24C38.41,-309.63 0,-263.6 0,-215.75 0,-215.75 0,-215.75 0,-147.25 0,-105.95 10.89,-88.25 46,-66.5 115.78,-23.27 680.61,-17.18 873.06,-16.36"/>
<polygon fill="#63b8ff" stroke="#63b8ff" points="872.88,-19.86 882.86,-16.32 872.85,-12.86 872.88,-19.86"/>
</a>
</g>
</g>
<!-- Node23&#45;&gt;Node17 -->
<g id="edge28_Node000023_Node000017" class="edge">
<title>Node23&#45;&gt;Node17</title>
<g id="a_edge28_Node000023_Node000017"><a xlink:title=" ">
<path fill="none" stroke="#63b8ff" d="M70.79,-332.05C59.02,-296.36 33.55,-202.93 62,-133 67.48,-119.52 78.52,-107.68 88.73,-98.88"/>
<polygon fill="#63b8ff" stroke="#63b8ff" points="90.89,-101.63 96.51,-92.65 86.52,-96.17 90.89,-101.63"/>
</a>
</g>
</g>
<!-- Node23&#45;&gt;Node18 -->
<g id="edge29_Node000023_Node000018" class="edge">
<title>Node23&#45;&gt;Node18</title>
<g id="a_edge29_Node000023_Node000018"><a xlink:title=" ">
<path fill="none" stroke="#63b8ff" d="M75.83,-332.01C76.19,-293.71 82.55,-190.1 138,-133 161.48,-108.82 196.63,-96.26 227.63,-89.74"/>
<polygon fill="#63b8ff" stroke="#63b8ff" points="228.17,-93.2 237.34,-87.89 226.86,-86.32 228.17,-93.2"/>
</a>
</g>
</g>
<!-- Node24 -->
<g id="Node000024" class="node">
<title>Node24</title>
<g id="a_Node000024"><a xlink:href="_type_binding_8h.html" target="_top" xlink:title=" ">
<polygon fill="white" stroke="#666666" points="874,-296.5 762,-296.5 762,-266 874,-266 874,-296.5"/>
<text text-anchor="start" x="770" y="-283" font-family="Helvetica,sans-Serif" font-size="10.00">zklang/Dialect/ZHL</text>
<text text-anchor="middle" x="818" y="-271.75" font-family="Helvetica,sans-Serif" font-size="10.00">/Typing/TypeBinding.h</text>
</a>
</g>
</g>
<!-- Node23&#45;&gt;Node24 -->
<g id="edge31_Node000023_Node000024" class="edge">
<title>Node23&#45;&gt;Node24</title>
<g id="a_edge31_Node000023_Node000024"><a xlink:title=" ">
<path fill="none" stroke="#63b8ff" d="M139.55,-336.15C148.75,-334.8 158.11,-333.54 167,-332.5 379.21,-307.73 631.81,-292.2 750.31,-285.72"/>
<polygon fill="#63b8ff" stroke="#63b8ff" points="750.38,-289.23 760.18,-285.19 750,-282.24 750.38,-289.23"/>
</a>
</g>
</g>
<!-- Node24&#45;&gt;Node2 -->
<g id="edge32_Node000024_Node000002" class="edge">
<title>Node24&#45;&gt;Node2</title>
<g id="a_edge32_Node000024_Node000002"><a xlink:title=" ">
<path fill="none" stroke="#63b8ff" d="M834.23,-265.8C845.45,-255.8 860.68,-242.14 874,-230 925.65,-182.91 986.07,-126.62 1015.33,-99.28"/>
<polygon fill="#63b8ff" stroke="#63b8ff" points="1017.35,-102.19 1022.26,-92.8 1012.57,-97.07 1017.35,-102.19"/>
</a>
</g>
</g>
<!-- Node24&#45;&gt;Node4 -->
<g id="edge43_Node000024_Node000004" class="edge">
<title>Node24&#45;&gt;Node4</title>
<g id="a_edge43_Node000024_Node000004"><a xlink:title=" ">
<path fill="none" stroke="#63b8ff" d="M848.48,-265.57C925.07,-228.67 1124.78,-132.47 1199.36,-96.55"/>
<polygon fill="#63b8ff" stroke="#63b8ff" points="1200.57,-99.85 1208.06,-92.36 1197.53,-93.54 1200.57,-99.85"/>
</a>
</g>
</g>
<!-- Node24&#45;&gt;Node5 -->
<g id="edge57_Node000024_Node000005" class="edge">
<title>Node24&#45;&gt;Node5</title>
<g id="a_edge57_Node000024_Node000005"><a xlink:title=" ">
<path fill="none" stroke="#63b8ff" d="M874.31,-277.23C929.12,-274.3 1014.77,-269.77 1089,-266 1415.64,-249.41 1497.46,-248.48 1824,-230 1878.27,-226.93 1939.97,-222.93 1984.53,-219.95"/>
<polygon fill="#63b8ff" stroke="#63b8ff" points="1984.5,-223.46 1994.25,-219.29 1984.03,-216.47 1984.5,-223.46"/>
</a>
</g>
</g>
<!-- Node24&#45;&gt;Node8 -->
<g id="edge38_Node000024_Node000008" class="edge">
<title>Node24&#45;&gt;Node8</title>
<g id="a_edge38_Node000024_Node000008"><a xlink:title=" ">
<path fill="none" stroke="#63b8ff" d="M874.35,-277.06C1051.72,-266.97 1588.99,-236.09 1626,-230 1718.8,-214.73 1824.45,-180.65 1878.31,-162.02"/>
<polygon fill="#63b8ff" stroke="#63b8ff" points="1879.28,-165.39 1887.57,-158.79 1876.97,-158.78 1879.28,-165.39"/>
</a>
</g>
</g>
<!-- Node24&#45;&gt;Node10 -->
<g id="edge58_Node000024_Node000010" class="edge">
<title>Node24&#45;&gt;Node10</title>
<g id="a_edge58_Node000024_Node000010"><a xlink:title=" ">
<path fill="none" stroke="#63b8ff" d="M874.3,-277.01C929.1,-273.92 1014.75,-269.27 1089,-266 1314.7,-256.07 1882.72,-270.38 2105,-230 2196.34,-213.41 2248.81,-238.87 2303,-163.5 2315.88,-145.59 2302.81,-122.48 2288.77,-105.57"/>
<polygon fill="#63b8ff" stroke="#63b8ff" points="2291.74,-103.64 2282.48,-98.49 2286.5,-108.29 2291.74,-103.64"/>
</a>
</g>
</g>
<!-- Node24&#45;&gt;Node15 -->
<g id="edge42_Node000024_Node000015" class="edge">
<title>Node24&#45;&gt;Node15</title>
<g id="a_edge42_Node000024_Node000015"><a xlink:title=" ">
<path fill="none" stroke="#63b8ff" d="M761.62,-277.91C690.85,-273.65 575.48,-261.89 549,-230 540.34,-219.57 546.03,-212.73 549,-199.5 563.35,-135.69 559.57,-105.61 612,-66.5 652.21,-36.5 790.37,-24.01 873.05,-19.13"/>
<polygon fill="#63b8ff" stroke="#63b8ff" points="873.03,-22.63 882.82,-18.57 872.63,-15.64 873.03,-22.63"/>
</a>
</g>
</g>
<!-- Node24&#45;&gt;Node16 -->
<g id="edge59_Node000024_Node000016" class="edge">
<title>Node24&#45;&gt;Node16</title>
<g id="a_edge59_Node000024_Node000016"><a xlink:title=" ">
<path fill="none" stroke="#63b8ff" d="M810.24,-265.73C798.36,-243.5 775.53,-200.77 761.07,-173.7"/>
<polygon fill="#63b8ff" stroke="#63b8ff" points="764.31,-172.34 756.51,-165.17 758.13,-175.64 764.31,-172.34"/>
</a>
</g>
</g>
<!-- Node24&#45;&gt;Node17 -->
<g id="edge35_Node000024_Node000017" class="edge">
<title>Node24&#45;&gt;Node17</title>
<g id="a_edge35_Node000024_Node000017"><a xlink:title=" ">
<path fill="none" stroke="#63b8ff" d="M761.69,-277.91C650.62,-272.72 407.32,-258.43 329,-230 245.85,-199.81 163.73,-131.01 128.68,-99.31"/>
<polygon fill="#63b8ff" stroke="#63b8ff" points="131.29,-96.96 121.56,-92.78 126.56,-102.11 131.29,-96.96"/>
</a>
</g>
</g>
<!-- Node24&#45;&gt;Node18 -->
<g id="edge36_Node000024_Node000018" class="edge">
<title>Node24&#45;&gt;Node18</title>
<g id="a_edge36_Node000024_Node000018"><a xlink:title=" ">
<path fill="none" stroke="#63b8ff" d="M761.6,-280.82C653.82,-280.85 423.71,-275.4 361,-230 318.62,-199.32 302.44,-135.33 296.77,-102.74"/>
<polygon fill="#63b8ff" stroke="#63b8ff" points="300.26,-102.42 295.27,-93.07 293.35,-103.49 300.26,-102.42"/>
</a>
</g>
</g>
<!-- Node24&#45;&gt;Node19 -->
<g id="edge37_Node000024_Node000019" class="edge">
<title>Node24&#45;&gt;Node19</title>
<g id="a_edge37_Node000024_Node000019"><a xlink:title=" ">
<path fill="none" stroke="#63b8ff" d="M818.59,-265.73C820,-230.92 823.57,-142.66 825.19,-102.81"/>
<polygon fill="#63b8ff" stroke="#63b8ff" points="828.68,-103.15 825.58,-93.02 821.68,-102.87 828.68,-103.15"/>
</a>
</g>
</g>
<!-- Node24&#45;&gt;Node20 -->
<g id="edge39_Node000024_Node000020" class="edge">
<title>Node24&#45;&gt;Node20</title>
<g id="a_edge39_Node000024_Node000020"><a xlink:title=" ">
<path fill="none" stroke="#63b8ff" d="M827.34,-265.73C850.06,-230.39 908.21,-139.96 933.24,-101.03"/>
<polygon fill="#63b8ff" stroke="#63b8ff" points="936.09,-103.08 938.55,-92.78 930.2,-99.3 936.09,-103.08"/>
</a>
</g>
</g>
<!-- Node24&#45;&gt;Node21 -->
<g id="edge40_Node000024_Node000021" class="edge">
<title>Node24&#45;&gt;Node21</title>
<g id="a_edge40_Node000024_Node000021"><a xlink:title=" ">
<path fill="none" stroke="#63b8ff" d="M761.77,-277.11C685.3,-271.81 553.67,-258.73 516,-230 474.49,-198.34 457.44,-135.31 451.19,-102.95"/>
<polygon fill="#63b8ff" stroke="#63b8ff" points="454.68,-102.57 449.5,-93.32 447.78,-103.78 454.68,-102.57"/>
</a>
</g>
</g>
<!-- Node24&#45;&gt;Node22 -->
<g id="edge41_Node000024_Node000022" class="edge">
<title>Node24&#45;&gt;Node22</title>
<g id="a_edge41_Node000024_Node000022"><a xlink:title=" ">
<path fill="none" stroke="#63b8ff" d="M802.77,-265.77C785.53,-249.46 756.53,-222.27 731,-199.5 712.65,-183.13 702.02,-184.35 689,-163.5 677.38,-144.9 672.16,-120.05 669.83,-102.86"/>
<polygon fill="#63b8ff" stroke="#63b8ff" points="673.31,-102.48 668.73,-92.93 666.36,-103.26 673.31,-102.48"/>
</a>
</g>
</g>
<!-- Node25 -->
<g id="Node000025" class="node">
<title>Node25</title>
<g id="a_Node000025"><a xlink:title=" ">
<polygon fill="#e0e0e0" stroke="#999999" points="1241.62,-157.88 1196.38,-157.88 1196.38,-138.62 1241.62,-138.62 1241.62,-157.88"/>
<text text-anchor="middle" x="1219" y="-144.38" font-family="Helvetica,sans-Serif" font-size="10.00">cstdint</text>
</a>
</g>
</g>
<!-- Node24&#45;&gt;Node25 -->
<g id="edge33_Node000024_Node000025" class="edge">
<title>Node24&#45;&gt;Node25</title>
<g id="a_edge33_Node000024_Node000025"><a xlink:title=" ">
<path fill="none" stroke="#63b8ff" d="M874.07,-269.69C917.23,-260.91 978.09,-247.1 1030,-230 1088.61,-210.69 1154.28,-180.62 1190.73,-163.14"/>
<polygon fill="#63b8ff" stroke="#63b8ff" points="1191.79,-166.52 1199.27,-159.01 1188.74,-160.21 1191.79,-166.52"/>
</a>
</g>
</g>
<!-- Node26 -->
<g id="Node000026" class="node">
<title>Node26</title>
<g id="a_Node000026"><a xlink:title=" ">
<polygon fill="#e0e0e0" stroke="#999999" points="464,-224.38 370,-224.38 370,-205.12 464,-205.12 464,-224.38"/>
<text text-anchor="middle" x="417" y="-210.88" font-family="Helvetica,sans-Serif" font-size="10.00">llvm/ADT/Bitset.h</text>
</a>
</g>
</g>
<!-- Node24&#45;&gt;Node26 -->
<g id="edge34_Node000024_Node000026" class="edge">
<title>Node24&#45;&gt;Node26</title>
<g id="a_edge34_Node000024_Node000026"><a xlink:title=" ">
<path fill="none" stroke="#63b8ff" d="M761.51,-273.36C693.85,-264.76 577.21,-248.89 478,-230 473.68,-229.18 469.2,-228.26 464.71,-227.29"/>
<polygon fill="#63b8ff" stroke="#63b8ff" points="465.67,-223.92 455.15,-225.16 464.15,-230.75 465.67,-223.92"/>
</a>
</g>
</g>
<!-- Node27 -->
<g id="Node000027" class="node">
<title>Node27</title>
<g id="a_Node000027"><a xlink:href="_expr_8h.html" target="_top" xlink:title=" ">
<polygon fill="white" stroke="#666666" points="1617,-230 1517,-230 1517,-199.5 1617,-199.5 1617,-230"/>
<text text-anchor="start" x="1525" y="-216.5" font-family="Helvetica,sans-Serif" font-size="10.00">zklang/Dialect/ZHL</text>
<text text-anchor="middle" x="1567" y="-205.25" font-family="Helvetica,sans-Serif" font-size="10.00">/Typing/Expr.h</text>
</a>
</g>
</g>
<!-- Node24&#45;&gt;Node27 -->
<g id="edge44_Node000024_Node000027" class="edge">
<title>Node24&#45;&gt;Node27</title>
<g id="a_edge44_Node000024_Node000027"><a xlink:title=" ">
<path fill="none" stroke="#63b8ff" d="M874.3,-275.4C1011.6,-263.58 1362.82,-233.33 1505.43,-221.05"/>
<polygon fill="#63b8ff" stroke="#63b8ff" points="1505.38,-224.57 1515.04,-220.22 1504.78,-217.6 1505.38,-224.57"/>
</a>
</g>
</g>
<!-- Node32 -->
<g id="Node000032" class="node">
<title>Node32</title>
<g id="a_Node000032"><a xlink:href="_copyable_pointer_8h.html" target="_top" xlink:title=" ">
<polygon fill="white" stroke="#666666" points="721.88,-224.38 558.12,-224.38 558.12,-205.12 721.88,-205.12 721.88,-224.38"/>
<text text-anchor="middle" x="640" y="-210.88" font-family="Helvetica,sans-Serif" font-size="10.00">zklang/Support/CopyablePointer.h</text>
</a>
</g>
</g>
<!-- Node24&#45;&gt;Node32 -->
<g id="edge60_Node000024_Node000032" class="edge">
<title>Node24&#45;&gt;Node32</title>
<g id="a_edge60_Node000024_Node000032"><a xlink:title=" ">
<path fill="none" stroke="#63b8ff" d="M777.61,-265.61C746.96,-254.51 705.21,-239.38 675.76,-228.71"/>
<polygon fill="#63b8ff" stroke="#63b8ff" points="677.14,-225.49 666.55,-225.37 674.76,-232.07 677.14,-225.49"/>
</a>
</g>
</g>
<!-- Node27&#45;&gt;Node4 -->
<g id="edge55_Node000027_Node000004" class="edge">
<title>Node27&#45;&gt;Node4</title>
<g id="a_edge55_Node000027_Node000004"><a xlink:title=" ">
<path fill="none" stroke="#63b8ff" d="M1617.47,-200.83C1662.03,-187.08 1716.05,-163.16 1689,-133 1664.14,-105.28 1434.52,-91.39 1309.02,-85.81"/>
<polygon fill="#63b8ff" stroke="#63b8ff" points="1309.24,-82.31 1299.1,-85.37 1308.93,-89.31 1309.24,-82.31"/>
</a>
</g>
</g>
<!-- Node27&#45;&gt;Node6 -->
<g id="edge50_Node000027_Node000006" class="edge">
<title>Node27&#45;&gt;Node6</title>
<g id="a_edge50_Node000027_Node000006"><a xlink:title=" ">
<path fill="none" stroke="#63b8ff" d="M1617.45,-210.81C1672.94,-206.12 1763.82,-194.08 1836,-163.5 1857.57,-154.36 1857.46,-142.22 1879,-133 1939.38,-107.14 2013.42,-94.47 2066.68,-88.34"/>
<polygon fill="#63b8ff" stroke="#63b8ff" points="2066.99,-91.83 2076.55,-87.26 2066.23,-84.87 2066.99,-91.83"/>
</a>
</g>
</g>
<!-- Node27&#45;&gt;Node8 -->
<g id="edge51_Node000027_Node000008" class="edge">
<title>Node27&#45;&gt;Node8</title>
<g id="a_edge51_Node000027_Node000008"><a xlink:title=" ">
<path fill="none" stroke="#63b8ff" d="M1617.29,-208.34C1678.57,-201.1 1784.96,-186.45 1874,-163.5 1876,-162.98 1878.04,-162.41 1880.09,-161.8"/>
<polygon fill="#63b8ff" stroke="#63b8ff" points="1881.09,-165.15 1889.51,-158.73 1878.92,-158.5 1881.09,-165.15"/>
</a>
</g>
</g>
<!-- Node27&#45;&gt;Node11 -->
<g id="edge48_Node000027_Node000011" class="edge">
<title>Node27&#45;&gt;Node11</title>
<g id="a_edge48_Node000027_Node000011"><a xlink:title=" ">
<path fill="none" stroke="#63b8ff" d="M1617.34,-200.63C1618.91,-200.24 1620.47,-199.87 1622,-199.5 1694.58,-182.14 1716.75,-191.31 1786,-163.5 1810.15,-153.8 1813.63,-146.32 1836,-133 1898.6,-95.73 1972.86,-52.97 2011.21,-30.99"/>
<polygon fill="#63b8ff" stroke="#63b8ff" points="2012.79,-34.12 2019.72,-26.12 2009.31,-28.05 2012.79,-34.12"/>
</a>
</g>
</g>
<!-- Node27&#45;&gt;Node14 -->
<g id="edge53_Node000027_Node000014" class="edge">
<title>Node27&#45;&gt;Node14</title>
<g id="a_edge53_Node000027_Node000014"><a xlink:title=" ">
<path fill="none" stroke="#63b8ff" d="M1617.34,-200.71C1674.4,-185.92 1759.64,-163.79 1760,-163.5 1797.31,-133.14 1782.46,-107.26 1808,-66.5 1815.14,-55.11 1824.3,-43.19 1831.96,-33.82"/>
<polygon fill="#63b8ff" stroke="#63b8ff" points="1834.54,-36.19 1838.27,-26.27 1829.17,-31.7 1834.54,-36.19"/>
</a>
</g>
</g>
<!-- Node27&#45;&gt;Node15 -->
<g id="edge54_Node000027_Node000015" class="edge">
<title>Node27&#45;&gt;Node15</title>
<g id="a_edge54_Node000027_Node000015"><a xlink:title=" ">
<path fill="none" stroke="#63b8ff" d="M1616.26,-199.11C1654.32,-187.31 1701.43,-171.42 1707,-163.5 1714.8,-152.41 1715.76,-143.34 1707,-133 1616.52,-26.23 1168.87,-15.8 1000.86,-15.71"/>
<polygon fill="#63b8ff" stroke="#63b8ff" points="1001,-12.21 991,-15.72 1001,-19.21 1001,-12.21"/>
</a>
</g>
</g>
<!-- Node27&#45;&gt;Node16 -->
<g id="edge56_Node000027_Node000016" class="edge">
<title>Node27&#45;&gt;Node16</title>
<g id="a_edge56_Node000027_Node000016"><a xlink:title=" ">
<path fill="none" stroke="#63b8ff" d="M1516.69,-209.79C1373.75,-198.53 965.48,-166.38 809.55,-154.1"/>
<polygon fill="#63b8ff" stroke="#63b8ff" points="810.08,-150.63 799.84,-153.33 809.53,-157.61 810.08,-150.63"/>
</a>
</g>
</g>
<!-- Node27&#45;&gt;Node25 -->
<g id="edge46_Node000027_Node000025" class="edge">
<title>Node27&#45;&gt;Node25</title>
<g id="a_edge46_Node000027_Node000025"><a xlink:title=" ">
<path fill="none" stroke="#63b8ff" d="M1516.57,-209.82C1453.44,-203.97 1342.47,-190.63 1251,-163.5 1249.83,-163.15 1248.65,-162.78 1247.47,-162.37"/>
<polygon fill="#63b8ff" stroke="#63b8ff" points="1248.96,-159.2 1238.37,-158.79 1246.39,-165.71 1248.96,-159.2"/>
</a>
</g>
</g>
<!-- Node28 -->
<g id="Node000028" class="node">
<title>Node28</title>
<g id="a_Node000028"><a xlink:title=" ">
<polygon fill="#e0e0e0" stroke="#999999" points="1308.12,-157.88 1259.88,-157.88 1259.88,-138.62 1308.12,-138.62 1308.12,-157.88"/>
<text text-anchor="middle" x="1284" y="-144.38" font-family="Helvetica,sans-Serif" font-size="10.00">cstddef</text>
</a>
</g>
</g>
<!-- Node27&#45;&gt;Node28 -->
<g id="edge45_Node000027_Node000028" class="edge">
<title>Node27&#45;&gt;Node28</title>
<g id="a_edge45_Node000027_Node000028"><a xlink:title=" ">
<path fill="none" stroke="#63b8ff" d="M1516.9,-206.84C1465.87,-199.07 1384.82,-184.7 1317,-163.5 1315.84,-163.14 1314.66,-162.75 1313.48,-162.33"/>
<polygon fill="#63b8ff" stroke="#63b8ff" points="1314.94,-159.15 1304.35,-158.78 1312.4,-165.67 1314.94,-159.15"/>
</a>
</g>
</g>
<!-- Node29 -->
<g id="Node000029" class="node">
<title>Node29</title>
<g id="a_Node000029"><a xlink:title=" ">
<polygon fill="#e0e0e0" stroke="#999999" points="1433.75,-157.88 1326.25,-157.88 1326.25,-138.62 1433.75,-138.62 1433.75,-157.88"/>
<text text-anchor="middle" x="1380" y="-144.38" font-family="Helvetica,sans-Serif" font-size="10.00">llvm/ADT/ArrayRef.h</text>
</a>
</g>
</g>
<!-- Node27&#45;&gt;Node29 -->
<g id="edge47_Node000027_Node000029" class="edge">
<title>Node27&#45;&gt;Node29</title>
<g id="a_edge47_Node000027_Node000029"><a xlink:title=" ">
<path fill="none" stroke="#63b8ff" d="M1524.57,-199.11C1492.22,-187.96 1448.12,-172.75 1417.16,-162.07"/>
<polygon fill="#63b8ff" stroke="#63b8ff" points="1418.42,-158.8 1407.83,-158.85 1416.14,-165.42 1418.42,-158.8"/>
</a>
</g>
</g>
<!-- Node30 -->
<g id="Node000030" class="node">
<title>Node30</title>
<g id="a_Node000030"><a xlink:title=" ">
<polygon fill="#e0e0e0" stroke="#999999" points="1560.5,-157.88 1451.5,-157.88 1451.5,-138.62 1560.5,-138.62 1560.5,-157.88"/>
<text text-anchor="middle" x="1506" y="-144.38" font-family="Helvetica,sans-Serif" font-size="10.00">llvm/ADT/StringSet.h</text>
</a>
</g>
</g>
<!-- Node27&#45;&gt;Node30 -->
<g id="edge49_Node000027_Node000030" class="edge">
<title>Node27&#45;&gt;Node30</title>
<g id="a_edge49_Node000027_Node000030"><a xlink:title=" ">
<path fill="none" stroke="#63b8ff" d="M1553.16,-199.11C1543.91,-189.34 1531.73,-176.45 1522.06,-166.23"/>
<polygon fill="#63b8ff" stroke="#63b8ff" points="1524.8,-164.03 1515.38,-159.17 1519.71,-168.84 1524.8,-164.03"/>
</a>
</g>
</g>
<!-- Node31 -->
<g id="Node000031" class="node">
<title>Node31</title>
<g id="a_Node000031"><a xlink:title=" ">
<polygon fill="#e0e0e0" stroke="#999999" points="1679.75,-157.88 1578.25,-157.88 1578.25,-138.62 1679.75,-138.62 1679.75,-157.88"/>
<text text-anchor="middle" x="1629" y="-144.38" font-family="Helvetica,sans-Serif" font-size="10.00">mlir/IR/AffineExpr.h</text>
</a>
</g>
</g>
<!-- Node27&#45;&gt;Node31 -->
<g id="edge52_Node000027_Node000031" class="edge">
<title>Node27&#45;&gt;Node31</title>
<g id="a_edge52_Node000027_Node000031"><a xlink:title=" ">
<path fill="none" stroke="#63b8ff" d="M1581.07,-199.11C1590.46,-189.34 1602.85,-176.45 1612.68,-166.23"/>
<polygon fill="#63b8ff" stroke="#63b8ff" points="1615.06,-168.8 1619.47,-159.16 1610.02,-163.95 1615.06,-168.8"/>
</a>
</g>
</g>
<!-- Node33 -->
<g id="Node000033" class="node">
<title>Node33</title>
<g id="a_Node000033"><a xlink:title=" ">
<polygon fill="#e0e0e0" stroke="#999999" points="641.62,-157.88 602.38,-157.88 602.38,-138.62 641.62,-138.62 641.62,-157.88"/>
<text text-anchor="middle" x="622" y="-144.38" font-family="Helvetica,sans-Serif" font-size="10.00">utility</text>
</a>
</g>
</g>
<!-- Node32&#45;&gt;Node33 -->
<g id="edge61_Node000032_Node000033" class="edge">
<title>Node32&#45;&gt;Node33</title>
<g id="a_edge61_Node000032_Node000033"><a xlink:title=" ">
<path fill="none" stroke="#63b8ff" d="M637.5,-204.78C634.92,-195.54 630.81,-180.83 627.48,-168.88"/>
<polygon fill="#63b8ff" stroke="#63b8ff" points="630.95,-168.29 624.89,-159.6 624.21,-170.17 630.95,-168.29"/>
</a>
</g>
</g>
<!-- Node34&#45;&gt;Node2 -->
<g id="edge63_Node000034_Node000002" class="edge">
<title>Node34&#45;&gt;Node2</title>
<g id="a_edge63_Node000034_Node000002"><a xlink:title=" ">
<path fill="none" stroke="#63b8ff" d="M1050.01,-332.18C1046.98,-287.83 1037.88,-154.39 1034.39,-103.12"/>
<polygon fill="#63b8ff" stroke="#63b8ff" points="1037.89,-102.96 1033.71,-93.22 1030.9,-103.44 1037.89,-102.96"/>
</a>
</g>
</g>
<!-- Node34&#45;&gt;Node4 -->
<g id="edge73_Node000034_Node000004" class="edge">
<title>Node34&#45;&gt;Node4</title>
<g id="a_edge73_Node000034_Node000004"><a xlink:title=" ">
<path fill="none" stroke="#63b8ff" d="M1098.65,-332.11C1116.87,-324.27 1136.3,-312.78 1149,-296.5 1194.9,-237.69 1154.12,-199.97 1187,-133 1192.95,-120.87 1202.34,-109.07 1210.62,-99.96"/>
<polygon fill="#63b8ff" stroke="#63b8ff" points="1212.96,-102.57 1217.33,-92.92 1207.9,-97.74 1212.96,-102.57"/>
</a>
</g>
</g>
<!-- Node34&#45;&gt;Node5 -->
<g id="edge75_Node000034_Node000005" class="edge">
<title>Node34&#45;&gt;Node5</title>
<g id="a_edge75_Node000034_Node000005"><a xlink:title=" ">
<path fill="none" stroke="#63b8ff" d="M1109.89,-339C1285.65,-315.86 1805.31,-247.44 1984.46,-223.85"/>
<polygon fill="#63b8ff" stroke="#63b8ff" points="1984.81,-227.34 1994.26,-222.56 1983.89,-220.4 1984.81,-227.34"/>
</a>
</g>
</g>
<!-- Node34&#45;&gt;Node10 -->
<g id="edge76_Node000034_Node000010" class="edge">
<title>Node34&#45;&gt;Node10</title>
<g id="a_edge76_Node000034_Node000010"><a xlink:title=" ">
<path fill="none" stroke="#63b8ff" d="M1109.75,-341.11C1204.96,-331.93 1398.83,-313.14 1563,-296.5 1845.76,-267.84 1927.77,-314.9 2199,-230 2257.56,-211.67 2288.76,-216.32 2320,-163.5 2326.9,-151.83 2325.41,-145.43 2320,-133 2315.25,-122.08 2306.82,-112.46 2298.02,-104.64"/>
<polygon fill="#63b8ff" stroke="#63b8ff" points="2300.34,-102.02 2290.38,-98.4 2295.91,-107.44 2300.34,-102.02"/>
</a>
</g>
</g>
<!-- Node34&#45;&gt;Node15 -->
<g id="edge72_Node000034_Node000015" class="edge">
<title>Node34&#45;&gt;Node15</title>
<g id="a_edge72_Node000034_Node000015"><a xlink:title=" ">
<path fill="none" stroke="#63b8ff" d="M1057.47,-332C1075.98,-287.36 1124.16,-151.57 1066,-66.5 1051.05,-44.64 1025.07,-32.28 1000.33,-25.31"/>
<polygon fill="#63b8ff" stroke="#63b8ff" points="1001.48,-21.99 990.93,-22.92 999.76,-28.77 1001.48,-21.99"/>
</a>
</g>
</g>
<!-- Node34&#45;&gt;Node17 -->
<g id="edge66_Node000034_Node000017" class="edge">
<title>Node34&#45;&gt;Node17</title>
<g id="a_edge66_Node000034_Node000017"><a xlink:title=" ">
<path fill="none" stroke="#63b8ff" d="M992.11,-344.99C830.62,-339.82 388.77,-323.37 329,-296.5 231.4,-252.62 152.16,-145.01 123.02,-101.48"/>
<polygon fill="#63b8ff" stroke="#63b8ff" points="125.96,-99.57 117.54,-93.14 120.1,-103.42 125.96,-99.57"/>
</a>
</g>
</g>
<!-- Node34&#45;&gt;Node18 -->
<g id="edge67_Node000034_Node000018" class="edge">
<title>Node34&#45;&gt;Node18</title>
<g id="a_edge67_Node000034_Node000018"><a xlink:title=" ">
<path fill="none" stroke="#63b8ff" d="M991.95,-346.05C833.93,-343.69 410.04,-333.9 360,-296.5 298.13,-250.25 292.56,-146.84 293.15,-103.01"/>
<polygon fill="#63b8ff" stroke="#63b8ff" points="296.65,-103.27 293.43,-93.18 289.65,-103.07 296.65,-103.27"/>
</a>
</g>
</g>
<!-- Node34&#45;&gt;Node19 -->
<g id="edge68_Node000034_Node000019" class="edge">
<title>Node34&#45;&gt;Node19</title>
<g id="a_edge68_Node000034_Node000019"><a xlink:title=" ">
<path fill="none" stroke="#63b8ff" d="M1038.58,-332.18C1000.06,-286.98 882.68,-149.26 840.93,-100.27"/>
<polygon fill="#63b8ff" stroke="#63b8ff" points="843.77,-98.2 834.62,-92.86 838.44,-102.75 843.77,-98.2"/>
</a>
</g>
</g>
<!-- Node34&#45;&gt;Node20 -->
<g id="edge69_Node000034_Node000020" class="edge">
<title>Node34&#45;&gt;Node20</title>
<g id="a_edge69_Node000034_Node000020"><a xlink:title=" ">
<path fill="none" stroke="#63b8ff" d="M1045.15,-332.18C1027.23,-287.55 973.08,-152.69 952.79,-102.15"/>
<polygon fill="#63b8ff" stroke="#63b8ff" points="956.14,-101.09 949.16,-93.12 949.64,-103.7 956.14,-101.09"/>
</a>
</g>
</g>
<!-- Node34&#45;&gt;Node21 -->
<g id="edge70_Node000034_Node000021" class="edge">
<title>Node34&#45;&gt;Node21</title>
<g id="a_edge70_Node000034_Node000021"><a xlink:title=" ">
<path fill="none" stroke="#63b8ff" d="M991.89,-346.98C854.34,-346.73 516.72,-341.42 414,-296.5 374.09,-279.05 359.47,-269.91 342,-230 336.57,-217.58 340.31,-212.95 342,-199.5 345.81,-169.23 340.45,-157.22 359,-133 371.75,-116.36 391.68,-104.37 409.46,-96.29"/>
<polygon fill="#63b8ff" stroke="#63b8ff" points="410.65,-99.59 418.49,-92.46 407.92,-93.14 410.65,-99.59"/>
</a>
</g>
</g>
<!-- Node34&#45;&gt;Node22 -->
<g id="edge71_Node000034_Node000022" class="edge">
<title>Node34&#45;&gt;Node22</title>
<g id="a_edge71_Node000034_Node000022"><a xlink:title=" ">
<path fill="none" stroke="#63b8ff" d="M992.11,-346.08C840.3,-342.98 441.85,-325.72 361,-230 287.03,-142.42 501.31,-103.03 609.57,-89.08"/>
<polygon fill="#63b8ff" stroke="#63b8ff" points="609.97,-92.55 619.46,-87.84 609.1,-85.61 609.97,-92.55"/>
</a>
</g>
</g>
<!-- Node34&#45;&gt;Node24 -->
<g id="edge77_Node000034_Node000024" class="edge">
<title>Node34&#45;&gt;Node24</title>
<g id="a_edge77_Node000034_Node000024"><a xlink:title=" ">
<path fill="none" stroke="#63b8ff" d="M997.84,-332.03C963.39,-322.5 918.33,-310.02 881.93,-299.95"/>
<polygon fill="#63b8ff" stroke="#63b8ff" points="882.96,-296.6 872.39,-297.31 881.1,-303.35 882.96,-296.6"/>
</a>
</g>
</g>
<!-- Node34&#45;&gt;Node25 -->
<g id="edge64_Node000034_Node000025" class="edge">
<title>Node34&#45;&gt;Node25</title>
<g id="a_edge64_Node000034_Node000025"><a xlink:title=" ">
<path fill="none" stroke="#63b8ff" d="M1109.87,-336.79C1135.34,-329.62 1163.5,-317.37 1182,-296.5 1213.98,-260.43 1219.15,-200.75 1219.5,-169.6"/>
<polygon fill="#63b8ff" stroke="#63b8ff" points="1223,-169.64 1219.42,-159.66 1216,-169.69 1223,-169.64"/>
</a>
</g>
</g>
<!-- Node34&#45;&gt;Node27 -->
<g id="edge74_Node000034_Node000027" class="edge">
<title>Node34&#45;&gt;Node27</title>
<g id="a_edge74_Node000034_Node000027"><a xlink:title=" ">
<path fill="none" stroke="#63b8ff" d="M1109.94,-333.51C1143.09,-325.01 1184.76,-312.55 1220,-296.5 1243,-286.02 1244.4,-275.05 1268,-266 1346.65,-235.83 1443.82,-223.74 1505.61,-218.92"/>
<polygon fill="#63b8ff" stroke="#63b8ff" points="1505.5,-222.44 1515.22,-218.21 1504.99,-215.46 1505.5,-222.44"/>
</a>
</g>
</g>
<!-- Node35 -->
<g id="Node000035" class="node">
<title>Node35</title>
<g id="a_Node000035"><a xlink:title=" ">
<polygon fill="#e0e0e0" stroke="#999999" points="1140.12,-290.88 1097.88,-290.88 1097.88,-271.62 1140.12,-271.62 1140.12,-290.88"/>
<text text-anchor="middle" x="1119" y="-277.38" font-family="Helvetica,sans-Serif" font-size="10.00">deque</text>
</a>
</g>
</g>
<!-- Node34&#45;&gt;Node35 -->
<g id="edge65_Node000034_Node000035" class="edge">
<title>Node34&#45;&gt;Node35</title>
<g id="a_edge65_Node000034_Node000035"><a xlink:title=" ">
<path fill="none" stroke="#63b8ff" d="M1066.43,-332.11C1076.84,-322.24 1090.6,-309.19 1101.43,-298.92"/>
<polygon fill="#63b8ff" stroke="#63b8ff" points="1103.75,-301.54 1108.6,-292.11 1098.94,-296.46 1103.75,-301.54"/>
</a>
</g>
</g>
</g>
</svg>
