<?xml version="1.0" encoding="UTF-8" standalone="no"?>
<!DOCTYPE svg PUBLIC "-//W3C//DTD SVG 1.1//EN"
 "http://www.w3.org/Graphics/SVG/1.1/DTD/svg11.dtd">
<!-- Generated by graphviz version 12.2.1 (20241206.2353)
 -->
<!-- Title: include/zklang/Dialect/ZHL/Typing/ParamsStorage.h Pages: 1 -->
<svg width="1863pt" height="371pt"
 viewBox="0.00 0.00 1862.88 371.00" xmlns="http://www.w3.org/2000/svg" xmlns:xlink="http://www.w3.org/1999/xlink">
<g id="graph0" class="graph" transform="scale(1 1) rotate(0) translate(4 367)">
<title>include/zklang/Dialect/ZHL/Typing/ParamsStorage.h</title>
<!-- Node1 -->
<g id="Node000001" class="node">
<title>Node1</title>
<g id="a_Node000001"><a xlink:title=" ">
<polygon fill="#999999" stroke="#666666" points="1491,-363 1343,-363 1343,-332.5 1491,-332.5 1491,-363"/>
<text text-anchor="start" x="1351" y="-349.5" font-family="Helvetica,sans-Serif" font-size="10.00">include/zklang/Dialect</text>
<text text-anchor="middle" x="1417" y="-338.25" font-family="Helvetica,sans-Serif" font-size="10.00">/ZHL/Typing/ParamsStorage.h</text>
</a>
</g>
</g>
<!-- Node2 -->
<g id="Node000002" class="node">
<title>Node2</title>
<g id="a_Node000002"><a xlink:title=" ">
<polygon fill="#e0e0e0" stroke="#999999" points="1727.38,-91.38 1614.62,-91.38 1614.62,-72.12 1727.38,-72.12 1727.38,-91.38"/>
<text text-anchor="middle" x="1671" y="-77.88" font-family="Helvetica,sans-Serif" font-size="10.00">llvm/ADT/StringMap.h</text>
</a>
</g>
</g>
<!-- Node1&#45;&gt;Node2 -->
<g id="edge1_Node000001_Node000002" class="edge">
<title>Node1&#45;&gt;Node2</title>
<g id="a_edge1_Node000001_Node000002"><a xlink:title=" ">
<path fill="none" stroke="#63b8ff" d="M1464.15,-332.14C1513.79,-314.72 1591.58,-281.33 1642,-230 1673.91,-197.51 1676.81,-178.5 1675,-133 1674.61,-123.13 1673.78,-112.2 1672.99,-103.06"/>
<polygon fill="#63b8ff" stroke="#63b8ff" points="1676.47,-102.77 1672.06,-93.14 1669.5,-103.42 1676.47,-102.77"/>
</a>
</g>
</g>
<!-- Node3 -->
<g id="Node000003" class="node">
<title>Node3</title>
<g id="a_Node000003"><a xlink:title=" ">
<polygon fill="#e0e0e0" stroke="#999999" points="1854.88,-91.38 1745.12,-91.38 1745.12,-72.12 1854.88,-72.12 1854.88,-91.38"/>
<text text-anchor="middle" x="1800" y="-77.88" font-family="Helvetica,sans-Serif" font-size="10.00">llvm/ADT/StringRef.h</text>
</a>
</g>
</g>
<!-- Node1&#45;&gt;Node3 -->
<g id="edge2_Node000001_Node000003" class="edge">
<title>Node1&#45;&gt;Node3</title>
<g id="a_edge2_Node000001_Node000003"><a xlink:title=" ">
<path fill="none" stroke="#63b8ff" d="M1485.1,-332.08C1516.96,-323.86 1554.88,-312.08 1587,-296.5 1674.9,-253.87 1701.98,-240.58 1762,-163.5 1776.62,-144.72 1787.38,-119.4 1793.65,-102.15"/>
<polygon fill="#63b8ff" stroke="#63b8ff" points="1796.89,-103.48 1796.84,-92.88 1790.27,-101.2 1796.89,-103.48"/>
</a>
</g>
</g>
<!-- Node4 -->
<g id="Node000004" class="node">
<title>Node4</title>
<g id="a_Node000004"><a xlink:title=" ">
<polygon fill="#e0e0e0" stroke="#999999" points="567.25,-24.88 462.75,-24.88 462.75,-5.63 567.25,-5.63 567.25,-24.88"/>
<text text-anchor="middle" x="515" y="-11.38" font-family="Helvetica,sans-Serif" font-size="10.00">mlir/Support/LLVM.h</text>
</a>
</g>
</g>
<!-- Node1&#45;&gt;Node4 -->
<g id="edge3_Node000001_Node000004" class="edge">
<title>Node1&#45;&gt;Node4</title>
<g id="a_edge3_Node000001_Node000004"><a xlink:title=" ">
<path fill="none" stroke="#63b8ff" d="M1342.81,-343.82C1051.25,-331.82 0,-283.84 0,-215.75 0,-215.75 0,-215.75 0,-147.25 0,-107.59 5.67,-89.48 38,-66.5 102.88,-20.38 336.89,-15.12 451.23,-15.41"/>
<polygon fill="#63b8ff" stroke="#63b8ff" points="451.04,-18.91 461.06,-15.46 451.07,-11.91 451.04,-18.91"/>
</a>
</g>
</g>
<!-- Node5 -->
<g id="Node000005" class="node">
<title>Node5</title>
<g id="a_Node000005"><a xlink:href="_type_binding_8h.html" target="_top" xlink:title=" ">
<polygon fill="white" stroke="#666666" points="1157,-296.5 1045,-296.5 1045,-266 1157,-266 1157,-296.5"/>
<text text-anchor="start" x="1053" y="-283" font-family="Helvetica,sans-Serif" font-size="10.00">zklang/Dialect/ZHL</text>
<text text-anchor="middle" x="1101" y="-271.75" font-family="Helvetica,sans-Serif" font-size="10.00">/Typing/TypeBinding.h</text>
</a>
</g>
</g>
<!-- Node1&#45;&gt;Node5 -->
<g id="edge4_Node000001_Node000005" class="edge">
<title>Node1&#45;&gt;Node5</title>
<g id="a_edge4_Node000001_Node000005"><a xlink:title=" ">
<path fill="none" stroke="#63b8ff" d="M1344.9,-332.03C1291.87,-321.21 1220.28,-306.6 1168.39,-296.01"/>
<polygon fill="#63b8ff" stroke="#63b8ff" points="1169.29,-292.62 1158.79,-294.05 1167.89,-299.47 1169.29,-292.62"/>
</a>
</g>
</g>
<!-- Node5&#45;&gt;Node2 -->
<g id="edge8_Node000005_Node000002" class="edge">
<title>Node5&#45;&gt;Node2</title>
<g id="a_edge8_Node000005_Node000002"><a xlink:title=" ">
<path fill="none" stroke="#63b8ff" d="M1157.49,-278.06C1283.49,-272.69 1579.24,-257.32 1615,-230 1655.48,-199.07 1666.7,-135.19 1669.81,-102.69"/>
<polygon fill="#63b8ff" stroke="#63b8ff" points="1673.27,-103.3 1670.55,-93.06 1666.29,-102.76 1673.27,-103.3"/>
</a>
</g>
</g>
<!-- Node5&#45;&gt;Node3 -->
<g id="edge9_Node000005_Node000003" class="edge">
<title>Node5&#45;&gt;Node3</title>
<g id="a_edge9_Node000005_Node000003"><a xlink:title=" ">
<path fill="none" stroke="#63b8ff" d="M1157.23,-279.59C1277.66,-277.44 1556.46,-268.34 1642,-230 1707.15,-200.8 1762.78,-133.58 1787.02,-101.05"/>
<polygon fill="#63b8ff" stroke="#63b8ff" points="1789.81,-103.17 1792.87,-93.02 1784.15,-99.05 1789.81,-103.17"/>
</a>
</g>
</g>
<!-- Node5&#45;&gt;Node4 -->
<g id="edge15_Node000005_Node000004" class="edge">
<title>Node5&#45;&gt;Node4</title>
<g id="a_edge15_Node000005_Node000004"><a xlink:title=" ">
<path fill="none" stroke="#63b8ff" d="M1044.57,-278.31C836.7,-270.57 122.38,-238.67 57,-163.5 -54.52,-35.28 300.48,-17.86 450.93,-16.11"/>
<polygon fill="#63b8ff" stroke="#63b8ff" points="450.78,-19.61 460.75,-16.02 450.71,-12.61 450.78,-19.61"/>
</a>
</g>
</g>
<!-- Node6 -->
<g id="Node000006" class="node">
<title>Node6</title>
<g id="a_Node000006"><a xlink:title=" ">
<polygon fill="#e0e0e0" stroke="#999999" points="1339.12,-91.38 1290.88,-91.38 1290.88,-72.12 1339.12,-72.12 1339.12,-91.38"/>
<text text-anchor="middle" x="1315" y="-77.88" font-family="Helvetica,sans-Serif" font-size="10.00">cassert</text>
</a>
</g>
</g>
<!-- Node5&#45;&gt;Node6 -->
<g id="edge5_Node000005_Node000006" class="edge">
<title>Node5&#45;&gt;Node6</title>
<g id="a_edge5_Node000005_Node000006"><a xlink:title=" ">
<path fill="none" stroke="#63b8ff" d="M1102.96,-265.77C1107.72,-236.37 1122.6,-169.38 1163,-133 1204.06,-96.03 1230.11,-115.98 1282,-97 1282.79,-96.71 1283.59,-96.41 1284.4,-96.11"/>
<polygon fill="#63b8ff" stroke="#63b8ff" points="1285.54,-99.42 1293.5,-92.43 1282.92,-92.93 1285.54,-99.42"/>
</a>
</g>
</g>
<!-- Node7 -->
<g id="Node000007" class="node">
<title>Node7</title>
<g id="a_Node000007"><a xlink:title=" ">
<polygon fill="#e0e0e0" stroke="#999999" points="764.62,-157.88 719.38,-157.88 719.38,-138.62 764.62,-138.62 764.62,-157.88"/>
<text text-anchor="middle" x="742" y="-144.38" font-family="Helvetica,sans-Serif" font-size="10.00">cstdint</text>
</a>
</g>
</g>
<!-- Node5&#45;&gt;Node7 -->
<g id="edge6_Node000005_Node000007" class="edge">
<title>Node5&#45;&gt;Node7</title>
<g id="a_edge6_Node000005_Node000007"><a xlink:title=" ">
<path fill="none" stroke="#63b8ff" d="M1044.55,-277.61C964.13,-272.82 821.76,-260.24 781,-230 761.3,-215.38 751.08,-188.17 746.13,-169.4"/>
<polygon fill="#63b8ff" stroke="#63b8ff" points="749.55,-168.68 743.88,-159.74 742.73,-170.27 749.55,-168.68"/>
</a>
</g>
</g>
<!-- Node8 -->
<g id="Node000008" class="node">
<title>Node8</title>
<g id="a_Node000008"><a xlink:title=" ">
<polygon fill="#e0e0e0" stroke="#999999" points="1242,-224.38 1148,-224.38 1148,-205.12 1242,-205.12 1242,-224.38"/>
<text text-anchor="middle" x="1195" y="-210.88" font-family="Helvetica,sans-Serif" font-size="10.00">llvm/ADT/Bitset.h</text>
</a>
</g>
</g>
<!-- Node5&#45;&gt;Node8 -->
<g id="edge7_Node000005_Node000008" class="edge">
<title>Node5&#45;&gt;Node8</title>
<g id="a_edge7_Node000005_Node000008"><a xlink:title=" ">
<path fill="none" stroke="#63b8ff" d="M1122.33,-265.61C1137.35,-255.31 1157.41,-241.54 1172.65,-231.08"/>
<polygon fill="#63b8ff" stroke="#63b8ff" points="1174.36,-234.16 1180.62,-225.62 1170.4,-228.39 1174.36,-234.16"/>
</a>
</g>
</g>
<!-- Node9 -->
<g id="Node000009" class="node">
<title>Node9</title>
<g id="a_Node000009"><a xlink:title=" ">
<polygon fill="#e0e0e0" stroke="#999999" points="887.25,-91.38 776.75,-91.38 776.75,-72.12 887.25,-72.12 887.25,-91.38"/>
<text text-anchor="middle" x="832" y="-77.88" font-family="Helvetica,sans-Serif" font-size="10.00">llvm/Support/Debug.h</text>
</a>
</g>
</g>
<!-- Node5&#45;&gt;Node9 -->
<g id="edge10_Node000005_Node000009" class="edge">
<title>Node5&#45;&gt;Node9</title>
<g id="a_edge10_Node000005_Node000009"><a xlink:title=" ">
<path fill="none" stroke="#63b8ff" d="M1044.59,-276.27C1005.09,-270.97 952.98,-258.63 916,-230 872.86,-196.6 848.15,-134.35 837.8,-102.55"/>
<polygon fill="#63b8ff" stroke="#63b8ff" points="841.17,-101.61 834.87,-93.09 834.48,-103.67 841.17,-101.61"/>
</a>
</g>
</g>
<!-- Node10 -->
<g id="Node000010" class="node">
<title>Node10</title>
<g id="a_Node000010"><a xlink:title=" ">
<polygon fill="#e0e0e0" stroke="#999999" points="1223.62,-157.88 1172.38,-157.88 1172.38,-138.62 1223.62,-138.62 1223.62,-157.88"/>
<text text-anchor="middle" x="1198" y="-144.38" font-family="Helvetica,sans-Serif" font-size="10.00">memory</text>
</a>
</g>
</g>
<!-- Node5&#45;&gt;Node10 -->
<g id="edge11_Node000005_Node000010" class="edge">
<title>Node5&#45;&gt;Node10</title>
<g id="a_edge11_Node000005_Node000010"><a xlink:title=" ">
<path fill="none" stroke="#63b8ff" d="M1157.21,-277.07C1190.31,-271.96 1229.74,-259.54 1251,-230 1266.88,-207.93 1241.38,-181.42 1220.54,-164.95"/>
<polygon fill="#63b8ff" stroke="#63b8ff" points="1222.78,-162.25 1212.68,-159.05 1218.58,-167.85 1222.78,-162.25"/>
</a>
</g>
</g>
<!-- Node11 -->
<g id="Node000011" class="node">
<title>Node11</title>
<g id="a_Node000011"><a xlink:title=" ">
<polygon fill="#e0e0e0" stroke="#999999" points="996.88,-91.38 905.12,-91.38 905.12,-72.12 996.88,-72.12 996.88,-91.38"/>
<text text-anchor="middle" x="951" y="-77.88" font-family="Helvetica,sans-Serif" font-size="10.00">mlir/IR/Builders.h</text>
</a>
</g>
</g>
<!-- Node5&#45;&gt;Node11 -->
<g id="edge12_Node000005_Node000011" class="edge">
<title>Node5&#45;&gt;Node11</title>
<g id="a_edge12_Node000005_Node000011"><a xlink:title=" ">
<path fill="none" stroke="#63b8ff" d="M1044.53,-267.2C993.66,-251.99 922.49,-221.21 893,-163.5 886.83,-151.43 887.37,-145.33 893,-133 899.64,-118.47 912.79,-106.52 924.89,-97.93"/>
<polygon fill="#63b8ff" stroke="#63b8ff" points="926.54,-101.03 932.96,-92.6 922.69,-95.19 926.54,-101.03"/>
</a>
</g>
</g>
<!-- Node12 -->
<g id="Node000012" class="node">
<title>Node12</title>
<g id="a_Node000012"><a xlink:title=" ">
<polygon fill="#e0e0e0" stroke="#999999" points="1161.12,-91.38 1052.88,-91.38 1052.88,-72.12 1161.12,-72.12 1161.12,-91.38"/>
<text text-anchor="middle" x="1107" y="-77.88" font-family="Helvetica,sans-Serif" font-size="10.00">mlir/IR/Diagnostics.h</text>
</a>
</g>
</g>
<!-- Node5&#45;&gt;Node12 -->
<g id="edge13_Node000005_Node000012" class="edge">
<title>Node5&#45;&gt;Node12</title>
<g id="a_edge13_Node000005_Node000012"><a xlink:title=" ">
<path fill="none" stroke="#63b8ff" d="M1088.05,-265.59C1080.6,-256.15 1071.95,-243.2 1068,-230 1054.29,-184.15 1079.45,-129.53 1095.38,-101.46"/>
<polygon fill="#63b8ff" stroke="#63b8ff" points="1098.27,-103.46 1100.35,-93.07 1092.24,-99.89 1098.27,-103.46"/>
</a>
</g>
</g>
<!-- Node13 -->
<g id="Node000013" class="node">
<title>Node13</title>
<g id="a_Node000013"><a xlink:title=" ">
<polygon fill="#e0e0e0" stroke="#999999" points="1272.62,-91.38 1179.38,-91.38 1179.38,-72.12 1272.62,-72.12 1272.62,-91.38"/>
<text text-anchor="middle" x="1226" y="-77.88" font-family="Helvetica,sans-Serif" font-size="10.00">mlir/IR/Location.h</text>
</a>
</g>
</g>
<!-- Node5&#45;&gt;Node13 -->
<g id="edge14_Node000005_Node000013" class="edge">
<title>Node5&#45;&gt;Node13</title>
<g id="a_edge14_Node000005_Node000013"><a xlink:title=" ">
<path fill="none" stroke="#63b8ff" d="M1099.46,-265.67C1097.25,-236.68 1096.6,-171.28 1130,-133 1144.75,-116.1 1166.59,-104.04 1185.72,-95.98"/>
<polygon fill="#63b8ff" stroke="#63b8ff" points="1186.87,-99.28 1194.88,-92.35 1184.3,-92.77 1186.87,-99.28"/>
</a>
</g>
</g>
<!-- Node14 -->
<g id="Node000014" class="node">
<title>Node14</title>
<g id="a_Node000014"><a xlink:title=" ">
<polygon fill="#e0e0e0" stroke="#999999" points="758.5,-91.38 619.5,-91.38 619.5,-72.12 758.5,-72.12 758.5,-91.38"/>
<text text-anchor="middle" x="689" y="-77.88" font-family="Helvetica,sans-Serif" font-size="10.00">mlir/Support/LogicalResult.h</text>
</a>
</g>
</g>
<!-- Node5&#45;&gt;Node14 -->
<g id="edge16_Node000005_Node000014" class="edge">
<title>Node5&#45;&gt;Node14</title>
<g id="a_edge16_Node000005_Node000014"><a xlink:title=" ">
<path fill="none" stroke="#63b8ff" d="M1044.78,-275.22C998.87,-269.32 933.42,-256.68 882,-230 824.73,-200.28 826.02,-171.16 774,-133 755.68,-119.57 733.56,-106.58 716.47,-97.17"/>
<polygon fill="#63b8ff" stroke="#63b8ff" points="718.36,-94.21 707.89,-92.53 715.02,-100.37 718.36,-94.21"/>
</a>
</g>
</g>
<!-- Node15 -->
<g id="Node000015" class="node">
<title>Node15</title>
<g id="a_Node000015"><a xlink:href="_expr_8h.html" target="_top" xlink:title=" ">
<polygon fill="white" stroke="#666666" points="641,-230 541,-230 541,-199.5 641,-199.5 641,-230"/>
<text text-anchor="start" x="549" y="-216.5" font-family="Helvetica,sans-Serif" font-size="10.00">zklang/Dialect/ZHL</text>
<text text-anchor="middle" x="591" y="-205.25" font-family="Helvetica,sans-Serif" font-size="10.00">/Typing/Expr.h</text>
</a>
</g>
</g>
<!-- Node5&#45;&gt;Node15 -->
<g id="edge17_Node000005_Node000015" class="edge">
<title>Node5&#45;&gt;Node15</title>
<g id="a_edge17_Node000005_Node000015"><a xlink:title=" ">
<path fill="none" stroke="#63b8ff" d="M1044.96,-273.16C948.66,-260.98 752.51,-236.18 652.55,-223.53"/>
<polygon fill="#63b8ff" stroke="#63b8ff" points="653.29,-220.1 642.93,-222.32 652.41,-227.04 653.29,-220.1"/>
</a>
</g>
</g>
<!-- Node23 -->
<g id="Node000023" class="node">
<title>Node23</title>
<g id="a_Node000023"><a xlink:href="_params_8h.html" target="_top" xlink:title=" ">
<polygon fill="white" stroke="#666666" points="1002,-163.5 902,-163.5 902,-133 1002,-133 1002,-163.5"/>
<text text-anchor="start" x="910" y="-150" font-family="Helvetica,sans-Serif" font-size="10.00">zklang/Dialect/ZHL</text>
<text text-anchor="middle" x="952" y="-138.75" font-family="Helvetica,sans-Serif" font-size="10.00">/Typing/Params.h</text>
</a>
</g>
</g>
<!-- Node5&#45;&gt;Node23 -->
<g id="edge52_Node000005_Node000023" class="edge">
<title>Node5&#45;&gt;Node23</title>
<g id="a_edge52_Node000005_Node000023"><a xlink:title=" ">
<path fill="none" stroke="#63b8ff" d="M1070.1,-265.52C1053.12,-256.59 1032.28,-244.2 1016,-230 996.84,-213.29 979.23,-190.25 967.36,-173.05"/>
<polygon fill="#63b8ff" stroke="#63b8ff" points="970.39,-171.29 961.9,-164.95 964.58,-175.2 970.39,-171.29"/>
</a>
</g>
</g>
<!-- Node24 -->
<g id="Node000024" class="node">
<title>Node24</title>
<g id="a_Node000024"><a xlink:href="_frame_8h.html" target="_top" xlink:title=" ">
<polygon fill="white" stroke="#666666" points="1580,-230 1480,-230 1480,-199.5 1580,-199.5 1580,-230"/>
<text text-anchor="start" x="1488" y="-216.5" font-family="Helvetica,sans-Serif" font-size="10.00">zklang/Dialect/ZHL</text>
<text text-anchor="middle" x="1530" y="-205.25" font-family="Helvetica,sans-Serif" font-size="10.00">/Typing/Frame.h</text>
</a>
</g>
</g>
<!-- Node5&#45;&gt;Node24 -->
<g id="edge39_Node000005_Node000024" class="edge">
<title>Node5&#45;&gt;Node24</title>
<g id="a_edge39_Node000005_Node000024"><a xlink:title=" ">
<path fill="none" stroke="#63b8ff" d="M1157.39,-274.4C1227.91,-266.69 1352.53,-251.74 1468.36,-230.38"/>
<polygon fill="#63b8ff" stroke="#63b8ff" points="1468.87,-233.85 1478.05,-228.57 1467.58,-226.97 1468.87,-233.85"/>
</a>
</g>
</g>
<!-- Node27 -->
<g id="Node000027" class="node">
<title>Node27</title>
<g id="a_Node000027"><a xlink:href="_frame_slot_8h.html" target="_top" xlink:title=" ">
<polygon fill="white" stroke="#666666" points="1596.88,-97 1493.12,-97 1493.12,-66.5 1596.88,-66.5 1596.88,-97"/>
<text text-anchor="start" x="1501.12" y="-83.5" font-family="Helvetica,sans-Serif" font-size="10.00">zklang/Dialect/ZHL</text>
<text text-anchor="middle" x="1545" y="-72.25" font-family="Helvetica,sans-Serif" font-size="10.00">/Typing/FrameSlot.h</text>
</a>
</g>
</g>
<!-- Node5&#45;&gt;Node27 -->
<g id="edge51_Node000005_Node000027" class="edge">
<title>Node5&#45;&gt;Node27</title>
<g id="a_edge51_Node000005_Node000027"><a xlink:title=" ">
<path fill="none" stroke="#63b8ff" d="M1157.12,-278.04C1278.44,-272.76 1556.83,-257.74 1589,-230 1622.15,-201.42 1624.68,-172.58 1606,-133 1600.58,-121.5 1591.09,-111.75 1581.19,-103.98"/>
<polygon fill="#63b8ff" stroke="#63b8ff" points="1583.47,-101.31 1573.32,-98.29 1579.38,-106.98 1583.47,-101.31"/>
</a>
</g>
</g>
<!-- Node30 -->
<g id="Node000030" class="node">
<title>Node30</title>
<g id="a_Node000030"><a xlink:href="_copyable_pointer_8h.html" target="_top" xlink:title=" ">
<polygon fill="white" stroke="#666666" points="1461.88,-224.38 1298.12,-224.38 1298.12,-205.12 1461.88,-205.12 1461.88,-224.38"/>
<text text-anchor="middle" x="1380" y="-210.88" font-family="Helvetica,sans-Serif" font-size="10.00">zklang/Support/CopyablePointer.h</text>
</a>
</g>
</g>
<!-- Node5&#45;&gt;Node30 -->
<g id="edge53_Node000005_Node000030" class="edge">
<title>Node5&#45;&gt;Node30</title>
<g id="a_edge53_Node000005_Node000030"><a xlink:title=" ">
<path fill="none" stroke="#63b8ff" d="M1157.46,-267.2C1207.87,-255.54 1281.04,-238.63 1329.54,-227.42"/>
<polygon fill="#63b8ff" stroke="#63b8ff" points="1330.27,-230.84 1339.23,-225.18 1328.69,-224.02 1330.27,-230.84"/>
</a>
</g>
</g>
<!-- Node15&#45;&gt;Node4 -->
<g id="edge27_Node000015_Node000004" class="edge">
<title>Node15&#45;&gt;Node4</title>
<g id="a_edge27_Node000015_Node000004"><a xlink:title=" ">
<path fill="none" stroke="#63b8ff" d="M570.33,-199.09C559.25,-190.1 546.39,-177.63 539,-163.5 517.35,-122.12 514.29,-65.98 514.38,-36.4"/>
<polygon fill="#63b8ff" stroke="#63b8ff" points="517.87,-36.72 514.54,-26.66 510.87,-36.6 517.87,-36.72"/>
</a>
</g>
</g>
<!-- Node15&#45;&gt;Node7 -->
<g id="edge19_Node000015_Node000007" class="edge">
<title>Node15&#45;&gt;Node7</title>
<g id="a_edge19_Node000015_Node000007"><a xlink:title=" ">
<path fill="none" stroke="#63b8ff" d="M625.26,-199.11C650.88,-188.17 685.64,-173.32 710.56,-162.68"/>
<polygon fill="#63b8ff" stroke="#63b8ff" points="711.69,-166 719.52,-158.85 708.94,-159.56 711.69,-166"/>
</a>
</g>
</g>
<!-- Node15&#45;&gt;Node10 -->
<g id="edge24_Node000015_Node000010" class="edge">
<title>Node15&#45;&gt;Node10</title>
<g id="a_edge24_Node000015_Node000010"><a xlink:title=" ">
<path fill="none" stroke="#63b8ff" d="M641.22,-208.95C730.14,-200.37 921.07,-181.62 1082,-163.5 1108.44,-160.52 1138.23,-156.86 1161,-153.99"/>
<polygon fill="#63b8ff" stroke="#63b8ff" points="1161.23,-157.49 1170.72,-152.76 1160.36,-150.54 1161.23,-157.49"/>
</a>
</g>
</g>
<!-- Node15&#45;&gt;Node14 -->
<g id="edge28_Node000015_Node000014" class="edge">
<title>Node15&#45;&gt;Node14</title>
<g id="a_edge28_Node000015_Node000014"><a xlink:title=" ">
<path fill="none" stroke="#63b8ff" d="M601.86,-199.23C619.89,-175.13 655.95,-126.93 675.55,-100.72"/>
<polygon fill="#63b8ff" stroke="#63b8ff" points="678.1,-103.17 681.28,-93.06 672.49,-98.97 678.1,-103.17"/>
</a>
</g>
</g>
<!-- Node16 -->
<g id="Node000016" class="node">
<title>Node16</title>
<g id="a_Node000016"><a xlink:title=" ">
<polygon fill="#e0e0e0" stroke="#999999" points="361.12,-157.88 312.88,-157.88 312.88,-138.62 361.12,-138.62 361.12,-157.88"/>
<text text-anchor="middle" x="337" y="-144.38" font-family="Helvetica,sans-Serif" font-size="10.00">cstddef</text>
</a>
</g>
</g>
<!-- Node15&#45;&gt;Node16 -->
<g id="edge18_Node000015_Node000016" class="edge">
<title>Node15&#45;&gt;Node16</title>
<g id="a_edge18_Node000015_Node000016"><a xlink:title=" ">
<path fill="none" stroke="#63b8ff" d="M540.7,-205.05C495.43,-196.58 427.42,-182.25 370,-163.5 369.01,-163.18 368.02,-162.84 367.01,-162.48"/>
<polygon fill="#63b8ff" stroke="#63b8ff" points="368.31,-159.23 357.72,-158.85 365.76,-165.75 368.31,-159.23"/>
</a>
</g>
</g>
<!-- Node17 -->
<g id="Node000017" class="node">
<title>Node17</title>
<g id="a_Node000017"><a xlink:title=" ">
<polygon fill="#e0e0e0" stroke="#999999" points="486.75,-157.88 379.25,-157.88 379.25,-138.62 486.75,-138.62 486.75,-157.88"/>
<text text-anchor="middle" x="433" y="-144.38" font-family="Helvetica,sans-Serif" font-size="10.00">llvm/ADT/ArrayRef.h</text>
</a>
</g>
</g>
<!-- Node15&#45;&gt;Node17 -->
<g id="edge20_Node000015_Node000017" class="edge">
<title>Node15&#45;&gt;Node17</title>
<g id="a_edge20_Node000015_Node000017"><a xlink:title=" ">
<path fill="none" stroke="#63b8ff" d="M555.15,-199.11C528.22,-188.12 491.64,-173.19 465.55,-162.54"/>
<polygon fill="#63b8ff" stroke="#63b8ff" points="467.05,-159.37 456.47,-158.83 464.41,-165.85 467.05,-159.37"/>
</a>
</g>
</g>
<!-- Node18 -->
<g id="Node000018" class="node">
<title>Node18</title>
<g id="a_Node000018"><a xlink:title=" ">
<polygon fill="#e0e0e0" stroke="#999999" points="898.38,-24.88 779.62,-24.88 779.62,-5.63 898.38,-5.63 898.38,-24.88"/>
<text text-anchor="middle" x="839" y="-11.38" font-family="Helvetica,sans-Serif" font-size="10.00">llvm/ADT/SmallString.h</text>
</a>
</g>
</g>
<!-- Node15&#45;&gt;Node18 -->
<g id="edge21_Node000015_Node000018" class="edge">
<title>Node15&#45;&gt;Node18</title>
<g id="a_edge21_Node000015_Node000018"><a xlink:title=" ">
<path fill="none" stroke="#63b8ff" d="M583.56,-199.23C569.92,-170.33 545.1,-105.1 577,-66.5 600.83,-37.67 698.87,-25.22 768,-19.95"/>
<polygon fill="#63b8ff" stroke="#63b8ff" points="768.03,-23.46 777.75,-19.25 767.53,-16.48 768.03,-23.46"/>
</a>
</g>
</g>
<!-- Node19 -->
<g id="Node000019" class="node">
<title>Node19</title>
<g id="a_Node000019"><a xlink:title=" ">
<polygon fill="#e0e0e0" stroke="#999999" points="175.5,-157.88 66.5,-157.88 66.5,-138.62 175.5,-138.62 175.5,-157.88"/>
<text text-anchor="middle" x="121" y="-144.38" font-family="Helvetica,sans-Serif" font-size="10.00">llvm/ADT/StringSet.h</text>
</a>
</g>
</g>
<!-- Node15&#45;&gt;Node19 -->
<g id="edge22_Node000015_Node000019" class="edge">
<title>Node15&#45;&gt;Node19</title>
<g id="a_edge22_Node000015_Node000019"><a xlink:title=" ">
<path fill="none" stroke="#63b8ff" d="M540.64,-209.16C463.51,-201.77 311.65,-185.76 184,-163.5 179.15,-162.65 174.1,-161.68 169.08,-160.64"/>
<polygon fill="#63b8ff" stroke="#63b8ff" points="170.18,-157.3 159.67,-158.62 168.71,-164.14 170.18,-157.3"/>
</a>
</g>
</g>
<!-- Node20 -->
<g id="Node000020" class="node">
<title>Node20</title>
<g id="a_Node000020"><a xlink:title=" ">
<polygon fill="#e0e0e0" stroke="#999999" points="1474.62,-91.38 1357.38,-91.38 1357.38,-72.12 1474.62,-72.12 1474.62,-91.38"/>
<text text-anchor="middle" x="1416" y="-77.88" font-family="Helvetica,sans-Serif" font-size="10.00">llvm/ADT/simple_ilist.h</text>
</a>
</g>
</g>
<!-- Node15&#45;&gt;Node20 -->
<g id="edge23_Node000015_Node000020" class="edge">
<title>Node15&#45;&gt;Node20</title>
<g id="a_edge23_Node000015_Node000020"><a xlink:title=" ">
<path fill="none" stroke="#63b8ff" d="M641.28,-209.03C720.27,-201.32 878.12,-184.75 1011,-163.5 1079.04,-152.62 1095.41,-146.36 1163,-133 1245.18,-116.76 1265.89,-113.59 1348,-97 1352.59,-96.07 1357.35,-95.1 1362.12,-94.11"/>
<polygon fill="#63b8ff" stroke="#63b8ff" points="1362.65,-97.58 1371.73,-92.12 1361.23,-90.73 1362.65,-97.58"/>
</a>
</g>
</g>
<!-- Node21 -->
<g id="Node000021" class="node">
<title>Node21</title>
<g id="a_Node000021"><a xlink:title=" ">
<polygon fill="#e0e0e0" stroke="#999999" points="294.75,-157.88 193.25,-157.88 193.25,-138.62 294.75,-138.62 294.75,-157.88"/>
<text text-anchor="middle" x="244" y="-144.38" font-family="Helvetica,sans-Serif" font-size="10.00">mlir/IR/AffineExpr.h</text>
</a>
</g>
</g>
<!-- Node15&#45;&gt;Node21 -->
<g id="edge25_Node000015_Node000021" class="edge">
<title>Node15&#45;&gt;Node21</title>
<g id="a_edge25_Node000015_Node000021"><a xlink:title=" ">
<path fill="none" stroke="#63b8ff" d="M540.54,-205.85C483.08,-196.64 386.49,-180.5 304,-163.5 299.99,-162.67 295.84,-161.78 291.68,-160.85"/>
<polygon fill="#63b8ff" stroke="#63b8ff" points="292.73,-157.5 282.21,-158.68 291.17,-164.32 292.73,-157.5"/>
</a>
</g>
</g>
<!-- Node22 -->
<g id="Node000022" class="node">
<title>Node22</title>
<g id="a_Node000022"><a xlink:title=" ">
<polygon fill="#e0e0e0" stroke="#999999" points="1278.25,-24.88 1179.75,-24.88 1179.75,-5.63 1278.25,-5.63 1278.25,-24.88"/>
<text text-anchor="middle" x="1229" y="-11.38" font-family="Helvetica,sans-Serif" font-size="10.00">mlir/IR/Attributes.h</text>
</a>
</g>
</g>
<!-- Node15&#45;&gt;Node22 -->
<g id="edge26_Node000015_Node000022" class="edge">
<title>Node15&#45;&gt;Node22</title>
<g id="a_edge26_Node000015_Node000022"><a xlink:title=" ">
<path fill="none" stroke="#63b8ff" d="M587.73,-199.01C582.07,-169.12 574.29,-101.28 611,-66.5 631.04,-47.51 1015.85,-26.69 1167.92,-19.16"/>
<polygon fill="#63b8ff" stroke="#63b8ff" points="1167.99,-22.66 1177.81,-18.68 1167.65,-15.67 1167.99,-22.66"/>
</a>
</g>
</g>
<!-- Node15&#45;&gt;Node23 -->
<g id="edge29_Node000015_Node000023" class="edge">
<title>Node15&#45;&gt;Node23</title>
<g id="a_edge29_Node000015_Node000023"><a xlink:title=" ">
<path fill="none" stroke="#63b8ff" d="M641.2,-204.78C706.34,-193.14 819.99,-172.84 890.32,-160.27"/>
<polygon fill="#63b8ff" stroke="#63b8ff" points="890.93,-163.72 900.16,-158.51 889.7,-156.83 890.93,-163.72"/>
</a>
</g>
</g>
<!-- Node23&#45;&gt;Node2 -->
<g id="edge31_Node000023_Node000002" class="edge">
<title>Node23&#45;&gt;Node2</title>
<g id="a_edge31_Node000023_Node000002"><a xlink:title=" ">
<path fill="none" stroke="#63b8ff" d="M1002.29,-143.79C1145.14,-133.91 1546.89,-105.71 1606,-97 1611.36,-96.21 1616.94,-95.23 1622.48,-94.16"/>
<polygon fill="#63b8ff" stroke="#63b8ff" points="1623.12,-97.6 1632.22,-92.16 1621.72,-90.74 1623.12,-97.6"/>
</a>
</g>
</g>
<!-- Node23&#45;&gt;Node3 -->
<g id="edge32_Node000023_Node000003" class="edge">
<title>Node23&#45;&gt;Node3</title>
<g id="a_edge32_Node000023_Node000003"><a xlink:title=" ">
<path fill="none" stroke="#63b8ff" d="M1002.3,-143.79C1045.05,-140.86 1108.04,-136.58 1163,-133 1417.63,-116.4 1483.36,-132.84 1736,-97 1741.56,-96.21 1747.36,-95.2 1753.09,-94.07"/>
<polygon fill="#63b8ff" stroke="#63b8ff" points="1753.41,-97.58 1762.48,-92.12 1751.98,-90.73 1753.41,-97.58"/>
</a>
</g>
</g>
<!-- Node23&#45;&gt;Node4 -->
<g id="edge37_Node000023_Node000004" class="edge">
<title>Node23&#45;&gt;Node4</title>
<g id="a_edge37_Node000023_Node000004"><a xlink:title=" ">
<path fill="none" stroke="#63b8ff" d="M973.49,-132.64C995.8,-115.73 1024.99,-87.53 1006,-66.5 991.86,-50.83 708.57,-29.51 578.86,-20.52"/>
<polygon fill="#63b8ff" stroke="#63b8ff" points="579.27,-17.04 569.06,-19.85 578.79,-24.03 579.27,-17.04"/>
</a>
</g>
</g>
<!-- Node23&#45;&gt;Node6 -->
<g id="edge30_Node000023_Node000006" class="edge">
<title>Node23&#45;&gt;Node6</title>
<g id="a_edge30_Node000023_Node000006"><a xlink:title=" ">
<path fill="none" stroke="#63b8ff" d="M1002.45,-139.91C1091.55,-126.91 1268.7,-100.82 1282,-97 1283.35,-96.61 1284.72,-96.18 1286.09,-95.72"/>
<polygon fill="#63b8ff" stroke="#63b8ff" points="1286.96,-99.14 1295.05,-92.29 1284.46,-92.6 1286.96,-99.14"/>
</a>
</g>
</g>
<!-- Node23&#45;&gt;Node9 -->
<g id="edge33_Node000023_Node000009" class="edge">
<title>Node23&#45;&gt;Node9</title>
<g id="a_edge33_Node000023_Node000009"><a xlink:title=" ">
<path fill="none" stroke="#63b8ff" d="M924.77,-132.61C905.05,-122.01 878.52,-107.75 858.88,-97.2"/>
<polygon fill="#63b8ff" stroke="#63b8ff" points="860.56,-94.13 850.1,-92.48 857.25,-100.29 860.56,-94.13"/>
</a>
</g>
</g>
<!-- Node23&#45;&gt;Node11 -->
<g id="edge34_Node000023_Node000011" class="edge">
<title>Node23&#45;&gt;Node11</title>
<g id="a_edge34_Node000023_Node000011"><a xlink:title=" ">
<path fill="none" stroke="#63b8ff" d="M951.77,-132.61C951.64,-123.83 951.46,-112.52 951.31,-102.9"/>
<polygon fill="#63b8ff" stroke="#63b8ff" points="954.81,-103.03 951.16,-93.09 947.82,-103.14 954.81,-103.03"/>
</a>
</g>
</g>
<!-- Node23&#45;&gt;Node12 -->
<g id="edge35_Node000023_Node000012" class="edge">
<title>Node23&#45;&gt;Node12</title>
<g id="a_edge35_Node000023_Node000012"><a xlink:title=" ">
<path fill="none" stroke="#63b8ff" d="M987.17,-132.61C1013.47,-121.67 1049.15,-106.82 1074.72,-96.18"/>
<polygon fill="#63b8ff" stroke="#63b8ff" points="1076.06,-99.41 1083.95,-92.34 1073.37,-92.95 1076.06,-99.41"/>
</a>
</g>
</g>
<!-- Node23&#45;&gt;Node13 -->
<g id="edge36_Node000023_Node000013" class="edge">
<title>Node23&#45;&gt;Node13</title>
<g id="a_edge36_Node000023_Node000013"><a xlink:title=" ">
<path fill="none" stroke="#63b8ff" d="M1002.3,-136C1046.53,-126.02 1112.63,-110.91 1170,-97 1173.15,-96.24 1176.4,-95.44 1179.68,-94.62"/>
<polygon fill="#63b8ff" stroke="#63b8ff" points="1180.46,-98.04 1189.31,-92.21 1178.76,-91.25 1180.46,-98.04"/>
</a>
</g>
</g>
<!-- Node23&#45;&gt;Node14 -->
<g id="edge38_Node000023_Node000014" class="edge">
<title>Node23&#45;&gt;Node14</title>
<g id="a_edge38_Node000023_Node000014"><a xlink:title=" ">
<path fill="none" stroke="#63b8ff" d="M901.6,-134.89C854.2,-123.27 783.74,-105.98 737.1,-94.55"/>
<polygon fill="#63b8ff" stroke="#63b8ff" points="738.09,-91.19 727.55,-92.2 736.42,-97.98 738.09,-91.19"/>
</a>
</g>
</g>
<!-- Node24&#45;&gt;Node10 -->
<g id="edge42_Node000024_Node000010" class="edge">
<title>Node24&#45;&gt;Node10</title>
<g id="a_edge42_Node000024_Node000010"><a xlink:title=" ">
<path fill="none" stroke="#63b8ff" d="M1479.53,-201.25C1476.65,-200.64 1473.79,-200.05 1471,-199.5 1365.58,-178.87 1335.44,-192.48 1232,-163.5 1230.61,-163.11 1229.21,-162.68 1227.8,-162.22"/>
<polygon fill="#63b8ff" stroke="#63b8ff" points="1229.13,-158.98 1218.54,-158.77 1226.69,-165.54 1229.13,-158.98"/>
</a>
</g>
</g>
<!-- Node24&#45;&gt;Node20 -->
<g id="edge40_Node000024_Node000020" class="edge">
<title>Node24&#45;&gt;Node20</title>
<g id="a_edge40_Node000024_Node000020"><a xlink:title=" ">
<path fill="none" stroke="#63b8ff" d="M1479.74,-201.44C1420.11,-186.82 1328.6,-164.27 1328,-163.5 1319.65,-152.82 1321.19,-144.72 1328,-133 1338.02,-115.74 1356.44,-103.91 1373.85,-96.08"/>
<polygon fill="#63b8ff" stroke="#63b8ff" points="1375.16,-99.33 1383.08,-92.29 1372.5,-92.86 1375.16,-99.33"/>
</a>
</g>
</g>
<!-- Node25 -->
<g id="Node000025" class="node">
<title>Node25</title>
<g id="a_Node000025"><a xlink:title=" ">
<polygon fill="#e0e0e0" stroke="#999999" points="1475.12,-157.88 1336.88,-157.88 1336.88,-138.62 1475.12,-138.62 1475.12,-157.88"/>
<text text-anchor="middle" x="1406" y="-144.38" font-family="Helvetica,sans-Serif" font-size="10.00">llvm/Support/raw_ostream.h</text>
</a>
</g>
</g>
<!-- Node24&#45;&gt;Node25 -->
<g id="edge41_Node000024_Node000025" class="edge">
<title>Node24&#45;&gt;Node25</title>
<g id="a_edge41_Node000024_Node000025"><a xlink:title=" ">
<path fill="none" stroke="#63b8ff" d="M1501.86,-199.11C1481.39,-188.46 1453.81,-174.12 1433.49,-163.55"/>
<polygon fill="#63b8ff" stroke="#63b8ff" points="1435.15,-160.47 1424.66,-158.96 1431.92,-166.68 1435.15,-160.47"/>
</a>
</g>
</g>
<!-- Node26 -->
<g id="Node000026" class="node">
<title>Node26</title>
<g id="a_Node000026"><a xlink:href="_frame_info_8h.html" target="_top" xlink:title=" ">
<polygon fill="white" stroke="#666666" points="1596.5,-163.5 1493.5,-163.5 1493.5,-133 1596.5,-133 1596.5,-163.5"/>
<text text-anchor="start" x="1501.5" y="-150" font-family="Helvetica,sans-Serif" font-size="10.00">zklang/Dialect/ZHL</text>
<text text-anchor="middle" x="1545" y="-138.75" font-family="Helvetica,sans-Serif" font-size="10.00">/Typing/FrameInfo.h</text>
</a>
</g>
</g>
<!-- Node24&#45;&gt;Node26 -->
<g id="edge43_Node000024_Node000026" class="edge">
<title>Node24&#45;&gt;Node26</title>
<g id="a_edge43_Node000024_Node000026"><a xlink:title=" ">
<path fill="none" stroke="#63b8ff" d="M1533.4,-199.11C1535.07,-191.94 1537.13,-183.09 1539.05,-174.84"/>
<polygon fill="#63b8ff" stroke="#63b8ff" points="1542.41,-175.84 1541.27,-165.3 1535.59,-174.25 1542.41,-175.84"/>
</a>
</g>
</g>
<!-- Node26&#45;&gt;Node20 -->
<g id="edge44_Node000026_Node000020" class="edge">
<title>Node26&#45;&gt;Node20</title>
<g id="a_edge44_Node000026_Node000020"><a xlink:title=" ">
<path fill="none" stroke="#63b8ff" d="M1515.73,-132.61C1494.33,-121.92 1465.47,-107.49 1444.31,-96.9"/>
<polygon fill="#63b8ff" stroke="#63b8ff" points="1445.88,-93.78 1435.37,-92.44 1442.75,-100.04 1445.88,-93.78"/>
</a>
</g>
</g>
<!-- Node26&#45;&gt;Node27 -->
<g id="edge45_Node000026_Node000027" class="edge">
<title>Node26&#45;&gt;Node27</title>
<g id="a_edge45_Node000026_Node000027"><a xlink:title=" ">
<path fill="none" stroke="#63b8ff" d="M1545,-132.61C1545,-125.52 1545,-116.79 1545,-108.63"/>
<polygon fill="#63b8ff" stroke="#63b8ff" points="1548.5,-108.84 1545,-98.84 1541.5,-108.84 1548.5,-108.84"/>
</a>
</g>
</g>
<!-- Node27&#45;&gt;Node4 -->
<g id="edge50_Node000027_Node000004" class="edge">
<title>Node27&#45;&gt;Node4</title>
<g id="a_edge50_Node000027_Node000004"><a xlink:title=" ">
<path fill="none" stroke="#63b8ff" d="M1492.87,-67.93C1489.88,-67.39 1486.91,-66.91 1484,-66.5 1169.81,-22.23 1087.85,-47.32 771,-30.5 705.5,-27.02 630.59,-22.83 578.8,-19.89"/>
<polygon fill="#63b8ff" stroke="#63b8ff" points="579.15,-16.41 568.97,-19.34 578.75,-23.4 579.15,-16.41"/>
</a>
</g>
</g>
<!-- Node27&#45;&gt;Node18 -->
<g id="edge46_Node000027_Node000018" class="edge">
<title>Node27&#45;&gt;Node18</title>
<g id="a_edge46_Node000027_Node000018"><a xlink:title=" ">
<path fill="none" stroke="#63b8ff" d="M1492.86,-68.02C1489.87,-67.46 1486.9,-66.95 1484,-66.5 1276.95,-34.44 1029.18,-22.42 909.96,-18.26"/>
<polygon fill="#63b8ff" stroke="#63b8ff" points="910.11,-14.76 900,-17.92 909.87,-21.76 910.11,-14.76"/>
</a>
</g>
</g>
<!-- Node27&#45;&gt;Node22 -->
<g id="edge49_Node000027_Node000022" class="edge">
<title>Node27&#45;&gt;Node22</title>
<g id="a_edge49_Node000027_Node000022"><a xlink:title=" ">
<path fill="none" stroke="#63b8ff" d="M1492.78,-68.43C1489.81,-67.76 1486.87,-67.12 1484,-66.5 1417.36,-52.15 1340.57,-37.24 1288.81,-27.43"/>
<polygon fill="#63b8ff" stroke="#63b8ff" points="1289.48,-23.99 1279,-25.57 1288.18,-30.87 1289.48,-23.99"/>
</a>
</g>
</g>
<!-- Node28 -->
<g id="Node000028" class="node">
<title>Node28</title>
<g id="a_Node000028"><a xlink:title=" ">
<polygon fill="#e0e0e0" stroke="#999999" points="1537.88,-24.88 1428.12,-24.88 1428.12,-5.63 1537.88,-5.63 1537.88,-24.88"/>
<text text-anchor="middle" x="1483" y="-11.38" font-family="Helvetica,sans-Serif" font-size="10.00">llvm/ADT/ilist_node.h</text>
</a>
</g>
</g>
<!-- Node27&#45;&gt;Node28 -->
<g id="edge47_Node000027_Node000028" class="edge">
<title>Node27&#45;&gt;Node28</title>
<g id="a_edge47_Node000027_Node000028"><a xlink:title=" ">
<path fill="none" stroke="#63b8ff" d="M1530.93,-66.11C1521.54,-56.34 1509.15,-43.45 1499.32,-33.23"/>
<polygon fill="#63b8ff" stroke="#63b8ff" points="1501.98,-30.95 1492.53,-26.16 1496.94,-35.8 1501.98,-30.95"/>
</a>
</g>
</g>
<!-- Node29 -->
<g id="Node000029" class="node">
<title>Node29</title>
<g id="a_Node000029"><a xlink:title=" ">
<polygon fill="#e0e0e0" stroke="#999999" points="1657.75,-30.5 1556.25,-30.5 1556.25,0 1657.75,0 1657.75,-30.5"/>
<text text-anchor="start" x="1564.25" y="-17" font-family="Helvetica,sans-Serif" font-size="10.00">llvm/ADT/ilist_node</text>
<text text-anchor="middle" x="1607" y="-5.75" font-family="Helvetica,sans-Serif" font-size="10.00">_options.h</text>
</a>
</g>
</g>
<!-- Node27&#45;&gt;Node29 -->
<g id="edge48_Node000027_Node000029" class="edge">
<title>Node27&#45;&gt;Node29</title>
<g id="a_edge48_Node000027_Node000029"><a xlink:title=" ">
<path fill="none" stroke="#63b8ff" d="M1559.07,-66.11C1566.76,-58.11 1576.45,-48.03 1585.11,-39.03"/>
<polygon fill="#63b8ff" stroke="#63b8ff" points="1587.53,-41.55 1591.94,-31.92 1582.48,-36.7 1587.53,-41.55"/>
</a>
</g>
</g>
<!-- Node31 -->
<g id="Node000031" class="node">
<title>Node31</title>
<g id="a_Node000031"><a xlink:title=" ">
<polygon fill="#e0e0e0" stroke="#999999" points="1280.62,-157.88 1241.38,-157.88 1241.38,-138.62 1280.62,-138.62 1280.62,-157.88"/>
<text text-anchor="middle" x="1261" y="-144.38" font-family="Helvetica,sans-Serif" font-size="10.00">utility</text>
</a>
</g>
</g>
<!-- Node30&#45;&gt;Node31 -->
<g id="edge54_Node000030_Node000031" class="edge">
<title>Node30&#45;&gt;Node31</title>
<g id="a_edge54_Node000030_Node000031"><a xlink:title=" ">
<path fill="none" stroke="#63b8ff" d="M1363.2,-204.65C1343.53,-193.99 1310.71,-176.19 1287.58,-163.66"/>
<polygon fill="#63b8ff" stroke="#63b8ff" points="1289.5,-160.72 1279.04,-159.03 1286.17,-166.87 1289.5,-160.72"/>
</a>
</g>
</g>
</g>
</svg>
