<?xml version="1.0" encoding="UTF-8" standalone="no"?>
<!DOCTYPE svg PUBLIC "-//W3C//DTD SVG 1.1//EN"
 "http://www.w3.org/Graphics/SVG/1.1/DTD/svg11.dtd">
<!-- Generated by graphviz version 12.2.1 (20241206.2353)
 -->
<!-- Title: include/zklang/Dialect/ZHL/Typing/ParamsStorage.h Pages: 1 -->
<svg width="2774pt" height="305pt"
 viewBox="0.00 0.00 2774.25 304.50" xmlns="http://www.w3.org/2000/svg" xmlns:xlink="http://www.w3.org/1999/xlink">
<g id="graph0" class="graph" transform="scale(1 1) rotate(0) translate(4 300.5)">
<title>include/zklang/Dialect/ZHL/Typing/ParamsStorage.h</title>
<!-- Node1 -->
<g id="Node000001" class="node">
<title>Node1</title>
<g id="a_Node000001"><a xlink:title=" ">
<polygon fill="#999999" stroke="#666666" points="1496.38,-296.5 1348.38,-296.5 1348.38,-266 1496.38,-266 1496.38,-296.5"/>
<text text-anchor="start" x="1356.38" y="-283" font-family="Helvetica,sans-Serif" font-size="10.00">include/zklang/Dialect</text>
<text text-anchor="middle" x="1422.38" y="-271.75" font-family="Helvetica,sans-Serif" font-size="10.00">/ZHL/Typing/ParamsStorage.h</text>
</a>
</g>
</g>
<!-- Node2 -->
<g id="Node000002" class="node">
<title>Node2</title>
<g id="a_Node000002"><a xlink:href="_scope_8h.html" target="_top" xlink:title=" ">
<polygon fill="white" stroke="#666666" points="327.38,-230 215.38,-230 215.38,-199.5 327.38,-199.5 327.38,-230"/>
<text text-anchor="start" x="223.38" y="-216.5" font-family="Helvetica,sans-Serif" font-size="10.00">include/zklang/Dialect</text>
<text text-anchor="middle" x="271.38" y="-205.25" font-family="Helvetica,sans-Serif" font-size="10.00">/ZHL/Typing/Scope.h</text>
</a>
</g>
</g>
<!-- Node1&#45;&gt;Node2 -->
<g id="edge1_Node000001_Node000002" class="edge">
<title>Node1&#45;&gt;Node2</title>
<g id="a_edge1_Node000001_Node000002"><a xlink:title=" ">
<path fill="none" stroke="#63b8ff" d="M1336.86,-278.17C1115.81,-272.49 529.27,-255.42 336.38,-230 333.51,-229.62 330.59,-229.18 327.64,-228.7"/>
<polygon fill="#63b8ff" stroke="#63b8ff" points="1336.46,-281.66 1346.55,-278.42 1336.64,-274.66 1336.46,-281.66"/>
</a>
</g>
</g>
<!-- Node10 -->
<g id="Node000010" class="node">
<title>Node10</title>
<g id="a_Node000010"><a xlink:href="_expr_8cpp.html" target="_top" xlink:title=" ">
<polygon fill="white" stroke="#666666" points="457.75,-230 345,-230 345,-199.5 457.75,-199.5 457.75,-230"/>
<text text-anchor="start" x="353" y="-216.5" font-family="Helvetica,sans-Serif" font-size="10.00">lib/Dialect/ZHL/Typing</text>
<text text-anchor="middle" x="401.38" y="-205.25" font-family="Helvetica,sans-Serif" font-size="10.00">/Expr.cpp</text>
</a>
</g>
</g>
<!-- Node1&#45;&gt;Node10 -->
<g id="edge12_Node000001_Node000010" class="edge">
<title>Node1&#45;&gt;Node10</title>
<g id="a_edge12_Node000001_Node000010"><a xlink:title=" ">
<path fill="none" stroke="#63b8ff" d="M1336.55,-280.32C1168.79,-279.46 785.95,-272.49 467.38,-230 464.35,-229.6 461.27,-229.13 458.16,-228.61"/>
<polygon fill="#63b8ff" stroke="#63b8ff" points="1336.48,-283.82 1346.5,-280.37 1336.51,-276.82 1336.48,-283.82"/>
</a>
</g>
</g>
<!-- Node11 -->
<g id="Node000011" class="node">
<title>Node11</title>
<g id="a_Node000011"><a xlink:href="_frame_8cpp.html" target="_top" xlink:title=" ">
<polygon fill="white" stroke="#666666" points="588.75,-230 476,-230 476,-199.5 588.75,-199.5 588.75,-230"/>
<text text-anchor="start" x="484" y="-216.5" font-family="Helvetica,sans-Serif" font-size="10.00">lib/Dialect/ZHL/Typing</text>
<text text-anchor="middle" x="532.38" y="-205.25" font-family="Helvetica,sans-Serif" font-size="10.00">/Frame.cpp</text>
</a>
</g>
</g>
<!-- Node1&#45;&gt;Node11 -->
<g id="edge13_Node000001_Node000011" class="edge">
<title>Node1&#45;&gt;Node11</title>
<g id="a_edge13_Node000001_Node000011"><a xlink:title=" ">
<path fill="none" stroke="#63b8ff" d="M1336.75,-279.3C1186.56,-276.68 866.14,-266.85 598.38,-230 595.36,-229.58 592.27,-229.11 589.16,-228.58"/>
<polygon fill="#63b8ff" stroke="#63b8ff" points="1336.57,-282.8 1346.63,-279.46 1336.69,-275.8 1336.57,-282.8"/>
</a>
</g>
</g>
<!-- Node12 -->
<g id="Node000012" class="node">
<title>Node12</title>
<g id="a_Node000012"><a xlink:href="_interpreter_8cpp.html" target="_top" xlink:title=" ">
<polygon fill="white" stroke="#666666" points="719.75,-230 607,-230 607,-199.5 719.75,-199.5 719.75,-230"/>
<text text-anchor="start" x="615" y="-216.5" font-family="Helvetica,sans-Serif" font-size="10.00">lib/Dialect/ZHL/Typing</text>
<text text-anchor="middle" x="663.38" y="-205.25" font-family="Helvetica,sans-Serif" font-size="10.00">/Interpreter.cpp</text>
</a>
</g>
</g>
<!-- Node1&#45;&gt;Node12 -->
<g id="edge14_Node000001_Node000012" class="edge">
<title>Node1&#45;&gt;Node12</title>
<g id="a_edge14_Node000001_Node000012"><a xlink:title=" ">
<path fill="none" stroke="#63b8ff" d="M1336.76,-277.9C1205.47,-273.43 946.77,-261.19 729.38,-230 726.36,-229.57 723.27,-229.08 720.17,-228.54"/>
<polygon fill="#63b8ff" stroke="#63b8ff" points="1336.29,-281.39 1346.4,-278.22 1336.52,-274.39 1336.29,-281.39"/>
</a>
</g>
</g>
<!-- Node13 -->
<g id="Node000013" class="node">
<title>Node13</title>
<g id="a_Node000013"><a xlink:href="_op_bindings_8cpp.html" target="_top" xlink:title=" ">
<polygon fill="white" stroke="#666666" points="850.75,-230 738,-230 738,-199.5 850.75,-199.5 850.75,-230"/>
<text text-anchor="start" x="746" y="-216.5" font-family="Helvetica,sans-Serif" font-size="10.00">lib/Dialect/ZHL/Typing</text>
<text text-anchor="middle" x="794.38" y="-205.25" font-family="Helvetica,sans-Serif" font-size="10.00">/OpBindings.cpp</text>
</a>
</g>
</g>
<!-- Node1&#45;&gt;Node13 -->
<g id="edge15_Node000001_Node000013" class="edge">
<title>Node1&#45;&gt;Node13</title>
<g id="a_edge15_Node000001_Node000013"><a xlink:title=" ">
<path fill="none" stroke="#63b8ff" d="M1336.53,-275.88C1225.95,-269.49 1028.04,-255.5 860.38,-230 857.36,-229.54 854.28,-229.03 851.17,-228.48"/>
<polygon fill="#63b8ff" stroke="#63b8ff" points="1336.24,-279.37 1346.42,-276.44 1336.64,-272.38 1336.24,-279.37"/>
</a>
</g>
</g>
<!-- Node14 -->
<g id="Node000014" class="node">
<title>Node14</title>
<g id="a_Node000014"><a xlink:href="_params_8cpp.html" target="_top" xlink:title=" ">
<polygon fill="white" stroke="#666666" points="981.75,-230 869,-230 869,-199.5 981.75,-199.5 981.75,-230"/>
<text text-anchor="start" x="877" y="-216.5" font-family="Helvetica,sans-Serif" font-size="10.00">lib/Dialect/ZHL/Typing</text>
<text text-anchor="middle" x="925.38" y="-205.25" font-family="Helvetica,sans-Serif" font-size="10.00">/Params.cpp</text>
</a>
</g>
</g>
<!-- Node1&#45;&gt;Node14 -->
<g id="edge16_Node000001_Node000014" class="edge">
<title>Node1&#45;&gt;Node14</title>
<g id="a_edge16_Node000001_Node000014"><a xlink:title=" ">
<path fill="none" stroke="#63b8ff" d="M1336.66,-272.72C1249.44,-264.48 1110.51,-249.76 991.38,-230 988.37,-229.5 985.29,-228.96 982.19,-228.38"/>
<polygon fill="#63b8ff" stroke="#63b8ff" points="1336.3,-276.2 1346.59,-273.65 1336.96,-269.23 1336.3,-276.2"/>
</a>
</g>
</g>
<!-- Node15 -->
<g id="Node000015" class="node">
<title>Node15</title>
<g id="a_Node000015"><a xlink:href="_type_binding_8cpp.html" target="_top" xlink:title=" ">
<polygon fill="white" stroke="#666666" points="1112.75,-230 1000,-230 1000,-199.5 1112.75,-199.5 1112.75,-230"/>
<text text-anchor="start" x="1008" y="-216.5" font-family="Helvetica,sans-Serif" font-size="10.00">lib/Dialect/ZHL/Typing</text>
<text text-anchor="middle" x="1056.38" y="-205.25" font-family="Helvetica,sans-Serif" font-size="10.00">/TypeBinding.cpp</text>
</a>
</g>
</g>
<!-- Node1&#45;&gt;Node15 -->
<g id="edge17_Node000001_Node000015" class="edge">
<title>Node1&#45;&gt;Node15</title>
<g id="a_edge17_Node000001_Node000015"><a xlink:title=" ">
<path fill="none" stroke="#63b8ff" d="M1336.97,-267.17C1276.6,-257.63 1193.85,-243.99 1121.38,-230 1118.65,-229.47 1115.87,-228.92 1113.06,-228.35"/>
<polygon fill="#63b8ff" stroke="#63b8ff" points="1336.05,-270.57 1346.47,-268.66 1337.14,-263.65 1336.05,-270.57"/>
</a>
</g>
</g>
<!-- Node16 -->
<g id="Node000016" class="node">
<title>Node16</title>
<g id="a_Node000016"><a xlink:href="_type_binding_specialization_8cpp.html" target="_top" xlink:title=" ">
<polygon fill="white" stroke="#666666" points="1282.25,-230 1130.5,-230 1130.5,-199.5 1282.25,-199.5 1282.25,-230"/>
<text text-anchor="start" x="1138.5" y="-216.5" font-family="Helvetica,sans-Serif" font-size="10.00">lib/Dialect/ZHL/Typing</text>
<text text-anchor="middle" x="1206.38" y="-205.25" font-family="Helvetica,sans-Serif" font-size="10.00">/TypeBindingSpecialization.cpp</text>
</a>
</g>
</g>
<!-- Node1&#45;&gt;Node16 -->
<g id="edge18_Node000001_Node000016" class="edge">
<title>Node1&#45;&gt;Node16</title>
<g id="a_edge18_Node000001_Node000016"><a xlink:title=" ">
<path fill="none" stroke="#63b8ff" d="M1362.45,-262.35C1328.75,-252.29 1287.2,-239.89 1255.45,-230.4"/>
<polygon fill="#63b8ff" stroke="#63b8ff" points="1361.06,-265.59 1371.64,-265.1 1363.06,-258.89 1361.06,-265.59"/>
</a>
</g>
</g>
<!-- Node17 -->
<g id="Node000017" class="node">
<title>Node17</title>
<g id="a_Node000017"><a xlink:href="_type_bindings_8cpp.html" target="_top" xlink:title=" ">
<polygon fill="white" stroke="#666666" points="1412.75,-230 1300,-230 1300,-199.5 1412.75,-199.5 1412.75,-230"/>
<text text-anchor="start" x="1308" y="-216.5" font-family="Helvetica,sans-Serif" font-size="10.00">lib/Dialect/ZHL/Typing</text>
<text text-anchor="middle" x="1356.38" y="-205.25" font-family="Helvetica,sans-Serif" font-size="10.00">/TypeBindings.cpp</text>
</a>
</g>
</g>
<!-- Node1&#45;&gt;Node17 -->
<g id="edge19_Node000001_Node000017" class="edge">
<title>Node1&#45;&gt;Node17</title>
<g id="a_edge19_Node000001_Node000017"><a xlink:title=" ">
<path fill="none" stroke="#63b8ff" d="M1399.29,-257.69C1390,-248.61 1379.55,-238.4 1371.29,-230.33"/>
<polygon fill="#63b8ff" stroke="#63b8ff" points="1396.72,-260.07 1406.32,-264.56 1401.61,-255.06 1396.72,-260.07"/>
</a>
</g>
</g>
<!-- Node18 -->
<g id="Node000018" class="node">
<title>Node18</title>
<g id="a_Node000018"><a xlink:href="_built_ins_8cpp.html" target="_top" xlink:title=" ">
<polygon fill="white" stroke="#666666" points="1548.38,-230 1430.38,-230 1430.38,-199.5 1548.38,-199.5 1548.38,-230"/>
<text text-anchor="start" x="1438.38" y="-216.5" font-family="Helvetica,sans-Serif" font-size="10.00">lib/Dialect/ZML/BuiltIns</text>
<text text-anchor="middle" x="1489.38" y="-205.25" font-family="Helvetica,sans-Serif" font-size="10.00">/BuiltIns.cpp</text>
</a>
</g>
</g>
<!-- Node1&#45;&gt;Node18 -->
<g id="edge20_Node000001_Node000018" class="edge">
<title>Node1&#45;&gt;Node18</title>
<g id="a_edge20_Node000001_Node000018"><a xlink:title=" ">
<path fill="none" stroke="#63b8ff" d="M1445.81,-257.69C1455.24,-248.61 1465.85,-238.4 1474.23,-230.33"/>
<polygon fill="#63b8ff" stroke="#63b8ff" points="1443.45,-255.11 1438.67,-264.56 1448.3,-260.15 1443.45,-255.11"/>
</a>
</g>
</g>
<!-- Node19 -->
<g id="Node000019" class="node">
<title>Node19</title>
<g id="a_Node000019"><a xlink:href="_helpers_8cpp.html" target="_top" xlink:title=" ">
<polygon fill="white" stroke="#666666" points="1704.12,-224.38 1566.62,-224.38 1566.62,-205.12 1704.12,-205.12 1704.12,-224.38"/>
<text text-anchor="middle" x="1635.38" y="-210.88" font-family="Helvetica,sans-Serif" font-size="10.00">lib/Dialect/ZML/Helpers.cpp</text>
</a>
</g>
</g>
<!-- Node1&#45;&gt;Node19 -->
<g id="edge21_Node000001_Node000019" class="edge">
<title>Node1&#45;&gt;Node19</title>
<g id="a_edge21_Node000001_Node000019"><a xlink:title=" ">
<path fill="none" stroke="#63b8ff" d="M1481.99,-262.2C1522.17,-250.03 1573.48,-234.49 1605.39,-224.83"/>
<polygon fill="#63b8ff" stroke="#63b8ff" points="1480.98,-258.85 1472.42,-265.09 1483.01,-265.55 1480.98,-258.85"/>
</a>
</g>
</g>
<!-- Node20 -->
<g id="Node000020" class="node">
<title>Node20</title>
<g id="a_Node000020"><a xlink:href="_inject_built_ins_8cpp.html" target="_top" xlink:title=" ">
<polygon fill="white" stroke="#666666" points="1856.62,-230 1722.12,-230 1722.12,-199.5 1856.62,-199.5 1856.62,-230"/>
<text text-anchor="start" x="1730.12" y="-216.5" font-family="Helvetica,sans-Serif" font-size="10.00">lib/Dialect/ZML/Transforms</text>
<text text-anchor="middle" x="1789.38" y="-205.25" font-family="Helvetica,sans-Serif" font-size="10.00">/InjectBuiltIns.cpp</text>
</a>
</g>
</g>
<!-- Node1&#45;&gt;Node20 -->
<g id="edge22_Node000001_Node000020" class="edge">
<title>Node1&#45;&gt;Node20</title>
<g id="a_edge22_Node000001_Node000020"><a xlink:title=" ">
<path fill="none" stroke="#63b8ff" d="M1507.9,-265.81C1565.91,-255.94 1644.31,-242.44 1713.38,-230 1716.15,-229.5 1718.98,-228.99 1721.84,-228.46"/>
<polygon fill="#63b8ff" stroke="#63b8ff" points="1507.35,-262.36 1498.07,-267.48 1508.52,-269.26 1507.35,-262.36"/>
</a>
</g>
</g>
<!-- Node21 -->
<g id="Node000021" class="node">
<title>Node21</title>
<g id="a_Node000021"><a xlink:href="_lower_built_ins_8cpp.html" target="_top" xlink:title=" ">
<polygon fill="white" stroke="#666666" points="2009.62,-230 1875.12,-230 1875.12,-199.5 2009.62,-199.5 2009.62,-230"/>
<text text-anchor="start" x="1883.12" y="-216.5" font-family="Helvetica,sans-Serif" font-size="10.00">lib/Dialect/ZML/Transforms</text>
<text text-anchor="middle" x="1942.38" y="-205.25" font-family="Helvetica,sans-Serif" font-size="10.00">/LowerBuiltIns.cpp</text>
</a>
</g>
</g>
<!-- Node1&#45;&gt;Node21 -->
<g id="edge23_Node000001_Node000021" class="edge">
<title>Node1&#45;&gt;Node21</title>
<g id="a_edge23_Node000001_Node000021"><a xlink:title=" ">
<path fill="none" stroke="#63b8ff" d="M1508.09,-272.32C1597.5,-263.64 1741.61,-248.45 1865.38,-230 1868.47,-229.54 1871.63,-229.05 1874.81,-228.53"/>
<polygon fill="#63b8ff" stroke="#63b8ff" points="1507.78,-268.84 1498.16,-273.28 1508.45,-275.81 1507.78,-268.84"/>
</a>
</g>
</g>
<!-- Node22 -->
<g id="Node000022" class="node">
<title>Node22</title>
<g id="a_Node000022"><a xlink:href="_remove_built_ins_8cpp.html" target="_top" xlink:title=" ">
<polygon fill="white" stroke="#666666" points="2162.62,-230 2028.12,-230 2028.12,-199.5 2162.62,-199.5 2162.62,-230"/>
<text text-anchor="start" x="2036.12" y="-216.5" font-family="Helvetica,sans-Serif" font-size="10.00">lib/Dialect/ZML/Transforms</text>
<text text-anchor="middle" x="2095.38" y="-205.25" font-family="Helvetica,sans-Serif" font-size="10.00">/RemoveBuiltIns.cpp</text>
</a>
</g>
</g>
<!-- Node1&#45;&gt;Node22 -->
<g id="edge24_Node000001_Node000022" class="edge">
<title>Node1&#45;&gt;Node22</title>
<g id="a_edge24_Node000001_Node000022"><a xlink:title=" ">
<path fill="none" stroke="#63b8ff" d="M1507.75,-275.71C1623.73,-268.94 1837.36,-254.32 2018.38,-230 2021.47,-229.58 2024.64,-229.13 2027.83,-228.64"/>
<polygon fill="#63b8ff" stroke="#63b8ff" points="1507.79,-272.2 1498.01,-276.28 1508.19,-279.19 1507.79,-272.2"/>
</a>
</g>
</g>
<!-- Node23 -->
<g id="Node000023" class="node">
<title>Node23</title>
<g id="a_Node000023"><a xlink:href="_materialize_8cpp.html" target="_top" xlink:title=" ">
<polygon fill="white" stroke="#666666" points="2294.12,-230 2180.62,-230 2180.62,-199.5 2294.12,-199.5 2294.12,-230"/>
<text text-anchor="start" x="2188.62" y="-216.5" font-family="Helvetica,sans-Serif" font-size="10.00">lib/Dialect/ZML/Typing</text>
<text text-anchor="middle" x="2237.38" y="-205.25" font-family="Helvetica,sans-Serif" font-size="10.00">/Materialize.cpp</text>
</a>
</g>
</g>
<!-- Node1&#45;&gt;Node23 -->
<g id="edge25_Node000001_Node000023" class="edge">
<title>Node1&#45;&gt;Node23</title>
<g id="a_edge25_Node000001_Node000023"><a xlink:title=" ">
<path fill="none" stroke="#63b8ff" d="M1508.05,-278.55C1647.64,-274.89 1932.56,-263.61 2171.38,-230 2174.28,-229.59 2177.24,-229.13 2180.23,-228.62"/>
<polygon fill="#63b8ff" stroke="#63b8ff" points="1508.05,-275.05 1498.14,-278.81 1508.23,-282.05 1508.05,-275.05"/>
</a>
</g>
</g>
<!-- Node24 -->
<g id="Node000024" class="node">
<title>Node24</title>
<g id="a_Node000024"><a xlink:href="_driver_8cpp.html" target="_top" xlink:title=" ">
<polygon fill="white" stroke="#666666" points="2450.88,-224.38 2311.88,-224.38 2311.88,-205.12 2450.88,-205.12 2450.88,-224.38"/>
<text text-anchor="middle" x="2381.38" y="-210.88" font-family="Helvetica,sans-Serif" font-size="10.00">lib/Frontends/ZIR/Driver.cpp</text>
</a>
</g>
</g>
<!-- Node1&#45;&gt;Node24 -->
<g id="edge26_Node000001_Node000024" class="edge">
<title>Node1&#45;&gt;Node24</title>
<g id="a_edge26_Node000001_Node000024"><a xlink:title=" ">
<path fill="none" stroke="#63b8ff" d="M1508.1,-278.88C1665.97,-275.57 2013.06,-264.66 2303.38,-230 2314.31,-228.69 2326.03,-226.81 2336.97,-224.84"/>
<polygon fill="#63b8ff" stroke="#63b8ff" points="1508.05,-275.38 1498.12,-279.08 1508.19,-282.38 1508.05,-275.38"/>
</a>
</g>
</g>
<!-- Node25 -->
<g id="Node000025" class="node">
<title>Node25</title>
<g id="a_Node000025"><a xlink:href="_convert_zhl_to_zml_2_pass_8cpp.html" target="_top" xlink:title=" ">
<polygon fill="white" stroke="#666666" points="2608.25,-230 2468.5,-230 2468.5,-199.5 2608.25,-199.5 2608.25,-230"/>
<text text-anchor="start" x="2476.5" y="-216.5" font-family="Helvetica,sans-Serif" font-size="10.00">lib/Passes/ConvertZhlToZml</text>
<text text-anchor="middle" x="2538.38" y="-205.25" font-family="Helvetica,sans-Serif" font-size="10.00">/Pass.cpp</text>
</a>
</g>
</g>
<!-- Node1&#45;&gt;Node25 -->
<g id="edge27_Node000001_Node000025" class="edge">
<title>Node1&#45;&gt;Node25</title>
<g id="a_edge27_Node000001_Node000025"><a xlink:title=" ">
<path fill="none" stroke="#63b8ff" d="M1507.95,-279.93C1685.89,-278.43 2108.51,-270.48 2460.38,-230 2462.97,-229.7 2465.62,-229.37 2468.28,-229.01"/>
<polygon fill="#63b8ff" stroke="#63b8ff" points="1508.08,-276.43 1498.1,-280.01 1508.13,-283.43 1508.08,-276.43"/>
</a>
</g>
</g>
<!-- Node26 -->
<g id="Node000026" class="node">
<title>Node26</title>
<g id="a_Node000026"><a xlink:href="_passes_2_convert_zhl_to_zml_2_patterns_8cpp.html" target="_top" xlink:title=" ">
<polygon fill="white" stroke="#666666" points="2766.25,-230 2626.5,-230 2626.5,-199.5 2766.25,-199.5 2766.25,-230"/>
<text text-anchor="start" x="2634.5" y="-216.5" font-family="Helvetica,sans-Serif" font-size="10.00">lib/Passes/ConvertZhlToZml</text>
<text text-anchor="middle" x="2696.38" y="-205.25" font-family="Helvetica,sans-Serif" font-size="10.00">/Patterns.cpp</text>
</a>
</g>
</g>
<!-- Node1&#45;&gt;Node26 -->
<g id="edge28_Node000001_Node000026" class="edge">
<title>Node1&#45;&gt;Node26</title>
<g id="a_edge28_Node000001_Node000026"><a xlink:title=" ">
<path fill="none" stroke="#63b8ff" d="M1508.15,-280.65C1704.9,-280.68 2203.55,-275.81 2617.38,-230 2620.28,-229.68 2623.25,-229.31 2626.24,-228.91"/>
<polygon fill="#63b8ff" stroke="#63b8ff" points="1508.28,-277.15 1498.27,-280.64 1508.27,-284.15 1508.28,-277.15"/>
</a>
</g>
</g>
<!-- Node3 -->
<g id="Node000003" class="node">
<title>Node3</title>
<g id="a_Node000003"><a xlink:href="_rules_8h.html" target="_top" xlink:title=" ">
<polygon fill="white" stroke="#666666" points="159.38,-97 47.38,-97 47.38,-66.5 159.38,-66.5 159.38,-97"/>
<text text-anchor="start" x="55.38" y="-83.5" font-family="Helvetica,sans-Serif" font-size="10.00">include/zklang/Dialect</text>
<text text-anchor="middle" x="103.38" y="-72.25" font-family="Helvetica,sans-Serif" font-size="10.00">/ZHL/Typing/Rules.h</text>
</a>
</g>
</g>
<!-- Node2&#45;&gt;Node3 -->
<g id="edge2_Node000002_Node000003" class="edge">
<title>Node2&#45;&gt;Node3</title>
<g id="a_edge2_Node000002_Node000003"><a xlink:title=" ">
<path fill="none" stroke="#63b8ff" d="M217.84,-194.69C199.76,-186.73 180.16,-176.31 164.38,-163.5 141.04,-144.57 121.66,-114.9 111.37,-97.29"/>
<polygon fill="#63b8ff" stroke="#63b8ff" points="216.31,-197.84 226.88,-198.5 219.03,-191.39 216.31,-197.84"/>
</a>
</g>
</g>
<!-- Node6 -->
<g id="Node000006" class="node">
<title>Node6</title>
<g id="a_Node000006"><a xlink:href="_typing_8h.html" target="_top" xlink:title=" ">
<polygon fill="white" stroke="#666666" points="285.38,-163.5 173.38,-163.5 173.38,-133 285.38,-133 285.38,-163.5"/>
<text text-anchor="start" x="181.38" y="-150" font-family="Helvetica,sans-Serif" font-size="10.00">include/zklang/Dialect</text>
<text text-anchor="middle" x="229.38" y="-138.75" font-family="Helvetica,sans-Serif" font-size="10.00">/ZHL/Typing/Typing.h</text>
</a>
</g>
</g>
<!-- Node2&#45;&gt;Node6 -->
<g id="edge5_Node000002_Node000006" class="edge">
<title>Node2&#45;&gt;Node6</title>
<g id="a_edge5_Node000002_Node000006"><a xlink:title=" ">
<path fill="none" stroke="#63b8ff" d="M255.59,-189.51C249.96,-180.87 243.8,-171.41 238.87,-163.83"/>
<polygon fill="#63b8ff" stroke="#63b8ff" points="252.63,-191.38 261.02,-197.85 258.49,-187.56 252.63,-191.38"/>
</a>
</g>
</g>
<!-- Node8 -->
<g id="Node000008" class="node">
<title>Node8</title>
<g id="a_Node000008"><a xlink:href="_print_type_bindings_8cpp.html" target="_top" xlink:title=" ">
<polygon fill="white" stroke="#666666" points="462.62,-97 346.12,-97 346.12,-66.5 462.62,-66.5 462.62,-97"/>
<text text-anchor="start" x="354.12" y="-83.5" font-family="Helvetica,sans-Serif" font-size="10.00">lib/Dialect/ZHL/Typing</text>
<text text-anchor="middle" x="404.38" y="-72.25" font-family="Helvetica,sans-Serif" font-size="10.00">/PrintTypeBindings.cpp</text>
</a>
</g>
</g>
<!-- Node2&#45;&gt;Node8 -->
<g id="edge10_Node000002_Node000008" class="edge">
<title>Node2&#45;&gt;Node8</title>
<g id="a_edge10_Node000002_Node000008"><a xlink:title=" ">
<path fill="none" stroke="#63b8ff" d="M286.38,-190.01C297.77,-173.02 314.5,-150.22 332.38,-133 346.65,-119.25 364.99,-106.51 379.59,-97.3"/>
<polygon fill="#63b8ff" stroke="#63b8ff" points="283.7,-187.7 281.14,-197.98 289.56,-191.54 283.7,-187.7"/>
</a>
</g>
</g>
<!-- Node9 -->
<g id="Node000009" class="node">
<title>Node9</title>
<g id="a_Node000009"><a xlink:href="_scope_8cpp.html" target="_top" xlink:title=" ">
<polygon fill="white" stroke="#666666" points="453.75,-163.5 341,-163.5 341,-133 453.75,-133 453.75,-163.5"/>
<text text-anchor="start" x="349" y="-150" font-family="Helvetica,sans-Serif" font-size="10.00">lib/Dialect/ZHL/Typing</text>
<text text-anchor="middle" x="397.38" y="-138.75" font-family="Helvetica,sans-Serif" font-size="10.00">/Scope.cpp</text>
</a>
</g>
</g>
<!-- Node2&#45;&gt;Node9 -->
<g id="edge11_Node000002_Node000009" class="edge">
<title>Node2&#45;&gt;Node9</title>
<g id="a_edge11_Node000002_Node000009"><a xlink:title=" ">
<path fill="none" stroke="#63b8ff" d="M310.1,-193.93C329.07,-184.21 351.52,-172.72 368.9,-163.83"/>
<polygon fill="#63b8ff" stroke="#63b8ff" points="308.62,-190.75 301.31,-198.42 311.81,-196.98 308.62,-190.75"/>
</a>
</g>
</g>
<!-- Node4 -->
<g id="Node000004" class="node">
<title>Node4</title>
<g id="a_Node000004"><a xlink:href="_rules_8cpp.html" target="_top" xlink:title=" ">
<polygon fill="white" stroke="#666666" points="112.75,-30.5 0,-30.5 0,0 112.75,0 112.75,-30.5"/>
<text text-anchor="start" x="8" y="-17" font-family="Helvetica,sans-Serif" font-size="10.00">lib/Dialect/ZHL/Typing</text>
<text text-anchor="middle" x="56.38" y="-5.75" font-family="Helvetica,sans-Serif" font-size="10.00">/Rules.cpp</text>
</a>
</g>
</g>
<!-- Node3&#45;&gt;Node4 -->
<g id="edge3_Node000003_Node000004" class="edge">
<title>Node3&#45;&gt;Node4</title>
<g id="a_edge3_Node000003_Node000004"><a xlink:title=" ">
<path fill="none" stroke="#63b8ff" d="M86.12,-57.07C79.71,-48.28 72.64,-38.57 67,-30.83"/>
<polygon fill="#63b8ff" stroke="#63b8ff" points="83.1,-58.87 91.82,-64.89 88.76,-54.75 83.1,-58.87"/>
</a>
</g>
</g>
<!-- Node5 -->
<g id="Node000005" class="node">
<title>Node5</title>
<g id="a_Node000005"><a xlink:href="_typing_8cpp.html" target="_top" xlink:title=" ">
<polygon fill="white" stroke="#666666" points="243.75,-30.5 131,-30.5 131,0 243.75,0 243.75,-30.5"/>
<text text-anchor="start" x="139" y="-17" font-family="Helvetica,sans-Serif" font-size="10.00">lib/Dialect/ZHL/Typing</text>
<text text-anchor="middle" x="187.38" y="-5.75" font-family="Helvetica,sans-Serif" font-size="10.00">/Typing.cpp</text>
</a>
</g>
</g>
<!-- Node3&#45;&gt;Node5 -->
<g id="edge4_Node000003_Node000005" class="edge">
<title>Node3&#45;&gt;Node5</title>
<g id="a_edge4_Node000003_Node000005"><a xlink:title=" ">
<path fill="none" stroke="#63b8ff" d="M131.32,-59.29C143.49,-49.94 157.45,-39.23 168.39,-30.83"/>
<polygon fill="#63b8ff" stroke="#63b8ff" points="129.44,-56.33 123.64,-65.19 133.7,-61.88 129.44,-56.33"/>
</a>
</g>
</g>
<!-- Node6&#45;&gt;Node3 -->
<g id="edge6_Node000006_Node000003" class="edge">
<title>Node6&#45;&gt;Node3</title>
<g id="a_edge6_Node000006_Node000003"><a xlink:title=" ">
<path fill="none" stroke="#63b8ff" d="M190.65,-127.43C171.68,-117.71 149.23,-106.22 131.85,-97.33"/>
<polygon fill="#63b8ff" stroke="#63b8ff" points="188.94,-130.48 199.44,-131.92 192.13,-124.25 188.94,-130.48"/>
</a>
</g>
</g>
<!-- Node6&#45;&gt;Node5 -->
<g id="edge9_Node000006_Node000005" class="edge">
<title>Node6&#45;&gt;Node5</title>
<g id="a_edge9_Node000006_Node000005"><a xlink:title=" ">
<path fill="none" stroke="#63b8ff" d="M216.85,-122.47C213.14,-114.48 209.28,-105.49 206.38,-97 198.62,-74.38 192.94,-47.15 189.89,-30.79"/>
<polygon fill="#63b8ff" stroke="#63b8ff" points="213.59,-123.76 221.08,-131.25 219.9,-120.72 213.59,-123.76"/>
</a>
</g>
</g>
<!-- Node7 -->
<g id="Node000007" class="node">
<title>Node7</title>
<g id="a_Node000007"><a xlink:href="_analysis_8cpp.html" target="_top" xlink:title=" ">
<polygon fill="white" stroke="#666666" points="327.75,-97 215,-97 215,-66.5 327.75,-66.5 327.75,-97"/>
<text text-anchor="start" x="223" y="-83.5" font-family="Helvetica,sans-Serif" font-size="10.00">lib/Dialect/ZHL/Typing</text>
<text text-anchor="middle" x="271.38" y="-72.25" font-family="Helvetica,sans-Serif" font-size="10.00">/Analysis.cpp</text>
</a>
</g>
</g>
<!-- Node6&#45;&gt;Node7 -->
<g id="edge7_Node000006_Node000007" class="edge">
<title>Node6&#45;&gt;Node7</title>
<g id="a_edge7_Node000006_Node000007"><a xlink:title=" ">
<path fill="none" stroke="#63b8ff" d="M245.16,-123.01C250.79,-114.37 256.95,-104.91 261.88,-97.33"/>
<polygon fill="#63b8ff" stroke="#63b8ff" points="242.26,-121.06 239.73,-131.35 248.12,-124.88 242.26,-121.06"/>
</a>
</g>
</g>
<!-- Node6&#45;&gt;Node8 -->
<g id="edge8_Node000006_Node000008" class="edge">
<title>Node6&#45;&gt;Node8</title>
<g id="a_edge8_Node000006_Node000008"><a xlink:title=" ">
<path fill="none" stroke="#63b8ff" d="M279.85,-128.65C306.76,-118.73 339.41,-106.7 364.52,-97.44"/>
<polygon fill="#63b8ff" stroke="#63b8ff" points="278.68,-125.35 270.51,-132.09 281.1,-131.92 278.68,-125.35"/>
</a>
</g>
</g>
</g>
</svg>
