<?xml version="1.0" encoding="UTF-8" standalone="no"?>
<!DOCTYPE svg PUBLIC "-//W3C//DTD SVG 1.1//EN"
 "http://www.w3.org/Graphics/SVG/1.1/DTD/svg11.dtd">
<!-- Generated by graphviz version 12.2.1 (20241206.2353)
 -->
<!-- Title: include/zklang/Dialect/ZHL/Typing/Params.h Pages: 1 -->
<svg width="1071pt" height="94pt"
 viewBox="0.00 0.00 1070.62 93.75" xmlns="http://www.w3.org/2000/svg" xmlns:xlink="http://www.w3.org/1999/xlink">
<g id="graph0" class="graph" transform="scale(1 1) rotate(0) translate(4 89.75)">
<title>include/zklang/Dialect/ZHL/Typing/Params.h</title>
<!-- Node1 -->
<g id="Node000001" class="node">
<title>Node1</title>
<g id="a_Node000001"><a xlink:title=" ">
<polygon fill="#999999" stroke="#666666" points="556.25,-85.75 442,-85.75 442,-55.25 556.25,-55.25 556.25,-85.75"/>
<text text-anchor="start" x="450" y="-72.25" font-family="Helvetica,sans-Serif" font-size="10.00">include/zklang/Dialect</text>
<text text-anchor="middle" x="499.12" y="-61" font-family="Helvetica,sans-Serif" font-size="10.00">/ZHL/Typing/Params.h</text>
</a>
</g>
</g>
<!-- Node2 -->
<g id="Node000002" class="node">
<title>Node2</title>
<g id="a_Node000002"><a xlink:title=" ">
<polygon fill="#e0e0e0" stroke="#999999" points="48.25,-19.25 0,-19.25 0,0 48.25,0 48.25,-19.25"/>
<text text-anchor="middle" x="24.12" y="-5.75" font-family="Helvetica,sans-Serif" font-size="10.00">cassert</text>
</a>
</g>
</g>
<!-- Node1&#45;&gt;Node2 -->
<g id="edge1_Node000001_Node000002" class="edge">
<title>Node1&#45;&gt;Node2</title>
<g id="a_edge1_Node000001_Node000002"><a xlink:title=" ">
<path fill="none" stroke="#63b8ff" d="M441.68,-65.44C359.31,-59.08 202.77,-44.95 59.7,-19.27"/>
<polygon fill="#63b8ff" stroke="#63b8ff" points="60.51,-15.86 50.04,-17.51 59.25,-22.75 60.51,-15.86"/>
</a>
</g>
</g>
<!-- Node3 -->
<g id="Node000003" class="node">
<title>Node3</title>
<g id="a_Node000003"><a xlink:title=" ">
<polygon fill="#e0e0e0" stroke="#999999" points="179.5,-19.25 66.75,-19.25 66.75,0 179.5,0 179.5,-19.25"/>
<text text-anchor="middle" x="123.12" y="-5.75" font-family="Helvetica,sans-Serif" font-size="10.00">llvm/ADT/StringMap.h</text>
</a>
</g>
</g>
<!-- Node1&#45;&gt;Node3 -->
<g id="edge2_Node000001_Node000003" class="edge">
<title>Node1&#45;&gt;Node3</title>
<g id="a_edge2_Node000001_Node000003"><a xlink:title=" ">
<path fill="none" stroke="#63b8ff" d="M441.61,-60.49C374.14,-49.93 262.44,-32.44 190.84,-21.23"/>
<polygon fill="#63b8ff" stroke="#63b8ff" points="191.63,-17.81 181.21,-19.72 190.54,-24.72 191.63,-17.81"/>
</a>
</g>
</g>
<!-- Node4 -->
<g id="Node000004" class="node">
<title>Node4</title>
<g id="a_Node000004"><a xlink:title=" ">
<polygon fill="#e0e0e0" stroke="#999999" points="307,-19.25 197.25,-19.25 197.25,0 307,0 307,-19.25"/>
<text text-anchor="middle" x="252.12" y="-5.75" font-family="Helvetica,sans-Serif" font-size="10.00">llvm/ADT/StringRef.h</text>
</a>
</g>
</g>
<!-- Node1&#45;&gt;Node4 -->
<g id="edge3_Node000001_Node000004" class="edge">
<title>Node1&#45;&gt;Node4</title>
<g id="a_edge3_Node000001_Node000004"><a xlink:title=" ">
<path fill="none" stroke="#63b8ff" d="M441.53,-55.77C399.01,-45.64 341.75,-31.99 301.36,-22.36"/>
<polygon fill="#63b8ff" stroke="#63b8ff" points="302.19,-18.96 291.65,-20.05 300.57,-25.77 302.19,-18.96"/>
</a>
</g>
</g>
<!-- Node5 -->
<g id="Node000005" class="node">
<title>Node5</title>
<g id="a_Node000005"><a xlink:title=" ">
<polygon fill="#e0e0e0" stroke="#999999" points="435.38,-19.25 324.88,-19.25 324.88,0 435.38,0 435.38,-19.25"/>
<text text-anchor="middle" x="380.12" y="-5.75" font-family="Helvetica,sans-Serif" font-size="10.00">llvm/Support/Debug.h</text>
</a>
</g>
</g>
<!-- Node1&#45;&gt;Node5 -->
<g id="edge4_Node000001_Node000005" class="edge">
<title>Node1&#45;&gt;Node5</title>
<g id="a_edge4_Node000001_Node000005"><a xlink:title=" ">
<path fill="none" stroke="#63b8ff" d="M469.4,-54.8C450.76,-45.57 426.86,-33.75 408.48,-24.65"/>
<polygon fill="#63b8ff" stroke="#63b8ff" points="410.25,-21.62 399.73,-20.33 407.14,-27.9 410.25,-21.62"/>
</a>
</g>
</g>
<!-- Node6 -->
<g id="Node000006" class="node">
<title>Node6</title>
<g id="a_Node000006"><a xlink:title=" ">
<polygon fill="#e0e0e0" stroke="#999999" points="545,-19.25 453.25,-19.25 453.25,0 545,0 545,-19.25"/>
<text text-anchor="middle" x="499.12" y="-5.75" font-family="Helvetica,sans-Serif" font-size="10.00">mlir/IR/Builders.h</text>
</a>
</g>
</g>
<!-- Node1&#45;&gt;Node6 -->
<g id="edge5_Node000001_Node000006" class="edge">
<title>Node1&#45;&gt;Node6</title>
<g id="a_edge5_Node000001_Node000006"><a xlink:title=" ">
<path fill="none" stroke="#63b8ff" d="M499.12,-54.95C499.12,-47.71 499.12,-38.84 499.12,-30.94"/>
<polygon fill="#63b8ff" stroke="#63b8ff" points="502.63,-31.21 499.13,-21.21 495.63,-31.21 502.63,-31.21"/>
</a>
</g>
</g>
<!-- Node7 -->
<g id="Node000007" class="node">
<title>Node7</title>
<g id="a_Node000007"><a xlink:title=" ">
<polygon fill="#e0e0e0" stroke="#999999" points="671.25,-19.25 563,-19.25 563,0 671.25,0 671.25,-19.25"/>
<text text-anchor="middle" x="617.12" y="-5.75" font-family="Helvetica,sans-Serif" font-size="10.00">mlir/IR/Diagnostics.h</text>
</a>
</g>
</g>
<!-- Node1&#45;&gt;Node7 -->
<g id="edge6_Node000001_Node000007" class="edge">
<title>Node1&#45;&gt;Node7</title>
<g id="a_edge6_Node000001_Node000007"><a xlink:title=" ">
<path fill="none" stroke="#63b8ff" d="M528.6,-54.8C547,-45.61 570.57,-33.86 588.76,-24.78"/>
<polygon fill="#63b8ff" stroke="#63b8ff" points="590.29,-27.93 597.67,-20.33 587.16,-21.66 590.29,-27.93"/>
</a>
</g>
</g>
<!-- Node8 -->
<g id="Node000008" class="node">
<title>Node8</title>
<g id="a_Node000008"><a xlink:title=" ">
<polygon fill="#e0e0e0" stroke="#999999" points="782.75,-19.25 689.5,-19.25 689.5,0 782.75,0 782.75,-19.25"/>
<text text-anchor="middle" x="736.12" y="-5.75" font-family="Helvetica,sans-Serif" font-size="10.00">mlir/IR/Location.h</text>
</a>
</g>
</g>
<!-- Node1&#45;&gt;Node8 -->
<g id="edge7_Node000001_Node000008" class="edge">
<title>Node1&#45;&gt;Node8</title>
<g id="a_edge7_Node000001_Node000008"><a xlink:title=" ">
<path fill="none" stroke="#63b8ff" d="M556.5,-55.25C597.02,-45.18 650.68,-31.85 688.76,-22.39"/>
<polygon fill="#63b8ff" stroke="#63b8ff" points="689.23,-25.88 698.09,-20.07 687.54,-19.09 689.23,-25.88"/>
</a>
</g>
</g>
<!-- Node9 -->
<g id="Node000009" class="node">
<title>Node9</title>
<g id="a_Node000009"><a xlink:title=" ">
<polygon fill="#e0e0e0" stroke="#999999" points="905.38,-19.25 800.88,-19.25 800.88,0 905.38,0 905.38,-19.25"/>
<text text-anchor="middle" x="853.12" y="-5.75" font-family="Helvetica,sans-Serif" font-size="10.00">mlir/Support/LLVM.h</text>
</a>
</g>
</g>
<!-- Node1&#45;&gt;Node9 -->
<g id="edge8_Node000001_Node000009" class="edge">
<title>Node1&#45;&gt;Node9</title>
<g id="a_edge8_Node000001_Node000009"><a xlink:title=" ">
<path fill="none" stroke="#63b8ff" d="M556.39,-59.98C620.21,-49.36 723.13,-32.25 789.43,-21.22"/>
<polygon fill="#63b8ff" stroke="#63b8ff" points="789.78,-24.71 799.07,-19.62 788.63,-17.8 789.78,-24.71"/>
</a>
</g>
</g>
<!-- Node10 -->
<g id="Node000010" class="node">
<title>Node10</title>
<g id="a_Node000010"><a xlink:title=" ">
<polygon fill="#e0e0e0" stroke="#999999" points="1062.62,-19.25 923.62,-19.25 923.62,0 1062.62,0 1062.62,-19.25"/>
<text text-anchor="middle" x="993.12" y="-5.75" font-family="Helvetica,sans-Serif" font-size="10.00">mlir/Support/LogicalResult.h</text>
</a>
</g>
</g>
<!-- Node1&#45;&gt;Node10 -->
<g id="edge9_Node000001_Node000010" class="edge">
<title>Node1&#45;&gt;Node10</title>
<g id="a_edge9_Node000001_Node000010"><a xlink:title=" ">
<path fill="none" stroke="#63b8ff" d="M556.28,-62.69C643.95,-52.24 811.98,-32.21 912.15,-20.28"/>
<polygon fill="#63b8ff" stroke="#63b8ff" points="912.41,-23.77 921.92,-19.11 911.58,-16.82 912.41,-23.77"/>
</a>
</g>
</g>
</g>
</svg>
