<?xml version="1.0" encoding="UTF-8" standalone="no"?>
<!DOCTYPE svg PUBLIC "-//W3C//DTD SVG 1.1//EN"
 "http://www.w3.org/Graphics/SVG/1.1/DTD/svg11.dtd">
<!-- Generated by graphviz version 12.2.1 (20241206.2353)
 -->
<!-- Title: include/zklang/Passes/ConvertZmlToLlzk/Patterns.h Pages: 1 -->
<svg width="2406pt" height="305pt"
 viewBox="0.00 0.00 2405.75 304.50" xmlns="http://www.w3.org/2000/svg" xmlns:xlink="http://www.w3.org/1999/xlink">
<g id="graph0" class="graph" transform="scale(1 1) rotate(0) translate(4 300.5)">
<title>include/zklang/Passes/ConvertZmlToLlzk/Patterns.h</title>
<!-- Node1 -->
<g id="Node000001" class="node">
<title>Node1</title>
<g id="a_Node000001"><a xlink:title=" ">
<polygon fill="#999999" stroke="#666666" points="1825.12,-296.5 1678.62,-296.5 1678.62,-266 1825.12,-266 1825.12,-296.5"/>
<text text-anchor="start" x="1686.62" y="-283" font-family="Helvetica,sans-Serif" font-size="10.00">include/zklang/Passes</text>
<text text-anchor="middle" x="1751.88" y="-271.75" font-family="Helvetica,sans-Serif" font-size="10.00">/ConvertZmlToLlzk/Patterns.h</text>
</a>
</g>
</g>
<!-- Node2 -->
<g id="Node000002" class="node">
<title>Node2</title>
<g id="a_Node000002"><a xlink:title=" ">
<polygon fill="#e0e0e0" stroke="#999999" points="1035.75,-230 938,-230 938,-199.5 1035.75,-199.5 1035.75,-230"/>
<text text-anchor="start" x="946" y="-216.5" font-family="Helvetica,sans-Serif" font-size="10.00">llzk/Dialect/Felt/IR</text>
<text text-anchor="middle" x="986.88" y="-205.25" font-family="Helvetica,sans-Serif" font-size="10.00">/Ops.h</text>
</a>
</g>
</g>
<!-- Node1&#45;&gt;Node2 -->
<g id="edge1_Node000001_Node000002" class="edge">
<title>Node1&#45;&gt;Node2</title>
<g id="a_edge1_Node000001_Node000002"><a xlink:title=" ">
<path fill="none" stroke="#63b8ff" d="M1678.13,-279.13C1551.05,-276.29 1282.57,-266.34 1047.3,-230.19"/>
<polygon fill="#63b8ff" stroke="#63b8ff" points="1048.04,-226.77 1037.62,-228.69 1046.96,-233.68 1048.04,-226.77"/>
</a>
</g>
</g>
<!-- Node3 -->
<g id="Node000003" class="node">
<title>Node3</title>
<g id="a_Node000003"><a xlink:title=" ">
<polygon fill="#e0e0e0" stroke="#999999" points="1151.75,-230 1054,-230 1054,-199.5 1151.75,-199.5 1151.75,-230"/>
<text text-anchor="start" x="1062" y="-216.5" font-family="Helvetica,sans-Serif" font-size="10.00">llzk/Dialect/Felt/IR</text>
<text text-anchor="middle" x="1102.88" y="-205.25" font-family="Helvetica,sans-Serif" font-size="10.00">/Types.h</text>
</a>
</g>
</g>
<!-- Node1&#45;&gt;Node3 -->
<g id="edge2_Node000001_Node000003" class="edge">
<title>Node1&#45;&gt;Node3</title>
<g id="a_edge2_Node000001_Node000003"><a xlink:title=" ">
<path fill="none" stroke="#63b8ff" d="M1678.17,-277.68C1568.09,-273.02 1354.12,-260.84 1163.49,-230.26"/>
<polygon fill="#63b8ff" stroke="#63b8ff" points="1164.05,-226.8 1153.62,-228.65 1162.93,-233.71 1164.05,-226.8"/>
</a>
</g>
</g>
<!-- Node4 -->
<g id="Node000004" class="node">
<title>Node4</title>
<g id="a_Node000004"><a xlink:title=" ">
<polygon fill="#e0e0e0" stroke="#999999" points="1263.88,-230 1169.88,-230 1169.88,-199.5 1263.88,-199.5 1263.88,-230"/>
<text text-anchor="start" x="1177.88" y="-216.5" font-family="Helvetica,sans-Serif" font-size="10.00">llzk/Dialect/Struct</text>
<text text-anchor="middle" x="1216.88" y="-205.25" font-family="Helvetica,sans-Serif" font-size="10.00">/IR/Ops.h</text>
</a>
</g>
</g>
<!-- Node1&#45;&gt;Node4 -->
<g id="edge3_Node000001_Node000004" class="edge">
<title>Node1&#45;&gt;Node4</title>
<g id="a_edge3_Node000001_Node000004"><a xlink:title=" ">
<path fill="none" stroke="#63b8ff" d="M1678.38,-275.85C1586.27,-269.61 1423.47,-256.13 1275.23,-230.25"/>
<polygon fill="#63b8ff" stroke="#63b8ff" points="1276.07,-226.85 1265.62,-228.55 1274.85,-233.74 1276.07,-226.85"/>
</a>
</g>
</g>
<!-- Node5 -->
<g id="Node000005" class="node">
<title>Node5</title>
<g id="a_Node000005"><a xlink:title=" ">
<polygon fill="#e0e0e0" stroke="#999999" points="2068.75,-30.5 1965,-30.5 1965,0 2068.75,0 2068.75,-30.5"/>
<text text-anchor="start" x="1973" y="-17" font-family="Helvetica,sans-Serif" font-size="10.00">mlir/Dialect/Func/IR</text>
<text text-anchor="middle" x="2016.88" y="-5.75" font-family="Helvetica,sans-Serif" font-size="10.00">/FuncOps.h</text>
</a>
</g>
</g>
<!-- Node1&#45;&gt;Node5 -->
<g id="edge4_Node000001_Node000005" class="edge">
<title>Node1&#45;&gt;Node5</title>
<g id="a_edge4_Node000001_Node000005"><a xlink:title=" ">
<path fill="none" stroke="#63b8ff" d="M1741.41,-265.51C1730.36,-247.97 1716.5,-218.64 1731.88,-199.5 1778.34,-141.66 1827.96,-195.53 1894.88,-163.5 1937.51,-143.09 1948.42,-133.97 1977.88,-97 1991.19,-80.28 2001.45,-58.26 2008.09,-41.44"/>
<polygon fill="#63b8ff" stroke="#63b8ff" points="2011.33,-42.77 2011.57,-32.18 2004.78,-40.31 2011.33,-42.77"/>
</a>
</g>
</g>
<!-- Node6 -->
<g id="Node000006" class="node">
<title>Node6</title>
<g id="a_Node000006"><a xlink:title=" ">
<polygon fill="#e0e0e0" stroke="#999999" points="1843,-230 1740.75,-230 1740.75,-199.5 1843,-199.5 1843,-230"/>
<text text-anchor="start" x="1748.75" y="-216.5" font-family="Helvetica,sans-Serif" font-size="10.00">mlir/Dialect/SCF/IR</text>
<text text-anchor="middle" x="1791.88" y="-205.25" font-family="Helvetica,sans-Serif" font-size="10.00">/SCF.h</text>
</a>
</g>
</g>
<!-- Node1&#45;&gt;Node6 -->
<g id="edge5_Node000001_Node000006" class="edge">
<title>Node1&#45;&gt;Node6</title>
<g id="a_edge5_Node000001_Node000006"><a xlink:title=" ">
<path fill="none" stroke="#63b8ff" d="M1760.95,-265.61C1765.66,-258.03 1771.53,-248.56 1776.88,-239.93"/>
<polygon fill="#63b8ff" stroke="#63b8ff" points="1779.74,-241.96 1782.04,-231.61 1773.79,-238.27 1779.74,-241.96"/>
</a>
</g>
</g>
<!-- Node7 -->
<g id="Node000007" class="node">
<title>Node7</title>
<g id="a_Node000007"><a xlink:title=" ">
<polygon fill="#e0e0e0" stroke="#999999" points="1954.5,-224.38 1861.25,-224.38 1861.25,-205.12 1954.5,-205.12 1954.5,-224.38"/>
<text text-anchor="middle" x="1907.88" y="-210.88" font-family="Helvetica,sans-Serif" font-size="10.00">mlir/IR/Location.h</text>
</a>
</g>
</g>
<!-- Node1&#45;&gt;Node7 -->
<g id="edge6_Node000001_Node000007" class="edge">
<title>Node1&#45;&gt;Node7</title>
<g id="a_edge6_Node000001_Node000007"><a xlink:title=" ">
<path fill="none" stroke="#63b8ff" d="M1787.27,-265.61C1813.86,-254.62 1849.97,-239.69 1875.73,-229.04"/>
<polygon fill="#63b8ff" stroke="#63b8ff" points="1876.78,-232.39 1884.69,-225.34 1874.11,-225.92 1876.78,-232.39"/>
</a>
</g>
</g>
<!-- Node8 -->
<g id="Node000008" class="node">
<title>Node8</title>
<g id="a_Node000008"><a xlink:title=" ">
<polygon fill="#e0e0e0" stroke="#999999" points="2081.38,-224.38 1972.38,-224.38 1972.38,-205.12 2081.38,-205.12 2081.38,-224.38"/>
<text text-anchor="middle" x="2026.88" y="-210.88" font-family="Helvetica,sans-Serif" font-size="10.00">mlir/IR/ValueRange.h</text>
</a>
</g>
</g>
<!-- Node1&#45;&gt;Node8 -->
<g id="edge7_Node000001_Node000008" class="edge">
<title>Node1&#45;&gt;Node8</title>
<g id="a_edge7_Node000001_Node000008"><a xlink:title=" ">
<path fill="none" stroke="#63b8ff" d="M1814.62,-265.53C1863.87,-253.98 1931.5,-238.12 1977.07,-227.43"/>
<polygon fill="#63b8ff" stroke="#63b8ff" points="1977.75,-230.87 1986.69,-225.18 1976.15,-224.05 1977.75,-230.87"/>
</a>
</g>
</g>
<!-- Node9 -->
<g id="Node000009" class="node">
<title>Node9</title>
<g id="a_Node000009"><a xlink:title=" ">
<polygon fill="#e0e0e0" stroke="#999999" points="2204.12,-224.38 2099.62,-224.38 2099.62,-205.12 2204.12,-205.12 2204.12,-224.38"/>
<text text-anchor="middle" x="2151.88" y="-210.88" font-family="Helvetica,sans-Serif" font-size="10.00">mlir/Support/LLVM.h</text>
</a>
</g>
</g>
<!-- Node1&#45;&gt;Node9 -->
<g id="edge8_Node000001_Node000009" class="edge">
<title>Node1&#45;&gt;Node9</title>
<g id="a_edge8_Node000001_Node000009"><a xlink:title=" ">
<path fill="none" stroke="#63b8ff" d="M1825.57,-271.11C1894.44,-262.14 1999.99,-247.32 2090.88,-230 2095.2,-229.18 2099.68,-228.26 2104.16,-227.29"/>
<polygon fill="#63b8ff" stroke="#63b8ff" points="2104.73,-230.75 2113.73,-225.16 2103.21,-223.92 2104.73,-230.75"/>
</a>
</g>
</g>
<!-- Node10 -->
<g id="Node000010" class="node">
<title>Node10</title>
<g id="a_Node000010"><a xlink:title=" ">
<polygon fill="#e0e0e0" stroke="#999999" points="2397.75,-224.38 2222,-224.38 2222,-205.12 2397.75,-205.12 2397.75,-224.38"/>
<text text-anchor="middle" x="2309.88" y="-210.88" font-family="Helvetica,sans-Serif" font-size="10.00">mlir/Transforms/DialectConversion.h</text>
</a>
</g>
</g>
<!-- Node1&#45;&gt;Node10 -->
<g id="edge9_Node000001_Node000010" class="edge">
<title>Node1&#45;&gt;Node10</title>
<g id="a_edge9_Node000001_Node000010"><a xlink:title=" ">
<path fill="none" stroke="#63b8ff" d="M1825.43,-273.09C1916.5,-264.02 2076.32,-247.47 2212.88,-230 2221.42,-228.91 2230.38,-227.69 2239.26,-226.44"/>
<polygon fill="#63b8ff" stroke="#63b8ff" points="2239.51,-229.94 2248.92,-225.06 2238.52,-223.01 2239.51,-229.94"/>
</a>
</g>
</g>
<!-- Node11 -->
<g id="Node000011" class="node">
<title>Node11</title>
<g id="a_Node000011"><a xlink:href="_ops_8h.html" target="_top" xlink:title=" ">
<polygon fill="white" stroke="#666666" points="1382.25,-230 1281.5,-230 1281.5,-199.5 1382.25,-199.5 1382.25,-230"/>
<text text-anchor="start" x="1289.5" y="-216.5" font-family="Helvetica,sans-Serif" font-size="10.00">zklang/Dialect/ZML</text>
<text text-anchor="middle" x="1331.88" y="-205.25" font-family="Helvetica,sans-Serif" font-size="10.00">/IR/Ops.h</text>
</a>
</g>
</g>
<!-- Node1&#45;&gt;Node11 -->
<g id="edge10_Node000001_Node000011" class="edge">
<title>Node1&#45;&gt;Node11</title>
<g id="a_edge10_Node000001_Node000011"><a xlink:title=" ">
<path fill="none" stroke="#63b8ff" d="M1678.24,-268.94C1597.57,-256.55 1469.6,-236.9 1393.87,-225.27"/>
<polygon fill="#63b8ff" stroke="#63b8ff" points="1394.54,-221.83 1384.12,-223.77 1393.48,-228.75 1394.54,-221.83"/>
</a>
</g>
</g>
<!-- Node11&#45;&gt;Node5 -->
<g id="edge15_Node000011_Node000005" class="edge">
<title>Node11&#45;&gt;Node5</title>
<g id="a_edge15_Node000011_Node000005"><a xlink:title=" ">
<path fill="none" stroke="#63b8ff" d="M1382.74,-212.92C1497.12,-210.4 1771.15,-200.56 1854.88,-163.5 1917.77,-135.65 1972.71,-73.58 1999.5,-39.6"/>
<polygon fill="#63b8ff" stroke="#63b8ff" points="2002.02,-42.06 2005.37,-32.01 1996.48,-37.78 2002.02,-42.06"/>
</a>
</g>
</g>
<!-- Node12 -->
<g id="Node000012" class="node">
<title>Node12</title>
<g id="a_Node000012"><a xlink:title=" ">
<polygon fill="#e0e0e0" stroke="#999999" points="1658.62,-24.88 1551.12,-24.88 1551.12,-5.63 1658.62,-5.63 1658.62,-24.88"/>
<text text-anchor="middle" x="1604.88" y="-11.38" font-family="Helvetica,sans-Serif" font-size="10.00">llvm/ADT/ArrayRef.h</text>
</a>
</g>
</g>
<!-- Node11&#45;&gt;Node12 -->
<g id="edge11_Node000011_Node000012" class="edge">
<title>Node11&#45;&gt;Node12</title>
<g id="a_edge11_Node000011_Node000012"><a xlink:title=" ">
<path fill="none" stroke="#63b8ff" d="M1382.68,-213.78C1459.03,-212.38 1606.99,-204.08 1724.88,-163.5 1779.61,-144.66 1808.24,-147.31 1836.88,-97 1896.45,7.66 1766.79,-52.22 1667.88,-30.5 1664.03,-29.66 1660.06,-28.78 1656.07,-27.89"/>
<polygon fill="#63b8ff" stroke="#63b8ff" points="1656.85,-24.47 1646.33,-25.7 1655.32,-31.31 1656.85,-24.47"/>
</a>
</g>
</g>
<!-- Node13 -->
<g id="Node000013" class="node">
<title>Node13</title>
<g id="a_Node000013"><a xlink:title=" ">
<polygon fill="#e0e0e0" stroke="#999999" points="1797.38,-24.88 1676.38,-24.88 1676.38,-5.63 1797.38,-5.63 1797.38,-24.88"/>
<text text-anchor="middle" x="1736.88" y="-11.38" font-family="Helvetica,sans-Serif" font-size="10.00">llvm/ADT/SmallVector.h</text>
</a>
</g>
</g>
<!-- Node11&#45;&gt;Node13 -->
<g id="edge12_Node000011_Node000013" class="edge">
<title>Node11&#45;&gt;Node13</title>
<g id="a_edge12_Node000011_Node000013"><a xlink:title=" ">
<path fill="none" stroke="#63b8ff" d="M1382.57,-211.79C1484.28,-207.25 1709.5,-193.99 1779.88,-163.5 1830.64,-141.51 1888.59,-112.51 1857.88,-66.5 1848.7,-52.75 1810.93,-38.41 1780,-28.59"/>
<polygon fill="#63b8ff" stroke="#63b8ff" points="1781.43,-25.37 1770.85,-25.76 1779.37,-32.06 1781.43,-25.37"/>
</a>
</g>
</g>
<!-- Node14 -->
<g id="Node000014" class="node">
<title>Node14</title>
<g id="a_Node000014"><a xlink:title=" ">
<polygon fill="#e0e0e0" stroke="#999999" points="109.75,-24.88 0,-24.88 0,-5.63 109.75,-5.63 109.75,-24.88"/>
<text text-anchor="middle" x="54.88" y="-11.38" font-family="Helvetica,sans-Serif" font-size="10.00">llvm/ADT/StringRef.h</text>
</a>
</g>
</g>
<!-- Node11&#45;&gt;Node14 -->
<g id="edge13_Node000011_Node000014" class="edge">
<title>Node11&#45;&gt;Node14</title>
<g id="a_edge13_Node000011_Node000014"><a xlink:title=" ">
<path fill="none" stroke="#63b8ff" d="M1281.15,-200.83C1278.36,-200.33 1275.59,-199.88 1272.88,-199.5 893.59,-146.29 785.94,-245.77 411.88,-163.5 281.77,-134.88 138.57,-61.98 80.97,-30.78"/>
<polygon fill="#63b8ff" stroke="#63b8ff" points="82.71,-27.74 72.26,-26.02 79.36,-33.88 82.71,-27.74"/>
</a>
</g>
</g>
<!-- Node15 -->
<g id="Node000015" class="node">
<title>Node15</title>
<g id="a_Node000015"><a xlink:title=" ">
<polygon fill="#e0e0e0" stroke="#999999" points="260.38,-30.5 127.38,-30.5 127.38,0 260.38,0 260.38,-30.5"/>
<text text-anchor="start" x="135.38" y="-17" font-family="Helvetica,sans-Serif" font-size="10.00">mlir/Bytecode/BytecodeOp</text>
<text text-anchor="middle" x="193.88" y="-5.75" font-family="Helvetica,sans-Serif" font-size="10.00">Interface.h</text>
</a>
</g>
</g>
<!-- Node11&#45;&gt;Node15 -->
<g id="edge14_Node000011_Node000015" class="edge">
<title>Node11&#45;&gt;Node15</title>
<g id="a_edge14_Node000011_Node000015"><a xlink:title=" ">
<path fill="none" stroke="#63b8ff" d="M1281.14,-200.85C1278.36,-200.34 1275.59,-199.89 1272.88,-199.5 935.04,-151.22 837.04,-245.92 505.88,-163.5 397.26,-136.47 280.97,-70.44 226.08,-36.75"/>
<polygon fill="#63b8ff" stroke="#63b8ff" points="228.19,-33.94 217.85,-31.65 224.51,-39.89 228.19,-33.94"/>
</a>
</g>
</g>
<!-- Node16 -->
<g id="Node000016" class="node">
<title>Node16</title>
<g id="a_Node000016"><a xlink:title=" ">
<polygon fill="#e0e0e0" stroke="#999999" points="379.62,-24.88 278.12,-24.88 278.12,-5.63 379.62,-5.63 379.62,-24.88"/>
<text text-anchor="middle" x="328.88" y="-11.38" font-family="Helvetica,sans-Serif" font-size="10.00">mlir/IR/BuiltinOps.h</text>
</a>
</g>
</g>
<!-- Node11&#45;&gt;Node16 -->
<g id="edge16_Node000011_Node000016" class="edge">
<title>Node11&#45;&gt;Node16</title>
<g id="a_edge16_Node000011_Node000016"><a xlink:title=" ">
<path fill="none" stroke="#63b8ff" d="M1281.14,-200.87C1278.36,-200.36 1275.59,-199.89 1272.88,-199.5 1121.38,-177.43 731.71,-206.86 584.88,-163.5 488.57,-135.06 389.78,-63.95 348.68,-32.11"/>
<polygon fill="#63b8ff" stroke="#63b8ff" points="350.94,-29.43 340.91,-26.01 346.62,-34.94 350.94,-29.43"/>
</a>
</g>
</g>
<!-- Node17 -->
<g id="Node000017" class="node">
<title>Node17</title>
<g id="a_Node000017"><a xlink:title=" ">
<polygon fill="#e0e0e0" stroke="#999999" points="508.12,-24.88 397.62,-24.88 397.62,-5.63 508.12,-5.63 508.12,-24.88"/>
<text text-anchor="middle" x="452.88" y="-11.38" font-family="Helvetica,sans-Serif" font-size="10.00">mlir/IR/OpDefinition.h</text>
</a>
</g>
</g>
<!-- Node11&#45;&gt;Node17 -->
<g id="edge17_Node000011_Node000017" class="edge">
<title>Node11&#45;&gt;Node17</title>
<g id="a_edge17_Node000011_Node000017"><a xlink:title=" ">
<path fill="none" stroke="#63b8ff" d="M1281.14,-200.88C1278.35,-200.37 1275.59,-199.9 1272.88,-199.5 1135.48,-179.11 779.3,-211.25 648.88,-163.5 571.43,-135.14 498.92,-65.34 468.26,-33.09"/>
<polygon fill="#63b8ff" stroke="#63b8ff" points="471.16,-31.08 461.78,-26.16 466.05,-35.86 471.16,-31.08"/>
</a>
</g>
</g>
<!-- Node18 -->
<g id="Node000018" class="node">
<title>Node18</title>
<g id="a_Node000018"><a xlink:title=" ">
<polygon fill="#e0e0e0" stroke="#999999" points="661.88,-24.88 525.88,-24.88 525.88,-5.63 661.88,-5.63 661.88,-24.88"/>
<text text-anchor="middle" x="593.88" y="-11.38" font-family="Helvetica,sans-Serif" font-size="10.00">mlir/IR/OpImplementation.h</text>
</a>
</g>
</g>
<!-- Node11&#45;&gt;Node18 -->
<g id="edge18_Node000011_Node000018" class="edge">
<title>Node11&#45;&gt;Node18</title>
<g id="a_edge18_Node000011_Node000018"><a xlink:title=" ">
<path fill="none" stroke="#63b8ff" d="M1281.14,-200.9C1278.35,-200.38 1275.58,-199.91 1272.88,-199.5 1144.3,-180.16 801.08,-229.2 688.88,-163.5 639.54,-134.61 611.44,-68.79 599.99,-35.82"/>
<polygon fill="#63b8ff" stroke="#63b8ff" points="603.45,-35.13 596.99,-26.73 596.8,-37.32 603.45,-35.13"/>
</a>
</g>
</g>
<!-- Node19 -->
<g id="Node000019" class="node">
<title>Node19</title>
<g id="a_Node000019"><a xlink:title=" ">
<polygon fill="#e0e0e0" stroke="#999999" points="830,-24.88 679.75,-24.88 679.75,-5.63 830,-5.63 830,-24.88"/>
<text text-anchor="middle" x="754.88" y="-11.38" font-family="Helvetica,sans-Serif" font-size="10.00">mlir/Interfaces/CallInterfaces.h</text>
</a>
</g>
</g>
<!-- Node11&#45;&gt;Node19 -->
<g id="edge19_Node000011_Node000019" class="edge">
<title>Node11&#45;&gt;Node19</title>
<g id="a_edge19_Node000011_Node000019"><a xlink:title=" ">
<path fill="none" stroke="#63b8ff" d="M1281.14,-200.91C1278.35,-200.39 1275.58,-199.91 1272.88,-199.5 1211.45,-190.17 761.24,-204.86 714.88,-163.5 682.46,-134.58 685.91,-106.49 702.88,-66.5 708.72,-52.73 720.38,-40.9 731.18,-32.18"/>
<polygon fill="#63b8ff" stroke="#63b8ff" points="733.18,-35.06 739.07,-26.26 728.97,-29.46 733.18,-35.06"/>
</a>
</g>
</g>
<!-- Node20 -->
<g id="Node000020" class="node">
<title>Node20</title>
<g id="a_Node000020"><a xlink:title=" ">
<polygon fill="#e0e0e0" stroke="#999999" points="981.75,-30.5 848,-30.5 848,0 981.75,0 981.75,-30.5"/>
<text text-anchor="start" x="856" y="-17" font-family="Helvetica,sans-Serif" font-size="10.00">mlir/Interfaces/ControlFlow</text>
<text text-anchor="middle" x="914.88" y="-5.75" font-family="Helvetica,sans-Serif" font-size="10.00">Interfaces.h</text>
</a>
</g>
</g>
<!-- Node11&#45;&gt;Node20 -->
<g id="edge20_Node000011_Node000020" class="edge">
<title>Node11&#45;&gt;Node20</title>
<g id="a_edge20_Node000011_Node000020"><a xlink:title=" ">
<path fill="none" stroke="#63b8ff" d="M1281.13,-200.92C1278.35,-200.4 1275.58,-199.92 1272.88,-199.5 1215.31,-190.63 797.69,-196.77 749.88,-163.5 712.83,-137.73 692.23,-102.17 719.88,-66.5 727.42,-56.77 785.74,-42.52 836.65,-31.68"/>
<polygon fill="#63b8ff" stroke="#63b8ff" points="837.17,-35.15 846.23,-29.67 835.73,-28.3 837.17,-35.15"/>
</a>
</g>
</g>
<!-- Node21 -->
<g id="Node000021" class="node">
<title>Node21</title>
<g id="a_Node000021"><a xlink:title=" ">
<polygon fill="#e0e0e0" stroke="#999999" points="1946.62,-30.5 1815.12,-30.5 1815.12,0 1946.62,0 1946.62,-30.5"/>
<text text-anchor="start" x="1823.12" y="-17" font-family="Helvetica,sans-Serif" font-size="10.00">mlir/Interfaces/DataLayout</text>
<text text-anchor="middle" x="1880.88" y="-5.75" font-family="Helvetica,sans-Serif" font-size="10.00">Interfaces.h</text>
</a>
</g>
</g>
<!-- Node11&#45;&gt;Node21 -->
<g id="edge21_Node000011_Node000021" class="edge">
<title>Node11&#45;&gt;Node21</title>
<g id="a_edge21_Node000011_Node000021"><a xlink:title=" ">
<path fill="none" stroke="#63b8ff" d="M1382.52,-213.47C1492.22,-212.08 1747.96,-204.42 1822.88,-163.5 1856.04,-145.38 1862.3,-132.27 1875.88,-97 1882.59,-79.56 1883.67,-58.43 1883.17,-42.16"/>
<polygon fill="#63b8ff" stroke="#63b8ff" points="1886.67,-42.11 1882.62,-32.32 1879.68,-42.5 1886.67,-42.11"/>
</a>
</g>
</g>
<!-- Node22 -->
<g id="Node000022" class="node">
<title>Node22</title>
<g id="a_Node000022"><a xlink:title=" ">
<polygon fill="#e0e0e0" stroke="#999999" points="1118.25,-30.5 999.5,-30.5 999.5,0 1118.25,0 1118.25,-30.5"/>
<text text-anchor="start" x="1007.5" y="-17" font-family="Helvetica,sans-Serif" font-size="10.00">mlir/Interfaces/Function</text>
<text text-anchor="middle" x="1058.88" y="-5.75" font-family="Helvetica,sans-Serif" font-size="10.00">Interfaces.h</text>
</a>
</g>
</g>
<!-- Node11&#45;&gt;Node22 -->
<g id="edge22_Node000011_Node000022" class="edge">
<title>Node11&#45;&gt;Node22</title>
<g id="a_edge22_Node000011_Node000022"><a xlink:title=" ">
<path fill="none" stroke="#63b8ff" d="M1281.13,-200.95C1278.35,-200.42 1275.58,-199.93 1272.88,-199.5 1071.23,-167.43 1005.36,-237.02 814.88,-163.5 769.8,-146.1 750.16,-140.37 728.88,-97 693.7,-25.35 850.41,-51.83 988.08,-30.81"/>
<polygon fill="#63b8ff" stroke="#63b8ff" points="988.42,-34.31 997.72,-29.24 987.29,-27.4 988.42,-34.31"/>
</a>
</g>
</g>
<!-- Node23 -->
<g id="Node000023" class="node">
<title>Node23</title>
<g id="a_Node000023"><a xlink:title=" ">
<polygon fill="#e0e0e0" stroke="#999999" points="1388.75,-30.5 1267,-30.5 1267,0 1388.75,0 1388.75,-30.5"/>
<text text-anchor="start" x="1275" y="-17" font-family="Helvetica,sans-Serif" font-size="10.00">mlir/Interfaces/InferType</text>
<text text-anchor="middle" x="1327.88" y="-5.75" font-family="Helvetica,sans-Serif" font-size="10.00">OpInterface.h</text>
</a>
</g>
</g>
<!-- Node11&#45;&gt;Node23 -->
<g id="edge23_Node000011_Node000023" class="edge">
<title>Node11&#45;&gt;Node23</title>
<g id="a_edge23_Node000011_Node000023"><a xlink:title=" ">
<path fill="none" stroke="#63b8ff" d="M1281.42,-201.43C1165.8,-173.07 891.06,-105.01 884.88,-97 876.59,-86.27 875.76,-76.54 884.88,-66.5 911.23,-37.48 1182.04,-36.66 1255.53,-30.32"/>
<polygon fill="#63b8ff" stroke="#63b8ff" points="1255.8,-33.81 1265.35,-29.23 1255.03,-26.85 1255.8,-33.81"/>
</a>
</g>
</g>
<!-- Node24 -->
<g id="Node000024" class="node">
<title>Node24</title>
<g id="a_Node000024"><a xlink:title=" ">
<polygon fill="#e0e0e0" stroke="#999999" points="1533.38,-30.5 1406.38,-30.5 1406.38,0 1533.38,0 1533.38,-30.5"/>
<text text-anchor="start" x="1414.38" y="-17" font-family="Helvetica,sans-Serif" font-size="10.00">mlir/Interfaces/SideEffect</text>
<text text-anchor="middle" x="1469.88" y="-5.75" font-family="Helvetica,sans-Serif" font-size="10.00">Interfaces.h</text>
</a>
</g>
</g>
<!-- Node11&#45;&gt;Node24 -->
<g id="edge24_Node000011_Node000024" class="edge">
<title>Node11&#45;&gt;Node24</title>
<g id="a_edge24_Node000011_Node000024"><a xlink:title=" ">
<path fill="none" stroke="#63b8ff" d="M1382.36,-209.15C1493.96,-197.82 1755.85,-164.47 1807.88,-97 1917.41,45.05 2140.97,-128.54 1544.9,-30.95"/>
<polygon fill="#63b8ff" stroke="#63b8ff" points="1545.76,-27.54 1535.32,-29.36 1544.62,-34.45 1545.76,-27.54"/>
</a>
</g>
</g>
<!-- Node25 -->
<g id="Node000025" class="node">
<title>Node25</title>
<g id="a_Node000025"><a xlink:href="_op_interfaces_8h.html" target="_top" xlink:title=" ">
<polygon fill="white" stroke="#666666" points="838.25,-97 737.5,-97 737.5,-66.5 838.25,-66.5 838.25,-97"/>
<text text-anchor="start" x="745.5" y="-83.5" font-family="Helvetica,sans-Serif" font-size="10.00">zklang/Dialect/ZML</text>
<text text-anchor="middle" x="787.88" y="-72.25" font-family="Helvetica,sans-Serif" font-size="10.00">/IR/OpInterfaces.h</text>
</a>
</g>
</g>
<!-- Node11&#45;&gt;Node25 -->
<g id="edge25_Node000011_Node000025" class="edge">
<title>Node11&#45;&gt;Node25</title>
<g id="a_edge25_Node000011_Node000025"><a xlink:title=" ">
<path fill="none" stroke="#63b8ff" d="M1281.13,-200.98C1278.34,-200.44 1275.58,-199.94 1272.88,-199.5 1180.19,-184.43 934.59,-207.93 851.88,-163.5 828.71,-151.06 811.05,-126.29 800.21,-107.44"/>
<polygon fill="#63b8ff" stroke="#63b8ff" points="803.34,-105.87 795.48,-98.77 797.19,-109.22 803.34,-105.87"/>
</a>
</g>
</g>
<!-- Node27 -->
<g id="Node000027" class="node">
<title>Node27</title>
<g id="a_Node000027"><a xlink:href="_types_8h.html" target="_top" xlink:title=" ">
<polygon fill="white" stroke="#666666" points="1382.25,-163.5 1281.5,-163.5 1281.5,-133 1382.25,-133 1382.25,-163.5"/>
<text text-anchor="start" x="1289.5" y="-150" font-family="Helvetica,sans-Serif" font-size="10.00">zklang/Dialect/ZML</text>
<text text-anchor="middle" x="1331.88" y="-138.75" font-family="Helvetica,sans-Serif" font-size="10.00">/IR/Types.h</text>
</a>
</g>
</g>
<!-- Node11&#45;&gt;Node27 -->
<g id="edge41_Node000011_Node000027" class="edge">
<title>Node11&#45;&gt;Node27</title>
<g id="a_edge41_Node000011_Node000027"><a xlink:title=" ">
<path fill="none" stroke="#63b8ff" d="M1331.88,-199.11C1331.88,-192.02 1331.88,-183.29 1331.88,-175.13"/>
<polygon fill="#63b8ff" stroke="#63b8ff" points="1335.38,-175.34 1331.88,-165.34 1328.38,-175.34 1335.38,-175.34"/>
</a>
</g>
</g>
<!-- Node33 -->
<g id="Node000033" class="node">
<title>Node33</title>
<g id="a_Node000033"><a xlink:href="_ops_8h_8inc.html" target="_top" xlink:title=" ">
<polygon fill="white" stroke="#666666" points="1799.25,-97 1698.5,-97 1698.5,-66.5 1799.25,-66.5 1799.25,-97"/>
<text text-anchor="start" x="1706.5" y="-83.5" font-family="Helvetica,sans-Serif" font-size="10.00">zklang/Dialect/ZML</text>
<text text-anchor="middle" x="1748.88" y="-72.25" font-family="Helvetica,sans-Serif" font-size="10.00">/IR/Ops.h.inc</text>
</a>
</g>
</g>
<!-- Node11&#45;&gt;Node33 -->
<g id="edge51_Node000011_Node000033" class="edge">
<title>Node11&#45;&gt;Node33</title>
<g id="a_edge51_Node000011_Node000033"><a xlink:title=" ">
<path fill="none" stroke="#63b8ff" d="M1378.5,-199.1C1455.28,-174.98 1608.12,-126.97 1691.44,-100.79"/>
<polygon fill="#63b8ff" stroke="#63b8ff" points="1692.3,-104.19 1700.79,-97.86 1690.2,-97.51 1692.3,-104.19"/>
</a>
</g>
</g>
<!-- Node25&#45;&gt;Node5 -->
<g id="edge30_Node000025_Node000005" class="edge">
<title>Node25&#45;&gt;Node5</title>
<g id="a_edge30_Node000025_Node000005"><a xlink:title=" ">
<path fill="none" stroke="#63b8ff" d="M838.59,-72.2C853.47,-69.99 869.79,-67.86 884.88,-66.5 1355.52,-24.15 1481.75,-91.9 1953.55,-30.61"/>
<polygon fill="#63b8ff" stroke="#63b8ff" points="1953.8,-34.1 1963.25,-29.33 1952.88,-27.16 1953.8,-34.1"/>
</a>
</g>
</g>
<!-- Node25&#45;&gt;Node12 -->
<g id="edge26_Node000025_Node000012" class="edge">
<title>Node25&#45;&gt;Node12</title>
<g id="a_edge26_Node000025_Node000012"><a xlink:title=" ">
<path fill="none" stroke="#63b8ff" d="M838.61,-72.41C853.49,-70.2 869.8,-68.02 884.88,-66.5 1176.29,-37.18 1252.87,-71.45 1542.88,-30.5 1548.13,-29.76 1553.61,-28.79 1559.02,-27.71"/>
<polygon fill="#63b8ff" stroke="#63b8ff" points="1559.46,-31.2 1568.51,-25.69 1558,-24.35 1559.46,-31.2"/>
</a>
</g>
</g>
<!-- Node25&#45;&gt;Node13 -->
<g id="edge27_Node000025_Node000013" class="edge">
<title>Node25&#45;&gt;Node13</title>
<g id="a_edge27_Node000025_Node000013"><a xlink:title=" ">
<path fill="none" stroke="#63b8ff" d="M838.6,-72.32C853.48,-70.11 869.8,-67.95 884.88,-66.5 1231.64,-33.14 1322.22,-73.86 1667.88,-30.5 1674.25,-29.7 1680.92,-28.63 1687.48,-27.43"/>
<polygon fill="#63b8ff" stroke="#63b8ff" points="1687.73,-30.95 1696.89,-25.61 1686.4,-24.07 1687.73,-30.95"/>
</a>
</g>
</g>
<!-- Node25&#45;&gt;Node14 -->
<g id="edge28_Node000025_Node000014" class="edge">
<title>Node25&#45;&gt;Node14</title>
<g id="a_edge28_Node000025_Node000014"><a xlink:title=" ">
<path fill="none" stroke="#63b8ff" d="M737.16,-79.5C624.96,-76.17 347.44,-64.88 117.88,-30.5 112.61,-29.71 107.13,-28.72 101.69,-27.64"/>
<polygon fill="#63b8ff" stroke="#63b8ff" points="102.67,-24.27 92.16,-25.62 101.22,-31.12 102.67,-24.27"/>
</a>
</g>
</g>
<!-- Node25&#45;&gt;Node15 -->
<g id="edge29_Node000025_Node000015" class="edge">
<title>Node25&#45;&gt;Node15</title>
<g id="a_edge29_Node000025_Node000015"><a xlink:title=" ">
<path fill="none" stroke="#63b8ff" d="M737.23,-77.39C646.11,-71.01 448.34,-55.63 271.81,-30.84"/>
<polygon fill="#63b8ff" stroke="#63b8ff" points="272.37,-27.38 261.98,-29.44 271.39,-34.31 272.37,-27.38"/>
</a>
</g>
</g>
<!-- Node25&#45;&gt;Node16 -->
<g id="edge31_Node000025_Node000016" class="edge">
<title>Node25&#45;&gt;Node16</title>
<g id="a_edge31_Node000025_Node000016"><a xlink:title=" ">
<path fill="none" stroke="#63b8ff" d="M737.22,-76.14C661.19,-68.82 513.22,-53.03 388.88,-30.5 384.5,-29.71 379.96,-28.8 375.43,-27.83"/>
<polygon fill="#63b8ff" stroke="#63b8ff" points="376.28,-24.43 365.75,-25.66 374.75,-31.26 376.28,-24.43"/>
</a>
</g>
</g>
<!-- Node25&#45;&gt;Node17 -->
<g id="edge32_Node000025_Node000017" class="edge">
<title>Node25&#45;&gt;Node17</title>
<g id="a_edge32_Node000025_Node000017"><a xlink:title=" ">
<path fill="none" stroke="#63b8ff" d="M737.07,-71.89C682.54,-62.25 593.42,-46.11 516.88,-30.5 512.61,-29.63 508.18,-28.7 503.74,-27.75"/>
<polygon fill="#63b8ff" stroke="#63b8ff" points="504.77,-24.39 494.25,-25.69 503.28,-31.23 504.77,-24.39"/>
</a>
</g>
</g>
<!-- Node25&#45;&gt;Node18 -->
<g id="edge33_Node000025_Node000018" class="edge">
<title>Node25&#45;&gt;Node18</title>
<g id="a_edge33_Node000025_Node000018"><a xlink:title=" ">
<path fill="none" stroke="#63b8ff" d="M743.85,-66.11C710.15,-54.91 664.14,-39.61 632,-28.93"/>
<polygon fill="#63b8ff" stroke="#63b8ff" points="633.29,-25.67 622.69,-25.83 631.08,-32.31 633.29,-25.67"/>
</a>
</g>
</g>
<!-- Node25&#45;&gt;Node19 -->
<g id="edge34_Node000025_Node000019" class="edge">
<title>Node25&#45;&gt;Node19</title>
<g id="a_edge34_Node000025_Node000019"><a xlink:title=" ">
<path fill="none" stroke="#63b8ff" d="M780.39,-66.11C775.69,-56.93 769.59,-45 764.53,-35.11"/>
<polygon fill="#63b8ff" stroke="#63b8ff" points="767.75,-33.73 760.08,-26.42 761.52,-36.92 767.75,-33.73"/>
</a>
</g>
</g>
<!-- Node25&#45;&gt;Node20 -->
<g id="edge35_Node000025_Node000020" class="edge">
<title>Node25&#45;&gt;Node20</title>
<g id="a_edge35_Node000025_Node000020"><a xlink:title=" ">
<path fill="none" stroke="#63b8ff" d="M816.69,-66.11C834.23,-57.21 856.86,-45.72 875.97,-36.01"/>
<polygon fill="#63b8ff" stroke="#63b8ff" points="877.49,-39.16 884.82,-31.51 874.32,-32.92 877.49,-39.16"/>
</a>
</g>
</g>
<!-- Node25&#45;&gt;Node21 -->
<g id="edge36_Node000025_Node000021" class="edge">
<title>Node25&#45;&gt;Node21</title>
<g id="a_edge36_Node000025_Node000021"><a xlink:title=" ">
<path fill="none" stroke="#63b8ff" d="M838.6,-72.25C853.47,-70.05 869.79,-67.9 884.88,-66.5 1289.53,-28.99 1397.53,-76.53 1803.61,-30.76"/>
<polygon fill="#63b8ff" stroke="#63b8ff" points="1803.74,-34.27 1813.28,-29.66 1802.95,-27.32 1803.74,-34.27"/>
</a>
</g>
</g>
<!-- Node25&#45;&gt;Node22 -->
<g id="edge37_Node000025_Node000022" class="edge">
<title>Node25&#45;&gt;Node22</title>
<g id="a_edge37_Node000025_Node000022"><a xlink:title=" ">
<path fill="none" stroke="#63b8ff" d="M838.53,-68.69C880.65,-58.67 941.08,-44.29 988,-33.12"/>
<polygon fill="#63b8ff" stroke="#63b8ff" points="988.62,-36.57 997.54,-30.85 987,-29.76 988.62,-36.57"/>
</a>
</g>
</g>
<!-- Node25&#45;&gt;Node23 -->
<g id="edge38_Node000025_Node000023" class="edge">
<title>Node25&#45;&gt;Node23</title>
<g id="a_edge38_Node000025_Node000023"><a xlink:title=" ">
<path fill="none" stroke="#63b8ff" d="M838.41,-68.86C842.95,-67.98 847.49,-67.18 851.88,-66.5 1027.31,-39.31 1076.65,-55.91 1255.72,-30.69"/>
<polygon fill="#63b8ff" stroke="#63b8ff" points="1255.96,-34.19 1265.36,-29.31 1254.97,-27.26 1255.96,-34.19"/>
</a>
</g>
</g>
<!-- Node25&#45;&gt;Node24 -->
<g id="edge39_Node000025_Node000024" class="edge">
<title>Node25&#45;&gt;Node24</title>
<g id="a_edge39_Node000025_Node000024"><a xlink:title=" ">
<path fill="none" stroke="#63b8ff" d="M838.63,-72.55C853.5,-70.35 869.81,-68.13 884.88,-66.5 1108.44,-42.27 1169.37,-60.15 1394.75,-30.81"/>
<polygon fill="#63b8ff" stroke="#63b8ff" points="1395,-34.31 1404.45,-29.53 1394.08,-27.37 1395,-34.31"/>
</a>
</g>
</g>
<!-- Node26 -->
<g id="Node000026" class="node">
<title>Node26</title>
<g id="a_Node000026"><a xlink:href="_op_interfaces_8h_8inc.html" target="_top" xlink:title=" ">
<polygon fill="white" stroke="#666666" points="1249.25,-30.5 1136.5,-30.5 1136.5,0 1249.25,0 1249.25,-30.5"/>
<text text-anchor="start" x="1144.5" y="-17" font-family="Helvetica,sans-Serif" font-size="10.00">zklang/Dialect/ZML</text>
<text text-anchor="middle" x="1192.88" y="-5.75" font-family="Helvetica,sans-Serif" font-size="10.00">/IR/OpInterfaces.h.inc</text>
</a>
</g>
</g>
<!-- Node25&#45;&gt;Node26 -->
<g id="edge40_Node000025_Node000026" class="edge">
<title>Node25&#45;&gt;Node26</title>
<g id="a_edge40_Node000025_Node000026"><a xlink:title=" ">
<path fill="none" stroke="#63b8ff" d="M838.45,-69.05C842.98,-68.14 847.5,-67.27 851.88,-66.5 969.71,-45.71 1003.46,-51.17 1124.82,-30.75"/>
<polygon fill="#63b8ff" stroke="#63b8ff" points="1125.29,-34.22 1134.56,-29.09 1124.11,-27.32 1125.29,-34.22"/>
</a>
</g>
</g>
<!-- Node27&#45;&gt;Node21 -->
<g id="edge46_Node000027_Node000021" class="edge">
<title>Node27&#45;&gt;Node21</title>
<g id="a_edge46_Node000027_Node000021"><a xlink:title=" ">
<path fill="none" stroke="#63b8ff" d="M1382.66,-142.49C1460.34,-134.68 1604.62,-117.88 1651.88,-97 1671.68,-88.25 1670.54,-76.25 1689.88,-66.5 1710.06,-56.33 1760.1,-43.31 1803.9,-33.07"/>
<polygon fill="#63b8ff" stroke="#63b8ff" points="1804.45,-36.53 1813.41,-30.87 1802.88,-29.71 1804.45,-36.53"/>
</a>
</g>
</g>
<!-- Node27&#45;&gt;Node25 -->
<g id="edge48_Node000027_Node000025" class="edge">
<title>Node27&#45;&gt;Node25</title>
<g id="a_edge48_Node000027_Node000025"><a xlink:title=" ">
<path fill="none" stroke="#63b8ff" d="M1281.2,-142.12C1198.24,-133.59 1028.34,-115.6 884.88,-97 873.61,-95.54 861.62,-93.87 850.06,-92.2"/>
<polygon fill="#63b8ff" stroke="#63b8ff" points="850.57,-88.74 840.17,-90.76 849.56,-95.67 850.57,-88.74"/>
</a>
</g>
</g>
<!-- Node28 -->
<g id="Node000028" class="node">
<title>Node28</title>
<g id="a_Node000028"><a xlink:title=" ">
<polygon fill="#e0e0e0" stroke="#999999" points="1013.62,-91.38 894.12,-91.38 894.12,-72.12 1013.62,-72.12 1013.62,-91.38"/>
<text text-anchor="middle" x="953.88" y="-77.88" font-family="Helvetica,sans-Serif" font-size="10.00">llvm/ADT/TypeSwitch.h</text>
</a>
</g>
</g>
<!-- Node27&#45;&gt;Node28 -->
<g id="edge42_Node000027_Node000028" class="edge">
<title>Node27&#45;&gt;Node28</title>
<g id="a_edge42_Node000027_Node000028"><a xlink:title=" ">
<path fill="none" stroke="#63b8ff" d="M1281.18,-139.68C1219.87,-130.37 1113.6,-113.74 1022.88,-97 1017.94,-96.09 1012.81,-95.1 1007.68,-94.09"/>
<polygon fill="#63b8ff" stroke="#63b8ff" points="1008.49,-90.69 998,-92.15 1007.12,-97.55 1008.49,-90.69"/>
</a>
</g>
</g>
<!-- Node29 -->
<g id="Node000029" class="node">
<title>Node29</title>
<g id="a_Node000029"><a xlink:title=" ">
<polygon fill="#e0e0e0" stroke="#999999" points="1141.75,-91.38 1032,-91.38 1032,-72.12 1141.75,-72.12 1141.75,-91.38"/>
<text text-anchor="middle" x="1086.88" y="-77.88" font-family="Helvetica,sans-Serif" font-size="10.00">mlir/IR/BuiltinTypes.h</text>
</a>
</g>
</g>
<!-- Node27&#45;&gt;Node29 -->
<g id="edge43_Node000027_Node000029" class="edge">
<title>Node27&#45;&gt;Node29</title>
<g id="a_edge43_Node000027_Node000029"><a xlink:title=" ">
<path fill="none" stroke="#63b8ff" d="M1281.11,-133.89C1237.33,-122.36 1174.67,-105.86 1132.47,-94.75"/>
<polygon fill="#63b8ff" stroke="#63b8ff" points="1133.43,-91.39 1122.87,-92.23 1131.65,-98.16 1133.43,-91.39"/>
</a>
</g>
</g>
<!-- Node30 -->
<g id="Node000030" class="node">
<title>Node30</title>
<g id="a_Node000030"><a xlink:title=" ">
<polygon fill="#e0e0e0" stroke="#999999" points="1272.25,-91.38 1159.5,-91.38 1159.5,-72.12 1272.25,-72.12 1272.25,-91.38"/>
<text text-anchor="middle" x="1215.88" y="-77.88" font-family="Helvetica,sans-Serif" font-size="10.00">mlir/IR/SymbolTable.h</text>
</a>
</g>
</g>
<!-- Node27&#45;&gt;Node30 -->
<g id="edge44_Node000027_Node000030" class="edge">
<title>Node27&#45;&gt;Node30</title>
<g id="a_edge44_Node000027_Node000030"><a xlink:title=" ">
<path fill="none" stroke="#63b8ff" d="M1305.55,-132.61C1286.58,-122.06 1261.08,-107.88 1242.12,-97.34"/>
<polygon fill="#63b8ff" stroke="#63b8ff" points="1243.84,-94.3 1233.4,-92.5 1240.44,-100.41 1243.84,-94.3"/>
</a>
</g>
</g>
<!-- Node31 -->
<g id="Node000031" class="node">
<title>Node31</title>
<g id="a_Node000031"><a xlink:title=" ">
<polygon fill="#e0e0e0" stroke="#999999" points="1373.25,-91.38 1290.5,-91.38 1290.5,-72.12 1373.25,-72.12 1373.25,-91.38"/>
<text text-anchor="middle" x="1331.88" y="-77.88" font-family="Helvetica,sans-Serif" font-size="10.00">mlir/IR/Types.h</text>
</a>
</g>
</g>
<!-- Node27&#45;&gt;Node31 -->
<g id="edge45_Node000027_Node000031" class="edge">
<title>Node27&#45;&gt;Node31</title>
<g id="a_edge45_Node000027_Node000031"><a xlink:title=" ">
<path fill="none" stroke="#63b8ff" d="M1331.88,-132.61C1331.88,-123.83 1331.88,-112.52 1331.88,-102.9"/>
<polygon fill="#63b8ff" stroke="#63b8ff" points="1335.38,-103.09 1331.88,-93.09 1328.38,-103.09 1335.38,-103.09"/>
</a>
</g>
</g>
<!-- Node32 -->
<g id="Node000032" class="node">
<title>Node32</title>
<g id="a_Node000032"><a xlink:title=" ">
<polygon fill="#e0e0e0" stroke="#999999" points="1524.75,-97 1391,-97 1391,-66.5 1524.75,-66.5 1524.75,-97"/>
<text text-anchor="start" x="1399" y="-83.5" font-family="Helvetica,sans-Serif" font-size="10.00">mlir/Interfaces/MemorySlot</text>
<text text-anchor="middle" x="1457.88" y="-72.25" font-family="Helvetica,sans-Serif" font-size="10.00">Interfaces.h</text>
</a>
</g>
</g>
<!-- Node27&#45;&gt;Node32 -->
<g id="edge47_Node000027_Node000032" class="edge">
<title>Node27&#45;&gt;Node32</title>
<g id="a_edge47_Node000027_Node000032"><a xlink:title=" ">
<path fill="none" stroke="#63b8ff" d="M1360.47,-132.61C1377.87,-123.71 1400.31,-112.22 1419.28,-102.51"/>
<polygon fill="#63b8ff" stroke="#63b8ff" points="1420.74,-105.69 1428.05,-98.02 1417.55,-99.46 1420.74,-105.69"/>
</a>
</g>
</g>
<!-- Node27&#45;&gt;Node33 -->
<g id="edge49_Node000027_Node000033" class="edge">
<title>Node27&#45;&gt;Node33</title>
<g id="a_edge49_Node000027_Node000033"><a xlink:title=" ">
<path fill="none" stroke="#63b8ff" d="M1382.64,-141.28C1451.4,-132.91 1577.84,-116.5 1684.88,-97 1685.69,-96.85 1686.52,-96.7 1687.35,-96.54"/>
<polygon fill="#63b8ff" stroke="#63b8ff" points="1687.67,-100.05 1696.81,-94.68 1686.32,-93.18 1687.67,-100.05"/>
</a>
</g>
</g>
<!-- Node34 -->
<g id="Node000034" class="node">
<title>Node34</title>
<g id="a_Node000034"><a xlink:href="_types_8h_8inc.html" target="_top" xlink:title=" ">
<polygon fill="white" stroke="#666666" points="1643.25,-97 1542.5,-97 1542.5,-66.5 1643.25,-66.5 1643.25,-97"/>
<text text-anchor="start" x="1550.5" y="-83.5" font-family="Helvetica,sans-Serif" font-size="10.00">zklang/Dialect/ZML</text>
<text text-anchor="middle" x="1592.88" y="-72.25" font-family="Helvetica,sans-Serif" font-size="10.00">/IR/Types.h.inc</text>
</a>
</g>
</g>
<!-- Node27&#45;&gt;Node34 -->
<g id="edge50_Node000027_Node000034" class="edge">
<title>Node27&#45;&gt;Node34</title>
<g id="a_edge50_Node000027_Node000034"><a xlink:title=" ">
<path fill="none" stroke="#63b8ff" d="M1382.51,-134.74C1425.01,-124.23 1485.88,-109.19 1531.21,-97.99"/>
<polygon fill="#63b8ff" stroke="#63b8ff" points="1532.05,-101.39 1540.91,-95.59 1530.37,-94.59 1532.05,-101.39"/>
</a>
</g>
</g>
</g>
</svg>
