<?xml version="1.0" encoding="UTF-8" standalone="no"?>
<!DOCTYPE svg PUBLIC "-//W3C//DTD SVG 1.1//EN"
 "http://www.w3.org/Graphics/SVG/1.1/DTD/svg11.dtd">
<!-- Generated by graphviz version 12.2.1 (20241206.2353)
 -->
<!-- Title: include/zklang/Passes/PassDetail.h Pages: 1 -->
<svg width="447pt" height="172pt"
 viewBox="0.00 0.00 446.75 171.50" xmlns="http://www.w3.org/2000/svg" xmlns:xlink="http://www.w3.org/1999/xlink">
<g id="graph0" class="graph" transform="scale(1 1) rotate(0) translate(4 167.5)">
<title>include/zklang/Passes/PassDetail.h</title>
<!-- Node1 -->
<g id="Node000001" class="node">
<title>Node1</title>
<g id="a_Node000001"><a xlink:title=" ">
<polygon fill="#999999" stroke="#666666" points="284,-163.5 169.75,-163.5 169.75,-133 284,-133 284,-163.5"/>
<text text-anchor="start" x="177.75" y="-150" font-family="Helvetica,sans-Serif" font-size="10.00">include/zklang/Passes</text>
<text text-anchor="middle" x="226.88" y="-138.75" font-family="Helvetica,sans-Serif" font-size="10.00">/PassDetail.h</text>
</a>
</g>
</g>
<!-- Node2 -->
<g id="Node000002" class="node">
<title>Node2</title>
<g id="a_Node000002"><a xlink:href="_convert_zhl_to_zml_2_pass_8h.html" target="_top" xlink:title=" ">
<polygon fill="white" stroke="#666666" points="136.75,-97 9,-97 9,-66.5 136.75,-66.5 136.75,-97"/>
<text text-anchor="start" x="17" y="-83.5" font-family="Helvetica,sans-Serif" font-size="10.00">include/zklang/Passes</text>
<text text-anchor="middle" x="72.88" y="-72.25" font-family="Helvetica,sans-Serif" font-size="10.00">/ConvertZhlToZml/Pass.h</text>
</a>
</g>
</g>
<!-- Node1&#45;&gt;Node2 -->
<g id="edge1_Node000001_Node000002" class="edge">
<title>Node1&#45;&gt;Node2</title>
<g id="a_edge1_Node000001_Node000002"><a xlink:title=" ">
<path fill="none" stroke="#63b8ff" d="M181.51,-128.25C158.01,-118.41 129.75,-106.57 107.95,-97.44"/>
<polygon fill="#63b8ff" stroke="#63b8ff" points="179.96,-131.39 190.53,-132.03 182.66,-124.94 179.96,-131.39"/>
</a>
</g>
</g>
<!-- Node4 -->
<g id="Node000004" class="node">
<title>Node4</title>
<g id="a_Node000004"><a xlink:href="_convert_zml_to_llzk_2_pass_8h.html" target="_top" xlink:title=" ">
<polygon fill="white" stroke="#666666" points="293,-97 160.75,-97 160.75,-66.5 293,-66.5 293,-97"/>
<text text-anchor="start" x="168.75" y="-83.5" font-family="Helvetica,sans-Serif" font-size="10.00">include/zklang/Passes</text>
<text text-anchor="middle" x="226.88" y="-72.25" font-family="Helvetica,sans-Serif" font-size="10.00">/ConvertZmlToLlzk/Pass.h</text>
</a>
</g>
</g>
<!-- Node1&#45;&gt;Node4 -->
<g id="edge3_Node000001_Node000004" class="edge">
<title>Node1&#45;&gt;Node4</title>
<g id="a_edge3_Node000001_Node000004"><a xlink:title=" ">
<path fill="none" stroke="#63b8ff" d="M226.88,-121.31C226.88,-113.14 226.88,-104.41 226.88,-97.33"/>
<polygon fill="#63b8ff" stroke="#63b8ff" points="223.38,-121.1 226.88,-131.1 230.38,-121.1 223.38,-121.1"/>
</a>
</g>
</g>
<!-- Node6 -->
<g id="Node000006" class="node">
<title>Node6</title>
<g id="a_Node000006"><a xlink:href="_strip_tests_8cpp.html" target="_top" xlink:title=" ">
<polygon fill="white" stroke="#666666" points="438.75,-91.38 311,-91.38 311,-72.12 438.75,-72.12 438.75,-91.38"/>
<text text-anchor="middle" x="374.88" y="-77.88" font-family="Helvetica,sans-Serif" font-size="10.00">lib/Passes/StripTests.cpp</text>
</a>
</g>
</g>
<!-- Node1&#45;&gt;Node6 -->
<g id="edge5_Node000001_Node000006" class="edge">
<title>Node1&#45;&gt;Node6</title>
<g id="a_edge5_Node000001_Node000006"><a xlink:title=" ">
<path fill="none" stroke="#63b8ff" d="M270.67,-128.16C298.28,-116.13 332.67,-101.15 354.2,-91.76"/>
<polygon fill="#63b8ff" stroke="#63b8ff" points="269.61,-124.81 261.85,-132.01 272.41,-131.22 269.61,-124.81"/>
</a>
</g>
</g>
<!-- Node3 -->
<g id="Node000003" class="node">
<title>Node3</title>
<g id="a_Node000003"><a xlink:href="_convert_zhl_to_zml_2_pass_8cpp.html" target="_top" xlink:title=" ">
<polygon fill="white" stroke="#666666" points="139.75,-30.5 0,-30.5 0,0 139.75,0 139.75,-30.5"/>
<text text-anchor="start" x="8" y="-17" font-family="Helvetica,sans-Serif" font-size="10.00">lib/Passes/ConvertZhlToZml</text>
<text text-anchor="middle" x="69.88" y="-5.75" font-family="Helvetica,sans-Serif" font-size="10.00">/Pass.cpp</text>
</a>
</g>
</g>
<!-- Node2&#45;&gt;Node3 -->
<g id="edge2_Node000002_Node000003" class="edge">
<title>Node2&#45;&gt;Node3</title>
<g id="a_edge2_Node000002_Node000003"><a xlink:title=" ">
<path fill="none" stroke="#63b8ff" d="M71.67,-54.81C71.29,-46.64 70.88,-37.91 70.55,-30.83"/>
<polygon fill="#63b8ff" stroke="#63b8ff" points="68.16,-54.78 72.12,-64.6 75.16,-54.45 68.16,-54.78"/>
</a>
</g>
</g>
<!-- Node5 -->
<g id="Node000005" class="node">
<title>Node5</title>
<g id="a_Node000005"><a xlink:href="_convert_zml_to_llzk_2_pass_8cpp.html" target="_top" xlink:title=" ">
<polygon fill="white" stroke="#666666" points="302,-30.5 157.75,-30.5 157.75,0 302,0 302,-30.5"/>
<text text-anchor="start" x="165.75" y="-17" font-family="Helvetica,sans-Serif" font-size="10.00">lib/Passes/ConvertZmlToLlzk</text>
<text text-anchor="middle" x="229.88" y="-5.75" font-family="Helvetica,sans-Serif" font-size="10.00">/Pass.cpp</text>
</a>
</g>
</g>
<!-- Node4&#45;&gt;Node5 -->
<g id="edge4_Node000004_Node000005" class="edge">
<title>Node4&#45;&gt;Node5</title>
<g id="a_edge4_Node000004_Node000005"><a xlink:title=" ">
<path fill="none" stroke="#63b8ff" d="M228.08,-54.81C228.46,-46.64 228.87,-37.91 229.2,-30.83"/>
<polygon fill="#63b8ff" stroke="#63b8ff" points="224.59,-54.45 227.63,-64.6 231.59,-54.78 224.59,-54.45"/>
</a>
</g>
</g>
</g>
</svg>
