<?xml version="1.0" encoding="UTF-8" standalone="no"?>
<!DOCTYPE svg PUBLIC "-//W3C//DTD SVG 1.1//EN"
 "http://www.w3.org/Graphics/SVG/1.1/DTD/svg11.dtd">
<!-- Generated by graphviz version 12.2.1 (20241206.2353)
 -->
<!-- Title: build/include/zklang/Passes/Passes.h.inc Pages: 1 -->
<svg width="749pt" height="238pt"
 viewBox="0.00 0.00 748.75 238.00" xmlns="http://www.w3.org/2000/svg" xmlns:xlink="http://www.w3.org/1999/xlink">
<g id="graph0" class="graph" transform="scale(1 1) rotate(0) translate(4 234)">
<title>build/include/zklang/Passes/Passes.h.inc</title>
<!-- Node1 -->
<g id="Node000001" class="node">
<title>Node1</title>
<g id="a_Node000001"><a xlink:title=" ">
<polygon fill="#999999" stroke="#666666" points="505.88,-230 393.88,-230 393.88,-199.5 505.88,-199.5 505.88,-230"/>
<text text-anchor="start" x="401.88" y="-216.5" font-family="Helvetica,sans-Serif" font-size="10.00">build/include/zklang</text>
<text text-anchor="middle" x="449.88" y="-205.25" font-family="Helvetica,sans-Serif" font-size="10.00">/Passes/Passes.h.inc</text>
</a>
</g>
</g>
<!-- Node2 -->
<g id="Node000002" class="node">
<title>Node2</title>
<g id="a_Node000002"><a xlink:href="_passes_2_pass_detail_8h.html" target="_top" xlink:title=" ">
<polygon fill="white" stroke="#666666" points="358,-163.5 243.75,-163.5 243.75,-133 358,-133 358,-163.5"/>
<text text-anchor="start" x="251.75" y="-150" font-family="Helvetica,sans-Serif" font-size="10.00">include/zklang/Passes</text>
<text text-anchor="middle" x="300.88" y="-138.75" font-family="Helvetica,sans-Serif" font-size="10.00">/PassDetail.h</text>
</a>
</g>
</g>
<!-- Node1&#45;&gt;Node2 -->
<g id="edge1_Node000001_Node000002" class="edge">
<title>Node1&#45;&gt;Node2</title>
<g id="a_edge1_Node000001_Node000002"><a xlink:title=" ">
<path fill="none" stroke="#63b8ff" d="M405.67,-194.62C383,-184.8 355.81,-173.03 334.81,-163.94"/>
<polygon fill="#63b8ff" stroke="#63b8ff" points="404.11,-197.75 414.68,-198.51 406.89,-191.33 404.11,-197.75"/>
</a>
</g>
</g>
<!-- Node8 -->
<g id="Node000008" class="node">
<title>Node8</title>
<g id="a_Node000008"><a xlink:href="_passes_2_passes_8h.html" target="_top" xlink:title=" ">
<polygon fill="white" stroke="#666666" points="583,-163.5 468.75,-163.5 468.75,-133 583,-133 583,-163.5"/>
<text text-anchor="start" x="476.75" y="-150" font-family="Helvetica,sans-Serif" font-size="10.00">include/zklang/Passes</text>
<text text-anchor="middle" x="525.88" y="-138.75" font-family="Helvetica,sans-Serif" font-size="10.00">/Passes.h</text>
</a>
</g>
</g>
<!-- Node1&#45;&gt;Node8 -->
<g id="edge7_Node000001_Node000008" class="edge">
<title>Node1&#45;&gt;Node8</title>
<g id="a_edge7_Node000001_Node000008"><a xlink:title=" ">
<path fill="none" stroke="#63b8ff" d="M475.81,-191.74C486.67,-182.53 498.99,-172.06 508.7,-163.83"/>
<polygon fill="#63b8ff" stroke="#63b8ff" points="473.63,-189 468.27,-198.13 478.16,-194.33 473.63,-189"/>
</a>
</g>
</g>
<!-- Node3 -->
<g id="Node000003" class="node">
<title>Node3</title>
<g id="a_Node000003"><a xlink:href="_convert_zhl_to_zml_2_pass_8h.html" target="_top" xlink:title=" ">
<polygon fill="white" stroke="#666666" points="139.75,-97 12,-97 12,-66.5 139.75,-66.5 139.75,-97"/>
<text text-anchor="start" x="20" y="-83.5" font-family="Helvetica,sans-Serif" font-size="10.00">include/zklang/Passes</text>
<text text-anchor="middle" x="75.88" y="-72.25" font-family="Helvetica,sans-Serif" font-size="10.00">/ConvertZhlToZml/Pass.h</text>
</a>
</g>
</g>
<!-- Node2&#45;&gt;Node3 -->
<g id="edge2_Node000002_Node000003" class="edge">
<title>Node2&#45;&gt;Node3</title>
<g id="a_edge2_Node000002_Node000003"><a xlink:title=" ">
<path fill="none" stroke="#63b8ff" d="M238.91,-129.49C203.72,-119.4 160.21,-106.93 126.99,-97.4"/>
<polygon fill="#63b8ff" stroke="#63b8ff" points="237.51,-132.72 248.08,-132.12 239.43,-126 237.51,-132.72"/>
</a>
</g>
</g>
<!-- Node5 -->
<g id="Node000005" class="node">
<title>Node5</title>
<g id="a_Node000005"><a xlink:href="_convert_zml_to_llzk_2_pass_8h.html" target="_top" xlink:title=" ">
<polygon fill="white" stroke="#666666" points="293,-97 160.75,-97 160.75,-66.5 293,-66.5 293,-97"/>
<text text-anchor="start" x="168.75" y="-83.5" font-family="Helvetica,sans-Serif" font-size="10.00">include/zklang/Passes</text>
<text text-anchor="middle" x="226.88" y="-72.25" font-family="Helvetica,sans-Serif" font-size="10.00">/ConvertZmlToLlzk/Pass.h</text>
</a>
</g>
</g>
<!-- Node2&#45;&gt;Node5 -->
<g id="edge4_Node000002_Node000005" class="edge">
<title>Node2&#45;&gt;Node5</title>
<g id="a_edge4_Node000002_Node000005"><a xlink:title=" ">
<path fill="none" stroke="#63b8ff" d="M275.62,-125.24C265.05,-116.03 253.05,-105.56 243.6,-97.33"/>
<polygon fill="#63b8ff" stroke="#63b8ff" points="273.1,-127.69 282.94,-131.62 277.7,-122.41 273.1,-127.69"/>
</a>
</g>
</g>
<!-- Node7 -->
<g id="Node000007" class="node">
<title>Node7</title>
<g id="a_Node000007"><a xlink:href="_strip_tests_8cpp.html" target="_top" xlink:title=" ">
<polygon fill="white" stroke="#666666" points="438.75,-91.38 311,-91.38 311,-72.12 438.75,-72.12 438.75,-91.38"/>
<text text-anchor="middle" x="374.88" y="-77.88" font-family="Helvetica,sans-Serif" font-size="10.00">lib/Passes/StripTests.cpp</text>
</a>
</g>
</g>
<!-- Node2&#45;&gt;Node7 -->
<g id="edge6_Node000002_Node000007" class="edge">
<title>Node2&#45;&gt;Node7</title>
<g id="a_edge6_Node000002_Node000007"><a xlink:title=" ">
<path fill="none" stroke="#63b8ff" d="M325.98,-125.37C339.25,-113.8 354.81,-100.24 364.75,-91.57"/>
<polygon fill="#63b8ff" stroke="#63b8ff" points="324.05,-122.41 318.81,-131.62 328.65,-127.69 324.05,-122.41"/>
</a>
</g>
</g>
<!-- Node4 -->
<g id="Node000004" class="node">
<title>Node4</title>
<g id="a_Node000004"><a xlink:href="_convert_zhl_to_zml_2_pass_8cpp.html" target="_top" xlink:title=" ">
<polygon fill="white" stroke="#666666" points="139.75,-30.5 0,-30.5 0,0 139.75,0 139.75,-30.5"/>
<text text-anchor="start" x="8" y="-17" font-family="Helvetica,sans-Serif" font-size="10.00">lib/Passes/ConvertZhlToZml</text>
<text text-anchor="middle" x="69.88" y="-5.75" font-family="Helvetica,sans-Serif" font-size="10.00">/Pass.cpp</text>
</a>
</g>
</g>
<!-- Node3&#45;&gt;Node4 -->
<g id="edge3_Node000003_Node000004" class="edge">
<title>Node3&#45;&gt;Node4</title>
<g id="a_edge3_Node000003_Node000004"><a xlink:title=" ">
<path fill="none" stroke="#63b8ff" d="M73.46,-54.81C72.7,-46.64 71.89,-37.91 71.23,-30.83"/>
<polygon fill="#63b8ff" stroke="#63b8ff" points="69.96,-54.97 74.37,-64.61 76.93,-54.33 69.96,-54.97"/>
</a>
</g>
</g>
<!-- Node6 -->
<g id="Node000006" class="node">
<title>Node6</title>
<g id="a_Node000006"><a xlink:href="_convert_zml_to_llzk_2_pass_8cpp.html" target="_top" xlink:title=" ">
<polygon fill="white" stroke="#666666" points="302,-30.5 157.75,-30.5 157.75,0 302,0 302,-30.5"/>
<text text-anchor="start" x="165.75" y="-17" font-family="Helvetica,sans-Serif" font-size="10.00">lib/Passes/ConvertZmlToLlzk</text>
<text text-anchor="middle" x="229.88" y="-5.75" font-family="Helvetica,sans-Serif" font-size="10.00">/Pass.cpp</text>
</a>
</g>
</g>
<!-- Node5&#45;&gt;Node6 -->
<g id="edge5_Node000005_Node000006" class="edge">
<title>Node5&#45;&gt;Node6</title>
<g id="a_edge5_Node000005_Node000006"><a xlink:title=" ">
<path fill="none" stroke="#63b8ff" d="M228.08,-54.81C228.46,-46.64 228.87,-37.91 229.2,-30.83"/>
<polygon fill="#63b8ff" stroke="#63b8ff" points="224.59,-54.45 227.63,-64.6 231.59,-54.78 224.59,-54.45"/>
</a>
</g>
</g>
<!-- Node9 -->
<g id="Node000009" class="node">
<title>Node9</title>
<g id="a_Node000009"><a xlink:href="_driver_8cpp.html" target="_top" xlink:title=" ">
<polygon fill="white" stroke="#666666" points="595.38,-91.38 456.38,-91.38 456.38,-72.12 595.38,-72.12 595.38,-91.38"/>
<text text-anchor="middle" x="525.88" y="-77.88" font-family="Helvetica,sans-Serif" font-size="10.00">lib/Frontends/ZIR/Driver.cpp</text>
</a>
</g>
</g>
<!-- Node8&#45;&gt;Node9 -->
<g id="edge8_Node000008_Node000009" class="edge">
<title>Node8&#45;&gt;Node9</title>
<g id="a_edge8_Node000008_Node000009"><a xlink:title=" ">
<path fill="none" stroke="#63b8ff" d="M525.88,-121.34C525.88,-110.76 525.88,-99.25 525.88,-91.57"/>
<polygon fill="#63b8ff" stroke="#63b8ff" points="522.38,-121.1 525.88,-131.1 529.38,-121.1 522.38,-121.1"/>
</a>
</g>
</g>
<!-- Node10 -->
<g id="Node000010" class="node">
<title>Node10</title>
<g id="a_Node000010"><a xlink:href="zklang-opt_2main_8cpp.html" target="_top" xlink:title=" ">
<polygon fill="white" stroke="#666666" points="740.75,-91.38 613,-91.38 613,-72.12 740.75,-72.12 740.75,-91.38"/>
<text text-anchor="middle" x="676.88" y="-77.88" font-family="Helvetica,sans-Serif" font-size="10.00">tools/zklang&#45;opt/main.cpp</text>
</a>
</g>
</g>
<!-- Node8&#45;&gt;Node10 -->
<g id="edge9_Node000008_Node000010" class="edge">
<title>Node8&#45;&gt;Node10</title>
<g id="a_edge9_Node000008_Node000010"><a xlink:title=" ">
<path fill="none" stroke="#63b8ff" d="M570.56,-128.16C598.73,-116.13 633.81,-101.15 655.78,-91.76"/>
<polygon fill="#63b8ff" stroke="#63b8ff" points="569.35,-124.87 561.53,-132.02 572.1,-131.31 569.35,-124.87"/>
</a>
</g>
</g>
</g>
</svg>
