<?xml version="1.0" encoding="UTF-8" standalone="no"?>
<!DOCTYPE svg PUBLIC "-//W3C//DTD SVG 1.1//EN"
 "http://www.w3.org/Graphics/SVG/1.1/DTD/svg11.dtd">
<!-- Generated by graphviz version 12.2.1 (20241206.2353)
 -->
<!-- Title: include/zklang/Passes/Passes.h Pages: 1 -->
<svg width="2388pt" height="305pt"
 viewBox="0.00 0.00 2387.51 304.50" xmlns="http://www.w3.org/2000/svg" xmlns:xlink="http://www.w3.org/1999/xlink">
<g id="graph0" class="graph" transform="scale(1 1) rotate(0) translate(4 300.5)">
<title>include/zklang/Passes/Passes.h</title>
<!-- Node1 -->
<g id="Node000001" class="node">
<title>Node1</title>
<g id="a_Node000001"><a xlink:title=" ">
<polygon fill="#999999" stroke="#666666" points="913.38,-296.5 799.13,-296.5 799.13,-266 913.38,-266 913.38,-296.5"/>
<text text-anchor="start" x="807.13" y="-283" font-family="Helvetica,sans-Serif" font-size="10.00">include/zklang/Passes</text>
<text text-anchor="middle" x="856.26" y="-271.75" font-family="Helvetica,sans-Serif" font-size="10.00">/Passes.h</text>
</a>
</g>
</g>
<!-- Node2 -->
<g id="Node000002" class="node">
<title>Node2</title>
<g id="a_Node000002"><a xlink:title=" ">
<polygon fill="#e0e0e0" stroke="#999999" points="172.51,-230 68.01,-230 68.01,-199.5 172.51,-199.5 172.51,-230"/>
<text text-anchor="start" x="76.01" y="-216.5" font-family="Helvetica,sans-Serif" font-size="10.00">llzk/Dialect/LLZK/IR</text>
<text text-anchor="middle" x="120.26" y="-205.25" font-family="Helvetica,sans-Serif" font-size="10.00">/Dialect.h</text>
</a>
</g>
</g>
<!-- Node1&#45;&gt;Node2 -->
<g id="edge1_Node000001_Node000002" class="edge">
<title>Node1&#45;&gt;Node2</title>
<g id="a_edge1_Node000001_Node000002"><a xlink:title=" ">
<path fill="none" stroke="#63b8ff" d="M799.03,-278.98C684.07,-275.79 416.87,-265.1 183.8,-230.23"/>
<polygon fill="#63b8ff" stroke="#63b8ff" points="184.64,-226.82 174.23,-228.78 183.59,-233.74 184.64,-226.82"/>
</a>
</g>
</g>
<!-- Node3 -->
<g id="Node000003" class="node">
<title>Node3</title>
<g id="a_Node000003"><a xlink:title=" ">
<polygon fill="#e0e0e0" stroke="#999999" points="284.26,-230 190.26,-230 190.26,-199.5 284.26,-199.5 284.26,-230"/>
<text text-anchor="start" x="198.26" y="-216.5" font-family="Helvetica,sans-Serif" font-size="10.00">llzk/Dialect/Struct</text>
<text text-anchor="middle" x="237.26" y="-205.25" font-family="Helvetica,sans-Serif" font-size="10.00">/IR/Ops.h</text>
</a>
</g>
</g>
<!-- Node1&#45;&gt;Node3 -->
<g id="edge2_Node000001_Node000003" class="edge">
<title>Node1&#45;&gt;Node3</title>
<g id="a_edge2_Node000001_Node000003"><a xlink:title=" ">
<path fill="none" stroke="#63b8ff" d="M798.73,-278.16C698.4,-273.85 484.88,-261.74 295.77,-230.24"/>
<polygon fill="#63b8ff" stroke="#63b8ff" points="296.44,-226.81 285.99,-228.59 295.27,-233.71 296.44,-226.81"/>
</a>
</g>
</g>
<!-- Node4 -->
<g id="Node000004" class="node">
<title>Node4</title>
<g id="a_Node000004"><a xlink:title=" ">
<polygon fill="#e0e0e0" stroke="#999999" points="235.13,-30.5 131.38,-30.5 131.38,0 235.13,0 235.13,-30.5"/>
<text text-anchor="start" x="139.38" y="-17" font-family="Helvetica,sans-Serif" font-size="10.00">mlir/Dialect/Func/IR</text>
<text text-anchor="middle" x="183.26" y="-5.75" font-family="Helvetica,sans-Serif" font-size="10.00">/FuncOps.h</text>
</a>
</g>
</g>
<!-- Node1&#45;&gt;Node4 -->
<g id="edge3_Node000001_Node000004" class="edge">
<title>Node1&#45;&gt;Node4</title>
<g id="a_edge3_Node000001_Node000004"><a xlink:title=" ">
<path fill="none" stroke="#63b8ff" d="M819.12,-265.68C704.92,-220.88 359,-85.19 231.3,-35.09"/>
<polygon fill="#63b8ff" stroke="#63b8ff" points="232.7,-31.88 222.11,-31.49 230.14,-38.4 232.7,-31.88"/>
</a>
</g>
</g>
<!-- Node5 -->
<g id="Node000005" class="node">
<title>Node5</title>
<g id="a_Node000005"><a xlink:title=" ">
<polygon fill="#e0e0e0" stroke="#999999" points="2200.01,-24.88 2098.51,-24.88 2098.51,-5.63 2200.01,-5.63 2200.01,-24.88"/>
<text text-anchor="middle" x="2149.26" y="-11.38" font-family="Helvetica,sans-Serif" font-size="10.00">mlir/IR/BuiltinOps.h</text>
</a>
</g>
</g>
<!-- Node1&#45;&gt;Node5 -->
<g id="edge4_Node000001_Node000005" class="edge">
<title>Node1&#45;&gt;Node5</title>
<g id="a_edge4_Node000001_Node000005"><a xlink:title=" ">
<path fill="none" stroke="#63b8ff" d="M913.74,-279.14C1118.23,-274.49 1808.8,-252.38 2008.26,-163.5 2069.84,-136.06 2117.84,-67.94 2138.38,-34.86"/>
<polygon fill="#63b8ff" stroke="#63b8ff" points="2141.32,-36.76 2143.49,-26.39 2135.32,-33.15 2141.32,-36.76"/>
</a>
</g>
</g>
<!-- Node6 -->
<g id="Node000006" class="node">
<title>Node6</title>
<g id="a_Node000006"><a xlink:title=" ">
<polygon fill="#e0e0e0" stroke="#999999" points="2220.76,-224.38 2129.76,-224.38 2129.76,-205.12 2220.76,-205.12 2220.76,-224.38"/>
<text text-anchor="middle" x="2175.26" y="-210.88" font-family="Helvetica,sans-Serif" font-size="10.00">mlir/Pass/Pass.h</text>
</a>
</g>
</g>
<!-- Node1&#45;&gt;Node6 -->
<g id="edge5_Node000001_Node000006" class="edge">
<title>Node1&#45;&gt;Node6</title>
<g id="a_edge5_Node000001_Node000006"><a xlink:title=" ">
<path fill="none" stroke="#63b8ff" d="M913.78,-279.43C1127.87,-276.15 1878.36,-262.55 2115.26,-230 2120.49,-229.28 2125.92,-228.31 2131.3,-227.21"/>
<polygon fill="#63b8ff" stroke="#63b8ff" points="2131.66,-230.72 2140.67,-225.15 2130.15,-223.88 2131.66,-230.72"/>
</a>
</g>
</g>
<!-- Node7 -->
<g id="Node000007" class="node">
<title>Node7</title>
<g id="a_Node000007"><a xlink:href="_dialect_8h.html" target="_top" xlink:title=" ">
<polygon fill="white" stroke="#666666" points="402.63,-230 301.88,-230 301.88,-199.5 402.63,-199.5 402.63,-230"/>
<text text-anchor="start" x="309.88" y="-216.5" font-family="Helvetica,sans-Serif" font-size="10.00">zklang/Dialect/ZML</text>
<text text-anchor="middle" x="352.26" y="-205.25" font-family="Helvetica,sans-Serif" font-size="10.00">/IR/Dialect.h</text>
</a>
</g>
</g>
<!-- Node1&#45;&gt;Node7 -->
<g id="edge6_Node000001_Node000007" class="edge">
<title>Node1&#45;&gt;Node7</title>
<g id="a_edge6_Node000001_Node000007"><a xlink:title=" ">
<path fill="none" stroke="#63b8ff" d="M798.93,-272.91C703.51,-260.7 512.86,-236.3 414.36,-223.7"/>
<polygon fill="#63b8ff" stroke="#63b8ff" points="414.97,-220.25 404.61,-222.45 414.08,-227.19 414.97,-220.25"/>
</a>
</g>
</g>
<!-- Node12 -->
<g id="Node000012" class="node">
<title>Node12</title>
<g id="a_Node000012"><a xlink:href="_ops_8h.html" target="_top" xlink:title=" ">
<polygon fill="white" stroke="#666666" points="1474.63,-230 1373.88,-230 1373.88,-199.5 1474.63,-199.5 1474.63,-230"/>
<text text-anchor="start" x="1381.88" y="-216.5" font-family="Helvetica,sans-Serif" font-size="10.00">zklang/Dialect/ZML</text>
<text text-anchor="middle" x="1424.26" y="-205.25" font-family="Helvetica,sans-Serif" font-size="10.00">/IR/Ops.h</text>
</a>
</g>
</g>
<!-- Node1&#45;&gt;Node12 -->
<g id="edge12_Node000001_Node000012" class="edge">
<title>Node1&#45;&gt;Node12</title>
<g id="a_edge12_Node000001_Node000012"><a xlink:title=" ">
<path fill="none" stroke="#63b8ff" d="M913.85,-273.71C1021.31,-261.51 1251.49,-235.37 1362.23,-222.79"/>
<polygon fill="#63b8ff" stroke="#63b8ff" points="1362.49,-226.29 1372.03,-221.68 1361.7,-219.33 1362.49,-226.29"/>
</a>
</g>
</g>
<!-- Node35 -->
<g id="Node000035" class="node">
<title>Node35</title>
<g id="a_Node000035"><a xlink:href="_passes_2_passes_8h_8inc.html" target="_top" xlink:title=" ">
<polygon fill="white" stroke="#666666" points="2379.51,-224.38 2239.01,-224.38 2239.01,-205.12 2379.51,-205.12 2379.51,-224.38"/>
<text text-anchor="middle" x="2309.26" y="-210.88" font-family="Helvetica,sans-Serif" font-size="10.00">zklang/Passes/Passes.h.inc</text>
</a>
</g>
</g>
<!-- Node1&#45;&gt;Node35 -->
<g id="edge54_Node000001_Node000035" class="edge">
<title>Node1&#45;&gt;Node35</title>
<g id="a_edge54_Node000001_Node000035"><a xlink:title=" ">
<path fill="none" stroke="#63b8ff" d="M913.87,-279.23C1140.22,-275.07 1968.91,-258.21 2230.26,-230 2237.98,-229.17 2246.09,-228.02 2254.04,-226.74"/>
<polygon fill="#63b8ff" stroke="#63b8ff" points="2254.37,-230.23 2263.64,-225.1 2253.19,-223.33 2254.37,-230.23"/>
</a>
</g>
</g>
<!-- Node7&#45;&gt;Node4 -->
<g id="edge7_Node000007_Node000004" class="edge">
<title>Node7&#45;&gt;Node4</title>
<g id="a_edge7_Node000007_Node000004"><a xlink:title=" ">
<path fill="none" stroke="#63b8ff" d="M301.48,-201.11C298.71,-200.54 295.95,-200 293.26,-199.5 231.35,-188.09 53.85,-210.76 12.26,-163.5 -33.35,-111.68 64.82,-61.44 130.47,-35.15"/>
<polygon fill="#63b8ff" stroke="#63b8ff" points="131.65,-38.45 139.69,-31.54 129.1,-31.93 131.65,-38.45"/>
</a>
</g>
</g>
<!-- Node8 -->
<g id="Node000008" class="node">
<title>Node8</title>
<g id="a_Node000008"><a xlink:title=" ">
<polygon fill="#e0e0e0" stroke="#999999" points="341.01,-163.5 245.51,-163.5 245.51,-133 341.01,-133 341.01,-163.5"/>
<text text-anchor="start" x="253.51" y="-150" font-family="Helvetica,sans-Serif" font-size="10.00">mlir/Dialect/Index</text>
<text text-anchor="middle" x="293.26" y="-138.75" font-family="Helvetica,sans-Serif" font-size="10.00">/IR/IndexDialect.h</text>
</a>
</g>
</g>
<!-- Node7&#45;&gt;Node8 -->
<g id="edge8_Node000007_Node000008" class="edge">
<title>Node7&#45;&gt;Node8</title>
<g id="a_edge8_Node000007_Node000008"><a xlink:title=" ">
<path fill="none" stroke="#63b8ff" d="M338.87,-199.11C331.63,-191.2 322.52,-181.24 314.35,-172.3"/>
<polygon fill="#63b8ff" stroke="#63b8ff" points="316.95,-169.96 307.61,-164.94 311.78,-174.69 316.95,-169.96"/>
</a>
</g>
</g>
<!-- Node9 -->
<g id="Node000009" class="node">
<title>Node9</title>
<g id="a_Node000009"><a xlink:title=" ">
<polygon fill="#e0e0e0" stroke="#999999" points="461.38,-163.5 359.13,-163.5 359.13,-133 461.38,-133 461.38,-163.5"/>
<text text-anchor="start" x="367.13" y="-150" font-family="Helvetica,sans-Serif" font-size="10.00">mlir/Dialect/SCF/IR</text>
<text text-anchor="middle" x="410.26" y="-138.75" font-family="Helvetica,sans-Serif" font-size="10.00">/SCF.h</text>
</a>
</g>
</g>
<!-- Node7&#45;&gt;Node9 -->
<g id="edge9_Node000007_Node000009" class="edge">
<title>Node7&#45;&gt;Node9</title>
<g id="a_edge9_Node000007_Node000009"><a xlink:title=" ">
<path fill="none" stroke="#63b8ff" d="M365.42,-199.11C372.54,-191.2 381.49,-181.24 389.53,-172.3"/>
<polygon fill="#63b8ff" stroke="#63b8ff" points="392.05,-174.73 396.14,-164.95 386.85,-170.05 392.05,-174.73"/>
</a>
</g>
</g>
<!-- Node10 -->
<g id="Node000010" class="node">
<title>Node10</title>
<g id="a_Node000010"><a xlink:title=" ">
<polygon fill="#e0e0e0" stroke="#999999" points="108.88,-157.88 21.63,-157.88 21.63,-138.62 108.88,-138.62 108.88,-157.88"/>
<text text-anchor="middle" x="65.26" y="-144.38" font-family="Helvetica,sans-Serif" font-size="10.00">mlir/IR/Dialect.h</text>
</a>
</g>
</g>
<!-- Node7&#45;&gt;Node10 -->
<g id="edge10_Node000007_Node000010" class="edge">
<title>Node7&#45;&gt;Node10</title>
<g id="a_edge10_Node000007_Node000010"><a xlink:title=" ">
<path fill="none" stroke="#63b8ff" d="M301.43,-201.36C298.67,-200.72 295.93,-200.1 293.26,-199.5 215.76,-182.18 195.52,-181.82 118.26,-163.5 115.28,-162.79 112.21,-162.04 109.12,-161.26"/>
<polygon fill="#63b8ff" stroke="#63b8ff" points="110,-157.87 99.44,-158.75 108.24,-164.65 110,-157.87"/>
</a>
</g>
</g>
<!-- Node11 -->
<g id="Node000011" class="node">
<title>Node11</title>
<g id="a_Node000011"><a xlink:href="_dialect_8h_8inc.html" target="_top" xlink:title=" ">
<polygon fill="white" stroke="#666666" points="227.63,-163.5 126.88,-163.5 126.88,-133 227.63,-133 227.63,-163.5"/>
<text text-anchor="start" x="134.88" y="-150" font-family="Helvetica,sans-Serif" font-size="10.00">zklang/Dialect/ZML</text>
<text text-anchor="middle" x="177.26" y="-138.75" font-family="Helvetica,sans-Serif" font-size="10.00">/IR/Dialect.h.inc</text>
</a>
</g>
</g>
<!-- Node7&#45;&gt;Node11 -->
<g id="edge11_Node000007_Node000011" class="edge">
<title>Node7&#45;&gt;Node11</title>
<g id="a_edge11_Node000007_Node000011"><a xlink:title=" ">
<path fill="none" stroke="#63b8ff" d="M312.55,-199.11C287.46,-189.87 254.82,-177.84 227.89,-167.91"/>
<polygon fill="#63b8ff" stroke="#63b8ff" points="229.13,-164.64 218.53,-164.46 226.71,-171.21 229.13,-164.64"/>
</a>
</g>
</g>
<!-- Node12&#45;&gt;Node4 -->
<g id="edge17_Node000012_Node000004" class="edge">
<title>Node12&#45;&gt;Node4</title>
<g id="a_edge17_Node000012_Node000004"><a xlink:title=" ">
<path fill="none" stroke="#63b8ff" d="M1373.48,-212.55C1206.54,-208.33 681.32,-192.86 611.26,-163.5 581.5,-151.03 532.52,-80.09 503.26,-66.5 400.76,-18.91 360.45,-49.92 246.79,-30.97"/>
<polygon fill="#63b8ff" stroke="#63b8ff" points="247.5,-27.55 237.04,-29.25 246.28,-34.44 247.5,-27.55"/>
</a>
</g>
</g>
<!-- Node12&#45;&gt;Node5 -->
<g id="edge18_Node000012_Node000005" class="edge">
<title>Node12&#45;&gt;Node5</title>
<g id="a_edge18_Node000012_Node000005"><a xlink:title=" ">
<path fill="none" stroke="#63b8ff" d="M1474.93,-212.86C1592.48,-210.18 1880.49,-199.99 1969.26,-163.5 2032.05,-137.69 2034.66,-109.43 2087.26,-66.5 2101.32,-55.02 2117.22,-42.14 2129.4,-32.29"/>
<polygon fill="#63b8ff" stroke="#63b8ff" points="2131.51,-35.08 2137.09,-26.07 2127.11,-29.64 2131.51,-35.08"/>
</a>
</g>
</g>
<!-- Node13 -->
<g id="Node000013" class="node">
<title>Node13</title>
<g id="a_Node000013"><a xlink:title=" ">
<polygon fill="#e0e0e0" stroke="#999999" points="1814.01,-24.88 1706.51,-24.88 1706.51,-5.63 1814.01,-5.63 1814.01,-24.88"/>
<text text-anchor="middle" x="1760.26" y="-11.38" font-family="Helvetica,sans-Serif" font-size="10.00">llvm/ADT/ArrayRef.h</text>
</a>
</g>
</g>
<!-- Node12&#45;&gt;Node13 -->
<g id="edge13_Node000012_Node000013" class="edge">
<title>Node12&#45;&gt;Node13</title>
<g id="a_edge13_Node000012_Node000013"><a xlink:title=" ">
<path fill="none" stroke="#63b8ff" d="M1475.01,-212.09C1590.98,-207.78 1867.53,-194.35 1895.26,-163.5 1924.08,-131.44 1919.86,-101.9 1895.26,-66.5 1884.99,-51.72 1843.6,-37.68 1809.32,-28.21"/>
<polygon fill="#63b8ff" stroke="#63b8ff" points="1810.52,-24.91 1799.95,-25.7 1808.71,-31.67 1810.52,-24.91"/>
</a>
</g>
</g>
<!-- Node14 -->
<g id="Node000014" class="node">
<title>Node14</title>
<g id="a_Node000014"><a xlink:title=" ">
<polygon fill="#e0e0e0" stroke="#999999" points="1952.76,-24.88 1831.76,-24.88 1831.76,-5.63 1952.76,-5.63 1952.76,-24.88"/>
<text text-anchor="middle" x="1892.26" y="-11.38" font-family="Helvetica,sans-Serif" font-size="10.00">llvm/ADT/SmallVector.h</text>
</a>
</g>
</g>
<!-- Node12&#45;&gt;Node14 -->
<g id="edge14_Node000012_Node000014" class="edge">
<title>Node12&#45;&gt;Node14</title>
<g id="a_edge14_Node000012_Node000014"><a xlink:title=" ">
<path fill="none" stroke="#63b8ff" d="M1474.8,-212.37C1594.76,-208.57 1888.89,-196 1918.26,-163.5 1950.79,-127.49 1921.94,-65.54 1904.01,-34.75"/>
<polygon fill="#63b8ff" stroke="#63b8ff" points="1907.21,-33.27 1899.03,-26.54 1901.23,-36.9 1907.21,-33.27"/>
</a>
</g>
</g>
<!-- Node15 -->
<g id="Node000015" class="node">
<title>Node15</title>
<g id="a_Node000015"><a xlink:title=" ">
<polygon fill="#e0e0e0" stroke="#999999" points="2080.13,-24.88 1970.38,-24.88 1970.38,-5.63 2080.13,-5.63 2080.13,-24.88"/>
<text text-anchor="middle" x="2025.26" y="-11.38" font-family="Helvetica,sans-Serif" font-size="10.00">llvm/ADT/StringRef.h</text>
</a>
</g>
</g>
<!-- Node12&#45;&gt;Node15 -->
<g id="edge15_Node000012_Node000015" class="edge">
<title>Node12&#45;&gt;Node15</title>
<g id="a_edge15_Node000012_Node000015"><a xlink:title=" ">
<path fill="none" stroke="#63b8ff" d="M1474.83,-214.53C1589.11,-215.4 1863.24,-212.2 1939.26,-163.5 1985.9,-133.62 2010.3,-68.76 2020.06,-36.02"/>
<polygon fill="#63b8ff" stroke="#63b8ff" points="2023.36,-37.21 2022.69,-26.63 2016.62,-35.32 2023.36,-37.21"/>
</a>
</g>
</g>
<!-- Node16 -->
<g id="Node000016" class="node">
<title>Node16</title>
<g id="a_Node000016"><a xlink:title=" ">
<polygon fill="#e0e0e0" stroke="#999999" points="385.76,-30.5 252.76,-30.5 252.76,0 385.76,0 385.76,-30.5"/>
<text text-anchor="start" x="260.76" y="-17" font-family="Helvetica,sans-Serif" font-size="10.00">mlir/Bytecode/BytecodeOp</text>
<text text-anchor="middle" x="319.26" y="-5.75" font-family="Helvetica,sans-Serif" font-size="10.00">Interface.h</text>
</a>
</g>
</g>
<!-- Node12&#45;&gt;Node16 -->
<g id="edge16_Node000012_Node000016" class="edge">
<title>Node12&#45;&gt;Node16</title>
<g id="a_edge16_Node000012_Node000016"><a xlink:title=" ">
<path fill="none" stroke="#63b8ff" d="M1373.47,-212.28C1212.67,-207.38 721.48,-190.34 655.26,-163.5 624.43,-151 571.01,-81.38 541.26,-66.5 528.16,-59.95 455.83,-44.14 397.24,-31.99"/>
<polygon fill="#63b8ff" stroke="#63b8ff" points="398.08,-28.59 387.58,-30 396.67,-35.45 398.08,-28.59"/>
</a>
</g>
</g>
<!-- Node17 -->
<g id="Node000017" class="node">
<title>Node17</title>
<g id="a_Node000017"><a xlink:title=" ">
<polygon fill="#e0e0e0" stroke="#999999" points="514.51,-24.88 404.01,-24.88 404.01,-5.63 514.51,-5.63 514.51,-24.88"/>
<text text-anchor="middle" x="459.26" y="-11.38" font-family="Helvetica,sans-Serif" font-size="10.00">mlir/IR/OpDefinition.h</text>
</a>
</g>
</g>
<!-- Node12&#45;&gt;Node17 -->
<g id="edge19_Node000012_Node000017" class="edge">
<title>Node12&#45;&gt;Node17</title>
<g id="a_edge19_Node000012_Node000017"><a xlink:title=" ">
<path fill="none" stroke="#63b8ff" d="M1373.55,-213.81C1231.66,-213.42 833.05,-208.24 711.26,-163.5 642.92,-138.4 642.61,-102.37 579.26,-66.5 552.67,-51.45 520.67,-38.27 496.41,-29.19"/>
<polygon fill="#63b8ff" stroke="#63b8ff" points="497.86,-26 487.27,-25.84 495.45,-32.57 497.86,-26"/>
</a>
</g>
</g>
<!-- Node18 -->
<g id="Node000018" class="node">
<title>Node18</title>
<g id="a_Node000018"><a xlink:title=" ">
<polygon fill="#e0e0e0" stroke="#999999" points="668.26,-24.88 532.26,-24.88 532.26,-5.63 668.26,-5.63 668.26,-24.88"/>
<text text-anchor="middle" x="600.26" y="-11.38" font-family="Helvetica,sans-Serif" font-size="10.00">mlir/IR/OpImplementation.h</text>
</a>
</g>
</g>
<!-- Node12&#45;&gt;Node18 -->
<g id="edge20_Node000012_Node000018" class="edge">
<title>Node12&#45;&gt;Node18</title>
<g id="a_edge20_Node000012_Node000018"><a xlink:title=" ">
<path fill="none" stroke="#63b8ff" d="M1373.82,-213.97C1239.76,-213.91 877.37,-209.38 768.26,-163.5 699.89,-134.75 639.93,-66.8 613.95,-34.24"/>
<polygon fill="#63b8ff" stroke="#63b8ff" points="616.86,-32.28 607.95,-26.55 611.34,-36.59 616.86,-32.28"/>
</a>
</g>
</g>
<!-- Node19 -->
<g id="Node000019" class="node">
<title>Node19</title>
<g id="a_Node000019"><a xlink:title=" ">
<polygon fill="#e0e0e0" stroke="#999999" points="836.38,-24.88 686.13,-24.88 686.13,-5.63 836.38,-5.63 836.38,-24.88"/>
<text text-anchor="middle" x="761.26" y="-11.38" font-family="Helvetica,sans-Serif" font-size="10.00">mlir/Interfaces/CallInterfaces.h</text>
</a>
</g>
</g>
<!-- Node12&#45;&gt;Node19 -->
<g id="edge21_Node000012_Node000019" class="edge">
<title>Node12&#45;&gt;Node19</title>
<g id="a_edge21_Node000012_Node000019"><a xlink:title=" ">
<path fill="none" stroke="#63b8ff" d="M1373.52,-214.16C1245.65,-214.48 913.42,-210.6 815.26,-163.5 778.55,-145.89 767.33,-134.82 752.26,-97 744.36,-77.18 748.94,-52.58 754.01,-35.78"/>
<polygon fill="#63b8ff" stroke="#63b8ff" points="757.25,-37.13 757.13,-26.54 750.61,-34.89 757.25,-37.13"/>
</a>
</g>
</g>
<!-- Node20 -->
<g id="Node000020" class="node">
<title>Node20</title>
<g id="a_Node000020"><a xlink:title=" ">
<polygon fill="#e0e0e0" stroke="#999999" points="1268.13,-30.5 1134.38,-30.5 1134.38,0 1268.13,0 1268.13,-30.5"/>
<text text-anchor="start" x="1142.38" y="-17" font-family="Helvetica,sans-Serif" font-size="10.00">mlir/Interfaces/ControlFlow</text>
<text text-anchor="middle" x="1201.26" y="-5.75" font-family="Helvetica,sans-Serif" font-size="10.00">Interfaces.h</text>
</a>
</g>
</g>
<!-- Node12&#45;&gt;Node20 -->
<g id="edge22_Node000012_Node000020" class="edge">
<title>Node12&#45;&gt;Node20</title>
<g id="a_edge22_Node000012_Node000020"><a xlink:title=" ">
<path fill="none" stroke="#63b8ff" d="M1474.9,-210.18C1593.1,-200.13 1870.43,-165.53 1778.26,-66.5 1742.02,-27.56 1370.01,-36.64 1279.56,-30.31"/>
<polygon fill="#63b8ff" stroke="#63b8ff" points="1280.12,-26.85 1269.84,-29.39 1279.46,-33.81 1280.12,-26.85"/>
</a>
</g>
</g>
<!-- Node21 -->
<g id="Node000021" class="node">
<title>Node21</title>
<g id="a_Node000021"><a xlink:title=" ">
<polygon fill="#e0e0e0" stroke="#999999" points="986.01,-30.5 854.51,-30.5 854.51,0 986.01,0 986.01,-30.5"/>
<text text-anchor="start" x="862.51" y="-17" font-family="Helvetica,sans-Serif" font-size="10.00">mlir/Interfaces/DataLayout</text>
<text text-anchor="middle" x="920.26" y="-5.75" font-family="Helvetica,sans-Serif" font-size="10.00">Interfaces.h</text>
</a>
</g>
</g>
<!-- Node12&#45;&gt;Node21 -->
<g id="edge23_Node000012_Node000021" class="edge">
<title>Node12&#45;&gt;Node21</title>
<g id="a_edge23_Node000012_Node000021"><a xlink:title=" ">
<path fill="none" stroke="#63b8ff" d="M1373.44,-213.05C1231.83,-209.89 838.18,-192.53 762.26,-97 753.82,-86.39 754.26,-77.44 762.26,-66.5 772.54,-52.45 808.39,-40.45 843.35,-31.71"/>
<polygon fill="#63b8ff" stroke="#63b8ff" points="843.77,-35.21 852.67,-29.46 842.12,-28.4 843.77,-35.21"/>
</a>
</g>
</g>
<!-- Node22 -->
<g id="Node000022" class="node">
<title>Node22</title>
<g id="a_Node000022"><a xlink:title=" ">
<polygon fill="#e0e0e0" stroke="#999999" points="1404.63,-30.5 1285.88,-30.5 1285.88,0 1404.63,0 1404.63,-30.5"/>
<text text-anchor="start" x="1293.88" y="-17" font-family="Helvetica,sans-Serif" font-size="10.00">mlir/Interfaces/Function</text>
<text text-anchor="middle" x="1345.26" y="-5.75" font-family="Helvetica,sans-Serif" font-size="10.00">Interfaces.h</text>
</a>
</g>
</g>
<!-- Node12&#45;&gt;Node22 -->
<g id="edge24_Node000012_Node000022" class="edge">
<title>Node12&#45;&gt;Node22</title>
<g id="a_edge24_Node000012_Node000022"><a xlink:title=" ">
<path fill="none" stroke="#63b8ff" d="M1474.84,-210.85C1574.68,-204.61 1789.37,-188.41 1811.26,-163.5 1839.71,-131.11 1840.34,-98.33 1811.26,-66.5 1783,-35.58 1492.95,-36.8 1416.29,-30.4"/>
<polygon fill="#63b8ff" stroke="#63b8ff" points="1416.72,-26.93 1406.4,-29.32 1415.96,-33.89 1416.72,-26.93"/>
</a>
</g>
</g>
<!-- Node23 -->
<g id="Node000023" class="node">
<title>Node23</title>
<g id="a_Node000023"><a xlink:title=" ">
<polygon fill="#e0e0e0" stroke="#999999" points="1544.13,-30.5 1422.38,-30.5 1422.38,0 1544.13,0 1544.13,-30.5"/>
<text text-anchor="start" x="1430.38" y="-17" font-family="Helvetica,sans-Serif" font-size="10.00">mlir/Interfaces/InferType</text>
<text text-anchor="middle" x="1483.26" y="-5.75" font-family="Helvetica,sans-Serif" font-size="10.00">OpInterface.h</text>
</a>
</g>
</g>
<!-- Node12&#45;&gt;Node23 -->
<g id="edge25_Node000012_Node000023" class="edge">
<title>Node12&#45;&gt;Node23</title>
<g id="a_edge25_Node000012_Node000023"><a xlink:title=" ">
<path fill="none" stroke="#63b8ff" d="M1474.84,-211.47C1582.12,-206.13 1824.73,-191.09 1849.26,-163.5 1877.9,-131.28 1877.84,-98.77 1849.26,-66.5 1807.38,-19.22 1635.85,-39.01 1555.46,-30.45"/>
<polygon fill="#63b8ff" stroke="#63b8ff" points="1556.16,-27.01 1545.79,-29.17 1555.24,-33.95 1556.16,-27.01"/>
</a>
</g>
</g>
<!-- Node24 -->
<g id="Node000024" class="node">
<title>Node24</title>
<g id="a_Node000024"><a xlink:title=" ">
<polygon fill="#e0e0e0" stroke="#999999" points="1688.76,-30.5 1561.76,-30.5 1561.76,0 1688.76,0 1688.76,-30.5"/>
<text text-anchor="start" x="1569.76" y="-17" font-family="Helvetica,sans-Serif" font-size="10.00">mlir/Interfaces/SideEffect</text>
<text text-anchor="middle" x="1625.26" y="-5.75" font-family="Helvetica,sans-Serif" font-size="10.00">Interfaces.h</text>
</a>
</g>
</g>
<!-- Node12&#45;&gt;Node24 -->
<g id="edge26_Node000012_Node000024" class="edge">
<title>Node12&#45;&gt;Node24</title>
<g id="a_edge26_Node000012_Node000024"><a xlink:title=" ">
<path fill="none" stroke="#63b8ff" d="M1475.03,-211.79C1586.76,-206.97 1846.14,-192.71 1872.26,-163.5 1900.99,-131.36 1899.53,-99.88 1872.26,-66.5 1871.56,-65.64 1772.33,-45.65 1699.87,-31.14"/>
<polygon fill="#63b8ff" stroke="#63b8ff" points="1700.92,-27.78 1690.43,-29.25 1699.55,-34.65 1700.92,-27.78"/>
</a>
</g>
</g>
<!-- Node25 -->
<g id="Node000025" class="node">
<title>Node25</title>
<g id="a_Node000025"><a xlink:href="_op_interfaces_8h.html" target="_top" xlink:title=" ">
<polygon fill="white" stroke="#666666" points="883.63,-97 782.88,-97 782.88,-66.5 883.63,-66.5 883.63,-97"/>
<text text-anchor="start" x="790.88" y="-83.5" font-family="Helvetica,sans-Serif" font-size="10.00">zklang/Dialect/ZML</text>
<text text-anchor="middle" x="833.26" y="-72.25" font-family="Helvetica,sans-Serif" font-size="10.00">/IR/OpInterfaces.h</text>
</a>
</g>
</g>
<!-- Node12&#45;&gt;Node25 -->
<g id="edge27_Node000012_Node000025" class="edge">
<title>Node12&#45;&gt;Node25</title>
<g id="a_edge27_Node000012_Node000025"><a xlink:title=" ">
<path fill="none" stroke="#63b8ff" d="M1373.57,-203C1280.76,-183.23 1077.08,-139.46 895.21,-97.66"/>
<polygon fill="#63b8ff" stroke="#63b8ff" points="896.1,-94.27 885.57,-95.44 894.53,-101.09 896.1,-94.27"/>
</a>
</g>
</g>
<!-- Node27 -->
<g id="Node000027" class="node">
<title>Node27</title>
<g id="a_Node000027"><a xlink:href="_types_8h.html" target="_top" xlink:title=" ">
<polygon fill="white" stroke="#666666" points="1331.63,-163.5 1230.88,-163.5 1230.88,-133 1331.63,-133 1331.63,-163.5"/>
<text text-anchor="start" x="1238.88" y="-150" font-family="Helvetica,sans-Serif" font-size="10.00">zklang/Dialect/ZML</text>
<text text-anchor="middle" x="1281.26" y="-138.75" font-family="Helvetica,sans-Serif" font-size="10.00">/IR/Types.h</text>
</a>
</g>
</g>
<!-- Node12&#45;&gt;Node27 -->
<g id="edge43_Node000012_Node000027" class="edge">
<title>Node12&#45;&gt;Node27</title>
<g id="a_edge43_Node000012_Node000027"><a xlink:title=" ">
<path fill="none" stroke="#63b8ff" d="M1391.81,-199.11C1371.7,-190.04 1345.64,-178.29 1323.87,-168.47"/>
<polygon fill="#63b8ff" stroke="#63b8ff" points="1325.51,-165.37 1314.96,-164.45 1322.63,-171.75 1325.51,-165.37"/>
</a>
</g>
</g>
<!-- Node33 -->
<g id="Node000033" class="node">
<title>Node33</title>
<g id="a_Node000033"><a xlink:href="_ops_8h_8inc.html" target="_top" xlink:title=" ">
<polygon fill="white" stroke="#666666" points="1769.63,-97 1668.88,-97 1668.88,-66.5 1769.63,-66.5 1769.63,-97"/>
<text text-anchor="start" x="1676.88" y="-83.5" font-family="Helvetica,sans-Serif" font-size="10.00">zklang/Dialect/ZML</text>
<text text-anchor="middle" x="1719.26" y="-72.25" font-family="Helvetica,sans-Serif" font-size="10.00">/IR/Ops.h.inc</text>
</a>
</g>
</g>
<!-- Node12&#45;&gt;Node33 -->
<g id="edge53_Node000012_Node000033" class="edge">
<title>Node12&#45;&gt;Node33</title>
<g id="a_edge53_Node000012_Node000033"><a xlink:title=" ">
<path fill="none" stroke="#63b8ff" d="M1457.24,-199.1C1510.85,-175.3 1616.88,-128.21 1676.31,-101.82"/>
<polygon fill="#63b8ff" stroke="#63b8ff" points="1677.39,-105.17 1685.11,-97.92 1674.55,-98.78 1677.39,-105.17"/>
</a>
</g>
</g>
<!-- Node25&#45;&gt;Node4 -->
<g id="edge32_Node000025_Node000004" class="edge">
<title>Node25&#45;&gt;Node4</title>
<g id="a_edge32_Node000025_Node000004"><a xlink:title=" ">
<path fill="none" stroke="#63b8ff" d="M782.44,-78.96C681.76,-74.86 449.77,-62.7 246.7,-30.92"/>
<polygon fill="#63b8ff" stroke="#63b8ff" points="247.44,-27.49 237.02,-29.38 246.35,-34.41 247.44,-27.49"/>
</a>
</g>
</g>
<!-- Node25&#45;&gt;Node5 -->
<g id="edge33_Node000025_Node000005" class="edge">
<title>Node25&#45;&gt;Node5</title>
<g id="a_edge33_Node000025_Node000005"><a xlink:title=" ">
<path fill="none" stroke="#63b8ff" d="M883.98,-67.79C886.77,-67.3 889.54,-66.86 892.26,-66.5 1419.76,4.36 1561.62,-100.35 2089.26,-30.5 2094.55,-29.8 2100.06,-28.83 2105.5,-27.73"/>
<polygon fill="#63b8ff" stroke="#63b8ff" points="2105.98,-31.2 2114.99,-25.63 2104.48,-24.37 2105.98,-31.2"/>
</a>
</g>
</g>
<!-- Node25&#45;&gt;Node13 -->
<g id="edge28_Node000025_Node000013" class="edge">
<title>Node25&#45;&gt;Node13</title>
<g id="a_edge28_Node000025_Node000013"><a xlink:title=" ">
<path fill="none" stroke="#63b8ff" d="M883.99,-67.84C886.78,-67.34 889.55,-66.88 892.26,-66.5 1247.29,-16.17 1342.95,-78.86 1698.26,-30.5 1703.59,-29.77 1709.13,-28.81 1714.62,-27.72"/>
<polygon fill="#63b8ff" stroke="#63b8ff" points="1715.17,-31.18 1724.22,-25.67 1713.71,-24.34 1715.17,-31.18"/>
</a>
</g>
</g>
<!-- Node25&#45;&gt;Node14 -->
<g id="edge29_Node000025_Node000014" class="edge">
<title>Node25&#45;&gt;Node14</title>
<g id="a_edge29_Node000025_Node000014"><a xlink:title=" ">
<path fill="none" stroke="#63b8ff" d="M883.98,-67.82C886.77,-67.32 889.54,-66.88 892.26,-66.5 1302.42,-9.61 1412.21,-80.55 1823.26,-30.5 1829.64,-29.72 1836.3,-28.67 1842.87,-27.47"/>
<polygon fill="#63b8ff" stroke="#63b8ff" points="1843.12,-30.99 1852.27,-25.66 1841.79,-24.12 1843.12,-30.99"/>
</a>
</g>
</g>
<!-- Node25&#45;&gt;Node15 -->
<g id="edge30_Node000025_Node000015" class="edge">
<title>Node25&#45;&gt;Node15</title>
<g id="a_edge30_Node000025_Node000015"><a xlink:title=" ">
<path fill="none" stroke="#63b8ff" d="M883.98,-67.81C886.77,-67.31 889.54,-66.87 892.26,-66.5 1363.73,-2.31 1490.33,-91.26 1962.26,-30.5 1967.88,-29.78 1973.74,-28.78 1979.53,-27.65"/>
<polygon fill="#63b8ff" stroke="#63b8ff" points="1979.93,-31.14 1989,-25.66 1978.49,-24.29 1979.93,-31.14"/>
</a>
</g>
</g>
<!-- Node25&#45;&gt;Node16 -->
<g id="edge31_Node000025_Node000016" class="edge">
<title>Node25&#45;&gt;Node16</title>
<g id="a_edge31_Node000025_Node000016"><a xlink:title=" ">
<path fill="none" stroke="#63b8ff" d="M782.52,-76.11C702.84,-68.57 543.26,-52.42 397.32,-30.74"/>
<polygon fill="#63b8ff" stroke="#63b8ff" points="397.85,-27.28 387.44,-29.25 396.81,-34.2 397.85,-27.28"/>
</a>
</g>
</g>
<!-- Node25&#45;&gt;Node17 -->
<g id="edge34_Node000025_Node000017" class="edge">
<title>Node25&#45;&gt;Node17</title>
<g id="a_edge34_Node000025_Node000017"><a xlink:title=" ">
<path fill="none" stroke="#63b8ff" d="M782.63,-73.47C721.12,-64.41 614.28,-47.99 523.26,-30.5 518.73,-29.63 514.03,-28.68 509.33,-27.69"/>
<polygon fill="#63b8ff" stroke="#63b8ff" points="510.44,-24.35 499.92,-25.67 508.97,-31.19 510.44,-24.35"/>
</a>
</g>
</g>
<!-- Node25&#45;&gt;Node18 -->
<g id="edge35_Node000025_Node000018" class="edge">
<title>Node25&#45;&gt;Node18</title>
<g id="a_edge35_Node000025_Node000018"><a xlink:title=" ">
<path fill="none" stroke="#63b8ff" d="M782.41,-66.67C741.1,-55.24 683.43,-39.27 644.12,-28.39"/>
<polygon fill="#63b8ff" stroke="#63b8ff" points="645.08,-25.03 634.51,-25.73 643.21,-31.77 645.08,-25.03"/>
</a>
</g>
</g>
<!-- Node25&#45;&gt;Node19 -->
<g id="edge36_Node000025_Node000019" class="edge">
<title>Node25&#45;&gt;Node19</title>
<g id="a_edge36_Node000025_Node000019"><a xlink:title=" ">
<path fill="none" stroke="#63b8ff" d="M816.92,-66.11C805.79,-56.14 791.04,-42.93 779.52,-32.61"/>
<polygon fill="#63b8ff" stroke="#63b8ff" points="782.02,-30.15 772.23,-26.08 777.35,-35.36 782.02,-30.15"/>
</a>
</g>
</g>
<!-- Node25&#45;&gt;Node20 -->
<g id="edge37_Node000025_Node000020" class="edge">
<title>Node25&#45;&gt;Node20</title>
<g id="a_edge37_Node000025_Node000020"><a xlink:title=" ">
<path fill="none" stroke="#63b8ff" d="M884.05,-68.2C886.82,-67.6 889.57,-67.03 892.26,-66.5 991.54,-46.88 1020.04,-48.05 1122.93,-30.85"/>
<polygon fill="#63b8ff" stroke="#63b8ff" points="1123.37,-34.33 1132.65,-29.21 1122.21,-27.42 1123.37,-34.33"/>
</a>
</g>
</g>
<!-- Node25&#45;&gt;Node21 -->
<g id="edge38_Node000025_Node000021" class="edge">
<title>Node25&#45;&gt;Node21</title>
<g id="a_edge38_Node000025_Node000021"><a xlink:title=" ">
<path fill="none" stroke="#63b8ff" d="M853,-66.11C864.35,-57.7 878.8,-46.98 891.4,-37.64"/>
<polygon fill="#63b8ff" stroke="#63b8ff" points="893.43,-40.5 899.38,-31.73 889.26,-34.87 893.43,-40.5"/>
</a>
</g>
</g>
<!-- Node25&#45;&gt;Node22 -->
<g id="edge39_Node000025_Node000022" class="edge">
<title>Node25&#45;&gt;Node22</title>
<g id="a_edge39_Node000025_Node000022"><a xlink:title=" ">
<path fill="none" stroke="#63b8ff" d="M884.01,-68C886.79,-67.46 889.56,-66.95 892.26,-66.5 1058.14,-38.86 1105.31,-55.42 1274.31,-30.83"/>
<polygon fill="#63b8ff" stroke="#63b8ff" points="1274.75,-34.3 1284.13,-29.37 1273.72,-27.38 1274.75,-34.3"/>
</a>
</g>
</g>
<!-- Node25&#45;&gt;Node23 -->
<g id="edge40_Node000025_Node000023" class="edge">
<title>Node25&#45;&gt;Node23</title>
<g id="a_edge40_Node000025_Node000023"><a xlink:title=" ">
<path fill="none" stroke="#63b8ff" d="M884,-67.92C886.78,-67.4 889.55,-66.92 892.26,-66.5 1118.07,-31.68 1181.29,-60.78 1411.18,-30.64"/>
<polygon fill="#63b8ff" stroke="#63b8ff" points="1411.31,-34.16 1420.76,-29.36 1410.38,-27.22 1411.31,-34.16"/>
</a>
</g>
</g>
<!-- Node25&#45;&gt;Node24 -->
<g id="edge41_Node000025_Node000024" class="edge">
<title>Node25&#45;&gt;Node24</title>
<g id="a_edge41_Node000025_Node000024"><a xlink:title=" ">
<path fill="none" stroke="#63b8ff" d="M883.99,-67.87C886.78,-67.36 889.55,-66.9 892.26,-66.5 1179.66,-24.33 1259.32,-66.06 1550.02,-30.78"/>
<polygon fill="#63b8ff" stroke="#63b8ff" points="1550.35,-34.27 1559.84,-29.57 1549.49,-27.32 1550.35,-34.27"/>
</a>
</g>
</g>
<!-- Node26 -->
<g id="Node000026" class="node">
<title>Node26</title>
<g id="a_Node000026"><a xlink:href="_op_interfaces_8h_8inc.html" target="_top" xlink:title=" ">
<polygon fill="white" stroke="#666666" points="1116.63,-30.5 1003.88,-30.5 1003.88,0 1116.63,0 1116.63,-30.5"/>
<text text-anchor="start" x="1011.88" y="-17" font-family="Helvetica,sans-Serif" font-size="10.00">zklang/Dialect/ZML</text>
<text text-anchor="middle" x="1060.26" y="-5.75" font-family="Helvetica,sans-Serif" font-size="10.00">/IR/OpInterfaces.h.inc</text>
</a>
</g>
</g>
<!-- Node25&#45;&gt;Node26 -->
<g id="edge42_Node000025_Node000026" class="edge">
<title>Node25&#45;&gt;Node26</title>
<g id="a_edge42_Node000025_Node000026"><a xlink:title=" ">
<path fill="none" stroke="#63b8ff" d="M883.92,-66.36C917.55,-56.8 961.93,-44.19 997.75,-34.01"/>
<polygon fill="#63b8ff" stroke="#63b8ff" points="998.45,-37.45 1007.12,-31.35 996.54,-30.72 998.45,-37.45"/>
</a>
</g>
</g>
<!-- Node27&#45;&gt;Node21 -->
<g id="edge48_Node000027_Node000021" class="edge">
<title>Node27&#45;&gt;Node21</title>
<g id="a_edge48_Node000027_Node000021"><a xlink:title=" ">
<path fill="none" stroke="#63b8ff" d="M1230.75,-146.01C1108.51,-142.49 804.54,-130.43 774.26,-97 746.55,-66.41 794.91,-44.86 843.24,-31.76"/>
<polygon fill="#63b8ff" stroke="#63b8ff" points="843.91,-35.2 852.71,-29.31 842.15,-28.43 843.91,-35.2"/>
</a>
</g>
</g>
<!-- Node27&#45;&gt;Node25 -->
<g id="edge50_Node000027_Node000025" class="edge">
<title>Node27&#45;&gt;Node25</title>
<g id="a_edge50_Node000027_Node000025"><a xlink:title=" ">
<path fill="none" stroke="#63b8ff" d="M1230.63,-142.48C1158.25,-135.28 1020.85,-120.16 895,-97.39"/>
<polygon fill="#63b8ff" stroke="#63b8ff" points="895.99,-94.02 885.52,-95.66 894.73,-100.9 895.99,-94.02"/>
</a>
</g>
</g>
<!-- Node28 -->
<g id="Node000028" class="node">
<title>Node28</title>
<g id="a_Node000028"><a xlink:title=" ">
<polygon fill="#e0e0e0" stroke="#999999" points="1021.01,-91.38 901.51,-91.38 901.51,-72.12 1021.01,-72.12 1021.01,-91.38"/>
<text text-anchor="middle" x="961.26" y="-77.88" font-family="Helvetica,sans-Serif" font-size="10.00">llvm/ADT/TypeSwitch.h</text>
</a>
</g>
</g>
<!-- Node27&#45;&gt;Node28 -->
<g id="edge44_Node000027_Node000028" class="edge">
<title>Node27&#45;&gt;Node28</title>
<g id="a_edge44_Node000027_Node000028"><a xlink:title=" ">
<path fill="none" stroke="#63b8ff" d="M1230.76,-137.23C1180.06,-127.16 1099.72,-111.13 1030.26,-97 1025.67,-96.07 1020.92,-95.1 1016.15,-94.12"/>
<polygon fill="#63b8ff" stroke="#63b8ff" points="1017.03,-90.73 1006.53,-92.14 1015.62,-97.58 1017.03,-90.73"/>
</a>
</g>
</g>
<!-- Node29 -->
<g id="Node000029" class="node">
<title>Node29</title>
<g id="a_Node000029"><a xlink:title=" ">
<polygon fill="#e0e0e0" stroke="#999999" points="1149.13,-91.38 1039.38,-91.38 1039.38,-72.12 1149.13,-72.12 1149.13,-91.38"/>
<text text-anchor="middle" x="1094.26" y="-77.88" font-family="Helvetica,sans-Serif" font-size="10.00">mlir/IR/BuiltinTypes.h</text>
</a>
</g>
</g>
<!-- Node27&#45;&gt;Node29 -->
<g id="edge45_Node000027_Node000029" class="edge">
<title>Node27&#45;&gt;Node29</title>
<g id="a_edge45_Node000027_Node000029"><a xlink:title=" ">
<path fill="none" stroke="#63b8ff" d="M1238.82,-132.61C1206.48,-121.46 1162.38,-106.25 1131.42,-95.57"/>
<polygon fill="#63b8ff" stroke="#63b8ff" points="1132.68,-92.3 1122.08,-92.35 1130.4,-98.92 1132.68,-92.3"/>
</a>
</g>
</g>
<!-- Node30 -->
<g id="Node000030" class="node">
<title>Node30</title>
<g id="a_Node000030"><a xlink:title=" ">
<polygon fill="#e0e0e0" stroke="#999999" points="1279.63,-91.38 1166.88,-91.38 1166.88,-72.12 1279.63,-72.12 1279.63,-91.38"/>
<text text-anchor="middle" x="1223.26" y="-77.88" font-family="Helvetica,sans-Serif" font-size="10.00">mlir/IR/SymbolTable.h</text>
</a>
</g>
</g>
<!-- Node27&#45;&gt;Node30 -->
<g id="edge46_Node000027_Node000030" class="edge">
<title>Node27&#45;&gt;Node30</title>
<g id="a_edge46_Node000027_Node000030"><a xlink:title=" ">
<path fill="none" stroke="#63b8ff" d="M1268.1,-132.61C1259.4,-122.94 1247.95,-110.21 1238.8,-100.04"/>
<polygon fill="#63b8ff" stroke="#63b8ff" points="1241.49,-97.79 1232.2,-92.7 1236.29,-102.47 1241.49,-97.79"/>
</a>
</g>
</g>
<!-- Node31 -->
<g id="Node000031" class="node">
<title>Node31</title>
<g id="a_Node000031"><a xlink:title=" ">
<polygon fill="#e0e0e0" stroke="#999999" points="1380.63,-91.38 1297.88,-91.38 1297.88,-72.12 1380.63,-72.12 1380.63,-91.38"/>
<text text-anchor="middle" x="1339.26" y="-77.88" font-family="Helvetica,sans-Serif" font-size="10.00">mlir/IR/Types.h</text>
</a>
</g>
</g>
<!-- Node27&#45;&gt;Node31 -->
<g id="edge47_Node000027_Node000031" class="edge">
<title>Node27&#45;&gt;Node31</title>
<g id="a_edge47_Node000027_Node000031"><a xlink:title=" ">
<path fill="none" stroke="#63b8ff" d="M1294.42,-132.61C1303.12,-122.94 1314.56,-110.21 1323.71,-100.04"/>
<polygon fill="#63b8ff" stroke="#63b8ff" points="1326.23,-102.47 1330.31,-92.7 1321.02,-97.79 1326.23,-102.47"/>
</a>
</g>
</g>
<!-- Node32 -->
<g id="Node000032" class="node">
<title>Node32</title>
<g id="a_Node000032"><a xlink:title=" ">
<polygon fill="#e0e0e0" stroke="#999999" points="1532.13,-97 1398.38,-97 1398.38,-66.5 1532.13,-66.5 1532.13,-97"/>
<text text-anchor="start" x="1406.38" y="-83.5" font-family="Helvetica,sans-Serif" font-size="10.00">mlir/Interfaces/MemorySlot</text>
<text text-anchor="middle" x="1465.26" y="-72.25" font-family="Helvetica,sans-Serif" font-size="10.00">Interfaces.h</text>
</a>
</g>
</g>
<!-- Node27&#45;&gt;Node32 -->
<g id="edge49_Node000027_Node000032" class="edge">
<title>Node27&#45;&gt;Node32</title>
<g id="a_edge49_Node000027_Node000032"><a xlink:title=" ">
<path fill="none" stroke="#63b8ff" d="M1323.01,-132.61C1349.62,-123.29 1384.31,-111.12 1412.78,-101.15"/>
<polygon fill="#63b8ff" stroke="#63b8ff" points="1413.65,-104.55 1421.92,-97.94 1411.33,-97.95 1413.65,-104.55"/>
</a>
</g>
</g>
<!-- Node27&#45;&gt;Node33 -->
<g id="edge51_Node000027_Node000033" class="edge">
<title>Node27&#45;&gt;Node33</title>
<g id="a_edge51_Node000027_Node000033"><a xlink:title=" ">
<path fill="none" stroke="#63b8ff" d="M1331.96,-142.16C1402.61,-134.7 1534.85,-119.43 1657.52,-97.19"/>
<polygon fill="#63b8ff" stroke="#63b8ff" points="1657.9,-100.68 1667.11,-95.44 1656.64,-93.8 1657.9,-100.68"/>
</a>
</g>
</g>
<!-- Node34 -->
<g id="Node000034" class="node">
<title>Node34</title>
<g id="a_Node000034"><a xlink:href="_types_8h_8inc.html" target="_top" xlink:title=" ">
<polygon fill="white" stroke="#666666" points="1650.63,-97 1549.88,-97 1549.88,-66.5 1650.63,-66.5 1650.63,-97"/>
<text text-anchor="start" x="1557.88" y="-83.5" font-family="Helvetica,sans-Serif" font-size="10.00">zklang/Dialect/ZML</text>
<text text-anchor="middle" x="1600.26" y="-72.25" font-family="Helvetica,sans-Serif" font-size="10.00">/IR/Types.h.inc</text>
</a>
</g>
</g>
<!-- Node27&#45;&gt;Node34 -->
<g id="edge52_Node000027_Node000034" class="edge">
<title>Node27&#45;&gt;Node34</title>
<g id="a_edge52_Node000027_Node000034"><a xlink:title=" ">
<path fill="none" stroke="#63b8ff" d="M1331.73,-138.21C1381.86,-129.07 1461.18,-114.18 1538.54,-97.54"/>
<polygon fill="#63b8ff" stroke="#63b8ff" points="1538.93,-101.04 1547.96,-95.5 1537.45,-94.19 1538.93,-101.04"/>
</a>
</g>
</g>
</g>
</svg>
