<?xml version="1.0" encoding="UTF-8" standalone="no"?>
<!DOCTYPE svg PUBLIC "-//W3C//DTD SVG 1.1//EN"
 "http://www.w3.org/Graphics/SVG/1.1/DTD/svg11.dtd">
<!-- Generated by graphviz version 12.2.1 (20241206.2353)
 -->
<!-- Title: include/zklang/Passes/PassDetail.h Pages: 1 -->
<svg width="2077pt" height="305pt"
 viewBox="0.00 0.00 2076.62 304.50" xmlns="http://www.w3.org/2000/svg" xmlns:xlink="http://www.w3.org/1999/xlink">
<g id="graph0" class="graph" transform="scale(1 1) rotate(0) translate(4 300.5)">
<title>include/zklang/Passes/PassDetail.h</title>
<!-- Node1 -->
<g id="Node000001" class="node">
<title>Node1</title>
<g id="a_Node000001"><a xlink:title=" ">
<polygon fill="#999999" stroke="#666666" points="1189.88,-296.5 1075.62,-296.5 1075.62,-266 1189.88,-266 1189.88,-296.5"/>
<text text-anchor="start" x="1083.62" y="-283" font-family="Helvetica,sans-Serif" font-size="10.00">include/zklang/Passes</text>
<text text-anchor="middle" x="1132.75" y="-271.75" font-family="Helvetica,sans-Serif" font-size="10.00">/PassDetail.h</text>
</a>
</g>
</g>
<!-- Node2 -->
<g id="Node000002" class="node">
<title>Node2</title>
<g id="a_Node000002"><a xlink:title=" ">
<polygon fill="#e0e0e0" stroke="#999999" points="845,-230 740.5,-230 740.5,-199.5 845,-199.5 845,-230"/>
<text text-anchor="start" x="748.5" y="-216.5" font-family="Helvetica,sans-Serif" font-size="10.00">llzk/Dialect/LLZK/IR</text>
<text text-anchor="middle" x="792.75" y="-205.25" font-family="Helvetica,sans-Serif" font-size="10.00">/Dialect.h</text>
</a>
</g>
</g>
<!-- Node1&#45;&gt;Node2 -->
<g id="edge1_Node000001_Node000002" class="edge">
<title>Node1&#45;&gt;Node2</title>
<g id="a_edge1_Node000001_Node000002"><a xlink:title=" ">
<path fill="none" stroke="#63b8ff" d="M1075.14,-270.76C1021.04,-261.65 937.58,-247.09 856.23,-230.46"/>
<polygon fill="#63b8ff" stroke="#63b8ff" points="857.27,-227.1 846.77,-228.51 855.86,-233.95 857.27,-227.1"/>
</a>
</g>
</g>
<!-- Node3 -->
<g id="Node000003" class="node">
<title>Node3</title>
<g id="a_Node000003"><a xlink:title=" ">
<polygon fill="#e0e0e0" stroke="#999999" points="956.75,-230 862.75,-230 862.75,-199.5 956.75,-199.5 956.75,-230"/>
<text text-anchor="start" x="870.75" y="-216.5" font-family="Helvetica,sans-Serif" font-size="10.00">llzk/Dialect/Struct</text>
<text text-anchor="middle" x="909.75" y="-205.25" font-family="Helvetica,sans-Serif" font-size="10.00">/IR/Ops.h</text>
</a>
</g>
</g>
<!-- Node1&#45;&gt;Node3 -->
<g id="edge2_Node000001_Node000003" class="edge">
<title>Node1&#45;&gt;Node3</title>
<g id="a_edge2_Node000001_Node000003"><a xlink:title=" ">
<path fill="none" stroke="#63b8ff" d="M1081.87,-265.53C1047.85,-255.69 1003.02,-242.73 967.64,-232.49"/>
<polygon fill="#63b8ff" stroke="#63b8ff" points="969.02,-229.25 958.44,-229.83 967.07,-235.97 969.02,-229.25"/>
</a>
</g>
</g>
<!-- Node4 -->
<g id="Node000004" class="node">
<title>Node4</title>
<g id="a_Node000004"><a xlink:title=" ">
<polygon fill="#e0e0e0" stroke="#999999" points="1066.25,-224.38 975.25,-224.38 975.25,-205.12 1066.25,-205.12 1066.25,-224.38"/>
<text text-anchor="middle" x="1020.75" y="-210.88" font-family="Helvetica,sans-Serif" font-size="10.00">mlir/Pass/Pass.h</text>
</a>
</g>
</g>
<!-- Node1&#45;&gt;Node4 -->
<g id="edge3_Node000001_Node000004" class="edge">
<title>Node1&#45;&gt;Node4</title>
<g id="a_edge3_Node000001_Node000004"><a xlink:title=" ">
<path fill="none" stroke="#63b8ff" d="M1107.34,-265.61C1089.1,-255.11 1064.62,-241.02 1046.35,-230.49"/>
<polygon fill="#63b8ff" stroke="#63b8ff" points="1048.12,-227.47 1037.71,-225.52 1044.63,-233.54 1048.12,-227.47"/>
</a>
</g>
</g>
<!-- Node5 -->
<g id="Node000005" class="node">
<title>Node5</title>
<g id="a_Node000005"><a xlink:title=" ">
<polygon fill="#e0e0e0" stroke="#999999" points="1181.62,-230 1083.88,-230 1083.88,-199.5 1181.62,-199.5 1181.62,-230"/>
<text text-anchor="start" x="1091.88" y="-216.5" font-family="Helvetica,sans-Serif" font-size="10.00">zirgen/Dialect/ZHL</text>
<text text-anchor="middle" x="1132.75" y="-205.25" font-family="Helvetica,sans-Serif" font-size="10.00">/IR/ZHL.h</text>
</a>
</g>
</g>
<!-- Node1&#45;&gt;Node5 -->
<g id="edge4_Node000001_Node000005" class="edge">
<title>Node1&#45;&gt;Node5</title>
<g id="a_edge4_Node000001_Node000005"><a xlink:title=" ">
<path fill="none" stroke="#63b8ff" d="M1132.75,-265.61C1132.75,-258.52 1132.75,-249.79 1132.75,-241.63"/>
<polygon fill="#63b8ff" stroke="#63b8ff" points="1136.25,-241.84 1132.75,-231.84 1129.25,-241.84 1136.25,-241.84"/>
</a>
</g>
</g>
<!-- Node6 -->
<g id="Node000006" class="node">
<title>Node6</title>
<g id="a_Node000006"><a xlink:href="_dialect_8h.html" target="_top" xlink:title=" ">
<polygon fill="white" stroke="#666666" points="1722.12,-230 1621.38,-230 1621.38,-199.5 1722.12,-199.5 1722.12,-230"/>
<text text-anchor="start" x="1629.38" y="-216.5" font-family="Helvetica,sans-Serif" font-size="10.00">zklang/Dialect/ZML</text>
<text text-anchor="middle" x="1671.75" y="-205.25" font-family="Helvetica,sans-Serif" font-size="10.00">/IR/Dialect.h</text>
</a>
</g>
</g>
<!-- Node1&#45;&gt;Node6 -->
<g id="edge5_Node000001_Node000006" class="edge">
<title>Node1&#45;&gt;Node6</title>
<g id="a_edge5_Node000001_Node000006"><a xlink:title=" ">
<path fill="none" stroke="#63b8ff" d="M1190.18,-273.38C1292.28,-261.16 1504.52,-235.76 1609.78,-223.17"/>
<polygon fill="#63b8ff" stroke="#63b8ff" points="1610.14,-226.65 1619.66,-221.98 1609.31,-219.7 1610.14,-226.65"/>
</a>
</g>
</g>
<!-- Node12 -->
<g id="Node000012" class="node">
<title>Node12</title>
<g id="a_Node000012"><a xlink:href="_ops_8h.html" target="_top" xlink:title=" ">
<polygon fill="white" stroke="#666666" points="1300.12,-230 1199.38,-230 1199.38,-199.5 1300.12,-199.5 1300.12,-230"/>
<text text-anchor="start" x="1207.38" y="-216.5" font-family="Helvetica,sans-Serif" font-size="10.00">zklang/Dialect/ZML</text>
<text text-anchor="middle" x="1249.75" y="-205.25" font-family="Helvetica,sans-Serif" font-size="10.00">/IR/Ops.h</text>
</a>
</g>
</g>
<!-- Node1&#45;&gt;Node12 -->
<g id="edge11_Node000001_Node000012" class="edge">
<title>Node1&#45;&gt;Node12</title>
<g id="a_edge11_Node000001_Node000012"><a xlink:title=" ">
<path fill="none" stroke="#63b8ff" d="M1159.3,-265.61C1175.31,-256.79 1195.92,-245.43 1213.42,-235.78"/>
<polygon fill="#63b8ff" stroke="#63b8ff" points="1214.91,-238.95 1221.98,-231.06 1211.53,-232.82 1214.91,-238.95"/>
</a>
</g>
</g>
<!-- Node36 -->
<g id="Node000036" class="node">
<title>Node36</title>
<g id="a_Node000036"><a xlink:href="_passes_2_passes_8h_8inc.html" target="_top" xlink:title=" ">
<polygon fill="white" stroke="#666666" points="1881,-224.38 1740.5,-224.38 1740.5,-205.12 1881,-205.12 1881,-224.38"/>
<text text-anchor="middle" x="1810.75" y="-210.88" font-family="Helvetica,sans-Serif" font-size="10.00">zklang/Passes/Passes.h.inc</text>
</a>
</g>
</g>
<!-- Node1&#45;&gt;Node36 -->
<g id="edge53_Node000001_Node000036" class="edge">
<title>Node1&#45;&gt;Node36</title>
<g id="a_edge53_Node000001_Node000036"><a xlink:title=" ">
<path fill="none" stroke="#63b8ff" d="M1190.25,-277.19C1297.05,-271.12 1533.18,-255.84 1730.75,-230 1737.9,-229.06 1745.39,-227.93 1752.79,-226.72"/>
<polygon fill="#63b8ff" stroke="#63b8ff" points="1753.14,-230.22 1762.41,-225.09 1751.97,-223.31 1753.14,-230.22"/>
</a>
</g>
</g>
<!-- Node7 -->
<g id="Node000007" class="node">
<title>Node7</title>
<g id="a_Node000007"><a xlink:title=" ">
<polygon fill="#e0e0e0" stroke="#999999" points="2068.62,-30.5 1964.88,-30.5 1964.88,0 2068.62,0 2068.62,-30.5"/>
<text text-anchor="start" x="1972.88" y="-17" font-family="Helvetica,sans-Serif" font-size="10.00">mlir/Dialect/Func/IR</text>
<text text-anchor="middle" x="2016.75" y="-5.75" font-family="Helvetica,sans-Serif" font-size="10.00">/FuncOps.h</text>
</a>
</g>
</g>
<!-- Node6&#45;&gt;Node7 -->
<g id="edge6_Node000006_Node000007" class="edge">
<title>Node6&#45;&gt;Node7</title>
<g id="a_edge6_Node000006_Node000007"><a xlink:title=" ">
<path fill="none" stroke="#63b8ff" d="M1671.22,-199.03C1671.38,-181.23 1674.35,-151.37 1690.75,-133 1726.3,-93.2 1869.32,-52.45 1953.66,-31.22"/>
<polygon fill="#63b8ff" stroke="#63b8ff" points="1954.32,-34.66 1963.18,-28.84 1952.63,-27.86 1954.32,-34.66"/>
</a>
</g>
</g>
<!-- Node8 -->
<g id="Node000008" class="node">
<title>Node8</title>
<g id="a_Node000008"><a xlink:title=" ">
<polygon fill="#e0e0e0" stroke="#999999" points="1795.5,-163.5 1700,-163.5 1700,-133 1795.5,-133 1795.5,-163.5"/>
<text text-anchor="start" x="1708" y="-150" font-family="Helvetica,sans-Serif" font-size="10.00">mlir/Dialect/Index</text>
<text text-anchor="middle" x="1747.75" y="-138.75" font-family="Helvetica,sans-Serif" font-size="10.00">/IR/IndexDialect.h</text>
</a>
</g>
</g>
<!-- Node6&#45;&gt;Node8 -->
<g id="edge7_Node000006_Node000008" class="edge">
<title>Node6&#45;&gt;Node8</title>
<g id="a_edge7_Node000006_Node000008"><a xlink:title=" ">
<path fill="none" stroke="#63b8ff" d="M1689,-199.11C1698.71,-190.87 1711.04,-180.4 1721.89,-171.19"/>
<polygon fill="#63b8ff" stroke="#63b8ff" points="1724.06,-173.95 1729.42,-164.81 1719.53,-168.61 1724.06,-173.95"/>
</a>
</g>
</g>
<!-- Node9 -->
<g id="Node000009" class="node">
<title>Node9</title>
<g id="a_Node000009"><a xlink:title=" ">
<polygon fill="#e0e0e0" stroke="#999999" points="1915.88,-163.5 1813.62,-163.5 1813.62,-133 1915.88,-133 1915.88,-163.5"/>
<text text-anchor="start" x="1821.62" y="-150" font-family="Helvetica,sans-Serif" font-size="10.00">mlir/Dialect/SCF/IR</text>
<text text-anchor="middle" x="1864.75" y="-138.75" font-family="Helvetica,sans-Serif" font-size="10.00">/SCF.h</text>
</a>
</g>
</g>
<!-- Node6&#45;&gt;Node9 -->
<g id="edge8_Node000006_Node000009" class="edge">
<title>Node6&#45;&gt;Node9</title>
<g id="a_edge8_Node000006_Node000009"><a xlink:title=" ">
<path fill="none" stroke="#63b8ff" d="M1715.54,-199.11C1743.58,-189.75 1780.17,-177.52 1810.1,-167.51"/>
<polygon fill="#63b8ff" stroke="#63b8ff" points="1810.98,-170.91 1819.36,-164.42 1808.77,-164.27 1810.98,-170.91"/>
</a>
</g>
</g>
<!-- Node10 -->
<g id="Node000010" class="node">
<title>Node10</title>
<g id="a_Node000010"><a xlink:title=" ">
<polygon fill="#e0e0e0" stroke="#999999" points="2021.38,-157.88 1934.12,-157.88 1934.12,-138.62 2021.38,-138.62 2021.38,-157.88"/>
<text text-anchor="middle" x="1977.75" y="-144.38" font-family="Helvetica,sans-Serif" font-size="10.00">mlir/IR/Dialect.h</text>
</a>
</g>
</g>
<!-- Node6&#45;&gt;Node10 -->
<g id="edge9_Node000006_Node000010" class="edge">
<title>Node6&#45;&gt;Node10</title>
<g id="a_edge9_Node000006_Node000010"><a xlink:title=" ">
<path fill="none" stroke="#63b8ff" d="M1722.45,-201.53C1725.59,-200.82 1728.71,-200.14 1731.75,-199.5 1817.11,-181.41 1839.66,-182.84 1924.75,-163.5 1927.93,-162.78 1931.21,-161.99 1934.5,-161.18"/>
<polygon fill="#63b8ff" stroke="#63b8ff" points="1935.34,-164.57 1944.15,-158.7 1933.6,-157.79 1935.34,-164.57"/>
</a>
</g>
</g>
<!-- Node11 -->
<g id="Node000011" class="node">
<title>Node11</title>
<g id="a_Node000011"><a xlink:href="_dialect_8h_8inc.html" target="_top" xlink:title=" ">
<polygon fill="white" stroke="#666666" points="1644.12,-163.5 1543.38,-163.5 1543.38,-133 1644.12,-133 1644.12,-163.5"/>
<text text-anchor="start" x="1551.38" y="-150" font-family="Helvetica,sans-Serif" font-size="10.00">zklang/Dialect/ZML</text>
<text text-anchor="middle" x="1593.75" y="-138.75" font-family="Helvetica,sans-Serif" font-size="10.00">/IR/Dialect.h.inc</text>
</a>
</g>
</g>
<!-- Node6&#45;&gt;Node11 -->
<g id="edge10_Node000006_Node000011" class="edge">
<title>Node6&#45;&gt;Node11</title>
<g id="a_edge10_Node000006_Node000011"><a xlink:title=" ">
<path fill="none" stroke="#63b8ff" d="M1654.05,-199.11C1643.98,-190.78 1631.17,-180.19 1619.95,-170.92"/>
<polygon fill="#63b8ff" stroke="#63b8ff" points="1622.48,-168.47 1612.55,-164.79 1618.02,-173.86 1622.48,-168.47"/>
</a>
</g>
</g>
<!-- Node12&#45;&gt;Node7 -->
<g id="edge16_Node000012_Node000007" class="edge">
<title>Node12&#45;&gt;Node7</title>
<g id="a_edge16_Node000012_Node000007"><a xlink:title=" ">
<path fill="none" stroke="#63b8ff" d="M1300.54,-200.5C1337.79,-190.65 1389.54,-176.69 1434.75,-163.5 1573.75,-122.96 1604.98,-100.36 1745.75,-66.5 1834.31,-45.2 1860.93,-48.94 1953.27,-30.91"/>
<polygon fill="#63b8ff" stroke="#63b8ff" points="1953.94,-34.34 1963.07,-28.96 1952.58,-27.48 1953.94,-34.34"/>
</a>
</g>
</g>
<!-- Node13 -->
<g id="Node000013" class="node">
<title>Node13</title>
<g id="a_Node000013"><a xlink:title=" ">
<polygon fill="#e0e0e0" stroke="#999999" points="829.5,-24.88 722,-24.88 722,-5.63 829.5,-5.63 829.5,-24.88"/>
<text text-anchor="middle" x="775.75" y="-11.38" font-family="Helvetica,sans-Serif" font-size="10.00">llvm/ADT/ArrayRef.h</text>
</a>
</g>
</g>
<!-- Node12&#45;&gt;Node13 -->
<g id="edge12_Node000012_Node000013" class="edge">
<title>Node12&#45;&gt;Node13</title>
<g id="a_edge12_Node000012_Node000013"><a xlink:title=" ">
<path fill="none" stroke="#63b8ff" d="M1232.81,-199.03C1191.69,-163.42 1088.55,-74.9 1069.75,-66.5 974.88,-24.12 940.81,-49.97 838.75,-30.5 834.23,-29.64 829.53,-28.68 824.84,-27.69"/>
<polygon fill="#63b8ff" stroke="#63b8ff" points="825.97,-24.36 815.46,-25.65 824.48,-31.2 825.97,-24.36"/>
</a>
</g>
</g>
<!-- Node14 -->
<g id="Node000014" class="node">
<title>Node14</title>
<g id="a_Node000014"><a xlink:title=" ">
<polygon fill="#e0e0e0" stroke="#999999" points="1099.25,-24.88 978.25,-24.88 978.25,-5.63 1099.25,-5.63 1099.25,-24.88"/>
<text text-anchor="middle" x="1038.75" y="-11.38" font-family="Helvetica,sans-Serif" font-size="10.00">llvm/ADT/SmallVector.h</text>
</a>
</g>
</g>
<!-- Node12&#45;&gt;Node14 -->
<g id="edge13_Node000012_Node000014" class="edge">
<title>Node12&#45;&gt;Node14</title>
<g id="a_edge13_Node000012_Node000014"><a xlink:title=" ">
<path fill="none" stroke="#63b8ff" d="M1252.68,-199.08C1257.6,-169.92 1263.95,-104.24 1230.75,-66.5 1225.96,-61.05 1144.39,-41.03 1089.13,-27.96"/>
<polygon fill="#63b8ff" stroke="#63b8ff" points="1090.12,-24.6 1079.59,-25.71 1088.52,-31.41 1090.12,-24.6"/>
</a>
</g>
</g>
<!-- Node15 -->
<g id="Node000015" class="node">
<title>Node15</title>
<g id="a_Node000015"><a xlink:title=" ">
<polygon fill="#e0e0e0" stroke="#999999" points="1226.62,-24.88 1116.88,-24.88 1116.88,-5.63 1226.62,-5.63 1226.62,-24.88"/>
<text text-anchor="middle" x="1171.75" y="-11.38" font-family="Helvetica,sans-Serif" font-size="10.00">llvm/ADT/StringRef.h</text>
</a>
</g>
</g>
<!-- Node12&#45;&gt;Node15 -->
<g id="edge14_Node000012_Node000015" class="edge">
<title>Node12&#45;&gt;Node15</title>
<g id="a_edge14_Node000012_Node000015"><a xlink:title=" ">
<path fill="none" stroke="#63b8ff" d="M1256.47,-199.13C1268.24,-171.17 1289.04,-109.13 1263.75,-66.5 1253.4,-49.05 1234.61,-37.27 1216.7,-29.53"/>
<polygon fill="#63b8ff" stroke="#63b8ff" points="1218.03,-26.29 1207.45,-25.87 1215.47,-32.8 1218.03,-26.29"/>
</a>
</g>
</g>
<!-- Node16 -->
<g id="Node000016" class="node">
<title>Node16</title>
<g id="a_Node000016"><a xlink:title=" ">
<polygon fill="#e0e0e0" stroke="#999999" points="1377.25,-30.5 1244.25,-30.5 1244.25,0 1377.25,0 1377.25,-30.5"/>
<text text-anchor="start" x="1252.25" y="-17" font-family="Helvetica,sans-Serif" font-size="10.00">mlir/Bytecode/BytecodeOp</text>
<text text-anchor="middle" x="1310.75" y="-5.75" font-family="Helvetica,sans-Serif" font-size="10.00">Interface.h</text>
</a>
</g>
</g>
<!-- Node12&#45;&gt;Node16 -->
<g id="edge15_Node000012_Node000016" class="edge">
<title>Node12&#45;&gt;Node16</title>
<g id="a_edge15_Node000012_Node000016"><a xlink:title=" ">
<path fill="none" stroke="#63b8ff" d="M1271.24,-199.15C1282.43,-190.26 1295.13,-177.87 1301.75,-163.5 1319.84,-124.25 1317.99,-72.76 1314.63,-42.23"/>
<polygon fill="#63b8ff" stroke="#63b8ff" points="1318.11,-41.87 1313.39,-32.39 1311.17,-42.74 1318.11,-41.87"/>
</a>
</g>
</g>
<!-- Node17 -->
<g id="Node000017" class="node">
<title>Node17</title>
<g id="a_Node000017"><a xlink:title=" ">
<polygon fill="#e0e0e0" stroke="#999999" points="1496.5,-24.88 1395,-24.88 1395,-5.63 1496.5,-5.63 1496.5,-24.88"/>
<text text-anchor="middle" x="1445.75" y="-11.38" font-family="Helvetica,sans-Serif" font-size="10.00">mlir/IR/BuiltinOps.h</text>
</a>
</g>
</g>
<!-- Node12&#45;&gt;Node17 -->
<g id="edge17_Node000012_Node000017" class="edge">
<title>Node12&#45;&gt;Node17</title>
<g id="a_edge17_Node000012_Node000017"><a xlink:title=" ">
<path fill="none" stroke="#63b8ff" d="M1274.72,-199.15C1289.13,-190 1307.05,-177.35 1320.75,-163.5 1357.59,-126.24 1352.78,-105.52 1387.75,-66.5 1399,-53.94 1413.31,-41.52 1424.89,-32.17"/>
<polygon fill="#63b8ff" stroke="#63b8ff" points="1426.98,-34.97 1432.67,-26.04 1422.65,-29.48 1426.98,-34.97"/>
</a>
</g>
</g>
<!-- Node18 -->
<g id="Node000018" class="node">
<title>Node18</title>
<g id="a_Node000018"><a xlink:title=" ">
<polygon fill="#e0e0e0" stroke="#999999" points="1625,-24.88 1514.5,-24.88 1514.5,-5.63 1625,-5.63 1625,-24.88"/>
<text text-anchor="middle" x="1569.75" y="-11.38" font-family="Helvetica,sans-Serif" font-size="10.00">mlir/IR/OpDefinition.h</text>
</a>
</g>
</g>
<!-- Node12&#45;&gt;Node18 -->
<g id="edge18_Node000012_Node000018" class="edge">
<title>Node12&#45;&gt;Node18</title>
<g id="a_edge18_Node000012_Node000018"><a xlink:title=" ">
<path fill="none" stroke="#63b8ff" d="M1286.43,-199.07C1305.55,-190.39 1328.65,-178.22 1346.75,-163.5 1389.89,-128.42 1380.23,-98.42 1425.75,-66.5 1442.3,-54.89 1490.34,-39.25 1526.42,-28.52"/>
<polygon fill="#63b8ff" stroke="#63b8ff" points="1527.12,-31.96 1535.73,-25.79 1525.15,-25.25 1527.12,-31.96"/>
</a>
</g>
</g>
<!-- Node19 -->
<g id="Node000019" class="node">
<title>Node19</title>
<g id="a_Node000019"><a xlink:title=" ">
<polygon fill="#e0e0e0" stroke="#999999" points="1778.75,-24.88 1642.75,-24.88 1642.75,-5.63 1778.75,-5.63 1778.75,-24.88"/>
<text text-anchor="middle" x="1710.75" y="-11.38" font-family="Helvetica,sans-Serif" font-size="10.00">mlir/IR/OpImplementation.h</text>
</a>
</g>
</g>
<!-- Node12&#45;&gt;Node19 -->
<g id="edge19_Node000012_Node000019" class="edge">
<title>Node12&#45;&gt;Node19</title>
<g id="a_edge19_Node000012_Node000019"><a xlink:title=" ">
<path fill="none" stroke="#63b8ff" d="M1300.38,-199.17C1324.2,-190.91 1352.25,-179.07 1374.75,-163.5 1422.86,-130.21 1412.82,-95.29 1463.75,-66.5 1471.94,-61.87 1580.68,-40.77 1651.12,-27.42"/>
<polygon fill="#63b8ff" stroke="#63b8ff" points="1651.42,-30.93 1660.59,-25.63 1650.12,-24.05 1651.42,-30.93"/>
</a>
</g>
</g>
<!-- Node20 -->
<g id="Node000020" class="node">
<title>Node20</title>
<g id="a_Node000020"><a xlink:title=" ">
<polygon fill="#e0e0e0" stroke="#999999" points="1946.88,-24.88 1796.62,-24.88 1796.62,-5.63 1946.88,-5.63 1946.88,-24.88"/>
<text text-anchor="middle" x="1871.75" y="-11.38" font-family="Helvetica,sans-Serif" font-size="10.00">mlir/Interfaces/CallInterfaces.h</text>
</a>
</g>
</g>
<!-- Node12&#45;&gt;Node20 -->
<g id="edge20_Node000012_Node000020" class="edge">
<title>Node12&#45;&gt;Node20</title>
<g id="a_edge20_Node000012_Node000020"><a xlink:title=" ">
<path fill="none" stroke="#63b8ff" d="M1300.48,-203.5C1331.8,-195.69 1371.94,-182.91 1403.75,-163.5 1456.06,-131.58 1446.64,-93.31 1501.75,-66.5 1616.96,-10.46 1661.01,-49.22 1787.75,-30.5 1794.66,-29.48 1801.89,-28.35 1809.07,-27.19"/>
<polygon fill="#63b8ff" stroke="#63b8ff" points="1809.48,-30.67 1818.78,-25.59 1808.35,-23.76 1809.48,-30.67"/>
</a>
</g>
</g>
<!-- Node21 -->
<g id="Node000021" class="node">
<title>Node21</title>
<g id="a_Node000021"><a xlink:title=" ">
<polygon fill="#e0e0e0" stroke="#999999" points="283.62,-30.5 149.88,-30.5 149.88,0 283.62,0 283.62,-30.5"/>
<text text-anchor="start" x="157.88" y="-17" font-family="Helvetica,sans-Serif" font-size="10.00">mlir/Interfaces/ControlFlow</text>
<text text-anchor="middle" x="216.75" y="-5.75" font-family="Helvetica,sans-Serif" font-size="10.00">Interfaces.h</text>
</a>
</g>
</g>
<!-- Node12&#45;&gt;Node21 -->
<g id="edge21_Node000012_Node000021" class="edge">
<title>Node12&#45;&gt;Node21</title>
<g id="a_edge21_Node000012_Node000021"><a xlink:title=" ">
<path fill="none" stroke="#63b8ff" d="M1199.02,-200.81C1196.24,-200.32 1193.46,-199.87 1190.75,-199.5 972.44,-169.48 411.74,-223.67 199.75,-163.5 134.77,-145.06 44.28,-122.02 82.75,-66.5 90.97,-54.64 119.32,-43.2 147.84,-34.23"/>
<polygon fill="#63b8ff" stroke="#63b8ff" points="148.74,-37.62 157.29,-31.36 146.7,-30.92 148.74,-37.62"/>
</a>
</g>
</g>
<!-- Node22 -->
<g id="Node000022" class="node">
<title>Node22</title>
<g id="a_Node000022"><a xlink:title=" ">
<polygon fill="#e0e0e0" stroke="#999999" points="131.5,-30.5 0,-30.5 0,0 131.5,0 131.5,-30.5"/>
<text text-anchor="start" x="8" y="-17" font-family="Helvetica,sans-Serif" font-size="10.00">mlir/Interfaces/DataLayout</text>
<text text-anchor="middle" x="65.75" y="-5.75" font-family="Helvetica,sans-Serif" font-size="10.00">Interfaces.h</text>
</a>
</g>
</g>
<!-- Node12&#45;&gt;Node22 -->
<g id="edge22_Node000012_Node000022" class="edge">
<title>Node12&#45;&gt;Node22</title>
<g id="a_edge22_Node000012_Node000022"><a xlink:title=" ">
<path fill="none" stroke="#63b8ff" d="M1199.03,-200.8C1196.24,-200.31 1193.46,-199.87 1190.75,-199.5 1071.45,-183.28 210.87,-225.65 107.75,-163.5 67.22,-139.07 62.75,-77.42 63.78,-42.12"/>
<polygon fill="#63b8ff" stroke="#63b8ff" points="67.27,-42.51 64.26,-32.35 60.28,-42.17 67.27,-42.51"/>
</a>
</g>
</g>
<!-- Node23 -->
<g id="Node000023" class="node">
<title>Node23</title>
<g id="a_Node000023"><a xlink:title=" ">
<polygon fill="#e0e0e0" stroke="#999999" points="420.12,-30.5 301.38,-30.5 301.38,0 420.12,0 420.12,-30.5"/>
<text text-anchor="start" x="309.38" y="-17" font-family="Helvetica,sans-Serif" font-size="10.00">mlir/Interfaces/Function</text>
<text text-anchor="middle" x="360.75" y="-5.75" font-family="Helvetica,sans-Serif" font-size="10.00">Interfaces.h</text>
</a>
</g>
</g>
<!-- Node12&#45;&gt;Node23 -->
<g id="edge23_Node000012_Node000023" class="edge">
<title>Node12&#45;&gt;Node23</title>
<g id="a_edge23_Node000012_Node000023"><a xlink:title=" ">
<path fill="none" stroke="#63b8ff" d="M1199.02,-200.88C1196.23,-200.37 1193.46,-199.9 1190.75,-199.5 1071.84,-181.89 192.25,-188.04 113.75,-97 25.52,5.33 10.12,-86.23 290.1,-30.99"/>
<polygon fill="#63b8ff" stroke="#63b8ff" points="290.46,-34.49 299.57,-29.09 289.07,-27.63 290.46,-34.49"/>
</a>
</g>
</g>
<!-- Node24 -->
<g id="Node000024" class="node">
<title>Node24</title>
<g id="a_Node000024"><a xlink:title=" ">
<polygon fill="#e0e0e0" stroke="#999999" points="559.62,-30.5 437.88,-30.5 437.88,0 559.62,0 559.62,-30.5"/>
<text text-anchor="start" x="445.88" y="-17" font-family="Helvetica,sans-Serif" font-size="10.00">mlir/Interfaces/InferType</text>
<text text-anchor="middle" x="498.75" y="-5.75" font-family="Helvetica,sans-Serif" font-size="10.00">OpInterface.h</text>
</a>
</g>
</g>
<!-- Node12&#45;&gt;Node24 -->
<g id="edge24_Node000012_Node000024" class="edge">
<title>Node12&#45;&gt;Node24</title>
<g id="a_edge24_Node000012_Node000024"><a xlink:title=" ">
<path fill="none" stroke="#63b8ff" d="M1199.16,-200.68C1171.37,-192.31 1136.93,-179.91 1108.75,-163.5 1069.68,-140.74 1065.47,-127.13 1031.75,-97 1016.86,-83.69 1017.03,-74.55 998.75,-66.5 913.88,-29.14 680.11,-43.15 571.38,-30.76"/>
<polygon fill="#63b8ff" stroke="#63b8ff" points="571.87,-27.3 561.51,-29.49 570.98,-34.24 571.87,-27.3"/>
</a>
</g>
</g>
<!-- Node25 -->
<g id="Node000025" class="node">
<title>Node25</title>
<g id="a_Node000025"><a xlink:title=" ">
<polygon fill="#e0e0e0" stroke="#999999" points="704.25,-30.5 577.25,-30.5 577.25,0 704.25,0 704.25,-30.5"/>
<text text-anchor="start" x="585.25" y="-17" font-family="Helvetica,sans-Serif" font-size="10.00">mlir/Interfaces/SideEffect</text>
<text text-anchor="middle" x="640.75" y="-5.75" font-family="Helvetica,sans-Serif" font-size="10.00">Interfaces.h</text>
</a>
</g>
</g>
<!-- Node12&#45;&gt;Node25 -->
<g id="edge25_Node000012_Node000025" class="edge">
<title>Node12&#45;&gt;Node25</title>
<g id="a_edge25_Node000012_Node000025"><a xlink:title=" ">
<path fill="none" stroke="#63b8ff" d="M1218.22,-199.11C1199.07,-189.76 1174.42,-176.92 1153.75,-163.5 1113.81,-137.57 1106.98,-126.68 1069.75,-97 1052.82,-83.5 1051.74,-74.82 1031.75,-66.5 903.37,-13.07 856.15,-50.36 715.85,-30.84"/>
<polygon fill="#63b8ff" stroke="#63b8ff" points="716.59,-27.41 706.19,-29.41 715.57,-34.33 716.59,-27.41"/>
</a>
</g>
</g>
<!-- Node26 -->
<g id="Node000026" class="node">
<title>Node26</title>
<g id="a_Node000026"><a xlink:href="_op_interfaces_8h.html" target="_top" xlink:title=" ">
<polygon fill="white" stroke="#666666" points="1222.12,-97 1121.38,-97 1121.38,-66.5 1222.12,-66.5 1222.12,-97"/>
<text text-anchor="start" x="1129.38" y="-83.5" font-family="Helvetica,sans-Serif" font-size="10.00">zklang/Dialect/ZML</text>
<text text-anchor="middle" x="1171.75" y="-72.25" font-family="Helvetica,sans-Serif" font-size="10.00">/IR/OpInterfaces.h</text>
</a>
</g>
</g>
<!-- Node12&#45;&gt;Node26 -->
<g id="edge26_Node000012_Node000026" class="edge">
<title>Node12&#45;&gt;Node26</title>
<g id="a_edge26_Node000012_Node000026"><a xlink:title=" ">
<path fill="none" stroke="#63b8ff" d="M1241.1,-199.23C1227.87,-177 1202.42,-134.27 1186.31,-107.2"/>
<polygon fill="#63b8ff" stroke="#63b8ff" points="1189.33,-105.44 1181.21,-98.64 1183.32,-109.02 1189.33,-105.44"/>
</a>
</g>
</g>
<!-- Node28 -->
<g id="Node000028" class="node">
<title>Node28</title>
<g id="a_Node000028"><a xlink:href="_types_8h.html" target="_top" xlink:title=" ">
<polygon fill="white" stroke="#666666" points="670.12,-163.5 569.38,-163.5 569.38,-133 670.12,-133 670.12,-163.5"/>
<text text-anchor="start" x="577.38" y="-150" font-family="Helvetica,sans-Serif" font-size="10.00">zklang/Dialect/ZML</text>
<text text-anchor="middle" x="619.75" y="-138.75" font-family="Helvetica,sans-Serif" font-size="10.00">/IR/Types.h</text>
</a>
</g>
</g>
<!-- Node12&#45;&gt;Node28 -->
<g id="edge42_Node000012_Node000028" class="edge">
<title>Node12&#45;&gt;Node28</title>
<g id="a_edge42_Node000012_Node000028"><a xlink:title=" ">
<path fill="none" stroke="#63b8ff" d="M1199,-200.98C1196.22,-200.44 1193.45,-199.94 1190.75,-199.5 1007.11,-169.42 787.1,-156.47 681.83,-151.68"/>
<polygon fill="#63b8ff" stroke="#63b8ff" points="682.14,-148.19 671.99,-151.24 681.82,-155.18 682.14,-148.19"/>
</a>
</g>
</g>
<!-- Node34 -->
<g id="Node000034" class="node">
<title>Node34</title>
<g id="a_Node000034"><a xlink:href="_ops_8h_8inc.html" target="_top" xlink:title=" ">
<polygon fill="white" stroke="#666666" points="990.12,-97 889.38,-97 889.38,-66.5 990.12,-66.5 990.12,-97"/>
<text text-anchor="start" x="897.38" y="-83.5" font-family="Helvetica,sans-Serif" font-size="10.00">zklang/Dialect/ZML</text>
<text text-anchor="middle" x="939.75" y="-72.25" font-family="Helvetica,sans-Serif" font-size="10.00">/IR/Ops.h.inc</text>
</a>
</g>
</g>
<!-- Node12&#45;&gt;Node34 -->
<g id="edge52_Node000012_Node000034" class="edge">
<title>Node12&#45;&gt;Node34</title>
<g id="a_edge52_Node000012_Node000034"><a xlink:title=" ">
<path fill="none" stroke="#63b8ff" d="M1198.94,-201.32C1196.17,-200.69 1193.43,-200.08 1190.75,-199.5 1108.04,-181.56 1076.11,-207.41 1003.75,-163.5 981.4,-149.94 963.71,-125.55 952.65,-107.11"/>
<polygon fill="#63b8ff" stroke="#63b8ff" points="955.81,-105.58 947.8,-98.64 949.73,-109.06 955.81,-105.58"/>
</a>
</g>
</g>
<!-- Node26&#45;&gt;Node7 -->
<g id="edge31_Node000026_Node000007" class="edge">
<title>Node26&#45;&gt;Node7</title>
<g id="a_edge31_Node000026_Node000007"><a xlink:title=" ">
<path fill="none" stroke="#63b8ff" d="M1222.45,-78.6C1369.07,-72.21 1792.82,-52.51 1953.51,-30.61"/>
<polygon fill="#63b8ff" stroke="#63b8ff" points="1953.71,-34.11 1963.12,-29.24 1952.72,-27.18 1953.71,-34.11"/>
</a>
</g>
</g>
<!-- Node26&#45;&gt;Node13 -->
<g id="edge27_Node000026_Node000013" class="edge">
<title>Node26&#45;&gt;Node13</title>
<g id="a_edge27_Node000026_Node000013"><a xlink:title=" ">
<path fill="none" stroke="#63b8ff" d="M1121.18,-69.07C1116.65,-68.15 1112.12,-67.28 1107.75,-66.5 988.99,-45.37 957.47,-51.83 838.75,-30.5 834.09,-29.66 829.26,-28.72 824.44,-27.72"/>
<polygon fill="#63b8ff" stroke="#63b8ff" points="825.27,-24.32 814.76,-25.64 823.8,-31.16 825.27,-24.32"/>
</a>
</g>
</g>
<!-- Node26&#45;&gt;Node14 -->
<g id="edge28_Node000026_Node000014" class="edge">
<title>Node26&#45;&gt;Node14</title>
<g id="a_edge28_Node000026_Node000014"><a xlink:title=" ">
<path fill="none" stroke="#63b8ff" d="M1141.57,-66.11C1119.41,-55.37 1089.49,-40.86 1067.64,-30.26"/>
<polygon fill="#63b8ff" stroke="#63b8ff" points="1069.22,-27.13 1058.69,-25.92 1066.16,-33.43 1069.22,-27.13"/>
</a>
</g>
</g>
<!-- Node26&#45;&gt;Node15 -->
<g id="edge29_Node000026_Node000015" class="edge">
<title>Node26&#45;&gt;Node15</title>
<g id="a_edge29_Node000026_Node000015"><a xlink:title=" ">
<path fill="none" stroke="#63b8ff" d="M1171.75,-66.11C1171.75,-57.33 1171.75,-46.02 1171.75,-36.4"/>
<polygon fill="#63b8ff" stroke="#63b8ff" points="1175.25,-36.59 1171.75,-26.59 1168.25,-36.59 1175.25,-36.59"/>
</a>
</g>
</g>
<!-- Node26&#45;&gt;Node16 -->
<g id="edge30_Node000026_Node000016" class="edge">
<title>Node26&#45;&gt;Node16</title>
<g id="a_edge30_Node000026_Node000016"><a xlink:title=" ">
<path fill="none" stroke="#63b8ff" d="M1203.29,-66.11C1222.75,-57.08 1247.94,-45.4 1269.04,-35.61"/>
<polygon fill="#63b8ff" stroke="#63b8ff" points="1270.36,-38.85 1277.96,-31.47 1267.42,-32.5 1270.36,-38.85"/>
</a>
</g>
</g>
<!-- Node26&#45;&gt;Node17 -->
<g id="edge32_Node000026_Node000017" class="edge">
<title>Node26&#45;&gt;Node17</title>
<g id="a_edge32_Node000026_Node000017"><a xlink:title=" ">
<path fill="none" stroke="#63b8ff" d="M1222.6,-68.98C1266.18,-58.86 1330.62,-43.84 1386.75,-30.5 1390.13,-29.7 1393.61,-28.87 1397.12,-28.03"/>
<polygon fill="#63b8ff" stroke="#63b8ff" points="1397.93,-31.43 1406.83,-25.69 1396.29,-24.62 1397.93,-31.43"/>
</a>
</g>
</g>
<!-- Node26&#45;&gt;Node18 -->
<g id="edge33_Node000026_Node000018" class="edge">
<title>Node26&#45;&gt;Node18</title>
<g id="a_edge33_Node000026_Node000018"><a xlink:title=" ">
<path fill="none" stroke="#63b8ff" d="M1222.58,-74.23C1288.21,-65.54 1405.88,-49.11 1505.75,-30.5 1510.35,-29.64 1515.11,-28.7 1519.88,-27.71"/>
<polygon fill="#63b8ff" stroke="#63b8ff" points="1520.39,-31.18 1529.44,-25.67 1518.93,-24.33 1520.39,-31.18"/>
</a>
</g>
</g>
<!-- Node26&#45;&gt;Node19 -->
<g id="edge34_Node000026_Node000019" class="edge">
<title>Node26&#45;&gt;Node19</title>
<g id="a_edge34_Node000026_Node000019"><a xlink:title=" ">
<path fill="none" stroke="#63b8ff" d="M1222.5,-76.48C1307.71,-69.03 1484.87,-52.34 1633.75,-30.5 1640.21,-29.55 1646.96,-28.46 1653.66,-27.31"/>
<polygon fill="#63b8ff" stroke="#63b8ff" points="1654.11,-30.78 1663.34,-25.59 1652.89,-23.89 1654.11,-30.78"/>
</a>
</g>
</g>
<!-- Node26&#45;&gt;Node20 -->
<g id="edge35_Node000026_Node000020" class="edge">
<title>Node26&#45;&gt;Node20</title>
<g id="a_edge35_Node000026_Node000020"><a xlink:title=" ">
<path fill="none" stroke="#63b8ff" d="M1222.61,-78.1C1328.21,-72.26 1578.81,-56.69 1787.75,-30.5 1795.43,-29.54 1803.48,-28.37 1811.43,-27.13"/>
<polygon fill="#63b8ff" stroke="#63b8ff" points="1811.75,-30.62 1821.06,-25.57 1810.63,-23.71 1811.75,-30.62"/>
</a>
</g>
</g>
<!-- Node26&#45;&gt;Node21 -->
<g id="edge36_Node000026_Node000021" class="edge">
<title>Node26&#45;&gt;Node21</title>
<g id="a_edge36_Node000026_Node000021"><a xlink:title=" ">
<path fill="none" stroke="#63b8ff" d="M1121.06,-76.16C1086.59,-73.13 1039.95,-69.25 998.75,-66.5 688.93,-45.85 606.66,-67.03 295,-30.65"/>
<polygon fill="#63b8ff" stroke="#63b8ff" points="295.66,-27.2 285.31,-29.51 294.84,-34.15 295.66,-27.2"/>
</a>
</g>
</g>
<!-- Node26&#45;&gt;Node22 -->
<g id="edge37_Node000026_Node000022" class="edge">
<title>Node26&#45;&gt;Node22</title>
<g id="a_edge37_Node000026_Node000022"><a xlink:title=" ">
<path fill="none" stroke="#63b8ff" d="M1121.07,-76.04C1086.61,-72.96 1039.96,-69.06 998.75,-66.5 621.54,-43.06 521.84,-73.63 143.21,-30.66"/>
<polygon fill="#63b8ff" stroke="#63b8ff" points="143.76,-27.2 133.43,-29.54 142.96,-34.15 143.76,-27.2"/>
</a>
</g>
</g>
<!-- Node26&#45;&gt;Node23 -->
<g id="edge38_Node000026_Node000023" class="edge">
<title>Node26&#45;&gt;Node23</title>
<g id="a_edge38_Node000026_Node000023"><a xlink:title=" ">
<path fill="none" stroke="#63b8ff" d="M1121.05,-76.32C1086.58,-73.37 1039.93,-69.5 998.75,-66.5 749.29,-48.35 682.24,-64.14 431.67,-30.77"/>
<polygon fill="#63b8ff" stroke="#63b8ff" points="432.25,-27.32 421.87,-29.45 431.31,-34.25 432.25,-27.32"/>
</a>
</g>
</g>
<!-- Node26&#45;&gt;Node24 -->
<g id="edge39_Node000026_Node000024" class="edge">
<title>Node26&#45;&gt;Node24</title>
<g id="a_edge39_Node000026_Node000024"><a xlink:title=" ">
<path fill="none" stroke="#63b8ff" d="M1120.91,-75.28C1094.35,-72.5 1061.32,-69.15 1031.75,-66.5 829.46,-48.36 774.52,-59.07 571.37,-30.91"/>
<polygon fill="#63b8ff" stroke="#63b8ff" points="571.89,-27.45 561.5,-29.53 570.92,-34.38 571.89,-27.45"/>
</a>
</g>
</g>
<!-- Node26&#45;&gt;Node25 -->
<g id="edge40_Node000026_Node000025" class="edge">
<title>Node26&#45;&gt;Node25</title>
<g id="a_edge40_Node000026_Node000025"><a xlink:title=" ">
<path fill="none" stroke="#63b8ff" d="M1120.95,-73.26C1104.62,-70.96 1086.44,-68.51 1069.75,-66.5 914.98,-47.89 872.38,-53.73 715.67,-30.85"/>
<polygon fill="#63b8ff" stroke="#63b8ff" points="716.59,-27.45 706.18,-29.45 715.56,-34.38 716.59,-27.45"/>
</a>
</g>
</g>
<!-- Node27 -->
<g id="Node000027" class="node">
<title>Node27</title>
<g id="a_Node000027"><a xlink:href="_op_interfaces_8h_8inc.html" target="_top" xlink:title=" ">
<polygon fill="white" stroke="#666666" points="960.12,-30.5 847.38,-30.5 847.38,0 960.12,0 960.12,-30.5"/>
<text text-anchor="start" x="855.38" y="-17" font-family="Helvetica,sans-Serif" font-size="10.00">zklang/Dialect/ZML</text>
<text text-anchor="middle" x="903.75" y="-5.75" font-family="Helvetica,sans-Serif" font-size="10.00">/IR/OpInterfaces.h.inc</text>
</a>
</g>
</g>
<!-- Node26&#45;&gt;Node27 -->
<g id="edge41_Node000026_Node000027" class="edge">
<title>Node26&#45;&gt;Node27</title>
<g id="a_edge41_Node000026_Node000027"><a xlink:title=" ">
<path fill="none" stroke="#63b8ff" d="M1121.03,-68.54C1078.69,-58.35 1017.98,-43.74 971.48,-32.55"/>
<polygon fill="#63b8ff" stroke="#63b8ff" points="972.31,-29.15 961.76,-30.21 970.67,-35.96 972.31,-29.15"/>
</a>
</g>
</g>
<!-- Node28&#45;&gt;Node22 -->
<g id="edge47_Node000028_Node000022" class="edge">
<title>Node28&#45;&gt;Node22</title>
<g id="a_edge47_Node000028_Node000022"><a xlink:title=" ">
<path fill="none" stroke="#63b8ff" d="M569.24,-147.89C456.51,-148.43 188.41,-144.51 113.75,-97 93.81,-84.31 81.06,-60.11 73.76,-41.5"/>
<polygon fill="#63b8ff" stroke="#63b8ff" points="77.09,-40.43 70.41,-32.21 70.51,-42.8 77.09,-40.43"/>
</a>
</g>
</g>
<!-- Node28&#45;&gt;Node26 -->
<g id="edge49_Node000028_Node000026" class="edge">
<title>Node28&#45;&gt;Node26</title>
<g id="a_edge49_Node000028_Node000026"><a xlink:title=" ">
<path fill="none" stroke="#63b8ff" d="M670.2,-141.36C771.61,-129.51 999.84,-102.84 1109.98,-89.97"/>
<polygon fill="#63b8ff" stroke="#63b8ff" points="1110.19,-93.47 1119.72,-88.83 1109.38,-86.51 1110.19,-93.47"/>
</a>
</g>
</g>
<!-- Node29 -->
<g id="Node000029" class="node">
<title>Node29</title>
<g id="a_Node000029"><a xlink:title=" ">
<polygon fill="#e0e0e0" stroke="#999999" points="743.5,-91.38 624,-91.38 624,-72.12 743.5,-72.12 743.5,-91.38"/>
<text text-anchor="middle" x="683.75" y="-77.88" font-family="Helvetica,sans-Serif" font-size="10.00">llvm/ADT/TypeSwitch.h</text>
</a>
</g>
</g>
<!-- Node28&#45;&gt;Node29 -->
<g id="edge43_Node000028_Node000029" class="edge">
<title>Node28&#45;&gt;Node29</title>
<g id="a_edge43_Node000028_Node000029"><a xlink:title=" ">
<path fill="none" stroke="#63b8ff" d="M634.27,-132.61C643.97,-122.84 656.76,-109.95 666.9,-99.73"/>
<polygon fill="#63b8ff" stroke="#63b8ff" points="669.37,-102.21 673.93,-92.65 664.4,-97.28 669.37,-102.21"/>
</a>
</g>
</g>
<!-- Node30 -->
<g id="Node000030" class="node">
<title>Node30</title>
<g id="a_Node000030"><a xlink:title=" ">
<polygon fill="#e0e0e0" stroke="#999999" points="871.62,-91.38 761.88,-91.38 761.88,-72.12 871.62,-72.12 871.62,-91.38"/>
<text text-anchor="middle" x="816.75" y="-77.88" font-family="Helvetica,sans-Serif" font-size="10.00">mlir/IR/BuiltinTypes.h</text>
</a>
</g>
</g>
<!-- Node28&#45;&gt;Node30 -->
<g id="edge44_Node000028_Node000030" class="edge">
<title>Node28&#45;&gt;Node30</title>
<g id="a_edge44_Node000028_Node000030"><a xlink:title=" ">
<path fill="none" stroke="#63b8ff" d="M664.45,-132.61C698.67,-121.41 745.39,-106.11 778.03,-95.43"/>
<polygon fill="#63b8ff" stroke="#63b8ff" points="779.09,-98.76 787.51,-92.32 776.91,-92.11 779.09,-98.76"/>
</a>
</g>
</g>
<!-- Node31 -->
<g id="Node000031" class="node">
<title>Node31</title>
<g id="a_Node000031"><a xlink:title=" ">
<polygon fill="#e0e0e0" stroke="#999999" points="235.12,-91.38 122.38,-91.38 122.38,-72.12 235.12,-72.12 235.12,-91.38"/>
<text text-anchor="middle" x="178.75" y="-77.88" font-family="Helvetica,sans-Serif" font-size="10.00">mlir/IR/SymbolTable.h</text>
</a>
</g>
</g>
<!-- Node28&#45;&gt;Node31 -->
<g id="edge45_Node000028_Node000031" class="edge">
<title>Node28&#45;&gt;Node31</title>
<g id="a_edge45_Node000028_Node000031"><a xlink:title=" ">
<path fill="none" stroke="#63b8ff" d="M568.91,-141.74C496.62,-133.6 360.09,-117.15 244.75,-97 239.81,-96.14 234.68,-95.16 229.56,-94.14"/>
<polygon fill="#63b8ff" stroke="#63b8ff" points="230.42,-90.75 219.92,-92.16 229.01,-97.6 230.42,-90.75"/>
</a>
</g>
</g>
<!-- Node32 -->
<g id="Node000032" class="node">
<title>Node32</title>
<g id="a_Node000032"><a xlink:title=" ">
<polygon fill="#e0e0e0" stroke="#999999" points="336.12,-91.38 253.38,-91.38 253.38,-72.12 336.12,-72.12 336.12,-91.38"/>
<text text-anchor="middle" x="294.75" y="-77.88" font-family="Helvetica,sans-Serif" font-size="10.00">mlir/IR/Types.h</text>
</a>
</g>
</g>
<!-- Node28&#45;&gt;Node32 -->
<g id="edge46_Node000028_Node000032" class="edge">
<title>Node28&#45;&gt;Node32</title>
<g id="a_edge46_Node000028_Node000032"><a xlink:title=" ">
<path fill="none" stroke="#63b8ff" d="M569.01,-139.49C513.6,-130.67 422.38,-115.11 344.75,-97 341.8,-96.31 338.77,-95.56 335.72,-94.77"/>
<polygon fill="#63b8ff" stroke="#63b8ff" points="336.8,-91.44 326.23,-92.21 334.97,-98.2 336.8,-91.44"/>
</a>
</g>
</g>
<!-- Node33 -->
<g id="Node000033" class="node">
<title>Node33</title>
<g id="a_Node000033"><a xlink:title=" ">
<polygon fill="#e0e0e0" stroke="#999999" points="487.62,-97 353.88,-97 353.88,-66.5 487.62,-66.5 487.62,-97"/>
<text text-anchor="start" x="361.88" y="-83.5" font-family="Helvetica,sans-Serif" font-size="10.00">mlir/Interfaces/MemorySlot</text>
<text text-anchor="middle" x="420.75" y="-72.25" font-family="Helvetica,sans-Serif" font-size="10.00">Interfaces.h</text>
</a>
</g>
</g>
<!-- Node28&#45;&gt;Node33 -->
<g id="edge48_Node000028_Node000033" class="edge">
<title>Node28&#45;&gt;Node33</title>
<g id="a_edge48_Node000028_Node000033"><a xlink:title=" ">
<path fill="none" stroke="#63b8ff" d="M574.59,-132.61C545.56,-123.2 507.63,-110.91 476.7,-100.88"/>
<polygon fill="#63b8ff" stroke="#63b8ff" points="478.1,-97.66 467.51,-97.91 475.94,-104.32 478.1,-97.66"/>
</a>
</g>
</g>
<!-- Node28&#45;&gt;Node34 -->
<g id="edge50_Node000028_Node000034" class="edge">
<title>Node28&#45;&gt;Node34</title>
<g id="a_edge50_Node000028_Node000034"><a xlink:title=" ">
<path fill="none" stroke="#63b8ff" d="M670.42,-138.22C720.74,-129.09 800.36,-114.21 878,-97.55"/>
<polygon fill="#63b8ff" stroke="#63b8ff" points="878.42,-101.03 887.46,-95.5 876.94,-94.19 878.42,-101.03"/>
</a>
</g>
</g>
<!-- Node35 -->
<g id="Node000035" class="node">
<title>Node35</title>
<g id="a_Node000035"><a xlink:href="_types_8h_8inc.html" target="_top" xlink:title=" ">
<polygon fill="white" stroke="#666666" points="606.12,-97 505.38,-97 505.38,-66.5 606.12,-66.5 606.12,-97"/>
<text text-anchor="start" x="513.38" y="-83.5" font-family="Helvetica,sans-Serif" font-size="10.00">zklang/Dialect/ZML</text>
<text text-anchor="middle" x="555.75" y="-72.25" font-family="Helvetica,sans-Serif" font-size="10.00">/IR/Types.h.inc</text>
</a>
</g>
</g>
<!-- Node28&#45;&gt;Node35 -->
<g id="edge51_Node000028_Node000035" class="edge">
<title>Node28&#45;&gt;Node35</title>
<g id="a_edge51_Node000028_Node000035"><a xlink:title=" ">
<path fill="none" stroke="#63b8ff" d="M605.23,-132.61C597.21,-124.53 587.08,-114.32 578.07,-105.25"/>
<polygon fill="#63b8ff" stroke="#63b8ff" points="580.81,-103.04 571.28,-98.4 575.84,-107.97 580.81,-103.04"/>
</a>
</g>
</g>
</g>
</svg>
