<?xml version="1.0" encoding="UTF-8" standalone="no"?>
<!DOCTYPE svg PUBLIC "-//W3C//DTD SVG 1.1//EN"
 "http://www.w3.org/Graphics/SVG/1.1/DTD/svg11.dtd">
<!-- Generated by graphviz version 12.2.1 (20241206.2353)
 -->
<!-- Title: include/zklang/Dialect/ZHL/Typing/Scope.h Pages: 1 -->
<svg width="2286pt" height="438pt"
 viewBox="0.00 0.00 2285.75 437.50" xmlns="http://www.w3.org/2000/svg" xmlns:xlink="http://www.w3.org/1999/xlink">
<g id="graph0" class="graph" transform="scale(1 1) rotate(0) translate(4 433.5)">
<title>include/zklang/Dialect/ZHL/Typing/Scope.h</title>
<!-- Node1 -->
<g id="Node000001" class="node">
<title>Node1</title>
<g id="a_Node000001"><a xlink:title=" ">
<polygon fill="#999999" stroke="#666666" points="615,-429.5 503,-429.5 503,-399 615,-399 615,-429.5"/>
<text text-anchor="start" x="511" y="-416" font-family="Helvetica,sans-Serif" font-size="10.00">include/zklang/Dialect</text>
<text text-anchor="middle" x="559" y="-404.75" font-family="Helvetica,sans-Serif" font-size="10.00">/ZHL/Typing/Scope.h</text>
</a>
</g>
</g>
<!-- Node2 -->
<g id="Node000002" class="node">
<title>Node2</title>
<g id="a_Node000002"><a xlink:title=" ">
<polygon fill="#e0e0e0" stroke="#999999" points="743.25,-24.88 638.75,-24.88 638.75,-5.63 743.25,-5.63 743.25,-24.88"/>
<text text-anchor="middle" x="691" y="-11.38" font-family="Helvetica,sans-Serif" font-size="10.00">mlir/Support/LLVM.h</text>
</a>
</g>
</g>
<!-- Node1&#45;&gt;Node2 -->
<g id="edge1_Node000001_Node000002" class="edge">
<title>Node1&#45;&gt;Node2</title>
<g id="a_edge1_Node000001_Node000002"><a xlink:title=" ">
<path fill="none" stroke="#63b8ff" d="M502.86,-410.8C376.85,-404.88 79.55,-388.36 42,-363 8.48,-340.36 0,-322.7 0,-282.25 0,-282.25 0,-282.25 0,-147.25 0,-106.8 8.26,-88.81 42,-66.5 90.05,-34.73 473.27,-21.69 627.26,-17.7"/>
<polygon fill="#63b8ff" stroke="#63b8ff" points="626.97,-21.21 636.87,-17.45 626.79,-14.21 626.97,-21.21"/>
</a>
</g>
</g>
<!-- Node3 -->
<g id="Node000003" class="node">
<title>Node3</title>
<g id="a_Node000003"><a xlink:title=" ">
<polygon fill="#e0e0e0" stroke="#999999" points="1501.5,-91.38 1362.5,-91.38 1362.5,-72.12 1501.5,-72.12 1501.5,-91.38"/>
<text text-anchor="middle" x="1432" y="-77.88" font-family="Helvetica,sans-Serif" font-size="10.00">mlir/Support/LogicalResult.h</text>
</a>
</g>
</g>
<!-- Node1&#45;&gt;Node3 -->
<g id="edge2_Node000001_Node000003" class="edge">
<title>Node1&#45;&gt;Node3</title>
<g id="a_edge2_Node000001_Node000003"><a xlink:title=" ">
<path fill="none" stroke="#63b8ff" d="M615.12,-411.43C890.43,-402.15 2085,-357.53 2085,-282.25 2085,-282.25 2085,-282.25 2085,-213.75 2085,-169.82 2066.12,-154.83 2028,-133 1984.38,-108.02 1665.7,-92.08 1513.07,-85.79"/>
<polygon fill="#63b8ff" stroke="#63b8ff" points="1513.58,-82.31 1503.44,-85.4 1513.29,-89.31 1513.58,-82.31"/>
</a>
</g>
</g>
<!-- Node4 -->
<g id="Node000004" class="node">
<title>Node4</title>
<g id="a_Node000004"><a xlink:title=" ">
<polygon fill="#e0e0e0" stroke="#999999" points="607.88,-363 510.12,-363 510.12,-332.5 607.88,-332.5 607.88,-363"/>
<text text-anchor="start" x="518.12" y="-349.5" font-family="Helvetica,sans-Serif" font-size="10.00">zirgen/Dialect/ZHL</text>
<text text-anchor="middle" x="559" y="-338.25" font-family="Helvetica,sans-Serif" font-size="10.00">/IR/ZHL.h</text>
</a>
</g>
</g>
<!-- Node1&#45;&gt;Node4 -->
<g id="edge3_Node000001_Node000004" class="edge">
<title>Node1&#45;&gt;Node4</title>
<g id="a_edge3_Node000001_Node000004"><a xlink:title=" ">
<path fill="none" stroke="#63b8ff" d="M559,-398.61C559,-391.52 559,-382.79 559,-374.63"/>
<polygon fill="#63b8ff" stroke="#63b8ff" points="562.5,-374.84 559,-364.84 555.5,-374.84 562.5,-374.84"/>
</a>
</g>
</g>
<!-- Node5 -->
<g id="Node000005" class="node">
<title>Node5</title>
<g id="a_Node000005"><a xlink:href="_params_storage_8h.html" target="_top" xlink:title=" ">
<polygon fill="white" stroke="#666666" points="177.12,-363 50.88,-363 50.88,-332.5 177.12,-332.5 177.12,-363"/>
<text text-anchor="start" x="58.88" y="-349.5" font-family="Helvetica,sans-Serif" font-size="10.00">zklang/Dialect/ZHL</text>
<text text-anchor="middle" x="114" y="-338.25" font-family="Helvetica,sans-Serif" font-size="10.00">/Typing/ParamsStorage.h</text>
</a>
</g>
</g>
<!-- Node1&#45;&gt;Node5 -->
<g id="edge4_Node000001_Node000005" class="edge">
<title>Node1&#45;&gt;Node5</title>
<g id="a_edge4_Node000001_Node000005"><a xlink:title=" ">
<path fill="none" stroke="#63b8ff" d="M502.64,-405.08C422.99,-393.54 277.34,-372.43 188.74,-359.58"/>
<polygon fill="#63b8ff" stroke="#63b8ff" points="189.33,-356.13 178.93,-358.16 188.32,-363.06 189.33,-356.13"/>
</a>
</g>
</g>
<!-- Node34 -->
<g id="Node000034" class="node">
<title>Node34</title>
<g id="a_Node000034"><a xlink:href="_type_bindings_8h.html" target="_top" xlink:title=" ">
<polygon fill="white" stroke="#666666" points="1034.62,-363 917.38,-363 917.38,-332.5 1034.62,-332.5 1034.62,-363"/>
<text text-anchor="start" x="925.38" y="-349.5" font-family="Helvetica,sans-Serif" font-size="10.00">zklang/Dialect/ZHL</text>
<text text-anchor="middle" x="976" y="-338.25" font-family="Helvetica,sans-Serif" font-size="10.00">/Typing/TypeBindings.h</text>
</a>
</g>
</g>
<!-- Node1&#45;&gt;Node34 -->
<g id="edge59_Node000001_Node000034" class="edge">
<title>Node1&#45;&gt;Node34</title>
<g id="a_edge59_Node000001_Node000034"><a xlink:title=" ">
<path fill="none" stroke="#63b8ff" d="M615.24,-404.55C690.51,-392.91 823.99,-372.26 905.77,-359.61"/>
<polygon fill="#63b8ff" stroke="#63b8ff" points="906.12,-363.1 915.47,-358.11 905.05,-356.18 906.12,-363.1"/>
</a>
</g>
</g>
<!-- Node5&#45;&gt;Node2 -->
<g id="edge7_Node000005_Node000002" class="edge">
<title>Node5&#45;&gt;Node2</title>
<g id="a_edge7_Node000005_Node000002"><a xlink:title=" ">
<path fill="none" stroke="#63b8ff" d="M98.62,-332.24C76.41,-309.63 38,-263.6 38,-215.75 38,-215.75 38,-215.75 38,-147.25 38,-107.96 41.94,-89.21 74,-66.5 118.39,-35.05 478.53,-21.92 627.18,-17.8"/>
<polygon fill="#63b8ff" stroke="#63b8ff" points="626.95,-21.31 636.85,-17.53 626.76,-14.31 626.95,-21.31"/>
</a>
</g>
</g>
<!-- Node6 -->
<g id="Node000006" class="node">
<title>Node6</title>
<g id="a_Node000006"><a xlink:title=" ">
<polygon fill="#e0e0e0" stroke="#999999" points="195.38,-91.38 82.62,-91.38 82.62,-72.12 195.38,-72.12 195.38,-91.38"/>
<text text-anchor="middle" x="139" y="-77.88" font-family="Helvetica,sans-Serif" font-size="10.00">llvm/ADT/StringMap.h</text>
</a>
</g>
</g>
<!-- Node5&#45;&gt;Node6 -->
<g id="edge5_Node000005_Node000006" class="edge">
<title>Node5&#45;&gt;Node6</title>
<g id="a_edge5_Node000005_Node000006"><a xlink:title=" ">
<path fill="none" stroke="#63b8ff" d="M109.3,-332.24C98.67,-296.98 75.54,-204.42 100,-133 104.29,-120.46 113.13,-108.64 121.31,-99.61"/>
<polygon fill="#63b8ff" stroke="#63b8ff" points="123.58,-102.3 128.02,-92.68 118.55,-97.43 123.58,-102.3"/>
</a>
</g>
</g>
<!-- Node7 -->
<g id="Node000007" class="node">
<title>Node7</title>
<g id="a_Node000007"><a xlink:title=" ">
<polygon fill="#e0e0e0" stroke="#999999" points="330.88,-91.38 221.12,-91.38 221.12,-72.12 330.88,-72.12 330.88,-91.38"/>
<text text-anchor="middle" x="276" y="-77.88" font-family="Helvetica,sans-Serif" font-size="10.00">llvm/ADT/StringRef.h</text>
</a>
</g>
</g>
<!-- Node5&#45;&gt;Node7 -->
<g id="edge6_Node000005_Node000007" class="edge">
<title>Node5&#45;&gt;Node7</title>
<g id="a_edge6_Node000005_Node000007"><a xlink:title=" ">
<path fill="none" stroke="#63b8ff" d="M114.36,-332.21C116.02,-294.82 125.23,-194.05 176,-133 190.47,-115.61 212.46,-103.64 232.14,-95.76"/>
<polygon fill="#63b8ff" stroke="#63b8ff" points="233.21,-99.1 241.36,-92.33 230.76,-92.54 233.21,-99.1"/>
</a>
</g>
</g>
<!-- Node8 -->
<g id="Node000008" class="node">
<title>Node8</title>
<g id="a_Node000008"><a xlink:href="_type_binding_8h.html" target="_top" xlink:title=" ">
<polygon fill="white" stroke="#666666" points="874,-296.5 762,-296.5 762,-266 874,-266 874,-296.5"/>
<text text-anchor="start" x="770" y="-283" font-family="Helvetica,sans-Serif" font-size="10.00">zklang/Dialect/ZHL</text>
<text text-anchor="middle" x="818" y="-271.75" font-family="Helvetica,sans-Serif" font-size="10.00">/Typing/TypeBinding.h</text>
</a>
</g>
</g>
<!-- Node5&#45;&gt;Node8 -->
<g id="edge8_Node000005_Node000008" class="edge">
<title>Node5&#45;&gt;Node8</title>
<g id="a_edge8_Node000005_Node000008"><a xlink:title=" ">
<path fill="none" stroke="#63b8ff" d="M177.41,-340.94C309.76,-328.82 614.37,-300.91 750.33,-288.45"/>
<polygon fill="#63b8ff" stroke="#63b8ff" points="750.64,-291.94 760.27,-287.54 750,-284.97 750.64,-291.94"/>
</a>
</g>
</g>
<!-- Node8&#45;&gt;Node2 -->
<g id="edge19_Node000008_Node000002" class="edge">
<title>Node8&#45;&gt;Node2</title>
<g id="a_edge19_Node000008_Node000002"><a xlink:title=" ">
<path fill="none" stroke="#63b8ff" d="M761.59,-277.58C652.82,-271.85 422.67,-256.68 399,-230 351.5,-176.46 349.34,-160.95 478,-66.5 521.34,-34.68 581.85,-22.69 627.3,-18.32"/>
<polygon fill="#63b8ff" stroke="#63b8ff" points="627.34,-21.83 637.01,-17.5 626.75,-14.86 627.34,-21.83"/>
</a>
</g>
</g>
<!-- Node8&#45;&gt;Node3 -->
<g id="edge20_Node000008_Node000003" class="edge">
<title>Node8&#45;&gt;Node3</title>
<g id="a_edge20_Node000008_Node000003"><a xlink:title=" ">
<path fill="none" stroke="#63b8ff" d="M840.02,-265.57C854.99,-255.58 875.22,-242.03 893,-230 956.3,-187.17 963.54,-160.11 1035,-133 1091,-111.76 1251.66,-96.33 1350.59,-88.53"/>
<polygon fill="#63b8ff" stroke="#63b8ff" points="1350.84,-92.02 1360.53,-87.75 1350.29,-85.04 1350.84,-92.02"/>
</a>
</g>
</g>
<!-- Node8&#45;&gt;Node6 -->
<g id="edge12_Node000008_Node000006" class="edge">
<title>Node8&#45;&gt;Node6</title>
<g id="a_edge12_Node000008_Node000006"><a xlink:title=" ">
<path fill="none" stroke="#63b8ff" d="M761.65,-278.31C650.52,-273.86 407.23,-260.82 330,-230 255.32,-200.2 185.2,-132.24 154.82,-100.15"/>
<polygon fill="#63b8ff" stroke="#63b8ff" points="157.43,-97.81 148.06,-92.87 152.3,-102.58 157.43,-97.81"/>
</a>
</g>
</g>
<!-- Node8&#45;&gt;Node7 -->
<g id="edge13_Node000008_Node000007" class="edge">
<title>Node8&#45;&gt;Node7</title>
<g id="a_edge13_Node000008_Node000007"><a xlink:title=" ">
<path fill="none" stroke="#63b8ff" d="M761.86,-280.06C655.71,-278.73 430.46,-270.99 366,-230 318.7,-199.92 292.46,-135.15 281.77,-102.47"/>
<polygon fill="#63b8ff" stroke="#63b8ff" points="285.17,-101.62 278.87,-93.1 278.48,-103.69 285.17,-101.62"/>
</a>
</g>
</g>
<!-- Node9 -->
<g id="Node000009" class="node">
<title>Node9</title>
<g id="a_Node000009"><a xlink:title=" ">
<polygon fill="#e0e0e0" stroke="#999999" points="535.12,-91.38 486.88,-91.38 486.88,-72.12 535.12,-72.12 535.12,-91.38"/>
<text text-anchor="middle" x="511" y="-77.88" font-family="Helvetica,sans-Serif" font-size="10.00">cassert</text>
</a>
</g>
</g>
<!-- Node8&#45;&gt;Node9 -->
<g id="edge9_Node000008_Node000009" class="edge">
<title>Node8&#45;&gt;Node9</title>
<g id="a_edge9_Node000008_Node000009"><a xlink:title=" ">
<path fill="none" stroke="#63b8ff" d="M786.62,-265.53C768.28,-256.35 745.07,-243.7 726,-230 709.78,-218.35 709.3,-211.05 693,-199.5 665.1,-179.73 654.12,-181.42 625,-163.5 591.17,-142.69 553.97,-115.46 531.56,-98.54"/>
<polygon fill="#63b8ff" stroke="#63b8ff" points="533.92,-95.94 523.84,-92.67 529.69,-101.51 533.92,-95.94"/>
</a>
</g>
</g>
<!-- Node10 -->
<g id="Node000010" class="node">
<title>Node10</title>
<g id="a_Node000010"><a xlink:title=" ">
<polygon fill="#e0e0e0" stroke="#999999" points="1717.62,-157.88 1672.38,-157.88 1672.38,-138.62 1717.62,-138.62 1717.62,-157.88"/>
<text text-anchor="middle" x="1695" y="-144.38" font-family="Helvetica,sans-Serif" font-size="10.00">cstdint</text>
</a>
</g>
</g>
<!-- Node8&#45;&gt;Node10 -->
<g id="edge10_Node000008_Node000010" class="edge">
<title>Node8&#45;&gt;Node10</title>
<g id="a_edge10_Node000008_Node000010"><a xlink:title=" ">
<path fill="none" stroke="#63b8ff" d="M874.31,-271.67C889.44,-269.58 905.82,-267.52 921,-266 1179.76,-240.16 1251.9,-289.72 1505,-230 1566.33,-215.53 1633.03,-182.85 1668.81,-163.8"/>
<polygon fill="#63b8ff" stroke="#63b8ff" points="1670.41,-166.91 1677.54,-159.07 1667.08,-160.75 1670.41,-166.91"/>
</a>
</g>
</g>
<!-- Node11 -->
<g id="Node000011" class="node">
<title>Node11</title>
<g id="a_Node000011"><a xlink:title=" ">
<polygon fill="#e0e0e0" stroke="#999999" points="502,-224.38 408,-224.38 408,-205.12 502,-205.12 502,-224.38"/>
<text text-anchor="middle" x="455" y="-210.88" font-family="Helvetica,sans-Serif" font-size="10.00">llvm/ADT/Bitset.h</text>
</a>
</g>
</g>
<!-- Node8&#45;&gt;Node11 -->
<g id="edge11_Node000008_Node000011" class="edge">
<title>Node8&#45;&gt;Node11</title>
<g id="a_edge11_Node000008_Node000011"><a xlink:title=" ">
<path fill="none" stroke="#63b8ff" d="M761.71,-272.54C699.93,-263.72 597.97,-248.15 511,-230 507.25,-229.22 503.38,-228.35 499.5,-227.45"/>
<polygon fill="#63b8ff" stroke="#63b8ff" points="500.66,-224.13 490.12,-225.17 499.01,-230.93 500.66,-224.13"/>
</a>
</g>
</g>
<!-- Node12 -->
<g id="Node000012" class="node">
<title>Node12</title>
<g id="a_Node000012"><a xlink:title=" ">
<polygon fill="#e0e0e0" stroke="#999999" points="663.25,-91.38 552.75,-91.38 552.75,-72.12 663.25,-72.12 663.25,-91.38"/>
<text text-anchor="middle" x="608" y="-77.88" font-family="Helvetica,sans-Serif" font-size="10.00">llvm/Support/Debug.h</text>
</a>
</g>
</g>
<!-- Node8&#45;&gt;Node12 -->
<g id="edge14_Node000008_Node000012" class="edge">
<title>Node8&#45;&gt;Node12</title>
<g id="a_edge14_Node000008_Node000012"><a xlink:title=" ">
<path fill="none" stroke="#63b8ff" d="M802.34,-265.57C780.53,-245.29 741.87,-209.99 726,-199.5 695.15,-179.12 677.69,-189.09 651,-163.5 633.21,-146.44 621.19,-120.39 614.48,-102.52"/>
<polygon fill="#63b8ff" stroke="#63b8ff" points="617.78,-101.37 611.17,-93.09 611.18,-103.69 617.78,-101.37"/>
</a>
</g>
</g>
<!-- Node13 -->
<g id="Node000013" class="node">
<title>Node13</title>
<g id="a_Node000013"><a xlink:title=" ">
<polygon fill="#e0e0e0" stroke="#999999" points="1786.62,-157.88 1735.38,-157.88 1735.38,-138.62 1786.62,-138.62 1786.62,-157.88"/>
<text text-anchor="middle" x="1761" y="-144.38" font-family="Helvetica,sans-Serif" font-size="10.00">memory</text>
</a>
</g>
</g>
<!-- Node8&#45;&gt;Node13 -->
<g id="edge15_Node000008_Node000013" class="edge">
<title>Node8&#45;&gt;Node13</title>
<g id="a_edge15_Node000008_Node000013"><a xlink:title=" ">
<path fill="none" stroke="#63b8ff" d="M874.3,-271.62C889.44,-269.53 905.82,-267.47 921,-266 1205,-238.43 1283.52,-292.16 1562,-230 1626.42,-215.62 1696.9,-182.52 1734.26,-163.46"/>
<polygon fill="#63b8ff" stroke="#63b8ff" points="1735.7,-166.65 1742.97,-158.95 1732.48,-160.44 1735.7,-166.65"/>
</a>
</g>
</g>
<!-- Node14 -->
<g id="Node000014" class="node">
<title>Node14</title>
<g id="a_Node000014"><a xlink:title=" ">
<polygon fill="#e0e0e0" stroke="#999999" points="810.88,-91.38 719.12,-91.38 719.12,-72.12 810.88,-72.12 810.88,-91.38"/>
<text text-anchor="middle" x="765" y="-77.88" font-family="Helvetica,sans-Serif" font-size="10.00">mlir/IR/Builders.h</text>
</a>
</g>
</g>
<!-- Node8&#45;&gt;Node14 -->
<g id="edge16_Node000008_Node000014" class="edge">
<title>Node8&#45;&gt;Node14</title>
<g id="a_edge16_Node000008_Node000014"><a xlink:title=" ">
<path fill="none" stroke="#63b8ff" d="M814.1,-265.73C804.74,-230.84 780.97,-142.27 770.31,-102.55"/>
<polygon fill="#63b8ff" stroke="#63b8ff" points="773.71,-101.72 767.74,-92.97 766.95,-103.53 773.71,-101.72"/>
</a>
</g>
</g>
<!-- Node15 -->
<g id="Node000015" class="node">
<title>Node15</title>
<g id="a_Node000015"><a xlink:title=" ">
<polygon fill="#e0e0e0" stroke="#999999" points="937.12,-91.38 828.88,-91.38 828.88,-72.12 937.12,-72.12 937.12,-91.38"/>
<text text-anchor="middle" x="883" y="-77.88" font-family="Helvetica,sans-Serif" font-size="10.00">mlir/IR/Diagnostics.h</text>
</a>
</g>
</g>
<!-- Node8&#45;&gt;Node15 -->
<g id="edge17_Node000008_Node000015" class="edge">
<title>Node8&#45;&gt;Node15</title>
<g id="a_edge17_Node000008_Node000015"><a xlink:title=" ">
<path fill="none" stroke="#63b8ff" d="M822.78,-265.73C834.29,-230.77 863.54,-141.89 876.57,-102.3"/>
<polygon fill="#63b8ff" stroke="#63b8ff" points="879.84,-103.53 879.65,-92.94 873.19,-101.35 879.84,-103.53"/>
</a>
</g>
</g>
<!-- Node16 -->
<g id="Node000016" class="node">
<title>Node16</title>
<g id="a_Node000016"><a xlink:title=" ">
<polygon fill="#e0e0e0" stroke="#999999" points="1048.62,-91.38 955.38,-91.38 955.38,-72.12 1048.62,-72.12 1048.62,-91.38"/>
<text text-anchor="middle" x="1002" y="-77.88" font-family="Helvetica,sans-Serif" font-size="10.00">mlir/IR/Location.h</text>
</a>
</g>
</g>
<!-- Node8&#45;&gt;Node16 -->
<g id="edge18_Node000008_Node000016" class="edge">
<title>Node8&#45;&gt;Node16</title>
<g id="a_edge18_Node000008_Node000016"><a xlink:title=" ">
<path fill="none" stroke="#63b8ff" d="M831.53,-265.73C864.88,-229.94 950.87,-137.64 986.34,-99.56"/>
<polygon fill="#63b8ff" stroke="#63b8ff" points="988.56,-102.31 992.81,-92.61 983.44,-97.54 988.56,-102.31"/>
</a>
</g>
</g>
<!-- Node17 -->
<g id="Node000017" class="node">
<title>Node17</title>
<g id="a_Node000017"><a xlink:href="_expr_8h.html" target="_top" xlink:title=" ">
<polygon fill="white" stroke="#666666" points="1496,-230 1396,-230 1396,-199.5 1496,-199.5 1496,-230"/>
<text text-anchor="start" x="1404" y="-216.5" font-family="Helvetica,sans-Serif" font-size="10.00">zklang/Dialect/ZHL</text>
<text text-anchor="middle" x="1446" y="-205.25" font-family="Helvetica,sans-Serif" font-size="10.00">/Typing/Expr.h</text>
</a>
</g>
</g>
<!-- Node8&#45;&gt;Node17 -->
<g id="edge21_Node000008_Node000017" class="edge">
<title>Node8&#45;&gt;Node17</title>
<g id="a_edge21_Node000008_Node000017"><a xlink:title=" ">
<path fill="none" stroke="#63b8ff" d="M874.34,-272.02C889.48,-269.93 905.85,-267.77 921,-266 1088.3,-246.43 1286.27,-229.04 1384.43,-220.8"/>
<polygon fill="#63b8ff" stroke="#63b8ff" points="1384.43,-224.31 1394.1,-219.99 1383.85,-217.33 1384.43,-224.31"/>
</a>
</g>
</g>
<!-- Node25 -->
<g id="Node000025" class="node">
<title>Node25</title>
<g id="a_Node000025"><a xlink:href="_params_8h.html" target="_top" xlink:title=" ">
<polygon fill="white" stroke="#666666" points="760,-163.5 660,-163.5 660,-133 760,-133 760,-163.5"/>
<text text-anchor="start" x="668" y="-150" font-family="Helvetica,sans-Serif" font-size="10.00">zklang/Dialect/ZHL</text>
<text text-anchor="middle" x="710" y="-138.75" font-family="Helvetica,sans-Serif" font-size="10.00">/Typing/Params.h</text>
</a>
</g>
</g>
<!-- Node8&#45;&gt;Node25 -->
<g id="edge56_Node000008_Node000025" class="edge">
<title>Node8&#45;&gt;Node25</title>
<g id="a_edge56_Node000008_Node000025"><a xlink:title=" ">
<path fill="none" stroke="#63b8ff" d="M809.58,-265.53C799.68,-248.77 782.26,-220.94 764,-199.5 755.57,-189.6 745.33,-179.65 736.04,-171.24"/>
<polygon fill="#63b8ff" stroke="#63b8ff" points="738.47,-168.71 728.66,-164.71 733.83,-173.96 738.47,-168.71"/>
</a>
</g>
</g>
<!-- Node26 -->
<g id="Node000026" class="node">
<title>Node26</title>
<g id="a_Node000026"><a xlink:href="_frame_8h.html" target="_top" xlink:title=" ">
<polygon fill="white" stroke="#666666" points="1991,-230 1891,-230 1891,-199.5 1991,-199.5 1991,-230"/>
<text text-anchor="start" x="1899" y="-216.5" font-family="Helvetica,sans-Serif" font-size="10.00">zklang/Dialect/ZHL</text>
<text text-anchor="middle" x="1941" y="-205.25" font-family="Helvetica,sans-Serif" font-size="10.00">/Typing/Frame.h</text>
</a>
</g>
</g>
<!-- Node8&#45;&gt;Node26 -->
<g id="edge43_Node000008_Node000026" class="edge">
<title>Node8&#45;&gt;Node26</title>
<g id="a_edge43_Node000008_Node000026"><a xlink:title=" ">
<path fill="none" stroke="#63b8ff" d="M874.29,-271.55C889.43,-269.46 905.81,-267.42 921,-266 924,-265.72 1658.89,-229.61 1879.26,-218.78"/>
<polygon fill="#63b8ff" stroke="#63b8ff" points="1879.26,-222.29 1889.07,-218.3 1878.91,-215.3 1879.26,-222.29"/>
</a>
</g>
</g>
<!-- Node29 -->
<g id="Node000029" class="node">
<title>Node29</title>
<g id="a_Node000029"><a xlink:href="_frame_slot_8h.html" target="_top" xlink:title=" ">
<polygon fill="white" stroke="#666666" points="2216.88,-97 2113.12,-97 2113.12,-66.5 2216.88,-66.5 2216.88,-97"/>
<text text-anchor="start" x="2121.12" y="-83.5" font-family="Helvetica,sans-Serif" font-size="10.00">zklang/Dialect/ZHL</text>
<text text-anchor="middle" x="2165" y="-72.25" font-family="Helvetica,sans-Serif" font-size="10.00">/Typing/FrameSlot.h</text>
</a>
</g>
</g>
<!-- Node8&#45;&gt;Node29 -->
<g id="edge55_Node000008_Node000029" class="edge">
<title>Node8&#45;&gt;Node29</title>
<g id="a_edge55_Node000008_Node000029"><a xlink:title=" ">
<path fill="none" stroke="#63b8ff" d="M874.28,-271.38C889.41,-269.3 905.8,-267.3 921,-266 1399.07,-225.07 1526.29,-306.33 2000,-230 2103.37,-213.34 2163.28,-247.34 2226,-163.5 2241.2,-143.19 2219.85,-120.1 2198.35,-103.83"/>
<polygon fill="#63b8ff" stroke="#63b8ff" points="2200.63,-101.16 2190.46,-98.19 2196.55,-106.85 2200.63,-101.16"/>
</a>
</g>
</g>
<!-- Node32 -->
<g id="Node000032" class="node">
<title>Node32</title>
<g id="a_Node000032"><a xlink:href="_copyable_pointer_8h.html" target="_top" xlink:title=" ">
<polygon fill="white" stroke="#666666" points="683.88,-224.38 520.12,-224.38 520.12,-205.12 683.88,-205.12 683.88,-224.38"/>
<text text-anchor="middle" x="602" y="-210.88" font-family="Helvetica,sans-Serif" font-size="10.00">zklang/Support/CopyablePointer.h</text>
</a>
</g>
</g>
<!-- Node8&#45;&gt;Node32 -->
<g id="edge57_Node000008_Node000032" class="edge">
<title>Node8&#45;&gt;Node32</title>
<g id="a_edge57_Node000008_Node000032"><a xlink:title=" ">
<path fill="none" stroke="#63b8ff" d="M768.72,-265.53C730.85,-254.23 679.16,-238.79 643.42,-228.12"/>
<polygon fill="#63b8ff" stroke="#63b8ff" points="644.44,-224.77 633.86,-225.26 642.44,-231.48 644.44,-224.77"/>
</a>
</g>
</g>
<!-- Node17&#45;&gt;Node2 -->
<g id="edge31_Node000017_Node000002" class="edge">
<title>Node17&#45;&gt;Node2</title>
<g id="a_edge31_Node000017_Node000002"><a xlink:title=" ">
<path fill="none" stroke="#63b8ff" d="M1461.67,-199.41C1491.08,-170.85 1548.33,-106.19 1511,-66.5 1485.19,-39.06 943.21,-22.68 754.84,-17.8"/>
<polygon fill="#63b8ff" stroke="#63b8ff" points="755.08,-14.3 745,-17.55 754.9,-21.3 755.08,-14.3"/>
</a>
</g>
</g>
<!-- Node17&#45;&gt;Node3 -->
<g id="edge32_Node000017_Node000003" class="edge">
<title>Node17&#45;&gt;Node3</title>
<g id="a_edge32_Node000017_Node000003"><a xlink:title=" ">
<path fill="none" stroke="#63b8ff" d="M1456.91,-199.1C1467.6,-182.88 1481.18,-155.98 1473,-133 1468.52,-120.43 1459.41,-108.73 1450.9,-99.79"/>
<polygon fill="#63b8ff" stroke="#63b8ff" points="1453.47,-97.4 1443.88,-92.9 1448.57,-102.4 1453.47,-97.4"/>
</a>
</g>
</g>
<!-- Node17&#45;&gt;Node10 -->
<g id="edge23_Node000017_Node000010" class="edge">
<title>Node17&#45;&gt;Node10</title>
<g id="a_edge23_Node000017_Node000010"><a xlink:title=" ">
<path fill="none" stroke="#63b8ff" d="M1496.2,-203.85C1539.48,-194.84 1603.44,-180.39 1658,-163.5 1659.37,-163.08 1660.76,-162.63 1662.16,-162.16"/>
<polygon fill="#63b8ff" stroke="#63b8ff" points="1663.2,-165.5 1671.44,-158.84 1660.85,-158.91 1663.2,-165.5"/>
</a>
</g>
</g>
<!-- Node17&#45;&gt;Node13 -->
<g id="edge28_Node000017_Node000013" class="edge">
<title>Node17&#45;&gt;Node13</title>
<g id="a_edge28_Node000017_Node000013"><a xlink:title=" ">
<path fill="none" stroke="#63b8ff" d="M1496.26,-208.15C1553.08,-201.04 1647.98,-186.82 1727,-163.5 1728.35,-163.1 1729.71,-162.67 1731.08,-162.21"/>
<polygon fill="#63b8ff" stroke="#63b8ff" points="1731.95,-165.62 1740.07,-158.82 1729.48,-159.07 1731.95,-165.62"/>
</a>
</g>
</g>
<!-- Node18 -->
<g id="Node000018" class="node">
<title>Node18</title>
<g id="a_Node000018"><a xlink:title=" ">
<polygon fill="#e0e0e0" stroke="#999999" points="1464.12,-157.88 1415.88,-157.88 1415.88,-138.62 1464.12,-138.62 1464.12,-157.88"/>
<text text-anchor="middle" x="1440" y="-144.38" font-family="Helvetica,sans-Serif" font-size="10.00">cstddef</text>
</a>
</g>
</g>
<!-- Node17&#45;&gt;Node18 -->
<g id="edge22_Node000017_Node000018" class="edge">
<title>Node17&#45;&gt;Node18</title>
<g id="a_edge22_Node000017_Node000018"><a xlink:title=" ">
<path fill="none" stroke="#63b8ff" d="M1444.64,-199.11C1443.82,-190.33 1442.77,-179.02 1441.87,-169.4"/>
<polygon fill="#63b8ff" stroke="#63b8ff" points="1445.37,-169.21 1440.96,-159.58 1438.4,-169.86 1445.37,-169.21"/>
</a>
</g>
</g>
<!-- Node19 -->
<g id="Node000019" class="node">
<title>Node19</title>
<g id="a_Node000019"><a xlink:title=" ">
<polygon fill="#e0e0e0" stroke="#999999" points="1151.75,-157.88 1044.25,-157.88 1044.25,-138.62 1151.75,-138.62 1151.75,-157.88"/>
<text text-anchor="middle" x="1098" y="-144.38" font-family="Helvetica,sans-Serif" font-size="10.00">llvm/ADT/ArrayRef.h</text>
</a>
</g>
</g>
<!-- Node17&#45;&gt;Node19 -->
<g id="edge24_Node000017_Node000019" class="edge">
<title>Node17&#45;&gt;Node19</title>
<g id="a_edge24_Node000017_Node000019"><a xlink:title=" ">
<path fill="none" stroke="#63b8ff" d="M1395.67,-205.63C1338.61,-196.24 1242.89,-179.97 1161,-163.5 1156.73,-162.64 1152.31,-161.72 1147.88,-160.76"/>
<polygon fill="#63b8ff" stroke="#63b8ff" points="1148.92,-157.41 1138.4,-158.68 1147.42,-164.25 1148.92,-157.41"/>
</a>
</g>
</g>
<!-- Node20 -->
<g id="Node000020" class="node">
<title>Node20</title>
<g id="a_Node000020"><a xlink:title=" ">
<polygon fill="#e0e0e0" stroke="#999999" points="1742.38,-24.88 1623.62,-24.88 1623.62,-5.63 1742.38,-5.63 1742.38,-24.88"/>
<text text-anchor="middle" x="1683" y="-11.38" font-family="Helvetica,sans-Serif" font-size="10.00">llvm/ADT/SmallString.h</text>
</a>
</g>
</g>
<!-- Node17&#45;&gt;Node20 -->
<g id="edge25_Node000017_Node000020" class="edge">
<title>Node17&#45;&gt;Node20</title>
<g id="a_edge25_Node000017_Node000020"><a xlink:title=" ">
<path fill="none" stroke="#63b8ff" d="M1482.35,-199.04C1501.69,-190.27 1525.26,-178.03 1544,-163.5 1589.53,-128.19 1589.95,-107.91 1630,-66.5 1641.18,-54.94 1654.29,-42.5 1664.68,-32.89"/>
<polygon fill="#63b8ff" stroke="#63b8ff" points="1666.87,-35.63 1671.87,-26.29 1662.14,-30.47 1666.87,-35.63"/>
</a>
</g>
</g>
<!-- Node21 -->
<g id="Node000021" class="node">
<title>Node21</title>
<g id="a_Node000021"><a xlink:title=" ">
<polygon fill="#e0e0e0" stroke="#999999" points="1278.5,-157.88 1169.5,-157.88 1169.5,-138.62 1278.5,-138.62 1278.5,-157.88"/>
<text text-anchor="middle" x="1224" y="-144.38" font-family="Helvetica,sans-Serif" font-size="10.00">llvm/ADT/StringSet.h</text>
</a>
</g>
</g>
<!-- Node17&#45;&gt;Node21 -->
<g id="edge26_Node000017_Node000021" class="edge">
<title>Node17&#45;&gt;Node21</title>
<g id="a_edge26_Node000017_Node000021"><a xlink:title=" ">
<path fill="none" stroke="#63b8ff" d="M1395.62,-199.11C1356.55,-187.76 1303.03,-172.21 1266.2,-161.51"/>
<polygon fill="#63b8ff" stroke="#63b8ff" points="1267.37,-158.21 1256.79,-158.78 1265.41,-164.93 1267.37,-158.21"/>
</a>
</g>
</g>
<!-- Node22 -->
<g id="Node000022" class="node">
<title>Node22</title>
<g id="a_Node000022"><a xlink:title=" ">
<polygon fill="#e0e0e0" stroke="#999999" points="2094.62,-91.38 1977.38,-91.38 1977.38,-72.12 2094.62,-72.12 2094.62,-91.38"/>
<text text-anchor="middle" x="2036" y="-77.88" font-family="Helvetica,sans-Serif" font-size="10.00">llvm/ADT/simple_ilist.h</text>
</a>
</g>
</g>
<!-- Node17&#45;&gt;Node22 -->
<g id="edge27_Node000017_Node000022" class="edge">
<title>Node17&#45;&gt;Node22</title>
<g id="a_edge27_Node000017_Node000022"><a xlink:title=" ">
<path fill="none" stroke="#63b8ff" d="M1496.37,-203.92C1532.02,-195.85 1580.34,-182.61 1620,-163.5 1641.11,-153.33 1641.2,-141.59 1663,-133 1763.03,-93.57 1888.58,-84.07 1965.51,-82.31"/>
<polygon fill="#63b8ff" stroke="#63b8ff" points="1965.52,-85.81 1975.45,-82.13 1965.39,-78.81 1965.52,-85.81"/>
</a>
</g>
</g>
<!-- Node23 -->
<g id="Node000023" class="node">
<title>Node23</title>
<g id="a_Node000023"><a xlink:title=" ">
<polygon fill="#e0e0e0" stroke="#999999" points="1397.75,-157.88 1296.25,-157.88 1296.25,-138.62 1397.75,-138.62 1397.75,-157.88"/>
<text text-anchor="middle" x="1347" y="-144.38" font-family="Helvetica,sans-Serif" font-size="10.00">mlir/IR/AffineExpr.h</text>
</a>
</g>
</g>
<!-- Node17&#45;&gt;Node23 -->
<g id="edge29_Node000017_Node000023" class="edge">
<title>Node17&#45;&gt;Node23</title>
<g id="a_edge29_Node000017_Node000023"><a xlink:title=" ">
<path fill="none" stroke="#63b8ff" d="M1423.54,-199.11C1407.57,-188.71 1386.18,-174.78 1370.08,-164.29"/>
<polygon fill="#63b8ff" stroke="#63b8ff" points="1372.39,-161.61 1362.1,-159.09 1368.57,-167.48 1372.39,-161.61"/>
</a>
</g>
</g>
<!-- Node24 -->
<g id="Node000024" class="node">
<title>Node24</title>
<g id="a_Node000024"><a xlink:title=" ">
<polygon fill="#e0e0e0" stroke="#999999" points="1937.25,-24.88 1838.75,-24.88 1838.75,-5.63 1937.25,-5.63 1937.25,-24.88"/>
<text text-anchor="middle" x="1888" y="-11.38" font-family="Helvetica,sans-Serif" font-size="10.00">mlir/IR/Attributes.h</text>
</a>
</g>
</g>
<!-- Node17&#45;&gt;Node24 -->
<g id="edge30_Node000017_Node000024" class="edge">
<title>Node17&#45;&gt;Node24</title>
<g id="a_edge30_Node000017_Node000024"><a xlink:title=" ">
<path fill="none" stroke="#63b8ff" d="M1489.97,-199.1C1515.14,-190.07 1547,-177.55 1574,-163.5 1595.76,-152.18 1598.45,-144.72 1620,-133 1700.37,-89.28 1800.45,-49.24 1852.62,-29.38"/>
<polygon fill="#63b8ff" stroke="#63b8ff" points="1853.77,-32.68 1861.89,-25.87 1851.3,-26.14 1853.77,-32.68"/>
</a>
</g>
</g>
<!-- Node17&#45;&gt;Node25 -->
<g id="edge33_Node000017_Node000025" class="edge">
<title>Node17&#45;&gt;Node25</title>
<g id="a_edge33_Node000017_Node000025"><a xlink:title=" ">
<path fill="none" stroke="#63b8ff" d="M1395.7,-209.34C1264.72,-197.86 913.42,-167.08 771.12,-154.61"/>
<polygon fill="#63b8ff" stroke="#63b8ff" points="771.8,-151.15 761.53,-153.77 771.19,-158.13 771.8,-151.15"/>
</a>
</g>
</g>
<!-- Node25&#45;&gt;Node2 -->
<g id="edge41_Node000025_Node000002" class="edge">
<title>Node25&#45;&gt;Node2</title>
<g id="a_edge41_Node000025_Node000002"><a xlink:title=" ">
<path fill="none" stroke="#63b8ff" d="M707.89,-132.73C704.51,-109.37 697.84,-63.38 693.97,-36.71"/>
<polygon fill="#63b8ff" stroke="#63b8ff" points="697.44,-36.24 692.54,-26.85 690.51,-37.25 697.44,-36.24"/>
</a>
</g>
</g>
<!-- Node25&#45;&gt;Node3 -->
<g id="edge42_Node000025_Node000003" class="edge">
<title>Node25&#45;&gt;Node3</title>
<g id="a_edge42_Node000025_Node000003"><a xlink:title=" ">
<path fill="none" stroke="#63b8ff" d="M760.48,-142.74C883.67,-131.74 1200.52,-103.43 1350.71,-90.01"/>
<polygon fill="#63b8ff" stroke="#63b8ff" points="1350.95,-93.5 1360.6,-89.13 1350.32,-86.53 1350.95,-93.5"/>
</a>
</g>
</g>
<!-- Node25&#45;&gt;Node6 -->
<g id="edge35_Node000025_Node000006" class="edge">
<title>Node25&#45;&gt;Node6</title>
<g id="a_edge35_Node000025_Node000006"><a xlink:title=" ">
<path fill="none" stroke="#63b8ff" d="M659.68,-141.86C634.29,-139.16 603.02,-135.87 575,-133 413.72,-116.49 372.4,-120.56 212,-97 205.93,-96.11 199.6,-95.06 193.32,-93.94"/>
<polygon fill="#63b8ff" stroke="#63b8ff" points="194.08,-90.52 183.61,-92.14 192.8,-97.4 194.08,-90.52"/>
</a>
</g>
</g>
<!-- Node25&#45;&gt;Node7 -->
<g id="edge36_Node000025_Node000007" class="edge">
<title>Node25&#45;&gt;Node7</title>
<g id="a_edge36_Node000025_Node000007"><a xlink:title=" ">
<path fill="none" stroke="#63b8ff" d="M659.79,-139.79C581.42,-128.14 429.97,-105.63 342.58,-92.64"/>
<polygon fill="#63b8ff" stroke="#63b8ff" points="343.11,-89.19 332.7,-91.18 342.08,-96.11 343.11,-89.19"/>
</a>
</g>
</g>
<!-- Node25&#45;&gt;Node9 -->
<g id="edge34_Node000025_Node000009" class="edge">
<title>Node25&#45;&gt;Node9</title>
<g id="a_edge34_Node000025_Node000009"><a xlink:title=" ">
<path fill="none" stroke="#63b8ff" d="M659.75,-133.65C626.58,-124.28 582.32,-111.02 544,-97 543.21,-96.71 542.41,-96.41 541.6,-96.11"/>
<polygon fill="#63b8ff" stroke="#63b8ff" points="543.08,-92.93 532.5,-92.43 540.46,-99.42 543.08,-92.93"/>
</a>
</g>
</g>
<!-- Node25&#45;&gt;Node12 -->
<g id="edge37_Node000025_Node000012" class="edge">
<title>Node25&#45;&gt;Node12</title>
<g id="a_edge37_Node000025_Node000012"><a xlink:title=" ">
<path fill="none" stroke="#63b8ff" d="M686.85,-132.61C670.4,-122.21 648.37,-108.28 631.78,-97.79"/>
<polygon fill="#63b8ff" stroke="#63b8ff" points="633.85,-94.96 623.53,-92.57 630.11,-100.87 633.85,-94.96"/>
</a>
</g>
</g>
<!-- Node25&#45;&gt;Node14 -->
<g id="edge38_Node000025_Node000014" class="edge">
<title>Node25&#45;&gt;Node14</title>
<g id="a_edge38_Node000025_Node000014"><a xlink:title=" ">
<path fill="none" stroke="#63b8ff" d="M722.48,-132.61C730.73,-122.94 741.58,-110.21 750.26,-100.04"/>
<polygon fill="#63b8ff" stroke="#63b8ff" points="752.67,-102.6 756.49,-92.72 747.34,-98.06 752.67,-102.6"/>
</a>
</g>
</g>
<!-- Node25&#45;&gt;Node15 -->
<g id="edge39_Node000025_Node000015" class="edge">
<title>Node25&#45;&gt;Node15</title>
<g id="a_edge39_Node000025_Node000015"><a xlink:title=" ">
<path fill="none" stroke="#63b8ff" d="M749.26,-132.61C778.92,-121.56 819.26,-106.51 847.87,-95.85"/>
<polygon fill="#63b8ff" stroke="#63b8ff" points="849.02,-99.16 857.16,-92.38 846.57,-92.6 849.02,-99.16"/>
</a>
</g>
</g>
<!-- Node25&#45;&gt;Node16 -->
<g id="edge40_Node000025_Node000016" class="edge">
<title>Node25&#45;&gt;Node16</title>
<g id="a_edge40_Node000025_Node000016"><a xlink:title=" ">
<path fill="none" stroke="#63b8ff" d="M760.31,-137.14C808.18,-127.37 882.16,-111.91 946,-97 949.31,-96.23 952.73,-95.41 956.17,-94.57"/>
<polygon fill="#63b8ff" stroke="#63b8ff" points="956.77,-98.03 965.63,-92.22 955.08,-91.23 956.77,-98.03"/>
</a>
</g>
</g>
<!-- Node26&#45;&gt;Node13 -->
<g id="edge46_Node000026_Node000013" class="edge">
<title>Node26&#45;&gt;Node13</title>
<g id="a_edge46_Node000026_Node000013"><a xlink:title=" ">
<path fill="none" stroke="#63b8ff" d="M1900.16,-199.11C1869.16,-188.01 1826.94,-172.88 1797.16,-162.21"/>
<polygon fill="#63b8ff" stroke="#63b8ff" points="1798.43,-158.94 1787.83,-158.86 1796.06,-165.53 1798.43,-158.94"/>
</a>
</g>
</g>
<!-- Node26&#45;&gt;Node22 -->
<g id="edge44_Node000026_Node000022" class="edge">
<title>Node26&#45;&gt;Node22</title>
<g id="a_edge44_Node000026_Node000022"><a xlink:title=" ">
<path fill="none" stroke="#63b8ff" d="M1983.47,-199.09C2000.07,-191.17 2017.6,-179.62 2028,-163.5 2039.56,-145.58 2040.25,-120.63 2038.88,-103.22"/>
<polygon fill="#63b8ff" stroke="#63b8ff" points="2042.36,-102.9 2037.78,-93.35 2035.41,-103.68 2042.36,-102.9"/>
</a>
</g>
</g>
<!-- Node27 -->
<g id="Node000027" class="node">
<title>Node27</title>
<g id="a_Node000027"><a xlink:title=" ">
<polygon fill="#e0e0e0" stroke="#999999" points="2019.12,-157.88 1880.88,-157.88 1880.88,-138.62 2019.12,-138.62 2019.12,-157.88"/>
<text text-anchor="middle" x="1950" y="-144.38" font-family="Helvetica,sans-Serif" font-size="10.00">llvm/Support/raw_ostream.h</text>
</a>
</g>
</g>
<!-- Node26&#45;&gt;Node27 -->
<g id="edge45_Node000026_Node000027" class="edge">
<title>Node26&#45;&gt;Node27</title>
<g id="a_edge45_Node000026_Node000027"><a xlink:title=" ">
<path fill="none" stroke="#63b8ff" d="M1943.04,-199.11C1944.27,-190.33 1945.85,-179.02 1947.19,-169.4"/>
<polygon fill="#63b8ff" stroke="#63b8ff" points="1950.64,-169.96 1948.56,-159.57 1943.71,-168.99 1950.64,-169.96"/>
</a>
</g>
</g>
<!-- Node28 -->
<g id="Node000028" class="node">
<title>Node28</title>
<g id="a_Node000028"><a xlink:href="_frame_info_8h.html" target="_top" xlink:title=" ">
<polygon fill="white" stroke="#666666" points="2216.5,-163.5 2113.5,-163.5 2113.5,-133 2216.5,-133 2216.5,-163.5"/>
<text text-anchor="start" x="2121.5" y="-150" font-family="Helvetica,sans-Serif" font-size="10.00">zklang/Dialect/ZHL</text>
<text text-anchor="middle" x="2165" y="-138.75" font-family="Helvetica,sans-Serif" font-size="10.00">/Typing/FrameInfo.h</text>
</a>
</g>
</g>
<!-- Node26&#45;&gt;Node28 -->
<g id="edge47_Node000026_Node000028" class="edge">
<title>Node26&#45;&gt;Node28</title>
<g id="a_edge47_Node000026_Node000028"><a xlink:title=" ">
<path fill="none" stroke="#63b8ff" d="M1991.27,-199.27C2024.47,-189.72 2068.19,-177.13 2103.47,-166.97"/>
<polygon fill="#63b8ff" stroke="#63b8ff" points="2104.03,-170.45 2112.67,-164.32 2102.09,-163.72 2104.03,-170.45"/>
</a>
</g>
</g>
<!-- Node28&#45;&gt;Node22 -->
<g id="edge48_Node000028_Node000022" class="edge">
<title>Node28&#45;&gt;Node22</title>
<g id="a_edge48_Node000028_Node000022"><a xlink:title=" ">
<path fill="none" stroke="#63b8ff" d="M2135.73,-132.61C2114.33,-121.92 2085.47,-107.49 2064.31,-96.9"/>
<polygon fill="#63b8ff" stroke="#63b8ff" points="2065.88,-93.78 2055.37,-92.44 2062.75,-100.04 2065.88,-93.78"/>
</a>
</g>
</g>
<!-- Node28&#45;&gt;Node29 -->
<g id="edge49_Node000028_Node000029" class="edge">
<title>Node28&#45;&gt;Node29</title>
<g id="a_edge49_Node000028_Node000029"><a xlink:title=" ">
<path fill="none" stroke="#63b8ff" d="M2165,-132.61C2165,-125.52 2165,-116.79 2165,-108.63"/>
<polygon fill="#63b8ff" stroke="#63b8ff" points="2168.5,-108.84 2165,-98.84 2161.5,-108.84 2168.5,-108.84"/>
</a>
</g>
</g>
<!-- Node29&#45;&gt;Node2 -->
<g id="edge54_Node000029_Node000002" class="edge">
<title>Node29&#45;&gt;Node2</title>
<g id="a_edge54_Node000029_Node000002"><a xlink:title=" ">
<path fill="none" stroke="#63b8ff" d="M2112.88,-67.87C2109.89,-67.35 2106.91,-66.89 2104,-66.5 1837.82,-31.02 994.52,-19.48 755,-16.88"/>
<polygon fill="#63b8ff" stroke="#63b8ff" points="755.28,-13.38 745.24,-16.77 755.2,-20.38 755.28,-13.38"/>
</a>
</g>
</g>
<!-- Node29&#45;&gt;Node20 -->
<g id="edge50_Node000029_Node000020" class="edge">
<title>Node29&#45;&gt;Node20</title>
<g id="a_edge50_Node000029_Node000020"><a xlink:title=" ">
<path fill="none" stroke="#63b8ff" d="M2112.83,-68.16C2109.85,-67.57 2106.89,-67.01 2104,-66.5 2038.56,-54.99 1856.03,-34.72 1754.11,-23.77"/>
<polygon fill="#63b8ff" stroke="#63b8ff" points="1754.52,-20.3 1744.2,-22.71 1753.77,-27.26 1754.52,-20.3"/>
</a>
</g>
</g>
<!-- Node29&#45;&gt;Node24 -->
<g id="edge53_Node000029_Node000024" class="edge">
<title>Node29&#45;&gt;Node24</title>
<g id="a_edge53_Node000029_Node000024"><a xlink:title=" ">
<path fill="none" stroke="#63b8ff" d="M2112.76,-68.54C2109.79,-67.85 2106.86,-67.17 2104,-66.5 2047.21,-53.26 1982,-38.1 1938.23,-27.92"/>
<polygon fill="#63b8ff" stroke="#63b8ff" points="1939.03,-24.51 1928.5,-25.66 1937.45,-31.33 1939.03,-24.51"/>
</a>
</g>
</g>
<!-- Node30 -->
<g id="Node000030" class="node">
<title>Node30</title>
<g id="a_Node000030"><a xlink:title=" ">
<polygon fill="#e0e0e0" stroke="#999999" points="2157.88,-24.88 2048.12,-24.88 2048.12,-5.63 2157.88,-5.63 2157.88,-24.88"/>
<text text-anchor="middle" x="2103" y="-11.38" font-family="Helvetica,sans-Serif" font-size="10.00">llvm/ADT/ilist_node.h</text>
</a>
</g>
</g>
<!-- Node29&#45;&gt;Node30 -->
<g id="edge51_Node000029_Node000030" class="edge">
<title>Node29&#45;&gt;Node30</title>
<g id="a_edge51_Node000029_Node000030"><a xlink:title=" ">
<path fill="none" stroke="#63b8ff" d="M2150.93,-66.11C2141.54,-56.34 2129.15,-43.45 2119.32,-33.23"/>
<polygon fill="#63b8ff" stroke="#63b8ff" points="2121.98,-30.95 2112.53,-26.16 2116.94,-35.8 2121.98,-30.95"/>
</a>
</g>
</g>
<!-- Node31 -->
<g id="Node000031" class="node">
<title>Node31</title>
<g id="a_Node000031"><a xlink:title=" ">
<polygon fill="#e0e0e0" stroke="#999999" points="2277.75,-30.5 2176.25,-30.5 2176.25,0 2277.75,0 2277.75,-30.5"/>
<text text-anchor="start" x="2184.25" y="-17" font-family="Helvetica,sans-Serif" font-size="10.00">llvm/ADT/ilist_node</text>
<text text-anchor="middle" x="2227" y="-5.75" font-family="Helvetica,sans-Serif" font-size="10.00">_options.h</text>
</a>
</g>
</g>
<!-- Node29&#45;&gt;Node31 -->
<g id="edge52_Node000029_Node000031" class="edge">
<title>Node29&#45;&gt;Node31</title>
<g id="a_edge52_Node000029_Node000031"><a xlink:title=" ">
<path fill="none" stroke="#63b8ff" d="M2179.07,-66.11C2186.76,-58.11 2196.45,-48.03 2205.11,-39.03"/>
<polygon fill="#63b8ff" stroke="#63b8ff" points="2207.53,-41.55 2211.94,-31.92 2202.48,-36.7 2207.53,-41.55"/>
</a>
</g>
</g>
<!-- Node33 -->
<g id="Node000033" class="node">
<title>Node33</title>
<g id="a_Node000033"><a xlink:title=" ">
<polygon fill="#e0e0e0" stroke="#999999" points="565.62,-157.88 526.38,-157.88 526.38,-138.62 565.62,-138.62 565.62,-157.88"/>
<text text-anchor="middle" x="546" y="-144.38" font-family="Helvetica,sans-Serif" font-size="10.00">utility</text>
</a>
</g>
</g>
<!-- Node32&#45;&gt;Node33 -->
<g id="edge58_Node000032_Node000033" class="edge">
<title>Node32&#45;&gt;Node33</title>
<g id="a_edge58_Node000032_Node000033"><a xlink:title=" ">
<path fill="none" stroke="#63b8ff" d="M594.21,-204.78C585.69,-194.96 571.81,-178.98 561.13,-166.67"/>
<polygon fill="#63b8ff" stroke="#63b8ff" points="563.91,-164.54 554.71,-159.29 558.63,-169.13 563.91,-164.54"/>
</a>
</g>
</g>
<!-- Node34&#45;&gt;Node2 -->
<g id="edge69_Node000034_Node000002" class="edge">
<title>Node34&#45;&gt;Node2</title>
<g id="a_edge69_Node000034_Node000002"><a xlink:title=" ">
<path fill="none" stroke="#63b8ff" d="M1035.12,-345.53C1136.93,-342.51 1351.54,-332.1 1529,-296.5 1625.4,-277.16 1654.77,-279.03 1740,-230 1786.77,-203.09 1846.49,-175.3 1813,-133 1746.91,-49.52 983.44,-23.62 755.11,-17.71"/>
<polygon fill="#63b8ff" stroke="#63b8ff" points="755.29,-14.22 745.21,-17.46 755.11,-21.22 755.29,-14.22"/>
</a>
</g>
</g>
<!-- Node34&#45;&gt;Node3 -->
<g id="edge70_Node000034_Node000003" class="edge">
<title>Node34&#45;&gt;Node3</title>
<g id="a_edge70_Node000034_Node000003"><a xlink:title=" ">
<path fill="none" stroke="#63b8ff" d="M1034.85,-343.39C1207.64,-332.11 1706.95,-289.01 1796,-163.5 1803.84,-152.44 1804.91,-143.22 1796,-133 1791.36,-127.68 1619.04,-105.68 1513.19,-92.62"/>
<polygon fill="#63b8ff" stroke="#63b8ff" points="1513.75,-89.16 1503.39,-91.42 1512.89,-96.11 1513.75,-89.16"/>
</a>
</g>
</g>
<!-- Node34&#45;&gt;Node6 -->
<g id="edge63_Node000034_Node000006" class="edge">
<title>Node34&#45;&gt;Node6</title>
<g id="a_edge63_Node000034_Node000006"><a xlink:title=" ">
<path fill="none" stroke="#63b8ff" d="M917.03,-344.37C770.81,-338.14 399.67,-320.18 349,-296.5 253.85,-252.04 178.17,-144.76 150.43,-101.4"/>
<polygon fill="#63b8ff" stroke="#63b8ff" points="153.51,-99.73 145.23,-93.11 147.58,-103.45 153.51,-99.73"/>
</a>
</g>
</g>
<!-- Node34&#45;&gt;Node7 -->
<g id="edge64_Node000034_Node000007" class="edge">
<title>Node34&#45;&gt;Node7</title>
<g id="a_edge64_Node000034_Node000007"><a xlink:title=" ">
<path fill="none" stroke="#63b8ff" d="M917.09,-344.21C779.26,-337.89 444.05,-320.27 399,-296.5 331.41,-260.83 321.8,-233 290,-163.5 281.13,-144.12 277.85,-119.77 276.65,-102.9"/>
<polygon fill="#63b8ff" stroke="#63b8ff" points="280.16,-102.99 276.16,-93.18 273.17,-103.34 280.16,-102.99"/>
</a>
</g>
</g>
<!-- Node34&#45;&gt;Node8 -->
<g id="edge74_Node000034_Node000008" class="edge">
<title>Node34&#45;&gt;Node8</title>
<g id="a_edge74_Node000034_Node000008"><a xlink:title=" ">
<path fill="none" stroke="#63b8ff" d="M940.15,-332.11C917.7,-322.95 888.55,-311.05 864.36,-301.18"/>
<polygon fill="#63b8ff" stroke="#63b8ff" points="865.97,-298.05 855.39,-297.51 863.32,-304.53 865.97,-298.05"/>
</a>
</g>
</g>
<!-- Node34&#45;&gt;Node9 -->
<g id="edge60_Node000034_Node000009" class="edge">
<title>Node34&#45;&gt;Node9</title>
<g id="a_edge60_Node000034_Node000009"><a xlink:title=" ">
<path fill="none" stroke="#63b8ff" d="M916.92,-346.19C797.03,-344.24 529.63,-335.51 448,-296.5 410.71,-278.68 398.6,-268.27 383,-230 366.28,-188.97 376.5,-166.05 406,-133 424.3,-112.49 452.8,-99.59 475.49,-92"/>
<polygon fill="#63b8ff" stroke="#63b8ff" points="476.46,-95.37 484.97,-89.05 474.38,-88.68 476.46,-95.37"/>
</a>
</g>
</g>
<!-- Node34&#45;&gt;Node10 -->
<g id="edge61_Node000034_Node000010" class="edge">
<title>Node34&#45;&gt;Node10</title>
<g id="a_edge61_Node000034_Node000010"><a xlink:title=" ">
<path fill="none" stroke="#63b8ff" d="M1034.86,-341.85C1142.65,-331.4 1377.6,-301.77 1562,-230 1604.67,-213.39 1649.14,-183.38 1674.32,-164.99"/>
<polygon fill="#63b8ff" stroke="#63b8ff" points="1676.12,-168.01 1682.07,-159.24 1671.95,-162.39 1676.12,-168.01"/>
</a>
</g>
</g>
<!-- Node34&#45;&gt;Node12 -->
<g id="edge65_Node000034_Node000012" class="edge">
<title>Node34&#45;&gt;Node12</title>
<g id="a_edge65_Node000034_Node000012"><a xlink:title=" ">
<path fill="none" stroke="#63b8ff" d="M917.05,-343.94C783.44,-336.2 464.11,-309.61 399,-230 346.23,-165.49 483.31,-116.4 560.12,-94.81"/>
<polygon fill="#63b8ff" stroke="#63b8ff" points="560.82,-98.25 569.53,-92.22 558.96,-91.5 560.82,-98.25"/>
</a>
</g>
</g>
<!-- Node34&#45;&gt;Node14 -->
<g id="edge66_Node000034_Node000014" class="edge">
<title>Node34&#45;&gt;Node14</title>
<g id="a_edge66_Node000034_Node000014"><a xlink:title=" ">
<path fill="none" stroke="#63b8ff" d="M958.31,-332.19C947.09,-322.57 932.56,-309.41 921,-296.5 860.76,-229.25 801.07,-139.29 776.59,-101.11"/>
<polygon fill="#63b8ff" stroke="#63b8ff" points="779.79,-99.61 771.46,-93.06 773.88,-103.37 779.79,-99.61"/>
</a>
</g>
</g>
<!-- Node34&#45;&gt;Node15 -->
<g id="edge67_Node000034_Node000015" class="edge">
<title>Node34&#45;&gt;Node15</title>
<g id="a_edge67_Node000034_Node000015"><a xlink:title=" ">
<path fill="none" stroke="#63b8ff" d="M979.52,-332.21C982.88,-315.86 986.67,-288.62 981,-266 964.53,-200.29 919.5,-132.38 896.66,-100.86"/>
<polygon fill="#63b8ff" stroke="#63b8ff" points="899.5,-98.8 890.74,-92.83 893.86,-102.96 899.5,-98.8"/>
</a>
</g>
</g>
<!-- Node34&#45;&gt;Node16 -->
<g id="edge68_Node000034_Node000016" class="edge">
<title>Node34&#45;&gt;Node16</title>
<g id="a_edge68_Node000034_Node000016"><a xlink:title=" ">
<path fill="none" stroke="#63b8ff" d="M991.27,-332.01C999.75,-322.73 1009.48,-309.98 1014,-296.5 1036.89,-228.29 1018.3,-141.01 1007.87,-102.51"/>
<polygon fill="#63b8ff" stroke="#63b8ff" points="1011.29,-101.73 1005.19,-93.07 1004.56,-103.64 1011.29,-101.73"/>
</a>
</g>
</g>
<!-- Node34&#45;&gt;Node17 -->
<g id="edge71_Node000034_Node000017" class="edge">
<title>Node34&#45;&gt;Node17</title>
<g id="a_edge71_Node000034_Node000017"><a xlink:title=" ">
<path fill="none" stroke="#63b8ff" d="M1028.55,-332.1C1116.13,-307.69 1291.52,-258.81 1384.63,-232.85"/>
<polygon fill="#63b8ff" stroke="#63b8ff" points="1385.42,-236.27 1394.11,-230.21 1383.54,-229.53 1385.42,-236.27"/>
</a>
</g>
</g>
<!-- Node34&#45;&gt;Node26 -->
<g id="edge72_Node000034_Node000026" class="edge">
<title>Node34&#45;&gt;Node26</title>
<g id="a_edge72_Node000034_Node000026"><a xlink:title=" ">
<path fill="none" stroke="#63b8ff" d="M1035.01,-345.99C1221.8,-343.22 1792.23,-331.94 1867,-296.5 1892.63,-284.35 1913.52,-258.94 1926.49,-239.85"/>
<polygon fill="#63b8ff" stroke="#63b8ff" points="1929.37,-241.84 1931.87,-231.55 1923.49,-238.03 1929.37,-241.84"/>
</a>
</g>
</g>
<!-- Node34&#45;&gt;Node29 -->
<g id="edge73_Node000034_Node000029" class="edge">
<title>Node34&#45;&gt;Node29</title>
<g id="a_edge73_Node000034_Node000029"><a xlink:title=" ">
<path fill="none" stroke="#63b8ff" d="M1034.91,-345.51C1211.23,-341.48 1732.91,-327.23 1900,-296.5 2060.81,-266.92 2156.63,-302.33 2243,-163.5 2250.16,-151.99 2249.49,-144.9 2243,-133 2236.12,-120.39 2224.57,-110.47 2212.44,-102.89"/>
<polygon fill="#63b8ff" stroke="#63b8ff" points="2214.4,-99.98 2203.98,-98.06 2210.93,-106.06 2214.4,-99.98"/>
</a>
</g>
</g>
<!-- Node35 -->
<g id="Node000035" class="node">
<title>Node35</title>
<g id="a_Node000035"><a xlink:title=" ">
<polygon fill="#e0e0e0" stroke="#999999" points="972.12,-290.88 929.88,-290.88 929.88,-271.62 972.12,-271.62 972.12,-290.88"/>
<text text-anchor="middle" x="951" y="-277.38" font-family="Helvetica,sans-Serif" font-size="10.00">deque</text>
</a>
</g>
</g>
<!-- Node34&#45;&gt;Node35 -->
<g id="edge62_Node000034_Node000035" class="edge">
<title>Node34&#45;&gt;Node35</title>
<g id="a_edge62_Node000034_Node000035"><a xlink:title=" ">
<path fill="none" stroke="#63b8ff" d="M970.33,-332.11C966.84,-323.13 962.34,-311.51 958.56,-301.76"/>
<polygon fill="#63b8ff" stroke="#63b8ff" points="961.84,-300.54 954.97,-292.48 955.32,-303.07 961.84,-300.54"/>
</a>
</g>
</g>
</g>
</svg>
