<?xml version="1.0" encoding="UTF-8" standalone="no"?>
<!DOCTYPE svg PUBLIC "-//W3C//DTD SVG 1.1//EN"
 "http://www.w3.org/Graphics/SVG/1.1/DTD/svg11.dtd">
<!-- Generated by graphviz version 12.2.1 (20241206.2353)
 -->
<!-- Title: include/zklang/Dialect/ZHL/Typing/Specialization.h Pages: 1 -->
<svg width="292pt" height="105pt"
 viewBox="0.00 0.00 291.62 105.00" xmlns="http://www.w3.org/2000/svg" xmlns:xlink="http://www.w3.org/1999/xlink">
<g id="graph0" class="graph" transform="scale(1 1) rotate(0) translate(4 101)">
<title>include/zklang/Dialect/ZHL/Typing/Specialization.h</title>
<!-- Node1 -->
<g id="Node000001" class="node">
<title>Node1</title>
<g id="a_Node000001"><a xlink:title=" ">
<polygon fill="#999999" stroke="#666666" points="221.5,-97 80.25,-97 80.25,-66.5 221.5,-66.5 221.5,-97"/>
<text text-anchor="start" x="88.25" y="-83.5" font-family="Helvetica,sans-Serif" font-size="10.00">include/zklang/Dialect</text>
<text text-anchor="middle" x="150.88" y="-72.25" font-family="Helvetica,sans-Serif" font-size="10.00">/ZHL/Typing/Specialization.h</text>
</a>
</g>
</g>
<!-- Node2 -->
<g id="Node000002" class="node">
<title>Node2</title>
<g id="a_Node000002"><a xlink:href="_type_binding_specialization_8cpp.html" target="_top" xlink:title=" ">
<polygon fill="white" stroke="#666666" points="151.75,-30.5 0,-30.5 0,0 151.75,0 151.75,-30.5"/>
<text text-anchor="start" x="8" y="-17" font-family="Helvetica,sans-Serif" font-size="10.00">lib/Dialect/ZHL/Typing</text>
<text text-anchor="middle" x="75.88" y="-5.75" font-family="Helvetica,sans-Serif" font-size="10.00">/TypeBindingSpecialization.cpp</text>
</a>
</g>
</g>
<!-- Node1&#45;&gt;Node2 -->
<g id="edge1_Node000001_Node000002" class="edge">
<title>Node1&#45;&gt;Node2</title>
<g id="a_edge1_Node000001_Node000002"><a xlink:title=" ">
<path fill="none" stroke="#63b8ff" d="M125.28,-58.74C114.57,-49.53 102.4,-39.06 92.83,-30.83"/>
<polygon fill="#63b8ff" stroke="#63b8ff" points="122.84,-61.26 132.71,-65.13 127.41,-55.95 122.84,-61.26"/>
</a>
</g>
</g>
<!-- Node3 -->
<g id="Node000003" class="node">
<title>Node3</title>
<g id="a_Node000003"><a xlink:href="_materialize_8cpp.html" target="_top" xlink:title=" ">
<polygon fill="white" stroke="#666666" points="283.62,-30.5 170.12,-30.5 170.12,0 283.62,0 283.62,-30.5"/>
<text text-anchor="start" x="178.12" y="-17" font-family="Helvetica,sans-Serif" font-size="10.00">lib/Dialect/ZML/Typing</text>
<text text-anchor="middle" x="226.88" y="-5.75" font-family="Helvetica,sans-Serif" font-size="10.00">/Materialize.cpp</text>
</a>
</g>
</g>
<!-- Node1&#45;&gt;Node3 -->
<g id="edge2_Node000001_Node000003" class="edge">
<title>Node1&#45;&gt;Node3</title>
<g id="a_edge2_Node000001_Node000003"><a xlink:title=" ">
<path fill="none" stroke="#63b8ff" d="M176.81,-58.74C187.67,-49.53 199.99,-39.06 209.7,-30.83"/>
<polygon fill="#63b8ff" stroke="#63b8ff" points="174.63,-56 169.27,-65.13 179.16,-61.33 174.63,-56"/>
</a>
</g>
</g>
</g>
</svg>
