<?xml version="1.0" encoding="UTF-8" standalone="no"?>
<!DOCTYPE svg PUBLIC "-//W3C//DTD SVG 1.1//EN"
 "http://www.w3.org/Graphics/SVG/1.1/DTD/svg11.dtd">
<!-- Generated by graphviz version 12.2.1 (20241206.2353)
 -->
<!-- Title: include/zklang/Dialect/ZHL/Typing/Specialization.h Pages: 1 -->
<svg width="2110pt" height="438pt"
 viewBox="0.00 0.00 2110.13 437.50" xmlns="http://www.w3.org/2000/svg" xmlns:xlink="http://www.w3.org/1999/xlink">
<g id="graph0" class="graph" transform="scale(1 1) rotate(0) translate(4 433.5)">
<title>include/zklang/Dialect/ZHL/Typing/Specialization.h</title>
<!-- Node1 -->
<g id="Node000001" class="node">
<title>Node1</title>
<g id="a_Node000001"><a xlink:title=" ">
<polygon fill="#999999" stroke="#666666" points="1270.76,-429.5 1129.51,-429.5 1129.51,-399 1270.76,-399 1270.76,-429.5"/>
<text text-anchor="start" x="1137.51" y="-416" font-family="Helvetica,sans-Serif" font-size="10.00">include/zklang/Dialect</text>
<text text-anchor="middle" x="1200.13" y="-404.75" font-family="Helvetica,sans-Serif" font-size="10.00">/ZHL/Typing/Specialization.h</text>
</a>
</g>
</g>
<!-- Node2 -->
<g id="Node000002" class="node">
<title>Node2</title>
<g id="a_Node000002"><a xlink:title=" ">
<polygon fill="#e0e0e0" stroke="#999999" points="145.63,-157.88 36.63,-157.88 36.63,-138.62 145.63,-138.62 145.63,-157.88"/>
<text text-anchor="middle" x="91.13" y="-144.38" font-family="Helvetica,sans-Serif" font-size="10.00">llvm/ADT/StringSet.h</text>
</a>
</g>
</g>
<!-- Node1&#45;&gt;Node2 -->
<g id="edge1_Node000001_Node000002" class="edge">
<title>Node1&#45;&gt;Node2</title>
<g id="a_edge1_Node000001_Node000002"><a xlink:title=" ">
<path fill="none" stroke="#63b8ff" d="M1129.36,-399.13C1025.19,-378.12 824.6,-336.75 655.13,-296.5 459.99,-250.15 228.96,-187.31 134.57,-161.29"/>
<polygon fill="#63b8ff" stroke="#63b8ff" points="135.78,-158 125.21,-158.71 133.92,-164.74 135.78,-158"/>
</a>
</g>
</g>
<!-- Node3 -->
<g id="Node000003" class="node">
<title>Node3</title>
<g id="a_Node000003"><a xlink:title=" ">
<polygon fill="#e0e0e0" stroke="#999999" points="1664.38,-24.88 1559.88,-24.88 1559.88,-5.63 1664.38,-5.63 1664.38,-24.88"/>
<text text-anchor="middle" x="1612.13" y="-11.38" font-family="Helvetica,sans-Serif" font-size="10.00">mlir/Support/LLVM.h</text>
</a>
</g>
</g>
<!-- Node1&#45;&gt;Node3 -->
<g id="edge2_Node000001_Node000003" class="edge">
<title>Node1&#45;&gt;Node3</title>
<g id="a_edge2_Node000001_Node000003"><a xlink:title=" ">
<path fill="none" stroke="#63b8ff" d="M1270.91,-410.4C1483.55,-400.92 2102.13,-366.12 2102.13,-282.25 2102.13,-282.25 2102.13,-282.25 2102.13,-147.25 2102.13,-104.8 2087.08,-89.07 2051.13,-66.5 1990.1,-28.17 1782.15,-19.04 1675.84,-16.89"/>
<polygon fill="#63b8ff" stroke="#63b8ff" points="1676.21,-13.4 1666.15,-16.71 1676.08,-20.39 1676.21,-13.4"/>
</a>
</g>
</g>
<!-- Node4 -->
<g id="Node000004" class="node">
<title>Node4</title>
<g id="a_Node000004"><a xlink:href="_type_bindings_8h.html" target="_top" xlink:title=" ">
<polygon fill="white" stroke="#666666" points="1258.76,-363 1141.51,-363 1141.51,-332.5 1258.76,-332.5 1258.76,-363"/>
<text text-anchor="start" x="1149.51" y="-349.5" font-family="Helvetica,sans-Serif" font-size="10.00">zklang/Dialect/ZHL</text>
<text text-anchor="middle" x="1200.13" y="-338.25" font-family="Helvetica,sans-Serif" font-size="10.00">/Typing/TypeBindings.h</text>
</a>
</g>
</g>
<!-- Node1&#45;&gt;Node4 -->
<g id="edge3_Node000001_Node000004" class="edge">
<title>Node1&#45;&gt;Node4</title>
<g id="a_edge3_Node000001_Node000004"><a xlink:title=" ">
<path fill="none" stroke="#63b8ff" d="M1200.13,-398.61C1200.13,-391.52 1200.13,-382.79 1200.13,-374.63"/>
<polygon fill="#63b8ff" stroke="#63b8ff" points="1203.63,-374.84 1200.13,-364.84 1196.63,-374.84 1203.63,-374.84"/>
</a>
</g>
</g>
<!-- Node4&#45;&gt;Node3 -->
<g id="edge13_Node000004_Node000003" class="edge">
<title>Node4&#45;&gt;Node3</title>
<g id="a_edge13_Node000004_Node000003"><a xlink:title=" ">
<path fill="none" stroke="#63b8ff" d="M1259.18,-344.04C1454.01,-334.31 2064.13,-297.34 2064.13,-215.75 2064.13,-215.75 2064.13,-215.75 2064.13,-147.25 2064.13,-106.59 2054.65,-89.52 2021.13,-66.5 1966.48,-28.96 1776.55,-19.44 1675.89,-17.04"/>
<polygon fill="#63b8ff" stroke="#63b8ff" points="1676.25,-13.55 1666.18,-16.83 1676.1,-20.55 1676.25,-13.55"/>
</a>
</g>
</g>
<!-- Node5 -->
<g id="Node000005" class="node">
<title>Node5</title>
<g id="a_Node000005"><a xlink:title=" ">
<polygon fill="#e0e0e0" stroke="#999999" points="2012.26,-91.38 1964.01,-91.38 1964.01,-72.12 2012.26,-72.12 2012.26,-91.38"/>
<text text-anchor="middle" x="1988.13" y="-77.88" font-family="Helvetica,sans-Serif" font-size="10.00">cassert</text>
</a>
</g>
</g>
<!-- Node4&#45;&gt;Node5 -->
<g id="edge4_Node000004_Node000005" class="edge">
<title>Node4&#45;&gt;Node5</title>
<g id="a_edge4_Node000004_Node000005"><a xlink:title=" ">
<path fill="none" stroke="#63b8ff" d="M1259.15,-344.18C1376.94,-338.53 1637.17,-323.38 1722.13,-296.5 1837.94,-259.86 1938.87,-144.8 1974.47,-100.44"/>
<polygon fill="#63b8ff" stroke="#63b8ff" points="1977.19,-102.64 1980.64,-92.62 1971.7,-98.3 1977.19,-102.64"/>
</a>
</g>
</g>
<!-- Node6 -->
<g id="Node000006" class="node">
<title>Node6</title>
<g id="a_Node000006"><a xlink:title=" ">
<polygon fill="#e0e0e0" stroke="#999999" points="672.76,-157.88 627.51,-157.88 627.51,-138.62 672.76,-138.62 672.76,-157.88"/>
<text text-anchor="middle" x="650.13" y="-144.38" font-family="Helvetica,sans-Serif" font-size="10.00">cstdint</text>
</a>
</g>
</g>
<!-- Node4&#45;&gt;Node6 -->
<g id="edge5_Node000004_Node000006" class="edge">
<title>Node4&#45;&gt;Node6</title>
<g id="a_edge5_Node000004_Node000006"><a xlink:title=" ">
<path fill="none" stroke="#63b8ff" d="M1141.29,-345.61C1075.04,-342.52 965.28,-331.9 878.13,-296.5 856.43,-287.68 854.6,-279.03 835.13,-266 778.55,-228.12 710.47,-186.03 674.76,-164.21"/>
<polygon fill="#63b8ff" stroke="#63b8ff" points="676.83,-161.37 666.47,-159.15 673.18,-167.35 676.83,-161.37"/>
</a>
</g>
</g>
<!-- Node7 -->
<g id="Node000007" class="node">
<title>Node7</title>
<g id="a_Node000007"><a xlink:title=" ">
<polygon fill="#e0e0e0" stroke="#999999" points="826.26,-290.88 784.01,-290.88 784.01,-271.62 826.26,-271.62 826.26,-290.88"/>
<text text-anchor="middle" x="805.13" y="-277.38" font-family="Helvetica,sans-Serif" font-size="10.00">deque</text>
</a>
</g>
</g>
<!-- Node4&#45;&gt;Node7 -->
<g id="edge6_Node000004_Node000007" class="edge">
<title>Node4&#45;&gt;Node7</title>
<g id="a_edge6_Node000004_Node000007"><a xlink:title=" ">
<path fill="none" stroke="#63b8ff" d="M1141.26,-343.03C1069.23,-337.45 944.04,-324.44 840.13,-296.5 838.55,-296.07 836.94,-295.6 835.33,-295.08"/>
<polygon fill="#63b8ff" stroke="#63b8ff" points="836.85,-291.91 826.25,-291.78 834.45,-298.48 836.85,-291.91"/>
</a>
</g>
</g>
<!-- Node8 -->
<g id="Node000008" class="node">
<title>Node8</title>
<g id="a_Node000008"><a xlink:title=" ">
<polygon fill="#e0e0e0" stroke="#999999" points="1945.51,-91.38 1832.76,-91.38 1832.76,-72.12 1945.51,-72.12 1945.51,-91.38"/>
<text text-anchor="middle" x="1889.13" y="-77.88" font-family="Helvetica,sans-Serif" font-size="10.00">llvm/ADT/StringMap.h</text>
</a>
</g>
</g>
<!-- Node4&#45;&gt;Node8 -->
<g id="edge7_Node000004_Node000008" class="edge">
<title>Node4&#45;&gt;Node8</title>
<g id="a_edge7_Node000004_Node000008"><a xlink:title=" ">
<path fill="none" stroke="#63b8ff" d="M1259,-343.92C1367.41,-338.14 1594.26,-323.21 1668.13,-296.5 1768.52,-260.21 1806.18,-250.43 1868.13,-163.5 1880.86,-145.65 1885.88,-120.68 1887.85,-103.25"/>
<polygon fill="#63b8ff" stroke="#63b8ff" points="1891.33,-103.64 1888.71,-93.37 1884.36,-103.04 1891.33,-103.64"/>
</a>
</g>
</g>
<!-- Node9 -->
<g id="Node000009" class="node">
<title>Node9</title>
<g id="a_Node000009"><a xlink:title=" ">
<polygon fill="#e0e0e0" stroke="#999999" points="1263.01,-91.38 1153.26,-91.38 1153.26,-72.12 1263.01,-72.12 1263.01,-91.38"/>
<text text-anchor="middle" x="1208.13" y="-77.88" font-family="Helvetica,sans-Serif" font-size="10.00">llvm/ADT/StringRef.h</text>
</a>
</g>
</g>
<!-- Node4&#45;&gt;Node9 -->
<g id="edge8_Node000004_Node000009" class="edge">
<title>Node4&#45;&gt;Node9</title>
<g id="a_edge8_Node000004_Node000009"><a xlink:title=" ">
<path fill="none" stroke="#63b8ff" d="M1194.89,-332.02C1191.65,-322.12 1187.8,-308.7 1186.13,-296.5 1176.42,-225.44 1193.71,-140.55 1202.92,-102.69"/>
<polygon fill="#63b8ff" stroke="#63b8ff" points="1206.25,-103.76 1205.31,-93.2 1199.47,-102.04 1206.25,-103.76"/>
</a>
</g>
</g>
<!-- Node10 -->
<g id="Node000010" class="node">
<title>Node10</title>
<g id="a_Node000010"><a xlink:title=" ">
<polygon fill="#e0e0e0" stroke="#999999" points="1391.38,-91.38 1280.88,-91.38 1280.88,-72.12 1391.38,-72.12 1391.38,-91.38"/>
<text text-anchor="middle" x="1336.13" y="-77.88" font-family="Helvetica,sans-Serif" font-size="10.00">llvm/Support/Debug.h</text>
</a>
</g>
</g>
<!-- Node4&#45;&gt;Node10 -->
<g id="edge9_Node000004_Node000010" class="edge">
<title>Node4&#45;&gt;Node10</title>
<g id="a_edge9_Node000004_Node000010"><a xlink:title=" ">
<path fill="none" stroke="#63b8ff" d="M1204.6,-332.06C1213.08,-305.03 1232.86,-245.89 1257.13,-199.5 1276.52,-162.46 1305.21,-122.86 1322.16,-100.62"/>
<polygon fill="#63b8ff" stroke="#63b8ff" points="1324.78,-102.94 1328.12,-92.89 1319.24,-98.67 1324.78,-102.94"/>
</a>
</g>
</g>
<!-- Node11 -->
<g id="Node000011" class="node">
<title>Node11</title>
<g id="a_Node000011"><a xlink:title=" ">
<polygon fill="#e0e0e0" stroke="#999999" points="1539.01,-91.38 1447.26,-91.38 1447.26,-72.12 1539.01,-72.12 1539.01,-91.38"/>
<text text-anchor="middle" x="1493.13" y="-77.88" font-family="Helvetica,sans-Serif" font-size="10.00">mlir/IR/Builders.h</text>
</a>
</g>
</g>
<!-- Node4&#45;&gt;Node11 -->
<g id="edge10_Node000004_Node000011" class="edge">
<title>Node4&#45;&gt;Node11</title>
<g id="a_edge10_Node000004_Node000011"><a xlink:title=" ">
<path fill="none" stroke="#63b8ff" d="M1259.21,-340.88C1373.01,-328.23 1615.8,-294.17 1665.13,-230 1710.43,-171.08 1595.01,-118.87 1531.55,-95.6"/>
<polygon fill="#63b8ff" stroke="#63b8ff" points="1533.12,-92.45 1522.53,-92.37 1530.76,-99.04 1533.12,-92.45"/>
</a>
</g>
</g>
<!-- Node12 -->
<g id="Node000012" class="node">
<title>Node12</title>
<g id="a_Node000012"><a xlink:title=" ">
<polygon fill="#e0e0e0" stroke="#999999" points="1665.26,-91.38 1557.01,-91.38 1557.01,-72.12 1665.26,-72.12 1665.26,-91.38"/>
<text text-anchor="middle" x="1611.13" y="-77.88" font-family="Helvetica,sans-Serif" font-size="10.00">mlir/IR/Diagnostics.h</text>
</a>
</g>
</g>
<!-- Node4&#45;&gt;Node12 -->
<g id="edge11_Node000004_Node000012" class="edge">
<title>Node4&#45;&gt;Node12</title>
<g id="a_edge11_Node000004_Node000012"><a xlink:title=" ">
<path fill="none" stroke="#63b8ff" d="M1259.12,-346.7C1335.28,-344.91 1470.88,-335.79 1579.13,-296.5 1631.06,-277.65 1657.5,-278.39 1684.13,-230 1693.97,-212.13 1682.96,-146.67 1675.13,-133 1666.69,-118.25 1652.04,-106.26 1638.89,-97.7"/>
<polygon fill="#63b8ff" stroke="#63b8ff" points="1640.91,-94.83 1630.55,-92.62 1637.27,-100.81 1640.91,-94.83"/>
</a>
</g>
</g>
<!-- Node13 -->
<g id="Node000013" class="node">
<title>Node13</title>
<g id="a_Node000013"><a xlink:title=" ">
<polygon fill="#e0e0e0" stroke="#999999" points="1776.76,-91.38 1683.51,-91.38 1683.51,-72.12 1776.76,-72.12 1776.76,-91.38"/>
<text text-anchor="middle" x="1730.13" y="-77.88" font-family="Helvetica,sans-Serif" font-size="10.00">mlir/IR/Location.h</text>
</a>
</g>
</g>
<!-- Node4&#45;&gt;Node13 -->
<g id="edge12_Node000004_Node000013" class="edge">
<title>Node4&#45;&gt;Node13</title>
<g id="a_edge12_Node000004_Node000013"><a xlink:title=" ">
<path fill="none" stroke="#63b8ff" d="M1259.21,-344.51C1361.44,-339.88 1566.6,-327 1631.13,-296.5 1669.64,-278.3 1679.62,-267.33 1700.13,-230 1722.79,-188.77 1728.41,-132.57 1729.76,-102.94"/>
<polygon fill="#63b8ff" stroke="#63b8ff" points="1733.25,-103.29 1730.07,-93.18 1726.25,-103.06 1733.25,-103.29"/>
</a>
</g>
</g>
<!-- Node14 -->
<g id="Node000014" class="node">
<title>Node14</title>
<g id="a_Node000014"><a xlink:title=" ">
<polygon fill="#e0e0e0" stroke="#999999" points="1055.63,-91.38 916.63,-91.38 916.63,-72.12 1055.63,-72.12 1055.63,-91.38"/>
<text text-anchor="middle" x="986.13" y="-77.88" font-family="Helvetica,sans-Serif" font-size="10.00">mlir/Support/LogicalResult.h</text>
</a>
</g>
</g>
<!-- Node4&#45;&gt;Node14 -->
<g id="edge14_Node000004_Node000014" class="edge">
<title>Node4&#45;&gt;Node14</title>
<g id="a_edge14_Node000004_Node000014"><a xlink:title=" ">
<path fill="none" stroke="#63b8ff" d="M1141.07,-334.78C1083.57,-320.03 997.93,-289.27 949.13,-230 920.28,-194.95 896.55,-173.46 917.13,-133 925.08,-117.38 940.42,-105.46 954.62,-97.17"/>
<polygon fill="#63b8ff" stroke="#63b8ff" points="956.16,-100.31 963.3,-92.48 952.84,-94.15 956.16,-100.31"/>
</a>
</g>
</g>
<!-- Node15 -->
<g id="Node000015" class="node">
<title>Node15</title>
<g id="a_Node000015"><a xlink:href="_expr_8h.html" target="_top" xlink:title=" ">
<polygon fill="white" stroke="#666666" points="547.13,-230 447.13,-230 447.13,-199.5 547.13,-199.5 547.13,-230"/>
<text text-anchor="start" x="455.13" y="-216.5" font-family="Helvetica,sans-Serif" font-size="10.00">zklang/Dialect/ZHL</text>
<text text-anchor="middle" x="497.13" y="-205.25" font-family="Helvetica,sans-Serif" font-size="10.00">/Typing/Expr.h</text>
</a>
</g>
</g>
<!-- Node4&#45;&gt;Node15 -->
<g id="edge15_Node000004_Node000015" class="edge">
<title>Node4&#45;&gt;Node15</title>
<g id="a_edge15_Node000004_Node000015"><a xlink:title=" ">
<path fill="none" stroke="#63b8ff" d="M1141.21,-342.87C1058.72,-336.74 904.38,-322.72 775.13,-296.5 695.48,-280.34 605.52,-252.37 550.07,-233.96"/>
<polygon fill="#63b8ff" stroke="#63b8ff" points="551.48,-230.75 540.89,-230.9 549.26,-237.38 551.48,-230.75"/>
</a>
</g>
</g>
<!-- Node24 -->
<g id="Node000024" class="node">
<title>Node24</title>
<g id="a_Node000024"><a xlink:href="_frame_8h.html" target="_top" xlink:title=" ">
<polygon fill="white" stroke="#666666" points="1058.13,-230 958.13,-230 958.13,-199.5 1058.13,-199.5 1058.13,-230"/>
<text text-anchor="start" x="966.13" y="-216.5" font-family="Helvetica,sans-Serif" font-size="10.00">zklang/Dialect/ZHL</text>
<text text-anchor="middle" x="1008.13" y="-205.25" font-family="Helvetica,sans-Serif" font-size="10.00">/Typing/Frame.h</text>
</a>
</g>
</g>
<!-- Node4&#45;&gt;Node24 -->
<g id="edge37_Node000004_Node000024" class="edge">
<title>Node4&#45;&gt;Node24</title>
<g id="a_edge37_Node000004_Node000024"><a xlink:title=" ">
<path fill="none" stroke="#63b8ff" d="M1144.59,-332.04C1120.81,-324.02 1093.62,-312.41 1072.13,-296.5 1051.46,-281.19 1033.82,-257.61 1022.33,-239.87"/>
<polygon fill="#63b8ff" stroke="#63b8ff" points="1025.36,-238.12 1017.1,-231.5 1019.43,-241.83 1025.36,-238.12"/>
</a>
</g>
</g>
<!-- Node27 -->
<g id="Node000027" class="node">
<title>Node27</title>
<g id="a_Node000027"><a xlink:href="_frame_slot_8h.html" target="_top" xlink:title=" ">
<polygon fill="white" stroke="#666666" points="344.01,-97 240.26,-97 240.26,-66.5 344.01,-66.5 344.01,-97"/>
<text text-anchor="start" x="248.26" y="-83.5" font-family="Helvetica,sans-Serif" font-size="10.00">zklang/Dialect/ZHL</text>
<text text-anchor="middle" x="292.13" y="-72.25" font-family="Helvetica,sans-Serif" font-size="10.00">/Typing/FrameSlot.h</text>
</a>
</g>
</g>
<!-- Node4&#45;&gt;Node27 -->
<g id="edge49_Node000004_Node000027" class="edge">
<title>Node4&#45;&gt;Node27</title>
<g id="a_edge49_Node000004_Node000027"><a xlink:title=" ">
<path fill="none" stroke="#63b8ff" d="M1141.12,-346.69C935.37,-345.56 252.07,-333.89 64.13,-230 21.14,-206.23 -20.4,-170.67 11.13,-133 38.33,-100.51 154.53,-89.01 228.73,-84.95"/>
<polygon fill="#63b8ff" stroke="#63b8ff" points="228.49,-88.46 238.29,-84.46 228.13,-81.47 228.49,-88.46"/>
</a>
</g>
</g>
<!-- Node30 -->
<g id="Node000030" class="node">
<title>Node30</title>
<g id="a_Node000030"><a xlink:href="_type_binding_8h.html" target="_top" xlink:title=" ">
<polygon fill="white" stroke="#666666" points="1406.13,-296.5 1294.13,-296.5 1294.13,-266 1406.13,-266 1406.13,-296.5"/>
<text text-anchor="start" x="1302.13" y="-283" font-family="Helvetica,sans-Serif" font-size="10.00">zklang/Dialect/ZHL</text>
<text text-anchor="middle" x="1350.13" y="-271.75" font-family="Helvetica,sans-Serif" font-size="10.00">/Typing/TypeBinding.h</text>
</a>
</g>
</g>
<!-- Node4&#45;&gt;Node30 -->
<g id="edge50_Node000004_Node000030" class="edge">
<title>Node4&#45;&gt;Node30</title>
<g id="a_edge50_Node000004_Node000030"><a xlink:title=" ">
<path fill="none" stroke="#63b8ff" d="M1234.17,-332.11C1255.29,-323.03 1282.66,-311.27 1305.5,-301.44"/>
<polygon fill="#63b8ff" stroke="#63b8ff" points="1306.78,-304.7 1314.58,-297.54 1304.01,-298.27 1306.78,-304.7"/>
</a>
</g>
</g>
<!-- Node15&#45;&gt;Node2 -->
<g id="edge20_Node000015_Node000002" class="edge">
<title>Node15&#45;&gt;Node2</title>
<g id="a_edge20_Node000015_Node000002"><a xlink:title=" ">
<path fill="none" stroke="#63b8ff" d="M446.75,-207.13C380.74,-198.25 261.47,-181.51 160.13,-163.5 154.98,-162.59 149.63,-161.58 144.29,-160.54"/>
<polygon fill="#63b8ff" stroke="#63b8ff" points="145.37,-157.18 134.88,-158.66 144,-164.05 145.37,-157.18"/>
</a>
</g>
</g>
<!-- Node15&#45;&gt;Node3 -->
<g id="edge25_Node000015_Node000003" class="edge">
<title>Node15&#45;&gt;Node3</title>
<g id="a_edge25_Node000015_Node000003"><a xlink:title=" ">
<path fill="none" stroke="#63b8ff" d="M446.8,-210.89C372.81,-204.84 248.1,-186.58 293.13,-133 374.76,-35.89 1296.24,-19.45 1548.58,-16.76"/>
<polygon fill="#63b8ff" stroke="#63b8ff" points="1548.26,-20.26 1558.22,-16.66 1548.19,-13.26 1548.26,-20.26"/>
</a>
</g>
</g>
<!-- Node15&#45;&gt;Node6 -->
<g id="edge17_Node000015_Node000006" class="edge">
<title>Node15&#45;&gt;Node6</title>
<g id="a_edge17_Node000015_Node000006"><a xlink:title=" ">
<path fill="none" stroke="#63b8ff" d="M533.86,-199.07C558.17,-189.25 590.68,-175.89 619.13,-163.5 619.61,-163.29 620.09,-163.08 620.57,-162.87"/>
<polygon fill="#63b8ff" stroke="#63b8ff" points="621.77,-166.17 629.46,-158.88 618.9,-159.78 621.77,-166.17"/>
</a>
</g>
</g>
<!-- Node15&#45;&gt;Node14 -->
<g id="edge26_Node000015_Node000014" class="edge">
<title>Node15&#45;&gt;Node14</title>
<g id="a_edge26_Node000015_Node000014"><a xlink:title=" ">
<path fill="none" stroke="#63b8ff" d="M547.56,-209.41C608.94,-203.23 715.28,-189.64 803.13,-163.5 833.51,-154.46 913.6,-117.26 957.07,-96.65"/>
<polygon fill="#63b8ff" stroke="#63b8ff" points="958.39,-99.9 965.92,-92.45 955.38,-93.58 958.39,-99.9"/>
</a>
</g>
</g>
<!-- Node16 -->
<g id="Node000016" class="node">
<title>Node16</title>
<g id="a_Node000016"><a xlink:title=" ">
<polygon fill="#e0e0e0" stroke="#999999" points="364.26,-157.88 316.01,-157.88 316.01,-138.62 364.26,-138.62 364.26,-157.88"/>
<text text-anchor="middle" x="340.13" y="-144.38" font-family="Helvetica,sans-Serif" font-size="10.00">cstddef</text>
</a>
</g>
</g>
<!-- Node15&#45;&gt;Node16 -->
<g id="edge16_Node000015_Node000016" class="edge">
<title>Node15&#45;&gt;Node16</title>
<g id="a_edge16_Node000015_Node000016"><a xlink:title=" ">
<path fill="none" stroke="#63b8ff" d="M460.15,-199.02C435.45,-189.11 402.28,-175.69 373.13,-163.5 372.52,-163.24 371.9,-162.98 371.28,-162.72"/>
<polygon fill="#63b8ff" stroke="#63b8ff" points="373.02,-159.66 362.44,-158.96 370.27,-166.1 373.02,-159.66"/>
</a>
</g>
</g>
<!-- Node17 -->
<g id="Node000017" class="node">
<title>Node17</title>
<g id="a_Node000017"><a xlink:title=" ">
<polygon fill="#e0e0e0" stroke="#999999" points="489.88,-157.88 382.38,-157.88 382.38,-138.62 489.88,-138.62 489.88,-157.88"/>
<text text-anchor="middle" x="436.13" y="-144.38" font-family="Helvetica,sans-Serif" font-size="10.00">llvm/ADT/ArrayRef.h</text>
</a>
</g>
</g>
<!-- Node15&#45;&gt;Node17 -->
<g id="edge18_Node000015_Node000017" class="edge">
<title>Node15&#45;&gt;Node17</title>
<g id="a_edge18_Node000015_Node000017"><a xlink:title=" ">
<path fill="none" stroke="#63b8ff" d="M483.29,-199.11C474.05,-189.34 461.86,-176.45 452.19,-166.23"/>
<polygon fill="#63b8ff" stroke="#63b8ff" points="454.93,-164.03 445.52,-159.17 449.85,-168.84 454.93,-164.03"/>
</a>
</g>
</g>
<!-- Node18 -->
<g id="Node000018" class="node">
<title>Node18</title>
<g id="a_Node000018"><a xlink:title=" ">
<polygon fill="#e0e0e0" stroke="#999999" points="311.51,-24.88 192.76,-24.88 192.76,-5.63 311.51,-5.63 311.51,-24.88"/>
<text text-anchor="middle" x="252.13" y="-11.38" font-family="Helvetica,sans-Serif" font-size="10.00">llvm/ADT/SmallString.h</text>
</a>
</g>
</g>
<!-- Node15&#45;&gt;Node18 -->
<g id="edge19_Node000015_Node000018" class="edge">
<title>Node15&#45;&gt;Node18</title>
<g id="a_edge19_Node000015_Node000018"><a xlink:title=" ">
<path fill="none" stroke="#63b8ff" d="M446.82,-211.14C378.97,-206.48 263.45,-194.16 236.13,-163.5 204.29,-127.76 227.21,-66.15 242.1,-35.18"/>
<polygon fill="#63b8ff" stroke="#63b8ff" points="245.04,-37.12 246.42,-26.61 238.79,-33.96 245.04,-37.12"/>
</a>
</g>
</g>
<!-- Node19 -->
<g id="Node000019" class="node">
<title>Node19</title>
<g id="a_Node000019"><a xlink:title=" ">
<polygon fill="#e0e0e0" stroke="#999999" points="800.76,-91.38 683.51,-91.38 683.51,-72.12 800.76,-72.12 800.76,-91.38"/>
<text text-anchor="middle" x="742.13" y="-77.88" font-family="Helvetica,sans-Serif" font-size="10.00">llvm/ADT/simple_ilist.h</text>
</a>
</g>
</g>
<!-- Node15&#45;&gt;Node19 -->
<g id="edge21_Node000015_Node000019" class="edge">
<title>Node15&#45;&gt;Node19</title>
<g id="a_edge21_Node000015_Node000019"><a xlink:title=" ">
<path fill="none" stroke="#63b8ff" d="M446.65,-209.49C376.82,-201.75 263.97,-181.43 307.13,-133 330.93,-106.29 554.91,-91.69 671.83,-85.83"/>
<polygon fill="#63b8ff" stroke="#63b8ff" points="671.81,-89.34 681.63,-85.35 671.47,-82.35 671.81,-89.34"/>
</a>
</g>
</g>
<!-- Node20 -->
<g id="Node000020" class="node">
<title>Node20</title>
<g id="a_Node000020"><a xlink:title=" ">
<polygon fill="#e0e0e0" stroke="#999999" points="977.76,-157.88 926.51,-157.88 926.51,-138.62 977.76,-138.62 977.76,-157.88"/>
<text text-anchor="middle" x="952.13" y="-144.38" font-family="Helvetica,sans-Serif" font-size="10.00">memory</text>
</a>
</g>
</g>
<!-- Node15&#45;&gt;Node20 -->
<g id="edge22_Node000015_Node000020" class="edge">
<title>Node15&#45;&gt;Node20</title>
<g id="a_edge22_Node000015_Node000020"><a xlink:title=" ">
<path fill="none" stroke="#63b8ff" d="M547.56,-206.6C639.75,-193.53 833.43,-166.08 914.84,-154.54"/>
<polygon fill="#63b8ff" stroke="#63b8ff" points="915.1,-158.03 924.51,-153.17 914.12,-151.1 915.1,-158.03"/>
</a>
</g>
</g>
<!-- Node21 -->
<g id="Node000021" class="node">
<title>Node21</title>
<g id="a_Node000021"><a xlink:title=" ">
<polygon fill="#e0e0e0" stroke="#999999" points="609.88,-157.88 508.38,-157.88 508.38,-138.62 609.88,-138.62 609.88,-157.88"/>
<text text-anchor="middle" x="559.13" y="-144.38" font-family="Helvetica,sans-Serif" font-size="10.00">mlir/IR/AffineExpr.h</text>
</a>
</g>
</g>
<!-- Node15&#45;&gt;Node21 -->
<g id="edge23_Node000015_Node000021" class="edge">
<title>Node15&#45;&gt;Node21</title>
<g id="a_edge23_Node000015_Node000021"><a xlink:title=" ">
<path fill="none" stroke="#63b8ff" d="M511.2,-199.11C520.6,-189.34 532.99,-176.45 542.81,-166.23"/>
<polygon fill="#63b8ff" stroke="#63b8ff" points="545.2,-168.8 549.6,-159.16 540.15,-163.95 545.2,-168.8"/>
</a>
</g>
</g>
<!-- Node22 -->
<g id="Node000022" class="node">
<title>Node22</title>
<g id="a_Node000022"><a xlink:title=" ">
<polygon fill="#e0e0e0" stroke="#999999" points="174.38,-24.88 75.88,-24.88 75.88,-5.63 174.38,-5.63 174.38,-24.88"/>
<text text-anchor="middle" x="125.13" y="-11.38" font-family="Helvetica,sans-Serif" font-size="10.00">mlir/IR/Attributes.h</text>
</a>
</g>
</g>
<!-- Node15&#45;&gt;Node22 -->
<g id="edge24_Node000015_Node000022" class="edge">
<title>Node15&#45;&gt;Node22</title>
<g id="a_edge24_Node000015_Node000022"><a xlink:title=" ">
<path fill="none" stroke="#63b8ff" d="M446.8,-209.55C376.86,-202.91 254.72,-188.15 218.13,-163.5 171.44,-132.04 143.47,-68.44 131.69,-36.1"/>
<polygon fill="#63b8ff" stroke="#63b8ff" points="135.05,-35.1 128.46,-26.8 128.43,-37.39 135.05,-35.1"/>
</a>
</g>
</g>
<!-- Node23 -->
<g id="Node000023" class="node">
<title>Node23</title>
<g id="a_Node000023"><a xlink:href="_params_8h.html" target="_top" xlink:title=" ">
<polygon fill="white" stroke="#666666" points="1469.13,-163.5 1369.13,-163.5 1369.13,-133 1469.13,-133 1469.13,-163.5"/>
<text text-anchor="start" x="1377.13" y="-150" font-family="Helvetica,sans-Serif" font-size="10.00">zklang/Dialect/ZHL</text>
<text text-anchor="middle" x="1419.13" y="-138.75" font-family="Helvetica,sans-Serif" font-size="10.00">/Typing/Params.h</text>
</a>
</g>
</g>
<!-- Node15&#45;&gt;Node23 -->
<g id="edge27_Node000015_Node000023" class="edge">
<title>Node15&#45;&gt;Node23</title>
<g id="a_edge27_Node000015_Node000023"><a xlink:title=" ">
<path fill="none" stroke="#63b8ff" d="M547.36,-210.24C704.4,-199.25 1185.86,-165.57 1357.53,-153.56"/>
<polygon fill="#63b8ff" stroke="#63b8ff" points="1357.62,-157.06 1367.35,-152.87 1357.13,-150.08 1357.62,-157.06"/>
</a>
</g>
</g>
<!-- Node23&#45;&gt;Node3 -->
<g id="edge35_Node000023_Node000003" class="edge">
<title>Node23&#45;&gt;Node3</title>
<g id="a_edge35_Node000023_Node000003"><a xlink:title=" ">
<path fill="none" stroke="#63b8ff" d="M1418.41,-132.67C1418.35,-114.73 1421.06,-84.45 1438.13,-66.5 1466.51,-36.67 1511.39,-24.2 1548.46,-19.15"/>
<polygon fill="#63b8ff" stroke="#63b8ff" points="1548.67,-22.65 1558.18,-17.99 1547.84,-15.7 1548.67,-22.65"/>
</a>
</g>
</g>
<!-- Node23&#45;&gt;Node5 -->
<g id="edge28_Node000023_Node000005" class="edge">
<title>Node23&#45;&gt;Node5</title>
<g id="a_edge28_Node000023_Node000005"><a xlink:title=" ">
<path fill="none" stroke="#63b8ff" d="M1469.38,-141.28C1492.45,-138.61 1520.16,-135.51 1545.13,-133 1726.7,-114.75 1776.98,-140.79 1954.13,-97 1955.73,-96.61 1957.34,-96.15 1958.96,-95.64"/>
<polygon fill="#63b8ff" stroke="#63b8ff" points="1959.82,-99.05 1968,-92.33 1957.41,-92.48 1959.82,-99.05"/>
</a>
</g>
</g>
<!-- Node23&#45;&gt;Node8 -->
<g id="edge29_Node000023_Node000008" class="edge">
<title>Node23&#45;&gt;Node8</title>
<g id="a_edge29_Node000023_Node000008"><a xlink:title=" ">
<path fill="none" stroke="#63b8ff" d="M1469.6,-140.36C1540.35,-130.7 1673.05,-112.56 1786.13,-97 1797.52,-95.43 1809.61,-93.76 1821.35,-92.14"/>
<polygon fill="#63b8ff" stroke="#63b8ff" points="1821.54,-95.65 1830.97,-90.81 1820.58,-88.71 1821.54,-95.65"/>
</a>
</g>
</g>
<!-- Node23&#45;&gt;Node9 -->
<g id="edge30_Node000023_Node000009" class="edge">
<title>Node23&#45;&gt;Node9</title>
<g id="a_edge30_Node000023_Node000009"><a xlink:title=" ">
<path fill="none" stroke="#63b8ff" d="M1370.99,-132.53C1334,-121.23 1283.5,-105.79 1248.59,-95.12"/>
<polygon fill="#63b8ff" stroke="#63b8ff" points="1249.87,-91.85 1239.29,-92.27 1247.83,-98.54 1249.87,-91.85"/>
</a>
</g>
</g>
<!-- Node23&#45;&gt;Node10 -->
<g id="edge31_Node000023_Node000010" class="edge">
<title>Node23&#45;&gt;Node10</title>
<g id="a_edge31_Node000023_Node000010"><a xlink:title=" ">
<path fill="none" stroke="#63b8ff" d="M1400.3,-132.61C1387.21,-122.44 1369.79,-108.91 1356.4,-98.5"/>
<polygon fill="#63b8ff" stroke="#63b8ff" points="1358.73,-95.87 1348.68,-92.5 1354.43,-101.4 1358.73,-95.87"/>
</a>
</g>
</g>
<!-- Node23&#45;&gt;Node11 -->
<g id="edge32_Node000023_Node000011" class="edge">
<title>Node23&#45;&gt;Node11</title>
<g id="a_edge32_Node000023_Node000011"><a xlink:title=" ">
<path fill="none" stroke="#63b8ff" d="M1435.93,-132.61C1447.37,-122.64 1462.52,-109.43 1474.36,-99.11"/>
<polygon fill="#63b8ff" stroke="#63b8ff" points="1476.63,-101.78 1481.87,-92.57 1472.03,-96.5 1476.63,-101.78"/>
</a>
</g>
</g>
<!-- Node23&#45;&gt;Node12 -->
<g id="edge33_Node000023_Node000012" class="edge">
<title>Node23&#45;&gt;Node12</title>
<g id="a_edge33_Node000023_Node000012"><a xlink:title=" ">
<path fill="none" stroke="#63b8ff" d="M1462.7,-132.61C1496.05,-121.41 1541.59,-106.11 1573.4,-95.43"/>
<polygon fill="#63b8ff" stroke="#63b8ff" points="1574.23,-98.84 1582.6,-92.34 1572,-92.2 1574.23,-98.84"/>
</a>
</g>
</g>
<!-- Node23&#45;&gt;Node13 -->
<g id="edge34_Node000023_Node000013" class="edge">
<title>Node23&#45;&gt;Node13</title>
<g id="a_edge34_Node000023_Node000013"><a xlink:title=" ">
<path fill="none" stroke="#63b8ff" d="M1469.62,-138.14C1521.19,-128.64 1603.49,-112.94 1674.13,-97 1677.5,-96.24 1680.97,-95.43 1684.46,-94.59"/>
<polygon fill="#63b8ff" stroke="#63b8ff" points="1685.21,-98.01 1694.08,-92.23 1683.54,-91.21 1685.21,-98.01"/>
</a>
</g>
</g>
<!-- Node23&#45;&gt;Node14 -->
<g id="edge36_Node000023_Node000014" class="edge">
<title>Node23&#45;&gt;Node14</title>
<g id="a_edge36_Node000023_Node000014"><a xlink:title=" ">
<path fill="none" stroke="#63b8ff" d="M1369.04,-139.79C1292.58,-128.4 1146.41,-106.62 1058.45,-93.52"/>
<polygon fill="#63b8ff" stroke="#63b8ff" points="1059.13,-90.09 1048.72,-92.07 1058.1,-97.01 1059.13,-90.09"/>
</a>
</g>
</g>
<!-- Node24&#45;&gt;Node19 -->
<g id="edge38_Node000024_Node000019" class="edge">
<title>Node24&#45;&gt;Node19</title>
<g id="a_edge38_Node000024_Node000019"><a xlink:title=" ">
<path fill="none" stroke="#63b8ff" d="M978.39,-199.1C926.86,-173.73 821.63,-121.9 770.83,-96.88"/>
<polygon fill="#63b8ff" stroke="#63b8ff" points="772.45,-93.78 761.93,-92.5 769.35,-100.06 772.45,-93.78"/>
</a>
</g>
</g>
<!-- Node24&#45;&gt;Node20 -->
<g id="edge40_Node000024_Node000020" class="edge">
<title>Node24&#45;&gt;Node20</title>
<g id="a_edge40_Node000024_Node000020"><a xlink:title=" ">
<path fill="none" stroke="#63b8ff" d="M995.43,-199.11C987.03,-189.44 975.98,-176.71 967.14,-166.54"/>
<polygon fill="#63b8ff" stroke="#63b8ff" points="969.98,-164.47 960.79,-159.22 964.7,-169.06 969.98,-164.47"/>
</a>
</g>
</g>
<!-- Node25 -->
<g id="Node000025" class="node">
<title>Node25</title>
<g id="a_Node000025"><a xlink:title=" ">
<polygon fill="#e0e0e0" stroke="#999999" points="1134.26,-157.88 996.01,-157.88 996.01,-138.62 1134.26,-138.62 1134.26,-157.88"/>
<text text-anchor="middle" x="1065.13" y="-144.38" font-family="Helvetica,sans-Serif" font-size="10.00">llvm/Support/raw_ostream.h</text>
</a>
</g>
</g>
<!-- Node24&#45;&gt;Node25 -->
<g id="edge39_Node000024_Node000025" class="edge">
<title>Node24&#45;&gt;Node25</title>
<g id="a_edge39_Node000024_Node000025"><a xlink:title=" ">
<path fill="none" stroke="#63b8ff" d="M1021.07,-199.11C1029.62,-189.44 1040.86,-176.71 1049.86,-166.54"/>
<polygon fill="#63b8ff" stroke="#63b8ff" points="1052.34,-169.02 1056.33,-159.21 1047.09,-164.38 1052.34,-169.02"/>
</a>
</g>
</g>
<!-- Node26 -->
<g id="Node000026" class="node">
<title>Node26</title>
<g id="a_Node000026"><a xlink:href="_frame_info_8h.html" target="_top" xlink:title=" ">
<polygon fill="white" stroke="#666666" points="793.63,-163.5 690.63,-163.5 690.63,-133 793.63,-133 793.63,-163.5"/>
<text text-anchor="start" x="698.63" y="-150" font-family="Helvetica,sans-Serif" font-size="10.00">zklang/Dialect/ZHL</text>
<text text-anchor="middle" x="742.13" y="-138.75" font-family="Helvetica,sans-Serif" font-size="10.00">/Typing/FrameInfo.h</text>
</a>
</g>
</g>
<!-- Node24&#45;&gt;Node26 -->
<g id="edge41_Node000024_Node000026" class="edge">
<title>Node24&#45;&gt;Node26</title>
<g id="a_edge41_Node000024_Node000026"><a xlink:title=" ">
<path fill="none" stroke="#63b8ff" d="M957.79,-201.54C914.51,-191.05 851.9,-175.87 805.28,-164.56"/>
<polygon fill="#63b8ff" stroke="#63b8ff" points="806.1,-161.16 795.56,-162.2 804.45,-167.96 806.1,-161.16"/>
</a>
</g>
</g>
<!-- Node26&#45;&gt;Node19 -->
<g id="edge42_Node000026_Node000019" class="edge">
<title>Node26&#45;&gt;Node19</title>
<g id="a_edge42_Node000026_Node000019"><a xlink:title=" ">
<path fill="none" stroke="#63b8ff" d="M742.13,-132.61C742.13,-123.83 742.13,-112.52 742.13,-102.9"/>
<polygon fill="#63b8ff" stroke="#63b8ff" points="745.63,-103.09 742.13,-93.09 738.63,-103.09 745.63,-103.09"/>
</a>
</g>
</g>
<!-- Node26&#45;&gt;Node27 -->
<g id="edge43_Node000026_Node000027" class="edge">
<title>Node26&#45;&gt;Node27</title>
<g id="a_edge43_Node000026_Node000027"><a xlink:title=" ">
<path fill="none" stroke="#63b8ff" d="M690.17,-134.56C687.46,-134 684.77,-133.48 682.13,-133 567.72,-112.1 432.86,-96.76 355.44,-88.84"/>
<polygon fill="#63b8ff" stroke="#63b8ff" points="356.25,-85.41 345.95,-87.88 355.55,-92.37 356.25,-85.41"/>
</a>
</g>
</g>
<!-- Node27&#45;&gt;Node3 -->
<g id="edge48_Node000027_Node000003" class="edge">
<title>Node27&#45;&gt;Node3</title>
<g id="a_edge48_Node000027_Node000003"><a xlink:title=" ">
<path fill="none" stroke="#63b8ff" d="M344.23,-68.63C348.91,-67.81 353.6,-67.08 358.13,-66.5 591.98,-36.8 1326.39,-21.41 1548.12,-17.35"/>
<polygon fill="#63b8ff" stroke="#63b8ff" points="1548.08,-20.86 1558.01,-17.17 1547.95,-13.86 1548.08,-20.86"/>
</a>
</g>
</g>
<!-- Node27&#45;&gt;Node18 -->
<g id="edge44_Node000027_Node000018" class="edge">
<title>Node27&#45;&gt;Node18</title>
<g id="a_edge44_Node000027_Node000018"><a xlink:title=" ">
<path fill="none" stroke="#63b8ff" d="M283.06,-66.11C277.3,-56.83 269.81,-44.75 263.63,-34.8"/>
<polygon fill="#63b8ff" stroke="#63b8ff" points="266.65,-33.01 258.4,-26.36 260.7,-36.7 266.65,-33.01"/>
</a>
</g>
</g>
<!-- Node27&#45;&gt;Node22 -->
<g id="edge47_Node000027_Node000022" class="edge">
<title>Node27&#45;&gt;Node22</title>
<g id="a_edge47_Node000027_Node000022"><a xlink:title=" ">
<path fill="none" stroke="#63b8ff" d="M254.24,-66.11C225.65,-55.07 186.77,-40.06 159.17,-29.4"/>
<polygon fill="#63b8ff" stroke="#63b8ff" points="160.46,-26.14 149.87,-25.81 157.94,-32.67 160.46,-26.14"/>
</a>
</g>
</g>
<!-- Node28 -->
<g id="Node000028" class="node">
<title>Node28</title>
<g id="a_Node000028"><a xlink:title=" ">
<polygon fill="#e0e0e0" stroke="#999999" points="439.01,-24.88 329.26,-24.88 329.26,-5.63 439.01,-5.63 439.01,-24.88"/>
<text text-anchor="middle" x="384.13" y="-11.38" font-family="Helvetica,sans-Serif" font-size="10.00">llvm/ADT/ilist_node.h</text>
</a>
</g>
</g>
<!-- Node27&#45;&gt;Node28 -->
<g id="edge45_Node000027_Node000028" class="edge">
<title>Node27&#45;&gt;Node28</title>
<g id="a_edge45_Node000027_Node000028"><a xlink:title=" ">
<path fill="none" stroke="#63b8ff" d="M313.01,-66.11C327.71,-55.81 347.35,-42.04 362.26,-31.58"/>
<polygon fill="#63b8ff" stroke="#63b8ff" points="363.86,-34.74 370.04,-26.13 359.85,-29 363.86,-34.74"/>
</a>
</g>
</g>
<!-- Node29 -->
<g id="Node000029" class="node">
<title>Node29</title>
<g id="a_Node000029"><a xlink:title=" ">
<polygon fill="#e0e0e0" stroke="#999999" points="558.88,-30.5 457.38,-30.5 457.38,0 558.88,0 558.88,-30.5"/>
<text text-anchor="start" x="465.38" y="-17" font-family="Helvetica,sans-Serif" font-size="10.00">llvm/ADT/ilist_node</text>
<text text-anchor="middle" x="508.13" y="-5.75" font-family="Helvetica,sans-Serif" font-size="10.00">_options.h</text>
</a>
</g>
</g>
<!-- Node27&#45;&gt;Node29 -->
<g id="edge46_Node000027_Node000029" class="edge">
<title>Node27&#45;&gt;Node29</title>
<g id="a_edge46_Node000027_Node000029"><a xlink:title=" ">
<path fill="none" stroke="#63b8ff" d="M341.42,-66.03C373.21,-56.54 414.76,-44.13 448.43,-34.08"/>
<polygon fill="#63b8ff" stroke="#63b8ff" points="449.03,-37.55 457.61,-31.34 447.03,-30.84 449.03,-37.55"/>
</a>
</g>
</g>
<!-- Node30&#45;&gt;Node3 -->
<g id="edge61_Node000030_Node000003" class="edge">
<title>Node30&#45;&gt;Node3</title>
<g id="a_edge61_Node000030_Node000003"><a xlink:title=" ">
<path fill="none" stroke="#63b8ff" d="M1406.51,-278.42C1495.32,-274.55 1662.69,-262.99 1711.13,-230 1777.21,-185 1834.19,-130.39 1786.13,-66.5 1772.62,-48.53 1719.88,-34.95 1675.97,-26.47"/>
<polygon fill="#63b8ff" stroke="#63b8ff" points="1676.69,-23.04 1666.22,-24.65 1675.41,-29.92 1676.69,-23.04"/>
</a>
</g>
</g>
<!-- Node30&#45;&gt;Node5 -->
<g id="edge51_Node000030_Node000005" class="edge">
<title>Node30&#45;&gt;Node5</title>
<g id="a_edge51_Node000030_Node000005"><a xlink:title=" ">
<path fill="none" stroke="#63b8ff" d="M1406.63,-278.02C1512.41,-273.19 1736.08,-259.73 1807.13,-230 1878.9,-199.98 1944.85,-132.13 1973.32,-100.11"/>
<polygon fill="#63b8ff" stroke="#63b8ff" points="1975.69,-102.72 1979.64,-92.88 1970.42,-98.11 1975.69,-102.72"/>
</a>
</g>
</g>
<!-- Node30&#45;&gt;Node6 -->
<g id="edge52_Node000030_Node000006" class="edge">
<title>Node30&#45;&gt;Node6</title>
<g id="a_edge52_Node000030_Node000006"><a xlink:title=" ">
<path fill="none" stroke="#63b8ff" d="M1293.91,-277.38C1215.65,-272.45 1069.86,-259.85 949.13,-230 911.79,-220.77 905.15,-209.97 868.13,-199.5 787.11,-176.58 762.45,-188.79 682.13,-163.5 681.14,-163.19 680.14,-162.85 679.14,-162.5"/>
<polygon fill="#63b8ff" stroke="#63b8ff" points="680.46,-159.26 669.88,-158.83 677.88,-165.77 680.46,-159.26"/>
</a>
</g>
</g>
<!-- Node30&#45;&gt;Node8 -->
<g id="edge54_Node000030_Node000008" class="edge">
<title>Node30&#45;&gt;Node8</title>
<g id="a_edge54_Node000030_Node000008"><a xlink:title=" ">
<path fill="none" stroke="#63b8ff" d="M1406.33,-278.89C1506.79,-275.61 1712.45,-264.73 1774.13,-230 1827.48,-199.96 1864.68,-134.17 1880.54,-101.68"/>
<polygon fill="#63b8ff" stroke="#63b8ff" points="1883.5,-103.59 1884.61,-93.06 1877.17,-100.61 1883.5,-103.59"/>
</a>
</g>
</g>
<!-- Node30&#45;&gt;Node9 -->
<g id="edge55_Node000030_Node000009" class="edge">
<title>Node30&#45;&gt;Node9</title>
<g id="a_edge55_Node000030_Node000009"><a xlink:title=" ">
<path fill="none" stroke="#63b8ff" d="M1307.98,-265.6C1290.15,-257.54 1270.47,-245.88 1257.13,-230 1225.61,-192.44 1214.14,-133.86 1210.15,-103.13"/>
<polygon fill="#63b8ff" stroke="#63b8ff" points="1213.64,-102.85 1209.03,-93.32 1206.68,-103.65 1213.64,-102.85"/>
</a>
</g>
</g>
<!-- Node30&#45;&gt;Node10 -->
<g id="edge56_Node000030_Node000010" class="edge">
<title>Node30&#45;&gt;Node10</title>
<g id="a_edge56_Node000030_Node000010"><a xlink:title=" ">
<path fill="none" stroke="#63b8ff" d="M1357.24,-265.7C1361.63,-255.88 1366.85,-242.48 1369.13,-230 1371.57,-216.67 1370.99,-212.93 1369.13,-199.5 1367.79,-189.83 1351.09,-132.94 1341.97,-102.29"/>
<polygon fill="#63b8ff" stroke="#63b8ff" points="1345.44,-101.68 1339.23,-93.09 1338.74,-103.68 1345.44,-101.68"/>
</a>
</g>
</g>
<!-- Node30&#45;&gt;Node11 -->
<g id="edge58_Node000030_Node000011" class="edge">
<title>Node30&#45;&gt;Node11</title>
<g id="a_edge58_Node000030_Node000011"><a xlink:title=" ">
<path fill="none" stroke="#63b8ff" d="M1375.76,-265.53C1406.28,-246.4 1455.94,-209.9 1478.13,-163.5 1487.35,-144.23 1490.92,-119.86 1492.29,-102.96"/>
<polygon fill="#63b8ff" stroke="#63b8ff" points="1495.77,-103.4 1492.88,-93.21 1488.78,-102.98 1495.77,-103.4"/>
</a>
</g>
</g>
<!-- Node30&#45;&gt;Node12 -->
<g id="edge59_Node000030_Node000012" class="edge">
<title>Node30&#45;&gt;Node12</title>
<g id="a_edge59_Node000030_Node000012"><a xlink:title=" ">
<path fill="none" stroke="#63b8ff" d="M1406.35,-279.67C1487.81,-277.51 1632.52,-268.23 1665.13,-230 1698.3,-191.12 1653.81,-130.1 1627.7,-100.3"/>
<polygon fill="#63b8ff" stroke="#63b8ff" points="1630.32,-97.98 1621.01,-92.92 1625.13,-102.68 1630.32,-97.98"/>
</a>
</g>
</g>
<!-- Node30&#45;&gt;Node13 -->
<g id="edge60_Node000030_Node000013" class="edge">
<title>Node30&#45;&gt;Node13</title>
<g id="a_edge60_Node000030_Node000013"><a xlink:title=" ">
<path fill="none" stroke="#63b8ff" d="M1406.38,-278.89C1490.71,-275.72 1644.38,-265.14 1685.13,-230 1722.5,-197.78 1729.38,-135.48 1730.31,-103.22"/>
<polygon fill="#63b8ff" stroke="#63b8ff" points="1733.8,-103.3 1730.4,-93.27 1726.81,-103.23 1733.8,-103.3"/>
</a>
</g>
</g>
<!-- Node30&#45;&gt;Node14 -->
<g id="edge62_Node000030_Node000014" class="edge">
<title>Node30&#45;&gt;Node14</title>
<g id="a_edge62_Node000030_Node000014"><a xlink:title=" ">
<path fill="none" stroke="#63b8ff" d="M1304.94,-265.6C1282.51,-257.14 1255.67,-245.15 1234.13,-230 1185.79,-195.99 1193.11,-164.58 1143.13,-133 1113.83,-114.48 1077.11,-102.24 1046.55,-94.48"/>
<polygon fill="#63b8ff" stroke="#63b8ff" points="1047.61,-91.13 1037.07,-92.17 1045.96,-97.94 1047.61,-91.13"/>
</a>
</g>
</g>
<!-- Node30&#45;&gt;Node15 -->
<g id="edge63_Node000030_Node000015" class="edge">
<title>Node30&#45;&gt;Node15</title>
<g id="a_edge63_Node000030_Node000015"><a xlink:title=" ">
<path fill="none" stroke="#63b8ff" d="M1293.84,-275.99C1140.85,-264.43 718.31,-232.47 559,-220.43"/>
<polygon fill="#63b8ff" stroke="#63b8ff" points="559.28,-216.94 549.05,-219.68 558.75,-223.92 559.28,-216.94"/>
</a>
</g>
</g>
<!-- Node30&#45;&gt;Node20 -->
<g id="edge57_Node000030_Node000020" class="edge">
<title>Node30&#45;&gt;Node20</title>
<g id="a_edge57_Node000030_Node000020"><a xlink:title=" ">
<path fill="none" stroke="#63b8ff" d="M1293.78,-268.56C1252.91,-259.53 1196.54,-245.9 1148.13,-230 1116.25,-219.53 1030.32,-182.99 983.53,-162.85"/>
<polygon fill="#63b8ff" stroke="#63b8ff" points="985.04,-159.68 974.47,-158.94 982.26,-166.11 985.04,-159.68"/>
</a>
</g>
</g>
<!-- Node30&#45;&gt;Node23 -->
<g id="edge66_Node000030_Node000023" class="edge">
<title>Node30&#45;&gt;Node23</title>
<g id="a_edge66_Node000030_Node000023"><a xlink:title=" ">
<path fill="none" stroke="#63b8ff" d="M1370.3,-265.67C1381.36,-256.63 1394.36,-244.06 1402.13,-230 1411.5,-213.05 1415.72,-191.48 1417.61,-174.9"/>
<polygon fill="#63b8ff" stroke="#63b8ff" points="1421.06,-175.63 1418.48,-165.36 1414.09,-175 1421.06,-175.63"/>
</a>
</g>
</g>
<!-- Node30&#45;&gt;Node24 -->
<g id="edge64_Node000030_Node000024" class="edge">
<title>Node30&#45;&gt;Node24</title>
<g id="a_edge64_Node000030_Node000024"><a xlink:title=" ">
<path fill="none" stroke="#63b8ff" d="M1293.66,-269.6C1231.91,-257.95 1133.29,-239.35 1069.63,-227.35"/>
<polygon fill="#63b8ff" stroke="#63b8ff" points="1070.52,-223.95 1060.04,-225.54 1069.22,-230.83 1070.52,-223.95"/>
</a>
</g>
</g>
<!-- Node30&#45;&gt;Node27 -->
<g id="edge65_Node000030_Node000027" class="edge">
<title>Node30&#45;&gt;Node27</title>
<g id="a_edge65_Node000030_Node000027"><a xlink:title=" ">
<path fill="none" stroke="#63b8ff" d="M1293.66,-279.21C1150.3,-276.11 760.73,-264.89 438.13,-230 254.16,-210.1 147.07,-304.41 27.13,-163.5 -30.46,-95.84 133.07,-83.78 228.58,-82.31"/>
<polygon fill="#63b8ff" stroke="#63b8ff" points="228.4,-85.81 238.35,-82.2 228.32,-78.81 228.4,-85.81"/>
</a>
</g>
</g>
<!-- Node31 -->
<g id="Node000031" class="node">
<title>Node31</title>
<g id="a_Node000031"><a xlink:title=" ">
<polygon fill="#e0e0e0" stroke="#999999" points="1360.13,-224.38 1266.13,-224.38 1266.13,-205.12 1360.13,-205.12 1360.13,-224.38"/>
<text text-anchor="middle" x="1313.13" y="-210.88" font-family="Helvetica,sans-Serif" font-size="10.00">llvm/ADT/Bitset.h</text>
</a>
</g>
</g>
<!-- Node30&#45;&gt;Node31 -->
<g id="edge53_Node000030_Node000031" class="edge">
<title>Node30&#45;&gt;Node31</title>
<g id="a_edge53_Node000030_Node000031"><a xlink:title=" ">
<path fill="none" stroke="#63b8ff" d="M1341.74,-265.61C1336.41,-256.33 1329.48,-244.25 1323.77,-234.3"/>
<polygon fill="#63b8ff" stroke="#63b8ff" points="1326.96,-232.82 1318.95,-225.89 1320.89,-236.3 1326.96,-232.82"/>
</a>
</g>
</g>
<!-- Node32 -->
<g id="Node000032" class="node">
<title>Node32</title>
<g id="a_Node000032"><a xlink:href="_copyable_pointer_8h.html" target="_top" xlink:title=" ">
<polygon fill="white" stroke="#666666" points="1656.01,-224.38 1492.26,-224.38 1492.26,-205.12 1656.01,-205.12 1656.01,-224.38"/>
<text text-anchor="middle" x="1574.13" y="-210.88" font-family="Helvetica,sans-Serif" font-size="10.00">zklang/Support/CopyablePointer.h</text>
</a>
</g>
</g>
<!-- Node30&#45;&gt;Node32 -->
<g id="edge67_Node000030_Node000032" class="edge">
<title>Node30&#45;&gt;Node32</title>
<g id="a_edge67_Node000030_Node000032"><a xlink:title=" ">
<path fill="none" stroke="#63b8ff" d="M1401.24,-265.53C1440.68,-254.18 1494.58,-238.66 1531.66,-227.98"/>
<polygon fill="#63b8ff" stroke="#63b8ff" points="1532.5,-231.38 1541.14,-225.25 1530.57,-224.65 1532.5,-231.38"/>
</a>
</g>
</g>
<!-- Node33 -->
<g id="Node000033" class="node">
<title>Node33</title>
<g id="a_Node000033"><a xlink:title=" ">
<polygon fill="#e0e0e0" stroke="#999999" points="1593.76,-157.88 1554.51,-157.88 1554.51,-138.62 1593.76,-138.62 1593.76,-157.88"/>
<text text-anchor="middle" x="1574.13" y="-144.38" font-family="Helvetica,sans-Serif" font-size="10.00">utility</text>
</a>
</g>
</g>
<!-- Node32&#45;&gt;Node33 -->
<g id="edge68_Node000032_Node000033" class="edge">
<title>Node32&#45;&gt;Node33</title>
<g id="a_edge68_Node000032_Node000033"><a xlink:title=" ">
<path fill="none" stroke="#63b8ff" d="M1574.13,-204.78C1574.13,-195.73 1574.13,-181.45 1574.13,-169.63"/>
<polygon fill="#63b8ff" stroke="#63b8ff" points="1577.63,-169.66 1574.13,-159.66 1570.63,-169.66 1577.63,-169.66"/>
</a>
</g>
</g>
</g>
</svg>
