<?xml version="1.0" encoding="UTF-8" standalone="no"?>
<!DOCTYPE svg PUBLIC "-//W3C//DTD SVG 1.1//EN"
 "http://www.w3.org/Graphics/SVG/1.1/DTD/svg11.dtd">
<!-- Generated by graphviz version 12.2.1 (20241206.2353)
 -->
<!-- Title: include/zklang/Dialect/ZML/IR/Types.h Pages: 1 -->
<svg width="2077pt" height="172pt"
 viewBox="0.00 0.00 2077.12 171.50" xmlns="http://www.w3.org/2000/svg" xmlns:xlink="http://www.w3.org/1999/xlink">
<g id="graph0" class="graph" transform="scale(1 1) rotate(0) translate(4 167.5)">
<title>include/zklang/Dialect/ZML/IR/Types.h</title>
<!-- Node1 -->
<g id="Node000001" class="node">
<title>Node1</title>
<g id="a_Node000001"><a xlink:title=" ">
<polygon fill="#999999" stroke="#666666" points="752.75,-163.5 640.75,-163.5 640.75,-133 752.75,-133 752.75,-163.5"/>
<text text-anchor="start" x="648.75" y="-150" font-family="Helvetica,sans-Serif" font-size="10.00">include/zklang/Dialect</text>
<text text-anchor="middle" x="696.75" y="-138.75" font-family="Helvetica,sans-Serif" font-size="10.00">/ZML/IR/Types.h</text>
</a>
</g>
</g>
<!-- Node2 -->
<g id="Node000002" class="node">
<title>Node2</title>
<g id="a_Node000002"><a xlink:title=" ">
<polygon fill="#e0e0e0" stroke="#999999" points="309.5,-91.38 190,-91.38 190,-72.12 309.5,-72.12 309.5,-91.38"/>
<text text-anchor="middle" x="249.75" y="-77.88" font-family="Helvetica,sans-Serif" font-size="10.00">llvm/ADT/TypeSwitch.h</text>
</a>
</g>
</g>
<!-- Node1&#45;&gt;Node2 -->
<g id="edge1_Node000001_Node000002" class="edge">
<title>Node1&#45;&gt;Node2</title>
<g id="a_edge1_Node000001_Node000002"><a xlink:title=" ">
<path fill="none" stroke="#63b8ff" d="M640.52,-141.05C566.52,-132.59 432.49,-116.28 318.75,-97 313.45,-96.1 307.94,-95.09 302.44,-94.04"/>
<polygon fill="#63b8ff" stroke="#63b8ff" points="303.23,-90.62 292.74,-92.12 301.87,-97.49 303.23,-90.62"/>
</a>
</g>
</g>
<!-- Node3 -->
<g id="Node000003" class="node">
<title>Node3</title>
<g id="a_Node000003"><a xlink:title=" ">
<polygon fill="#e0e0e0" stroke="#999999" points="437.62,-91.38 327.88,-91.38 327.88,-72.12 437.62,-72.12 437.62,-91.38"/>
<text text-anchor="middle" x="382.75" y="-77.88" font-family="Helvetica,sans-Serif" font-size="10.00">mlir/IR/BuiltinTypes.h</text>
</a>
</g>
</g>
<!-- Node1&#45;&gt;Node3 -->
<g id="edge2_Node000001_Node000003" class="edge">
<title>Node1&#45;&gt;Node3</title>
<g id="a_edge2_Node000001_Node000003"><a xlink:title=" ">
<path fill="none" stroke="#63b8ff" d="M640.58,-136.31C589.87,-126.34 513.23,-111.08 446.75,-97 442.67,-96.14 438.44,-95.23 434.2,-94.3"/>
<polygon fill="#63b8ff" stroke="#63b8ff" points="435,-90.9 424.49,-92.17 433.5,-97.73 435,-90.9"/>
</a>
</g>
</g>
<!-- Node4 -->
<g id="Node000004" class="node">
<title>Node4</title>
<g id="a_Node000004"><a xlink:title=" ">
<polygon fill="#e0e0e0" stroke="#999999" points="568.12,-91.38 455.38,-91.38 455.38,-72.12 568.12,-72.12 568.12,-91.38"/>
<text text-anchor="middle" x="511.75" y="-77.88" font-family="Helvetica,sans-Serif" font-size="10.00">mlir/IR/SymbolTable.h</text>
</a>
</g>
</g>
<!-- Node1&#45;&gt;Node4 -->
<g id="edge3_Node000001_Node000004" class="edge">
<title>Node1&#45;&gt;Node4</title>
<g id="a_edge3_Node000001_Node000004"><a xlink:title=" ">
<path fill="none" stroke="#63b8ff" d="M654.77,-132.61C622.77,-121.46 579.14,-106.25 548.51,-95.57"/>
<polygon fill="#63b8ff" stroke="#63b8ff" points="549.89,-92.34 539.29,-92.35 547.58,-98.95 549.89,-92.34"/>
</a>
</g>
</g>
<!-- Node5 -->
<g id="Node000005" class="node">
<title>Node5</title>
<g id="a_Node000005"><a xlink:title=" ">
<polygon fill="#e0e0e0" stroke="#999999" points="669.12,-91.38 586.38,-91.38 586.38,-72.12 669.12,-72.12 669.12,-91.38"/>
<text text-anchor="middle" x="627.75" y="-77.88" font-family="Helvetica,sans-Serif" font-size="10.00">mlir/IR/Types.h</text>
</a>
</g>
</g>
<!-- Node1&#45;&gt;Node5 -->
<g id="edge4_Node000001_Node000005" class="edge">
<title>Node1&#45;&gt;Node5</title>
<g id="a_edge4_Node000001_Node000005"><a xlink:title=" ">
<path fill="none" stroke="#63b8ff" d="M681.09,-132.61C670.53,-122.74 656.57,-109.69 645.58,-99.42"/>
<polygon fill="#63b8ff" stroke="#63b8ff" points="647.99,-96.88 638.29,-92.61 643.21,-101.99 647.99,-96.88"/>
</a>
</g>
</g>
<!-- Node6 -->
<g id="Node000006" class="node">
<title>Node6</title>
<g id="a_Node000006"><a xlink:title=" ">
<polygon fill="#e0e0e0" stroke="#999999" points="131.5,-30.5 0,-30.5 0,0 131.5,0 131.5,-30.5"/>
<text text-anchor="start" x="8" y="-17" font-family="Helvetica,sans-Serif" font-size="10.00">mlir/Interfaces/DataLayout</text>
<text text-anchor="middle" x="65.75" y="-5.75" font-family="Helvetica,sans-Serif" font-size="10.00">Interfaces.h</text>
</a>
</g>
</g>
<!-- Node1&#45;&gt;Node6 -->
<g id="edge5_Node000001_Node000006" class="edge">
<title>Node1&#45;&gt;Node6</title>
<g id="a_edge5_Node000001_Node000006"><a xlink:title=" ">
<path fill="none" stroke="#63b8ff" d="M698.03,-132.69C698.77,-114.19 696.86,-82.71 677.75,-66.5 634.19,-29.56 238.11,-37.27 143.25,-30.35"/>
<polygon fill="#63b8ff" stroke="#63b8ff" points="143.73,-26.88 133.44,-29.42 143.06,-33.85 143.73,-26.88"/>
</a>
</g>
</g>
<!-- Node7 -->
<g id="Node000007" class="node">
<title>Node7</title>
<g id="a_Node000007"><a xlink:title=" ">
<polygon fill="#e0e0e0" stroke="#999999" points="858.62,-97 724.88,-97 724.88,-66.5 858.62,-66.5 858.62,-97"/>
<text text-anchor="start" x="732.88" y="-83.5" font-family="Helvetica,sans-Serif" font-size="10.00">mlir/Interfaces/MemorySlot</text>
<text text-anchor="middle" x="791.75" y="-72.25" font-family="Helvetica,sans-Serif" font-size="10.00">Interfaces.h</text>
</a>
</g>
</g>
<!-- Node1&#45;&gt;Node7 -->
<g id="edge6_Node000001_Node000007" class="edge">
<title>Node1&#45;&gt;Node7</title>
<g id="a_edge6_Node000001_Node000007"><a xlink:title=" ">
<path fill="none" stroke="#63b8ff" d="M718.31,-132.61C730.94,-124.04 747.1,-113.06 761.05,-103.59"/>
<polygon fill="#63b8ff" stroke="#63b8ff" points="762.72,-106.69 769.03,-98.18 758.79,-100.9 762.72,-106.69"/>
</a>
</g>
</g>
<!-- Node8 -->
<g id="Node000008" class="node">
<title>Node8</title>
<g id="a_Node000008"><a xlink:href="_op_interfaces_8h.html" target="_top" xlink:title=" ">
<polygon fill="white" stroke="#666666" points="977.12,-97 876.38,-97 876.38,-66.5 977.12,-66.5 977.12,-97"/>
<text text-anchor="start" x="884.38" y="-83.5" font-family="Helvetica,sans-Serif" font-size="10.00">zklang/Dialect/ZML</text>
<text text-anchor="middle" x="926.75" y="-72.25" font-family="Helvetica,sans-Serif" font-size="10.00">/IR/OpInterfaces.h</text>
</a>
</g>
</g>
<!-- Node1&#45;&gt;Node8 -->
<g id="edge7_Node000001_Node000008" class="edge">
<title>Node1&#45;&gt;Node8</title>
<g id="a_edge7_Node000001_Node000008"><a xlink:title=" ">
<path fill="none" stroke="#63b8ff" d="M749.23,-132.53C783.71,-122.86 828.97,-110.17 865.16,-100.02"/>
<polygon fill="#63b8ff" stroke="#63b8ff" points="865.94,-103.44 874.62,-97.37 864.05,-96.7 865.94,-103.44"/>
</a>
</g>
</g>
<!-- Node23 -->
<g id="Node000023" class="node">
<title>Node23</title>
<g id="a_Node000023"><a xlink:href="_ops_8h_8inc.html" target="_top" xlink:title=" ">
<polygon fill="white" stroke="#666666" points="1096.12,-97 995.38,-97 995.38,-66.5 1096.12,-66.5 1096.12,-97"/>
<text text-anchor="start" x="1003.38" y="-83.5" font-family="Helvetica,sans-Serif" font-size="10.00">zklang/Dialect/ZML</text>
<text text-anchor="middle" x="1045.75" y="-72.25" font-family="Helvetica,sans-Serif" font-size="10.00">/IR/Ops.h.inc</text>
</a>
</g>
</g>
<!-- Node1&#45;&gt;Node23 -->
<g id="edge23_Node000001_Node000023" class="edge">
<title>Node1&#45;&gt;Node23</title>
<g id="a_edge23_Node000001_Node000023"><a xlink:title=" ">
<path fill="none" stroke="#63b8ff" d="M753.16,-138.49C809.15,-129.55 897.68,-114.8 984,-97.28"/>
<polygon fill="#63b8ff" stroke="#63b8ff" points="984.48,-100.76 993.58,-95.32 983.08,-93.9 984.48,-100.76"/>
</a>
</g>
</g>
<!-- Node24 -->
<g id="Node000024" class="node">
<title>Node24</title>
<g id="a_Node000024"><a xlink:href="_types_8h_8inc.html" target="_top" xlink:title=" ">
<polygon fill="white" stroke="#666666" points="1215.12,-97 1114.38,-97 1114.38,-66.5 1215.12,-66.5 1215.12,-97"/>
<text text-anchor="start" x="1122.38" y="-83.5" font-family="Helvetica,sans-Serif" font-size="10.00">zklang/Dialect/ZML</text>
<text text-anchor="middle" x="1164.75" y="-72.25" font-family="Helvetica,sans-Serif" font-size="10.00">/IR/Types.h.inc</text>
</a>
</g>
</g>
<!-- Node1&#45;&gt;Node24 -->
<g id="edge24_Node000001_Node000024" class="edge">
<title>Node1&#45;&gt;Node24</title>
<g id="a_edge24_Node000001_Node000024"><a xlink:title=" ">
<path fill="none" stroke="#63b8ff" d="M753.14,-142.3C829.98,-135.11 972.03,-120.25 1103.07,-97.16"/>
<polygon fill="#63b8ff" stroke="#63b8ff" points="1103.37,-100.67 1112.6,-95.46 1102.14,-93.77 1103.37,-100.67"/>
</a>
</g>
</g>
<!-- Node8&#45;&gt;Node6 -->
<g id="edge18_Node000008_Node000006" class="edge">
<title>Node8&#45;&gt;Node6</title>
<g id="a_edge18_Node000008_Node000006"><a xlink:title=" ">
<path fill="none" stroke="#63b8ff" d="M876.02,-67.86C873.23,-67.35 870.46,-66.89 867.75,-66.5 551.15,-20.84 463.94,-67.71 142.95,-30.63"/>
<polygon fill="#63b8ff" stroke="#63b8ff" points="143.77,-27.21 133.43,-29.51 142.95,-34.16 143.77,-27.21"/>
</a>
</g>
</g>
<!-- Node9 -->
<g id="Node000009" class="node">
<title>Node9</title>
<g id="a_Node000009"><a xlink:title=" ">
<polygon fill="#e0e0e0" stroke="#999999" points="257.5,-24.88 150,-24.88 150,-5.63 257.5,-5.63 257.5,-24.88"/>
<text text-anchor="middle" x="203.75" y="-11.38" font-family="Helvetica,sans-Serif" font-size="10.00">llvm/ADT/ArrayRef.h</text>
</a>
</g>
</g>
<!-- Node8&#45;&gt;Node9 -->
<g id="edge8_Node000008_Node000009" class="edge">
<title>Node8&#45;&gt;Node9</title>
<g id="a_edge8_Node000008_Node000009"><a xlink:title=" ">
<path fill="none" stroke="#63b8ff" d="M876.01,-67.89C873.23,-67.37 870.46,-66.91 867.75,-66.5 603.1,-26.93 531.68,-68.14 266.75,-30.5 261.41,-29.74 255.85,-28.76 250.35,-27.68"/>
<polygon fill="#63b8ff" stroke="#63b8ff" points="251.2,-24.28 240.69,-25.64 249.76,-31.13 251.2,-24.28"/>
</a>
</g>
</g>
<!-- Node10 -->
<g id="Node000010" class="node">
<title>Node10</title>
<g id="a_Node000010"><a xlink:title=" ">
<polygon fill="#e0e0e0" stroke="#999999" points="396.25,-24.88 275.25,-24.88 275.25,-5.63 396.25,-5.63 396.25,-24.88"/>
<text text-anchor="middle" x="335.75" y="-11.38" font-family="Helvetica,sans-Serif" font-size="10.00">llvm/ADT/SmallVector.h</text>
</a>
</g>
</g>
<!-- Node8&#45;&gt;Node10 -->
<g id="edge9_Node000008_Node000010" class="edge">
<title>Node8&#45;&gt;Node10</title>
<g id="a_edge9_Node000008_Node000010"><a xlink:title=" ">
<path fill="none" stroke="#63b8ff" d="M876,-67.95C873.22,-67.42 870.46,-66.93 867.75,-66.5 663.9,-34.17 609.11,-59.43 404.75,-30.5 398.77,-29.65 392.53,-28.6 386.35,-27.46"/>
<polygon fill="#63b8ff" stroke="#63b8ff" points="387.34,-24.09 376.86,-25.61 386,-30.96 387.34,-24.09"/>
</a>
</g>
</g>
<!-- Node11 -->
<g id="Node000011" class="node">
<title>Node11</title>
<g id="a_Node000011"><a xlink:title=" ">
<polygon fill="#e0e0e0" stroke="#999999" points="523.62,-24.88 413.88,-24.88 413.88,-5.63 523.62,-5.63 523.62,-24.88"/>
<text text-anchor="middle" x="468.75" y="-11.38" font-family="Helvetica,sans-Serif" font-size="10.00">llvm/ADT/StringRef.h</text>
</a>
</g>
</g>
<!-- Node8&#45;&gt;Node11 -->
<g id="edge10_Node000008_Node000011" class="edge">
<title>Node8&#45;&gt;Node11</title>
<g id="a_edge10_Node000008_Node000011"><a xlink:title=" ">
<path fill="none" stroke="#63b8ff" d="M875.99,-68.05C873.21,-67.49 870.45,-66.97 867.75,-66.5 720.21,-40.87 680.51,-54.81 532.75,-30.5 527.75,-29.68 522.55,-28.71 517.38,-27.67"/>
<polygon fill="#63b8ff" stroke="#63b8ff" points="518.16,-24.26 507.66,-25.63 516.73,-31.11 518.16,-24.26"/>
</a>
</g>
</g>
<!-- Node12 -->
<g id="Node000012" class="node">
<title>Node12</title>
<g id="a_Node000012"><a xlink:title=" ">
<polygon fill="#e0e0e0" stroke="#999999" points="674.25,-30.5 541.25,-30.5 541.25,0 674.25,0 674.25,-30.5"/>
<text text-anchor="start" x="549.25" y="-17" font-family="Helvetica,sans-Serif" font-size="10.00">mlir/Bytecode/BytecodeOp</text>
<text text-anchor="middle" x="607.75" y="-5.75" font-family="Helvetica,sans-Serif" font-size="10.00">Interface.h</text>
</a>
</g>
</g>
<!-- Node8&#45;&gt;Node12 -->
<g id="edge11_Node000008_Node000012" class="edge">
<title>Node8&#45;&gt;Node12</title>
<g id="a_edge11_Node000008_Node000012"><a xlink:title=" ">
<path fill="none" stroke="#63b8ff" d="M875.94,-68.32C873.17,-67.69 870.43,-67.08 867.75,-66.5 850.05,-62.65 755.64,-44.51 685.65,-31.12"/>
<polygon fill="#63b8ff" stroke="#63b8ff" points="686.61,-27.74 676.13,-29.3 685.3,-34.61 686.61,-27.74"/>
</a>
</g>
</g>
<!-- Node13 -->
<g id="Node000013" class="node">
<title>Node13</title>
<g id="a_Node000013"><a xlink:title=" ">
<polygon fill="#e0e0e0" stroke="#999999" points="795.62,-30.5 691.88,-30.5 691.88,0 795.62,0 795.62,-30.5"/>
<text text-anchor="start" x="699.88" y="-17" font-family="Helvetica,sans-Serif" font-size="10.00">mlir/Dialect/Func/IR</text>
<text text-anchor="middle" x="743.75" y="-5.75" font-family="Helvetica,sans-Serif" font-size="10.00">/FuncOps.h</text>
</a>
</g>
</g>
<!-- Node8&#45;&gt;Node13 -->
<g id="edge12_Node000008_Node000013" class="edge">
<title>Node8&#45;&gt;Node13</title>
<g id="a_edge12_Node000008_Node000013"><a xlink:title=" ">
<path fill="none" stroke="#63b8ff" d="M885.22,-66.11C858.76,-56.79 824.25,-44.62 795.94,-34.65"/>
<polygon fill="#63b8ff" stroke="#63b8ff" points="797.45,-31.47 786.86,-31.44 795.12,-38.07 797.45,-31.47"/>
</a>
</g>
</g>
<!-- Node14 -->
<g id="Node000014" class="node">
<title>Node14</title>
<g id="a_Node000014"><a xlink:title=" ">
<polygon fill="#e0e0e0" stroke="#999999" points="915.5,-24.88 814,-24.88 814,-5.63 915.5,-5.63 915.5,-24.88"/>
<text text-anchor="middle" x="864.75" y="-11.38" font-family="Helvetica,sans-Serif" font-size="10.00">mlir/IR/BuiltinOps.h</text>
</a>
</g>
</g>
<!-- Node8&#45;&gt;Node14 -->
<g id="edge13_Node000008_Node000014" class="edge">
<title>Node8&#45;&gt;Node14</title>
<g id="a_edge13_Node000008_Node000014"><a xlink:title=" ">
<path fill="none" stroke="#63b8ff" d="M912.68,-66.11C903.29,-56.34 890.9,-43.45 881.07,-33.23"/>
<polygon fill="#63b8ff" stroke="#63b8ff" points="883.73,-30.95 874.28,-26.16 878.69,-35.8 883.73,-30.95"/>
</a>
</g>
</g>
<!-- Node15 -->
<g id="Node000015" class="node">
<title>Node15</title>
<g id="a_Node000015"><a xlink:title=" ">
<polygon fill="#e0e0e0" stroke="#999999" points="1044,-24.88 933.5,-24.88 933.5,-5.63 1044,-5.63 1044,-24.88"/>
<text text-anchor="middle" x="988.75" y="-11.38" font-family="Helvetica,sans-Serif" font-size="10.00">mlir/IR/OpDefinition.h</text>
</a>
</g>
</g>
<!-- Node8&#45;&gt;Node15 -->
<g id="edge14_Node000008_Node000015" class="edge">
<title>Node8&#45;&gt;Node15</title>
<g id="a_edge14_Node000008_Node000015"><a xlink:title=" ">
<path fill="none" stroke="#63b8ff" d="M940.82,-66.11C950.21,-56.34 962.6,-43.45 972.43,-33.23"/>
<polygon fill="#63b8ff" stroke="#63b8ff" points="974.81,-35.8 979.22,-26.16 969.77,-30.95 974.81,-35.8"/>
</a>
</g>
</g>
<!-- Node16 -->
<g id="Node000016" class="node">
<title>Node16</title>
<g id="a_Node000016"><a xlink:title=" ">
<polygon fill="#e0e0e0" stroke="#999999" points="1197.75,-24.88 1061.75,-24.88 1061.75,-5.63 1197.75,-5.63 1197.75,-24.88"/>
<text text-anchor="middle" x="1129.75" y="-11.38" font-family="Helvetica,sans-Serif" font-size="10.00">mlir/IR/OpImplementation.h</text>
</a>
</g>
</g>
<!-- Node8&#45;&gt;Node16 -->
<g id="edge15_Node000008_Node000016" class="edge">
<title>Node8&#45;&gt;Node16</title>
<g id="a_edge15_Node000008_Node000016"><a xlink:title=" ">
<path fill="none" stroke="#63b8ff" d="M973.07,-66.03C1008.5,-54.78 1056.82,-39.42 1090.39,-28.76"/>
<polygon fill="#63b8ff" stroke="#63b8ff" points="1091.26,-32.15 1099.73,-25.79 1089.14,-25.48 1091.26,-32.15"/>
</a>
</g>
</g>
<!-- Node17 -->
<g id="Node000017" class="node">
<title>Node17</title>
<g id="a_Node000017"><a xlink:title=" ">
<polygon fill="#e0e0e0" stroke="#999999" points="1365.88,-24.88 1215.62,-24.88 1215.62,-5.63 1365.88,-5.63 1365.88,-24.88"/>
<text text-anchor="middle" x="1290.75" y="-11.38" font-family="Helvetica,sans-Serif" font-size="10.00">mlir/Interfaces/CallInterfaces.h</text>
</a>
</g>
</g>
<!-- Node8&#45;&gt;Node17 -->
<g id="edge16_Node000008_Node000017" class="edge">
<title>Node8&#45;&gt;Node17</title>
<g id="a_edge16_Node000008_Node000017"><a xlink:title=" ">
<path fill="none" stroke="#63b8ff" d="M977.43,-68.45C980.58,-67.76 983.71,-67.11 986.75,-66.5 1083.9,-47.04 1109.02,-46.79 1206.75,-30.5 1213.11,-29.44 1219.73,-28.33 1226.35,-27.21"/>
<polygon fill="#63b8ff" stroke="#63b8ff" points="1226.66,-30.71 1235.94,-25.59 1225.5,-23.81 1226.66,-30.71"/>
</a>
</g>
</g>
<!-- Node18 -->
<g id="Node000018" class="node">
<title>Node18</title>
<g id="a_Node000018"><a xlink:title=" ">
<polygon fill="#e0e0e0" stroke="#999999" points="1517.62,-30.5 1383.88,-30.5 1383.88,0 1517.62,0 1517.62,-30.5"/>
<text text-anchor="start" x="1391.88" y="-17" font-family="Helvetica,sans-Serif" font-size="10.00">mlir/Interfaces/ControlFlow</text>
<text text-anchor="middle" x="1450.75" y="-5.75" font-family="Helvetica,sans-Serif" font-size="10.00">Interfaces.h</text>
</a>
</g>
</g>
<!-- Node8&#45;&gt;Node18 -->
<g id="edge17_Node000008_Node000018" class="edge">
<title>Node8&#45;&gt;Node18</title>
<g id="a_edge17_Node000008_Node000018"><a xlink:title=" ">
<path fill="none" stroke="#63b8ff" d="M977.39,-68.19C980.55,-67.58 983.69,-67 986.75,-66.5 1154.06,-39.01 1201.26,-53.83 1372.48,-30.72"/>
<polygon fill="#63b8ff" stroke="#63b8ff" points="1372.74,-34.21 1382.17,-29.38 1371.79,-27.28 1372.74,-34.21"/>
</a>
</g>
</g>
<!-- Node19 -->
<g id="Node000019" class="node">
<title>Node19</title>
<g id="a_Node000019"><a xlink:title=" ">
<polygon fill="#e0e0e0" stroke="#999999" points="1654.12,-30.5 1535.38,-30.5 1535.38,0 1654.12,0 1654.12,-30.5"/>
<text text-anchor="start" x="1543.38" y="-17" font-family="Helvetica,sans-Serif" font-size="10.00">mlir/Interfaces/Function</text>
<text text-anchor="middle" x="1594.75" y="-5.75" font-family="Helvetica,sans-Serif" font-size="10.00">Interfaces.h</text>
</a>
</g>
</g>
<!-- Node8&#45;&gt;Node19 -->
<g id="edge19_Node000008_Node000019" class="edge">
<title>Node8&#45;&gt;Node19</title>
<g id="a_edge19_Node000008_Node000019"><a xlink:title=" ">
<path fill="none" stroke="#63b8ff" d="M977.37,-68.1C980.54,-67.51 983.68,-66.96 986.75,-66.5 1220.99,-31.13 1286.48,-62.27 1524.05,-30.74"/>
<polygon fill="#63b8ff" stroke="#63b8ff" points="1524.19,-34.25 1533.63,-29.44 1523.25,-27.31 1524.19,-34.25"/>
</a>
</g>
</g>
<!-- Node20 -->
<g id="Node000020" class="node">
<title>Node20</title>
<g id="a_Node000020"><a xlink:title=" ">
<polygon fill="#e0e0e0" stroke="#999999" points="1793.62,-30.5 1671.88,-30.5 1671.88,0 1793.62,0 1793.62,-30.5"/>
<text text-anchor="start" x="1679.88" y="-17" font-family="Helvetica,sans-Serif" font-size="10.00">mlir/Interfaces/InferType</text>
<text text-anchor="middle" x="1732.75" y="-5.75" font-family="Helvetica,sans-Serif" font-size="10.00">OpInterface.h</text>
</a>
</g>
</g>
<!-- Node8&#45;&gt;Node20 -->
<g id="edge20_Node000008_Node000020" class="edge">
<title>Node8&#45;&gt;Node20</title>
<g id="a_edge20_Node000008_Node000020"><a xlink:title=" ">
<path fill="none" stroke="#63b8ff" d="M977.37,-68.05C980.53,-67.47 983.68,-66.94 986.75,-66.5 1280.91,-24.09 1362.32,-67.53 1660.23,-30.68"/>
<polygon fill="#63b8ff" stroke="#63b8ff" points="1660.39,-34.19 1669.87,-29.47 1659.51,-27.24 1660.39,-34.19"/>
</a>
</g>
</g>
<!-- Node21 -->
<g id="Node000021" class="node">
<title>Node21</title>
<g id="a_Node000021"><a xlink:title=" ">
<polygon fill="#e0e0e0" stroke="#999999" points="1938.25,-30.5 1811.25,-30.5 1811.25,0 1938.25,0 1938.25,-30.5"/>
<text text-anchor="start" x="1819.25" y="-17" font-family="Helvetica,sans-Serif" font-size="10.00">mlir/Interfaces/SideEffect</text>
<text text-anchor="middle" x="1874.75" y="-5.75" font-family="Helvetica,sans-Serif" font-size="10.00">Interfaces.h</text>
</a>
</g>
</g>
<!-- Node8&#45;&gt;Node21 -->
<g id="edge21_Node000008_Node000021" class="edge">
<title>Node8&#45;&gt;Node21</title>
<g id="a_edge21_Node000008_Node000021"><a xlink:title=" ">
<path fill="none" stroke="#63b8ff" d="M977.36,-68.02C980.53,-67.44 983.67,-66.93 986.75,-66.5 1342.6,-16.85 1440.33,-72.7 1799.59,-30.76"/>
<polygon fill="#63b8ff" stroke="#63b8ff" points="1799.82,-34.25 1809.34,-29.6 1798.99,-27.3 1799.82,-34.25"/>
</a>
</g>
</g>
<!-- Node22 -->
<g id="Node000022" class="node">
<title>Node22</title>
<g id="a_Node000022"><a xlink:href="_op_interfaces_8h_8inc.html" target="_top" xlink:title=" ">
<polygon fill="white" stroke="#666666" points="2069.12,-30.5 1956.38,-30.5 1956.38,0 2069.12,0 2069.12,-30.5"/>
<text text-anchor="start" x="1964.38" y="-17" font-family="Helvetica,sans-Serif" font-size="10.00">zklang/Dialect/ZML</text>
<text text-anchor="middle" x="2012.75" y="-5.75" font-family="Helvetica,sans-Serif" font-size="10.00">/IR/OpInterfaces.h.inc</text>
</a>
</g>
</g>
<!-- Node8&#45;&gt;Node22 -->
<g id="edge22_Node000008_Node000022" class="edge">
<title>Node8&#45;&gt;Node22</title>
<g id="a_edge22_Node000008_Node000022"><a xlink:title=" ">
<path fill="none" stroke="#63b8ff" d="M977.36,-68C980.52,-67.43 983.67,-66.92 986.75,-66.5 1406.53,-9.35 1521.74,-83.16 1944.81,-30.71"/>
<polygon fill="#63b8ff" stroke="#63b8ff" points="1945.15,-34.2 1954.63,-29.47 1944.27,-27.25 1945.15,-34.2"/>
</a>
</g>
</g>
</g>
</svg>
