<?xml version="1.0" encoding="UTF-8" standalone="no"?>
<!DOCTYPE svg PUBLIC "-//W3C//DTD SVG 1.1//EN"
 "http://www.w3.org/Graphics/SVG/1.1/DTD/svg11.dtd">
<!-- Generated by graphviz version 12.2.1 (20241206.2353)
 -->
<!-- Title: include/zklang/Dialect/ZHL/Typing/TypeBindings.h Pages: 1 -->
<svg width="2174pt" height="371pt"
 viewBox="0.00 0.00 2174.15 371.00" xmlns="http://www.w3.org/2000/svg" xmlns:xlink="http://www.w3.org/1999/xlink">
<g id="graph0" class="graph" transform="scale(1 1) rotate(0) translate(4 367)">
<title>include/zklang/Dialect/ZHL/Typing/TypeBindings.h</title>
<!-- Node1 -->
<g id="Node000001" class="node">
<title>Node1</title>
<g id="a_Node000001"><a xlink:title=" ">
<polygon fill="#999999" stroke="#666666" points="1415.53,-363 1276.53,-363 1276.53,-332.5 1415.53,-332.5 1415.53,-363"/>
<text text-anchor="start" x="1284.53" y="-349.5" font-family="Helvetica,sans-Serif" font-size="10.00">include/zklang/Dialect</text>
<text text-anchor="middle" x="1346.03" y="-338.25" font-family="Helvetica,sans-Serif" font-size="10.00">/ZHL/Typing/TypeBindings.h</text>
</a>
</g>
</g>
<!-- Node2 -->
<g id="Node000002" class="node">
<title>Node2</title>
<g id="a_Node000002"><a xlink:title=" ">
<polygon fill="#e0e0e0" stroke="#999999" points="1745.15,-91.38 1696.9,-91.38 1696.9,-72.12 1745.15,-72.12 1745.15,-91.38"/>
<text text-anchor="middle" x="1721.03" y="-77.88" font-family="Helvetica,sans-Serif" font-size="10.00">cassert</text>
</a>
</g>
</g>
<!-- Node1&#45;&gt;Node2 -->
<g id="edge1_Node000001_Node000002" class="edge">
<title>Node1&#45;&gt;Node2</title>
<g id="a_edge1_Node000001_Node000002"><a xlink:title=" ">
<path fill="none" stroke="#63b8ff" d="M1415.7,-342.14C1504.71,-335.35 1653.11,-320.79 1702.03,-296.5 1739.6,-277.84 1752.9,-268.73 1769.03,-230 1787.99,-184.46 1755.12,-128.56 1734.97,-100.55"/>
<polygon fill="#63b8ff" stroke="#63b8ff" points="1737.94,-98.68 1729.15,-92.77 1732.34,-102.87 1737.94,-98.68"/>
</a>
</g>
</g>
<!-- Node3 -->
<g id="Node000003" class="node">
<title>Node3</title>
<g id="a_Node000003"><a xlink:title=" ">
<polygon fill="#e0e0e0" stroke="#999999" points="1127.65,-157.88 1082.4,-157.88 1082.4,-138.62 1127.65,-138.62 1127.65,-157.88"/>
<text text-anchor="middle" x="1105.03" y="-144.38" font-family="Helvetica,sans-Serif" font-size="10.00">cstdint</text>
</a>
</g>
</g>
<!-- Node1&#45;&gt;Node3 -->
<g id="edge2_Node000001_Node000003" class="edge">
<title>Node1&#45;&gt;Node3</title>
<g id="a_edge2_Node000001_Node000003"><a xlink:title=" ">
<path fill="none" stroke="#63b8ff" d="M1276.19,-341.86C1212.59,-335.77 1125.42,-322.79 1104.03,-296.5 1074.26,-259.91 1087.92,-199.57 1097.87,-168.73"/>
<polygon fill="#63b8ff" stroke="#63b8ff" points="1101.08,-170.15 1101.03,-159.56 1094.46,-167.87 1101.08,-170.15"/>
</a>
</g>
</g>
<!-- Node4 -->
<g id="Node000004" class="node">
<title>Node4</title>
<g id="a_Node000004"><a xlink:title=" ">
<polygon fill="#e0e0e0" stroke="#999999" points="2166.15,-290.88 2123.9,-290.88 2123.9,-271.62 2166.15,-271.62 2166.15,-290.88"/>
<text text-anchor="middle" x="2145.03" y="-277.38" font-family="Helvetica,sans-Serif" font-size="10.00">deque</text>
</a>
</g>
</g>
<!-- Node1&#45;&gt;Node4 -->
<g id="edge3_Node000001_Node000004" class="edge">
<title>Node1&#45;&gt;Node4</title>
<g id="a_edge3_Node000001_Node000004"><a xlink:title=" ">
<path fill="none" stroke="#63b8ff" d="M1415.9,-345.01C1578.65,-340.5 1979.11,-326.62 2110.03,-296.5 2111.79,-296.09 2113.58,-295.61 2115.37,-295.07"/>
<polygon fill="#63b8ff" stroke="#63b8ff" points="2116.46,-298.4 2124.71,-291.74 2114.11,-291.8 2116.46,-298.4"/>
</a>
</g>
</g>
<!-- Node5 -->
<g id="Node000005" class="node">
<title>Node5</title>
<g id="a_Node000005"><a xlink:title=" ">
<polygon fill="#e0e0e0" stroke="#999999" points="1629.4,-91.38 1516.65,-91.38 1516.65,-72.12 1629.4,-72.12 1629.4,-91.38"/>
<text text-anchor="middle" x="1573.03" y="-77.88" font-family="Helvetica,sans-Serif" font-size="10.00">llvm/ADT/StringMap.h</text>
</a>
</g>
</g>
<!-- Node1&#45;&gt;Node5 -->
<g id="edge4_Node000001_Node000005" class="edge">
<title>Node1&#45;&gt;Node5</title>
<g id="a_edge4_Node000001_Node000005"><a xlink:title=" ">
<path fill="none" stroke="#63b8ff" d="M1415.95,-343.8C1479.68,-339.15 1575.44,-327.21 1653.03,-296.5 1702.31,-276.99 1727.1,-276.78 1752.03,-230 1787.02,-164.34 1678.09,-116.71 1614.88,-95.32"/>
<polygon fill="#63b8ff" stroke="#63b8ff" points="1616.06,-92.03 1605.47,-92.23 1613.87,-98.68 1616.06,-92.03"/>
</a>
</g>
</g>
<!-- Node6 -->
<g id="Node000006" class="node">
<title>Node6</title>
<g id="a_Node000006"><a xlink:title=" ">
<polygon fill="#e0e0e0" stroke="#999999" points="1460.9,-91.38 1351.15,-91.38 1351.15,-72.12 1460.9,-72.12 1460.9,-91.38"/>
<text text-anchor="middle" x="1406.03" y="-77.88" font-family="Helvetica,sans-Serif" font-size="10.00">llvm/ADT/StringRef.h</text>
</a>
</g>
</g>
<!-- Node1&#45;&gt;Node6 -->
<g id="edge5_Node000001_Node000006" class="edge">
<title>Node1&#45;&gt;Node6</title>
<g id="a_edge5_Node000001_Node000006"><a xlink:title=" ">
<path fill="none" stroke="#63b8ff" d="M1415.98,-335.89C1517.26,-318.57 1696.83,-281.34 1735.03,-230 1743.12,-219.12 1744.03,-209.63 1735.03,-199.5 1689.68,-148.49 1482.24,-207.45 1430.03,-163.5 1412.48,-148.73 1407.43,-121.76 1406.14,-103.07"/>
<polygon fill="#63b8ff" stroke="#63b8ff" points="1409.65,-103.1 1405.8,-93.22 1402.65,-103.34 1409.65,-103.1"/>
</a>
</g>
</g>
<!-- Node7 -->
<g id="Node000007" class="node">
<title>Node7</title>
<g id="a_Node000007"><a xlink:title=" ">
<polygon fill="#e0e0e0" stroke="#999999" points="1873.28,-91.38 1762.78,-91.38 1762.78,-72.12 1873.28,-72.12 1873.28,-91.38"/>
<text text-anchor="middle" x="1818.03" y="-77.88" font-family="Helvetica,sans-Serif" font-size="10.00">llvm/Support/Debug.h</text>
</a>
</g>
</g>
<!-- Node1&#45;&gt;Node7 -->
<g id="edge6_Node000001_Node000007" class="edge">
<title>Node1&#45;&gt;Node7</title>
<g id="a_edge6_Node000001_Node000007"><a xlink:title=" ">
<path fill="none" stroke="#63b8ff" d="M1415.75,-344.51C1513.71,-340.25 1686.05,-328.36 1739.03,-296.5 1806.92,-255.68 1816.94,-147.95 1818.08,-102.95"/>
<polygon fill="#63b8ff" stroke="#63b8ff" points="1821.58,-103.13 1818.19,-93.09 1814.58,-103.06 1821.58,-103.13"/>
</a>
</g>
</g>
<!-- Node8 -->
<g id="Node000008" class="node">
<title>Node8</title>
<g id="a_Node000008"><a xlink:title=" ">
<polygon fill="#e0e0e0" stroke="#999999" points="1982.9,-91.38 1891.15,-91.38 1891.15,-72.12 1982.9,-72.12 1982.9,-91.38"/>
<text text-anchor="middle" x="1937.03" y="-77.88" font-family="Helvetica,sans-Serif" font-size="10.00">mlir/IR/Builders.h</text>
</a>
</g>
</g>
<!-- Node1&#45;&gt;Node8 -->
<g id="edge7_Node000001_Node000008" class="edge">
<title>Node1&#45;&gt;Node8</title>
<g id="a_edge7_Node000001_Node000008"><a xlink:title=" ">
<path fill="none" stroke="#63b8ff" d="M1415.63,-344.89C1519.74,-341.04 1710.1,-329.57 1769.03,-296.5 1851.6,-250.16 1907.92,-145.19 1928.43,-101.93"/>
<polygon fill="#63b8ff" stroke="#63b8ff" points="1931.51,-103.6 1932.53,-93.06 1925.16,-100.67 1931.51,-103.6"/>
</a>
</g>
</g>
<!-- Node9 -->
<g id="Node000009" class="node">
<title>Node9</title>
<g id="a_Node000009"><a xlink:title=" ">
<polygon fill="#e0e0e0" stroke="#999999" points="2109.15,-91.38 2000.9,-91.38 2000.9,-72.12 2109.15,-72.12 2109.15,-91.38"/>
<text text-anchor="middle" x="2055.03" y="-77.88" font-family="Helvetica,sans-Serif" font-size="10.00">mlir/IR/Diagnostics.h</text>
</a>
</g>
</g>
<!-- Node1&#45;&gt;Node9 -->
<g id="edge8_Node000001_Node000009" class="edge">
<title>Node1&#45;&gt;Node9</title>
<g id="a_edge8_Node000001_Node000009"><a xlink:title=" ">
<path fill="none" stroke="#63b8ff" d="M1415.89,-344.06C1526.19,-338.97 1735.12,-325.73 1803.03,-296.5 1910.09,-250.41 2005.94,-142.84 2040.94,-100.41"/>
<polygon fill="#63b8ff" stroke="#63b8ff" points="2043.44,-102.88 2047.03,-92.92 2038.01,-98.47 2043.44,-102.88"/>
</a>
</g>
</g>
<!-- Node10 -->
<g id="Node000010" class="node">
<title>Node10</title>
<g id="a_Node000010"><a xlink:title=" ">
<polygon fill="#e0e0e0" stroke="#999999" points="1294.65,-91.38 1201.4,-91.38 1201.4,-72.12 1294.65,-72.12 1294.65,-91.38"/>
<text text-anchor="middle" x="1248.03" y="-77.88" font-family="Helvetica,sans-Serif" font-size="10.00">mlir/IR/Location.h</text>
</a>
</g>
</g>
<!-- Node1&#45;&gt;Node10 -->
<g id="edge9_Node000001_Node000010" class="edge">
<title>Node1&#45;&gt;Node10</title>
<g id="a_edge9_Node000001_Node000010"><a xlink:title=" ">
<path fill="none" stroke="#63b8ff" d="M1318.8,-332.01C1305.41,-323.38 1290.22,-311.28 1281.03,-296.5 1242.45,-234.49 1243.44,-143.33 1246.15,-103.1"/>
<polygon fill="#63b8ff" stroke="#63b8ff" points="1249.63,-103.49 1246.93,-93.24 1242.65,-102.93 1249.63,-103.49"/>
</a>
</g>
</g>
<!-- Node11 -->
<g id="Node000011" class="node">
<title>Node11</title>
<g id="a_Node000011"><a xlink:title=" ">
<polygon fill="#e0e0e0" stroke="#999999" points="1068.28,-24.88 963.78,-24.88 963.78,-5.63 1068.28,-5.63 1068.28,-24.88"/>
<text text-anchor="middle" x="1016.03" y="-11.38" font-family="Helvetica,sans-Serif" font-size="10.00">mlir/Support/LLVM.h</text>
</a>
</g>
</g>
<!-- Node1&#45;&gt;Node11 -->
<g id="edge10_Node000001_Node000011" class="edge">
<title>Node1&#45;&gt;Node11</title>
<g id="a_edge10_Node000001_Node000011"><a xlink:title=" ">
<path fill="none" stroke="#63b8ff" d="M1276.26,-345.73C1221.01,-342.12 1143.66,-330.61 1085.03,-296.5 1044.22,-272.76 1016.03,-262.96 1016.03,-215.75 1016.03,-215.75 1016.03,-215.75 1016.03,-147.25 1016.03,-107.95 1016.03,-62.02 1016.03,-36.31"/>
<polygon fill="#63b8ff" stroke="#63b8ff" points="1019.53,-36.66 1016.03,-26.66 1012.53,-36.66 1019.53,-36.66"/>
</a>
</g>
</g>
<!-- Node12 -->
<g id="Node000012" class="node">
<title>Node12</title>
<g id="a_Node000012"><a xlink:title=" ">
<polygon fill="#e0e0e0" stroke="#999999" points="1183.53,-91.38 1044.53,-91.38 1044.53,-72.12 1183.53,-72.12 1183.53,-91.38"/>
<text text-anchor="middle" x="1114.03" y="-77.88" font-family="Helvetica,sans-Serif" font-size="10.00">mlir/Support/LogicalResult.h</text>
</a>
</g>
</g>
<!-- Node1&#45;&gt;Node12 -->
<g id="edge11_Node000001_Node000012" class="edge">
<title>Node1&#45;&gt;Node12</title>
<g id="a_edge11_Node000001_Node000012"><a xlink:title=" ">
<path fill="none" stroke="#63b8ff" d="M1314.74,-332.14C1297.93,-323.33 1277.54,-311.01 1262.03,-296.5 1196.93,-235.59 1144.19,-141.44 1123.48,-101.59"/>
<polygon fill="#63b8ff" stroke="#63b8ff" points="1126.66,-100.12 1118.99,-92.81 1120.43,-103.31 1126.66,-100.12"/>
</a>
</g>
</g>
<!-- Node13 -->
<g id="Node000013" class="node">
<title>Node13</title>
<g id="a_Node000013"><a xlink:href="_expr_8h.html" target="_top" xlink:title=" ">
<polygon fill="white" stroke="#666666" points="898.03,-230 798.03,-230 798.03,-199.5 898.03,-199.5 898.03,-230"/>
<text text-anchor="start" x="806.03" y="-216.5" font-family="Helvetica,sans-Serif" font-size="10.00">zklang/Dialect/ZHL</text>
<text text-anchor="middle" x="848.03" y="-205.25" font-family="Helvetica,sans-Serif" font-size="10.00">/Typing/Expr.h</text>
</a>
</g>
</g>
<!-- Node1&#45;&gt;Node13 -->
<g id="edge12_Node000001_Node000013" class="edge">
<title>Node1&#45;&gt;Node13</title>
<g id="a_edge12_Node000001_Node000013"><a xlink:title=" ">
<path fill="none" stroke="#63b8ff" d="M1276.26,-343.46C1205.64,-338.54 1094.02,-326.37 1002.03,-296.5 957.27,-281.97 909.92,-255.19 879.73,-236.47"/>
<polygon fill="#63b8ff" stroke="#63b8ff" points="881.79,-233.63 871.46,-231.27 878.06,-239.56 881.79,-233.63"/>
</a>
</g>
</g>
<!-- Node23 -->
<g id="Node000023" class="node">
<title>Node23</title>
<g id="a_Node000023"><a xlink:href="_frame_8h.html" target="_top" xlink:title=" ">
<polygon fill="white" stroke="#666666" points="393.03,-230 293.03,-230 293.03,-199.5 393.03,-199.5 393.03,-230"/>
<text text-anchor="start" x="301.03" y="-216.5" font-family="Helvetica,sans-Serif" font-size="10.00">zklang/Dialect/ZHL</text>
<text text-anchor="middle" x="343.03" y="-205.25" font-family="Helvetica,sans-Serif" font-size="10.00">/Typing/Frame.h</text>
</a>
</g>
</g>
<!-- Node1&#45;&gt;Node23 -->
<g id="edge34_Node000001_Node000023" class="edge">
<title>Node1&#45;&gt;Node23</title>
<g id="a_edge34_Node000001_Node000023"><a xlink:title=" ">
<path fill="none" stroke="#63b8ff" d="M1276.09,-338.72C1193.04,-329.1 1050.35,-312.29 928.03,-296.5 736.96,-271.83 511.21,-239.87 404.63,-224.61"/>
<polygon fill="#63b8ff" stroke="#63b8ff" points="405.35,-221.18 394.96,-223.23 404.36,-228.11 405.35,-221.18"/>
</a>
</g>
</g>
<!-- Node26 -->
<g id="Node000026" class="node">
<title>Node26</title>
<g id="a_Node000026"><a xlink:href="_frame_slot_8h.html" target="_top" xlink:title=" ">
<polygon fill="white" stroke="#666666" points="184.9,-97 81.15,-97 81.15,-66.5 184.9,-66.5 184.9,-97"/>
<text text-anchor="start" x="89.15" y="-83.5" font-family="Helvetica,sans-Serif" font-size="10.00">zklang/Dialect/ZHL</text>
<text text-anchor="middle" x="133.03" y="-72.25" font-family="Helvetica,sans-Serif" font-size="10.00">/Typing/FrameSlot.h</text>
</a>
</g>
</g>
<!-- Node1&#45;&gt;Node26 -->
<g id="edge46_Node000001_Node000026" class="edge">
<title>Node1&#45;&gt;Node26</title>
<g id="a_edge46_Node000001_Node000026"><a xlink:title=" ">
<path fill="none" stroke="#63b8ff" d="M1276.08,-345.11C1046.67,-338.98 319.41,-313.28 102.03,-230 46.26,-208.63 -24.34,-182.53 9.03,-133 22.92,-112.38 46.88,-100.22 70.05,-93.05"/>
<polygon fill="#63b8ff" stroke="#63b8ff" points="70.81,-96.47 79.5,-90.41 68.93,-89.72 70.81,-96.47"/>
</a>
</g>
</g>
<!-- Node29 -->
<g id="Node000029" class="node">
<title>Node29</title>
<g id="a_Node000029"><a xlink:href="_type_binding_8h.html" target="_top" xlink:title=" ">
<polygon fill="white" stroke="#666666" points="1402.03,-296.5 1290.03,-296.5 1290.03,-266 1402.03,-266 1402.03,-296.5"/>
<text text-anchor="start" x="1298.03" y="-283" font-family="Helvetica,sans-Serif" font-size="10.00">zklang/Dialect/ZHL</text>
<text text-anchor="middle" x="1346.03" y="-271.75" font-family="Helvetica,sans-Serif" font-size="10.00">/Typing/TypeBinding.h</text>
</a>
</g>
</g>
<!-- Node1&#45;&gt;Node29 -->
<g id="edge47_Node000001_Node000029" class="edge">
<title>Node1&#45;&gt;Node29</title>
<g id="a_edge47_Node000001_Node000029"><a xlink:title=" ">
<path fill="none" stroke="#63b8ff" d="M1346.03,-332.11C1346.03,-325.02 1346.03,-316.29 1346.03,-308.13"/>
<polygon fill="#63b8ff" stroke="#63b8ff" points="1349.53,-308.34 1346.03,-298.34 1342.53,-308.34 1349.53,-308.34"/>
</a>
</g>
</g>
<!-- Node13&#45;&gt;Node3 -->
<g id="edge14_Node000013_Node000003" class="edge">
<title>Node13&#45;&gt;Node3</title>
<g id="a_edge14_Node000013_Node000003"><a xlink:title=" ">
<path fill="none" stroke="#63b8ff" d="M898.37,-204.39C943.31,-195.52 1010.69,-180.99 1068.03,-163.5 1069.4,-163.08 1070.79,-162.64 1072.19,-162.17"/>
<polygon fill="#63b8ff" stroke="#63b8ff" points="1073.23,-165.52 1081.48,-158.87 1070.88,-158.93 1073.23,-165.52"/>
</a>
</g>
</g>
<!-- Node13&#45;&gt;Node11 -->
<g id="edge22_Node000013_Node000011" class="edge">
<title>Node13&#45;&gt;Node11</title>
<g id="a_edge22_Node000013_Node000011"><a xlink:title=" ">
<path fill="none" stroke="#63b8ff" d="M898.43,-200.28C919.47,-192.48 942.75,-180.71 959.03,-163.5 977.06,-144.44 999.99,-71.55 1010.42,-35.99"/>
<polygon fill="#63b8ff" stroke="#63b8ff" points="1013.73,-37.15 1013.14,-26.57 1007,-35.21 1013.73,-37.15"/>
</a>
</g>
</g>
<!-- Node13&#45;&gt;Node12 -->
<g id="edge23_Node000013_Node000012" class="edge">
<title>Node13&#45;&gt;Node12</title>
<g id="a_edge23_Node000013_Node000012"><a xlink:title=" ">
<path fill="none" stroke="#63b8ff" d="M898.25,-199.6C926.5,-190.82 962.02,-178.38 992.03,-163.5 1029.86,-144.75 1070.01,-116.29 1093.51,-98.65"/>
<polygon fill="#63b8ff" stroke="#63b8ff" points="1095.46,-101.56 1101.3,-92.73 1091.22,-95.99 1095.46,-101.56"/>
</a>
</g>
</g>
<!-- Node14 -->
<g id="Node000014" class="node">
<title>Node14</title>
<g id="a_Node000014"><a xlink:title=" ">
<polygon fill="#e0e0e0" stroke="#999999" points="824.15,-157.88 775.9,-157.88 775.9,-138.62 824.15,-138.62 824.15,-157.88"/>
<text text-anchor="middle" x="800.03" y="-144.38" font-family="Helvetica,sans-Serif" font-size="10.00">cstddef</text>
</a>
</g>
</g>
<!-- Node13&#45;&gt;Node14 -->
<g id="edge13_Node000013_Node000014" class="edge">
<title>Node13&#45;&gt;Node14</title>
<g id="a_edge13_Node000013_Node000014"><a xlink:title=" ">
<path fill="none" stroke="#63b8ff" d="M837.14,-199.11C830.08,-189.64 820.85,-177.23 813.36,-167.16"/>
<polygon fill="#63b8ff" stroke="#63b8ff" points="816.27,-165.22 807.5,-159.29 810.66,-169.4 816.27,-165.22"/>
</a>
</g>
</g>
<!-- Node15 -->
<g id="Node000015" class="node">
<title>Node15</title>
<g id="a_Node000015"><a xlink:title=" ">
<polygon fill="#e0e0e0" stroke="#999999" points="949.78,-157.88 842.28,-157.88 842.28,-138.62 949.78,-138.62 949.78,-157.88"/>
<text text-anchor="middle" x="896.03" y="-144.38" font-family="Helvetica,sans-Serif" font-size="10.00">llvm/ADT/ArrayRef.h</text>
</a>
</g>
</g>
<!-- Node13&#45;&gt;Node15 -->
<g id="edge15_Node000013_Node000015" class="edge">
<title>Node13&#45;&gt;Node15</title>
<g id="a_edge15_Node000013_Node000015"><a xlink:title=" ">
<path fill="none" stroke="#63b8ff" d="M858.92,-199.11C865.97,-189.64 875.2,-177.23 882.7,-167.16"/>
<polygon fill="#63b8ff" stroke="#63b8ff" points="885.4,-169.4 888.56,-159.29 879.78,-165.22 885.4,-169.4"/>
</a>
</g>
</g>
<!-- Node16 -->
<g id="Node000016" class="node">
<title>Node16</title>
<g id="a_Node000016"><a xlink:title=" ">
<polygon fill="#e0e0e0" stroke="#999999" points="668.4,-24.88 549.65,-24.88 549.65,-5.63 668.4,-5.63 668.4,-24.88"/>
<text text-anchor="middle" x="609.03" y="-11.38" font-family="Helvetica,sans-Serif" font-size="10.00">llvm/ADT/SmallString.h</text>
</a>
</g>
</g>
<!-- Node13&#45;&gt;Node16 -->
<g id="edge16_Node000013_Node000016" class="edge">
<title>Node13&#45;&gt;Node16</title>
<g id="a_edge16_Node000013_Node000016"><a xlink:title=" ">
<path fill="none" stroke="#63b8ff" d="M797.87,-207.14C745.5,-199.24 668.09,-184.4 647.03,-163.5 612.44,-129.17 607.97,-67.8 608.17,-36.23"/>
<polygon fill="#63b8ff" stroke="#63b8ff" points="611.66,-36.62 608.42,-26.53 604.67,-36.44 611.66,-36.62"/>
</a>
</g>
</g>
<!-- Node17 -->
<g id="Node000017" class="node">
<title>Node17</title>
<g id="a_Node000017"><a xlink:title=" ">
<polygon fill="#e0e0e0" stroke="#999999" points="599.53,-157.88 490.53,-157.88 490.53,-138.62 599.53,-138.62 599.53,-157.88"/>
<text text-anchor="middle" x="545.03" y="-144.38" font-family="Helvetica,sans-Serif" font-size="10.00">llvm/ADT/StringSet.h</text>
</a>
</g>
</g>
<!-- Node13&#45;&gt;Node17 -->
<g id="edge17_Node000013_Node000017" class="edge">
<title>Node13&#45;&gt;Node17</title>
<g id="a_edge17_Node000013_Node000017"><a xlink:title=" ">
<path fill="none" stroke="#63b8ff" d="M797.65,-203.03C742.71,-191.33 655.11,-172.68 598.84,-160.71"/>
<polygon fill="#63b8ff" stroke="#63b8ff" points="599.67,-157.3 589.16,-158.64 598.21,-164.15 599.67,-157.3"/>
</a>
</g>
</g>
<!-- Node18 -->
<g id="Node000018" class="node">
<title>Node18</title>
<g id="a_Node000018"><a xlink:title=" ">
<polygon fill="#e0e0e0" stroke="#999999" points="374.65,-91.38 257.4,-91.38 257.4,-72.12 374.65,-72.12 374.65,-91.38"/>
<text text-anchor="middle" x="316.03" y="-77.88" font-family="Helvetica,sans-Serif" font-size="10.00">llvm/ADT/simple_ilist.h</text>
</a>
</g>
</g>
<!-- Node13&#45;&gt;Node18 -->
<g id="edge18_Node000013_Node000018" class="edge">
<title>Node13&#45;&gt;Node18</title>
<g id="a_edge18_Node000013_Node000018"><a xlink:title=" ">
<path fill="none" stroke="#63b8ff" d="M797.63,-210.49C704.84,-203.99 510.73,-187.89 448.03,-163.5 426.19,-155.01 424.81,-145.55 405.03,-133 384.83,-120.19 361.23,-106.93 343.41,-97.26"/>
<polygon fill="#63b8ff" stroke="#63b8ff" points="345.19,-94.25 334.73,-92.59 341.88,-100.41 345.19,-94.25"/>
</a>
</g>
</g>
<!-- Node19 -->
<g id="Node000019" class="node">
<title>Node19</title>
<g id="a_Node000019"><a xlink:title=" ">
<polygon fill="#e0e0e0" stroke="#999999" points="395.65,-157.88 344.4,-157.88 344.4,-138.62 395.65,-138.62 395.65,-157.88"/>
<text text-anchor="middle" x="370.03" y="-144.38" font-family="Helvetica,sans-Serif" font-size="10.00">memory</text>
</a>
</g>
</g>
<!-- Node13&#45;&gt;Node19 -->
<g id="edge19_Node000013_Node000019" class="edge">
<title>Node13&#45;&gt;Node19</title>
<g id="a_edge19_Node000013_Node000019"><a xlink:title=" ">
<path fill="none" stroke="#63b8ff" d="M797.65,-209.43C698.8,-200.7 482.72,-180.38 410.03,-163.5 407.87,-163 405.67,-162.42 403.47,-161.79"/>
<polygon fill="#63b8ff" stroke="#63b8ff" points="404.64,-158.49 394.05,-158.77 402.5,-165.15 404.64,-158.49"/>
</a>
</g>
</g>
<!-- Node20 -->
<g id="Node000020" class="node">
<title>Node20</title>
<g id="a_Node000020"><a xlink:title=" ">
<polygon fill="#e0e0e0" stroke="#999999" points="757.78,-157.88 656.28,-157.88 656.28,-138.62 757.78,-138.62 757.78,-157.88"/>
<text text-anchor="middle" x="707.03" y="-144.38" font-family="Helvetica,sans-Serif" font-size="10.00">mlir/IR/AffineExpr.h</text>
</a>
</g>
</g>
<!-- Node13&#45;&gt;Node20 -->
<g id="edge20_Node000013_Node000020" class="edge">
<title>Node13&#45;&gt;Node20</title>
<g id="a_edge20_Node000013_Node000020"><a xlink:title=" ">
<path fill="none" stroke="#63b8ff" d="M816.03,-199.11C792.32,-188.27 760.23,-173.59 737.02,-162.97"/>
<polygon fill="#63b8ff" stroke="#63b8ff" points="738.65,-159.87 728.1,-158.89 735.74,-166.23 738.65,-159.87"/>
</a>
</g>
</g>
<!-- Node21 -->
<g id="Node000021" class="node">
<title>Node21</title>
<g id="a_Node000021"><a xlink:title=" ">
<polygon fill="#e0e0e0" stroke="#999999" points="439.28,-24.88 340.78,-24.88 340.78,-5.63 439.28,-5.63 439.28,-24.88"/>
<text text-anchor="middle" x="390.03" y="-11.38" font-family="Helvetica,sans-Serif" font-size="10.00">mlir/IR/Attributes.h</text>
</a>
</g>
</g>
<!-- Node13&#45;&gt;Node21 -->
<g id="edge21_Node000013_Node000021" class="edge">
<title>Node13&#45;&gt;Node21</title>
<g id="a_edge21_Node000013_Node000021"><a xlink:title=" ">
<path fill="none" stroke="#63b8ff" d="M797.75,-209.26C703.44,-200.49 507.11,-180.46 481.03,-163.5 433.89,-132.84 407.05,-68.35 396.01,-35.85"/>
<polygon fill="#63b8ff" stroke="#63b8ff" points="399.41,-34.98 393.01,-26.54 392.75,-37.13 399.41,-34.98"/>
</a>
</g>
</g>
<!-- Node22 -->
<g id="Node000022" class="node">
<title>Node22</title>
<g id="a_Node000022"><a xlink:href="_params_8h.html" target="_top" xlink:title=" ">
<polygon fill="white" stroke="#666666" points="1539.03,-163.5 1439.03,-163.5 1439.03,-133 1539.03,-133 1539.03,-163.5"/>
<text text-anchor="start" x="1447.03" y="-150" font-family="Helvetica,sans-Serif" font-size="10.00">zklang/Dialect/ZHL</text>
<text text-anchor="middle" x="1489.03" y="-138.75" font-family="Helvetica,sans-Serif" font-size="10.00">/Typing/Params.h</text>
</a>
</g>
</g>
<!-- Node13&#45;&gt;Node22 -->
<g id="edge24_Node000013_Node000022" class="edge">
<title>Node13&#45;&gt;Node22</title>
<g id="a_edge24_Node000013_Node000022"><a xlink:title=" ">
<path fill="none" stroke="#63b8ff" d="M898.33,-208.69C1014.52,-197 1301.3,-168.14 1427.61,-155.43"/>
<polygon fill="#63b8ff" stroke="#63b8ff" points="1427.86,-158.92 1437.46,-154.44 1427.16,-151.96 1427.86,-158.92"/>
</a>
</g>
</g>
<!-- Node22&#45;&gt;Node2 -->
<g id="edge25_Node000022_Node000002" class="edge">
<title>Node22&#45;&gt;Node2</title>
<g id="a_edge25_Node000022_Node000002"><a xlink:title=" ">
<path fill="none" stroke="#63b8ff" d="M1539.37,-133.25C1583.42,-121.01 1646.32,-103.52 1685.36,-92.67"/>
<polygon fill="#63b8ff" stroke="#63b8ff" points="1686.27,-96.05 1694.97,-90 1684.4,-89.3 1686.27,-96.05"/>
</a>
</g>
</g>
<!-- Node22&#45;&gt;Node5 -->
<g id="edge26_Node000022_Node000005" class="edge">
<title>Node22&#45;&gt;Node5</title>
<g id="a_edge26_Node000022_Node000005"><a xlink:title=" ">
<path fill="none" stroke="#63b8ff" d="M1508.09,-132.61C1521.33,-122.44 1538.96,-108.91 1552.51,-98.5"/>
<polygon fill="#63b8ff" stroke="#63b8ff" points="1554.54,-101.36 1560.34,-92.49 1550.27,-95.81 1554.54,-101.36"/>
</a>
</g>
</g>
<!-- Node22&#45;&gt;Node6 -->
<g id="edge27_Node000022_Node000006" class="edge">
<title>Node22&#45;&gt;Node6</title>
<g id="a_edge27_Node000022_Node000006"><a xlink:title=" ">
<path fill="none" stroke="#63b8ff" d="M1470.19,-132.61C1457.11,-122.44 1439.68,-108.91 1426.3,-98.5"/>
<polygon fill="#63b8ff" stroke="#63b8ff" points="1428.62,-95.87 1418.58,-92.5 1424.32,-101.4 1428.62,-95.87"/>
</a>
</g>
</g>
<!-- Node22&#45;&gt;Node7 -->
<g id="edge28_Node000022_Node000007" class="edge">
<title>Node22&#45;&gt;Node7</title>
<g id="a_edge28_Node000022_Node000007"><a xlink:title=" ">
<path fill="none" stroke="#63b8ff" d="M1539.43,-138.18C1592.81,-128.47 1679.5,-112.36 1754.03,-97 1758.3,-96.12 1762.72,-95.19 1767.15,-94.23"/>
<polygon fill="#63b8ff" stroke="#63b8ff" points="1767.62,-97.71 1776.65,-92.16 1766.13,-90.87 1767.62,-97.71"/>
</a>
</g>
</g>
<!-- Node22&#45;&gt;Node8 -->
<g id="edge29_Node000022_Node000008" class="edge">
<title>Node22&#45;&gt;Node8</title>
<g id="a_edge29_Node000022_Node000008"><a xlink:title=" ">
<path fill="none" stroke="#63b8ff" d="M1539.34,-141.62C1630.02,-131.34 1817.44,-109.44 1882.03,-97 1885.82,-96.27 1889.75,-95.43 1893.67,-94.53"/>
<polygon fill="#63b8ff" stroke="#63b8ff" points="1894.24,-97.99 1903.14,-92.23 1892.59,-91.19 1894.24,-97.99"/>
</a>
</g>
</g>
<!-- Node22&#45;&gt;Node9 -->
<g id="edge30_Node000022_Node000009" class="edge">
<title>Node22&#45;&gt;Node9</title>
<g id="a_edge30_Node000022_Node000009"><a xlink:title=" ">
<path fill="none" stroke="#63b8ff" d="M1539.28,-141.36C1562.35,-138.71 1590.07,-135.6 1615.03,-133 1782.44,-115.54 1825.83,-123.62 1992.03,-97 1997.02,-96.2 2002.21,-95.24 2007.37,-94.2"/>
<polygon fill="#63b8ff" stroke="#63b8ff" points="2008,-97.65 2017.05,-92.15 2006.55,-90.8 2008,-97.65"/>
</a>
</g>
</g>
<!-- Node22&#45;&gt;Node10 -->
<g id="edge31_Node000022_Node000010" class="edge">
<title>Node22&#45;&gt;Node10</title>
<g id="a_edge31_Node000022_Node000010"><a xlink:title=" ">
<path fill="none" stroke="#63b8ff" d="M1438.8,-133.81C1395.71,-122.27 1334.19,-105.81 1292.77,-94.72"/>
<polygon fill="#63b8ff" stroke="#63b8ff" points="1293.94,-91.41 1283.37,-92.21 1292.13,-98.18 1293.94,-91.41"/>
</a>
</g>
</g>
<!-- Node22&#45;&gt;Node11 -->
<g id="edge32_Node000022_Node000011" class="edge">
<title>Node22&#45;&gt;Node11</title>
<g id="a_edge32_Node000022_Node000011"><a xlink:title=" ">
<path fill="none" stroke="#63b8ff" d="M1490.2,-132.82C1490.82,-114.45 1488.78,-83.12 1470.03,-66.5 1441.41,-41.15 1198.32,-25.48 1080.09,-19.29"/>
<polygon fill="#63b8ff" stroke="#63b8ff" points="1080.39,-15.8 1070.22,-18.78 1080.03,-22.79 1080.39,-15.8"/>
</a>
</g>
</g>
<!-- Node22&#45;&gt;Node12 -->
<g id="edge33_Node000022_Node000012" class="edge">
<title>Node22&#45;&gt;Node12</title>
<g id="a_edge33_Node000022_Node000012"><a xlink:title=" ">
<path fill="none" stroke="#63b8ff" d="M1438.54,-138.92C1379.42,-129.11 1278.55,-112.22 1192.03,-97 1186.18,-95.97 1180.09,-94.88 1174,-93.79"/>
<polygon fill="#63b8ff" stroke="#63b8ff" points="1175.06,-90.42 1164.6,-92.09 1173.81,-97.31 1175.06,-90.42"/>
</a>
</g>
</g>
<!-- Node23&#45;&gt;Node18 -->
<g id="edge35_Node000023_Node000018" class="edge">
<title>Node23&#45;&gt;Node18</title>
<g id="a_edge35_Node000023_Node000018"><a xlink:title=" ">
<path fill="none" stroke="#63b8ff" d="M340.03,-199.23C335.2,-175.77 325.65,-129.46 320.17,-102.85"/>
<polygon fill="#63b8ff" stroke="#63b8ff" points="323.66,-102.42 318.21,-93.33 316.8,-103.83 323.66,-102.42"/>
</a>
</g>
</g>
<!-- Node23&#45;&gt;Node19 -->
<g id="edge37_Node000023_Node000019" class="edge">
<title>Node23&#45;&gt;Node19</title>
<g id="a_edge37_Node000023_Node000019"><a xlink:title=" ">
<path fill="none" stroke="#63b8ff" d="M349.15,-199.11C352.96,-190.03 357.88,-178.26 362,-168.43"/>
<polygon fill="#63b8ff" stroke="#63b8ff" points="365.12,-170.04 365.75,-159.47 358.66,-167.34 365.12,-170.04"/>
</a>
</g>
</g>
<!-- Node24 -->
<g id="Node000024" class="node">
<title>Node24</title>
<g id="a_Node000024"><a xlink:title=" ">
<polygon fill="#e0e0e0" stroke="#999999" points="288.15,-157.88 149.9,-157.88 149.9,-138.62 288.15,-138.62 288.15,-157.88"/>
<text text-anchor="middle" x="219.03" y="-144.38" font-family="Helvetica,sans-Serif" font-size="10.00">llvm/Support/raw_ostream.h</text>
</a>
</g>
</g>
<!-- Node23&#45;&gt;Node24 -->
<g id="edge36_Node000023_Node000024" class="edge">
<title>Node23&#45;&gt;Node24</title>
<g id="a_edge36_Node000023_Node000024"><a xlink:title=" ">
<path fill="none" stroke="#63b8ff" d="M314.89,-199.11C294.42,-188.46 266.84,-174.12 246.52,-163.55"/>
<polygon fill="#63b8ff" stroke="#63b8ff" points="248.18,-160.47 237.69,-158.96 244.95,-166.68 248.18,-160.47"/>
</a>
</g>
</g>
<!-- Node25 -->
<g id="Node000025" class="node">
<title>Node25</title>
<g id="a_Node000025"><a xlink:href="_frame_info_8h.html" target="_top" xlink:title=" ">
<polygon fill="white" stroke="#666666" points="131.53,-163.5 28.53,-163.5 28.53,-133 131.53,-133 131.53,-163.5"/>
<text text-anchor="start" x="36.53" y="-150" font-family="Helvetica,sans-Serif" font-size="10.00">zklang/Dialect/ZHL</text>
<text text-anchor="middle" x="80.03" y="-138.75" font-family="Helvetica,sans-Serif" font-size="10.00">/Typing/FrameInfo.h</text>
</a>
</g>
</g>
<!-- Node23&#45;&gt;Node25 -->
<g id="edge38_Node000023_Node000025" class="edge">
<title>Node23&#45;&gt;Node25</title>
<g id="a_edge38_Node000023_Node000025"><a xlink:title=" ">
<path fill="none" stroke="#63b8ff" d="M292.63,-201.39C249.91,-190.91 188.47,-175.84 142.61,-164.6"/>
<polygon fill="#63b8ff" stroke="#63b8ff" points="143.62,-161.24 133.07,-162.26 141.95,-168.04 143.62,-161.24"/>
</a>
</g>
</g>
<!-- Node25&#45;&gt;Node18 -->
<g id="edge39_Node000025_Node000018" class="edge">
<title>Node25&#45;&gt;Node18</title>
<g id="a_edge39_Node000025_Node000018"><a xlink:title=" ">
<path fill="none" stroke="#63b8ff" d="M131.82,-133.1C173.77,-121.63 232.24,-105.65 271.97,-94.79"/>
<polygon fill="#63b8ff" stroke="#63b8ff" points="272.72,-98.22 281.44,-92.2 270.87,-91.46 272.72,-98.22"/>
</a>
</g>
</g>
<!-- Node25&#45;&gt;Node26 -->
<g id="edge40_Node000025_Node000026" class="edge">
<title>Node25&#45;&gt;Node26</title>
<g id="a_edge40_Node000025_Node000026"><a xlink:title=" ">
<path fill="none" stroke="#63b8ff" d="M92.05,-132.61C98.49,-124.78 106.57,-114.94 113.85,-106.08"/>
<polygon fill="#63b8ff" stroke="#63b8ff" points="116.44,-108.45 120.09,-98.5 111.03,-104 116.44,-108.45"/>
</a>
</g>
</g>
<!-- Node26&#45;&gt;Node11 -->
<g id="edge45_Node000026_Node000011" class="edge">
<title>Node26&#45;&gt;Node11</title>
<g id="a_edge45_Node000026_Node000011"><a xlink:title=" ">
<path fill="none" stroke="#63b8ff" d="M185.34,-73.62C204.97,-71.11 227.5,-68.44 248.03,-66.5 508.54,-41.86 819.92,-25.51 951.88,-19.19"/>
<polygon fill="#63b8ff" stroke="#63b8ff" points="952,-22.69 961.82,-18.72 951.67,-15.69 952,-22.69"/>
</a>
</g>
</g>
<!-- Node26&#45;&gt;Node16 -->
<g id="edge41_Node000026_Node000016" class="edge">
<title>Node26&#45;&gt;Node16</title>
<g id="a_edge41_Node000026_Node000016"><a xlink:title=" ">
<path fill="none" stroke="#63b8ff" d="M185.33,-73.66C270.96,-62.06 441.2,-38.99 537.79,-25.9"/>
<polygon fill="#63b8ff" stroke="#63b8ff" points="538.25,-29.37 547.69,-24.56 537.31,-22.44 538.25,-29.37"/>
</a>
</g>
</g>
<!-- Node26&#45;&gt;Node21 -->
<g id="edge44_Node000026_Node000021" class="edge">
<title>Node26&#45;&gt;Node21</title>
<g id="a_edge44_Node000026_Node000021"><a xlink:title=" ">
<path fill="none" stroke="#63b8ff" d="M185.34,-67.62C231.52,-56.03 298.23,-39.29 342.81,-28.1"/>
<polygon fill="#63b8ff" stroke="#63b8ff" points="343.6,-31.51 352.45,-25.68 341.9,-24.72 343.6,-31.51"/>
</a>
</g>
</g>
<!-- Node27 -->
<g id="Node000027" class="node">
<title>Node27</title>
<g id="a_Node000027"><a xlink:title=" ">
<polygon fill="#e0e0e0" stroke="#999999" points="249.9,-24.88 140.15,-24.88 140.15,-5.63 249.9,-5.63 249.9,-24.88"/>
<text text-anchor="middle" x="195.03" y="-11.38" font-family="Helvetica,sans-Serif" font-size="10.00">llvm/ADT/ilist_node.h</text>
</a>
</g>
</g>
<!-- Node26&#45;&gt;Node27 -->
<g id="edge42_Node000026_Node000027" class="edge">
<title>Node26&#45;&gt;Node27</title>
<g id="a_edge42_Node000026_Node000027"><a xlink:title=" ">
<path fill="none" stroke="#63b8ff" d="M147.1,-66.11C156.49,-56.34 168.88,-43.45 178.71,-33.23"/>
<polygon fill="#63b8ff" stroke="#63b8ff" points="181.09,-35.8 185.5,-26.16 176.04,-30.95 181.09,-35.8"/>
</a>
</g>
</g>
<!-- Node28 -->
<g id="Node000028" class="node">
<title>Node28</title>
<g id="a_Node000028"><a xlink:title=" ">
<polygon fill="#e0e0e0" stroke="#999999" points="121.78,-30.5 20.28,-30.5 20.28,0 121.78,0 121.78,-30.5"/>
<text text-anchor="start" x="28.28" y="-17" font-family="Helvetica,sans-Serif" font-size="10.00">llvm/ADT/ilist_node</text>
<text text-anchor="middle" x="71.03" y="-5.75" font-family="Helvetica,sans-Serif" font-size="10.00">_options.h</text>
</a>
</g>
</g>
<!-- Node26&#45;&gt;Node28 -->
<g id="edge43_Node000026_Node000028" class="edge">
<title>Node26&#45;&gt;Node28</title>
<g id="a_edge43_Node000026_Node000028"><a xlink:title=" ">
<path fill="none" stroke="#63b8ff" d="M118.96,-66.11C111.27,-58.11 101.58,-48.03 92.92,-39.03"/>
<polygon fill="#63b8ff" stroke="#63b8ff" points="95.54,-36.7 86.09,-31.92 90.5,-41.55 95.54,-36.7"/>
</a>
</g>
</g>
<!-- Node29&#45;&gt;Node2 -->
<g id="edge48_Node000029_Node000002" class="edge">
<title>Node29&#45;&gt;Node2</title>
<g id="a_edge48_Node000029_Node000002"><a xlink:title=" ">
<path fill="none" stroke="#63b8ff" d="M1402.36,-277.03C1504.88,-270.58 1713.42,-254.58 1735.03,-230 1766.45,-194.26 1745.04,-133.1 1730.82,-102.05"/>
<polygon fill="#63b8ff" stroke="#63b8ff" points="1734.01,-100.59 1726.51,-93.1 1727.7,-103.63 1734.01,-100.59"/>
</a>
</g>
</g>
<!-- Node29&#45;&gt;Node3 -->
<g id="edge49_Node000029_Node000003" class="edge">
<title>Node29&#45;&gt;Node3</title>
<g id="a_edge49_Node000029_Node000003"><a xlink:title=" ">
<path fill="none" stroke="#63b8ff" d="M1300.68,-265.53C1275.64,-256.65 1244.36,-244.29 1218.03,-230 1183.11,-211.05 1146.33,-183.04 1124.55,-165.49"/>
<polygon fill="#63b8ff" stroke="#63b8ff" points="1126.79,-162.8 1116.83,-159.18 1122.36,-168.22 1126.79,-162.8"/>
</a>
</g>
</g>
<!-- Node29&#45;&gt;Node5 -->
<g id="edge51_Node000029_Node000005" class="edge">
<title>Node29&#45;&gt;Node5</title>
<g id="a_edge51_Node000029_Node000005"><a xlink:title=" ">
<path fill="none" stroke="#63b8ff" d="M1364.73,-265.61C1377.17,-255.74 1393.78,-242.33 1408.03,-230 1423.13,-216.93 1423.85,-209.69 1441.03,-199.5 1484.18,-173.91 1512.98,-199.41 1548.03,-163.5 1563.86,-147.28 1569.69,-121.24 1571.82,-103.13"/>
<polygon fill="#63b8ff" stroke="#63b8ff" points="1575.29,-103.62 1572.67,-93.35 1568.32,-103.01 1575.29,-103.62"/>
</a>
</g>
</g>
<!-- Node29&#45;&gt;Node6 -->
<g id="edge52_Node000029_Node000006" class="edge">
<title>Node29&#45;&gt;Node6</title>
<g id="a_edge52_Node000029_Node000006"><a xlink:title=" ">
<path fill="none" stroke="#63b8ff" d="M1350.44,-265.73C1361.06,-230.77 1388.06,-141.89 1400.09,-102.3"/>
<polygon fill="#63b8ff" stroke="#63b8ff" points="1403.37,-103.54 1402.93,-92.95 1396.67,-101.5 1403.37,-103.54"/>
</a>
</g>
</g>
<!-- Node29&#45;&gt;Node7 -->
<g id="edge53_Node000029_Node000007" class="edge">
<title>Node29&#45;&gt;Node7</title>
<g id="a_edge53_Node000029_Node000007"><a xlink:title=" ">
<path fill="none" stroke="#63b8ff" d="M1402.5,-280.15C1501.63,-278.88 1701.6,-271.13 1756.03,-230 1797.25,-198.85 1811.31,-135.07 1815.91,-102.64"/>
<polygon fill="#63b8ff" stroke="#63b8ff" points="1819.34,-103.39 1817.1,-93.03 1812.4,-102.53 1819.34,-103.39"/>
</a>
</g>
</g>
<!-- Node29&#45;&gt;Node8 -->
<g id="edge55_Node000029_Node000008" class="edge">
<title>Node29&#45;&gt;Node8</title>
<g id="a_edge55_Node000029_Node000008"><a xlink:title=" ">
<path fill="none" stroke="#63b8ff" d="M1402.26,-278.22C1504.58,-273.8 1716.74,-261.1 1783.03,-230 1846.79,-200.08 1900.89,-133.22 1924.43,-100.91"/>
<polygon fill="#63b8ff" stroke="#63b8ff" points="1927.14,-103.13 1930.1,-92.96 1921.44,-99.07 1927.14,-103.13"/>
</a>
</g>
</g>
<!-- Node29&#45;&gt;Node9 -->
<g id="edge56_Node000029_Node000009" class="edge">
<title>Node29&#45;&gt;Node9</title>
<g id="a_edge56_Node000029_Node000009"><a xlink:title=" ">
<path fill="none" stroke="#63b8ff" d="M1402.2,-277.47C1510.47,-271.59 1744.06,-256.25 1820.03,-230 1908.54,-199.42 1998.22,-130.3 2036.19,-98.86"/>
<polygon fill="#63b8ff" stroke="#63b8ff" points="2038.12,-101.8 2043.54,-92.7 2033.63,-96.44 2038.12,-101.8"/>
</a>
</g>
</g>
<!-- Node29&#45;&gt;Node10 -->
<g id="edge57_Node000029_Node000010" class="edge">
<title>Node29&#45;&gt;Node10</title>
<g id="a_edge57_Node000029_Node000010"><a xlink:title=" ">
<path fill="none" stroke="#63b8ff" d="M1326.61,-265.6C1315.67,-256.44 1302.53,-243.78 1294.03,-230 1268.68,-188.9 1256.22,-132.64 1251.06,-102.97"/>
<polygon fill="#63b8ff" stroke="#63b8ff" points="1254.53,-102.49 1249.48,-93.18 1247.62,-103.61 1254.53,-102.49"/>
</a>
</g>
</g>
<!-- Node29&#45;&gt;Node11 -->
<g id="edge58_Node000029_Node000011" class="edge">
<title>Node29&#45;&gt;Node11</title>
<g id="a_edge58_Node000029_Node000011"><a xlink:title=" ">
<path fill="none" stroke="#63b8ff" d="M1348.15,-265.77C1352.9,-227.22 1359.97,-121.26 1304.03,-66.5 1272.98,-36.11 1154.64,-23.89 1079.66,-19.13"/>
<polygon fill="#63b8ff" stroke="#63b8ff" points="1080.18,-15.66 1069.98,-18.55 1079.76,-22.64 1080.18,-15.66"/>
</a>
</g>
</g>
<!-- Node29&#45;&gt;Node12 -->
<g id="edge59_Node000029_Node000012" class="edge">
<title>Node29&#45;&gt;Node12</title>
<g id="a_edge59_Node000029_Node000012"><a xlink:title=" ">
<path fill="none" stroke="#63b8ff" d="M1323.73,-265.57C1309.47,-255.91 1290.75,-242.74 1275.03,-230 1225.66,-190.01 1217,-175.77 1170.03,-133 1157.5,-121.6 1143.29,-108.85 1132.32,-99.05"/>
<polygon fill="#63b8ff" stroke="#63b8ff" points="1134.9,-96.66 1125.11,-92.61 1130.24,-101.88 1134.9,-96.66"/>
</a>
</g>
</g>
<!-- Node29&#45;&gt;Node13 -->
<g id="edge60_Node000029_Node000013" class="edge">
<title>Node29&#45;&gt;Node13</title>
<g id="a_edge60_Node000029_Node000013"><a xlink:title=" ">
<path fill="none" stroke="#63b8ff" d="M1289.87,-272.98C1195.79,-260.79 1007.07,-236.35 909.53,-223.72"/>
<polygon fill="#63b8ff" stroke="#63b8ff" points="910.25,-220.28 899.89,-222.47 909.35,-227.22 910.25,-220.28"/>
</a>
</g>
</g>
<!-- Node29&#45;&gt;Node19 -->
<g id="edge54_Node000029_Node000019" class="edge">
<title>Node29&#45;&gt;Node19</title>
<g id="a_edge54_Node000029_Node000019"><a xlink:title=" ">
<path fill="none" stroke="#63b8ff" d="M1289.73,-276.66C1189.02,-269.91 971.47,-253.83 789.03,-230 615.54,-207.34 568.16,-215.26 401.03,-163.5 400.06,-163.2 399.09,-162.88 398.11,-162.54"/>
<polygon fill="#63b8ff" stroke="#63b8ff" points="399.73,-159.42 389.15,-158.92 397.11,-165.91 399.73,-159.42"/>
</a>
</g>
</g>
<!-- Node29&#45;&gt;Node22 -->
<g id="edge63_Node000029_Node000022" class="edge">
<title>Node29&#45;&gt;Node22</title>
<g id="a_edge63_Node000029_Node000022"><a xlink:title=" ">
<path fill="none" stroke="#63b8ff" d="M1354.97,-265.56C1365.95,-248.32 1385.88,-219.54 1408.03,-199.5 1420.57,-188.15 1436,-177.86 1450.02,-169.58"/>
<polygon fill="#63b8ff" stroke="#63b8ff" points="1451.66,-172.68 1458.61,-164.68 1448.19,-166.6 1451.66,-172.68"/>
</a>
</g>
</g>
<!-- Node29&#45;&gt;Node23 -->
<g id="edge61_Node000029_Node000023" class="edge">
<title>Node29&#45;&gt;Node23</title>
<g id="a_edge61_Node000029_Node000023"><a xlink:title=" ">
<path fill="none" stroke="#63b8ff" d="M1289.59,-276.62C1115.31,-265.41 586.48,-231.41 404.96,-219.73"/>
<polygon fill="#63b8ff" stroke="#63b8ff" points="405.23,-216.24 395.03,-219.09 404.78,-223.23 405.23,-216.24"/>
</a>
</g>
</g>
<!-- Node29&#45;&gt;Node26 -->
<g id="edge62_Node000029_Node000026" class="edge">
<title>Node29&#45;&gt;Node26</title>
<g id="a_edge62_Node000029_Node000026"><a xlink:title=" ">
<path fill="none" stroke="#63b8ff" d="M1289.92,-280C1047.47,-278.31 98.37,-265.22 19.03,-163.5 -1.77,-136.84 33.88,-115.27 70.68,-101.16"/>
<polygon fill="#63b8ff" stroke="#63b8ff" points="71.42,-104.61 79.62,-97.89 69.02,-98.03 71.42,-104.61"/>
</a>
</g>
</g>
<!-- Node30 -->
<g id="Node000030" class="node">
<title>Node30</title>
<g id="a_Node000030"><a xlink:title=" ">
<polygon fill="#e0e0e0" stroke="#999999" points="1544.03,-224.38 1450.03,-224.38 1450.03,-205.12 1544.03,-205.12 1544.03,-224.38"/>
<text text-anchor="middle" x="1497.03" y="-210.88" font-family="Helvetica,sans-Serif" font-size="10.00">llvm/ADT/Bitset.h</text>
</a>
</g>
</g>
<!-- Node29&#45;&gt;Node30 -->
<g id="edge50_Node000029_Node000030" class="edge">
<title>Node29&#45;&gt;Node30</title>
<g id="a_edge50_Node000029_Node000030"><a xlink:title=" ">
<path fill="none" stroke="#63b8ff" d="M1380.29,-265.61C1405.91,-254.67 1440.67,-239.82 1465.58,-229.18"/>
<polygon fill="#63b8ff" stroke="#63b8ff" points="1466.72,-232.5 1474.54,-225.35 1463.97,-226.06 1466.72,-232.5"/>
</a>
</g>
</g>
<!-- Node31 -->
<g id="Node000031" class="node">
<title>Node31</title>
<g id="a_Node000031"><a xlink:href="_copyable_pointer_8h.html" target="_top" xlink:title=" ">
<polygon fill="white" stroke="#666666" points="1725.9,-224.38 1562.15,-224.38 1562.15,-205.12 1725.9,-205.12 1725.9,-224.38"/>
<text text-anchor="middle" x="1644.03" y="-210.88" font-family="Helvetica,sans-Serif" font-size="10.00">zklang/Support/CopyablePointer.h</text>
</a>
</g>
</g>
<!-- Node29&#45;&gt;Node31 -->
<g id="edge64_Node000029_Node000031" class="edge">
<title>Node29&#45;&gt;Node31</title>
<g id="a_edge64_Node000029_Node000031"><a xlink:title=" ">
<path fill="none" stroke="#63b8ff" d="M1402.43,-268.04C1456.66,-256.3 1538.02,-238.7 1591.07,-227.21"/>
<polygon fill="#63b8ff" stroke="#63b8ff" points="1591.75,-230.65 1600.79,-225.11 1590.27,-223.8 1591.75,-230.65"/>
</a>
</g>
</g>
<!-- Node32 -->
<g id="Node000032" class="node">
<title>Node32</title>
<g id="a_Node000032"><a xlink:title=" ">
<polygon fill="#e0e0e0" stroke="#999999" points="1663.65,-157.88 1624.4,-157.88 1624.4,-138.62 1663.65,-138.62 1663.65,-157.88"/>
<text text-anchor="middle" x="1644.03" y="-144.38" font-family="Helvetica,sans-Serif" font-size="10.00">utility</text>
</a>
</g>
</g>
<!-- Node31&#45;&gt;Node32 -->
<g id="edge65_Node000031_Node000032" class="edge">
<title>Node31&#45;&gt;Node32</title>
<g id="a_edge65_Node000031_Node000032"><a xlink:title=" ">
<path fill="none" stroke="#63b8ff" d="M1644.03,-204.78C1644.03,-195.73 1644.03,-181.45 1644.03,-169.63"/>
<polygon fill="#63b8ff" stroke="#63b8ff" points="1647.53,-169.66 1644.03,-159.66 1640.53,-169.66 1647.53,-169.66"/>
</a>
</g>
</g>
</g>
</svg>
