<?xml version="1.0" encoding="UTF-8" standalone="no"?>
<!DOCTYPE svg PUBLIC "-//W3C//DTD SVG 1.1//EN"
 "http://www.w3.org/Graphics/SVG/1.1/DTD/svg11.dtd">
<!-- Generated by graphviz version 12.2.1 (20241206.2353)
 -->
<!-- Title: lib/Dialect/ZML/IR/Types.cpp Pages: 1 -->
<svg width="2489pt" height="305pt"
 viewBox="0.00 0.00 2488.75 304.50" xmlns="http://www.w3.org/2000/svg" xmlns:xlink="http://www.w3.org/1999/xlink">
<g id="graph0" class="graph" transform="scale(1 1) rotate(0) translate(4 300.5)">
<title>lib/Dialect/ZML/IR/Types.cpp</title>
<!-- Node1 -->
<g id="Node000001" class="node">
<title>Node1</title>
<g id="a_Node000001"><a xlink:title=" ">
<polygon fill="#999999" stroke="#666666" points="1697.5,-296.5 1602,-296.5 1602,-266 1697.5,-266 1697.5,-296.5"/>
<text text-anchor="start" x="1610" y="-283" font-family="Helvetica,sans-Serif" font-size="10.00">lib/Dialect/ZML/IR</text>
<text text-anchor="middle" x="1649.75" y="-271.75" font-family="Helvetica,sans-Serif" font-size="10.00">/Types.cpp</text>
</a>
</g>
</g>
<!-- Node2 -->
<g id="Node000002" class="node">
<title>Node2</title>
<g id="a_Node000002"><a xlink:href="_types_8h.html" target="_top" xlink:title=" ">
<polygon fill="white" stroke="#666666" points="749.12,-163.5 648.38,-163.5 648.38,-133 749.12,-133 749.12,-163.5"/>
<text text-anchor="start" x="656.38" y="-150" font-family="Helvetica,sans-Serif" font-size="10.00">zklang/Dialect/ZML</text>
<text text-anchor="middle" x="698.75" y="-138.75" font-family="Helvetica,sans-Serif" font-size="10.00">/IR/Types.h</text>
</a>
</g>
</g>
<!-- Node1&#45;&gt;Node2 -->
<g id="edge1_Node000001_Node000002" class="edge">
<title>Node1&#45;&gt;Node2</title>
<g id="a_edge1_Node000001_Node000002"><a xlink:title=" ">
<path fill="none" stroke="#63b8ff" d="M1601.85,-277.74C1505.2,-272.29 1280.07,-257.56 1092.75,-230 974.23,-212.57 837.61,-182.23 760.38,-164.12"/>
<polygon fill="#63b8ff" stroke="#63b8ff" points="761.44,-160.77 750.9,-161.89 759.83,-167.59 761.44,-160.77"/>
</a>
</g>
</g>
<!-- Node26 -->
<g id="Node000026" class="node">
<title>Node26</title>
<g id="a_Node000026"><a xlink:title=" ">
<polygon fill="#e0e0e0" stroke="#999999" points="1275.62,-224.38 1219.88,-224.38 1219.88,-205.12 1275.62,-205.12 1275.62,-224.38"/>
<text text-anchor="middle" x="1247.75" y="-210.88" font-family="Helvetica,sans-Serif" font-size="10.00">algorithm</text>
</a>
</g>
</g>
<!-- Node1&#45;&gt;Node26 -->
<g id="edge26_Node000001_Node000026" class="edge">
<title>Node1&#45;&gt;Node26</title>
<g id="a_edge26_Node000001_Node000026"><a xlink:title=" ">
<path fill="none" stroke="#63b8ff" d="M1601.53,-277.17C1531.03,-271.87 1396.09,-258.69 1284.75,-230 1283,-229.55 1281.22,-229.04 1279.43,-228.49"/>
<polygon fill="#63b8ff" stroke="#63b8ff" points="1280.63,-225.2 1270.04,-225.24 1278.34,-231.82 1280.63,-225.2"/>
</a>
</g>
</g>
<!-- Node27 -->
<g id="Node000027" class="node">
<title>Node27</title>
<g id="a_Node000027"><a xlink:title=" ">
<polygon fill="#e0e0e0" stroke="#999999" points="1339.75,-224.38 1293.75,-224.38 1293.75,-205.12 1339.75,-205.12 1339.75,-224.38"/>
<text text-anchor="middle" x="1316.75" y="-210.88" font-family="Helvetica,sans-Serif" font-size="10.00">iterator</text>
</a>
</g>
</g>
<!-- Node1&#45;&gt;Node27 -->
<g id="edge27_Node000001_Node000027" class="edge">
<title>Node1&#45;&gt;Node27</title>
<g id="a_edge27_Node000001_Node000027"><a xlink:title=" ">
<path fill="none" stroke="#63b8ff" d="M1601.72,-276.02C1541.59,-269.87 1435.89,-256.21 1348.75,-230 1347.76,-229.7 1346.75,-229.38 1345.75,-229.04"/>
<polygon fill="#63b8ff" stroke="#63b8ff" points="1347.06,-225.79 1336.47,-225.41 1344.51,-232.31 1347.06,-225.79"/>
</a>
</g>
</g>
<!-- Node28 -->
<g id="Node000028" class="node">
<title>Node28</title>
<g id="a_Node000028"><a xlink:title=" ">
<polygon fill="#e0e0e0" stroke="#999999" points="1517.75,-224.38 1357.75,-224.38 1357.75,-205.12 1517.75,-205.12 1517.75,-224.38"/>
<text text-anchor="middle" x="1437.75" y="-210.88" font-family="Helvetica,sans-Serif" font-size="10.00">llvm/ADT/STLFunctionalExtras.h</text>
</a>
</g>
</g>
<!-- Node1&#45;&gt;Node28 -->
<g id="edge28_Node000001_Node000028" class="edge">
<title>Node1&#45;&gt;Node28</title>
<g id="a_edge28_Node000001_Node000028"><a xlink:title=" ">
<path fill="none" stroke="#63b8ff" d="M1601.64,-265.61C1564.49,-254.31 1513.66,-238.85 1478.5,-228.15"/>
<polygon fill="#63b8ff" stroke="#63b8ff" points="1479.71,-224.86 1469.12,-225.29 1477.67,-231.55 1479.71,-224.86"/>
</a>
</g>
</g>
<!-- Node29 -->
<g id="Node000029" class="node">
<title>Node29</title>
<g id="a_Node000029"><a xlink:title=" ">
<polygon fill="#e0e0e0" stroke="#999999" points="1634,-224.38 1535.5,-224.38 1535.5,-205.12 1634,-205.12 1634,-224.38"/>
<text text-anchor="middle" x="1584.75" y="-210.88" font-family="Helvetica,sans-Serif" font-size="10.00">mlir/IR/Attributes.h</text>
</a>
</g>
</g>
<!-- Node1&#45;&gt;Node29 -->
<g id="edge29_Node000001_Node000029" class="edge">
<title>Node1&#45;&gt;Node29</title>
<g id="a_edge29_Node000001_Node000029"><a xlink:title=" ">
<path fill="none" stroke="#63b8ff" d="M1635,-265.61C1625.05,-255.74 1611.9,-242.69 1601.55,-232.42"/>
<polygon fill="#63b8ff" stroke="#63b8ff" points="1604.28,-230.2 1594.72,-225.64 1599.35,-235.17 1604.28,-230.2"/>
</a>
</g>
</g>
<!-- Node30 -->
<g id="Node000030" class="node">
<title>Node30</title>
<g id="a_Node000030"><a xlink:title=" ">
<polygon fill="#e0e0e0" stroke="#999999" points="1777.5,-224.38 1652,-224.38 1652,-205.12 1777.5,-205.12 1777.5,-224.38"/>
<text text-anchor="middle" x="1714.75" y="-210.88" font-family="Helvetica,sans-Serif" font-size="10.00">mlir/IR/BuiltinAttributes.h</text>
</a>
</g>
</g>
<!-- Node1&#45;&gt;Node30 -->
<g id="edge30_Node000001_Node000030" class="edge">
<title>Node1&#45;&gt;Node30</title>
<g id="a_edge30_Node000001_Node000030"><a xlink:title=" ">
<path fill="none" stroke="#63b8ff" d="M1664.5,-265.61C1674.45,-255.74 1687.6,-242.69 1697.95,-232.42"/>
<polygon fill="#63b8ff" stroke="#63b8ff" points="1700.15,-235.17 1704.78,-225.64 1695.22,-230.2 1700.15,-235.17"/>
</a>
</g>
</g>
<!-- Node31 -->
<g id="Node000031" class="node">
<title>Node31</title>
<g id="a_Node000031"><a xlink:title=" ">
<polygon fill="#e0e0e0" stroke="#999999" points="1903.88,-224.38 1795.62,-224.38 1795.62,-205.12 1903.88,-205.12 1903.88,-224.38"/>
<text text-anchor="middle" x="1849.75" y="-210.88" font-family="Helvetica,sans-Serif" font-size="10.00">mlir/IR/Diagnostics.h</text>
</a>
</g>
</g>
<!-- Node1&#45;&gt;Node31 -->
<g id="edge31_Node000001_Node000031" class="edge">
<title>Node1&#45;&gt;Node31</title>
<g id="a_edge31_Node000001_Node000031"><a xlink:title=" ">
<path fill="none" stroke="#63b8ff" d="M1695.38,-265.53C1730.29,-254.28 1777.89,-238.92 1810.97,-228.26"/>
<polygon fill="#63b8ff" stroke="#63b8ff" points="1811.71,-231.7 1820.15,-225.3 1809.56,-225.03 1811.71,-231.7"/>
</a>
</g>
</g>
<!-- Node32 -->
<g id="Node000032" class="node">
<title>Node32</title>
<g id="a_Node000032"><a xlink:title=" ">
<polygon fill="#e0e0e0" stroke="#999999" points="2026,-224.38 1921.5,-224.38 1921.5,-205.12 2026,-205.12 2026,-224.38"/>
<text text-anchor="middle" x="1973.75" y="-210.88" font-family="Helvetica,sans-Serif" font-size="10.00">mlir/Support/LLVM.h</text>
</a>
</g>
</g>
<!-- Node1&#45;&gt;Node32 -->
<g id="edge32_Node000001_Node000032" class="edge">
<title>Node1&#45;&gt;Node32</title>
<g id="a_edge32_Node000001_Node000032"><a xlink:title=" ">
<path fill="none" stroke="#63b8ff" d="M1697.86,-271.67C1750.68,-262.1 1837.95,-245.88 1912.75,-230 1916.76,-229.15 1920.92,-228.24 1925.08,-227.31"/>
<polygon fill="#63b8ff" stroke="#63b8ff" points="1925.61,-230.78 1934.58,-225.14 1924.05,-223.95 1925.61,-230.78"/>
</a>
</g>
</g>
<!-- Node33 -->
<g id="Node000033" class="node">
<title>Node33</title>
<g id="a_Node000033"><a xlink:title=" ">
<polygon fill="#e0e0e0" stroke="#999999" points="2183.25,-224.38 2044.25,-224.38 2044.25,-205.12 2183.25,-205.12 2183.25,-224.38"/>
<text text-anchor="middle" x="2113.75" y="-210.88" font-family="Helvetica,sans-Serif" font-size="10.00">mlir/Support/LogicalResult.h</text>
</a>
</g>
</g>
<!-- Node1&#45;&gt;Node33 -->
<g id="edge33_Node000001_Node000033" class="edge">
<title>Node1&#45;&gt;Node33</title>
<g id="a_edge33_Node000001_Node000033"><a xlink:title=" ">
<path fill="none" stroke="#63b8ff" d="M1697.87,-274.73C1770.86,-266.19 1913.86,-248.78 2034.75,-230 2041.1,-229.01 2047.73,-227.92 2054.33,-226.79"/>
<polygon fill="#63b8ff" stroke="#63b8ff" points="2054.61,-230.29 2063.86,-225.13 2053.41,-223.4 2054.61,-230.29"/>
</a>
</g>
</g>
<!-- Node34 -->
<g id="Node000034" class="node">
<title>Node34</title>
<g id="a_Node000034"><a xlink:title=" ">
<polygon fill="#e0e0e0" stroke="#999999" points="2298.62,-230 2200.88,-230 2200.88,-199.5 2298.62,-199.5 2298.62,-230"/>
<text text-anchor="start" x="2208.88" y="-216.5" font-family="Helvetica,sans-Serif" font-size="10.00">zirgen/Dialect/ZHL</text>
<text text-anchor="middle" x="2249.75" y="-205.25" font-family="Helvetica,sans-Serif" font-size="10.00">/IR/ZHL.h</text>
</a>
</g>
</g>
<!-- Node1&#45;&gt;Node34 -->
<g id="edge34_Node000001_Node000034" class="edge">
<title>Node1&#45;&gt;Node34</title>
<g id="a_edge34_Node000001_Node000034"><a xlink:title=" ">
<path fill="none" stroke="#63b8ff" d="M1697.64,-278.28C1790.8,-273.91 2002.96,-261.37 2189.31,-230.44"/>
<polygon fill="#63b8ff" stroke="#63b8ff" points="2189.64,-233.94 2198.92,-228.82 2188.48,-227.03 2189.64,-233.94"/>
</a>
</g>
</g>
<!-- Node35 -->
<g id="Node000035" class="node">
<title>Node35</title>
<g id="a_Node000035"><a xlink:href="_attrs_8h.html" target="_top" xlink:title=" ">
<polygon fill="white" stroke="#666666" points="2417.12,-230 2316.38,-230 2316.38,-199.5 2417.12,-199.5 2417.12,-230"/>
<text text-anchor="start" x="2324.38" y="-216.5" font-family="Helvetica,sans-Serif" font-size="10.00">zklang/Dialect/ZML</text>
<text text-anchor="middle" x="2366.75" y="-205.25" font-family="Helvetica,sans-Serif" font-size="10.00">/IR/Attrs.h</text>
</a>
</g>
</g>
<!-- Node1&#45;&gt;Node35 -->
<g id="edge35_Node000001_Node000035" class="edge">
<title>Node1&#45;&gt;Node35</title>
<g id="a_edge35_Node000001_Node000035"><a xlink:title=" ">
<path fill="none" stroke="#63b8ff" d="M1697.94,-279.22C1805.36,-276.35 2072.62,-266.08 2304.64,-230.33"/>
<polygon fill="#63b8ff" stroke="#63b8ff" points="2305.17,-233.79 2314.51,-228.79 2304.09,-226.87 2305.17,-233.79"/>
</a>
</g>
</g>
<!-- Node38 -->
<g id="Node000038" class="node">
<title>Node38</title>
<g id="a_Node000038"><a xlink:href="_ops_8h.html" target="_top" xlink:title=" ">
<polygon fill="white" stroke="#666666" points="1202.12,-230 1101.38,-230 1101.38,-199.5 1202.12,-199.5 1202.12,-230"/>
<text text-anchor="start" x="1109.38" y="-216.5" font-family="Helvetica,sans-Serif" font-size="10.00">zklang/Dialect/ZML</text>
<text text-anchor="middle" x="1151.75" y="-205.25" font-family="Helvetica,sans-Serif" font-size="10.00">/IR/Ops.h</text>
</a>
</g>
</g>
<!-- Node1&#45;&gt;Node38 -->
<g id="edge38_Node000001_Node000038" class="edge">
<title>Node1&#45;&gt;Node38</title>
<g id="a_edge38_Node000001_Node000038"><a xlink:title=" ">
<path fill="none" stroke="#63b8ff" d="M1601.72,-276.7C1522.66,-270.43 1360,-255.75 1213.48,-230.36"/>
<polygon fill="#63b8ff" stroke="#63b8ff" points="1214.46,-226.98 1204.01,-228.69 1213.25,-233.87 1214.46,-226.98"/>
</a>
</g>
</g>
<!-- Node3 -->
<g id="Node000003" class="node">
<title>Node3</title>
<g id="a_Node000003"><a xlink:title=" ">
<polygon fill="#e0e0e0" stroke="#999999" points="119.5,-91.38 0,-91.38 0,-72.12 119.5,-72.12 119.5,-91.38"/>
<text text-anchor="middle" x="59.75" y="-77.88" font-family="Helvetica,sans-Serif" font-size="10.00">llvm/ADT/TypeSwitch.h</text>
</a>
</g>
</g>
<!-- Node2&#45;&gt;Node3 -->
<g id="edge2_Node000002_Node000003" class="edge">
<title>Node2&#45;&gt;Node3</title>
<g id="a_edge2_Node000002_Node000003"><a xlink:title=" ">
<path fill="none" stroke="#63b8ff" d="M648.2,-144.76C548.45,-139.42 319.43,-125 128.75,-97 122.85,-96.13 116.7,-95.08 110.6,-93.94"/>
<polygon fill="#63b8ff" stroke="#63b8ff" points="111.72,-90.6 101.23,-92.12 110.38,-97.47 111.72,-90.6"/>
</a>
</g>
</g>
<!-- Node4 -->
<g id="Node000004" class="node">
<title>Node4</title>
<g id="a_Node000004"><a xlink:title=" ">
<polygon fill="#e0e0e0" stroke="#999999" points="247.62,-91.38 137.88,-91.38 137.88,-72.12 247.62,-72.12 247.62,-91.38"/>
<text text-anchor="middle" x="192.75" y="-77.88" font-family="Helvetica,sans-Serif" font-size="10.00">mlir/IR/BuiltinTypes.h</text>
</a>
</g>
</g>
<!-- Node2&#45;&gt;Node4 -->
<g id="edge3_Node000002_Node000004" class="edge">
<title>Node2&#45;&gt;Node4</title>
<g id="a_edge3_Node000002_Node000004"><a xlink:title=" ">
<path fill="none" stroke="#63b8ff" d="M648.13,-143.25C565.74,-136.35 397.66,-120.63 256.75,-97 251.82,-96.17 246.69,-95.21 241.59,-94.18"/>
<polygon fill="#63b8ff" stroke="#63b8ff" points="242.51,-90.8 232,-92.17 241.07,-97.65 242.51,-90.8"/>
</a>
</g>
</g>
<!-- Node5 -->
<g id="Node000005" class="node">
<title>Node5</title>
<g id="a_Node000005"><a xlink:title=" ">
<polygon fill="#e0e0e0" stroke="#999999" points="378.12,-91.38 265.38,-91.38 265.38,-72.12 378.12,-72.12 378.12,-91.38"/>
<text text-anchor="middle" x="321.75" y="-77.88" font-family="Helvetica,sans-Serif" font-size="10.00">mlir/IR/SymbolTable.h</text>
</a>
</g>
</g>
<!-- Node2&#45;&gt;Node5 -->
<g id="edge4_Node000002_Node000005" class="edge">
<title>Node2&#45;&gt;Node5</title>
<g id="a_edge4_Node000002_Node000005"><a xlink:title=" ">
<path fill="none" stroke="#63b8ff" d="M647.97,-139.88C586.28,-130.74 479.12,-114.23 387.75,-97 383.08,-96.12 378.24,-95.16 373.4,-94.17"/>
<polygon fill="#63b8ff" stroke="#63b8ff" points="374.16,-90.76 363.65,-92.14 372.73,-97.61 374.16,-90.76"/>
</a>
</g>
</g>
<!-- Node6 -->
<g id="Node000006" class="node">
<title>Node6</title>
<g id="a_Node000006"><a xlink:title=" ">
<polygon fill="#e0e0e0" stroke="#999999" points="479.12,-91.38 396.38,-91.38 396.38,-72.12 479.12,-72.12 479.12,-91.38"/>
<text text-anchor="middle" x="437.75" y="-77.88" font-family="Helvetica,sans-Serif" font-size="10.00">mlir/IR/Types.h</text>
</a>
</g>
</g>
<!-- Node2&#45;&gt;Node6 -->
<g id="edge5_Node000002_Node000006" class="edge">
<title>Node2&#45;&gt;Node6</title>
<g id="a_edge5_Node000002_Node000006"><a xlink:title=" ">
<path fill="none" stroke="#63b8ff" d="M648.29,-135.89C605.45,-126.08 542.4,-111.29 487.75,-97 485.17,-96.33 482.52,-95.62 479.85,-94.89"/>
<polygon fill="#63b8ff" stroke="#63b8ff" points="480.93,-91.56 470.36,-92.26 479.06,-98.3 480.93,-91.56"/>
</a>
</g>
</g>
<!-- Node7 -->
<g id="Node000007" class="node">
<title>Node7</title>
<g id="a_Node000007"><a xlink:title=" ">
<polygon fill="#e0e0e0" stroke="#999999" points="323.5,-30.5 192,-30.5 192,0 323.5,0 323.5,-30.5"/>
<text text-anchor="start" x="200" y="-17" font-family="Helvetica,sans-Serif" font-size="10.00">mlir/Interfaces/DataLayout</text>
<text text-anchor="middle" x="257.75" y="-5.75" font-family="Helvetica,sans-Serif" font-size="10.00">Interfaces.h</text>
</a>
</g>
</g>
<!-- Node2&#45;&gt;Node7 -->
<g id="edge6_Node000002_Node000007" class="edge">
<title>Node2&#45;&gt;Node7</title>
<g id="a_edge6_Node000002_Node000007"><a xlink:title=" ">
<path fill="none" stroke="#63b8ff" d="M721.87,-132.8C745.91,-116.04 777.49,-87.98 757.75,-66.5 727.38,-33.44 415.32,-36.48 335.1,-30.33"/>
<polygon fill="#63b8ff" stroke="#63b8ff" points="335.75,-26.88 325.45,-29.36 335.05,-33.84 335.75,-26.88"/>
</a>
</g>
</g>
<!-- Node8 -->
<g id="Node000008" class="node">
<title>Node8</title>
<g id="a_Node000008"><a xlink:title=" ">
<polygon fill="#e0e0e0" stroke="#999999" points="630.62,-97 496.88,-97 496.88,-66.5 630.62,-66.5 630.62,-97"/>
<text text-anchor="start" x="504.88" y="-83.5" font-family="Helvetica,sans-Serif" font-size="10.00">mlir/Interfaces/MemorySlot</text>
<text text-anchor="middle" x="563.75" y="-72.25" font-family="Helvetica,sans-Serif" font-size="10.00">Interfaces.h</text>
</a>
</g>
</g>
<!-- Node2&#45;&gt;Node8 -->
<g id="edge7_Node000002_Node000008" class="edge">
<title>Node2&#45;&gt;Node8</title>
<g id="a_edge7_Node000002_Node000008"><a xlink:title=" ">
<path fill="none" stroke="#63b8ff" d="M668.12,-132.61C649.3,-123.63 624.98,-112 604.54,-102.24"/>
<polygon fill="#63b8ff" stroke="#63b8ff" points="606.16,-99.13 595.63,-97.98 603.14,-105.45 606.16,-99.13"/>
</a>
</g>
</g>
<!-- Node9 -->
<g id="Node000009" class="node">
<title>Node9</title>
<g id="a_Node000009"><a xlink:href="_op_interfaces_8h.html" target="_top" xlink:title=" ">
<polygon fill="white" stroke="#666666" points="1251.12,-97 1150.38,-97 1150.38,-66.5 1251.12,-66.5 1251.12,-97"/>
<text text-anchor="start" x="1158.38" y="-83.5" font-family="Helvetica,sans-Serif" font-size="10.00">zklang/Dialect/ZML</text>
<text text-anchor="middle" x="1200.75" y="-72.25" font-family="Helvetica,sans-Serif" font-size="10.00">/IR/OpInterfaces.h</text>
</a>
</g>
</g>
<!-- Node2&#45;&gt;Node9 -->
<g id="edge8_Node000002_Node000009" class="edge">
<title>Node2&#45;&gt;Node9</title>
<g id="a_edge8_Node000002_Node000009"><a xlink:title=" ">
<path fill="none" stroke="#63b8ff" d="M749.18,-140.77C841.71,-128.88 1038.31,-103.62 1138.8,-90.71"/>
<polygon fill="#63b8ff" stroke="#63b8ff" points="1139,-94.21 1148.48,-89.47 1138.11,-87.27 1139,-94.21"/>
</a>
</g>
</g>
<!-- Node24 -->
<g id="Node000024" class="node">
<title>Node24</title>
<g id="a_Node000024"><a xlink:href="_ops_8h_8inc.html" target="_top" xlink:title=" ">
<polygon fill="white" stroke="#666666" points="905.12,-97 804.38,-97 804.38,-66.5 905.12,-66.5 905.12,-97"/>
<text text-anchor="start" x="812.38" y="-83.5" font-family="Helvetica,sans-Serif" font-size="10.00">zklang/Dialect/ZML</text>
<text text-anchor="middle" x="854.75" y="-72.25" font-family="Helvetica,sans-Serif" font-size="10.00">/IR/Ops.h.inc</text>
</a>
</g>
</g>
<!-- Node2&#45;&gt;Node24 -->
<g id="edge24_Node000002_Node000024" class="edge">
<title>Node2&#45;&gt;Node24</title>
<g id="a_edge24_Node000002_Node000024"><a xlink:title=" ">
<path fill="none" stroke="#63b8ff" d="M734.15,-132.61C756.21,-123.49 784.83,-111.66 808.65,-101.81"/>
<polygon fill="#63b8ff" stroke="#63b8ff" points="809.92,-105.07 817.82,-98.02 807.24,-98.6 809.92,-105.07"/>
</a>
</g>
</g>
<!-- Node25 -->
<g id="Node000025" class="node">
<title>Node25</title>
<g id="a_Node000025"><a xlink:href="_types_8h_8inc.html" target="_top" xlink:title=" ">
<polygon fill="white" stroke="#666666" points="749.12,-97 648.38,-97 648.38,-66.5 749.12,-66.5 749.12,-97"/>
<text text-anchor="start" x="656.38" y="-83.5" font-family="Helvetica,sans-Serif" font-size="10.00">zklang/Dialect/ZML</text>
<text text-anchor="middle" x="698.75" y="-72.25" font-family="Helvetica,sans-Serif" font-size="10.00">/IR/Types.h.inc</text>
</a>
</g>
</g>
<!-- Node2&#45;&gt;Node25 -->
<g id="edge25_Node000002_Node000025" class="edge">
<title>Node2&#45;&gt;Node25</title>
<g id="a_edge25_Node000002_Node000025"><a xlink:title=" ">
<path fill="none" stroke="#63b8ff" d="M698.75,-132.61C698.75,-125.52 698.75,-116.79 698.75,-108.63"/>
<polygon fill="#63b8ff" stroke="#63b8ff" points="702.25,-108.84 698.75,-98.84 695.25,-108.84 702.25,-108.84"/>
</a>
</g>
</g>
<!-- Node9&#45;&gt;Node7 -->
<g id="edge19_Node000009_Node000007" class="edge">
<title>Node9&#45;&gt;Node7</title>
<g id="a_edge19_Node000009_Node000007"><a xlink:title=" ">
<path fill="none" stroke="#63b8ff" d="M1150.09,-77.91C978.42,-68.26 424.82,-37.06 335.17,-30.29"/>
<polygon fill="#63b8ff" stroke="#63b8ff" points="335.7,-26.82 325.44,-29.44 335.1,-33.79 335.7,-26.82"/>
</a>
</g>
</g>
<!-- Node10 -->
<g id="Node000010" class="node">
<title>Node10</title>
<g id="a_Node000010"><a xlink:title=" ">
<polygon fill="#e0e0e0" stroke="#999999" points="1844.5,-24.88 1737,-24.88 1737,-5.63 1844.5,-5.63 1844.5,-24.88"/>
<text text-anchor="middle" x="1790.75" y="-11.38" font-family="Helvetica,sans-Serif" font-size="10.00">llvm/ADT/ArrayRef.h</text>
</a>
</g>
</g>
<!-- Node9&#45;&gt;Node10 -->
<g id="edge9_Node000009_Node000010" class="edge">
<title>Node9&#45;&gt;Node10</title>
<g id="a_edge9_Node000009_Node000010"><a xlink:title=" ">
<path fill="none" stroke="#63b8ff" d="M1251.26,-78.15C1345.58,-72.81 1554.68,-58.66 1728.75,-30.5 1733.67,-29.7 1738.77,-28.75 1743.85,-27.71"/>
<polygon fill="#63b8ff" stroke="#63b8ff" points="1744.33,-31.19 1753.36,-25.66 1742.85,-24.35 1744.33,-31.19"/>
</a>
</g>
</g>
<!-- Node11 -->
<g id="Node000011" class="node">
<title>Node11</title>
<g id="a_Node000011"><a xlink:title=" ">
<polygon fill="#e0e0e0" stroke="#999999" points="1983.25,-24.88 1862.25,-24.88 1862.25,-5.63 1983.25,-5.63 1983.25,-24.88"/>
<text text-anchor="middle" x="1922.75" y="-11.38" font-family="Helvetica,sans-Serif" font-size="10.00">llvm/ADT/SmallVector.h</text>
</a>
</g>
</g>
<!-- Node9&#45;&gt;Node11 -->
<g id="edge10_Node000009_Node000011" class="edge">
<title>Node9&#45;&gt;Node11</title>
<g id="a_edge10_Node000009_Node000011"><a xlink:title=" ">
<path fill="none" stroke="#63b8ff" d="M1251.37,-79.04C1361.43,-74.85 1630.55,-62.01 1853.75,-30.5 1859.73,-29.66 1865.97,-28.61 1872.15,-27.46"/>
<polygon fill="#63b8ff" stroke="#63b8ff" points="1872.5,-30.96 1881.64,-25.62 1871.16,-24.09 1872.5,-30.96"/>
</a>
</g>
</g>
<!-- Node12 -->
<g id="Node000012" class="node">
<title>Node12</title>
<g id="a_Node000012"><a xlink:title=" ">
<polygon fill="#e0e0e0" stroke="#999999" points="2110.62,-24.88 2000.88,-24.88 2000.88,-5.63 2110.62,-5.63 2110.62,-24.88"/>
<text text-anchor="middle" x="2055.75" y="-11.38" font-family="Helvetica,sans-Serif" font-size="10.00">llvm/ADT/StringRef.h</text>
</a>
</g>
</g>
<!-- Node9&#45;&gt;Node12 -->
<g id="edge11_Node000009_Node000012" class="edge">
<title>Node9&#45;&gt;Node12</title>
<g id="a_edge11_Node000009_Node000012"><a xlink:title=" ">
<path fill="none" stroke="#63b8ff" d="M1251.54,-80.32C1377.63,-78.65 1714.89,-70.48 1992.75,-30.5 1998.09,-29.73 2003.64,-28.75 2009.15,-27.66"/>
<polygon fill="#63b8ff" stroke="#63b8ff" points="2009.74,-31.11 2018.8,-25.62 2008.3,-24.26 2009.74,-31.11"/>
</a>
</g>
</g>
<!-- Node13 -->
<g id="Node000013" class="node">
<title>Node13</title>
<g id="a_Node000013"><a xlink:title=" ">
<polygon fill="#e0e0e0" stroke="#999999" points="2261.25,-30.5 2128.25,-30.5 2128.25,0 2261.25,0 2261.25,-30.5"/>
<text text-anchor="start" x="2136.25" y="-17" font-family="Helvetica,sans-Serif" font-size="10.00">mlir/Bytecode/BytecodeOp</text>
<text text-anchor="middle" x="2194.75" y="-5.75" font-family="Helvetica,sans-Serif" font-size="10.00">Interface.h</text>
</a>
</g>
</g>
<!-- Node9&#45;&gt;Node13 -->
<g id="edge12_Node000009_Node000013" class="edge">
<title>Node9&#45;&gt;Node13</title>
<g id="a_edge12_Node000009_Node000013"><a xlink:title=" ">
<path fill="none" stroke="#63b8ff" d="M1251.52,-80.34C1389.23,-78.73 1781.48,-70.79 2116.37,-30.81"/>
<polygon fill="#63b8ff" stroke="#63b8ff" points="2116.75,-34.29 2126.26,-29.62 2115.91,-27.34 2116.75,-34.29"/>
</a>
</g>
</g>
<!-- Node14 -->
<g id="Node000014" class="node">
<title>Node14</title>
<g id="a_Node000014"><a xlink:title=" ">
<polygon fill="#e0e0e0" stroke="#999999" points="445.62,-30.5 341.88,-30.5 341.88,0 445.62,0 445.62,-30.5"/>
<text text-anchor="start" x="349.88" y="-17" font-family="Helvetica,sans-Serif" font-size="10.00">mlir/Dialect/Func/IR</text>
<text text-anchor="middle" x="393.75" y="-5.75" font-family="Helvetica,sans-Serif" font-size="10.00">/FuncOps.h</text>
</a>
</g>
</g>
<!-- Node9&#45;&gt;Node14 -->
<g id="edge13_Node000009_Node000014" class="edge">
<title>Node9&#45;&gt;Node14</title>
<g id="a_edge13_Node000009_Node000014"><a xlink:title=" ">
<path fill="none" stroke="#63b8ff" d="M1150.14,-77.4C995.72,-67.15 536.73,-36.66 457.23,-30.09"/>
<polygon fill="#63b8ff" stroke="#63b8ff" points="457.68,-26.62 447.39,-29.16 457.02,-33.59 457.68,-26.62"/>
</a>
</g>
</g>
<!-- Node15 -->
<g id="Node000015" class="node">
<title>Node15</title>
<g id="a_Node000015"><a xlink:title=" ">
<polygon fill="#e0e0e0" stroke="#999999" points="565.5,-24.88 464,-24.88 464,-5.63 565.5,-5.63 565.5,-24.88"/>
<text text-anchor="middle" x="514.75" y="-11.38" font-family="Helvetica,sans-Serif" font-size="10.00">mlir/IR/BuiltinOps.h</text>
</a>
</g>
</g>
<!-- Node9&#45;&gt;Node15 -->
<g id="edge14_Node000009_Node000015" class="edge">
<title>Node9&#45;&gt;Node15</title>
<g id="a_edge14_Node000009_Node000015"><a xlink:title=" ">
<path fill="none" stroke="#63b8ff" d="M1149.95,-76.68C1001.14,-64.78 576.53,-30.78 574.75,-30.5 570.05,-29.76 565.17,-28.84 560.33,-27.84"/>
<polygon fill="#63b8ff" stroke="#63b8ff" points="561.15,-24.44 550.63,-25.7 559.64,-31.27 561.15,-24.44"/>
</a>
</g>
</g>
<!-- Node16 -->
<g id="Node000016" class="node">
<title>Node16</title>
<g id="a_Node000016"><a xlink:title=" ">
<polygon fill="#e0e0e0" stroke="#999999" points="694,-24.88 583.5,-24.88 583.5,-5.63 694,-5.63 694,-24.88"/>
<text text-anchor="middle" x="638.75" y="-11.38" font-family="Helvetica,sans-Serif" font-size="10.00">mlir/IR/OpDefinition.h</text>
</a>
</g>
</g>
<!-- Node9&#45;&gt;Node16 -->
<g id="edge15_Node000009_Node000016" class="edge">
<title>Node9&#45;&gt;Node16</title>
<g id="a_edge15_Node000009_Node000016"><a xlink:title=" ">
<path fill="none" stroke="#63b8ff" d="M1149.88,-75.56C1123.32,-72.85 1090.28,-69.49 1060.75,-66.5 901.65,-50.4 860.63,-55.92 702.75,-30.5 697.75,-29.69 692.55,-28.74 687.37,-27.71"/>
<polygon fill="#63b8ff" stroke="#63b8ff" points="688.16,-24.3 677.65,-25.67 686.72,-31.15 688.16,-24.3"/>
</a>
</g>
</g>
<!-- Node17 -->
<g id="Node000017" class="node">
<title>Node17</title>
<g id="a_Node000017"><a xlink:title=" ">
<polygon fill="#e0e0e0" stroke="#999999" points="847.75,-24.88 711.75,-24.88 711.75,-5.63 847.75,-5.63 847.75,-24.88"/>
<text text-anchor="middle" x="779.75" y="-11.38" font-family="Helvetica,sans-Serif" font-size="10.00">mlir/IR/OpImplementation.h</text>
</a>
</g>
</g>
<!-- Node9&#45;&gt;Node17 -->
<g id="edge16_Node000009_Node000017" class="edge">
<title>Node9&#45;&gt;Node17</title>
<g id="a_edge16_Node000009_Node000017"><a xlink:title=" ">
<path fill="none" stroke="#63b8ff" d="M1150.08,-73.59C1068.63,-62.04 912.13,-39.67 856.75,-30.5 850.8,-29.51 844.6,-28.44 838.41,-27.34"/>
<polygon fill="#63b8ff" stroke="#63b8ff" points="839.3,-23.95 828.84,-25.62 838.06,-30.84 839.3,-23.95"/>
</a>
</g>
</g>
<!-- Node18 -->
<g id="Node000018" class="node">
<title>Node18</title>
<g id="a_Node000018"><a xlink:title=" ">
<polygon fill="#e0e0e0" stroke="#999999" points="1015.88,-24.88 865.62,-24.88 865.62,-5.63 1015.88,-5.63 1015.88,-24.88"/>
<text text-anchor="middle" x="940.75" y="-11.38" font-family="Helvetica,sans-Serif" font-size="10.00">mlir/Interfaces/CallInterfaces.h</text>
</a>
</g>
</g>
<!-- Node9&#45;&gt;Node18 -->
<g id="edge17_Node000009_Node000018" class="edge">
<title>Node9&#45;&gt;Node18</title>
<g id="a_edge17_Node000009_Node000018"><a xlink:title=" ">
<path fill="none" stroke="#63b8ff" d="M1150,-68.16C1103.27,-56.57 1034.45,-39.5 988.65,-28.13"/>
<polygon fill="#63b8ff" stroke="#63b8ff" points="989.54,-24.75 979,-25.74 987.86,-31.54 989.54,-24.75"/>
</a>
</g>
</g>
<!-- Node19 -->
<g id="Node000019" class="node">
<title>Node19</title>
<g id="a_Node000019"><a xlink:title=" ">
<polygon fill="#e0e0e0" stroke="#999999" points="1298.62,-30.5 1164.88,-30.5 1164.88,0 1298.62,0 1298.62,-30.5"/>
<text text-anchor="start" x="1172.88" y="-17" font-family="Helvetica,sans-Serif" font-size="10.00">mlir/Interfaces/ControlFlow</text>
<text text-anchor="middle" x="1231.75" y="-5.75" font-family="Helvetica,sans-Serif" font-size="10.00">Interfaces.h</text>
</a>
</g>
</g>
<!-- Node9&#45;&gt;Node19 -->
<g id="edge18_Node000009_Node000019" class="edge">
<title>Node9&#45;&gt;Node19</title>
<g id="a_edge18_Node000009_Node000019"><a xlink:title=" ">
<path fill="none" stroke="#63b8ff" d="M1207.78,-66.11C1211.35,-58.69 1215.78,-49.47 1219.86,-40.99"/>
<polygon fill="#63b8ff" stroke="#63b8ff" points="1222.91,-42.72 1224.09,-32.19 1216.6,-39.69 1222.91,-42.72"/>
</a>
</g>
</g>
<!-- Node20 -->
<g id="Node000020" class="node">
<title>Node20</title>
<g id="a_Node000020"><a xlink:title=" ">
<polygon fill="#e0e0e0" stroke="#999999" points="1435.12,-30.5 1316.38,-30.5 1316.38,0 1435.12,0 1435.12,-30.5"/>
<text text-anchor="start" x="1324.38" y="-17" font-family="Helvetica,sans-Serif" font-size="10.00">mlir/Interfaces/Function</text>
<text text-anchor="middle" x="1375.75" y="-5.75" font-family="Helvetica,sans-Serif" font-size="10.00">Interfaces.h</text>
</a>
</g>
</g>
<!-- Node9&#45;&gt;Node20 -->
<g id="edge20_Node000009_Node000020" class="edge">
<title>Node9&#45;&gt;Node20</title>
<g id="a_edge20_Node000009_Node000020"><a xlink:title=" ">
<path fill="none" stroke="#63b8ff" d="M1240.46,-66.11C1265.54,-56.87 1298.18,-44.84 1325.12,-34.91"/>
<polygon fill="#63b8ff" stroke="#63b8ff" points="1326.3,-38.21 1334.47,-31.46 1323.88,-31.64 1326.3,-38.21"/>
</a>
</g>
</g>
<!-- Node21 -->
<g id="Node000021" class="node">
<title>Node21</title>
<g id="a_Node000021"><a xlink:title=" ">
<polygon fill="#e0e0e0" stroke="#999999" points="1574.62,-30.5 1452.88,-30.5 1452.88,0 1574.62,0 1574.62,-30.5"/>
<text text-anchor="start" x="1460.88" y="-17" font-family="Helvetica,sans-Serif" font-size="10.00">mlir/Interfaces/InferType</text>
<text text-anchor="middle" x="1513.75" y="-5.75" font-family="Helvetica,sans-Serif" font-size="10.00">OpInterface.h</text>
</a>
</g>
</g>
<!-- Node9&#45;&gt;Node21 -->
<g id="edge21_Node000009_Node000021" class="edge">
<title>Node9&#45;&gt;Node21</title>
<g id="a_edge21_Node000009_Node000021"><a xlink:title=" ">
<path fill="none" stroke="#63b8ff" d="M1251.39,-70.32C1302.91,-59.7 1383.26,-43.14 1441.47,-31.14"/>
<polygon fill="#63b8ff" stroke="#63b8ff" points="1441.87,-34.64 1450.95,-29.19 1440.45,-27.78 1441.87,-34.64"/>
</a>
</g>
</g>
<!-- Node22 -->
<g id="Node000022" class="node">
<title>Node22</title>
<g id="a_Node000022"><a xlink:title=" ">
<polygon fill="#e0e0e0" stroke="#999999" points="1719.25,-30.5 1592.25,-30.5 1592.25,0 1719.25,0 1719.25,-30.5"/>
<text text-anchor="start" x="1600.25" y="-17" font-family="Helvetica,sans-Serif" font-size="10.00">mlir/Interfaces/SideEffect</text>
<text text-anchor="middle" x="1655.75" y="-5.75" font-family="Helvetica,sans-Serif" font-size="10.00">Interfaces.h</text>
</a>
</g>
</g>
<!-- Node9&#45;&gt;Node22 -->
<g id="edge22_Node000009_Node000022" class="edge">
<title>Node9&#45;&gt;Node22</title>
<g id="a_edge22_Node000009_Node000022"><a xlink:title=" ">
<path fill="none" stroke="#63b8ff" d="M1251.4,-75.17C1322.7,-67.07 1456.97,-50.98 1580.63,-30.95"/>
<polygon fill="#63b8ff" stroke="#63b8ff" points="1581,-34.44 1590.31,-29.37 1579.87,-27.53 1581,-34.44"/>
</a>
</g>
</g>
<!-- Node23 -->
<g id="Node000023" class="node">
<title>Node23</title>
<g id="a_Node000023"><a xlink:href="_op_interfaces_8h_8inc.html" target="_top" xlink:title=" ">
<polygon fill="white" stroke="#666666" points="1147.12,-30.5 1034.38,-30.5 1034.38,0 1147.12,0 1147.12,-30.5"/>
<text text-anchor="start" x="1042.38" y="-17" font-family="Helvetica,sans-Serif" font-size="10.00">zklang/Dialect/ZML</text>
<text text-anchor="middle" x="1090.75" y="-5.75" font-family="Helvetica,sans-Serif" font-size="10.00">/IR/OpInterfaces.h.inc</text>
</a>
</g>
</g>
<!-- Node9&#45;&gt;Node23 -->
<g id="edge23_Node000009_Node000023" class="edge">
<title>Node9&#45;&gt;Node23</title>
<g id="a_edge23_Node000009_Node000023"><a xlink:title=" ">
<path fill="none" stroke="#63b8ff" d="M1175.79,-66.11C1160.88,-57.37 1141.73,-46.14 1125.37,-36.55"/>
<polygon fill="#63b8ff" stroke="#63b8ff" points="1127.31,-33.63 1116.92,-31.59 1123.77,-39.67 1127.31,-33.63"/>
</a>
</g>
</g>
<!-- Node36 -->
<g id="Node000036" class="node">
<title>Node36</title>
<g id="a_Node000036"><a xlink:title=" ">
<polygon fill="#e0e0e0" stroke="#999999" points="2480.75,-157.88 2326.75,-157.88 2326.75,-138.62 2480.75,-138.62 2480.75,-157.88"/>
<text text-anchor="middle" x="2403.75" y="-144.38" font-family="Helvetica,sans-Serif" font-size="10.00">mlir/IR/DialectImplementation.h</text>
</a>
</g>
</g>
<!-- Node35&#45;&gt;Node36 -->
<g id="edge36_Node000035_Node000036" class="edge">
<title>Node35&#45;&gt;Node36</title>
<g id="a_edge36_Node000035_Node000036"><a xlink:title=" ">
<path fill="none" stroke="#63b8ff" d="M2375.15,-199.11C2380.47,-189.83 2387.4,-177.75 2393.11,-167.8"/>
<polygon fill="#63b8ff" stroke="#63b8ff" points="2396,-169.8 2397.94,-159.39 2389.92,-166.32 2396,-169.8"/>
</a>
</g>
</g>
<!-- Node37 -->
<g id="Node000037" class="node">
<title>Node37</title>
<g id="a_Node000037"><a xlink:href="_attrs_8h_8inc.html" target="_top" xlink:title=" ">
<polygon fill="white" stroke="#666666" points="2309.12,-163.5 2208.38,-163.5 2208.38,-133 2309.12,-133 2309.12,-163.5"/>
<text text-anchor="start" x="2216.38" y="-150" font-family="Helvetica,sans-Serif" font-size="10.00">zklang/Dialect/ZML</text>
<text text-anchor="middle" x="2258.75" y="-138.75" font-family="Helvetica,sans-Serif" font-size="10.00">/IR/Attrs.h.inc</text>
</a>
</g>
</g>
<!-- Node35&#45;&gt;Node37 -->
<g id="edge37_Node000035_Node000037" class="edge">
<title>Node35&#45;&gt;Node37</title>
<g id="a_edge37_Node000035_Node000037"><a xlink:title=" ">
<path fill="none" stroke="#63b8ff" d="M2342.24,-199.11C2327.61,-190.37 2308.8,-179.14 2292.74,-169.55"/>
<polygon fill="#63b8ff" stroke="#63b8ff" points="2294.84,-166.73 2284.46,-164.6 2291.25,-172.74 2294.84,-166.73"/>
</a>
</g>
</g>
<!-- Node38&#45;&gt;Node2 -->
<g id="edge54_Node000038_Node000002" class="edge">
<title>Node38&#45;&gt;Node2</title>
<g id="a_edge54_Node000038_Node000002"><a xlink:title=" ">
<path fill="none" stroke="#63b8ff" d="M1101.1,-206.54C1017.52,-194.64 850.98,-170.93 760.59,-158.05"/>
<polygon fill="#63b8ff" stroke="#63b8ff" points="761.31,-154.62 750.91,-156.68 760.32,-161.55 761.31,-154.62"/>
</a>
</g>
</g>
<!-- Node38&#45;&gt;Node7 -->
<g id="edge49_Node000038_Node000007" class="edge">
<title>Node38&#45;&gt;Node7</title>
<g id="a_edge49_Node000038_Node000007"><a xlink:title=" ">
<path fill="none" stroke="#63b8ff" d="M1100.9,-199.88C1074.9,-191.53 1043.41,-179.4 1017.75,-163.5 1016.07,-162.46 915.56,-67.28 913.75,-66.5 798.05,-16.73 478.56,-45.02 335.18,-30.56"/>
<polygon fill="#63b8ff" stroke="#63b8ff" points="335.77,-27.11 325.44,-29.46 334.98,-34.06 335.77,-27.11"/>
</a>
</g>
</g>
<!-- Node38&#45;&gt;Node9 -->
<g id="edge53_Node000038_Node000009" class="edge">
<title>Node38&#45;&gt;Node9</title>
<g id="a_edge53_Node000038_Node000009"><a xlink:title=" ">
<path fill="none" stroke="#63b8ff" d="M1157.18,-199.23C1165.42,-177.2 1181.2,-135.02 1191.33,-107.92"/>
<polygon fill="#63b8ff" stroke="#63b8ff" points="1194.54,-109.34 1194.76,-98.75 1187.98,-106.89 1194.54,-109.34"/>
</a>
</g>
</g>
<!-- Node38&#45;&gt;Node10 -->
<g id="edge39_Node000038_Node000010" class="edge">
<title>Node38&#45;&gt;Node10</title>
<g id="a_edge39_Node000038_Node000010"><a xlink:title=" ">
<path fill="none" stroke="#63b8ff" d="M1202.59,-201.45C1205.35,-200.79 1208.08,-200.14 1210.75,-199.5 1278.7,-183.3 1296.64,-182.91 1363.75,-163.5 1512.12,-120.58 1684.95,-56.54 1756.77,-29.28"/>
<polygon fill="#63b8ff" stroke="#63b8ff" points="1757.89,-32.6 1765.99,-25.77 1755.4,-26.06 1757.89,-32.6"/>
</a>
</g>
</g>
<!-- Node38&#45;&gt;Node11 -->
<g id="edge40_Node000038_Node000011" class="edge">
<title>Node38&#45;&gt;Node11</title>
<g id="a_edge40_Node000038_Node000011"><a xlink:title=" ">
<path fill="none" stroke="#63b8ff" d="M1202.55,-201.24C1205.32,-200.64 1208.07,-200.05 1210.75,-199.5 1304.8,-180.22 1330.21,-185.13 1423.75,-163.5 1598.79,-123.04 1803.05,-56.56 1885.47,-28.92"/>
<polygon fill="#63b8ff" stroke="#63b8ff" points="1886.48,-32.27 1894.84,-25.77 1884.24,-25.64 1886.48,-32.27"/>
</a>
</g>
</g>
<!-- Node38&#45;&gt;Node12 -->
<g id="edge41_Node000038_Node000012" class="edge">
<title>Node38&#45;&gt;Node12</title>
<g id="a_edge41_Node000038_Node000012"><a xlink:title=" ">
<path fill="none" stroke="#63b8ff" d="M1202.52,-201.11C1205.3,-200.53 1208.06,-199.99 1210.75,-199.5 1336.77,-176.42 1370.98,-187.87 1496.75,-163.5 1693.99,-125.28 1924.58,-56.79 2015.75,-28.75"/>
<polygon fill="#63b8ff" stroke="#63b8ff" points="2016.7,-32.12 2025.22,-25.82 2014.64,-25.43 2016.7,-32.12"/>
</a>
</g>
</g>
<!-- Node38&#45;&gt;Node13 -->
<g id="edge42_Node000038_Node000013" class="edge">
<title>Node38&#45;&gt;Node13</title>
<g id="a_edge42_Node000038_Node000013"><a xlink:title=" ">
<path fill="none" stroke="#63b8ff" d="M1202.51,-201.02C1205.29,-200.47 1208.05,-199.96 1210.75,-199.5 1371.91,-172.25 1415.54,-190.5 1576.75,-163.5 1782.62,-129.01 2021.85,-65.04 2132.6,-34.03"/>
<polygon fill="#63b8ff" stroke="#63b8ff" points="2133.42,-37.44 2142.1,-31.36 2131.52,-30.7 2133.42,-37.44"/>
</a>
</g>
</g>
<!-- Node38&#45;&gt;Node14 -->
<g id="edge43_Node000038_Node000014" class="edge">
<title>Node38&#45;&gt;Node14</title>
<g id="a_edge43_Node000038_Node000014"><a xlink:title=" ">
<path fill="none" stroke="#63b8ff" d="M1117.85,-199.07C1098.38,-189.98 1073.88,-177.42 1053.75,-163.5 1040.55,-154.37 961.5,-72.82 946.75,-66.5 849.03,-24.64 580.08,-45.65 456.98,-30.52"/>
<polygon fill="#63b8ff" stroke="#63b8ff" points="457.77,-27.1 447.39,-29.2 456.82,-34.03 457.77,-27.1"/>
</a>
</g>
</g>
<!-- Node38&#45;&gt;Node15 -->
<g id="edge44_Node000038_Node000015" class="edge">
<title>Node38&#45;&gt;Node15</title>
<g id="a_edge44_Node000038_Node000015"><a xlink:title=" ">
<path fill="none" stroke="#63b8ff" d="M1132.06,-199.02C1119.21,-189.23 1102.21,-175.94 1087.75,-163.5 1075.83,-153.25 999.09,-72.93 984.75,-66.5 901.29,-29.08 665.04,-45.11 574.75,-30.5 570.05,-29.74 565.18,-28.81 560.33,-27.8"/>
<polygon fill="#63b8ff" stroke="#63b8ff" points="561.16,-24.4 550.64,-25.66 559.64,-31.24 561.16,-24.4"/>
</a>
</g>
</g>
<!-- Node38&#45;&gt;Node16 -->
<g id="edge45_Node000038_Node000016" class="edge">
<title>Node38&#45;&gt;Node16</title>
<g id="a_edge45_Node000038_Node000016"><a xlink:title=" ">
<path fill="none" stroke="#63b8ff" d="M1141.2,-199.23C1116.21,-165.3 1053.25,-82.44 1022.75,-66.5 895.92,-0.2 843.91,-54.09 702.75,-30.5 697.82,-29.68 692.69,-28.71 687.59,-27.69"/>
<polygon fill="#63b8ff" stroke="#63b8ff" points="688.51,-24.31 678,-25.67 687.07,-31.16 688.51,-24.31"/>
</a>
</g>
</g>
<!-- Node38&#45;&gt;Node17 -->
<g id="edge46_Node000038_Node000017" class="edge">
<title>Node38&#45;&gt;Node17</title>
<g id="a_edge46_Node000038_Node000017"><a xlink:title=" ">
<path fill="none" stroke="#63b8ff" d="M1147.28,-199.19C1137.22,-169.02 1109.75,-99.73 1060.75,-66.5 984.55,-14.82 947.35,-46.88 856.75,-30.5 851.21,-29.5 845.44,-28.45 839.67,-27.39"/>
<polygon fill="#63b8ff" stroke="#63b8ff" points="840.58,-24 830.11,-25.63 839.31,-30.88 840.58,-24"/>
</a>
</g>
</g>
<!-- Node38&#45;&gt;Node18 -->
<g id="edge47_Node000038_Node000018" class="edge">
<title>Node38&#45;&gt;Node18</title>
<g id="a_edge47_Node000038_Node000018"><a xlink:title=" ">
<path fill="none" stroke="#63b8ff" d="M1150.7,-199.36C1147.8,-170.13 1137.11,-103.44 1098.75,-66.5 1083.57,-51.88 1034.09,-37.55 994.49,-27.96"/>
<polygon fill="#63b8ff" stroke="#63b8ff" points="995.37,-24.57 984.84,-25.67 993.76,-31.38 995.37,-24.57"/>
</a>
</g>
</g>
<!-- Node38&#45;&gt;Node19 -->
<g id="edge48_Node000038_Node000019" class="edge">
<title>Node38&#45;&gt;Node19</title>
<g id="a_edge48_Node000038_Node000019"><a xlink:title=" ">
<path fill="none" stroke="#63b8ff" d="M1172.5,-199.26C1198.63,-179.59 1242.23,-141.74 1259.75,-97 1267.14,-78.12 1258.67,-56.39 1249.16,-40.23"/>
<polygon fill="#63b8ff" stroke="#63b8ff" points="1252.38,-38.78 1244.05,-32.24 1246.48,-42.55 1252.38,-38.78"/>
</a>
</g>
</g>
<!-- Node38&#45;&gt;Node20 -->
<g id="edge50_Node000038_Node000020" class="edge">
<title>Node38&#45;&gt;Node20</title>
<g id="a_edge50_Node000038_Node000020"><a xlink:title=" ">
<path fill="none" stroke="#63b8ff" d="M1183.33,-199.01C1201.06,-189.99 1223.11,-177.52 1240.75,-163.5 1288.49,-125.57 1334.33,-70.29 1358.36,-39.38"/>
<polygon fill="#63b8ff" stroke="#63b8ff" points="1360.86,-41.87 1364.18,-31.81 1355.31,-37.61 1360.86,-41.87"/>
</a>
</g>
</g>
<!-- Node38&#45;&gt;Node21 -->
<g id="edge51_Node000038_Node000021" class="edge">
<title>Node38&#45;&gt;Node21</title>
<g id="a_edge51_Node000038_Node000021"><a xlink:title=" ">
<path fill="none" stroke="#63b8ff" d="M1190.44,-199.07C1214.04,-189.71 1244.59,-176.86 1270.75,-163.5 1349.37,-123.35 1436.82,-67.37 1482.34,-37.32"/>
<polygon fill="#63b8ff" stroke="#63b8ff" points="1484.26,-40.24 1490.66,-31.8 1480.39,-34.41 1484.26,-40.24"/>
</a>
</g>
</g>
<!-- Node38&#45;&gt;Node22 -->
<g id="edge52_Node000038_Node000022" class="edge">
<title>Node38&#45;&gt;Node22</title>
<g id="a_edge52_Node000038_Node000022"><a xlink:title=" ">
<path fill="none" stroke="#63b8ff" d="M1202.27,-199.3C1233.98,-189.88 1275.57,-176.89 1311.75,-163.5 1422.85,-122.39 1550.21,-65.14 1614.3,-35.59"/>
<polygon fill="#63b8ff" stroke="#63b8ff" points="1615.42,-38.93 1623.03,-31.56 1612.48,-32.58 1615.42,-38.93"/>
</a>
</g>
</g>
<!-- Node38&#45;&gt;Node24 -->
<g id="edge55_Node000038_Node000024" class="edge">
<title>Node38&#45;&gt;Node24</title>
<g id="a_edge55_Node000038_Node000024"><a xlink:title=" ">
<path fill="none" stroke="#63b8ff" d="M1101.28,-212.57C1051.45,-209.29 974.79,-198.36 918.75,-163.5 896.55,-149.69 878.84,-125.34 867.73,-106.97"/>
<polygon fill="#63b8ff" stroke="#63b8ff" points="870.9,-105.46 862.86,-98.55 864.84,-108.96 870.9,-105.46"/>
</a>
</g>
</g>
</g>
</svg>
