<?xml version="1.0" encoding="UTF-8" standalone="no"?>
<!DOCTYPE svg PUBLIC "-//W3C//DTD SVG 1.1//EN"
 "http://www.w3.org/Graphics/SVG/1.1/DTD/svg11.dtd">
<!-- Generated by graphviz version 12.2.1 (20241206.2353)
 -->
<!-- Title: include/zklang/Dialect/ZHL/Typing/Typing.h Pages: 1 -->
<svg width="471pt" height="172pt"
 viewBox="0.00 0.00 470.62 171.50" xmlns="http://www.w3.org/2000/svg" xmlns:xlink="http://www.w3.org/1999/xlink">
<g id="graph0" class="graph" transform="scale(1 1) rotate(0) translate(4 167.5)">
<title>include/zklang/Dialect/ZHL/Typing/Typing.h</title>
<!-- Node1 -->
<g id="Node000001" class="node">
<title>Node1</title>
<g id="a_Node000001"><a xlink:title=" ">
<polygon fill="#999999" stroke="#666666" points="285.38,-163.5 173.38,-163.5 173.38,-133 285.38,-133 285.38,-163.5"/>
<text text-anchor="start" x="181.38" y="-150" font-family="Helvetica,sans-Serif" font-size="10.00">include/zklang/Dialect</text>
<text text-anchor="middle" x="229.38" y="-138.75" font-family="Helvetica,sans-Serif" font-size="10.00">/ZHL/Typing/Typing.h</text>
</a>
</g>
</g>
<!-- Node2 -->
<g id="Node000002" class="node">
<title>Node2</title>
<g id="a_Node000002"><a xlink:href="_rules_8h.html" target="_top" xlink:title=" ">
<polygon fill="white" stroke="#666666" points="159.38,-97 47.38,-97 47.38,-66.5 159.38,-66.5 159.38,-97"/>
<text text-anchor="start" x="55.38" y="-83.5" font-family="Helvetica,sans-Serif" font-size="10.00">include/zklang/Dialect</text>
<text text-anchor="middle" x="103.38" y="-72.25" font-family="Helvetica,sans-Serif" font-size="10.00">/ZHL/Typing/Rules.h</text>
</a>
</g>
</g>
<!-- Node1&#45;&gt;Node2 -->
<g id="edge1_Node000001_Node000002" class="edge">
<title>Node1&#45;&gt;Node2</title>
<g id="a_edge1_Node000001_Node000002"><a xlink:title=" ">
<path fill="none" stroke="#63b8ff" d="M190.65,-127.43C171.68,-117.71 149.23,-106.22 131.85,-97.33"/>
<polygon fill="#63b8ff" stroke="#63b8ff" points="188.94,-130.48 199.44,-131.92 192.13,-124.25 188.94,-130.48"/>
</a>
</g>
</g>
<!-- Node4 -->
<g id="Node000004" class="node">
<title>Node4</title>
<g id="a_Node000004"><a xlink:href="_typing_8cpp.html" target="_top" xlink:title=" ">
<polygon fill="white" stroke="#666666" points="243.75,-30.5 131,-30.5 131,0 243.75,0 243.75,-30.5"/>
<text text-anchor="start" x="139" y="-17" font-family="Helvetica,sans-Serif" font-size="10.00">lib/Dialect/ZHL/Typing</text>
<text text-anchor="middle" x="187.38" y="-5.75" font-family="Helvetica,sans-Serif" font-size="10.00">/Typing.cpp</text>
</a>
</g>
</g>
<!-- Node1&#45;&gt;Node4 -->
<g id="edge6_Node000001_Node000004" class="edge">
<title>Node1&#45;&gt;Node4</title>
<g id="a_edge6_Node000001_Node000004"><a xlink:title=" ">
<path fill="none" stroke="#63b8ff" d="M216.85,-122.47C213.14,-114.48 209.28,-105.49 206.38,-97 198.62,-74.38 192.94,-47.15 189.89,-30.79"/>
<polygon fill="#63b8ff" stroke="#63b8ff" points="213.59,-123.76 221.08,-131.25 219.9,-120.72 213.59,-123.76"/>
</a>
</g>
</g>
<!-- Node5 -->
<g id="Node000005" class="node">
<title>Node5</title>
<g id="a_Node000005"><a xlink:href="_analysis_8cpp.html" target="_top" xlink:title=" ">
<polygon fill="white" stroke="#666666" points="327.75,-97 215,-97 215,-66.5 327.75,-66.5 327.75,-97"/>
<text text-anchor="start" x="223" y="-83.5" font-family="Helvetica,sans-Serif" font-size="10.00">lib/Dialect/ZHL/Typing</text>
<text text-anchor="middle" x="271.38" y="-72.25" font-family="Helvetica,sans-Serif" font-size="10.00">/Analysis.cpp</text>
</a>
</g>
</g>
<!-- Node1&#45;&gt;Node5 -->
<g id="edge4_Node000001_Node000005" class="edge">
<title>Node1&#45;&gt;Node5</title>
<g id="a_edge4_Node000001_Node000005"><a xlink:title=" ">
<path fill="none" stroke="#63b8ff" d="M245.16,-123.01C250.79,-114.37 256.95,-104.91 261.88,-97.33"/>
<polygon fill="#63b8ff" stroke="#63b8ff" points="242.26,-121.06 239.73,-131.35 248.12,-124.88 242.26,-121.06"/>
</a>
</g>
</g>
<!-- Node6 -->
<g id="Node000006" class="node">
<title>Node6</title>
<g id="a_Node000006"><a xlink:href="_print_type_bindings_8cpp.html" target="_top" xlink:title=" ">
<polygon fill="white" stroke="#666666" points="462.62,-97 346.12,-97 346.12,-66.5 462.62,-66.5 462.62,-97"/>
<text text-anchor="start" x="354.12" y="-83.5" font-family="Helvetica,sans-Serif" font-size="10.00">lib/Dialect/ZHL/Typing</text>
<text text-anchor="middle" x="404.38" y="-72.25" font-family="Helvetica,sans-Serif" font-size="10.00">/PrintTypeBindings.cpp</text>
</a>
</g>
</g>
<!-- Node1&#45;&gt;Node6 -->
<g id="edge5_Node000001_Node000006" class="edge">
<title>Node1&#45;&gt;Node6</title>
<g id="a_edge5_Node000001_Node000006"><a xlink:title=" ">
<path fill="none" stroke="#63b8ff" d="M279.85,-128.65C306.76,-118.73 339.41,-106.7 364.52,-97.44"/>
<polygon fill="#63b8ff" stroke="#63b8ff" points="278.68,-125.35 270.51,-132.09 281.1,-131.92 278.68,-125.35"/>
</a>
</g>
</g>
<!-- Node3 -->
<g id="Node000003" class="node">
<title>Node3</title>
<g id="a_Node000003"><a xlink:href="_rules_8cpp.html" target="_top" xlink:title=" ">
<polygon fill="white" stroke="#666666" points="112.75,-30.5 0,-30.5 0,0 112.75,0 112.75,-30.5"/>
<text text-anchor="start" x="8" y="-17" font-family="Helvetica,sans-Serif" font-size="10.00">lib/Dialect/ZHL/Typing</text>
<text text-anchor="middle" x="56.38" y="-5.75" font-family="Helvetica,sans-Serif" font-size="10.00">/Rules.cpp</text>
</a>
</g>
</g>
<!-- Node2&#45;&gt;Node3 -->
<g id="edge2_Node000002_Node000003" class="edge">
<title>Node2&#45;&gt;Node3</title>
<g id="a_edge2_Node000002_Node000003"><a xlink:title=" ">
<path fill="none" stroke="#63b8ff" d="M86.12,-57.07C79.71,-48.28 72.64,-38.57 67,-30.83"/>
<polygon fill="#63b8ff" stroke="#63b8ff" points="83.1,-58.87 91.82,-64.89 88.76,-54.75 83.1,-58.87"/>
</a>
</g>
</g>
<!-- Node2&#45;&gt;Node4 -->
<g id="edge3_Node000002_Node000004" class="edge">
<title>Node2&#45;&gt;Node4</title>
<g id="a_edge3_Node000002_Node000004"><a xlink:title=" ">
<path fill="none" stroke="#63b8ff" d="M131.32,-59.29C143.49,-49.94 157.45,-39.23 168.39,-30.83"/>
<polygon fill="#63b8ff" stroke="#63b8ff" points="129.44,-56.33 123.64,-65.19 133.7,-61.88 129.44,-56.33"/>
</a>
</g>
</g>
</g>
</svg>
