<?xml version="1.0" encoding="UTF-8" standalone="no"?>
<!DOCTYPE svg PUBLIC "-//W3C//DTD SVG 1.1//EN"
 "http://www.w3.org/Graphics/SVG/1.1/DTD/svg11.dtd">
<!-- Generated by graphviz version 12.2.1 (20241206.2353)
 -->
<!-- Title: include/zklang/Dialect/ZHL/Typing/TypeBinding.h Pages: 1 -->
<svg width="2037pt" height="305pt"
 viewBox="0.00 0.00 2036.75 304.50" xmlns="http://www.w3.org/2000/svg" xmlns:xlink="http://www.w3.org/1999/xlink">
<g id="graph0" class="graph" transform="scale(1 1) rotate(0) translate(4 300.5)">
<title>include/zklang/Dialect/ZHL/Typing/TypeBinding.h</title>
<!-- Node1 -->
<g id="Node000001" class="node">
<title>Node1</title>
<g id="a_Node000001"><a xlink:title=" ">
<polygon fill="#999999" stroke="#666666" points="836,-296.5 702.25,-296.5 702.25,-266 836,-266 836,-296.5"/>
<text text-anchor="start" x="710.25" y="-283" font-family="Helvetica,sans-Serif" font-size="10.00">include/zklang/Dialect</text>
<text text-anchor="middle" x="769.12" y="-271.75" font-family="Helvetica,sans-Serif" font-size="10.00">/ZHL/Typing/TypeBinding.h</text>
</a>
</g>
</g>
<!-- Node2 -->
<g id="Node000002" class="node">
<title>Node2</title>
<g id="a_Node000002"><a xlink:title=" ">
<polygon fill="#e0e0e0" stroke="#999999" points="48.25,-91.38 0,-91.38 0,-72.12 48.25,-72.12 48.25,-91.38"/>
<text text-anchor="middle" x="24.12" y="-77.88" font-family="Helvetica,sans-Serif" font-size="10.00">cassert</text>
</a>
</g>
</g>
<!-- Node1&#45;&gt;Node2 -->
<g id="edge1_Node000001_Node000002" class="edge">
<title>Node1&#45;&gt;Node2</title>
<g id="a_edge1_Node000001_Node000002"><a xlink:title=" ">
<path fill="none" stroke="#63b8ff" d="M701.95,-278.06C578.96,-273.37 322.55,-260.22 239.12,-230 156.73,-200.16 75.94,-131.18 41.49,-99.37"/>
<polygon fill="#63b8ff" stroke="#63b8ff" points="44.19,-97.1 34.5,-92.82 39.41,-102.21 44.19,-97.1"/>
</a>
</g>
</g>
<!-- Node3 -->
<g id="Node000003" class="node">
<title>Node3</title>
<g id="a_Node000003"><a xlink:title=" ">
<polygon fill="#e0e0e0" stroke="#999999" points="918.75,-157.88 873.5,-157.88 873.5,-138.62 918.75,-138.62 918.75,-157.88"/>
<text text-anchor="middle" x="896.12" y="-144.38" font-family="Helvetica,sans-Serif" font-size="10.00">cstdint</text>
</a>
</g>
</g>
<!-- Node1&#45;&gt;Node3 -->
<g id="edge2_Node000001_Node000003" class="edge">
<title>Node1&#45;&gt;Node3</title>
<g id="a_edge2_Node000001_Node000003"><a xlink:title=" ">
<path fill="none" stroke="#63b8ff" d="M806.9,-265.71C824.56,-257.4 844.8,-245.51 859.12,-230 875.2,-212.59 885.3,-187 890.82,-169.31"/>
<polygon fill="#63b8ff" stroke="#63b8ff" points="894.17,-170.32 893.56,-159.75 887.44,-168.39 894.17,-170.32"/>
</a>
</g>
</g>
<!-- Node4 -->
<g id="Node000004" class="node">
<title>Node4</title>
<g id="a_Node000004"><a xlink:title=" ">
<polygon fill="#e0e0e0" stroke="#999999" points="395.12,-224.38 301.12,-224.38 301.12,-205.12 395.12,-205.12 395.12,-224.38"/>
<text text-anchor="middle" x="348.12" y="-210.88" font-family="Helvetica,sans-Serif" font-size="10.00">llvm/ADT/Bitset.h</text>
</a>
</g>
</g>
<!-- Node1&#45;&gt;Node4 -->
<g id="edge3_Node000001_Node000004" class="edge">
<title>Node1&#45;&gt;Node4</title>
<g id="a_edge3_Node000001_Node000004"><a xlink:title=" ">
<path fill="none" stroke="#63b8ff" d="M701.82,-272.71C629.27,-264.15 510.56,-248.89 409.12,-230 404.74,-229.18 400.19,-228.26 395.65,-227.29"/>
<polygon fill="#63b8ff" stroke="#63b8ff" points="396.46,-223.89 385.94,-225.14 394.94,-230.72 396.46,-223.89"/>
</a>
</g>
</g>
<!-- Node5 -->
<g id="Node000005" class="node">
<title>Node5</title>
<g id="a_Node000005"><a xlink:title=" ">
<polygon fill="#e0e0e0" stroke="#999999" points="179.5,-91.38 66.75,-91.38 66.75,-72.12 179.5,-72.12 179.5,-91.38"/>
<text text-anchor="middle" x="123.12" y="-77.88" font-family="Helvetica,sans-Serif" font-size="10.00">llvm/ADT/StringMap.h</text>
</a>
</g>
</g>
<!-- Node1&#45;&gt;Node5 -->
<g id="edge4_Node000001_Node000005" class="edge">
<title>Node1&#45;&gt;Node5</title>
<g id="a_edge4_Node000001_Node000005"><a xlink:title=" ">
<path fill="none" stroke="#63b8ff" d="M702.13,-278.15C588.69,-273.77 364.08,-261.34 292.12,-230 223.9,-200.28 163.31,-132.8 137.01,-100.56"/>
<polygon fill="#63b8ff" stroke="#63b8ff" points="139.9,-98.57 130.92,-92.94 134.43,-102.94 139.9,-98.57"/>
</a>
</g>
</g>
<!-- Node6 -->
<g id="Node000006" class="node">
<title>Node6</title>
<g id="a_Node000006"><a xlink:title=" ">
<polygon fill="#e0e0e0" stroke="#999999" points="307,-91.38 197.25,-91.38 197.25,-72.12 307,-72.12 307,-91.38"/>
<text text-anchor="middle" x="252.12" y="-77.88" font-family="Helvetica,sans-Serif" font-size="10.00">llvm/ADT/StringRef.h</text>
</a>
</g>
</g>
<!-- Node1&#45;&gt;Node6 -->
<g id="edge5_Node000001_Node000006" class="edge">
<title>Node1&#45;&gt;Node6</title>
<g id="a_edge5_Node000001_Node000006"><a xlink:title=" ">
<path fill="none" stroke="#63b8ff" d="M701.76,-273.21C648.73,-266.23 573.6,-253.14 511.12,-230 417.05,-195.16 316.86,-128.59 273.82,-98.37"/>
<polygon fill="#63b8ff" stroke="#63b8ff" points="276.02,-95.64 265.83,-92.71 271.97,-101.35 276.02,-95.64"/>
</a>
</g>
</g>
<!-- Node7 -->
<g id="Node000007" class="node">
<title>Node7</title>
<g id="a_Node000007"><a xlink:title=" ">
<polygon fill="#e0e0e0" stroke="#999999" points="435.38,-91.38 324.88,-91.38 324.88,-72.12 435.38,-72.12 435.38,-91.38"/>
<text text-anchor="middle" x="380.12" y="-77.88" font-family="Helvetica,sans-Serif" font-size="10.00">llvm/Support/Debug.h</text>
</a>
</g>
</g>
<!-- Node1&#45;&gt;Node7 -->
<g id="edge6_Node000001_Node000007" class="edge">
<title>Node1&#45;&gt;Node7</title>
<g id="a_edge6_Node000001_Node000007"><a xlink:title=" ">
<path fill="none" stroke="#63b8ff" d="M701.89,-273.28C657.26,-266.65 598.42,-253.95 551.12,-230 542.31,-225.54 441.19,-136.66 398.73,-99.19"/>
<polygon fill="#63b8ff" stroke="#63b8ff" points="401.11,-96.62 391.3,-92.63 396.48,-101.87 401.11,-96.62"/>
</a>
</g>
</g>
<!-- Node8 -->
<g id="Node000008" class="node">
<title>Node8</title>
<g id="a_Node000008"><a xlink:title=" ">
<polygon fill="#e0e0e0" stroke="#999999" points="1655.75,-157.88 1604.5,-157.88 1604.5,-138.62 1655.75,-138.62 1655.75,-157.88"/>
<text text-anchor="middle" x="1630.12" y="-144.38" font-family="Helvetica,sans-Serif" font-size="10.00">memory</text>
</a>
</g>
</g>
<!-- Node1&#45;&gt;Node8 -->
<g id="edge7_Node000001_Node000008" class="edge">
<title>Node1&#45;&gt;Node8</title>
<g id="a_edge7_Node000001_Node000008"><a xlink:title=" ">
<path fill="none" stroke="#63b8ff" d="M836.36,-279.96C1021.3,-278.63 1528.03,-271.21 1590.12,-230 1610.87,-216.23 1621.28,-188.38 1626.19,-169.27"/>
<polygon fill="#63b8ff" stroke="#63b8ff" points="1629.56,-170.21 1628.34,-159.69 1622.73,-168.68 1629.56,-170.21"/>
</a>
</g>
</g>
<!-- Node9 -->
<g id="Node000009" class="node">
<title>Node9</title>
<g id="a_Node000009"><a xlink:title=" ">
<polygon fill="#e0e0e0" stroke="#999999" points="545,-91.38 453.25,-91.38 453.25,-72.12 545,-72.12 545,-91.38"/>
<text text-anchor="middle" x="499.12" y="-77.88" font-family="Helvetica,sans-Serif" font-size="10.00">mlir/IR/Builders.h</text>
</a>
</g>
</g>
<!-- Node1&#45;&gt;Node9 -->
<g id="edge8_Node000001_Node000009" class="edge">
<title>Node1&#45;&gt;Node9</title>
<g id="a_edge8_Node000001_Node000009"><a xlink:title=" ">
<path fill="none" stroke="#63b8ff" d="M701.89,-267.49C643.77,-252.77 562.33,-222.56 518.12,-163.5 504.99,-145.96 500.76,-120.74 499.49,-103.17"/>
<polygon fill="#63b8ff" stroke="#63b8ff" points="502.98,-103.07 499.06,-93.23 495.99,-103.37 502.98,-103.07"/>
</a>
</g>
</g>
<!-- Node10 -->
<g id="Node000010" class="node">
<title>Node10</title>
<g id="a_Node000010"><a xlink:title=" ">
<polygon fill="#e0e0e0" stroke="#999999" points="709.25,-91.38 601,-91.38 601,-72.12 709.25,-72.12 709.25,-91.38"/>
<text text-anchor="middle" x="655.12" y="-77.88" font-family="Helvetica,sans-Serif" font-size="10.00">mlir/IR/Diagnostics.h</text>
</a>
</g>
</g>
<!-- Node1&#45;&gt;Node10 -->
<g id="edge9_Node000001_Node000010" class="edge">
<title>Node1&#45;&gt;Node10</title>
<g id="a_edge9_Node000001_Node000010"><a xlink:title=" ">
<path fill="none" stroke="#63b8ff" d="M760.74,-265.73C740.39,-230.46 688.37,-140.35 665.82,-101.28"/>
<polygon fill="#63b8ff" stroke="#63b8ff" points="668.97,-99.73 660.93,-92.82 662.9,-103.23 668.97,-99.73"/>
</a>
</g>
</g>
<!-- Node11 -->
<g id="Node000011" class="node">
<title>Node11</title>
<g id="a_Node000011"><a xlink:title=" ">
<polygon fill="#e0e0e0" stroke="#999999" points="820.75,-91.38 727.5,-91.38 727.5,-72.12 820.75,-72.12 820.75,-91.38"/>
<text text-anchor="middle" x="774.12" y="-77.88" font-family="Helvetica,sans-Serif" font-size="10.00">mlir/IR/Location.h</text>
</a>
</g>
</g>
<!-- Node1&#45;&gt;Node11 -->
<g id="edge10_Node000001_Node000011" class="edge">
<title>Node1&#45;&gt;Node11</title>
<g id="a_edge10_Node000001_Node000011"><a xlink:title=" ">
<path fill="none" stroke="#63b8ff" d="M769.49,-265.73C770.37,-230.92 772.61,-142.66 773.62,-102.81"/>
<polygon fill="#63b8ff" stroke="#63b8ff" points="777.11,-103.1 773.87,-93.02 770.11,-102.93 777.11,-103.1"/>
</a>
</g>
</g>
<!-- Node12 -->
<g id="Node000012" class="node">
<title>Node12</title>
<g id="a_Node000012"><a xlink:title=" ">
<polygon fill="#e0e0e0" stroke="#999999" points="999.38,-24.88 894.88,-24.88 894.88,-5.63 999.38,-5.63 999.38,-24.88"/>
<text text-anchor="middle" x="947.12" y="-11.38" font-family="Helvetica,sans-Serif" font-size="10.00">mlir/Support/LLVM.h</text>
</a>
</g>
</g>
<!-- Node1&#45;&gt;Node12 -->
<g id="edge11_Node000001_Node000012" class="edge">
<title>Node1&#45;&gt;Node12</title>
<g id="a_edge11_Node000001_Node000012"><a xlink:title=" ">
<path fill="none" stroke="#63b8ff" d="M774.59,-265.77C790.88,-223.12 839.71,-98.97 868.12,-66.5 881.39,-51.35 900.31,-39.1 916.31,-30.48"/>
<polygon fill="#63b8ff" stroke="#63b8ff" points="917.67,-33.72 924.97,-26.05 914.47,-27.49 917.67,-33.72"/>
</a>
</g>
</g>
<!-- Node13 -->
<g id="Node000013" class="node">
<title>Node13</title>
<g id="a_Node000013"><a xlink:title=" ">
<polygon fill="#e0e0e0" stroke="#999999" points="1016.62,-91.38 877.62,-91.38 877.62,-72.12 1016.62,-72.12 1016.62,-91.38"/>
<text text-anchor="middle" x="947.12" y="-77.88" font-family="Helvetica,sans-Serif" font-size="10.00">mlir/Support/LogicalResult.h</text>
</a>
</g>
</g>
<!-- Node1&#45;&gt;Node13 -->
<g id="edge12_Node000001_Node000013" class="edge">
<title>Node1&#45;&gt;Node13</title>
<g id="a_edge12_Node000001_Node000013"><a xlink:title=" ">
<path fill="none" stroke="#63b8ff" d="M787.23,-265.86C798.1,-256.52 811.63,-243.58 821.12,-230 848.14,-191.34 832.97,-168.4 864.12,-133 877.86,-117.4 897.64,-105.16 914.44,-96.67"/>
<polygon fill="#63b8ff" stroke="#63b8ff" points="915.57,-100.01 923.07,-92.53 912.54,-93.7 915.57,-100.01"/>
</a>
</g>
</g>
<!-- Node14 -->
<g id="Node000014" class="node">
<title>Node14</title>
<g id="a_Node000014"><a xlink:href="_expr_8h.html" target="_top" xlink:title=" ">
<polygon fill="white" stroke="#666666" points="1241.12,-230 1141.12,-230 1141.12,-199.5 1241.12,-199.5 1241.12,-230"/>
<text text-anchor="start" x="1149.12" y="-216.5" font-family="Helvetica,sans-Serif" font-size="10.00">zklang/Dialect/ZHL</text>
<text text-anchor="middle" x="1191.12" y="-205.25" font-family="Helvetica,sans-Serif" font-size="10.00">/Typing/Expr.h</text>
</a>
</g>
</g>
<!-- Node1&#45;&gt;Node14 -->
<g id="edge13_Node000001_Node000014" class="edge">
<title>Node1&#45;&gt;Node14</title>
<g id="a_edge13_Node000001_Node000014"><a xlink:title=" ">
<path fill="none" stroke="#63b8ff" d="M836.46,-269.96C917.3,-257.6 1051.73,-237.06 1129.8,-225.12"/>
<polygon fill="#63b8ff" stroke="#63b8ff" points="1130.05,-228.63 1139.4,-223.66 1128.99,-221.71 1130.05,-228.63"/>
</a>
</g>
</g>
<!-- Node22 -->
<g id="Node000022" class="node">
<title>Node22</title>
<g id="a_Node000022"><a xlink:href="_params_8h.html" target="_top" xlink:title=" ">
<polygon fill="white" stroke="#666666" points="627.12,-163.5 527.12,-163.5 527.12,-133 627.12,-133 627.12,-163.5"/>
<text text-anchor="start" x="535.12" y="-150" font-family="Helvetica,sans-Serif" font-size="10.00">zklang/Dialect/ZHL</text>
<text text-anchor="middle" x="577.12" y="-138.75" font-family="Helvetica,sans-Serif" font-size="10.00">/Typing/Params.h</text>
</a>
</g>
</g>
<!-- Node1&#45;&gt;Node22 -->
<g id="edge48_Node000001_Node000022" class="edge">
<title>Node1&#45;&gt;Node22</title>
<g id="a_edge48_Node000001_Node000022"><a xlink:title=" ">
<path fill="none" stroke="#63b8ff" d="M740.05,-265.54C722.08,-256.08 698.76,-243.13 679.12,-230 651.77,-211.71 622.52,-188.08 602.38,-171.12"/>
<polygon fill="#63b8ff" stroke="#63b8ff" points="604.86,-168.63 594.97,-164.82 600.32,-173.96 604.86,-168.63"/>
</a>
</g>
</g>
<!-- Node23 -->
<g id="Node000023" class="node">
<title>Node23</title>
<g id="a_Node000023"><a xlink:href="_frame_8h.html" target="_top" xlink:title=" ">
<polygon fill="white" stroke="#666666" points="1775.12,-230 1675.12,-230 1675.12,-199.5 1775.12,-199.5 1775.12,-230"/>
<text text-anchor="start" x="1683.12" y="-216.5" font-family="Helvetica,sans-Serif" font-size="10.00">zklang/Dialect/ZHL</text>
<text text-anchor="middle" x="1725.12" y="-205.25" font-family="Helvetica,sans-Serif" font-size="10.00">/Typing/Frame.h</text>
</a>
</g>
</g>
<!-- Node1&#45;&gt;Node23 -->
<g id="edge35_Node000001_Node000023" class="edge">
<title>Node1&#45;&gt;Node23</title>
<g id="a_edge35_Node000001_Node000023"><a xlink:title=" ">
<path fill="none" stroke="#63b8ff" d="M836.49,-278.66C982.55,-274.7 1339.16,-262.3 1636.12,-230 1645.08,-229.03 1654.51,-227.77 1663.75,-226.41"/>
<polygon fill="#63b8ff" stroke="#63b8ff" points="1664.03,-229.9 1673.39,-224.93 1662.97,-222.98 1664.03,-229.9"/>
</a>
</g>
</g>
<!-- Node26 -->
<g id="Node000026" class="node">
<title>Node26</title>
<g id="a_Node000026"><a xlink:href="_frame_slot_8h.html" target="_top" xlink:title=" ">
<polygon fill="white" stroke="#666666" points="1632,-97 1528.25,-97 1528.25,-66.5 1632,-66.5 1632,-97"/>
<text text-anchor="start" x="1536.25" y="-83.5" font-family="Helvetica,sans-Serif" font-size="10.00">zklang/Dialect/ZHL</text>
<text text-anchor="middle" x="1580.12" y="-72.25" font-family="Helvetica,sans-Serif" font-size="10.00">/Typing/FrameSlot.h</text>
</a>
</g>
</g>
<!-- Node1&#45;&gt;Node26 -->
<g id="edge47_Node000001_Node000026" class="edge">
<title>Node1&#45;&gt;Node26</title>
<g id="a_edge47_Node000001_Node000026"><a xlink:title=" ">
<path fill="none" stroke="#63b8ff" d="M836.45,-275.77C995.47,-264.22 1389.44,-229.58 1502.12,-163.5 1526.78,-149.04 1548.78,-124.65 1563.08,-106.45"/>
<polygon fill="#63b8ff" stroke="#63b8ff" points="1565.83,-108.62 1569.1,-98.54 1560.26,-104.38 1565.83,-108.62"/>
</a>
</g>
</g>
<!-- Node29 -->
<g id="Node000029" class="node">
<title>Node29</title>
<g id="a_Node000029"><a xlink:href="_copyable_pointer_8h.html" target="_top" xlink:title=" ">
<polygon fill="white" stroke="#666666" points="2024,-224.38 1860.25,-224.38 1860.25,-205.12 2024,-205.12 2024,-224.38"/>
<text text-anchor="middle" x="1942.12" y="-210.88" font-family="Helvetica,sans-Serif" font-size="10.00">zklang/Support/CopyablePointer.h</text>
</a>
</g>
</g>
<!-- Node1&#45;&gt;Node29 -->
<g id="edge49_Node000001_Node000029" class="edge">
<title>Node1&#45;&gt;Node29</title>
<g id="a_edge49_Node000001_Node000029"><a xlink:title=" ">
<path fill="none" stroke="#63b8ff" d="M836.28,-277.87C999.01,-271.88 1427.28,-254.91 1784.12,-230 1804.97,-228.54 1827.33,-226.7 1848.49,-224.83"/>
<polygon fill="#63b8ff" stroke="#63b8ff" points="1848.61,-228.33 1858.26,-223.95 1847.98,-221.36 1848.61,-228.33"/>
</a>
</g>
</g>
<!-- Node14&#45;&gt;Node3 -->
<g id="edge15_Node000014_Node000003" class="edge">
<title>Node14&#45;&gt;Node3</title>
<g id="a_edge15_Node000014_Node000003"><a xlink:title=" ">
<path fill="none" stroke="#63b8ff" d="M1141.05,-206.66C1088.62,-198.63 1004.17,-183.93 933.12,-163.5 931.55,-163.05 929.96,-162.56 928.35,-162.04"/>
<polygon fill="#63b8ff" stroke="#63b8ff" points="929.84,-158.85 919.25,-158.84 927.52,-165.46 929.84,-158.85"/>
</a>
</g>
</g>
<!-- Node14&#45;&gt;Node8 -->
<g id="edge20_Node000014_Node000008" class="edge">
<title>Node14&#45;&gt;Node8</title>
<g id="a_edge20_Node000014_Node000008"><a xlink:title=" ">
<path fill="none" stroke="#63b8ff" d="M1241.45,-207.43C1311.3,-198.5 1441.54,-181.29 1552.12,-163.5 1565.44,-161.36 1580,-158.77 1592.89,-156.39"/>
<polygon fill="#63b8ff" stroke="#63b8ff" points="1593.5,-159.83 1602.68,-154.55 1592.21,-152.95 1593.5,-159.83"/>
</a>
</g>
</g>
<!-- Node14&#45;&gt;Node12 -->
<g id="edge23_Node000014_Node000012" class="edge">
<title>Node14&#45;&gt;Node12</title>
<g id="a_edge23_Node000014_Node000012"><a xlink:title=" ">
<path fill="none" stroke="#63b8ff" d="M1140.7,-207.14C1091.18,-199.49 1020.69,-185.11 1004.12,-163.5 977.29,-128.5 1046.24,-105.23 1025.12,-66.5 1016.14,-50.03 999.18,-38.14 983.37,-30.08"/>
<polygon fill="#63b8ff" stroke="#63b8ff" points="985.15,-27.05 974.61,-25.97 982.17,-33.38 985.15,-27.05"/>
</a>
</g>
</g>
<!-- Node14&#45;&gt;Node13 -->
<g id="edge24_Node000014_Node000013" class="edge">
<title>Node14&#45;&gt;Node13</title>
<g id="a_edge24_Node000014_Node000013"><a xlink:title=" ">
<path fill="none" stroke="#63b8ff" d="M1140.79,-208.16C1083.68,-200.83 995.31,-186.18 971.12,-163.5 954.56,-147.97 949.26,-121.58 947.65,-103.21"/>
<polygon fill="#63b8ff" stroke="#63b8ff" points="951.15,-103.07 947.12,-93.28 944.16,-103.45 951.15,-103.07"/>
</a>
</g>
</g>
<!-- Node15 -->
<g id="Node000015" class="node">
<title>Node15</title>
<g id="a_Node000015"><a xlink:title=" ">
<polygon fill="#e0e0e0" stroke="#999999" points="1346.25,-157.88 1298,-157.88 1298,-138.62 1346.25,-138.62 1346.25,-157.88"/>
<text text-anchor="middle" x="1322.12" y="-144.38" font-family="Helvetica,sans-Serif" font-size="10.00">cstddef</text>
</a>
</g>
</g>
<!-- Node14&#45;&gt;Node15 -->
<g id="edge14_Node000014_Node000015" class="edge">
<title>Node14&#45;&gt;Node15</title>
<g id="a_edge14_Node000014_Node000015"><a xlink:title=" ">
<path fill="none" stroke="#63b8ff" d="M1220.85,-199.11C1242.68,-188.37 1272.15,-173.86 1293.67,-163.26"/>
<polygon fill="#63b8ff" stroke="#63b8ff" points="1295.04,-166.49 1302.47,-158.93 1291.95,-160.21 1295.04,-166.49"/>
</a>
</g>
</g>
<!-- Node16 -->
<g id="Node000016" class="node">
<title>Node16</title>
<g id="a_Node000016"><a xlink:title=" ">
<polygon fill="#e0e0e0" stroke="#999999" points="1471.88,-157.88 1364.38,-157.88 1364.38,-138.62 1471.88,-138.62 1471.88,-157.88"/>
<text text-anchor="middle" x="1418.12" y="-144.38" font-family="Helvetica,sans-Serif" font-size="10.00">llvm/ADT/ArrayRef.h</text>
</a>
</g>
</g>
<!-- Node14&#45;&gt;Node16 -->
<g id="edge16_Node000014_Node000016" class="edge">
<title>Node14&#45;&gt;Node16</title>
<g id="a_edge16_Node000014_Node000016"><a xlink:title=" ">
<path fill="none" stroke="#63b8ff" d="M1241.5,-199.44C1281.69,-188.02 1337.34,-172.2 1375.38,-161.4"/>
<polygon fill="#63b8ff" stroke="#63b8ff" points="1375.97,-164.87 1384.63,-158.77 1374.06,-158.13 1375.97,-164.87"/>
</a>
</g>
</g>
<!-- Node17 -->
<g id="Node000017" class="node">
<title>Node17</title>
<g id="a_Node000017"><a xlink:title=" ">
<polygon fill="#e0e0e0" stroke="#999999" points="1533.5,-24.88 1414.75,-24.88 1414.75,-5.63 1533.5,-5.63 1533.5,-24.88"/>
<text text-anchor="middle" x="1474.12" y="-11.38" font-family="Helvetica,sans-Serif" font-size="10.00">llvm/ADT/SmallString.h</text>
</a>
</g>
</g>
<!-- Node14&#45;&gt;Node17 -->
<g id="edge17_Node000014_Node000017" class="edge">
<title>Node14&#45;&gt;Node17</title>
<g id="a_edge17_Node000014_Node000017"><a xlink:title=" ">
<path fill="none" stroke="#63b8ff" d="M1241.38,-212.54C1316.13,-209.55 1451.06,-199.22 1481.12,-163.5 1511.53,-127.37 1494.47,-66.83 1482.57,-35.83"/>
<polygon fill="#63b8ff" stroke="#63b8ff" points="1485.82,-34.52 1478.8,-26.58 1479.33,-37.16 1485.82,-34.52"/>
</a>
</g>
</g>
<!-- Node18 -->
<g id="Node000018" class="node">
<title>Node18</title>
<g id="a_Node000018"><a xlink:title=" ">
<polygon fill="#e0e0e0" stroke="#999999" points="1122.62,-157.88 1013.62,-157.88 1013.62,-138.62 1122.62,-138.62 1122.62,-157.88"/>
<text text-anchor="middle" x="1068.12" y="-144.38" font-family="Helvetica,sans-Serif" font-size="10.00">llvm/ADT/StringSet.h</text>
</a>
</g>
</g>
<!-- Node14&#45;&gt;Node18 -->
<g id="edge18_Node000014_Node000018" class="edge">
<title>Node14&#45;&gt;Node18</title>
<g id="a_edge18_Node000014_Node000018"><a xlink:title=" ">
<path fill="none" stroke="#63b8ff" d="M1163.21,-199.11C1142.91,-188.46 1115.55,-174.12 1095.39,-163.55"/>
<polygon fill="#63b8ff" stroke="#63b8ff" points="1097.13,-160.51 1086.65,-158.96 1093.88,-166.71 1097.13,-160.51"/>
</a>
</g>
</g>
<!-- Node19 -->
<g id="Node000019" class="node">
<title>Node19</title>
<g id="a_Node000019"><a xlink:title=" ">
<polygon fill="#e0e0e0" stroke="#999999" points="1783.75,-91.38 1666.5,-91.38 1666.5,-72.12 1783.75,-72.12 1783.75,-91.38"/>
<text text-anchor="middle" x="1725.12" y="-77.88" font-family="Helvetica,sans-Serif" font-size="10.00">llvm/ADT/simple_ilist.h</text>
</a>
</g>
</g>
<!-- Node14&#45;&gt;Node19 -->
<g id="edge19_Node000014_Node000019" class="edge">
<title>Node14&#45;&gt;Node19</title>
<g id="a_edge19_Node000014_Node000019"><a xlink:title=" ">
<path fill="none" stroke="#63b8ff" d="M1241.6,-209.23C1305.75,-202.73 1419.52,-188.66 1514.12,-163.5 1518.62,-162.3 1632.4,-118.51 1690.97,-95.93"/>
<polygon fill="#63b8ff" stroke="#63b8ff" points="1692.08,-99.25 1700.15,-92.39 1689.56,-92.72 1692.08,-99.25"/>
</a>
</g>
</g>
<!-- Node20 -->
<g id="Node000020" class="node">
<title>Node20</title>
<g id="a_Node000020"><a xlink:title=" ">
<polygon fill="#e0e0e0" stroke="#999999" points="1241.88,-157.88 1140.38,-157.88 1140.38,-138.62 1241.88,-138.62 1241.88,-157.88"/>
<text text-anchor="middle" x="1191.12" y="-144.38" font-family="Helvetica,sans-Serif" font-size="10.00">mlir/IR/AffineExpr.h</text>
</a>
</g>
</g>
<!-- Node14&#45;&gt;Node20 -->
<g id="edge21_Node000014_Node000020" class="edge">
<title>Node14&#45;&gt;Node20</title>
<g id="a_edge21_Node000014_Node000020"><a xlink:title=" ">
<path fill="none" stroke="#63b8ff" d="M1191.12,-199.11C1191.12,-190.33 1191.12,-179.02 1191.12,-169.4"/>
<polygon fill="#63b8ff" stroke="#63b8ff" points="1194.63,-169.59 1191.13,-159.59 1187.63,-169.59 1194.63,-169.59"/>
</a>
</g>
</g>
<!-- Node21 -->
<g id="Node000021" class="node">
<title>Node21</title>
<g id="a_Node000021"><a xlink:title=" ">
<polygon fill="#e0e0e0" stroke="#999999" points="1357.38,-24.88 1258.88,-24.88 1258.88,-5.63 1357.38,-5.63 1357.38,-24.88"/>
<text text-anchor="middle" x="1308.12" y="-11.38" font-family="Helvetica,sans-Serif" font-size="10.00">mlir/IR/Attributes.h</text>
</a>
</g>
</g>
<!-- Node14&#45;&gt;Node21 -->
<g id="edge22_Node000014_Node000021" class="edge">
<title>Node14&#45;&gt;Node21</title>
<g id="a_edge22_Node000014_Node000021"><a xlink:title=" ">
<path fill="none" stroke="#63b8ff" d="M1213.82,-199.02C1226.23,-190.01 1241.08,-177.53 1251.12,-163.5 1280.03,-123.13 1296.57,-66.18 1303.77,-36.31"/>
<polygon fill="#63b8ff" stroke="#63b8ff" points="1307.13,-37.3 1305.95,-26.77 1300.31,-35.74 1307.13,-37.3"/>
</a>
</g>
</g>
<!-- Node14&#45;&gt;Node22 -->
<g id="edge25_Node000014_Node000022" class="edge">
<title>Node14&#45;&gt;Node22</title>
<g id="a_edge25_Node000014_Node000022"><a xlink:title=" ">
<path fill="none" stroke="#63b8ff" d="M1140.88,-208.47C1029.06,-196.73 759.99,-168.46 638.49,-155.7"/>
<polygon fill="#63b8ff" stroke="#63b8ff" points="639.02,-152.23 628.71,-154.67 638.29,-159.19 639.02,-152.23"/>
</a>
</g>
</g>
<!-- Node22&#45;&gt;Node2 -->
<g id="edge26_Node000022_Node000002" class="edge">
<title>Node22&#45;&gt;Node2</title>
<g id="a_edge26_Node000022_Node000002"><a xlink:title=" ">
<path fill="none" stroke="#63b8ff" d="M526.9,-147.35C433.25,-146.45 226.23,-139.33 58.12,-97 56.53,-96.6 54.92,-96.14 53.31,-95.63"/>
<polygon fill="#63b8ff" stroke="#63b8ff" points="54.85,-92.47 44.26,-92.3 52.44,-99.04 54.85,-92.47"/>
</a>
</g>
</g>
<!-- Node22&#45;&gt;Node5 -->
<g id="edge27_Node000022_Node000005" class="edge">
<title>Node22&#45;&gt;Node5</title>
<g id="a_edge27_Node000022_Node000005"><a xlink:title=" ">
<path fill="none" stroke="#63b8ff" d="M526.87,-142.18C452.54,-134.35 309.05,-118.02 188.12,-97 183.19,-96.14 178.06,-95.17 172.95,-94.14"/>
<polygon fill="#63b8ff" stroke="#63b8ff" points="173.84,-90.75 163.34,-92.13 172.41,-97.6 173.84,-90.75"/>
</a>
</g>
</g>
<!-- Node22&#45;&gt;Node6 -->
<g id="edge28_Node000022_Node000006" class="edge">
<title>Node22&#45;&gt;Node6</title>
<g id="a_edge28_Node000022_Node000006"><a xlink:title=" ">
<path fill="none" stroke="#63b8ff" d="M527,-138.04C474.4,-128.28 389.32,-112.19 316.12,-97 311.86,-96.11 307.44,-95.18 303,-94.22"/>
<polygon fill="#63b8ff" stroke="#63b8ff" points="304.03,-90.86 293.51,-92.14 302.53,-97.7 304.03,-90.86"/>
</a>
</g>
</g>
<!-- Node22&#45;&gt;Node7 -->
<g id="edge29_Node000022_Node000007" class="edge">
<title>Node22&#45;&gt;Node7</title>
<g id="a_edge29_Node000022_Node000007"><a xlink:title=" ">
<path fill="none" stroke="#63b8ff" d="M532.42,-132.61C498.2,-121.41 451.48,-106.11 418.84,-95.43"/>
<polygon fill="#63b8ff" stroke="#63b8ff" points="419.96,-92.11 409.37,-92.32 417.78,-98.76 419.96,-92.11"/>
</a>
</g>
</g>
<!-- Node22&#45;&gt;Node9 -->
<g id="edge30_Node000022_Node000009" class="edge">
<title>Node22&#45;&gt;Node9</title>
<g id="a_edge30_Node000022_Node000009"><a xlink:title=" ">
<path fill="none" stroke="#63b8ff" d="M559.43,-132.61C547.25,-122.54 531.07,-109.17 518.54,-98.81"/>
<polygon fill="#63b8ff" stroke="#63b8ff" points="520.9,-96.21 510.96,-92.54 516.44,-101.61 520.9,-96.21"/>
</a>
</g>
</g>
<!-- Node22&#45;&gt;Node10 -->
<g id="edge31_Node000022_Node000010" class="edge">
<title>Node22&#45;&gt;Node10</title>
<g id="a_edge31_Node000022_Node000010"><a xlink:title=" ">
<path fill="none" stroke="#63b8ff" d="M594.82,-132.61C607,-122.54 623.18,-109.17 635.71,-98.81"/>
<polygon fill="#63b8ff" stroke="#63b8ff" points="637.81,-101.61 643.29,-92.54 633.35,-96.21 637.81,-101.61"/>
</a>
</g>
</g>
<!-- Node22&#45;&gt;Node11 -->
<g id="edge32_Node000022_Node000011" class="edge">
<title>Node22&#45;&gt;Node11</title>
<g id="a_edge32_Node000022_Node000011"><a xlink:title=" ">
<path fill="none" stroke="#63b8ff" d="M621.83,-132.61C656.05,-121.41 702.77,-106.11 735.41,-95.43"/>
<polygon fill="#63b8ff" stroke="#63b8ff" points="736.47,-98.76 744.88,-92.32 734.29,-92.11 736.47,-98.76"/>
</a>
</g>
</g>
<!-- Node22&#45;&gt;Node12 -->
<g id="edge33_Node000022_Node000012" class="edge">
<title>Node22&#45;&gt;Node12</title>
<g id="a_edge33_Node000022_Node000012"><a xlink:title=" ">
<path fill="none" stroke="#63b8ff" d="M575.22,-132.67C573.72,-114.44 574.31,-83.56 592.12,-66.5 632.7,-27.63 792.59,-18.6 883.33,-16.64"/>
<polygon fill="#63b8ff" stroke="#63b8ff" points="883.14,-20.15 893.07,-16.46 883.01,-13.15 883.14,-20.15"/>
</a>
</g>
</g>
<!-- Node22&#45;&gt;Node13 -->
<g id="edge34_Node000022_Node000013" class="edge">
<title>Node22&#45;&gt;Node13</title>
<g id="a_edge34_Node000022_Node000013"><a xlink:title=" ">
<path fill="none" stroke="#63b8ff" d="M627.41,-138.48C693.9,-126.89 811.09,-106.46 883.62,-93.82"/>
<polygon fill="#63b8ff" stroke="#63b8ff" points="884.12,-97.29 893.37,-92.12 882.92,-90.39 884.12,-97.29"/>
</a>
</g>
</g>
<!-- Node23&#45;&gt;Node8 -->
<g id="edge38_Node000023_Node000008" class="edge">
<title>Node23&#45;&gt;Node8</title>
<g id="a_edge38_Node000023_Node000008"><a xlink:title=" ">
<path fill="none" stroke="#63b8ff" d="M1703.57,-199.11C1688.39,-188.81 1668.11,-175.04 1652.71,-164.58"/>
<polygon fill="#63b8ff" stroke="#63b8ff" points="1654.89,-161.83 1644.65,-159.11 1650.95,-167.62 1654.89,-161.83"/>
</a>
</g>
</g>
<!-- Node23&#45;&gt;Node19 -->
<g id="edge36_Node000023_Node000019" class="edge">
<title>Node23&#45;&gt;Node19</title>
<g id="a_edge36_Node000023_Node000019"><a xlink:title=" ">
<path fill="none" stroke="#63b8ff" d="M1775.47,-209.23C1832.95,-202.91 1921.7,-189.19 1942.12,-163.5 1984.86,-109.74 1873.9,-91.77 1795.36,-85.76"/>
<polygon fill="#63b8ff" stroke="#63b8ff" points="1795.77,-82.28 1785.54,-85.07 1795.27,-89.27 1795.77,-82.28"/>
</a>
</g>
</g>
<!-- Node24 -->
<g id="Node000024" class="node">
<title>Node24</title>
<g id="a_Node000024"><a xlink:title=" ">
<polygon fill="#e0e0e0" stroke="#999999" points="1933.25,-157.88 1795,-157.88 1795,-138.62 1933.25,-138.62 1933.25,-157.88"/>
<text text-anchor="middle" x="1864.12" y="-144.38" font-family="Helvetica,sans-Serif" font-size="10.00">llvm/Support/raw_ostream.h</text>
</a>
</g>
</g>
<!-- Node23&#45;&gt;Node24 -->
<g id="edge37_Node000023_Node000024" class="edge">
<title>Node23&#45;&gt;Node24</title>
<g id="a_edge37_Node000023_Node000024"><a xlink:title=" ">
<path fill="none" stroke="#63b8ff" d="M1756.67,-199.11C1780.04,-188.27 1811.67,-173.59 1834.56,-162.97"/>
<polygon fill="#63b8ff" stroke="#63b8ff" points="1835.74,-166.28 1843.34,-158.9 1832.79,-159.93 1835.74,-166.28"/>
</a>
</g>
</g>
<!-- Node25 -->
<g id="Node000025" class="node">
<title>Node25</title>
<g id="a_Node000025"><a xlink:href="_frame_info_8h.html" target="_top" xlink:title=" ">
<polygon fill="white" stroke="#666666" points="1776.62,-163.5 1673.62,-163.5 1673.62,-133 1776.62,-133 1776.62,-163.5"/>
<text text-anchor="start" x="1681.62" y="-150" font-family="Helvetica,sans-Serif" font-size="10.00">zklang/Dialect/ZHL</text>
<text text-anchor="middle" x="1725.12" y="-138.75" font-family="Helvetica,sans-Serif" font-size="10.00">/Typing/FrameInfo.h</text>
</a>
</g>
</g>
<!-- Node23&#45;&gt;Node25 -->
<g id="edge39_Node000023_Node000025" class="edge">
<title>Node23&#45;&gt;Node25</title>
<g id="a_edge39_Node000023_Node000025"><a xlink:title=" ">
<path fill="none" stroke="#63b8ff" d="M1725.12,-199.11C1725.12,-192.02 1725.12,-183.29 1725.12,-175.13"/>
<polygon fill="#63b8ff" stroke="#63b8ff" points="1728.63,-175.34 1725.13,-165.34 1721.63,-175.34 1728.63,-175.34"/>
</a>
</g>
</g>
<!-- Node25&#45;&gt;Node19 -->
<g id="edge40_Node000025_Node000019" class="edge">
<title>Node25&#45;&gt;Node19</title>
<g id="a_edge40_Node000025_Node000019"><a xlink:title=" ">
<path fill="none" stroke="#63b8ff" d="M1725.12,-132.61C1725.12,-123.83 1725.12,-112.52 1725.12,-102.9"/>
<polygon fill="#63b8ff" stroke="#63b8ff" points="1728.63,-103.09 1725.13,-93.09 1721.63,-103.09 1728.63,-103.09"/>
</a>
</g>
</g>
<!-- Node25&#45;&gt;Node26 -->
<g id="edge41_Node000025_Node000026" class="edge">
<title>Node25&#45;&gt;Node26</title>
<g id="a_edge41_Node000025_Node000026"><a xlink:title=" ">
<path fill="none" stroke="#63b8ff" d="M1692.22,-132.61C1671.9,-123.57 1645.59,-111.87 1623.57,-102.08"/>
<polygon fill="#63b8ff" stroke="#63b8ff" points="1625.09,-98.92 1614.53,-98.05 1622.25,-105.32 1625.09,-98.92"/>
</a>
</g>
</g>
<!-- Node26&#45;&gt;Node12 -->
<g id="edge46_Node000026_Node000012" class="edge">
<title>Node26&#45;&gt;Node12</title>
<g id="a_edge46_Node000026_Node000012"><a xlink:title=" ">
<path fill="none" stroke="#63b8ff" d="M1527.79,-75.42C1412.31,-63.65 1136.06,-35.5 1010.81,-22.74"/>
<polygon fill="#63b8ff" stroke="#63b8ff" points="1011.33,-19.27 1001.03,-21.74 1010.63,-26.24 1011.33,-19.27"/>
</a>
</g>
</g>
<!-- Node26&#45;&gt;Node17 -->
<g id="edge42_Node000026_Node000017" class="edge">
<title>Node26&#45;&gt;Node17</title>
<g id="a_edge42_Node000026_Node000017"><a xlink:title=" ">
<path fill="none" stroke="#63b8ff" d="M1556.07,-66.11C1538.81,-55.61 1515.65,-41.52 1498.35,-30.99"/>
<polygon fill="#63b8ff" stroke="#63b8ff" points="1500.59,-28.25 1490.22,-26.05 1496.95,-34.23 1500.59,-28.25"/>
</a>
</g>
</g>
<!-- Node26&#45;&gt;Node21 -->
<g id="edge45_Node000026_Node000021" class="edge">
<title>Node26&#45;&gt;Node21</title>
<g id="a_edge45_Node000026_Node000021"><a xlink:title=" ">
<path fill="none" stroke="#63b8ff" d="M1528,-68.39C1478.88,-56.74 1405.79,-39.41 1357.56,-27.97"/>
<polygon fill="#63b8ff" stroke="#63b8ff" points="1358.48,-24.59 1347.94,-25.69 1356.86,-31.4 1358.48,-24.59"/>
</a>
</g>
</g>
<!-- Node27 -->
<g id="Node000027" class="node">
<title>Node27</title>
<g id="a_Node000027"><a xlink:title=" ">
<polygon fill="#e0e0e0" stroke="#999999" points="1661,-24.88 1551.25,-24.88 1551.25,-5.63 1661,-5.63 1661,-24.88"/>
<text text-anchor="middle" x="1606.12" y="-11.38" font-family="Helvetica,sans-Serif" font-size="10.00">llvm/ADT/ilist_node.h</text>
</a>
</g>
</g>
<!-- Node26&#45;&gt;Node27 -->
<g id="edge43_Node000026_Node000027" class="edge">
<title>Node26&#45;&gt;Node27</title>
<g id="a_edge43_Node000026_Node000027"><a xlink:title=" ">
<path fill="none" stroke="#63b8ff" d="M1586.02,-66.11C1589.69,-57.03 1594.43,-45.26 1598.39,-35.43"/>
<polygon fill="#63b8ff" stroke="#63b8ff" points="1601.51,-37.06 1602,-26.48 1595.02,-34.44 1601.51,-37.06"/>
</a>
</g>
</g>
<!-- Node28 -->
<g id="Node000028" class="node">
<title>Node28</title>
<g id="a_Node000028"><a xlink:title=" ">
<polygon fill="#e0e0e0" stroke="#999999" points="1780.88,-30.5 1679.38,-30.5 1679.38,0 1780.88,0 1780.88,-30.5"/>
<text text-anchor="start" x="1687.38" y="-17" font-family="Helvetica,sans-Serif" font-size="10.00">llvm/ADT/ilist_node</text>
<text text-anchor="middle" x="1730.12" y="-5.75" font-family="Helvetica,sans-Serif" font-size="10.00">_options.h</text>
</a>
</g>
</g>
<!-- Node26&#45;&gt;Node28 -->
<g id="edge44_Node000026_Node000028" class="edge">
<title>Node26&#45;&gt;Node28</title>
<g id="a_edge44_Node000026_Node000028"><a xlink:title=" ">
<path fill="none" stroke="#63b8ff" d="M1614.16,-66.11C1635.28,-57.03 1662.65,-45.27 1685.49,-35.44"/>
<polygon fill="#63b8ff" stroke="#63b8ff" points="1686.77,-38.7 1694.57,-31.54 1684,-32.27 1686.77,-38.7"/>
</a>
</g>
</g>
<!-- Node30 -->
<g id="Node000030" class="node">
<title>Node30</title>
<g id="a_Node000030"><a xlink:title=" ">
<polygon fill="#e0e0e0" stroke="#999999" points="2028.75,-157.88 1989.5,-157.88 1989.5,-138.62 2028.75,-138.62 2028.75,-157.88"/>
<text text-anchor="middle" x="2009.12" y="-144.38" font-family="Helvetica,sans-Serif" font-size="10.00">utility</text>
</a>
</g>
</g>
<!-- Node29&#45;&gt;Node30 -->
<g id="edge50_Node000029_Node000030" class="edge">
<title>Node29&#45;&gt;Node30</title>
<g id="a_edge50_Node000029_Node000030"><a xlink:title=" ">
<path fill="none" stroke="#63b8ff" d="M1951.44,-204.78C1961.84,-194.77 1978.9,-178.35 1991.78,-165.95"/>
<polygon fill="#63b8ff" stroke="#63b8ff" points="1994.02,-168.65 1998.8,-159.19 1989.17,-163.61 1994.02,-168.65"/>
</a>
</g>
</g>
</g>
</svg>
