<?xml version="1.0" encoding="UTF-8" standalone="no"?>
<!DOCTYPE svg PUBLIC "-//W3C//DTD SVG 1.1//EN"
 "http://www.w3.org/Graphics/SVG/1.1/DTD/svg11.dtd">
<!-- Generated by graphviz version 12.2.1 (20241206.2353)
 -->
<!-- Title: include/zklang/Dialect/ZML/Typing/ZMLTypeConverter.h Pages: 1 -->
<svg width="749pt" height="105pt"
 viewBox="0.00 0.00 749.12 105.00" xmlns="http://www.w3.org/2000/svg" xmlns:xlink="http://www.w3.org/1999/xlink">
<g id="graph0" class="graph" transform="scale(1 1) rotate(0) translate(4 101)">
<title>include/zklang/Dialect/ZML/Typing/ZMLTypeConverter.h</title>
<!-- Node1 -->
<g id="Node000001" class="node">
<title>Node1</title>
<g id="a_Node000001"><a xlink:title=" ">
<polygon fill="#999999" stroke="#666666" points="446.75,-97 283.75,-97 283.75,-66.5 446.75,-66.5 446.75,-97"/>
<text text-anchor="start" x="291.75" y="-83.5" font-family="Helvetica,sans-Serif" font-size="10.00">include/zklang/Dialect</text>
<text text-anchor="middle" x="365.25" y="-72.25" font-family="Helvetica,sans-Serif" font-size="10.00">/ZML/Typing/ZMLTypeConverter.h</text>
</a>
</g>
</g>
<!-- Node2 -->
<g id="Node000002" class="node">
<title>Node2</title>
<g id="a_Node000002"><a xlink:href="_lower_built_ins_8cpp.html" target="_top" xlink:title=" ">
<polygon fill="white" stroke="#666666" points="134.5,-30.5 0,-30.5 0,0 134.5,0 134.5,-30.5"/>
<text text-anchor="start" x="8" y="-17" font-family="Helvetica,sans-Serif" font-size="10.00">lib/Dialect/ZML/Transforms</text>
<text text-anchor="middle" x="67.25" y="-5.75" font-family="Helvetica,sans-Serif" font-size="10.00">/LowerBuiltIns.cpp</text>
</a>
</g>
</g>
<!-- Node1&#45;&gt;Node2 -->
<g id="edge1_Node000001_Node000002" class="edge">
<title>Node1&#45;&gt;Node2</title>
<g id="a_edge1_Node000001_Node000002"><a xlink:title=" ">
<path fill="none" stroke="#63b8ff" d="M286.17,-63.63C239.06,-53.44 179.9,-40.63 134.95,-30.9"/>
<polygon fill="#63b8ff" stroke="#63b8ff" points="285.26,-67.02 295.78,-65.71 286.74,-60.18 285.26,-67.02"/>
</a>
</g>
</g>
<!-- Node3 -->
<g id="Node000003" class="node">
<title>Node3</title>
<g id="a_Node000003"><a xlink:href="_remove_built_ins_8cpp.html" target="_top" xlink:title=" ">
<polygon fill="white" stroke="#666666" points="287.5,-30.5 153,-30.5 153,0 287.5,0 287.5,-30.5"/>
<text text-anchor="start" x="161" y="-17" font-family="Helvetica,sans-Serif" font-size="10.00">lib/Dialect/ZML/Transforms</text>
<text text-anchor="middle" x="220.25" y="-5.75" font-family="Helvetica,sans-Serif" font-size="10.00">/RemoveBuiltIns.cpp</text>
</a>
</g>
</g>
<!-- Node1&#45;&gt;Node3 -->
<g id="edge2_Node000001_Node000003" class="edge">
<title>Node1&#45;&gt;Node3</title>
<g id="a_edge2_Node000001_Node000003"><a xlink:title=" ">
<path fill="none" stroke="#63b8ff" d="M321.94,-61.48C299.93,-51.69 273.62,-39.99 253.27,-30.94"/>
<polygon fill="#63b8ff" stroke="#63b8ff" points="320.41,-64.63 330.96,-65.5 323.25,-58.24 320.41,-64.63"/>
</a>
</g>
</g>
<!-- Node4 -->
<g id="Node000004" class="node">
<title>Node4</title>
<g id="a_Node000004"><a xlink:href="_z_m_l_type_converter_8cpp.html" target="_top" xlink:title=" ">
<polygon fill="white" stroke="#666666" points="425,-30.5 305.5,-30.5 305.5,0 425,0 425,-30.5"/>
<text text-anchor="start" x="313.5" y="-17" font-family="Helvetica,sans-Serif" font-size="10.00">lib/Dialect/ZML/Typing</text>
<text text-anchor="middle" x="365.25" y="-5.75" font-family="Helvetica,sans-Serif" font-size="10.00">/ZMLTypeConverter.cpp</text>
</a>
</g>
</g>
<!-- Node1&#45;&gt;Node4 -->
<g id="edge3_Node000001_Node000004" class="edge">
<title>Node1&#45;&gt;Node4</title>
<g id="a_edge3_Node000001_Node000004"><a xlink:title=" ">
<path fill="none" stroke="#63b8ff" d="M365.25,-54.81C365.25,-46.64 365.25,-37.91 365.25,-30.83"/>
<polygon fill="#63b8ff" stroke="#63b8ff" points="361.75,-54.6 365.25,-64.6 368.75,-54.6 361.75,-54.6"/>
</a>
</g>
</g>
<!-- Node5 -->
<g id="Node000005" class="node">
<title>Node5</title>
<g id="a_Node000005"><a xlink:href="_convert_zhl_to_zml_2_pass_8cpp.html" target="_top" xlink:title=" ">
<polygon fill="white" stroke="#666666" points="583.12,-30.5 443.38,-30.5 443.38,0 583.12,0 583.12,-30.5"/>
<text text-anchor="start" x="451.38" y="-17" font-family="Helvetica,sans-Serif" font-size="10.00">lib/Passes/ConvertZhlToZml</text>
<text text-anchor="middle" x="513.25" y="-5.75" font-family="Helvetica,sans-Serif" font-size="10.00">/Pass.cpp</text>
</a>
</g>
</g>
<!-- Node1&#45;&gt;Node5 -->
<g id="edge4_Node000001_Node000005" class="edge">
<title>Node1&#45;&gt;Node5</title>
<g id="a_edge4_Node000001_Node000005"><a xlink:title=" ">
<path fill="none" stroke="#63b8ff" d="M409.15,-61.62C431.68,-51.8 458.68,-40.03 479.54,-30.94"/>
<polygon fill="#63b8ff" stroke="#63b8ff" points="407.99,-58.31 400.22,-65.51 410.79,-64.72 407.99,-58.31"/>
</a>
</g>
</g>
<!-- Node6 -->
<g id="Node000006" class="node">
<title>Node6</title>
<g id="a_Node000006"><a xlink:href="_passes_2_convert_zhl_to_zml_2_patterns_8cpp.html" target="_top" xlink:title=" ">
<polygon fill="white" stroke="#666666" points="741.12,-30.5 601.38,-30.5 601.38,0 741.12,0 741.12,-30.5"/>
<text text-anchor="start" x="609.38" y="-17" font-family="Helvetica,sans-Serif" font-size="10.00">lib/Passes/ConvertZhlToZml</text>
<text text-anchor="middle" x="671.25" y="-5.75" font-family="Helvetica,sans-Serif" font-size="10.00">/Patterns.cpp</text>
</a>
</g>
</g>
<!-- Node1&#45;&gt;Node6 -->
<g id="edge5_Node000001_Node000006" class="edge">
<title>Node1&#45;&gt;Node6</title>
<g id="a_edge5_Node000001_Node000006"><a xlink:title=" ">
<path fill="none" stroke="#63b8ff" d="M446.12,-63.7C494.46,-53.51 555.24,-40.7 601.47,-30.96"/>
<polygon fill="#63b8ff" stroke="#63b8ff" points="445.61,-60.23 436.55,-65.72 447.06,-67.08 445.61,-60.23"/>
</a>
</g>
</g>
</g>
</svg>
