<?xml version="1.0" encoding="UTF-8" standalone="no"?>
<!DOCTYPE svg PUBLIC "-//W3C//DTD SVG 1.1//EN"
 "http://www.w3.org/Graphics/SVG/1.1/DTD/svg11.dtd">
<!-- Generated by graphviz version 12.2.1 (20241206.2353)
 -->
<!-- Title: lib/Dialect/ZML/Typing/ZMLTypeConverter.cpp Pages: 1 -->
<svg width="2246pt" height="305pt"
 viewBox="0.00 0.00 2245.62 304.50" xmlns="http://www.w3.org/2000/svg" xmlns:xlink="http://www.w3.org/1999/xlink">
<g id="graph0" class="graph" transform="scale(1 1) rotate(0) translate(4 300.5)">
<title>lib/Dialect/ZML/Typing/ZMLTypeConverter.cpp</title>
<!-- Node1 -->
<g id="Node000001" class="node">
<title>Node1</title>
<g id="a_Node000001"><a xlink:title=" ">
<polygon fill="#999999" stroke="#666666" points="1351.5,-296.5 1232,-296.5 1232,-266 1351.5,-266 1351.5,-296.5"/>
<text text-anchor="start" x="1240" y="-283" font-family="Helvetica,sans-Serif" font-size="10.00">lib/Dialect/ZML/Typing</text>
<text text-anchor="middle" x="1291.75" y="-271.75" font-family="Helvetica,sans-Serif" font-size="10.00">/ZMLTypeConverter.cpp</text>
</a>
</g>
</g>
<!-- Node2 -->
<g id="Node000002" class="node">
<title>Node2</title>
<g id="a_Node000002"><a xlink:title=" ">
<polygon fill="#e0e0e0" stroke="#999999" points="101.5,-24.88 0,-24.88 0,-5.63 101.5,-5.63 101.5,-24.88"/>
<text text-anchor="middle" x="50.75" y="-11.38" font-family="Helvetica,sans-Serif" font-size="10.00">mlir/IR/BuiltinOps.h</text>
</a>
</g>
</g>
<!-- Node1&#45;&gt;Node2 -->
<g id="edge1_Node000001_Node000002" class="edge">
<title>Node1&#45;&gt;Node2</title>
<g id="a_edge1_Node000001_Node000002"><a xlink:title=" ">
<path fill="none" stroke="#63b8ff" d="M1231.58,-278.34C1064.14,-271.29 580.8,-239.14 210.75,-97 161.38,-78.04 107.04,-48.66 76.09,-31.06"/>
<polygon fill="#63b8ff" stroke="#63b8ff" points="77.89,-28.06 67.48,-26.11 74.41,-34.13 77.89,-28.06"/>
</a>
</g>
</g>
<!-- Node3 -->
<g id="Node000003" class="node">
<title>Node3</title>
<g id="a_Node000003"><a xlink:title=" ">
<polygon fill="#e0e0e0" stroke="#999999" points="1343.62,-224.38 1293.88,-224.38 1293.88,-205.12 1343.62,-205.12 1343.62,-224.38"/>
<text text-anchor="middle" x="1318.75" y="-210.88" font-family="Helvetica,sans-Serif" font-size="10.00">optional</text>
</a>
</g>
</g>
<!-- Node1&#45;&gt;Node3 -->
<g id="edge2_Node000001_Node000003" class="edge">
<title>Node1&#45;&gt;Node3</title>
<g id="a_edge2_Node000001_Node000003"><a xlink:title=" ">
<path fill="none" stroke="#63b8ff" d="M1297.88,-265.61C1301.68,-256.53 1306.61,-244.76 1310.72,-234.93"/>
<polygon fill="#63b8ff" stroke="#63b8ff" points="1313.84,-236.54 1314.47,-225.97 1307.38,-233.84 1313.84,-236.54"/>
</a>
</g>
</g>
<!-- Node4 -->
<g id="Node000004" class="node">
<title>Node4</title>
<g id="a_Node000004"><a xlink:title=" ">
<polygon fill="#e0e0e0" stroke="#999999" points="1459.62,-230 1361.88,-230 1361.88,-199.5 1459.62,-199.5 1459.62,-230"/>
<text text-anchor="start" x="1369.88" y="-216.5" font-family="Helvetica,sans-Serif" font-size="10.00">zirgen/Dialect/ZHL</text>
<text text-anchor="middle" x="1410.75" y="-205.25" font-family="Helvetica,sans-Serif" font-size="10.00">/IR/ZHL.h</text>
</a>
</g>
</g>
<!-- Node1&#45;&gt;Node4 -->
<g id="edge3_Node000001_Node000004" class="edge">
<title>Node1&#45;&gt;Node4</title>
<g id="a_edge3_Node000001_Node000004"><a xlink:title=" ">
<path fill="none" stroke="#63b8ff" d="M1318.75,-265.61C1335.03,-256.79 1355.99,-245.43 1373.8,-235.78"/>
<polygon fill="#63b8ff" stroke="#63b8ff" points="1375.4,-238.89 1382.52,-231.05 1372.06,-232.74 1375.4,-238.89"/>
</a>
</g>
</g>
<!-- Node5 -->
<g id="Node000005" class="node">
<title>Node5</title>
<g id="a_Node000005"><a xlink:href="_ops_8h.html" target="_top" xlink:title=" ">
<polygon fill="white" stroke="#666666" points="1128.12,-230 1027.38,-230 1027.38,-199.5 1128.12,-199.5 1128.12,-230"/>
<text text-anchor="start" x="1035.38" y="-216.5" font-family="Helvetica,sans-Serif" font-size="10.00">zklang/Dialect/ZML</text>
<text text-anchor="middle" x="1077.75" y="-205.25" font-family="Helvetica,sans-Serif" font-size="10.00">/IR/Ops.h</text>
</a>
</g>
</g>
<!-- Node1&#45;&gt;Node5 -->
<g id="edge4_Node000001_Node000005" class="edge">
<title>Node1&#45;&gt;Node5</title>
<g id="a_edge4_Node000001_Node000005"><a xlink:title=" ">
<path fill="none" stroke="#63b8ff" d="M1242.92,-265.53C1211.56,-256.08 1170.61,-243.74 1137.33,-233.71"/>
<polygon fill="#63b8ff" stroke="#63b8ff" points="1138.4,-230.38 1127.82,-230.84 1136.38,-237.08 1138.4,-230.38"/>
</a>
</g>
</g>
<!-- Node21 -->
<g id="Node000021" class="node">
<title>Node21</title>
<g id="a_Node000021"><a xlink:href="_types_8h.html" target="_top" xlink:title=" ">
<polygon fill="white" stroke="#666666" points="1521.12,-163.5 1420.38,-163.5 1420.38,-133 1521.12,-133 1521.12,-163.5"/>
<text text-anchor="start" x="1428.38" y="-150" font-family="Helvetica,sans-Serif" font-size="10.00">zklang/Dialect/ZML</text>
<text text-anchor="middle" x="1470.75" y="-138.75" font-family="Helvetica,sans-Serif" font-size="10.00">/IR/Types.h</text>
</a>
</g>
</g>
<!-- Node1&#45;&gt;Node21 -->
<g id="edge46_Node000001_Node000021" class="edge">
<title>Node1&#45;&gt;Node21</title>
<g id="a_edge46_Node000001_Node000021"><a xlink:title=" ">
<path fill="none" stroke="#63b8ff" d="M1285.11,-265.77C1278.16,-248.22 1270.12,-218.61 1284.75,-199.5 1292.56,-189.29 1358.06,-173.23 1409.15,-162.02"/>
<polygon fill="#63b8ff" stroke="#63b8ff" points="1409.62,-165.49 1418.65,-159.95 1408.14,-158.65 1409.62,-165.49"/>
</a>
</g>
</g>
<!-- Node29 -->
<g id="Node000029" class="node">
<title>Node29</title>
<g id="a_Node000029"><a xlink:href="_z_m_l_type_converter_8h.html" target="_top" xlink:title=" ">
<polygon fill="white" stroke="#666666" points="1673,-230 1532.5,-230 1532.5,-199.5 1673,-199.5 1673,-230"/>
<text text-anchor="start" x="1540.5" y="-216.5" font-family="Helvetica,sans-Serif" font-size="10.00">zklang/Dialect/ZML</text>
<text text-anchor="middle" x="1602.75" y="-205.25" font-family="Helvetica,sans-Serif" font-size="10.00">/Typing/ZMLTypeConverter.h</text>
</a>
</g>
</g>
<!-- Node1&#45;&gt;Node29 -->
<g id="edge47_Node000001_Node000029" class="edge">
<title>Node1&#45;&gt;Node29</title>
<g id="a_edge47_Node000001_Node000029"><a xlink:title=" ">
<path fill="none" stroke="#63b8ff" d="M1351.71,-267.81C1399.83,-257.83 1467.88,-243.72 1520.99,-232.71"/>
<polygon fill="#63b8ff" stroke="#63b8ff" points="1521.52,-236.17 1530.6,-230.71 1520.1,-229.32 1521.52,-236.17"/>
</a>
</g>
</g>
<!-- Node5&#45;&gt;Node2 -->
<g id="edge10_Node000005_Node000002" class="edge">
<title>Node5&#45;&gt;Node2</title>
<g id="a_edge10_Node000005_Node000002"><a xlink:title=" ">
<path fill="none" stroke="#63b8ff" d="M1026.9,-211.02C939.28,-205.72 754.47,-191.99 600.75,-163.5 405.68,-127.34 178.42,-57.37 89.35,-28.83"/>
<polygon fill="#63b8ff" stroke="#63b8ff" points="90.47,-25.52 79.88,-25.79 88.33,-32.18 90.47,-25.52"/>
</a>
</g>
</g>
<!-- Node6 -->
<g id="Node000006" class="node">
<title>Node6</title>
<g id="a_Node000006"><a xlink:title=" ">
<polygon fill="#e0e0e0" stroke="#999999" points="1780.5,-24.88 1673,-24.88 1673,-5.63 1780.5,-5.63 1780.5,-24.88"/>
<text text-anchor="middle" x="1726.75" y="-11.38" font-family="Helvetica,sans-Serif" font-size="10.00">llvm/ADT/ArrayRef.h</text>
</a>
</g>
</g>
<!-- Node5&#45;&gt;Node6 -->
<g id="edge5_Node000005_Node000006" class="edge">
<title>Node5&#45;&gt;Node6</title>
<g id="a_edge5_Node000005_Node000006"><a xlink:title=" ">
<path fill="none" stroke="#63b8ff" d="M1102.91,-199.12C1118.4,-189.68 1138.36,-176.74 1154.75,-163.5 1178.59,-144.25 1224.95,-79.38 1252.75,-66.5 1336.15,-27.88 1573.97,-44.83 1664.75,-30.5 1669.73,-29.71 1674.91,-28.75 1680.06,-27.71"/>
<polygon fill="#63b8ff" stroke="#63b8ff" points="1680.66,-31.16 1689.7,-25.63 1679.19,-24.32 1680.66,-31.16"/>
</a>
</g>
</g>
<!-- Node7 -->
<g id="Node000007" class="node">
<title>Node7</title>
<g id="a_Node000007"><a xlink:title=" ">
<polygon fill="#e0e0e0" stroke="#999999" points="1919.25,-24.88 1798.25,-24.88 1798.25,-5.63 1919.25,-5.63 1919.25,-24.88"/>
<text text-anchor="middle" x="1858.75" y="-11.38" font-family="Helvetica,sans-Serif" font-size="10.00">llvm/ADT/SmallVector.h</text>
</a>
</g>
</g>
<!-- Node5&#45;&gt;Node7 -->
<g id="edge6_Node000005_Node000007" class="edge">
<title>Node5&#45;&gt;Node7</title>
<g id="a_edge6_Node000005_Node000007"><a xlink:title=" ">
<path fill="none" stroke="#63b8ff" d="M1115.49,-199.07C1136.41,-190.16 1162.42,-177.77 1183.75,-163.5 1210.43,-145.66 1261.24,-79.12 1290.75,-66.5 1392.97,-22.77 1679.63,-45.78 1789.75,-30.5 1795.73,-29.67 1801.97,-28.63 1808.15,-27.49"/>
<polygon fill="#63b8ff" stroke="#63b8ff" points="1808.5,-30.99 1817.65,-25.65 1807.16,-24.12 1808.5,-30.99"/>
</a>
</g>
</g>
<!-- Node8 -->
<g id="Node000008" class="node">
<title>Node8</title>
<g id="a_Node000008"><a xlink:title=" ">
<polygon fill="#e0e0e0" stroke="#999999" points="229.62,-24.88 119.88,-24.88 119.88,-5.63 229.62,-5.63 229.62,-24.88"/>
<text text-anchor="middle" x="174.75" y="-11.38" font-family="Helvetica,sans-Serif" font-size="10.00">llvm/ADT/StringRef.h</text>
</a>
</g>
</g>
<!-- Node5&#45;&gt;Node8 -->
<g id="edge7_Node000005_Node000008" class="edge">
<title>Node5&#45;&gt;Node8</title>
<g id="a_edge7_Node000005_Node000008"><a xlink:title=" ">
<path fill="none" stroke="#63b8ff" d="M1026.96,-209.76C955.18,-203.47 820.24,-189.23 707.75,-163.5 571.97,-132.45 544.33,-102.38 409.75,-66.5 334.28,-46.38 314.06,-47.12 237.75,-30.5 233.73,-29.63 229.58,-28.71 225.4,-27.78"/>
<polygon fill="#63b8ff" stroke="#63b8ff" points="226.38,-24.42 215.86,-25.65 224.86,-31.25 226.38,-24.42"/>
</a>
</g>
</g>
<!-- Node9 -->
<g id="Node000009" class="node">
<title>Node9</title>
<g id="a_Node000009"><a xlink:title=" ">
<polygon fill="#e0e0e0" stroke="#999999" points="380.25,-30.5 247.25,-30.5 247.25,0 380.25,0 380.25,-30.5"/>
<text text-anchor="start" x="255.25" y="-17" font-family="Helvetica,sans-Serif" font-size="10.00">mlir/Bytecode/BytecodeOp</text>
<text text-anchor="middle" x="313.75" y="-5.75" font-family="Helvetica,sans-Serif" font-size="10.00">Interface.h</text>
</a>
</g>
</g>
<!-- Node5&#45;&gt;Node9 -->
<g id="edge8_Node000005_Node000009" class="edge">
<title>Node5&#45;&gt;Node9</title>
<g id="a_edge8_Node000005_Node000009"><a xlink:title=" ">
<path fill="none" stroke="#63b8ff" d="M1026.99,-210.01C966.4,-204.46 862.62,-191.53 777.75,-163.5 687.72,-133.77 677.58,-96.82 587.75,-66.5 506,-38.91 479.26,-46.22 391.68,-30.97"/>
<polygon fill="#63b8ff" stroke="#63b8ff" points="392.35,-27.54 381.89,-29.21 391.11,-34.43 392.35,-27.54"/>
</a>
</g>
</g>
<!-- Node10 -->
<g id="Node000010" class="node">
<title>Node10</title>
<g id="a_Node000010"><a xlink:title=" ">
<polygon fill="#e0e0e0" stroke="#999999" points="501.62,-30.5 397.88,-30.5 397.88,0 501.62,0 501.62,-30.5"/>
<text text-anchor="start" x="405.88" y="-17" font-family="Helvetica,sans-Serif" font-size="10.00">mlir/Dialect/Func/IR</text>
<text text-anchor="middle" x="449.75" y="-5.75" font-family="Helvetica,sans-Serif" font-size="10.00">/FuncOps.h</text>
</a>
</g>
</g>
<!-- Node5&#45;&gt;Node10 -->
<g id="edge9_Node000005_Node000010" class="edge">
<title>Node5&#45;&gt;Node10</title>
<g id="a_edge9_Node000005_Node000010"><a xlink:title=" ">
<path fill="none" stroke="#63b8ff" d="M1027.32,-207.74C977.88,-200.81 900.93,-187.19 837.75,-163.5 796.48,-148.03 705.84,-82.45 664.75,-66.5 664.52,-66.41 576.45,-45.84 513.11,-31.05"/>
<polygon fill="#63b8ff" stroke="#63b8ff" points="514,-27.66 503.47,-28.79 512.41,-34.48 514,-27.66"/>
</a>
</g>
</g>
<!-- Node11 -->
<g id="Node000011" class="node">
<title>Node11</title>
<g id="a_Node000011"><a xlink:title=" ">
<polygon fill="#e0e0e0" stroke="#999999" points="630,-24.88 519.5,-24.88 519.5,-5.63 630,-5.63 630,-24.88"/>
<text text-anchor="middle" x="574.75" y="-11.38" font-family="Helvetica,sans-Serif" font-size="10.00">mlir/IR/OpDefinition.h</text>
</a>
</g>
</g>
<!-- Node5&#45;&gt;Node11 -->
<g id="edge11_Node000005_Node000011" class="edge">
<title>Node5&#45;&gt;Node11</title>
<g id="a_edge11_Node000005_Node000011"><a xlink:title=" ">
<path fill="none" stroke="#63b8ff" d="M1027.08,-202.41C991.37,-193.66 942.79,-180.24 901.75,-163.5 817.97,-129.32 805.67,-102.73 722.75,-66.5 688.13,-51.37 647.4,-37.84 617.44,-28.64"/>
<polygon fill="#63b8ff" stroke="#63b8ff" points="618.55,-25.32 607.97,-25.77 616.52,-32.02 618.55,-25.32"/>
</a>
</g>
</g>
<!-- Node12 -->
<g id="Node000012" class="node">
<title>Node12</title>
<g id="a_Node000012"><a xlink:title=" ">
<polygon fill="#e0e0e0" stroke="#999999" points="783.75,-24.88 647.75,-24.88 647.75,-5.63 783.75,-5.63 783.75,-24.88"/>
<text text-anchor="middle" x="715.75" y="-11.38" font-family="Helvetica,sans-Serif" font-size="10.00">mlir/IR/OpImplementation.h</text>
</a>
</g>
</g>
<!-- Node5&#45;&gt;Node12 -->
<g id="edge12_Node000005_Node000012" class="edge">
<title>Node5&#45;&gt;Node12</title>
<g id="a_edge12_Node000005_Node000012"><a xlink:title=" ">
<path fill="none" stroke="#63b8ff" d="M1039.4,-199.01C1016.01,-189.63 985.72,-176.78 959.75,-163.5 875.51,-120.41 780.97,-59.53 738.53,-31.48"/>
<polygon fill="#63b8ff" stroke="#63b8ff" points="740.65,-28.69 730.38,-26.08 736.78,-34.53 740.65,-28.69"/>
</a>
</g>
</g>
<!-- Node13 -->
<g id="Node000013" class="node">
<title>Node13</title>
<g id="a_Node000013"><a xlink:title=" ">
<polygon fill="#e0e0e0" stroke="#999999" points="951.88,-24.88 801.62,-24.88 801.62,-5.63 951.88,-5.63 951.88,-24.88"/>
<text text-anchor="middle" x="876.75" y="-11.38" font-family="Helvetica,sans-Serif" font-size="10.00">mlir/Interfaces/CallInterfaces.h</text>
</a>
</g>
</g>
<!-- Node5&#45;&gt;Node13 -->
<g id="edge13_Node000005_Node000013" class="edge">
<title>Node5&#45;&gt;Node13</title>
<g id="a_edge13_Node000005_Node000013"><a xlink:title=" ">
<path fill="none" stroke="#63b8ff" d="M1046.83,-199.04C1029.85,-190.12 1009.01,-177.72 992.75,-163.5 947.38,-123.8 906.93,-64.45 888.04,-34.68"/>
<polygon fill="#63b8ff" stroke="#63b8ff" points="891.15,-33.05 882.88,-26.42 885.21,-36.76 891.15,-33.05"/>
</a>
</g>
</g>
<!-- Node14 -->
<g id="Node000014" class="node">
<title>Node14</title>
<g id="a_Node000014"><a xlink:title=" ">
<polygon fill="#e0e0e0" stroke="#999999" points="1103.62,-30.5 969.88,-30.5 969.88,0 1103.62,0 1103.62,-30.5"/>
<text text-anchor="start" x="977.88" y="-17" font-family="Helvetica,sans-Serif" font-size="10.00">mlir/Interfaces/ControlFlow</text>
<text text-anchor="middle" x="1036.75" y="-5.75" font-family="Helvetica,sans-Serif" font-size="10.00">Interfaces.h</text>
</a>
</g>
</g>
<!-- Node5&#45;&gt;Node14 -->
<g id="edge14_Node000005_Node000014" class="edge">
<title>Node5&#45;&gt;Node14</title>
<g id="a_edge14_Node000005_Node000014"><a xlink:title=" ">
<path fill="none" stroke="#63b8ff" d="M1058.92,-199.24C1034.73,-179.28 993.95,-140.81 977.75,-97 973.05,-84.29 972.07,-78.81 977.75,-66.5 982.97,-55.21 992.11,-45.52 1001.66,-37.74"/>
<polygon fill="#63b8ff" stroke="#63b8ff" points="1003.71,-40.59 1009.62,-31.8 999.52,-34.98 1003.71,-40.59"/>
</a>
</g>
</g>
<!-- Node15 -->
<g id="Node000015" class="node">
<title>Node15</title>
<g id="a_Node000015"><a xlink:title=" ">
<polygon fill="#e0e0e0" stroke="#999999" points="2068.5,-30.5 1937,-30.5 1937,0 2068.5,0 2068.5,-30.5"/>
<text text-anchor="start" x="1945" y="-17" font-family="Helvetica,sans-Serif" font-size="10.00">mlir/Interfaces/DataLayout</text>
<text text-anchor="middle" x="2002.75" y="-5.75" font-family="Helvetica,sans-Serif" font-size="10.00">Interfaces.h</text>
</a>
</g>
</g>
<!-- Node5&#45;&gt;Node15 -->
<g id="edge15_Node000005_Node000015" class="edge">
<title>Node5&#45;&gt;Node15</title>
<g id="a_edge15_Node000005_Node000015"><a xlink:title=" ">
<path fill="none" stroke="#63b8ff" d="M1128.53,-199.9C1155,-191.49 1187.28,-179.31 1213.75,-163.5 1227.74,-155.15 1308.68,-72.71 1323.75,-66.5 1445.1,-16.47 1777.65,-45.69 1925.48,-30.69"/>
<polygon fill="#63b8ff" stroke="#63b8ff" points="1925.61,-34.2 1935.15,-29.59 1924.82,-27.24 1925.61,-34.2"/>
</a>
</g>
</g>
<!-- Node16 -->
<g id="Node000016" class="node">
<title>Node16</title>
<g id="a_Node000016"><a xlink:title=" ">
<polygon fill="#e0e0e0" stroke="#999999" points="1371.12,-30.5 1252.38,-30.5 1252.38,0 1371.12,0 1371.12,-30.5"/>
<text text-anchor="start" x="1260.38" y="-17" font-family="Helvetica,sans-Serif" font-size="10.00">mlir/Interfaces/Function</text>
<text text-anchor="middle" x="1311.75" y="-5.75" font-family="Helvetica,sans-Serif" font-size="10.00">Interfaces.h</text>
</a>
</g>
</g>
<!-- Node5&#45;&gt;Node16 -->
<g id="edge16_Node000005_Node000016" class="edge">
<title>Node5&#45;&gt;Node16</title>
<g id="a_edge16_Node000005_Node000016"><a xlink:title=" ">
<path fill="none" stroke="#63b8ff" d="M1079.57,-199.24C1084.05,-169.78 1098.35,-102.68 1138.75,-66.5 1146.83,-59.26 1196.97,-45.11 1241.2,-33.66"/>
<polygon fill="#63b8ff" stroke="#63b8ff" points="1242.01,-37.07 1250.82,-31.19 1240.27,-30.29 1242.01,-37.07"/>
</a>
</g>
</g>
<!-- Node17 -->
<g id="Node000017" class="node">
<title>Node17</title>
<g id="a_Node000017"><a xlink:title=" ">
<polygon fill="#e0e0e0" stroke="#999999" points="1510.62,-30.5 1388.88,-30.5 1388.88,0 1510.62,0 1510.62,-30.5"/>
<text text-anchor="start" x="1396.88" y="-17" font-family="Helvetica,sans-Serif" font-size="10.00">mlir/Interfaces/InferType</text>
<text text-anchor="middle" x="1449.75" y="-5.75" font-family="Helvetica,sans-Serif" font-size="10.00">OpInterface.h</text>
</a>
</g>
</g>
<!-- Node5&#45;&gt;Node17 -->
<g id="edge17_Node000005_Node000017" class="edge">
<title>Node5&#45;&gt;Node17</title>
<g id="a_edge17_Node000005_Node000017"><a xlink:title=" ">
<path fill="none" stroke="#63b8ff" d="M1085.63,-199.12C1104.11,-165.34 1150.68,-83.48 1176.75,-66.5 1250.54,-18.45 1286.85,-45.33 1377.37,-30.77"/>
<polygon fill="#63b8ff" stroke="#63b8ff" points="1377.95,-34.22 1387.19,-29.04 1376.74,-27.32 1377.95,-34.22"/>
</a>
</g>
</g>
<!-- Node18 -->
<g id="Node000018" class="node">
<title>Node18</title>
<g id="a_Node000018"><a xlink:title=" ">
<polygon fill="#e0e0e0" stroke="#999999" points="1655.25,-30.5 1528.25,-30.5 1528.25,0 1655.25,0 1655.25,-30.5"/>
<text text-anchor="start" x="1536.25" y="-17" font-family="Helvetica,sans-Serif" font-size="10.00">mlir/Interfaces/SideEffect</text>
<text text-anchor="middle" x="1591.75" y="-5.75" font-family="Helvetica,sans-Serif" font-size="10.00">Interfaces.h</text>
</a>
</g>
</g>
<!-- Node5&#45;&gt;Node18 -->
<g id="edge18_Node000005_Node000018" class="edge">
<title>Node5&#45;&gt;Node18</title>
<g id="a_edge18_Node000005_Node000018"><a xlink:title=" ">
<path fill="none" stroke="#63b8ff" d="M1093.19,-199.06C1103.45,-189.18 1117.12,-175.76 1128.75,-163.5 1148.58,-142.6 1189.22,-79.84 1214.75,-66.5 1332.54,-4.96 1382.28,-49.29 1516.7,-30.82"/>
<polygon fill="#63b8ff" stroke="#63b8ff" points="1516.93,-34.32 1526.31,-29.4 1515.9,-27.4 1516.93,-34.32"/>
</a>
</g>
</g>
<!-- Node19 -->
<g id="Node000019" class="node">
<title>Node19</title>
<g id="a_Node000019"><a xlink:href="_op_interfaces_8h.html" target="_top" xlink:title=" ">
<polygon fill="white" stroke="#666666" points="1087.12,-97 986.38,-97 986.38,-66.5 1087.12,-66.5 1087.12,-97"/>
<text text-anchor="start" x="994.38" y="-83.5" font-family="Helvetica,sans-Serif" font-size="10.00">zklang/Dialect/ZML</text>
<text text-anchor="middle" x="1036.75" y="-72.25" font-family="Helvetica,sans-Serif" font-size="10.00">/IR/OpInterfaces.h</text>
</a>
</g>
</g>
<!-- Node5&#45;&gt;Node19 -->
<g id="edge19_Node000005_Node000019" class="edge">
<title>Node5&#45;&gt;Node19</title>
<g id="a_edge19_Node000005_Node000019"><a xlink:title=" ">
<path fill="none" stroke="#63b8ff" d="M1073.21,-199.23C1066.34,-177.3 1053.23,-135.4 1044.74,-108.29"/>
<polygon fill="#63b8ff" stroke="#63b8ff" points="1048.09,-107.28 1041.77,-98.78 1041.41,-109.37 1048.09,-107.28"/>
</a>
</g>
</g>
<!-- Node5&#45;&gt;Node21 -->
<g id="edge35_Node000005_Node000021" class="edge">
<title>Node5&#45;&gt;Node21</title>
<g id="a_edge35_Node000005_Node000021"><a xlink:title=" ">
<path fill="none" stroke="#63b8ff" d="M1128.62,-205.59C1189.87,-195.73 1295.87,-178.6 1386.75,-163.5 1393.92,-162.31 1401.43,-161.05 1408.89,-159.79"/>
<polygon fill="#63b8ff" stroke="#63b8ff" points="1409.35,-163.27 1418.63,-158.15 1408.19,-156.36 1409.35,-163.27"/>
</a>
</g>
</g>
<!-- Node27 -->
<g id="Node000027" class="node">
<title>Node27</title>
<g id="a_Node000027"><a xlink:href="_ops_8h_8inc.html" target="_top" xlink:title=" ">
<polygon fill="white" stroke="#666666" points="1433.12,-97 1332.38,-97 1332.38,-66.5 1433.12,-66.5 1433.12,-97"/>
<text text-anchor="start" x="1340.38" y="-83.5" font-family="Helvetica,sans-Serif" font-size="10.00">zklang/Dialect/ZML</text>
<text text-anchor="middle" x="1382.75" y="-72.25" font-family="Helvetica,sans-Serif" font-size="10.00">/IR/Ops.h.inc</text>
</a>
</g>
</g>
<!-- Node5&#45;&gt;Node27 -->
<g id="edge45_Node000005_Node000027" class="edge">
<title>Node5&#45;&gt;Node27</title>
<g id="a_edge45_Node000005_Node000027"><a xlink:title=" ">
<path fill="none" stroke="#63b8ff" d="M1128.49,-213.06C1179.97,-210.2 1260.2,-199.65 1318.75,-163.5 1340.99,-149.77 1358.7,-125.4 1369.8,-107.02"/>
<polygon fill="#63b8ff" stroke="#63b8ff" points="1372.7,-108.99 1374.65,-98.58 1366.63,-105.5 1372.7,-108.99"/>
</a>
</g>
</g>
<!-- Node19&#45;&gt;Node2 -->
<g id="edge25_Node000019_Node000002" class="edge">
<title>Node19&#45;&gt;Node2</title>
<g id="a_edge25_Node000019_Node000002"><a xlink:title=" ">
<path fill="none" stroke="#63b8ff" d="M986,-81.17C845.85,-81.65 441.98,-78.43 110.75,-30.5 105.73,-29.77 100.51,-28.83 95.33,-27.77"/>
<polygon fill="#63b8ff" stroke="#63b8ff" points="96.18,-24.37 85.66,-25.63 94.67,-31.21 96.18,-24.37"/>
</a>
</g>
</g>
<!-- Node19&#45;&gt;Node6 -->
<g id="edge20_Node000019_Node000006" class="edge">
<title>Node19&#45;&gt;Node6</title>
<g id="a_edge20_Node000019_Node000006"><a xlink:title=" ">
<path fill="none" stroke="#63b8ff" d="M1087.39,-76.7C1123.01,-73.84 1171.8,-69.94 1214.75,-66.5 1414.75,-50.49 1466.45,-61.05 1664.75,-30.5 1669.74,-29.73 1674.92,-28.78 1680.06,-27.75"/>
<polygon fill="#63b8ff" stroke="#63b8ff" points="1680.66,-31.2 1689.71,-25.68 1679.19,-24.35 1680.66,-31.2"/>
</a>
</g>
</g>
<!-- Node19&#45;&gt;Node7 -->
<g id="edge21_Node000019_Node000007" class="edge">
<title>Node19&#45;&gt;Node7</title>
<g id="a_edge21_Node000019_Node000007"><a xlink:title=" ">
<path fill="none" stroke="#63b8ff" d="M1087.58,-77.38C1256,-66.21 1785.38,-31.09 1789.75,-30.5 1795.81,-29.68 1802.14,-28.63 1808.39,-27.48"/>
<polygon fill="#63b8ff" stroke="#63b8ff" points="1808.87,-30.95 1818.02,-25.61 1807.53,-24.08 1808.87,-30.95"/>
</a>
</g>
</g>
<!-- Node19&#45;&gt;Node8 -->
<g id="edge22_Node000019_Node000008" class="edge">
<title>Node19&#45;&gt;Node8</title>
<g id="a_edge22_Node000019_Node000008"><a xlink:title=" ">
<path fill="none" stroke="#63b8ff" d="M985.98,-80.36C859.14,-78.78 518.41,-70.8 237.75,-30.5 232.41,-29.73 226.86,-28.75 221.35,-27.66"/>
<polygon fill="#63b8ff" stroke="#63b8ff" points="222.2,-24.27 211.7,-25.63 220.76,-31.12 222.2,-24.27"/>
</a>
</g>
</g>
<!-- Node19&#45;&gt;Node9 -->
<g id="edge23_Node000019_Node000009" class="edge">
<title>Node19&#45;&gt;Node9</title>
<g id="a_edge23_Node000019_Node000009"><a xlink:title=" ">
<path fill="none" stroke="#63b8ff" d="M986.14,-78.73C878.5,-74.02 618.76,-60.48 391.87,-30.83"/>
<polygon fill="#63b8ff" stroke="#63b8ff" points="392.62,-27.4 382.25,-29.56 391.7,-34.34 392.62,-27.4"/>
</a>
</g>
</g>
<!-- Node19&#45;&gt;Node10 -->
<g id="edge24_Node000019_Node000010" class="edge">
<title>Node19&#45;&gt;Node10</title>
<g id="a_edge24_Node000019_Node000010"><a xlink:title=" ">
<path fill="none" stroke="#63b8ff" d="M986.05,-78.18C893.83,-73 692.37,-59.43 513.13,-30.74"/>
<polygon fill="#63b8ff" stroke="#63b8ff" points="513.83,-27.31 503.4,-29.16 512.71,-34.22 513.83,-27.31"/>
</a>
</g>
</g>
<!-- Node19&#45;&gt;Node11 -->
<g id="edge26_Node000019_Node000011" class="edge">
<title>Node19&#45;&gt;Node11</title>
<g id="a_edge26_Node000019_Node000011"><a xlink:title=" ">
<path fill="none" stroke="#63b8ff" d="M985.95,-75.87C910.07,-68.24 762.77,-52.09 638.75,-30.5 633.89,-29.65 628.84,-28.69 623.8,-27.66"/>
<polygon fill="#63b8ff" stroke="#63b8ff" points="624.86,-24.31 614.36,-25.66 623.42,-31.16 624.86,-24.31"/>
</a>
</g>
</g>
<!-- Node19&#45;&gt;Node12 -->
<g id="edge27_Node000019_Node000012" class="edge">
<title>Node19&#45;&gt;Node12</title>
<g id="a_edge27_Node000019_Node000012"><a xlink:title=" ">
<path fill="none" stroke="#63b8ff" d="M985.89,-70.53C927.68,-58.83 832.61,-39.73 772.17,-27.59"/>
<polygon fill="#63b8ff" stroke="#63b8ff" points="772.91,-24.17 762.42,-25.63 771.53,-31.03 772.91,-24.17"/>
</a>
</g>
</g>
<!-- Node19&#45;&gt;Node13 -->
<g id="edge28_Node000019_Node000013" class="edge">
<title>Node19&#45;&gt;Node13</title>
<g id="a_edge28_Node000019_Node000013"><a xlink:title=" ">
<path fill="none" stroke="#63b8ff" d="M1000.44,-66.11C973.18,-55.12 936.14,-40.19 909.71,-29.54"/>
<polygon fill="#63b8ff" stroke="#63b8ff" points="911.09,-26.32 900.5,-25.83 908.47,-32.81 911.09,-26.32"/>
</a>
</g>
</g>
<!-- Node19&#45;&gt;Node14 -->
<g id="edge29_Node000019_Node000014" class="edge">
<title>Node19&#45;&gt;Node14</title>
<g id="a_edge29_Node000019_Node000014"><a xlink:title=" ">
<path fill="none" stroke="#63b8ff" d="M1036.75,-66.11C1036.75,-59.02 1036.75,-50.29 1036.75,-42.13"/>
<polygon fill="#63b8ff" stroke="#63b8ff" points="1040.25,-42.34 1036.75,-32.34 1033.25,-42.34 1040.25,-42.34"/>
</a>
</g>
</g>
<!-- Node19&#45;&gt;Node15 -->
<g id="edge30_Node000019_Node000015" class="edge">
<title>Node19&#45;&gt;Node15</title>
<g id="a_edge30_Node000019_Node000015"><a xlink:title=" ">
<path fill="none" stroke="#63b8ff" d="M1087.42,-77.91C1262.69,-68.07 1836.97,-35.83 1925.33,-30.23"/>
<polygon fill="#63b8ff" stroke="#63b8ff" points="1925.41,-33.73 1935.15,-29.54 1924.93,-26.75 1925.41,-33.73"/>
</a>
</g>
</g>
<!-- Node19&#45;&gt;Node16 -->
<g id="edge31_Node000019_Node000016" class="edge">
<title>Node19&#45;&gt;Node16</title>
<g id="a_edge31_Node000019_Node000016"><a xlink:title=" ">
<path fill="none" stroke="#63b8ff" d="M1087.51,-68.84C1130.7,-58.71 1193.2,-44.06 1241.25,-32.79"/>
<polygon fill="#63b8ff" stroke="#63b8ff" points="1241.79,-36.25 1250.72,-30.56 1240.19,-29.44 1241.79,-36.25"/>
</a>
</g>
</g>
<!-- Node19&#45;&gt;Node17 -->
<g id="edge32_Node000019_Node000017" class="edge">
<title>Node19&#45;&gt;Node17</title>
<g id="a_edge32_Node000019_Node000017"><a xlink:title=" ">
<path fill="none" stroke="#63b8ff" d="M1087.62,-73.65C1164.5,-62.86 1307.88,-42.52 1377.41,-30.82"/>
<polygon fill="#63b8ff" stroke="#63b8ff" points="1377.95,-34.28 1387.21,-29.14 1376.76,-27.38 1377.95,-34.28"/>
</a>
</g>
</g>
<!-- Node19&#45;&gt;Node18 -->
<g id="edge33_Node000019_Node000018" class="edge">
<title>Node19&#45;&gt;Node18</title>
<g id="a_edge33_Node000019_Node000018"><a xlink:title=" ">
<path fill="none" stroke="#63b8ff" d="M1087.56,-75.59C1198.16,-64.34 1455.21,-38.11 1516.77,-30.66"/>
<polygon fill="#63b8ff" stroke="#63b8ff" points="1516.85,-34.18 1526.31,-29.42 1515.94,-27.24 1516.85,-34.18"/>
</a>
</g>
</g>
<!-- Node20 -->
<g id="Node000020" class="node">
<title>Node20</title>
<g id="a_Node000020"><a xlink:href="_op_interfaces_8h_8inc.html" target="_top" xlink:title=" ">
<polygon fill="white" stroke="#666666" points="1234.12,-30.5 1121.38,-30.5 1121.38,0 1234.12,0 1234.12,-30.5"/>
<text text-anchor="start" x="1129.38" y="-17" font-family="Helvetica,sans-Serif" font-size="10.00">zklang/Dialect/ZML</text>
<text text-anchor="middle" x="1177.75" y="-5.75" font-family="Helvetica,sans-Serif" font-size="10.00">/IR/OpInterfaces.h.inc</text>
</a>
</g>
</g>
<!-- Node19&#45;&gt;Node20 -->
<g id="edge34_Node000019_Node000020" class="edge">
<title>Node19&#45;&gt;Node20</title>
<g id="a_edge34_Node000019_Node000020"><a xlink:title=" ">
<path fill="none" stroke="#63b8ff" d="M1068.75,-66.11C1088.49,-57.08 1114.04,-45.4 1135.44,-35.61"/>
<polygon fill="#63b8ff" stroke="#63b8ff" points="1136.87,-38.8 1144.51,-31.46 1133.96,-32.43 1136.87,-38.8"/>
</a>
</g>
</g>
<!-- Node21&#45;&gt;Node15 -->
<g id="edge40_Node000021_Node000015" class="edge">
<title>Node21&#45;&gt;Node15</title>
<g id="a_edge40_Node000021_Node000015"><a xlink:title=" ">
<path fill="none" stroke="#63b8ff" d="M1467.45,-132.65C1464.28,-114.39 1462.23,-83.49 1479.75,-66.5 1513.82,-33.47 1842.41,-36.77 1925.35,-30.48"/>
<polygon fill="#63b8ff" stroke="#63b8ff" points="1925.53,-33.98 1935.14,-29.5 1924.84,-27.01 1925.53,-33.98"/>
</a>
</g>
</g>
<!-- Node21&#45;&gt;Node19 -->
<g id="edge42_Node000021_Node000019" class="edge">
<title>Node21&#45;&gt;Node19</title>
<g id="a_edge42_Node000021_Node000019"><a xlink:title=" ">
<path fill="none" stroke="#63b8ff" d="M1420.12,-139.72C1340.19,-127.85 1185.01,-104.78 1098.61,-91.94"/>
<polygon fill="#63b8ff" stroke="#63b8ff" points="1099.3,-88.51 1088.89,-90.5 1098.27,-95.43 1099.3,-88.51"/>
</a>
</g>
</g>
<!-- Node22 -->
<g id="Node000022" class="node">
<title>Node22</title>
<g id="a_Node000022"><a xlink:title=" ">
<polygon fill="#e0e0e0" stroke="#999999" points="2109.5,-91.38 1990,-91.38 1990,-72.12 2109.5,-72.12 2109.5,-91.38"/>
<text text-anchor="middle" x="2049.75" y="-77.88" font-family="Helvetica,sans-Serif" font-size="10.00">llvm/ADT/TypeSwitch.h</text>
</a>
</g>
</g>
<!-- Node21&#45;&gt;Node22 -->
<g id="edge36_Node000021_Node000022" class="edge">
<title>Node21&#45;&gt;Node22</title>
<g id="a_edge36_Node000021_Node000022"><a xlink:title=" ">
<path fill="none" stroke="#63b8ff" d="M1521.5,-134.46C1524.28,-133.92 1527.04,-133.43 1529.75,-133 1728.32,-101.3 1781.68,-125.39 1980.75,-97 1986.73,-96.15 1992.97,-95.09 1999.15,-93.95"/>
<polygon fill="#63b8ff" stroke="#63b8ff" points="1999.49,-97.45 2008.64,-92.1 1998.16,-90.57 1999.49,-97.45"/>
</a>
</g>
</g>
<!-- Node23 -->
<g id="Node000023" class="node">
<title>Node23</title>
<g id="a_Node000023"><a xlink:title=" ">
<polygon fill="#e0e0e0" stroke="#999999" points="2237.62,-91.38 2127.88,-91.38 2127.88,-72.12 2237.62,-72.12 2237.62,-91.38"/>
<text text-anchor="middle" x="2182.75" y="-77.88" font-family="Helvetica,sans-Serif" font-size="10.00">mlir/IR/BuiltinTypes.h</text>
</a>
</g>
</g>
<!-- Node21&#45;&gt;Node23 -->
<g id="edge37_Node000021_Node000023" class="edge">
<title>Node21&#45;&gt;Node23</title>
<g id="a_edge37_Node000021_Node000023"><a xlink:title=" ">
<path fill="none" stroke="#63b8ff" d="M1521.49,-134.4C1524.27,-133.88 1527.04,-133.41 1529.75,-133 1789.11,-94.06 1859.05,-133.61 2118.75,-97 2124.31,-96.22 2130.11,-95.2 2135.85,-94.08"/>
<polygon fill="#63b8ff" stroke="#63b8ff" points="2136.16,-97.59 2145.23,-92.13 2134.73,-90.74 2136.16,-97.59"/>
</a>
</g>
</g>
<!-- Node24 -->
<g id="Node000024" class="node">
<title>Node24</title>
<g id="a_Node000024"><a xlink:title=" ">
<polygon fill="#e0e0e0" stroke="#999999" points="1601.12,-91.38 1488.38,-91.38 1488.38,-72.12 1601.12,-72.12 1601.12,-91.38"/>
<text text-anchor="middle" x="1544.75" y="-77.88" font-family="Helvetica,sans-Serif" font-size="10.00">mlir/IR/SymbolTable.h</text>
</a>
</g>
</g>
<!-- Node21&#45;&gt;Node24 -->
<g id="edge38_Node000021_Node000024" class="edge">
<title>Node21&#45;&gt;Node24</title>
<g id="a_edge38_Node000021_Node000024"><a xlink:title=" ">
<path fill="none" stroke="#63b8ff" d="M1487.54,-132.61C1498.98,-122.64 1514.14,-109.43 1525.98,-99.11"/>
<polygon fill="#63b8ff" stroke="#63b8ff" points="1528.25,-101.78 1533.49,-92.57 1523.65,-96.5 1528.25,-101.78"/>
</a>
</g>
</g>
<!-- Node25 -->
<g id="Node000025" class="node">
<title>Node25</title>
<g id="a_Node000025"><a xlink:title=" ">
<polygon fill="#e0e0e0" stroke="#999999" points="1702.12,-91.38 1619.38,-91.38 1619.38,-72.12 1702.12,-72.12 1702.12,-91.38"/>
<text text-anchor="middle" x="1660.75" y="-77.88" font-family="Helvetica,sans-Serif" font-size="10.00">mlir/IR/Types.h</text>
</a>
</g>
</g>
<!-- Node21&#45;&gt;Node25 -->
<g id="edge39_Node000021_Node000025" class="edge">
<title>Node21&#45;&gt;Node25</title>
<g id="a_edge39_Node000021_Node000025"><a xlink:title=" ">
<path fill="none" stroke="#63b8ff" d="M1513.86,-132.61C1546.87,-121.41 1591.93,-106.11 1623.41,-95.43"/>
<polygon fill="#63b8ff" stroke="#63b8ff" points="1624.15,-98.87 1632.5,-92.34 1621.9,-92.24 1624.15,-98.87"/>
</a>
</g>
</g>
<!-- Node26 -->
<g id="Node000026" class="node">
<title>Node26</title>
<g id="a_Node000026"><a xlink:title=" ">
<polygon fill="#e0e0e0" stroke="#999999" points="1853.62,-97 1719.88,-97 1719.88,-66.5 1853.62,-66.5 1853.62,-97"/>
<text text-anchor="start" x="1727.88" y="-83.5" font-family="Helvetica,sans-Serif" font-size="10.00">mlir/Interfaces/MemorySlot</text>
<text text-anchor="middle" x="1786.75" y="-72.25" font-family="Helvetica,sans-Serif" font-size="10.00">Interfaces.h</text>
</a>
</g>
</g>
<!-- Node21&#45;&gt;Node26 -->
<g id="edge41_Node000021_Node000026" class="edge">
<title>Node21&#45;&gt;Node26</title>
<g id="a_edge41_Node000021_Node000026"><a xlink:title=" ">
<path fill="none" stroke="#63b8ff" d="M1521.57,-134.83C1524.33,-134.2 1527.07,-133.58 1529.75,-133 1563.11,-125.71 1645.82,-109.67 1708.47,-97.66"/>
<polygon fill="#63b8ff" stroke="#63b8ff" points="1708.88,-101.15 1718.04,-95.83 1707.56,-94.28 1708.88,-101.15"/>
</a>
</g>
</g>
<!-- Node21&#45;&gt;Node27 -->
<g id="edge43_Node000021_Node000027" class="edge">
<title>Node21&#45;&gt;Node27</title>
<g id="a_edge43_Node000021_Node000027"><a xlink:title=" ">
<path fill="none" stroke="#63b8ff" d="M1450.78,-132.61C1439.19,-124.12 1424.4,-113.27 1411.56,-103.87"/>
<polygon fill="#63b8ff" stroke="#63b8ff" points="1413.99,-101.31 1403.86,-98.22 1409.86,-106.96 1413.99,-101.31"/>
</a>
</g>
</g>
<!-- Node28 -->
<g id="Node000028" class="node">
<title>Node28</title>
<g id="a_Node000028"><a xlink:href="_types_8h_8inc.html" target="_top" xlink:title=" ">
<polygon fill="white" stroke="#666666" points="1972.12,-97 1871.38,-97 1871.38,-66.5 1972.12,-66.5 1972.12,-97"/>
<text text-anchor="start" x="1879.38" y="-83.5" font-family="Helvetica,sans-Serif" font-size="10.00">zklang/Dialect/ZML</text>
<text text-anchor="middle" x="1921.75" y="-72.25" font-family="Helvetica,sans-Serif" font-size="10.00">/IR/Types.h.inc</text>
</a>
</g>
</g>
<!-- Node21&#45;&gt;Node28 -->
<g id="edge44_Node000021_Node000028" class="edge">
<title>Node21&#45;&gt;Node28</title>
<g id="a_edge44_Node000021_Node000028"><a xlink:title=" ">
<path fill="none" stroke="#63b8ff" d="M1521.51,-134.55C1524.29,-133.99 1527.05,-133.47 1529.75,-133 1672.83,-108.1 1714.09,-121.82 1859.85,-97.36"/>
<polygon fill="#63b8ff" stroke="#63b8ff" points="1860.23,-100.85 1869.5,-95.71 1859.05,-93.95 1860.23,-100.85"/>
</a>
</g>
</g>
<!-- Node30 -->
<g id="Node000030" class="node">
<title>Node30</title>
<g id="a_Node000030"><a xlink:title=" ">
<polygon fill="#e0e0e0" stroke="#999999" points="1714.62,-157.88 1538.88,-157.88 1538.88,-138.62 1714.62,-138.62 1714.62,-157.88"/>
<text text-anchor="middle" x="1626.75" y="-144.38" font-family="Helvetica,sans-Serif" font-size="10.00">mlir/Transforms/DialectConversion.h</text>
</a>
</g>
</g>
<!-- Node29&#45;&gt;Node30 -->
<g id="edge48_Node000029_Node000030" class="edge">
<title>Node29&#45;&gt;Node30</title>
<g id="a_edge48_Node000029_Node000030"><a xlink:title=" ">
<path fill="none" stroke="#63b8ff" d="M1608.2,-199.11C1611.54,-190.13 1615.86,-178.51 1619.49,-168.76"/>
<polygon fill="#63b8ff" stroke="#63b8ff" points="1622.73,-170.08 1622.94,-159.49 1616.17,-167.64 1622.73,-170.08"/>
</a>
</g>
</g>
</g>
</svg>
