<?xml version="1.0" encoding="UTF-8" standalone="no"?>
<!DOCTYPE svg PUBLIC "-//W3C//DTD SVG 1.1//EN"
 "http://www.w3.org/Graphics/SVG/1.1/DTD/svg11.dtd">
<!-- Generated by graphviz version 12.2.1 (20241206.2353)
 -->
<!-- Title: zhl::LexicalScopeImpl Pages: 1 -->
<svg width="226pt" height="83pt"
 viewBox="0.00 0.00 226.00 82.50" xmlns="http://www.w3.org/2000/svg" xmlns:xlink="http://www.w3.org/1999/xlink">
<g id="graph0" class="graph" transform="scale(1 1) rotate(0) translate(4 78.5)">
<title>zhl::LexicalScopeImpl</title>
<!-- Node1 -->
<g id="Node000001" class="node">
<title>Node1</title>
<g id="a_Node000001"><a xlink:title="Mixin that implements the logic for defining members.">
<polygon fill="#999999" stroke="#666666" points="158.62,-74.5 46.63,-74.5 46.63,-55.25 158.62,-55.25 158.62,-74.5"/>
<text text-anchor="middle" x="102.62" y="-61" font-family="Helvetica,sans-Serif" font-size="10.00">zhl::LexicalScopeImpl</text>
</a>
</g>
</g>
<!-- Node2 -->
<g id="Node000002" class="node">
<title>Node2</title>
<g id="a_Node000002"><a xlink:href="classzhl_1_1_block_scope.html" target="_top" xlink:title="Enters a new lexical scope where members can also be defined.">
<polygon fill="white" stroke="#666666" points="87.25,-19.25 0,-19.25 0,0 87.25,0 87.25,-19.25"/>
<text text-anchor="middle" x="43.62" y="-5.75" font-family="Helvetica,sans-Serif" font-size="10.00">zhl::BlockScope</text>
</a>
</g>
</g>
<!-- Node1&#45;&gt;Node2 -->
<g id="edge1_Node000001_Node000002" class="edge">
<title>Node1&#45;&gt;Node2</title>
<g id="a_edge1_Node000001_Node000002"><a xlink:title=" ">
<path fill="none" stroke="#8b1a1a" d="M84.36,-47.39C74.17,-38.19 61.88,-27.1 53.49,-19.52"/>
<polygon fill="#8b1a1a" stroke="#8b1a1a" points="81.72,-49.73 91.49,-53.83 86.41,-44.53 81.72,-49.73"/>
</a>
</g>
</g>
<!-- Node3 -->
<g id="Node000003" class="node">
<title>Node3</title>
<g id="a_Node000003"><a xlink:href="classzhl_1_1_component_scope.html" target="_top" xlink:title=" ">
<polygon fill="white" stroke="#666666" points="218,-19.25 105.25,-19.25 105.25,0 218,0 218,-19.25"/>
<text text-anchor="middle" x="161.62" y="-5.75" font-family="Helvetica,sans-Serif" font-size="10.00">zhl::ComponentScope</text>
</a>
</g>
</g>
<!-- Node1&#45;&gt;Node3 -->
<g id="edge2_Node000001_Node000003" class="edge">
<title>Node1&#45;&gt;Node3</title>
<g id="a_edge2_Node000001_Node000003"><a xlink:title=" ">
<path fill="none" stroke="#8b1a1a" d="M120.89,-47.39C131.08,-38.19 143.37,-27.1 151.76,-19.52"/>
<polygon fill="#8b1a1a" stroke="#8b1a1a" points="118.84,-44.53 113.76,-53.83 123.53,-49.73 118.84,-44.53"/>
</a>
</g>
</g>
</g>
</svg>
