<?xml version="1.0" encoding="UTF-8" standalone="no"?>
<!DOCTYPE svg PUBLIC "-//W3C//DTD SVG 1.1//EN"
 "http://www.w3.org/Graphics/SVG/1.1/DTD/svg11.dtd">
<!-- Generated by graphviz version 12.2.1 (20241206.2353)
 -->
<!-- Title: zml::SetGlobalOpGenericAdaptor&lt; RangeT &gt; Pages: 1 -->
<svg width="169pt" height="184pt"
 viewBox="0.00 0.00 168.75 183.75" xmlns="http://www.w3.org/2000/svg" xmlns:xlink="http://www.w3.org/1999/xlink">
<g id="graph0" class="graph" transform="scale(1 1) rotate(0) translate(4 179.75)">
<title>zml::SetGlobalOpGenericAdaptor&lt; RangeT &gt;</title>
<!-- Node1 -->
<g id="Node000001" class="node">
<title>Node1</title>
<g id="a_Node000001"><a xlink:title=" ">
<polygon fill="#999999" stroke="#666666" points="160.75,-30.5 0,-30.5 0,0 160.75,0 160.75,-30.5"/>
<text text-anchor="start" x="8" y="-17" font-family="Helvetica,sans-Serif" font-size="10.00">zml::SetGlobalOpGenericAdaptor</text>
<text text-anchor="middle" x="80.38" y="-5.75" font-family="Helvetica,sans-Serif" font-size="10.00">&lt; RangeT &gt;</text>
</a>
</g>
</g>
<!-- Node2 -->
<g id="Node000002" class="node">
<title>Node2</title>
<g id="a_Node000002"><a xlink:href="classzml_1_1detail_1_1_set_global_op_generic_adaptor_base.html" target="_top" xlink:title=" ">
<polygon fill="white" stroke="#666666" points="141.62,-98 19.12,-98 19.12,-67.5 141.62,-67.5 141.62,-98"/>
<text text-anchor="start" x="27.12" y="-84.5" font-family="Helvetica,sans-Serif" font-size="10.00">zml::detail::SetGlobalOp</text>
<text text-anchor="middle" x="80.38" y="-73.25" font-family="Helvetica,sans-Serif" font-size="10.00">GenericAdaptorBase</text>
</a>
</g>
</g>
<!-- Node2&#45;&gt;Node1 -->
<g id="edge1_Node000001_Node000002" class="edge">
<title>Node2&#45;&gt;Node1</title>
<g id="a_edge1_Node000001_Node000002"><a xlink:title=" ">
<path fill="none" stroke="#63b8ff" d="M80.38,-55.84C80.38,-47.3 80.38,-38.12 80.38,-30.75"/>
<polygon fill="#63b8ff" stroke="#63b8ff" points="76.88,-55.7 80.38,-65.7 83.88,-55.7 76.88,-55.7"/>
</a>
</g>
</g>
<!-- Node3 -->
<g id="Node000003" class="node">
<title>Node3</title>
<g id="a_Node000003"><a xlink:href="structzml_1_1detail_1_1_set_global_op_generic_adaptor_base_1_1_properties.html" target="_top" xlink:title=" ">
<polygon fill="white" stroke="#666666" points="158.5,-175.75 2.25,-175.75 2.25,-145.25 158.5,-145.25 158.5,-175.75"/>
<text text-anchor="start" x="10.25" y="-162.25" font-family="Helvetica,sans-Serif" font-size="10.00">zml::detail::SetGlobalOp</text>
<text text-anchor="middle" x="80.38" y="-151" font-family="Helvetica,sans-Serif" font-size="10.00">GenericAdaptorBase::Properties</text>
</a>
</g>
</g>
<!-- Node3&#45;&gt;Node2 -->
<g id="edge2_Node000002_Node000003" class="edge">
<title>Node3&#45;&gt;Node2</title>
<g id="a_edge2_Node000002_Node000003"><a xlink:title=" ">
<path fill="none" stroke="#9a32cd" stroke-dasharray="5,2" d="M80.38,-133.47C80.38,-121.71 80.38,-108.26 80.38,-98.31"/>
<polygon fill="#9a32cd" stroke="#9a32cd" points="76.88,-133.38 80.38,-143.38 83.88,-133.38 76.88,-133.38"/>
</a>
</g>
<text text-anchor="middle" x="103.25" y="-117.75" font-family="Helvetica,sans-Serif" font-size="10.00" fill="grey"> properties</text>
</g>
</g>
</svg>
