<?xml version="1.0" encoding="UTF-8" standalone="no"?>
<!DOCTYPE svg PUBLIC "-//W3C//DTD SVG 1.1//EN"
 "http://www.w3.org/Graphics/SVG/1.1/DTD/svg11.dtd">
<!-- Generated by graphviz version 12.2.1 (20241206.2353)
 -->
<!-- Title: zml::ExternFnRefOpGenericAdaptor&lt; RangeT &gt; Pages: 1 -->
<svg width="148pt" height="195pt"
 viewBox="0.00 0.00 147.75 195.00" xmlns="http://www.w3.org/2000/svg" xmlns:xlink="http://www.w3.org/1999/xlink">
<g id="graph0" class="graph" transform="scale(1 1) rotate(0) translate(4 191)">
<title>zml::ExternFnRefOpGenericAdaptor&lt; RangeT &gt;</title>
<!-- Node1 -->
<g id="Node000001" class="node">
<title>Node1</title>
<g id="a_Node000001"><a xlink:title=" ">
<polygon fill="#999999" stroke="#666666" points="139.75,-30.5 0,-30.5 0,0 139.75,0 139.75,-30.5"/>
<text text-anchor="start" x="8" y="-17" font-family="Helvetica,sans-Serif" font-size="10.00">zml::ExternFnRefOpGeneric</text>
<text text-anchor="middle" x="69.88" y="-5.75" font-family="Helvetica,sans-Serif" font-size="10.00">Adaptor&lt; RangeT &gt;</text>
</a>
</g>
</g>
<!-- Node2 -->
<g id="Node000002" class="node">
<title>Node2</title>
<g id="a_Node000002"><a xlink:href="classzml_1_1detail_1_1_extern_fn_ref_op_generic_adaptor_base.html" target="_top" xlink:title=" ">
<polygon fill="white" stroke="#666666" points="131.12,-98 8.62,-98 8.62,-67.5 131.12,-67.5 131.12,-98"/>
<text text-anchor="start" x="16.62" y="-84.5" font-family="Helvetica,sans-Serif" font-size="10.00">zml::detail::ExternFnRef</text>
<text text-anchor="middle" x="69.88" y="-73.25" font-family="Helvetica,sans-Serif" font-size="10.00">OpGenericAdaptorBase</text>
</a>
</g>
</g>
<!-- Node2&#45;&gt;Node1 -->
<g id="edge1_Node000001_Node000002" class="edge">
<title>Node2&#45;&gt;Node1</title>
<g id="a_edge1_Node000001_Node000002"><a xlink:title=" ">
<path fill="none" stroke="#63b8ff" d="M69.88,-55.84C69.88,-47.3 69.88,-38.12 69.88,-30.75"/>
<polygon fill="#63b8ff" stroke="#63b8ff" points="66.38,-55.7 69.88,-65.7 73.38,-55.7 66.38,-55.7"/>
</a>
</g>
</g>
<!-- Node3 -->
<g id="Node000003" class="node">
<title>Node3</title>
<g id="a_Node000003"><a xlink:href="structzml_1_1detail_1_1_extern_fn_ref_op_generic_adaptor_base_1_1_properties.html" target="_top" xlink:title=" ">
<polygon fill="white" stroke="#666666" points="132.25,-187 7.5,-187 7.5,-145.25 132.25,-145.25 132.25,-187"/>
<text text-anchor="start" x="15.5" y="-173.5" font-family="Helvetica,sans-Serif" font-size="10.00">zml::detail::ExternFnRef</text>
<text text-anchor="start" x="15.5" y="-162.25" font-family="Helvetica,sans-Serif" font-size="10.00">OpGenericAdaptorBase::</text>
<text text-anchor="middle" x="69.88" y="-151" font-family="Helvetica,sans-Serif" font-size="10.00">Properties</text>
</a>
</g>
</g>
<!-- Node3&#45;&gt;Node2 -->
<g id="edge2_Node000002_Node000003" class="edge">
<title>Node3&#45;&gt;Node2</title>
<g id="a_edge2_Node000002_Node000003"><a xlink:title=" ">
<path fill="none" stroke="#9a32cd" stroke-dasharray="5,2" d="M69.88,-133.8C69.88,-121.57 69.88,-108.14 69.88,-98.27"/>
<polygon fill="#9a32cd" stroke="#9a32cd" points="66.38,-133.5 69.88,-143.5 73.38,-133.5 66.38,-133.5"/>
</a>
</g>
<text text-anchor="middle" x="92.75" y="-117.75" font-family="Helvetica,sans-Serif" font-size="10.00" fill="grey"> properties</text>
</g>
</g>
</svg>
