<?xml version="1.0" encoding="UTF-8" standalone="no"?>
<!DOCTYPE svg PUBLIC "-//W3C//DTD SVG 1.1//EN"
 "http://www.w3.org/Graphics/SVG/1.1/DTD/svg11.dtd">
<!-- Generated by graphviz version 12.2.1 (20241206.2353)
 -->
<!-- Title: zml::WriteArrayOpAdaptor Pages: 1 -->
<svg width="164pt" height="240pt"
 viewBox="0.00 0.00 164.25 240.00" xmlns="http://www.w3.org/2000/svg" xmlns:xlink="http://www.w3.org/1999/xlink">
<g id="graph0" class="graph" transform="scale(1 1) rotate(0) translate(4 236)">
<title>zml::WriteArrayOpAdaptor</title>
<!-- Node1 -->
<g id="Node000001" class="node">
<title>Node1</title>
<g id="a_Node000001"><a xlink:title=" ">
<polygon fill="#999999" stroke="#666666" points="143.12,-19.25 13.12,-19.25 13.12,0 143.12,0 143.12,-19.25"/>
<text text-anchor="middle" x="78.12" y="-5.75" font-family="Helvetica,sans-Serif" font-size="10.00">zml::WriteArrayOpAdaptor</text>
</a>
</g>
</g>
<!-- Node2 -->
<g id="Node000002" class="node">
<title>Node2</title>
<g id="a_Node000002"><a xlink:href="classzml_1_1_write_array_op_generic_adaptor.html" target="_top" xlink:title=" ">
<polygon fill="white" stroke="#666666" points="150.62,-86.75 5.62,-86.75 5.62,-56.25 150.62,-56.25 150.62,-86.75"/>
<text text-anchor="start" x="13.62" y="-73.25" font-family="Helvetica,sans-Serif" font-size="10.00">zml::WriteArrayOpGeneric</text>
<text text-anchor="middle" x="78.12" y="-62" font-family="Helvetica,sans-Serif" font-size="10.00">Adaptor&lt;::mlir::ValueRange &gt;</text>
</a>
</g>
</g>
<!-- Node2&#45;&gt;Node1 -->
<g id="edge1_Node000001_Node000002" class="edge">
<title>Node2&#45;&gt;Node1</title>
<g id="a_edge1_Node000001_Node000002"><a xlink:title=" ">
<path fill="none" stroke="#63b8ff" d="M78.12,-44.77C78.12,-35.79 78.12,-26.29 78.12,-19.6"/>
<polygon fill="#63b8ff" stroke="#63b8ff" points="74.63,-44.49 78.13,-54.49 81.63,-44.49 74.63,-44.49"/>
</a>
</g>
</g>
<!-- Node3 -->
<g id="Node000003" class="node">
<title>Node3</title>
<g id="a_Node000003"><a xlink:href="classzml_1_1detail_1_1_write_array_op_generic_adaptor_base.html" target="_top" xlink:title=" ">
<polygon fill="white" stroke="#666666" points="140.88,-154.25 15.38,-154.25 15.38,-123.75 140.88,-123.75 140.88,-154.25"/>
<text text-anchor="start" x="23.38" y="-140.75" font-family="Helvetica,sans-Serif" font-size="10.00">zml::detail::WriteArrayOp</text>
<text text-anchor="middle" x="78.12" y="-129.5" font-family="Helvetica,sans-Serif" font-size="10.00">GenericAdaptorBase</text>
</a>
</g>
</g>
<!-- Node3&#45;&gt;Node2 -->
<g id="edge2_Node000002_Node000003" class="edge">
<title>Node3&#45;&gt;Node2</title>
<g id="a_edge2_Node000002_Node000003"><a xlink:title=" ">
<path fill="none" stroke="#63b8ff" d="M78.12,-112.09C78.12,-103.55 78.12,-94.37 78.12,-87"/>
<polygon fill="#63b8ff" stroke="#63b8ff" points="74.63,-111.95 78.13,-121.95 81.63,-111.95 74.63,-111.95"/>
</a>
</g>
</g>
<!-- Node4 -->
<g id="Node000004" class="node">
<title>Node4</title>
<g id="a_Node000004"><a xlink:href="structzml_1_1detail_1_1_write_array_op_generic_adaptor_base_1_1_properties.html" target="_top" xlink:title=" ">
<polygon fill="white" stroke="#666666" points="156.25,-232 0,-232 0,-201.5 156.25,-201.5 156.25,-232"/>
<text text-anchor="start" x="8" y="-218.5" font-family="Helvetica,sans-Serif" font-size="10.00">zml::detail::WriteArrayOp</text>
<text text-anchor="middle" x="78.12" y="-207.25" font-family="Helvetica,sans-Serif" font-size="10.00">GenericAdaptorBase::Properties</text>
</a>
</g>
</g>
<!-- Node4&#45;&gt;Node3 -->
<g id="edge3_Node000003_Node000004" class="edge">
<title>Node4&#45;&gt;Node3</title>
<g id="a_edge3_Node000003_Node000004"><a xlink:title=" ">
<path fill="none" stroke="#9a32cd" stroke-dasharray="5,2" d="M78.12,-189.72C78.12,-177.96 78.12,-164.51 78.12,-154.56"/>
<polygon fill="#9a32cd" stroke="#9a32cd" points="74.63,-189.63 78.13,-199.63 81.63,-189.63 74.63,-189.63"/>
</a>
</g>
<text text-anchor="middle" x="101" y="-174" font-family="Helvetica,sans-Serif" font-size="10.00" fill="grey"> properties</text>
</g>
</g>
</svg>
