<?xml version="1.0" encoding="UTF-8" standalone="no"?>
<!DOCTYPE svg PUBLIC "-//W3C//DTD SVG 1.1//EN"
 "http://www.w3.org/Graphics/SVG/1.1/DTD/svg11.dtd">
<!-- Generated by graphviz version 12.2.1 (20241206.2353)
 -->
<!-- Title: zml::ZhlDirectiveRemoval Pages: 1 -->
<svg width="274pt" height="173pt"
 viewBox="0.00 0.00 273.62 172.50" xmlns="http://www.w3.org/2000/svg" xmlns:xlink="http://www.w3.org/1999/xlink">
<g id="graph0" class="graph" transform="scale(1 1) rotate(0) translate(4 168.5)">
<title>zml::ZhlDirectiveRemoval</title>
<!-- Node1 -->
<g id="Node000001" class="node">
<title>Node1</title>
<g id="a_Node000001"><a xlink:title="Remove compiler directive ops.">
<polygon fill="#999999" stroke="#666666" points="204.38,-19.25 75.12,-19.25 75.12,0 204.38,0 204.38,-19.25"/>
<text text-anchor="middle" x="139.75" y="-5.75" font-family="Helvetica,sans-Serif" font-size="10.00">zml::ZhlDirectiveRemoval</text>
</a>
</g>
</g>
<!-- Node2 -->
<g id="Node000002" class="node">
<title>Node2</title>
<g id="a_Node000002"><a xlink:href="classzml_1_1_zhl_op_lowering_pattern.html" target="_top" xlink:title=" ">
<polygon fill="white" stroke="#666666" points="208.5,-86.75 71,-86.75 71,-56.25 208.5,-56.25 208.5,-86.75"/>
<text text-anchor="start" x="79" y="-73.25" font-family="Helvetica,sans-Serif" font-size="10.00">zml::ZhlOpLoweringPattern</text>
<text text-anchor="middle" x="139.75" y="-62" font-family="Helvetica,sans-Serif" font-size="10.00">&lt; zirgen::Zhl::DirectiveOp &gt;</text>
</a>
</g>
</g>
<!-- Node2&#45;&gt;Node1 -->
<g id="edge1_Node000001_Node000002" class="edge">
<title>Node2&#45;&gt;Node1</title>
<g id="a_edge1_Node000001_Node000002"><a xlink:title=" ">
<path fill="none" stroke="#63b8ff" d="M139.75,-44.77C139.75,-35.79 139.75,-26.29 139.75,-19.6"/>
<polygon fill="#63b8ff" stroke="#63b8ff" points="136.25,-44.49 139.75,-54.49 143.25,-44.49 136.25,-44.49"/>
</a>
</g>
</g>
<!-- Node3 -->
<g id="Node000003" class="node">
<title>Node3</title>
<g id="a_Node000003"><a xlink:title=" ">
<polygon fill="white" stroke="#666666" points="137.5,-164.5 0,-164.5 0,-134 137.5,-134 137.5,-164.5"/>
<text text-anchor="start" x="8" y="-151" font-family="Helvetica,sans-Serif" font-size="10.00">mlir::OpConversionPattern</text>
<text text-anchor="middle" x="68.75" y="-139.75" font-family="Helvetica,sans-Serif" font-size="10.00">&lt; zirgen::Zhl::DirectiveOp &gt;</text>
</a>
</g>
</g>
<!-- Node3&#45;&gt;Node2 -->
<g id="edge2_Node000002_Node000003" class="edge">
<title>Node3&#45;&gt;Node2</title>
<g id="a_edge2_Node000002_Node000003"><a xlink:title=" ">
<path fill="none" stroke="#63b8ff" d="M90.06,-125.51C101.75,-113.04 115.9,-97.95 126.1,-87.06"/>
<polygon fill="#63b8ff" stroke="#63b8ff" points="87.76,-122.85 83.47,-132.54 92.87,-127.64 87.76,-122.85"/>
</a>
</g>
</g>
<!-- Node4 -->
<g id="Node000004" class="node">
<title>Node4</title>
<g id="a_Node000004"><a xlink:href="classzhl_1_1_z_i_r_type_analysis.html" target="_top" xlink:title=" ">
<polygon fill="white" stroke="#666666" points="265.62,-158.88 155.88,-158.88 155.88,-139.62 265.62,-139.62 265.62,-158.88"/>
<text text-anchor="middle" x="210.75" y="-145.38" font-family="Helvetica,sans-Serif" font-size="10.00">zhl::ZIRTypeAnalysis</text>
</a>
</g>
</g>
<!-- Node4&#45;&gt;Node2 -->
<g id="edge3_Node000002_Node000004" class="edge">
<title>Node4&#45;&gt;Node2</title>
<g id="a_edge3_Node000002_Node000004"><a xlink:title=" ">
<path fill="none" stroke="#9a32cd" stroke-dasharray="5,2" d="M194.59,-131.01C182.19,-117.78 165.27,-99.73 153.52,-87.19"/>
<polygon fill="#9a32cd" stroke="#9a32cd" points="191.9,-133.26 201.29,-138.16 197.01,-128.47 191.9,-133.26"/>
</a>
</g>
<text text-anchor="middle" x="209.13" y="-106.5" font-family="Helvetica,sans-Serif" font-size="10.00" fill="grey"> typeAnalysis</text>
</g>
</g>
</svg>
