<?xml version="1.0" encoding="UTF-8" standalone="no"?>
<!DOCTYPE svg PUBLIC "-//W3C//DTD SVG 1.1//EN"
 "http://www.w3.org/Graphics/SVG/1.1/DTD/svg11.dtd">
<!-- Generated by graphviz version 12.2.1 (20241206.2353)
 -->
<!-- Title: zml::detail::ExtMulOpGenericAdaptorBase Pages: 1 -->
<svg width="488pt" height="147pt"
 viewBox="0.00 0.00 488.00 147.12" xmlns="http://www.w3.org/2000/svg" xmlns:xlink="http://www.w3.org/1999/xlink">
<g id="graph0" class="graph" transform="scale(1 1) rotate(0) translate(4 143.12)">
<title>zml::detail::ExtMulOpGenericAdaptorBase</title>
<!-- Node1 -->
<g id="Node000001" class="node">
<title>Node1</title>
<g id="a_Node000001"><a xlink:title=" ">
<polygon fill="#999999" stroke="#666666" points="144.25,-79.5 0,-79.5 0,-49 144.25,-49 144.25,-79.5"/>
<text text-anchor="start" x="8" y="-66" font-family="Helvetica,sans-Serif" font-size="10.00">zml::detail::ExtMulOpGeneric</text>
<text text-anchor="middle" x="72.12" y="-54.75" font-family="Helvetica,sans-Serif" font-size="10.00">AdaptorBase</text>
</a>
</g>
</g>
<!-- Node2 -->
<g id="Node000002" class="node">
<title>Node2</title>
<g id="a_Node000002"><a xlink:href="classzml_1_1_ext_mul_op_generic_adaptor.html" target="_top" xlink:title=" ">
<polygon fill="white" stroke="#666666" points="329,-139.12 180.25,-139.12 180.25,-97.38 329,-97.38 329,-139.12"/>
<text text-anchor="start" x="188.25" y="-125.62" font-family="Helvetica,sans-Serif" font-size="10.00">zml::ExtMulOpGenericAdaptor</text>
<text text-anchor="start" x="188.25" y="-114.38" font-family="Helvetica,sans-Serif" font-size="10.00">&lt;::llvm::ArrayRef&lt;::mlir</text>
<text text-anchor="middle" x="254.62" y="-103.12" font-family="Helvetica,sans-Serif" font-size="10.00">::Attribute &gt; &gt;</text>
</a>
</g>
</g>
<!-- Node1&#45;&gt;Node2 -->
<g id="edge1_Node000001_Node000002" class="edge">
<title>Node1&#45;&gt;Node2</title>
<g id="a_edge1_Node000001_Node000002"><a xlink:title=" ">
<path fill="none" stroke="#63b8ff" d="M136.02,-83.06C150.99,-87.55 167.08,-92.36 182.4,-96.94"/>
<polygon fill="#63b8ff" stroke="#63b8ff" points="137.37,-79.82 126.78,-80.3 135.36,-86.52 137.37,-79.82"/>
</a>
</g>
</g>
<!-- Node3 -->
<g id="Node000003" class="node">
<title>Node3</title>
<g id="a_Node000003"><a xlink:href="classzml_1_1_ext_mul_op_generic_adaptor.html" target="_top" xlink:title=" ">
<polygon fill="white" stroke="#666666" points="329,-79.5 180.25,-79.5 180.25,-49 329,-49 329,-79.5"/>
<text text-anchor="start" x="188.25" y="-66" font-family="Helvetica,sans-Serif" font-size="10.00">zml::ExtMulOpGenericAdaptor</text>
<text text-anchor="middle" x="254.62" y="-54.75" font-family="Helvetica,sans-Serif" font-size="10.00">&lt;::mlir::ValueRange &gt;</text>
</a>
</g>
</g>
<!-- Node1&#45;&gt;Node3 -->
<g id="edge2_Node000001_Node000003" class="edge">
<title>Node1&#45;&gt;Node3</title>
<g id="a_edge2_Node000001_Node000003"><a xlink:title=" ">
<path fill="none" stroke="#63b8ff" d="M155.99,-64.25C164.01,-64.25 172.12,-64.25 180.04,-64.25"/>
<polygon fill="#63b8ff" stroke="#63b8ff" points="156.24,-60.75 146.24,-64.25 156.24,-67.75 156.24,-60.75"/>
</a>
</g>
</g>
<!-- Node5 -->
<g id="Node000005" class="node">
<title>Node5</title>
<g id="a_Node000005"><a xlink:href="classzml_1_1_ext_mul_op_generic_adaptor.html" target="_top" xlink:title=" ">
<polygon fill="white" stroke="#666666" points="329,-30.5 180.25,-30.5 180.25,0 329,0 329,-30.5"/>
<text text-anchor="start" x="188.25" y="-17" font-family="Helvetica,sans-Serif" font-size="10.00">zml::ExtMulOpGenericAdaptor</text>
<text text-anchor="middle" x="254.62" y="-5.75" font-family="Helvetica,sans-Serif" font-size="10.00">&lt; RangeT &gt;</text>
</a>
</g>
</g>
<!-- Node1&#45;&gt;Node5 -->
<g id="edge4_Node000001_Node000005" class="edge">
<title>Node1&#45;&gt;Node5</title>
<g id="a_edge4_Node000001_Node000005"><a xlink:title=" ">
<path fill="none" stroke="#63b8ff" d="M141.63,-45.65C159.43,-40.82 178.44,-35.66 195.64,-30.99"/>
<polygon fill="#63b8ff" stroke="#63b8ff" points="140.93,-42.22 132.19,-48.21 142.76,-48.97 140.93,-42.22"/>
</a>
</g>
</g>
<!-- Node4 -->
<g id="Node000004" class="node">
<title>Node4</title>
<g id="a_Node000004"><a xlink:href="classzml_1_1_ext_mul_op_adaptor.html" target="_top" xlink:title=" ">
<polygon fill="white" stroke="#666666" points="480,-73.88 365,-73.88 365,-54.62 480,-54.62 480,-73.88"/>
<text text-anchor="middle" x="422.5" y="-60.38" font-family="Helvetica,sans-Serif" font-size="10.00">zml::ExtMulOpAdaptor</text>
</a>
</g>
</g>
<!-- Node3&#45;&gt;Node4 -->
<g id="edge3_Node000003_Node000004" class="edge">
<title>Node3&#45;&gt;Node4</title>
<g id="a_edge3_Node000003_Node000004"><a xlink:title=" ">
<path fill="none" stroke="#63b8ff" d="M340.59,-64.25C348.84,-64.25 357.06,-64.25 364.94,-64.25"/>
<polygon fill="#63b8ff" stroke="#63b8ff" points="340.86,-60.75 330.86,-64.25 340.86,-67.75 340.86,-60.75"/>
</a>
</g>
</g>
</g>
</svg>
