<?xml version="1.0" encoding="UTF-8" standalone="no"?>
<!DOCTYPE svg PUBLIC "-//W3C//DTD SVG 1.1//EN"
 "http://www.w3.org/Graphics/SVG/1.1/DTD/svg11.dtd">
<!-- Generated by graphviz version 12.2.1 (20241206.2353)
 -->
<!-- Title: zml::detail::VarArgsOpGenericAdaptorBase Pages: 1 -->
<svg width="499pt" height="147pt"
 viewBox="0.00 0.00 499.25 147.12" xmlns="http://www.w3.org/2000/svg" xmlns:xlink="http://www.w3.org/1999/xlink">
<g id="graph0" class="graph" transform="scale(1 1) rotate(0) translate(4 143.12)">
<title>zml::detail::VarArgsOpGenericAdaptorBase</title>
<!-- Node1 -->
<g id="Node000001" class="node">
<title>Node1</title>
<g id="a_Node000001"><a xlink:title=" ">
<polygon fill="#999999" stroke="#666666" points="148,-79.5 0,-79.5 0,-49 148,-49 148,-79.5"/>
<text text-anchor="start" x="8" y="-66" font-family="Helvetica,sans-Serif" font-size="10.00">zml::detail::VarArgsOpGeneric</text>
<text text-anchor="middle" x="74" y="-54.75" font-family="Helvetica,sans-Serif" font-size="10.00">AdaptorBase</text>
</a>
</g>
</g>
<!-- Node2 -->
<g id="Node000002" class="node">
<title>Node2</title>
<g id="a_Node000002"><a xlink:href="classzml_1_1_var_args_op_generic_adaptor.html" target="_top" xlink:title=" ">
<polygon fill="white" stroke="#666666" points="336.5,-139.12 184,-139.12 184,-97.38 336.5,-97.38 336.5,-139.12"/>
<text text-anchor="start" x="192" y="-125.62" font-family="Helvetica,sans-Serif" font-size="10.00">zml::VarArgsOpGenericAdaptor</text>
<text text-anchor="start" x="192" y="-114.38" font-family="Helvetica,sans-Serif" font-size="10.00">&lt;::llvm::ArrayRef&lt;::mlir</text>
<text text-anchor="middle" x="260.25" y="-103.12" font-family="Helvetica,sans-Serif" font-size="10.00">::Attribute &gt; &gt;</text>
</a>
</g>
</g>
<!-- Node1&#45;&gt;Node2 -->
<g id="edge1_Node000001_Node000002" class="edge">
<title>Node1&#45;&gt;Node2</title>
<g id="a_edge1_Node000001_Node000002"><a xlink:title=" ">
<path fill="none" stroke="#63b8ff" d="M139.2,-83.06C154.48,-87.55 170.9,-92.36 186.54,-96.94"/>
<polygon fill="#63b8ff" stroke="#63b8ff" points="140.33,-79.75 129.75,-80.29 138.36,-86.47 140.33,-79.75"/>
</a>
</g>
</g>
<!-- Node3 -->
<g id="Node000003" class="node">
<title>Node3</title>
<g id="a_Node000003"><a xlink:href="classzml_1_1_var_args_op_generic_adaptor.html" target="_top" xlink:title=" ">
<polygon fill="white" stroke="#666666" points="336.5,-79.5 184,-79.5 184,-49 336.5,-49 336.5,-79.5"/>
<text text-anchor="start" x="192" y="-66" font-family="Helvetica,sans-Serif" font-size="10.00">zml::VarArgsOpGenericAdaptor</text>
<text text-anchor="middle" x="260.25" y="-54.75" font-family="Helvetica,sans-Serif" font-size="10.00">&lt;::mlir::ValueRange &gt;</text>
</a>
</g>
</g>
<!-- Node1&#45;&gt;Node3 -->
<g id="edge2_Node000001_Node000003" class="edge">
<title>Node1&#45;&gt;Node3</title>
<g id="a_edge2_Node000001_Node000003"><a xlink:title=" ">
<path fill="none" stroke="#63b8ff" d="M159.64,-64.25C167.68,-64.25 175.79,-64.25 183.74,-64.25"/>
<polygon fill="#63b8ff" stroke="#63b8ff" points="159.86,-60.75 149.86,-64.25 159.86,-67.75 159.86,-60.75"/>
</a>
</g>
</g>
<!-- Node5 -->
<g id="Node000005" class="node">
<title>Node5</title>
<g id="a_Node000005"><a xlink:href="classzml_1_1_var_args_op_generic_adaptor.html" target="_top" xlink:title=" ">
<polygon fill="white" stroke="#666666" points="336.5,-30.5 184,-30.5 184,0 336.5,0 336.5,-30.5"/>
<text text-anchor="start" x="192" y="-17" font-family="Helvetica,sans-Serif" font-size="10.00">zml::VarArgsOpGenericAdaptor</text>
<text text-anchor="middle" x="260.25" y="-5.75" font-family="Helvetica,sans-Serif" font-size="10.00">&lt; RangeT &gt;</text>
</a>
</g>
</g>
<!-- Node1&#45;&gt;Node5 -->
<g id="edge4_Node000001_Node000005" class="edge">
<title>Node1&#45;&gt;Node5</title>
<g id="a_edge4_Node000001_Node000005"><a xlink:title=" ">
<path fill="none" stroke="#63b8ff" d="M145.18,-45.59C163.33,-40.76 182.69,-35.61 200.21,-30.95"/>
<polygon fill="#63b8ff" stroke="#63b8ff" points="144.29,-42.2 135.52,-48.15 146.08,-48.97 144.29,-42.2"/>
</a>
</g>
</g>
<!-- Node4 -->
<g id="Node000004" class="node">
<title>Node4</title>
<g id="a_Node000004"><a xlink:href="classzml_1_1_var_args_op_adaptor.html" target="_top" xlink:title=" ">
<polygon fill="white" stroke="#666666" points="491.25,-73.88 372.5,-73.88 372.5,-54.62 491.25,-54.62 491.25,-73.88"/>
<text text-anchor="middle" x="431.88" y="-60.38" font-family="Helvetica,sans-Serif" font-size="10.00">zml::VarArgsOpAdaptor</text>
</a>
</g>
</g>
<!-- Node3&#45;&gt;Node4 -->
<g id="edge3_Node000003_Node000004" class="edge">
<title>Node3&#45;&gt;Node4</title>
<g id="a_edge3_Node000003_Node000004"><a xlink:title=" ">
<path fill="none" stroke="#63b8ff" d="M348.08,-64.25C356.18,-64.25 364.26,-64.25 372.01,-64.25"/>
<polygon fill="#63b8ff" stroke="#63b8ff" points="348.15,-60.75 338.15,-64.25 348.15,-67.75 348.15,-60.75"/>
</a>
</g>
</g>
</g>
</svg>
