<?xml version="1.0" encoding="UTF-8" standalone="no"?>
<!DOCTYPE svg PUBLIC "-//W3C//DTD SVG 1.1//EN"
 "http://www.w3.org/Graphics/SVG/1.1/DTD/svg11.dtd">
<!-- Generated by graphviz version 12.2.1 (20241206.2353)
 -->
<!-- Title: zml::detail::MakeExtOpGenericAdaptorBase Pages: 1 -->
<svg width="513pt" height="147pt"
 viewBox="0.00 0.00 512.75 147.12" xmlns="http://www.w3.org/2000/svg" xmlns:xlink="http://www.w3.org/1999/xlink">
<g id="graph0" class="graph" transform="scale(1 1) rotate(0) translate(4 143.12)">
<title>zml::detail::MakeExtOpGenericAdaptorBase</title>
<!-- Node1 -->
<g id="Node000001" class="node">
<title>Node1</title>
<g id="a_Node000001"><a xlink:title=" ">
<polygon fill="#999999" stroke="#666666" points="152.5,-79.5 0,-79.5 0,-49 152.5,-49 152.5,-79.5"/>
<text text-anchor="start" x="8" y="-66" font-family="Helvetica,sans-Serif" font-size="10.00">zml::detail::MakeExtOpGeneric</text>
<text text-anchor="middle" x="76.25" y="-54.75" font-family="Helvetica,sans-Serif" font-size="10.00">AdaptorBase</text>
</a>
</g>
</g>
<!-- Node2 -->
<g id="Node000002" class="node">
<title>Node2</title>
<g id="a_Node000002"><a xlink:href="classzml_1_1_make_ext_op_generic_adaptor.html" target="_top" xlink:title=" ">
<polygon fill="white" stroke="#666666" points="345.5,-139.12 188.5,-139.12 188.5,-97.38 345.5,-97.38 345.5,-139.12"/>
<text text-anchor="start" x="196.5" y="-125.62" font-family="Helvetica,sans-Serif" font-size="10.00">zml::MakeExtOpGenericAdaptor</text>
<text text-anchor="start" x="196.5" y="-114.38" font-family="Helvetica,sans-Serif" font-size="10.00">&lt;::llvm::ArrayRef&lt;::mlir</text>
<text text-anchor="middle" x="267" y="-103.12" font-family="Helvetica,sans-Serif" font-size="10.00">::Attribute &gt; &gt;</text>
</a>
</g>
</g>
<!-- Node1&#45;&gt;Node2 -->
<g id="edge1_Node000001_Node000002" class="edge">
<title>Node1&#45;&gt;Node2</title>
<g id="a_edge1_Node000001_Node000002"><a xlink:title=" ">
<path fill="none" stroke="#63b8ff" d="M142.74,-82.99C158.43,-87.47 175.29,-92.3 191.35,-96.89"/>
<polygon fill="#63b8ff" stroke="#63b8ff" points="144.13,-79.74 133.55,-80.36 142.2,-86.47 144.13,-79.74"/>
</a>
</g>
</g>
<!-- Node3 -->
<g id="Node000003" class="node">
<title>Node3</title>
<g id="a_Node000003"><a xlink:href="classzml_1_1_make_ext_op_generic_adaptor.html" target="_top" xlink:title=" ">
<polygon fill="white" stroke="#666666" points="345.5,-79.5 188.5,-79.5 188.5,-49 345.5,-49 345.5,-79.5"/>
<text text-anchor="start" x="196.5" y="-66" font-family="Helvetica,sans-Serif" font-size="10.00">zml::MakeExtOpGenericAdaptor</text>
<text text-anchor="middle" x="267" y="-54.75" font-family="Helvetica,sans-Serif" font-size="10.00">&lt;::mlir::ValueRange &gt;</text>
</a>
</g>
</g>
<!-- Node1&#45;&gt;Node3 -->
<g id="edge2_Node000001_Node000003" class="edge">
<title>Node1&#45;&gt;Node3</title>
<g id="a_edge2_Node000001_Node000003"><a xlink:title=" ">
<path fill="none" stroke="#63b8ff" d="M164.44,-64.25C172.35,-64.25 180.32,-64.25 188.14,-64.25"/>
<polygon fill="#63b8ff" stroke="#63b8ff" points="164.45,-60.75 154.45,-64.25 164.45,-67.75 164.45,-60.75"/>
</a>
</g>
</g>
<!-- Node5 -->
<g id="Node000005" class="node">
<title>Node5</title>
<g id="a_Node000005"><a xlink:href="classzml_1_1_make_ext_op_generic_adaptor.html" target="_top" xlink:title=" ">
<polygon fill="white" stroke="#666666" points="345.5,-30.5 188.5,-30.5 188.5,0 345.5,0 345.5,-30.5"/>
<text text-anchor="start" x="196.5" y="-17" font-family="Helvetica,sans-Serif" font-size="10.00">zml::MakeExtOpGenericAdaptor</text>
<text text-anchor="middle" x="267" y="-5.75" font-family="Helvetica,sans-Serif" font-size="10.00">&lt; RangeT &gt;</text>
</a>
</g>
</g>
<!-- Node1&#45;&gt;Node5 -->
<g id="edge4_Node000001_Node000005" class="edge">
<title>Node1&#45;&gt;Node5</title>
<g id="a_edge4_Node000001_Node000005"><a xlink:title=" ">
<path fill="none" stroke="#63b8ff" d="M148.88,-45.66C167.55,-40.81 187.49,-35.63 205.52,-30.95"/>
<polygon fill="#63b8ff" stroke="#63b8ff" points="148.02,-42.26 139.22,-48.16 149.77,-49.04 148.02,-42.26"/>
</a>
</g>
</g>
<!-- Node4 -->
<g id="Node000004" class="node">
<title>Node4</title>
<g id="a_Node000004"><a xlink:href="classzml_1_1_make_ext_op_adaptor.html" target="_top" xlink:title=" ">
<polygon fill="white" stroke="#666666" points="504.75,-73.88 381.5,-73.88 381.5,-54.62 504.75,-54.62 504.75,-73.88"/>
<text text-anchor="middle" x="443.12" y="-60.38" font-family="Helvetica,sans-Serif" font-size="10.00">zml::MakeExtOpAdaptor</text>
</a>
</g>
</g>
<!-- Node3&#45;&gt;Node4 -->
<g id="edge3_Node000003_Node000004" class="edge">
<title>Node3&#45;&gt;Node4</title>
<g id="a_edge3_Node000003_Node000004"><a xlink:title=" ">
<path fill="none" stroke="#63b8ff" d="M357.25,-64.25C365.29,-64.25 373.3,-64.25 381.01,-64.25"/>
<polygon fill="#63b8ff" stroke="#63b8ff" points="357.41,-60.75 347.41,-64.25 357.41,-67.75 357.41,-60.75"/>
</a>
</g>
</g>
</g>
</svg>
