<?xml version="1.0" encoding="UTF-8" standalone="no"?>
<!DOCTYPE svg PUBLIC "-//W3C//DTD SVG 1.1//EN"
 "http://www.w3.org/Graphics/SVG/1.1/DTD/svg11.dtd">
<!-- Generated by graphviz version 12.2.1 (20241206.2353)
 -->
<!-- Title: llzk::LLZKTypeConverter Pages: 1 -->
<svg width="262pt" height="94pt"
 viewBox="0.00 0.00 262.38 93.75" xmlns="http://www.w3.org/2000/svg" xmlns:xlink="http://www.w3.org/1999/xlink">
<g id="graph0" class="graph" transform="scale(1 1) rotate(0) translate(4 89.75)">
<title>llzk::LLZKTypeConverter</title>
<!-- Node1 -->
<g id="Node000001" class="node">
<title>Node1</title>
<g id="a_Node000001"><a xlink:title=" ">
<polygon fill="#999999" stroke="#666666" points="180.75,-19.25 56.75,-19.25 56.75,0 180.75,0 180.75,-19.25"/>
<text text-anchor="middle" x="118.75" y="-5.75" font-family="Helvetica,sans-Serif" font-size="10.00">llzk::LLZKTypeConverter</text>
</a>
</g>
</g>
<!-- Node2 -->
<g id="Node000002" class="node">
<title>Node2</title>
<g id="a_Node000002"><a xlink:title=" ">
<polygon fill="white" stroke="#666666" points="101.5,-80.12 0,-80.12 0,-60.88 101.5,-60.88 101.5,-80.12"/>
<text text-anchor="middle" x="50.75" y="-66.62" font-family="Helvetica,sans-Serif" font-size="10.00">mlir::TypeConverter</text>
</a>
</g>
</g>
<!-- Node2&#45;&gt;Node1 -->
<g id="edge1_Node000001_Node000002" class="edge">
<title>Node2&#45;&gt;Node1</title>
<g id="a_edge1_Node000001_Node000002"><a xlink:title=" ">
<path fill="none" stroke="#63b8ff" d="M69.45,-53.31C81.98,-42.46 98,-28.59 108.33,-19.65"/>
<polygon fill="#63b8ff" stroke="#63b8ff" points="67.49,-50.38 62.22,-59.57 72.07,-55.67 67.49,-50.38"/>
</a>
</g>
</g>
<!-- Node3 -->
<g id="Node000003" class="node">
<title>Node3</title>
<g id="a_Node000003"><a xlink:href="classzml_1_1extval_1_1_base_converter_1_1_type_helper.html" target="_top" xlink:title="A bridge interface that handles the conversion of types and the creation of the operations for workin...">
<polygon fill="white" stroke="#666666" points="254.38,-85.75 119.12,-85.75 119.12,-55.25 254.38,-55.25 254.38,-85.75"/>
<text text-anchor="start" x="127.12" y="-72.25" font-family="Helvetica,sans-Serif" font-size="10.00">zml::extval::BaseConverter</text>
<text text-anchor="middle" x="186.75" y="-61" font-family="Helvetica,sans-Serif" font-size="10.00">::TypeHelper</text>
</a>
</g>
</g>
<!-- Node3&#45;&gt;Node1 -->
<g id="edge2_Node000001_Node000003" class="edge">
<title>Node3&#45;&gt;Node1</title>
<g id="a_edge2_Node000001_Node000003"><a xlink:title=" ">
<path fill="none" stroke="#63b8ff" d="M161.39,-47.55C150.26,-37.9 137.79,-27.11 129.23,-19.7"/>
<polygon fill="#63b8ff" stroke="#63b8ff" points="158.95,-50.06 168.8,-53.96 163.53,-44.76 158.95,-50.06"/>
</a>
</g>
</g>
</g>
</svg>
