<?xml version="1.0" encoding="UTF-8" standalone="no"?>
<!DOCTYPE svg PUBLIC "-//W3C//DTD SVG 1.1//EN"
 "http://www.w3.org/Graphics/SVG/1.1/DTD/svg11.dtd">
<!-- Generated by graphviz version 12.2.1 (20241206.2353)
 -->
<!-- Title: zhl::Scope Pages: 1 -->
<svg width="278pt" height="138pt"
 viewBox="0.00 0.00 278.00 137.75" xmlns="http://www.w3.org/2000/svg" xmlns:xlink="http://www.w3.org/1999/xlink">
<g id="graph0" class="graph" transform="scale(1 1) rotate(0) translate(4 133.75)">
<title>zhl::Scope</title>
<!-- Node1 -->
<g id="Node000001" class="node">
<title>Node1</title>
<g id="a_Node000001"><a xlink:title=" ">
<polygon fill="#999999" stroke="#666666" points="185.88,-129.75 123.38,-129.75 123.38,-110.5 185.88,-110.5 185.88,-129.75"/>
<text text-anchor="middle" x="154.62" y="-116.25" font-family="Helvetica,sans-Serif" font-size="10.00">zhl::Scope</text>
</a>
</g>
</g>
<!-- Node2 -->
<g id="Node000002" class="node">
<title>Node2</title>
<g id="a_Node000002"><a xlink:href="classzhl_1_1_child_scope.html" target="_top" xlink:title="A scope that exists inside another.">
<polygon fill="white" stroke="#666666" points="139.12,-74.5 54.12,-74.5 54.12,-55.25 139.12,-55.25 139.12,-74.5"/>
<text text-anchor="middle" x="96.62" y="-61" font-family="Helvetica,sans-Serif" font-size="10.00">zhl::ChildScope</text>
</a>
</g>
</g>
<!-- Node1&#45;&gt;Node2 -->
<g id="edge1_Node000001_Node000002" class="edge">
<title>Node1&#45;&gt;Node2</title>
<g id="a_edge1_Node000001_Node000002"><a xlink:title=" ">
<path fill="none" stroke="#63b8ff" d="M136.36,-102.36C126.41,-93.22 114.49,-82.28 106.32,-74.77"/>
<polygon fill="#63b8ff" stroke="#63b8ff" points="133.94,-104.88 143.67,-109.07 138.67,-99.73 133.94,-104.88"/>
</a>
</g>
</g>
<!-- Node5 -->
<g id="Node000005" class="node">
<title>Node5</title>
<g id="a_Node000005"><a xlink:href="classzhl_1_1_component_scope.html" target="_top" xlink:title=" ">
<polygon fill="white" stroke="#666666" points="270,-74.5 157.25,-74.5 157.25,-55.25 270,-55.25 270,-74.5"/>
<text text-anchor="middle" x="213.62" y="-61" font-family="Helvetica,sans-Serif" font-size="10.00">zhl::ComponentScope</text>
</a>
</g>
</g>
<!-- Node1&#45;&gt;Node5 -->
<g id="edge4_Node000001_Node000005" class="edge">
<title>Node1&#45;&gt;Node5</title>
<g id="a_edge4_Node000001_Node000005"><a xlink:title=" ">
<path fill="none" stroke="#63b8ff" d="M172.89,-102.64C183.08,-93.44 195.37,-82.35 203.76,-74.77"/>
<polygon fill="#63b8ff" stroke="#63b8ff" points="170.84,-99.78 165.76,-109.08 175.53,-104.98 170.84,-99.78"/>
</a>
</g>
</g>
<!-- Node3 -->
<g id="Node000003" class="node">
<title>Node3</title>
<g id="a_Node000003"><a xlink:href="classzhl_1_1_block_scope.html" target="_top" xlink:title="Enters a new lexical scope where members can also be defined.">
<polygon fill="white" stroke="#666666" points="87.25,-19.25 0,-19.25 0,0 87.25,0 87.25,-19.25"/>
<text text-anchor="middle" x="43.62" y="-5.75" font-family="Helvetica,sans-Serif" font-size="10.00">zhl::BlockScope</text>
</a>
</g>
</g>
<!-- Node2&#45;&gt;Node3 -->
<g id="edge2_Node000002_Node000003" class="edge">
<title>Node2&#45;&gt;Node3</title>
<g id="a_edge2_Node000002_Node000003"><a xlink:title=" ">
<path fill="none" stroke="#63b8ff" d="M79.9,-47.07C70.85,-37.98 60.02,-27.1 52.57,-19.61"/>
<polygon fill="#63b8ff" stroke="#63b8ff" points="77.27,-49.39 86.81,-54.01 82.23,-44.45 77.27,-49.39"/>
</a>
</g>
</g>
<!-- Node4 -->
<g id="Node000004" class="node">
<title>Node4</title>
<g id="a_Node000004"><a xlink:href="classzhl_1_1_frame_scope.html" target="_top" xlink:title="A scope that allocates a new memory frame.">
<polygon fill="white" stroke="#666666" points="195.75,-19.25 105.5,-19.25 105.5,0 195.75,0 195.75,-19.25"/>
<text text-anchor="middle" x="150.62" y="-5.75" font-family="Helvetica,sans-Serif" font-size="10.00">zhl::FrameScope</text>
</a>
</g>
</g>
<!-- Node2&#45;&gt;Node4 -->
<g id="edge3_Node000002_Node000004" class="edge">
<title>Node2&#45;&gt;Node4</title>
<g id="a_edge3_Node000002_Node000004"><a xlink:title=" ">
<path fill="none" stroke="#63b8ff" d="M113.66,-47.07C122.89,-37.98 133.92,-27.1 141.51,-19.61"/>
<polygon fill="#63b8ff" stroke="#63b8ff" points="111.28,-44.51 106.62,-54.02 116.2,-49.49 111.28,-44.51"/>
</a>
</g>
</g>
</g>
</svg>
