<?xml version="1.0" encoding="UTF-8" standalone="no"?>
<!DOCTYPE svg PUBLIC "-//W3C//DTD SVG 1.1//EN"
 "http://www.w3.org/Graphics/SVG/1.1/DTD/svg11.dtd">
<!-- Generated by graphviz version 12.2.1 (20241206.2353)
 -->
<!-- Title: zml::detail::ExternFnRefOpGenericAdaptorBase Pages: 1 -->
<svg width="487pt" height="147pt"
 viewBox="0.00 0.00 487.25 147.12" xmlns="http://www.w3.org/2000/svg" xmlns:xlink="http://www.w3.org/1999/xlink">
<g id="graph0" class="graph" transform="scale(1 1) rotate(0) translate(4 143.12)">
<title>zml::detail::ExternFnRefOpGenericAdaptorBase</title>
<!-- Node1 -->
<g id="Node000001" class="node">
<title>Node1</title>
<g id="a_Node000001"><a xlink:title=" ">
<polygon fill="#999999" stroke="#666666" points="122.5,-79.5 0,-79.5 0,-49 122.5,-49 122.5,-79.5"/>
<text text-anchor="start" x="8" y="-66" font-family="Helvetica,sans-Serif" font-size="10.00">zml::detail::ExternFnRef</text>
<text text-anchor="middle" x="61.25" y="-54.75" font-family="Helvetica,sans-Serif" font-size="10.00">OpGenericAdaptorBase</text>
</a>
</g>
</g>
<!-- Node2 -->
<g id="Node000002" class="node">
<title>Node2</title>
<g id="a_Node000002"><a xlink:href="classzml_1_1_extern_fn_ref_op_generic_adaptor.html" target="_top" xlink:title=" ">
<polygon fill="white" stroke="#666666" points="300.88,-139.12 161.12,-139.12 161.12,-97.38 300.88,-97.38 300.88,-139.12"/>
<text text-anchor="start" x="169.12" y="-125.62" font-family="Helvetica,sans-Serif" font-size="10.00">zml::ExternFnRefOpGeneric</text>
<text text-anchor="start" x="169.12" y="-114.38" font-family="Helvetica,sans-Serif" font-size="10.00">Adaptor&lt;::llvm::ArrayRef</text>
<text text-anchor="middle" x="231" y="-103.12" font-family="Helvetica,sans-Serif" font-size="10.00">&lt;::mlir::Attribute &gt; &gt;</text>
</a>
</g>
</g>
<!-- Node1&#45;&gt;Node2 -->
<g id="edge1_Node000001_Node000002" class="edge">
<title>Node1&#45;&gt;Node2</title>
<g id="a_edge1_Node000001_Node000002"><a xlink:title=" ">
<path fill="none" stroke="#63b8ff" d="M121.51,-83.33C135.2,-87.73 149.84,-92.45 163.8,-96.94"/>
<polygon fill="#63b8ff" stroke="#63b8ff" points="122.8,-80.07 112.21,-80.33 120.66,-86.73 122.8,-80.07"/>
</a>
</g>
</g>
<!-- Node3 -->
<g id="Node000003" class="node">
<title>Node3</title>
<g id="a_Node000003"><a xlink:href="classzml_1_1_extern_fn_ref_op_generic_adaptor.html" target="_top" xlink:title=" ">
<polygon fill="white" stroke="#666666" points="303.5,-79.5 158.5,-79.5 158.5,-49 303.5,-49 303.5,-79.5"/>
<text text-anchor="start" x="166.5" y="-66" font-family="Helvetica,sans-Serif" font-size="10.00">zml::ExternFnRefOpGeneric</text>
<text text-anchor="middle" x="231" y="-54.75" font-family="Helvetica,sans-Serif" font-size="10.00">Adaptor&lt;::mlir::ValueRange &gt;</text>
</a>
</g>
</g>
<!-- Node1&#45;&gt;Node3 -->
<g id="edge2_Node000001_Node000003" class="edge">
<title>Node1&#45;&gt;Node3</title>
<g id="a_edge2_Node000001_Node000003"><a xlink:title=" ">
<path fill="none" stroke="#63b8ff" d="M134.25,-64.25C142.15,-64.25 150.2,-64.25 158.1,-64.25"/>
<polygon fill="#63b8ff" stroke="#63b8ff" points="134.33,-60.75 124.33,-64.25 134.33,-67.75 134.33,-60.75"/>
</a>
</g>
</g>
<!-- Node5 -->
<g id="Node000005" class="node">
<title>Node5</title>
<g id="a_Node000005"><a xlink:href="classzml_1_1_extern_fn_ref_op_generic_adaptor.html" target="_top" xlink:title=" ">
<polygon fill="white" stroke="#666666" points="300.88,-30.5 161.12,-30.5 161.12,0 300.88,0 300.88,-30.5"/>
<text text-anchor="start" x="169.12" y="-17" font-family="Helvetica,sans-Serif" font-size="10.00">zml::ExternFnRefOpGeneric</text>
<text text-anchor="middle" x="231" y="-5.75" font-family="Helvetica,sans-Serif" font-size="10.00">Adaptor&lt; RangeT &gt;</text>
</a>
</g>
</g>
<!-- Node1&#45;&gt;Node5 -->
<g id="edge4_Node000001_Node000005" class="edge">
<title>Node1&#45;&gt;Node5</title>
<g id="a_edge4_Node000001_Node000005"><a xlink:title=" ">
<path fill="none" stroke="#63b8ff" d="M126.39,-45.52C142.8,-40.72 160.27,-35.62 176.11,-30.99"/>
<polygon fill="#63b8ff" stroke="#63b8ff" points="125.86,-42.02 117.24,-48.19 127.82,-48.74 125.86,-42.02"/>
</a>
</g>
</g>
<!-- Node4 -->
<g id="Node000004" class="node">
<title>Node4</title>
<g id="a_Node000004"><a xlink:href="classzml_1_1_extern_fn_ref_op_adaptor.html" target="_top" xlink:title=" ">
<polygon fill="white" stroke="#666666" points="479.25,-73.88 339.5,-73.88 339.5,-54.62 479.25,-54.62 479.25,-73.88"/>
<text text-anchor="middle" x="409.38" y="-60.38" font-family="Helvetica,sans-Serif" font-size="10.00">zml::ExternFnRefOpAdaptor</text>
</a>
</g>
</g>
<!-- Node3&#45;&gt;Node4 -->
<g id="edge3_Node000003_Node000004" class="edge">
<title>Node3&#45;&gt;Node4</title>
<g id="a_edge3_Node000003_Node000004"><a xlink:title=" ">
<path fill="none" stroke="#63b8ff" d="M315.25,-64.25C323.26,-64.25 331.32,-64.25 339.18,-64.25"/>
<polygon fill="#63b8ff" stroke="#63b8ff" points="315.51,-60.75 305.51,-64.25 315.51,-67.75 315.51,-60.75"/>
</a>
</g>
</g>
</g>
</svg>
