<?xml version="1.0" encoding="UTF-8" standalone="no"?>
<!DOCTYPE svg PUBLIC "-//W3C//DTD SVG 1.1//EN"
 "http://www.w3.org/Graphics/SVG/1.1/DTD/svg11.dtd">
<!-- Generated by graphviz version 12.2.1 (20241206.2353)
 -->
<!-- Title: zml::ZhlParameterLowering Pages: 1 -->
<svg width="314pt" height="173pt"
 viewBox="0.00 0.00 313.88 172.50" xmlns="http://www.w3.org/2000/svg" xmlns:xlink="http://www.w3.org/1999/xlink">
<g id="graph0" class="graph" transform="scale(1 1) rotate(0) translate(4 168.5)">
<title>zml::ZhlParameterLowering</title>
<!-- Node1 -->
<g id="Node000001" class="node">
<title>Node1</title>
<g id="a_Node000001"><a xlink:title="Converts zhl.parameter op uses to the corresponding argument of the body and updates the type of the ...">
<polygon fill="#999999" stroke="#666666" points="237.62,-19.25 102.38,-19.25 102.38,0 237.62,0 237.62,-19.25"/>
<text text-anchor="middle" x="170" y="-5.75" font-family="Helvetica,sans-Serif" font-size="10.00">zml::ZhlParameterLowering</text>
</a>
</g>
</g>
<!-- Node2 -->
<g id="Node000002" class="node">
<title>Node2</title>
<g id="a_Node000002"><a xlink:href="classzml_1_1_zhl_op_lowering_pattern.html" target="_top" xlink:title=" ">
<polygon fill="white" stroke="#666666" points="259,-86.75 81,-86.75 81,-56.25 259,-56.25 259,-86.75"/>
<text text-anchor="start" x="89" y="-73.25" font-family="Helvetica,sans-Serif" font-size="10.00">zml::ZhlOpLoweringPattern</text>
<text text-anchor="middle" x="170" y="-62" font-family="Helvetica,sans-Serif" font-size="10.00">&lt; zirgen::Zhl::ConstructorParamOp &gt;</text>
</a>
</g>
</g>
<!-- Node2&#45;&gt;Node1 -->
<g id="edge1_Node000001_Node000002" class="edge">
<title>Node2&#45;&gt;Node1</title>
<g id="a_edge1_Node000001_Node000002"><a xlink:title=" ">
<path fill="none" stroke="#63b8ff" d="M170,-44.77C170,-35.79 170,-26.29 170,-19.6"/>
<polygon fill="#63b8ff" stroke="#63b8ff" points="166.5,-44.49 170,-54.49 173.5,-44.49 166.5,-44.49"/>
</a>
</g>
</g>
<!-- Node3 -->
<g id="Node000003" class="node">
<title>Node3</title>
<g id="a_Node000003"><a xlink:title=" ">
<polygon fill="white" stroke="#666666" points="178,-164.5 0,-164.5 0,-134 178,-134 178,-164.5"/>
<text text-anchor="start" x="8" y="-151" font-family="Helvetica,sans-Serif" font-size="10.00">mlir::OpConversionPattern</text>
<text text-anchor="middle" x="89" y="-139.75" font-family="Helvetica,sans-Serif" font-size="10.00">&lt; zirgen::Zhl::ConstructorParamOp &gt;</text>
</a>
</g>
</g>
<!-- Node3&#45;&gt;Node2 -->
<g id="edge2_Node000002_Node000003" class="edge">
<title>Node3&#45;&gt;Node2</title>
<g id="a_edge2_Node000002_Node000003"><a xlink:title=" ">
<path fill="none" stroke="#63b8ff" d="M112.93,-125.87C126.34,-113.33 142.68,-98.05 154.43,-87.06"/>
<polygon fill="#63b8ff" stroke="#63b8ff" points="110.64,-123.22 105.72,-132.61 115.42,-128.34 110.64,-123.22"/>
</a>
</g>
</g>
<!-- Node4 -->
<g id="Node000004" class="node">
<title>Node4</title>
<g id="a_Node000004"><a xlink:href="classzhl_1_1_z_i_r_type_analysis.html" target="_top" xlink:title=" ">
<polygon fill="white" stroke="#666666" points="305.88,-158.88 196.12,-158.88 196.12,-139.62 305.88,-139.62 305.88,-158.88"/>
<text text-anchor="middle" x="251" y="-145.38" font-family="Helvetica,sans-Serif" font-size="10.00">zhl::ZIRTypeAnalysis</text>
</a>
</g>
</g>
<!-- Node4&#45;&gt;Node2 -->
<g id="edge3_Node000002_Node000004" class="edge">
<title>Node4&#45;&gt;Node2</title>
<g id="a_edge3_Node000002_Node000004"><a xlink:title=" ">
<path fill="none" stroke="#9a32cd" stroke-dasharray="5,2" d="M233.37,-131.76C219.17,-118.48 199.38,-99.97 185.71,-87.19"/>
<polygon fill="#9a32cd" stroke="#9a32cd" points="230.59,-133.96 240.28,-138.23 235.37,-128.84 230.59,-133.96"/>
</a>
</g>
<text text-anchor="middle" x="244.97" y="-106.5" font-family="Helvetica,sans-Serif" font-size="10.00" fill="grey"> typeAnalysis</text>
</g>
</g>
</svg>
