<?xml version="1.0" encoding="UTF-8" standalone="no"?>
<!DOCTYPE svg PUBLIC "-//W3C//DTD SVG 1.1//EN"
 "http://www.w3.org/Graphics/SVG/1.1/DTD/svg11.dtd">
<!-- Generated by graphviz version 12.2.1 (20241206.2353)
 -->
<!-- Title: zml::ZhlConstructLowering Pages: 1 -->
<svg width="149pt" height="227pt"
 viewBox="0.00 0.00 149.25 226.75" xmlns="http://www.w3.org/2000/svg" xmlns:xlink="http://www.w3.org/1999/xlink">
<g id="graph0" class="graph" transform="scale(1 1) rotate(0) translate(4 222.75)">
<title>zml::ZhlConstructLowering</title>
<!-- Node1 -->
<g id="Node000001" class="node">
<title>Node1</title>
<g id="a_Node000001"><a xlink:title="Converts zhl.construct ops into calls to the body function of a component.">
<polygon fill="#999999" stroke="#666666" points="137.12,-19.25 4.12,-19.25 4.12,0 137.12,0 137.12,-19.25"/>
<text text-anchor="middle" x="70.62" y="-5.75" font-family="Helvetica,sans-Serif" font-size="10.00">zml::ZhlConstructLowering</text>
</a>
</g>
</g>
<!-- Node2 -->
<g id="Node000002" class="node">
<title>Node2</title>
<g id="a_Node000002"><a xlink:href="classzml_1_1_constructor_lowering.html" target="_top" xlink:title=" ">
<polygon fill="white" stroke="#666666" points="141.25,-85.75 0,-85.75 0,-55.25 141.25,-55.25 141.25,-85.75"/>
<text text-anchor="start" x="8" y="-72.25" font-family="Helvetica,sans-Serif" font-size="10.00">zml::ConstructorLowering</text>
<text text-anchor="middle" x="70.62" y="-61" font-family="Helvetica,sans-Serif" font-size="10.00">&lt; zirgen::Zhl::ConstructOp &gt;</text>
</a>
</g>
</g>
<!-- Node2&#45;&gt;Node1 -->
<g id="edge1_Node000001_Node000002" class="edge">
<title>Node2&#45;&gt;Node1</title>
<g id="a_edge1_Node000001_Node000002"><a xlink:title=" ">
<path fill="none" stroke="#63b8ff" d="M70.62,-43.48C70.62,-34.98 70.62,-26.09 70.62,-19.7"/>
<polygon fill="#63b8ff" stroke="#63b8ff" points="67.13,-43.43 70.63,-53.43 74.13,-43.43 67.13,-43.43"/>
</a>
</g>
</g>
<!-- Node3 -->
<g id="Node000003" class="node">
<title>Node3</title>
<g id="a_Node000003"><a xlink:href="classzml_1_1_zhl_op_lowering_pattern.html" target="_top" xlink:title=" ">
<polygon fill="white" stroke="#666666" points="141.25,-152.25 0,-152.25 0,-121.75 141.25,-121.75 141.25,-152.25"/>
<text text-anchor="start" x="8" y="-138.75" font-family="Helvetica,sans-Serif" font-size="10.00">zml::ZhlOpLoweringPattern</text>
<text text-anchor="middle" x="70.62" y="-127.5" font-family="Helvetica,sans-Serif" font-size="10.00">&lt; zirgen::Zhl::ConstructOp &gt;</text>
</a>
</g>
</g>
<!-- Node3&#45;&gt;Node2 -->
<g id="edge2_Node000002_Node000003" class="edge">
<title>Node3&#45;&gt;Node2</title>
<g id="a_edge2_Node000002_Node000003"><a xlink:title=" ">
<path fill="none" stroke="#63b8ff" d="M70.62,-110.06C70.62,-101.89 70.62,-93.16 70.62,-86.08"/>
<polygon fill="#63b8ff" stroke="#63b8ff" points="67.13,-109.85 70.63,-119.85 74.13,-109.85 67.13,-109.85"/>
</a>
</g>
</g>
<!-- Node4 -->
<g id="Node000004" class="node">
<title>Node4</title>
<g id="a_Node000004"><a xlink:title=" ">
<polygon fill="white" stroke="#666666" points="141.25,-218.75 0,-218.75 0,-188.25 141.25,-188.25 141.25,-218.75"/>
<text text-anchor="start" x="8" y="-205.25" font-family="Helvetica,sans-Serif" font-size="10.00">mlir::OpConversionPattern</text>
<text text-anchor="middle" x="70.62" y="-194" font-family="Helvetica,sans-Serif" font-size="10.00">&lt; zirgen::Zhl::ConstructOp &gt;</text>
</a>
</g>
</g>
<!-- Node4&#45;&gt;Node3 -->
<g id="edge3_Node000003_Node000004" class="edge">
<title>Node4&#45;&gt;Node3</title>
<g id="a_edge3_Node000003_Node000004"><a xlink:title=" ">
<path fill="none" stroke="#63b8ff" d="M70.62,-176.56C70.62,-168.39 70.62,-159.66 70.62,-152.58"/>
<polygon fill="#63b8ff" stroke="#63b8ff" points="67.13,-176.35 70.63,-186.35 74.13,-176.35 67.13,-176.35"/>
</a>
</g>
</g>
</g>
</svg>
