<?xml version="1.0" encoding="UTF-8" standalone="no"?>
<!DOCTYPE svg PUBLIC "-//W3C//DTD SVG 1.1//EN"
 "http://www.w3.org/Graphics/SVG/1.1/DTD/svg11.dtd">
<!-- Generated by graphviz version 12.2.1 (20241206.2353)
 -->
<!-- Title: zml::ZhlGetGlobalLowering Pages: 1 -->
<svg width="336pt" height="173pt"
 viewBox="0.00 0.00 335.75 172.50" xmlns="http://www.w3.org/2000/svg" xmlns:xlink="http://www.w3.org/1999/xlink">
<g id="graph0" class="graph" transform="scale(1 1) rotate(0) translate(4 168.5)">
<title>zml::ZhlGetGlobalLowering</title>
<!-- Node1 -->
<g id="Node000001" class="node">
<title>Node1</title>
<g id="a_Node000001"><a xlink:title=" ">
<polygon fill="#999999" stroke="#666666" points="277.88,-19.25 144.12,-19.25 144.12,0 277.88,0 277.88,-19.25"/>
<text text-anchor="middle" x="211" y="-5.75" font-family="Helvetica,sans-Serif" font-size="10.00">zml::ZhlGetGlobalLowering</text>
</a>
</g>
</g>
<!-- Node2 -->
<g id="Node000002" class="node">
<title>Node2</title>
<g id="a_Node000002"><a xlink:href="classzml_1_1_zhl_op_lowering_pattern.html" target="_top" xlink:title=" ">
<polygon fill="white" stroke="#666666" points="214,-86.75 72,-86.75 72,-56.25 214,-56.25 214,-86.75"/>
<text text-anchor="start" x="80" y="-73.25" font-family="Helvetica,sans-Serif" font-size="10.00">zml::ZhlOpLoweringPattern</text>
<text text-anchor="middle" x="143" y="-62" font-family="Helvetica,sans-Serif" font-size="10.00">&lt; zirgen::Zhl::GetGlobalOp &gt;</text>
</a>
</g>
</g>
<!-- Node2&#45;&gt;Node1 -->
<g id="edge1_Node000001_Node000002" class="edge">
<title>Node2&#45;&gt;Node1</title>
<g id="a_edge1_Node000001_Node000002"><a xlink:title=" ">
<path fill="none" stroke="#63b8ff" d="M167.8,-48.67C179.2,-38.62 192.1,-27.27 200.81,-19.6"/>
<polygon fill="#63b8ff" stroke="#63b8ff" points="165.79,-45.77 160.6,-55.01 170.42,-51.02 165.79,-45.77"/>
</a>
</g>
</g>
<!-- Node3 -->
<g id="Node000003" class="node">
<title>Node3</title>
<g id="a_Node000003"><a xlink:title=" ">
<polygon fill="white" stroke="#666666" points="142,-164.5 0,-164.5 0,-134 142,-134 142,-164.5"/>
<text text-anchor="start" x="8" y="-151" font-family="Helvetica,sans-Serif" font-size="10.00">mlir::OpConversionPattern</text>
<text text-anchor="middle" x="71" y="-139.75" font-family="Helvetica,sans-Serif" font-size="10.00">&lt; zirgen::Zhl::GetGlobalOp &gt;</text>
</a>
</g>
</g>
<!-- Node3&#45;&gt;Node2 -->
<g id="edge2_Node000002_Node000003" class="edge">
<title>Node3&#45;&gt;Node2</title>
<g id="a_edge2_Node000002_Node000003"><a xlink:title=" ">
<path fill="none" stroke="#63b8ff" d="M92.61,-125.51C104.47,-113.04 118.81,-97.95 129.16,-87.06"/>
<polygon fill="#63b8ff" stroke="#63b8ff" points="90.28,-122.89 85.93,-132.55 95.35,-127.71 90.28,-122.89"/>
</a>
</g>
</g>
<!-- Node4 -->
<g id="Node000004" class="node">
<title>Node4</title>
<g id="a_Node000004"><a xlink:href="classzhl_1_1_z_i_r_type_analysis.html" target="_top" xlink:title=" ">
<polygon fill="white" stroke="#666666" points="269.88,-158.88 160.12,-158.88 160.12,-139.62 269.88,-139.62 269.88,-158.88"/>
<text text-anchor="middle" x="215" y="-145.38" font-family="Helvetica,sans-Serif" font-size="10.00">zhl::ZIRTypeAnalysis</text>
</a>
</g>
</g>
<!-- Node4&#45;&gt;Node2 -->
<g id="edge3_Node000002_Node000004" class="edge">
<title>Node4&#45;&gt;Node2</title>
<g id="a_edge3_Node000002_Node000004"><a xlink:title=" ">
<path fill="none" stroke="#9a32cd" stroke-dasharray="5,2" d="M198.61,-131.01C186.04,-117.78 168.88,-99.73 156.96,-87.19"/>
<polygon fill="#9a32cd" stroke="#9a32cd" points="195.99,-133.33 205.42,-138.17 201.06,-128.51 195.99,-133.33"/>
</a>
</g>
<text text-anchor="middle" x="212.94" y="-106.5" font-family="Helvetica,sans-Serif" font-size="10.00" fill="grey"> typeAnalysis</text>
</g>
<!-- Node5 -->
<g id="Node000005" class="node">
<title>Node5</title>
<g id="a_Node000005"><a xlink:href="classzml_1_1_global_builder.html" target="_top" xlink:title="Helper for constructing global variables in a common global module.">
<polygon fill="white" stroke="#666666" points="327.75,-81.12 232.25,-81.12 232.25,-61.88 327.75,-61.88 327.75,-81.12"/>
<text text-anchor="middle" x="280" y="-67.62" font-family="Helvetica,sans-Serif" font-size="10.00">zml::GlobalBuilder</text>
</a>
</g>
</g>
<!-- Node5&#45;&gt;Node1 -->
<g id="edge4_Node000001_Node000005" class="edge">
<title>Node5&#45;&gt;Node1</title>
<g id="a_edge4_Node000001_Node000005"><a xlink:title=" ">
<path fill="none" stroke="#8b1a1a" d="M260.92,-53.94C248.04,-42.77 231.55,-28.46 221.13,-19.41"/>
<polygon fill="#8b1a1a" stroke="#8b1a1a" points="258.53,-56.5 268.38,-60.41 263.12,-51.22 258.53,-56.5"/>
</a>
</g>
</g>
</g>
</svg>
