<?xml version="1.0" encoding="UTF-8" standalone="no"?>
<!DOCTYPE svg PUBLIC "-//W3C//DTD SVG 1.1//EN"
 "http://www.w3.org/Graphics/SVG/1.1/DTD/svg11.dtd">
<!-- Generated by graphviz version 12.2.1 (20241206.2353)
 -->
<!-- Title: zml::FieldDefOpAdaptor Pages: 1 -->
<svg width="163pt" height="240pt"
 viewBox="0.00 0.00 162.75 240.00" xmlns="http://www.w3.org/2000/svg" xmlns:xlink="http://www.w3.org/1999/xlink">
<g id="graph0" class="graph" transform="scale(1 1) rotate(0) translate(4 236)">
<title>zml::FieldDefOpAdaptor</title>
<!-- Node1 -->
<g id="Node000001" class="node">
<title>Node1</title>
<g id="a_Node000001"><a xlink:title=" ">
<polygon fill="#999999" stroke="#666666" points="137.88,-19.25 16.88,-19.25 16.88,0 137.88,0 137.88,-19.25"/>
<text text-anchor="middle" x="77.38" y="-5.75" font-family="Helvetica,sans-Serif" font-size="10.00">zml::FieldDefOpAdaptor</text>
</a>
</g>
</g>
<!-- Node2 -->
<g id="Node000002" class="node">
<title>Node2</title>
<g id="a_Node000002"><a xlink:href="classzml_1_1_field_def_op_generic_adaptor.html" target="_top" xlink:title=" ">
<polygon fill="white" stroke="#666666" points="154.75,-86.75 0,-86.75 0,-56.25 154.75,-56.25 154.75,-86.75"/>
<text text-anchor="start" x="8" y="-73.25" font-family="Helvetica,sans-Serif" font-size="10.00">zml::FieldDefOpGenericAdaptor</text>
<text text-anchor="middle" x="77.38" y="-62" font-family="Helvetica,sans-Serif" font-size="10.00">&lt;::mlir::ValueRange &gt;</text>
</a>
</g>
</g>
<!-- Node2&#45;&gt;Node1 -->
<g id="edge1_Node000001_Node000002" class="edge">
<title>Node2&#45;&gt;Node1</title>
<g id="a_edge1_Node000001_Node000002"><a xlink:title=" ">
<path fill="none" stroke="#63b8ff" d="M77.38,-44.77C77.38,-35.79 77.38,-26.29 77.38,-19.6"/>
<polygon fill="#63b8ff" stroke="#63b8ff" points="73.88,-44.49 77.38,-54.49 80.88,-44.49 73.88,-44.49"/>
</a>
</g>
</g>
<!-- Node3 -->
<g id="Node000003" class="node">
<title>Node3</title>
<g id="a_Node000003"><a xlink:href="classzml_1_1detail_1_1_field_def_op_generic_adaptor_base.html" target="_top" xlink:title=" ">
<polygon fill="white" stroke="#666666" points="152.5,-154.25 2.25,-154.25 2.25,-123.75 152.5,-123.75 152.5,-154.25"/>
<text text-anchor="start" x="10.25" y="-140.75" font-family="Helvetica,sans-Serif" font-size="10.00">zml::detail::FieldDefOpGeneric</text>
<text text-anchor="middle" x="77.38" y="-129.5" font-family="Helvetica,sans-Serif" font-size="10.00">AdaptorBase</text>
</a>
</g>
</g>
<!-- Node3&#45;&gt;Node2 -->
<g id="edge2_Node000002_Node000003" class="edge">
<title>Node3&#45;&gt;Node2</title>
<g id="a_edge2_Node000002_Node000003"><a xlink:title=" ">
<path fill="none" stroke="#63b8ff" d="M77.38,-112.09C77.38,-103.55 77.38,-94.37 77.38,-87"/>
<polygon fill="#63b8ff" stroke="#63b8ff" points="73.88,-111.95 77.38,-121.95 80.88,-111.95 73.88,-111.95"/>
</a>
</g>
</g>
<!-- Node4 -->
<g id="Node000004" class="node">
<title>Node4</title>
<g id="a_Node000004"><a xlink:href="structzml_1_1detail_1_1_field_def_op_generic_adaptor_base_1_1_properties.html" target="_top" xlink:title=" ">
<polygon fill="white" stroke="#666666" points="152.5,-232 2.25,-232 2.25,-201.5 152.5,-201.5 152.5,-232"/>
<text text-anchor="start" x="10.25" y="-218.5" font-family="Helvetica,sans-Serif" font-size="10.00">zml::detail::FieldDefOpGeneric</text>
<text text-anchor="middle" x="77.38" y="-207.25" font-family="Helvetica,sans-Serif" font-size="10.00">AdaptorBase::Properties</text>
</a>
</g>
</g>
<!-- Node4&#45;&gt;Node3 -->
<g id="edge3_Node000003_Node000004" class="edge">
<title>Node4&#45;&gt;Node3</title>
<g id="a_edge3_Node000003_Node000004"><a xlink:title=" ">
<path fill="none" stroke="#9a32cd" stroke-dasharray="5,2" d="M77.38,-189.72C77.38,-177.96 77.38,-164.51 77.38,-154.56"/>
<polygon fill="#9a32cd" stroke="#9a32cd" points="73.88,-189.63 77.38,-199.63 80.88,-189.63 73.88,-189.63"/>
</a>
</g>
<text text-anchor="middle" x="100.25" y="-174" font-family="Helvetica,sans-Serif" font-size="10.00" fill="grey"> properties</text>
</g>
</g>
</svg>
