<?xml version="1.0" encoding="UTF-8" standalone="no"?>
<!DOCTYPE svg PUBLIC "-//W3C//DTD SVG 1.1//EN"
 "http://www.w3.org/Graphics/SVG/1.1/DTD/svg11.dtd">
<!-- Generated by graphviz version 12.2.1 (20241206.2353)
 -->
<!-- Title: zml::ZhlReduceLowering Pages: 1 -->
<svg width="268pt" height="173pt"
 viewBox="0.00 0.00 268.00 172.50" xmlns="http://www.w3.org/2000/svg" xmlns:xlink="http://www.w3.org/1999/xlink">
<g id="graph0" class="graph" transform="scale(1 1) rotate(0) translate(4 168.5)">
<title>zml::ZhlReduceLowering</title>
<!-- Node1 -->
<g id="Node000001" class="node">
<title>Node1</title>
<g id="a_Node000001"><a xlink:title=" ">
<polygon fill="#999999" stroke="#666666" points="197.12,-19.25 73.12,-19.25 73.12,0 197.12,0 197.12,-19.25"/>
<text text-anchor="middle" x="135.12" y="-5.75" font-family="Helvetica,sans-Serif" font-size="10.00">zml::ZhlReduceLowering</text>
</a>
</g>
</g>
<!-- Node2 -->
<g id="Node000002" class="node">
<title>Node2</title>
<g id="a_Node000002"><a xlink:href="classzml_1_1_zhl_op_lowering_pattern.html" target="_top" xlink:title=" ">
<polygon fill="white" stroke="#666666" points="202.38,-86.75 67.88,-86.75 67.88,-56.25 202.38,-56.25 202.38,-86.75"/>
<text text-anchor="start" x="75.88" y="-73.25" font-family="Helvetica,sans-Serif" font-size="10.00">zml::ZhlOpLoweringPattern</text>
<text text-anchor="middle" x="135.12" y="-62" font-family="Helvetica,sans-Serif" font-size="10.00">&lt; zirgen::Zhl::ReduceOp &gt;</text>
</a>
</g>
</g>
<!-- Node2&#45;&gt;Node1 -->
<g id="edge1_Node000001_Node000002" class="edge">
<title>Node2&#45;&gt;Node1</title>
<g id="a_edge1_Node000001_Node000002"><a xlink:title=" ">
<path fill="none" stroke="#63b8ff" d="M135.12,-44.77C135.12,-35.79 135.12,-26.29 135.12,-19.6"/>
<polygon fill="#63b8ff" stroke="#63b8ff" points="131.63,-44.49 135.13,-54.49 138.63,-44.49 131.63,-44.49"/>
</a>
</g>
</g>
<!-- Node3 -->
<g id="Node000003" class="node">
<title>Node3</title>
<g id="a_Node000003"><a xlink:title=" ">
<polygon fill="white" stroke="#666666" points="132.25,-164.5 0,-164.5 0,-134 132.25,-134 132.25,-164.5"/>
<text text-anchor="start" x="8" y="-151" font-family="Helvetica,sans-Serif" font-size="10.00">mlir::OpConversionPattern</text>
<text text-anchor="middle" x="66.12" y="-139.75" font-family="Helvetica,sans-Serif" font-size="10.00">&lt; zirgen::Zhl::ReduceOp &gt;</text>
</a>
</g>
</g>
<!-- Node3&#45;&gt;Node2 -->
<g id="edge2_Node000002_Node000003" class="edge">
<title>Node3&#45;&gt;Node2</title>
<g id="a_edge2_Node000002_Node000003"><a xlink:title=" ">
<path fill="none" stroke="#63b8ff" d="M87.16,-125.15C98.46,-112.75 112.04,-97.84 121.86,-87.06"/>
<polygon fill="#63b8ff" stroke="#63b8ff" points="84.59,-122.78 80.45,-132.53 89.77,-127.49 84.59,-122.78"/>
</a>
</g>
</g>
<!-- Node4 -->
<g id="Node000004" class="node">
<title>Node4</title>
<g id="a_Node000004"><a xlink:href="classzhl_1_1_z_i_r_type_analysis.html" target="_top" xlink:title=" ">
<polygon fill="white" stroke="#666666" points="260,-158.88 150.25,-158.88 150.25,-139.62 260,-139.62 260,-158.88"/>
<text text-anchor="middle" x="205.12" y="-145.38" font-family="Helvetica,sans-Serif" font-size="10.00">zhl::ZIRTypeAnalysis</text>
</a>
</g>
</g>
<!-- Node4&#45;&gt;Node2 -->
<g id="edge3_Node000002_Node000004" class="edge">
<title>Node4&#45;&gt;Node2</title>
<g id="a_edge3_Node000002_Node000004"><a xlink:title=" ">
<path fill="none" stroke="#9a32cd" stroke-dasharray="5,2" d="M189.19,-131.01C176.97,-117.78 160.29,-99.73 148.7,-87.19"/>
<polygon fill="#9a32cd" stroke="#9a32cd" points="186.44,-133.18 195.79,-138.15 191.58,-128.43 186.44,-133.18"/>
</a>
</g>
<text text-anchor="middle" x="203.94" y="-106.5" font-family="Helvetica,sans-Serif" font-size="10.00" fill="grey"> typeAnalysis</text>
</g>
</g>
</svg>
