<?xml version="1.0" encoding="UTF-8" standalone="no"?>
<!DOCTYPE svg PUBLIC "-//W3C//DTD SVG 1.1//EN"
 "http://www.w3.org/Graphics/SVG/1.1/DTD/svg11.dtd">
<!-- Generated by graphviz version 12.2.1 (20241206.2353)
 -->
<!-- Title: zml::ComponentOpAdaptor Pages: 1 -->
<svg width="176pt" height="160pt"
 viewBox="0.00 0.00 176.25 160.25" xmlns="http://www.w3.org/2000/svg" xmlns:xlink="http://www.w3.org/1999/xlink">
<g id="graph0" class="graph" transform="scale(1 1) rotate(0) translate(4 156.25)">
<title>zml::ComponentOpAdaptor</title>
<!-- Node1 -->
<g id="Node000001" class="node">
<title>Node1</title>
<g id="a_Node000001"><a xlink:title=" ">
<polygon fill="#999999" stroke="#666666" points="151.38,-19.25 16.88,-19.25 16.88,0 151.38,0 151.38,-19.25"/>
<text text-anchor="middle" x="84.12" y="-5.75" font-family="Helvetica,sans-Serif" font-size="10.00">zml::ComponentOpAdaptor</text>
</a>
</g>
</g>
<!-- Node2 -->
<g id="Node000002" class="node">
<title>Node2</title>
<g id="a_Node000002"><a xlink:href="classzml_1_1_component_op_generic_adaptor.html" target="_top" xlink:title=" ">
<polygon fill="white" stroke="#666666" points="168.25,-85.75 0,-85.75 0,-55.25 168.25,-55.25 168.25,-85.75"/>
<text text-anchor="start" x="8" y="-72.25" font-family="Helvetica,sans-Serif" font-size="10.00">zml::ComponentOpGenericAdaptor</text>
<text text-anchor="middle" x="84.12" y="-61" font-family="Helvetica,sans-Serif" font-size="10.00">&lt;::mlir::ValueRange &gt;</text>
</a>
</g>
</g>
<!-- Node2&#45;&gt;Node1 -->
<g id="edge1_Node000001_Node000002" class="edge">
<title>Node2&#45;&gt;Node1</title>
<g id="a_edge1_Node000001_Node000002"><a xlink:title=" ">
<path fill="none" stroke="#63b8ff" d="M84.12,-43.48C84.12,-34.98 84.12,-26.09 84.12,-19.7"/>
<polygon fill="#63b8ff" stroke="#63b8ff" points="80.63,-43.43 84.13,-53.43 87.63,-43.43 80.63,-43.43"/>
</a>
</g>
</g>
<!-- Node3 -->
<g id="Node000003" class="node">
<title>Node3</title>
<g id="a_Node000003"><a xlink:href="classzml_1_1detail_1_1_component_op_generic_adaptor_base.html" target="_top" xlink:title=" ">
<polygon fill="white" stroke="#666666" points="149.12,-152.25 19.12,-152.25 19.12,-121.75 149.12,-121.75 149.12,-152.25"/>
<text text-anchor="start" x="27.12" y="-138.75" font-family="Helvetica,sans-Serif" font-size="10.00">zml::detail::ComponentOp</text>
<text text-anchor="middle" x="84.12" y="-127.5" font-family="Helvetica,sans-Serif" font-size="10.00">GenericAdaptorBase</text>
</a>
</g>
</g>
<!-- Node3&#45;&gt;Node2 -->
<g id="edge2_Node000002_Node000003" class="edge">
<title>Node3&#45;&gt;Node2</title>
<g id="a_edge2_Node000002_Node000003"><a xlink:title=" ">
<path fill="none" stroke="#63b8ff" d="M84.12,-110.06C84.12,-101.89 84.12,-93.16 84.12,-86.08"/>
<polygon fill="#63b8ff" stroke="#63b8ff" points="80.63,-109.85 84.13,-119.85 87.63,-109.85 80.63,-109.85"/>
</a>
</g>
</g>
</g>
</svg>
