<?xml version="1.0" encoding="UTF-8" standalone="no"?>
<!DOCTYPE svg PUBLIC "-//W3C//DTD SVG 1.1//EN"
 "http://www.w3.org/Graphics/SVG/1.1/DTD/svg11.dtd">
<!-- Generated by graphviz version 12.2.1 (20241206.2353)
 -->
<!-- Title: zhl::expr::TypedExprViewAdaptor&lt; Expr &gt; Pages: 1 -->
<svg width="136pt" height="160pt"
 viewBox="0.00 0.00 135.75 160.25" xmlns="http://www.w3.org/2000/svg" xmlns:xlink="http://www.w3.org/1999/xlink">
<g id="graph0" class="graph" transform="scale(1 1) rotate(0) translate(4 156.25)">
<title>zhl::expr::TypedExprViewAdaptor&lt; Expr &gt;</title>
<!-- Node1 -->
<g id="Node000001" class="node">
<title>Node1</title>
<g id="a_Node000001"><a xlink:title="A typed wrapper around a view that does not manage the lifetime of the view.">
<polygon fill="#999999" stroke="#666666" points="127.75,-30.5 0,-30.5 0,0 127.75,0 127.75,-30.5"/>
<text text-anchor="start" x="8" y="-17" font-family="Helvetica,sans-Serif" font-size="10.00">zhl::expr::TypedExprView</text>
<text text-anchor="middle" x="63.88" y="-5.75" font-family="Helvetica,sans-Serif" font-size="10.00">Adaptor&lt; Expr &gt;</text>
</a>
</g>
</g>
<!-- Node2 -->
<g id="Node000002" class="node">
<title>Node2</title>
<g id="a_Node000002"><a xlink:href="classzhl_1_1expr_1_1_typed_expr_view.html" target="_top" xlink:title="An interface that coerces the underlying expression to a particular type.">
<polygon fill="white" stroke="#666666" points="127.75,-97 0,-97 0,-66.5 127.75,-66.5 127.75,-97"/>
<text text-anchor="start" x="8" y="-83.5" font-family="Helvetica,sans-Serif" font-size="10.00">zhl::expr::TypedExprView</text>
<text text-anchor="middle" x="63.88" y="-72.25" font-family="Helvetica,sans-Serif" font-size="10.00">&lt; Expr &gt;</text>
</a>
</g>
</g>
<!-- Node2&#45;&gt;Node1 -->
<g id="edge1_Node000001_Node000002" class="edge">
<title>Node2&#45;&gt;Node1</title>
<g id="a_edge1_Node000001_Node000002"><a xlink:title=" ">
<path fill="none" stroke="#63b8ff" d="M63.88,-54.81C63.88,-46.64 63.88,-37.91 63.88,-30.83"/>
<polygon fill="#63b8ff" stroke="#63b8ff" points="60.38,-54.6 63.88,-64.6 67.38,-54.6 60.38,-54.6"/>
</a>
</g>
</g>
<!-- Node3 -->
<g id="Node000003" class="node">
<title>Node3</title>
<g id="a_Node000003"><a xlink:href="classzhl_1_1expr_1_1_expr_view.html" target="_top" xlink:title="Pure virtual class that exposes the common API of expressions around a safe wrapper that handles when...">
<polygon fill="white" stroke="#666666" points="114.62,-152.25 13.12,-152.25 13.12,-133 114.62,-133 114.62,-152.25"/>
<text text-anchor="middle" x="63.88" y="-138.75" font-family="Helvetica,sans-Serif" font-size="10.00">zhl::expr::ExprView</text>
</a>
</g>
</g>
<!-- Node3&#45;&gt;Node2 -->
<g id="edge2_Node000002_Node000003" class="edge">
<title>Node3&#45;&gt;Node2</title>
<g id="a_edge2_Node000002_Node000003"><a xlink:title=" ">
<path fill="none" stroke="#63b8ff" d="M63.88,-121.42C63.88,-113.49 63.88,-104.56 63.88,-97.28"/>
<polygon fill="#63b8ff" stroke="#63b8ff" points="60.38,-121.17 63.88,-131.17 67.38,-121.17 60.38,-121.17"/>
</a>
</g>
</g>
</g>
</svg>
