<?xml version="1.0" encoding="UTF-8" standalone="no"?>
<!DOCTYPE svg PUBLIC "-//W3C//DTD SVG 1.1//EN"
 "http://www.w3.org/Graphics/SVG/1.1/DTD/svg11.dtd">
<!-- Generated by graphviz version 12.2.1 (20241206.2353)
 -->
<!-- Title: zhl::ArrayFrame Pages: 1 -->
<svg width="140pt" height="216pt"
 viewBox="0.00 0.00 139.50 215.50" xmlns="http://www.w3.org/2000/svg" xmlns:xlink="http://www.w3.org/1999/xlink">
<g id="graph0" class="graph" transform="scale(1 1) rotate(0) translate(4 211.5)">
<title>zhl::ArrayFrame</title>
<!-- Node1 -->
<g id="Node000001" class="node">
<title>Node1</title>
<g id="a_Node000001"><a xlink:title="Represents a slot with an inner frame where every slot in the inner frame is repeat N times by using ...">
<polygon fill="#999999" stroke="#666666" points="108.62,-19.25 22.88,-19.25 22.88,0 108.62,0 108.62,-19.25"/>
<text text-anchor="middle" x="65.75" y="-5.75" font-family="Helvetica,sans-Serif" font-size="10.00">zhl::ArrayFrame</text>
</a>
</g>
</g>
<!-- Node2 -->
<g id="Node000002" class="node">
<title>Node2</title>
<g id="a_Node000002"><a xlink:href="classzhl_1_1_component_slot.html" target="_top" xlink:title=" ">
<polygon fill="white" stroke="#666666" points="116.88,-74.5 14.62,-74.5 14.62,-55.25 116.88,-55.25 116.88,-74.5"/>
<text text-anchor="middle" x="65.75" y="-61" font-family="Helvetica,sans-Serif" font-size="10.00">zhl::ComponentSlot</text>
</a>
</g>
</g>
<!-- Node2&#45;&gt;Node1 -->
<g id="edge1_Node000001_Node000002" class="edge">
<title>Node2&#45;&gt;Node1</title>
<g id="a_edge1_Node000001_Node000002"><a xlink:title=" ">
<path fill="none" stroke="#63b8ff" d="M65.75,-43.63C65.75,-35.34 65.75,-26.17 65.75,-19.61"/>
<polygon fill="#63b8ff" stroke="#63b8ff" points="62.25,-43.57 65.75,-53.57 69.25,-43.57 62.25,-43.57"/>
</a>
</g>
</g>
<!-- Node3 -->
<g id="Node000003" class="node">
<title>Node3</title>
<g id="a_Node000003"><a xlink:href="classzhl_1_1_frame_slot.html" target="_top" xlink:title="Base class for anything that can be allocated in a frame.">
<polygon fill="white" stroke="#666666" points="105.62,-129.75 25.88,-129.75 25.88,-110.5 105.62,-110.5 105.62,-129.75"/>
<text text-anchor="middle" x="65.75" y="-116.25" font-family="Helvetica,sans-Serif" font-size="10.00">zhl::FrameSlot</text>
</a>
</g>
</g>
<!-- Node3&#45;&gt;Node2 -->
<g id="edge2_Node000002_Node000003" class="edge">
<title>Node3&#45;&gt;Node2</title>
<g id="a_edge2_Node000002_Node000003"><a xlink:title=" ">
<path fill="none" stroke="#63b8ff" d="M65.75,-98.88C65.75,-90.59 65.75,-81.42 65.75,-74.86"/>
<polygon fill="#63b8ff" stroke="#63b8ff" points="62.25,-98.82 65.75,-108.82 69.25,-98.82 62.25,-98.82"/>
</a>
</g>
</g>
<!-- Node4 -->
<g id="Node000004" class="node">
<title>Node4</title>
<g id="a_Node000004"><a xlink:title=" ">
<polygon fill="white" stroke="#666666" points="131.5,-207.5 0,-207.5 0,-165.75 131.5,-165.75 131.5,-207.5"/>
<text text-anchor="start" x="8" y="-194" font-family="Helvetica,sans-Serif" font-size="10.00">llvm::ilist_node_with</text>
<text text-anchor="start" x="8" y="-182.75" font-family="Helvetica,sans-Serif" font-size="10.00">_parent&lt; FrameSlot, detail</text>
<text text-anchor="middle" x="65.75" y="-171.5" font-family="Helvetica,sans-Serif" font-size="10.00">::FrameInfo &gt;</text>
</a>
</g>
</g>
<!-- Node4&#45;&gt;Node3 -->
<g id="edge3_Node000003_Node000004" class="edge">
<title>Node4&#45;&gt;Node3</title>
<g id="a_edge3_Node000003_Node000004"><a xlink:title=" ">
<path fill="none" stroke="#63b8ff" d="M65.75,-154.26C65.75,-145.45 65.75,-136.55 65.75,-130.2"/>
<polygon fill="#63b8ff" stroke="#63b8ff" points="62.25,-154.06 65.75,-164.06 69.25,-154.06 62.25,-154.06"/>
</a>
</g>
</g>
</g>
</svg>
