<?xml version="1.0" encoding="UTF-8" standalone="no"?>
<!DOCTYPE svg PUBLIC "-//W3C//DTD SVG 1.1//EN"
 "http://www.w3.org/Graphics/SVG/1.1/DTD/svg11.dtd">
<!-- Generated by graphviz version 12.2.1 (20241206.2353)
 -->
<!-- Title: zml::detail::EqzExtOpGenericAdaptorBase Pages: 1 -->
<svg width="493pt" height="147pt"
 viewBox="0.00 0.00 492.50 147.12" xmlns="http://www.w3.org/2000/svg" xmlns:xlink="http://www.w3.org/1999/xlink">
<g id="graph0" class="graph" transform="scale(1 1) rotate(0) translate(4 143.12)">
<title>zml::detail::EqzExtOpGenericAdaptorBase</title>
<!-- Node1 -->
<g id="Node000001" class="node">
<title>Node1</title>
<g id="a_Node000001"><a xlink:title=" ">
<polygon fill="#999999" stroke="#666666" points="145.75,-79.5 0,-79.5 0,-49 145.75,-49 145.75,-79.5"/>
<text text-anchor="start" x="8" y="-66" font-family="Helvetica,sans-Serif" font-size="10.00">zml::detail::EqzExtOpGeneric</text>
<text text-anchor="middle" x="72.88" y="-54.75" font-family="Helvetica,sans-Serif" font-size="10.00">AdaptorBase</text>
</a>
</g>
</g>
<!-- Node2 -->
<g id="Node000002" class="node">
<title>Node2</title>
<g id="a_Node000002"><a xlink:href="classzml_1_1_eqz_ext_op_generic_adaptor.html" target="_top" xlink:title=" ">
<polygon fill="white" stroke="#666666" points="332,-139.12 181.75,-139.12 181.75,-97.38 332,-97.38 332,-139.12"/>
<text text-anchor="start" x="189.75" y="-125.62" font-family="Helvetica,sans-Serif" font-size="10.00">zml::EqzExtOpGenericAdaptor</text>
<text text-anchor="start" x="189.75" y="-114.38" font-family="Helvetica,sans-Serif" font-size="10.00">&lt;::llvm::ArrayRef&lt;::mlir</text>
<text text-anchor="middle" x="256.88" y="-103.12" font-family="Helvetica,sans-Serif" font-size="10.00">::Attribute &gt; &gt;</text>
</a>
</g>
</g>
<!-- Node1&#45;&gt;Node2 -->
<g id="edge1_Node000001_Node000002" class="edge">
<title>Node1&#45;&gt;Node2</title>
<g id="a_edge1_Node000001_Node000002"><a xlink:title=" ">
<path fill="none" stroke="#63b8ff" d="M137.29,-83.06C152.39,-87.55 168.61,-92.36 184.06,-96.94"/>
<polygon fill="#63b8ff" stroke="#63b8ff" points="138.55,-79.79 127.97,-80.3 136.56,-86.5 138.55,-79.79"/>
</a>
</g>
</g>
<!-- Node3 -->
<g id="Node000003" class="node">
<title>Node3</title>
<g id="a_Node000003"><a xlink:href="classzml_1_1_eqz_ext_op_generic_adaptor.html" target="_top" xlink:title=" ">
<polygon fill="white" stroke="#666666" points="332,-79.5 181.75,-79.5 181.75,-49 332,-49 332,-79.5"/>
<text text-anchor="start" x="189.75" y="-66" font-family="Helvetica,sans-Serif" font-size="10.00">zml::EqzExtOpGenericAdaptor</text>
<text text-anchor="middle" x="256.88" y="-54.75" font-family="Helvetica,sans-Serif" font-size="10.00">&lt;::mlir::ValueRange &gt;</text>
</a>
</g>
</g>
<!-- Node1&#45;&gt;Node3 -->
<g id="edge2_Node000001_Node000003" class="edge">
<title>Node1&#45;&gt;Node3</title>
<g id="a_edge2_Node000001_Node000003"><a xlink:title=" ">
<path fill="none" stroke="#63b8ff" d="M157.33,-64.25C165.35,-64.25 173.45,-64.25 181.38,-64.25"/>
<polygon fill="#63b8ff" stroke="#63b8ff" points="157.58,-60.75 147.58,-64.25 157.58,-67.75 157.58,-60.75"/>
</a>
</g>
</g>
<!-- Node5 -->
<g id="Node000005" class="node">
<title>Node5</title>
<g id="a_Node000005"><a xlink:href="classzml_1_1_eqz_ext_op_generic_adaptor.html" target="_top" xlink:title=" ">
<polygon fill="white" stroke="#666666" points="332,-30.5 181.75,-30.5 181.75,0 332,0 332,-30.5"/>
<text text-anchor="start" x="189.75" y="-17" font-family="Helvetica,sans-Serif" font-size="10.00">zml::EqzExtOpGenericAdaptor</text>
<text text-anchor="middle" x="256.88" y="-5.75" font-family="Helvetica,sans-Serif" font-size="10.00">&lt; RangeT &gt;</text>
</a>
</g>
</g>
<!-- Node1&#45;&gt;Node5 -->
<g id="edge4_Node000001_Node000005" class="edge">
<title>Node1&#45;&gt;Node5</title>
<g id="a_edge4_Node000001_Node000005"><a xlink:title=" ">
<path fill="none" stroke="#63b8ff" d="M143.2,-45.59C161.13,-40.76 180.25,-35.61 197.56,-30.95"/>
<polygon fill="#63b8ff" stroke="#63b8ff" points="142.42,-42.17 133.67,-48.15 144.24,-48.93 142.42,-42.17"/>
</a>
</g>
</g>
<!-- Node4 -->
<g id="Node000004" class="node">
<title>Node4</title>
<g id="a_Node000004"><a xlink:href="classzml_1_1_eqz_ext_op_adaptor.html" target="_top" xlink:title=" ">
<polygon fill="white" stroke="#666666" points="484.5,-73.88 368,-73.88 368,-54.62 484.5,-54.62 484.5,-73.88"/>
<text text-anchor="middle" x="426.25" y="-60.38" font-family="Helvetica,sans-Serif" font-size="10.00">zml::EqzExtOpAdaptor</text>
</a>
</g>
</g>
<!-- Node3&#45;&gt;Node4 -->
<g id="edge3_Node000003_Node000004" class="edge">
<title>Node3&#45;&gt;Node4</title>
<g id="a_edge3_Node000003_Node000004"><a xlink:title=" ">
<path fill="none" stroke="#63b8ff" d="M343.72,-64.25C351.83,-64.25 359.92,-64.25 367.67,-64.25"/>
<polygon fill="#63b8ff" stroke="#63b8ff" points="343.78,-60.75 333.78,-64.25 343.78,-67.75 343.78,-60.75"/>
</a>
</g>
</g>
</g>
</svg>
