<?xml version="1.0" encoding="UTF-8" standalone="no"?>
<!DOCTYPE svg PUBLIC "-//W3C//DTD SVG 1.1//EN"
 "http://www.w3.org/Graphics/SVG/1.1/DTD/svg11.dtd">
<!-- Generated by graphviz version 12.2.1 (20241206.2353)
 -->
<!-- Title: zml::detail::AllocArrayOpGenericAdaptorBase Pages: 1 -->
<svg width="479pt" height="147pt"
 viewBox="0.00 0.00 479.00 147.12" xmlns="http://www.w3.org/2000/svg" xmlns:xlink="http://www.w3.org/1999/xlink">
<g id="graph0" class="graph" transform="scale(1 1) rotate(0) translate(4 143.12)">
<title>zml::detail::AllocArrayOpGenericAdaptorBase</title>
<!-- Node1 -->
<g id="Node000001" class="node">
<title>Node1</title>
<g id="a_Node000001"><a xlink:title=" ">
<polygon fill="#999999" stroke="#666666" points="124.75,-79.5 0,-79.5 0,-49 124.75,-49 124.75,-79.5"/>
<text text-anchor="start" x="8" y="-66" font-family="Helvetica,sans-Serif" font-size="10.00">zml::detail::AllocArrayOp</text>
<text text-anchor="middle" x="62.38" y="-54.75" font-family="Helvetica,sans-Serif" font-size="10.00">GenericAdaptorBase</text>
</a>
</g>
</g>
<!-- Node2 -->
<g id="Node000002" class="node">
<title>Node2</title>
<g id="a_Node000002"><a xlink:href="classzml_1_1_alloc_array_op_generic_adaptor.html" target="_top" xlink:title=" ">
<polygon fill="white" stroke="#666666" points="297.88,-139.12 168.62,-139.12 168.62,-97.38 297.88,-97.38 297.88,-139.12"/>
<text text-anchor="start" x="176.62" y="-125.62" font-family="Helvetica,sans-Serif" font-size="10.00">zml::AllocArrayOpGeneric</text>
<text text-anchor="start" x="176.62" y="-114.38" font-family="Helvetica,sans-Serif" font-size="10.00">Adaptor&lt;::llvm::ArrayRef</text>
<text text-anchor="middle" x="233.25" y="-103.12" font-family="Helvetica,sans-Serif" font-size="10.00">&lt;::mlir::Attribute &gt; &gt;</text>
</a>
</g>
</g>
<!-- Node1&#45;&gt;Node2 -->
<g id="edge1_Node000001_Node000002" class="edge">
<title>Node1&#45;&gt;Node2</title>
<g id="a_edge1_Node000001_Node000002"><a xlink:title=" ">
<path fill="none" stroke="#63b8ff" d="M123.18,-83.37C137.84,-88.06 153.58,-93.09 168.41,-97.84"/>
<polygon fill="#63b8ff" stroke="#63b8ff" points="124.25,-80.04 113.66,-80.33 122.12,-86.71 124.25,-80.04"/>
</a>
</g>
</g>
<!-- Node3 -->
<g id="Node000003" class="node">
<title>Node3</title>
<g id="a_Node000003"><a xlink:href="classzml_1_1_alloc_array_op_generic_adaptor.html" target="_top" xlink:title=" ">
<polygon fill="white" stroke="#666666" points="305.75,-79.5 160.75,-79.5 160.75,-49 305.75,-49 305.75,-79.5"/>
<text text-anchor="start" x="168.75" y="-66" font-family="Helvetica,sans-Serif" font-size="10.00">zml::AllocArrayOpGeneric</text>
<text text-anchor="middle" x="233.25" y="-54.75" font-family="Helvetica,sans-Serif" font-size="10.00">Adaptor&lt;::mlir::ValueRange &gt;</text>
</a>
</g>
</g>
<!-- Node1&#45;&gt;Node3 -->
<g id="edge2_Node000001_Node000003" class="edge">
<title>Node1&#45;&gt;Node3</title>
<g id="a_edge2_Node000001_Node000003"><a xlink:title=" ">
<path fill="none" stroke="#63b8ff" d="M136.13,-64.25C144.22,-64.25 152.45,-64.25 160.53,-64.25"/>
<polygon fill="#63b8ff" stroke="#63b8ff" points="136.33,-60.75 126.33,-64.25 136.33,-67.75 136.33,-60.75"/>
</a>
</g>
</g>
<!-- Node5 -->
<g id="Node000005" class="node">
<title>Node5</title>
<g id="a_Node000005"><a xlink:href="classzml_1_1_alloc_array_op_generic_adaptor.html" target="_top" xlink:title=" ">
<polygon fill="white" stroke="#666666" points="297.88,-30.5 168.62,-30.5 168.62,0 297.88,0 297.88,-30.5"/>
<text text-anchor="start" x="176.62" y="-17" font-family="Helvetica,sans-Serif" font-size="10.00">zml::AllocArrayOpGeneric</text>
<text text-anchor="middle" x="233.25" y="-5.75" font-family="Helvetica,sans-Serif" font-size="10.00">Adaptor&lt; RangeT &gt;</text>
</a>
</g>
</g>
<!-- Node1&#45;&gt;Node5 -->
<g id="edge4_Node000001_Node000005" class="edge">
<title>Node1&#45;&gt;Node5</title>
<g id="a_edge4_Node000001_Node000005"><a xlink:title=" ">
<path fill="none" stroke="#63b8ff" d="M127.94,-45.52C144.46,-40.72 162.05,-35.62 178,-30.99"/>
<polygon fill="#63b8ff" stroke="#63b8ff" points="127.35,-42.04 118.73,-48.19 129.31,-48.76 127.35,-42.04"/>
</a>
</g>
</g>
<!-- Node4 -->
<g id="Node000004" class="node">
<title>Node4</title>
<g id="a_Node000004"><a xlink:href="classzml_1_1_alloc_array_op_adaptor.html" target="_top" xlink:title=" ">
<polygon fill="white" stroke="#666666" points="471,-73.88 341.75,-73.88 341.75,-54.62 471,-54.62 471,-73.88"/>
<text text-anchor="middle" x="406.38" y="-60.38" font-family="Helvetica,sans-Serif" font-size="10.00">zml::AllocArrayOpAdaptor</text>
</a>
</g>
</g>
<!-- Node3&#45;&gt;Node4 -->
<g id="edge3_Node000003_Node000004" class="edge">
<title>Node3&#45;&gt;Node4</title>
<g id="a_edge3_Node000003_Node000004"><a xlink:title=" ">
<path fill="none" stroke="#63b8ff" d="M317.27,-64.25C325.39,-64.25 333.55,-64.25 341.44,-64.25"/>
<polygon fill="#63b8ff" stroke="#63b8ff" points="317.34,-60.75 307.34,-64.25 317.34,-67.75 317.34,-60.75"/>
</a>
</g>
</g>
</g>
</svg>
