<?xml version="1.0" encoding="UTF-8" standalone="no"?>
<!DOCTYPE svg PUBLIC "-//W3C//DTD SVG 1.1//EN"
 "http://www.w3.org/Graphics/SVG/1.1/DTD/svg11.dtd">
<!-- Generated by graphviz version 12.2.1 (20241206.2353)
 -->
<!-- Title: zml::detail::IsZeroOpGenericAdaptorBase Pages: 1 -->
<svg width="479pt" height="147pt"
 viewBox="0.00 0.00 479.00 147.12" xmlns="http://www.w3.org/2000/svg" xmlns:xlink="http://www.w3.org/1999/xlink">
<g id="graph0" class="graph" transform="scale(1 1) rotate(0) translate(4 143.12)">
<title>zml::detail::IsZeroOpGenericAdaptorBase</title>
<!-- Node1 -->
<g id="Node000001" class="node">
<title>Node1</title>
<g id="a_Node000001"><a xlink:title=" ">
<polygon fill="#999999" stroke="#666666" points="141.25,-79.5 0,-79.5 0,-49 141.25,-49 141.25,-79.5"/>
<text text-anchor="start" x="8" y="-66" font-family="Helvetica,sans-Serif" font-size="10.00">zml::detail::IsZeroOpGeneric</text>
<text text-anchor="middle" x="70.62" y="-54.75" font-family="Helvetica,sans-Serif" font-size="10.00">AdaptorBase</text>
</a>
</g>
</g>
<!-- Node2 -->
<g id="Node000002" class="node">
<title>Node2</title>
<g id="a_Node000002"><a xlink:href="classzml_1_1_is_zero_op_generic_adaptor.html" target="_top" xlink:title=" ">
<polygon fill="white" stroke="#666666" points="323,-139.12 177.25,-139.12 177.25,-97.38 323,-97.38 323,-139.12"/>
<text text-anchor="start" x="185.25" y="-125.62" font-family="Helvetica,sans-Serif" font-size="10.00">zml::IsZeroOpGenericAdaptor</text>
<text text-anchor="start" x="185.25" y="-114.38" font-family="Helvetica,sans-Serif" font-size="10.00">&lt;::llvm::ArrayRef&lt;::mlir</text>
<text text-anchor="middle" x="250.12" y="-103.12" font-family="Helvetica,sans-Serif" font-size="10.00">::Attribute &gt; &gt;</text>
</a>
</g>
</g>
<!-- Node1&#45;&gt;Node2 -->
<g id="edge1_Node000001_Node000002" class="edge">
<title>Node1&#45;&gt;Node2</title>
<g id="a_edge1_Node000001_Node000002"><a xlink:title=" ">
<path fill="none" stroke="#63b8ff" d="M133.9,-83.2C148.5,-87.64 164.16,-92.4 179.08,-96.94"/>
<polygon fill="#63b8ff" stroke="#63b8ff" points="135,-79.87 124.41,-80.31 132.96,-86.57 135,-79.87"/>
</a>
</g>
</g>
<!-- Node3 -->
<g id="Node000003" class="node">
<title>Node3</title>
<g id="a_Node000003"><a xlink:href="classzml_1_1_is_zero_op_generic_adaptor.html" target="_top" xlink:title=" ">
<polygon fill="white" stroke="#666666" points="323,-79.5 177.25,-79.5 177.25,-49 323,-49 323,-79.5"/>
<text text-anchor="start" x="185.25" y="-66" font-family="Helvetica,sans-Serif" font-size="10.00">zml::IsZeroOpGenericAdaptor</text>
<text text-anchor="middle" x="250.12" y="-54.75" font-family="Helvetica,sans-Serif" font-size="10.00">&lt;::mlir::ValueRange &gt;</text>
</a>
</g>
</g>
<!-- Node1&#45;&gt;Node3 -->
<g id="edge2_Node000001_Node000003" class="edge">
<title>Node1&#45;&gt;Node3</title>
<g id="a_edge2_Node000001_Node000003"><a xlink:title=" ">
<path fill="none" stroke="#63b8ff" d="M152.82,-64.25C160.87,-64.25 169.01,-64.25 176.96,-64.25"/>
<polygon fill="#63b8ff" stroke="#63b8ff" points="153.04,-60.75 143.04,-64.25 153.04,-67.75 153.04,-60.75"/>
</a>
</g>
</g>
<!-- Node5 -->
<g id="Node000005" class="node">
<title>Node5</title>
<g id="a_Node000005"><a xlink:href="classzml_1_1_is_zero_op_generic_adaptor.html" target="_top" xlink:title=" ">
<polygon fill="white" stroke="#666666" points="323,-30.5 177.25,-30.5 177.25,0 323,0 323,-30.5"/>
<text text-anchor="start" x="185.25" y="-17" font-family="Helvetica,sans-Serif" font-size="10.00">zml::IsZeroOpGenericAdaptor</text>
<text text-anchor="middle" x="250.12" y="-5.75" font-family="Helvetica,sans-Serif" font-size="10.00">&lt; RangeT &gt;</text>
</a>
</g>
</g>
<!-- Node1&#45;&gt;Node5 -->
<g id="edge4_Node000001_Node000005" class="edge">
<title>Node1&#45;&gt;Node5</title>
<g id="a_edge4_Node000001_Node000005"><a xlink:title=" ">
<path fill="none" stroke="#63b8ff" d="M139,-45.65C156.5,-40.82 175.19,-35.66 192.1,-30.99"/>
<polygon fill="#63b8ff" stroke="#63b8ff" points="138.44,-42.17 129.73,-48.21 140.3,-48.92 138.44,-42.17"/>
</a>
</g>
</g>
<!-- Node4 -->
<g id="Node000004" class="node">
<title>Node4</title>
<g id="a_Node000004"><a xlink:href="classzml_1_1_is_zero_op_adaptor.html" target="_top" xlink:title=" ">
<polygon fill="white" stroke="#666666" points="471,-73.88 359,-73.88 359,-54.62 471,-54.62 471,-73.88"/>
<text text-anchor="middle" x="415" y="-60.38" font-family="Helvetica,sans-Serif" font-size="10.00">zml::IsZeroOpAdaptor</text>
</a>
</g>
</g>
<!-- Node3&#45;&gt;Node4 -->
<g id="edge3_Node000003_Node000004" class="edge">
<title>Node3&#45;&gt;Node4</title>
<g id="a_edge3_Node000003_Node000004"><a xlink:title=" ">
<path fill="none" stroke="#63b8ff" d="M334.27,-64.25C342.52,-64.25 350.75,-64.25 358.62,-64.25"/>
<polygon fill="#63b8ff" stroke="#63b8ff" points="334.55,-60.75 324.55,-64.25 334.55,-67.75 334.55,-60.75"/>
</a>
</g>
</g>
</g>
</svg>
