<?xml version="1.0" encoding="UTF-8" standalone="no"?>
<!DOCTYPE svg PUBLIC "-//W3C//DTD SVG 1.1//EN"
 "http://www.w3.org/Graphics/SVG/1.1/DTD/svg11.dtd">
<!-- Generated by graphviz version 12.2.1 (20241206.2353)
 -->
<!-- Title: zml::ZhlOpLoweringPattern&lt; Op &gt; Pages: 1 -->
<svg width="268pt" height="116pt"
 viewBox="0.00 0.00 267.62 116.25" xmlns="http://www.w3.org/2000/svg" xmlns:xlink="http://www.w3.org/1999/xlink">
<g id="graph0" class="graph" transform="scale(1 1) rotate(0) translate(4 112.25)">
<title>zml::ZhlOpLoweringPattern&lt; Op &gt;</title>
<!-- Node1 -->
<g id="Node000001" class="node">
<title>Node1</title>
<g id="a_Node000001"><a xlink:title=" ">
<polygon fill="#999999" stroke="#666666" points="202,-30.5 67.5,-30.5 67.5,0 202,0 202,-30.5"/>
<text text-anchor="start" x="75.5" y="-17" font-family="Helvetica,sans-Serif" font-size="10.00">zml::ZhlOpLoweringPattern</text>
<text text-anchor="middle" x="134.75" y="-5.75" font-family="Helvetica,sans-Serif" font-size="10.00">&lt; Op &gt;</text>
</a>
</g>
</g>
<!-- Node2 -->
<g id="Node000002" class="node">
<title>Node2</title>
<g id="a_Node000002"><a xlink:title=" ">
<polygon fill="white" stroke="#666666" points="131.5,-108.25 0,-108.25 0,-77.75 131.5,-77.75 131.5,-108.25"/>
<text text-anchor="start" x="8" y="-94.75" font-family="Helvetica,sans-Serif" font-size="10.00">mlir::OpConversionPattern</text>
<text text-anchor="middle" x="65.75" y="-83.5" font-family="Helvetica,sans-Serif" font-size="10.00">&lt; Op &gt;</text>
</a>
</g>
</g>
<!-- Node2&#45;&gt;Node1 -->
<g id="edge1_Node000001_Node000002" class="edge">
<title>Node2&#45;&gt;Node1</title>
<g id="a_edge1_Node000001_Node000002"><a xlink:title=" ">
<path fill="none" stroke="#63b8ff" d="M86.79,-68.9C98.09,-56.5 111.67,-41.59 121.49,-30.81"/>
<polygon fill="#63b8ff" stroke="#63b8ff" points="84.22,-66.53 80.07,-76.28 89.39,-71.24 84.22,-66.53"/>
</a>
</g>
</g>
<!-- Node3 -->
<g id="Node000003" class="node">
<title>Node3</title>
<g id="a_Node000003"><a xlink:href="classzhl_1_1_z_i_r_type_analysis.html" target="_top" xlink:title=" ">
<polygon fill="white" stroke="#666666" points="259.62,-102.62 149.88,-102.62 149.88,-83.38 259.62,-83.38 259.62,-102.62"/>
<text text-anchor="middle" x="204.75" y="-89.12" font-family="Helvetica,sans-Serif" font-size="10.00">zhl::ZIRTypeAnalysis</text>
</a>
</g>
</g>
<!-- Node3&#45;&gt;Node1 -->
<g id="edge2_Node000001_Node000003" class="edge">
<title>Node3&#45;&gt;Node1</title>
<g id="a_edge2_Node000001_Node000003"><a xlink:title=" ">
<path fill="none" stroke="#9a32cd" stroke-dasharray="5,2" d="M188.82,-74.76C176.6,-61.53 159.91,-43.48 148.32,-30.94"/>
<polygon fill="#9a32cd" stroke="#9a32cd" points="186.06,-76.93 195.42,-81.9 191.2,-72.18 186.06,-76.93"/>
</a>
</g>
<text text-anchor="middle" x="203.57" y="-50.25" font-family="Helvetica,sans-Serif" font-size="10.00" fill="grey"> typeAnalysis</text>
</g>
</g>
</svg>
