<?xml version="1.0" encoding="UTF-8" standalone="no"?>
<!DOCTYPE svg PUBLIC "-//W3C//DTD SVG 1.1//EN"
 "http://www.w3.org/Graphics/SVG/1.1/DTD/svg11.dtd">
<!-- Generated by graphviz version 12.2.1 (20241206.2353)
 -->
<!-- Title: zml::ReadFieldOpGenericAdaptor&lt; RangeT &gt; Pages: 1 -->
<svg width="170pt" height="184pt"
 viewBox="0.00 0.00 170.25 183.75" xmlns="http://www.w3.org/2000/svg" xmlns:xlink="http://www.w3.org/1999/xlink">
<g id="graph0" class="graph" transform="scale(1 1) rotate(0) translate(4 179.75)">
<title>zml::ReadFieldOpGenericAdaptor&lt; RangeT &gt;</title>
<!-- Node1 -->
<g id="Node000001" class="node">
<title>Node1</title>
<g id="a_Node000001"><a xlink:title=" ">
<polygon fill="#999999" stroke="#666666" points="162.25,-30.5 0,-30.5 0,0 162.25,0 162.25,-30.5"/>
<text text-anchor="start" x="8" y="-17" font-family="Helvetica,sans-Serif" font-size="10.00">zml::ReadFieldOpGenericAdaptor</text>
<text text-anchor="middle" x="81.12" y="-5.75" font-family="Helvetica,sans-Serif" font-size="10.00">&lt; RangeT &gt;</text>
</a>
</g>
</g>
<!-- Node2 -->
<g id="Node000002" class="node">
<title>Node2</title>
<g id="a_Node000002"><a xlink:href="classzml_1_1detail_1_1_read_field_op_generic_adaptor_base.html" target="_top" xlink:title=" ">
<polygon fill="white" stroke="#666666" points="143.12,-98 19.12,-98 19.12,-67.5 143.12,-67.5 143.12,-98"/>
<text text-anchor="start" x="27.12" y="-84.5" font-family="Helvetica,sans-Serif" font-size="10.00">zml::detail::ReadFieldOp</text>
<text text-anchor="middle" x="81.12" y="-73.25" font-family="Helvetica,sans-Serif" font-size="10.00">GenericAdaptorBase</text>
</a>
</g>
</g>
<!-- Node2&#45;&gt;Node1 -->
<g id="edge1_Node000001_Node000002" class="edge">
<title>Node2&#45;&gt;Node1</title>
<g id="a_edge1_Node000001_Node000002"><a xlink:title=" ">
<path fill="none" stroke="#63b8ff" d="M81.12,-55.84C81.12,-47.3 81.12,-38.12 81.12,-30.75"/>
<polygon fill="#63b8ff" stroke="#63b8ff" points="77.63,-55.7 81.13,-65.7 84.63,-55.7 77.63,-55.7"/>
</a>
</g>
</g>
<!-- Node3 -->
<g id="Node000003" class="node">
<title>Node3</title>
<g id="a_Node000003"><a xlink:href="structzml_1_1detail_1_1_read_field_op_generic_adaptor_base_1_1_properties.html" target="_top" xlink:title=" ">
<polygon fill="white" stroke="#666666" points="159.25,-175.75 3,-175.75 3,-145.25 159.25,-145.25 159.25,-175.75"/>
<text text-anchor="start" x="11" y="-162.25" font-family="Helvetica,sans-Serif" font-size="10.00">zml::detail::ReadFieldOp</text>
<text text-anchor="middle" x="81.12" y="-151" font-family="Helvetica,sans-Serif" font-size="10.00">GenericAdaptorBase::Properties</text>
</a>
</g>
</g>
<!-- Node3&#45;&gt;Node2 -->
<g id="edge2_Node000002_Node000003" class="edge">
<title>Node3&#45;&gt;Node2</title>
<g id="a_edge2_Node000002_Node000003"><a xlink:title=" ">
<path fill="none" stroke="#9a32cd" stroke-dasharray="5,2" d="M81.12,-133.47C81.12,-121.71 81.12,-108.26 81.12,-98.31"/>
<polygon fill="#9a32cd" stroke="#9a32cd" points="77.63,-133.38 81.13,-143.38 84.63,-133.38 77.63,-133.38"/>
</a>
</g>
<text text-anchor="middle" x="104" y="-117.75" font-family="Helvetica,sans-Serif" font-size="10.00" fill="grey"> properties</text>
</g>
</g>
</svg>
