<?xml version="1.0" encoding="UTF-8" standalone="no"?>
<!DOCTYPE svg PUBLIC "-//W3C//DTD SVG 1.1//EN"
 "http://www.w3.org/Graphics/SVG/1.1/DTD/svg11.dtd">
<!-- Generated by graphviz version 12.2.1 (20241206.2353)
 -->
<!-- Title: zml::ZhlConstructLowering Pages: 1 -->
<svg width="278pt" height="240pt"
 viewBox="0.00 0.00 277.50 240.00" xmlns="http://www.w3.org/2000/svg" xmlns:xlink="http://www.w3.org/1999/xlink">
<g id="graph0" class="graph" transform="scale(1 1) rotate(0) translate(4 236)">
<title>zml::ZhlConstructLowering</title>
<!-- Node1 -->
<g id="Node000001" class="node">
<title>Node1</title>
<g id="a_Node000001"><a xlink:title="Converts zhl.construct ops into calls to the body function of a component.">
<polygon fill="#999999" stroke="#666666" points="209.12,-19.25 76.12,-19.25 76.12,0 209.12,0 209.12,-19.25"/>
<text text-anchor="middle" x="142.62" y="-5.75" font-family="Helvetica,sans-Serif" font-size="10.00">zml::ZhlConstructLowering</text>
</a>
</g>
</g>
<!-- Node2 -->
<g id="Node000002" class="node">
<title>Node2</title>
<g id="a_Node000002"><a xlink:href="classzml_1_1_constructor_lowering.html" target="_top" xlink:title=" ">
<polygon fill="white" stroke="#666666" points="213.25,-86.75 72,-86.75 72,-56.25 213.25,-56.25 213.25,-86.75"/>
<text text-anchor="start" x="80" y="-73.25" font-family="Helvetica,sans-Serif" font-size="10.00">zml::ConstructorLowering</text>
<text text-anchor="middle" x="142.62" y="-62" font-family="Helvetica,sans-Serif" font-size="10.00">&lt; zirgen::Zhl::ConstructOp &gt;</text>
</a>
</g>
</g>
<!-- Node2&#45;&gt;Node1 -->
<g id="edge1_Node000001_Node000002" class="edge">
<title>Node2&#45;&gt;Node1</title>
<g id="a_edge1_Node000001_Node000002"><a xlink:title=" ">
<path fill="none" stroke="#63b8ff" d="M142.62,-44.77C142.62,-35.79 142.62,-26.29 142.62,-19.6"/>
<polygon fill="#63b8ff" stroke="#63b8ff" points="139.13,-44.49 142.63,-54.49 146.13,-44.49 139.13,-44.49"/>
</a>
</g>
</g>
<!-- Node3 -->
<g id="Node000003" class="node">
<title>Node3</title>
<g id="a_Node000003"><a xlink:href="classzml_1_1_zhl_op_lowering_pattern.html" target="_top" xlink:title=" ">
<polygon fill="white" stroke="#666666" points="213.25,-154.25 72,-154.25 72,-123.75 213.25,-123.75 213.25,-154.25"/>
<text text-anchor="start" x="80" y="-140.75" font-family="Helvetica,sans-Serif" font-size="10.00">zml::ZhlOpLoweringPattern</text>
<text text-anchor="middle" x="142.62" y="-129.5" font-family="Helvetica,sans-Serif" font-size="10.00">&lt; zirgen::Zhl::ConstructOp &gt;</text>
</a>
</g>
</g>
<!-- Node3&#45;&gt;Node2 -->
<g id="edge2_Node000002_Node000003" class="edge">
<title>Node3&#45;&gt;Node2</title>
<g id="a_edge2_Node000002_Node000003"><a xlink:title=" ">
<path fill="none" stroke="#63b8ff" d="M142.62,-112.09C142.62,-103.55 142.62,-94.37 142.62,-87"/>
<polygon fill="#63b8ff" stroke="#63b8ff" points="139.13,-111.95 142.63,-121.95 146.13,-111.95 139.13,-111.95"/>
</a>
</g>
</g>
<!-- Node4 -->
<g id="Node000004" class="node">
<title>Node4</title>
<g id="a_Node000004"><a xlink:title=" ">
<polygon fill="white" stroke="#666666" points="141.25,-232 0,-232 0,-201.5 141.25,-201.5 141.25,-232"/>
<text text-anchor="start" x="8" y="-218.5" font-family="Helvetica,sans-Serif" font-size="10.00">mlir::OpConversionPattern</text>
<text text-anchor="middle" x="70.62" y="-207.25" font-family="Helvetica,sans-Serif" font-size="10.00">&lt; zirgen::Zhl::ConstructOp &gt;</text>
</a>
</g>
</g>
<!-- Node4&#45;&gt;Node3 -->
<g id="edge3_Node000003_Node000004" class="edge">
<title>Node4&#45;&gt;Node3</title>
<g id="a_edge3_Node000003_Node000004"><a xlink:title=" ">
<path fill="none" stroke="#63b8ff" d="M92.24,-193.01C104.09,-180.54 118.44,-165.45 128.79,-154.56"/>
<polygon fill="#63b8ff" stroke="#63b8ff" points="89.9,-190.39 85.55,-200.05 94.98,-195.21 89.9,-190.39"/>
</a>
</g>
</g>
<!-- Node5 -->
<g id="Node000005" class="node">
<title>Node5</title>
<g id="a_Node000005"><a xlink:href="classzhl_1_1_z_i_r_type_analysis.html" target="_top" xlink:title=" ">
<polygon fill="white" stroke="#666666" points="269.5,-226.38 159.75,-226.38 159.75,-207.12 269.5,-207.12 269.5,-226.38"/>
<text text-anchor="middle" x="214.62" y="-212.88" font-family="Helvetica,sans-Serif" font-size="10.00">zhl::ZIRTypeAnalysis</text>
</a>
</g>
</g>
<!-- Node5&#45;&gt;Node3 -->
<g id="edge4_Node000003_Node000005" class="edge">
<title>Node5&#45;&gt;Node3</title>
<g id="a_edge4_Node000003_Node000005"><a xlink:title=" ">
<path fill="none" stroke="#9a32cd" stroke-dasharray="5,2" d="M198.24,-198.51C185.67,-185.28 168.51,-167.23 156.59,-154.69"/>
<polygon fill="#9a32cd" stroke="#9a32cd" points="195.61,-200.83 205.04,-205.67 200.69,-196.01 195.61,-200.83"/>
</a>
</g>
<text text-anchor="middle" x="212.56" y="-174" font-family="Helvetica,sans-Serif" font-size="10.00" fill="grey"> typeAnalysis</text>
</g>
</g>
</svg>
