<?xml version="1.0" encoding="UTF-8" standalone="no"?>
<!DOCTYPE svg PUBLIC "-//W3C//DTD SVG 1.1//EN"
 "http://www.w3.org/Graphics/SVG/1.1/DTD/svg11.dtd">
<!-- Generated by graphviz version 12.2.1 (20241206.2353)
 -->
<!-- Title: zml::detail::NopOpGenericAdaptorBase Pages: 1 -->
<svg width="450pt" height="147pt"
 viewBox="0.00 0.00 449.75 147.12" xmlns="http://www.w3.org/2000/svg" xmlns:xlink="http://www.w3.org/1999/xlink">
<g id="graph0" class="graph" transform="scale(1 1) rotate(0) translate(4 143.12)">
<title>zml::detail::NopOpGenericAdaptorBase</title>
<!-- Node1 -->
<g id="Node000001" class="node">
<title>Node1</title>
<g id="a_Node000001"><a xlink:title=" ">
<polygon fill="#999999" stroke="#666666" points="131.5,-79.5 0,-79.5 0,-49 131.5,-49 131.5,-79.5"/>
<text text-anchor="start" x="8" y="-66" font-family="Helvetica,sans-Serif" font-size="10.00">zml::detail::NopOpGeneric</text>
<text text-anchor="middle" x="65.75" y="-54.75" font-family="Helvetica,sans-Serif" font-size="10.00">AdaptorBase</text>
</a>
</g>
</g>
<!-- Node2 -->
<g id="Node000002" class="node">
<title>Node2</title>
<g id="a_Node000002"><a xlink:href="classzml_1_1_nop_op_generic_adaptor.html" target="_top" xlink:title=" ">
<polygon fill="white" stroke="#666666" points="303.5,-139.12 167.5,-139.12 167.5,-97.38 303.5,-97.38 303.5,-139.12"/>
<text text-anchor="start" x="175.5" y="-125.62" font-family="Helvetica,sans-Serif" font-size="10.00">zml::NopOpGenericAdaptor</text>
<text text-anchor="start" x="175.5" y="-114.38" font-family="Helvetica,sans-Serif" font-size="10.00">&lt;::llvm::ArrayRef&lt;::mlir</text>
<text text-anchor="middle" x="235.5" y="-103.12" font-family="Helvetica,sans-Serif" font-size="10.00">::Attribute &gt; &gt;</text>
</a>
</g>
</g>
<!-- Node1&#45;&gt;Node2 -->
<g id="edge1_Node000001_Node000002" class="edge">
<title>Node1&#45;&gt;Node2</title>
<g id="a_edge1_Node000001_Node000002"><a xlink:title=" ">
<path fill="none" stroke="#63b8ff" d="M126.01,-83.33C139.7,-87.73 154.34,-92.45 168.3,-96.94"/>
<polygon fill="#63b8ff" stroke="#63b8ff" points="127.3,-80.07 116.71,-80.33 125.16,-86.73 127.3,-80.07"/>
</a>
</g>
</g>
<!-- Node3 -->
<g id="Node000003" class="node">
<title>Node3</title>
<g id="a_Node000003"><a xlink:href="classzml_1_1_nop_op_generic_adaptor.html" target="_top" xlink:title=" ">
<polygon fill="white" stroke="#666666" points="303.5,-79.5 167.5,-79.5 167.5,-49 303.5,-49 303.5,-79.5"/>
<text text-anchor="start" x="175.5" y="-66" font-family="Helvetica,sans-Serif" font-size="10.00">zml::NopOpGenericAdaptor</text>
<text text-anchor="middle" x="235.5" y="-54.75" font-family="Helvetica,sans-Serif" font-size="10.00">&lt;::mlir::ValueRange &gt;</text>
</a>
</g>
</g>
<!-- Node1&#45;&gt;Node3 -->
<g id="edge2_Node000001_Node000003" class="edge">
<title>Node1&#45;&gt;Node3</title>
<g id="a_edge2_Node000001_Node000003"><a xlink:title=" ">
<path fill="none" stroke="#63b8ff" d="M142.9,-64.25C150.95,-64.25 159.1,-64.25 167.04,-64.25"/>
<polygon fill="#63b8ff" stroke="#63b8ff" points="143.12,-60.75 133.12,-64.25 143.12,-67.75 143.12,-60.75"/>
</a>
</g>
</g>
<!-- Node5 -->
<g id="Node000005" class="node">
<title>Node5</title>
<g id="a_Node000005"><a xlink:href="classzml_1_1_nop_op_generic_adaptor.html" target="_top" xlink:title=" ">
<polygon fill="white" stroke="#666666" points="303.5,-30.5 167.5,-30.5 167.5,0 303.5,0 303.5,-30.5"/>
<text text-anchor="start" x="175.5" y="-17" font-family="Helvetica,sans-Serif" font-size="10.00">zml::NopOpGenericAdaptor</text>
<text text-anchor="middle" x="235.5" y="-5.75" font-family="Helvetica,sans-Serif" font-size="10.00">&lt; RangeT &gt;</text>
</a>
</g>
</g>
<!-- Node1&#45;&gt;Node5 -->
<g id="edge4_Node000001_Node000005" class="edge">
<title>Node1&#45;&gt;Node5</title>
<g id="a_edge4_Node000001_Node000005"><a xlink:title=" ">
<path fill="none" stroke="#63b8ff" d="M130.89,-45.52C147.3,-40.72 164.77,-35.62 180.61,-30.99"/>
<polygon fill="#63b8ff" stroke="#63b8ff" points="130.36,-42.02 121.74,-48.19 132.32,-48.74 130.36,-42.02"/>
</a>
</g>
</g>
<!-- Node4 -->
<g id="Node000004" class="node">
<title>Node4</title>
<g id="a_Node000004"><a xlink:href="classzml_1_1_nop_op_adaptor.html" target="_top" xlink:title=" ">
<polygon fill="white" stroke="#666666" points="441.75,-73.88 339.5,-73.88 339.5,-54.62 441.75,-54.62 441.75,-73.88"/>
<text text-anchor="middle" x="390.62" y="-60.38" font-family="Helvetica,sans-Serif" font-size="10.00">zml::NopOpAdaptor</text>
</a>
</g>
</g>
<!-- Node3&#45;&gt;Node4 -->
<g id="edge3_Node000003_Node000004" class="edge">
<title>Node3&#45;&gt;Node4</title>
<g id="a_edge3_Node000003_Node000004"><a xlink:title=" ">
<path fill="none" stroke="#63b8ff" d="M315.15,-64.25C323.28,-64.25 331.39,-64.25 339.09,-64.25"/>
<polygon fill="#63b8ff" stroke="#63b8ff" points="315.18,-60.75 305.18,-64.25 315.18,-67.75 315.18,-60.75"/>
</a>
</g>
</g>
</g>
</svg>
