<?xml version="1.0" encoding="UTF-8" standalone="no"?>
<!DOCTYPE svg PUBLIC "-//W3C//DTD SVG 1.1//EN"
 "http://www.w3.org/Graphics/SVG/1.1/DTD/svg11.dtd">
<!-- Generated by graphviz version 12.2.1 (20241206.2353)
 -->
<!-- Title: zml::ZhlGetGlobalLowering Pages: 1 -->
<svg width="264pt" height="160pt"
 viewBox="0.00 0.00 263.75 160.25" xmlns="http://www.w3.org/2000/svg" xmlns:xlink="http://www.w3.org/1999/xlink">
<g id="graph0" class="graph" transform="scale(1 1) rotate(0) translate(4 156.25)">
<title>zml::ZhlGetGlobalLowering</title>
<!-- Node1 -->
<g id="Node000001" class="node">
<title>Node1</title>
<g id="a_Node000001"><a xlink:title=" ">
<polygon fill="#999999" stroke="#666666" points="205.88,-19.25 72.12,-19.25 72.12,0 205.88,0 205.88,-19.25"/>
<text text-anchor="middle" x="139" y="-5.75" font-family="Helvetica,sans-Serif" font-size="10.00">zml::ZhlGetGlobalLowering</text>
</a>
</g>
</g>
<!-- Node2 -->
<g id="Node000002" class="node">
<title>Node2</title>
<g id="a_Node000002"><a xlink:href="classzml_1_1_zhl_op_lowering_pattern.html" target="_top" xlink:title=" ">
<polygon fill="white" stroke="#666666" points="142,-85.75 0,-85.75 0,-55.25 142,-55.25 142,-85.75"/>
<text text-anchor="start" x="8" y="-72.25" font-family="Helvetica,sans-Serif" font-size="10.00">zml::ZhlOpLoweringPattern</text>
<text text-anchor="middle" x="71" y="-61" font-family="Helvetica,sans-Serif" font-size="10.00">&lt; zirgen::Zhl::GetGlobalOp &gt;</text>
</a>
</g>
</g>
<!-- Node2&#45;&gt;Node1 -->
<g id="edge1_Node000001_Node000002" class="edge">
<title>Node2&#45;&gt;Node1</title>
<g id="a_edge1_Node000001_Node000002"><a xlink:title=" ">
<path fill="none" stroke="#63b8ff" d="M96.36,-47.55C107.49,-37.9 119.96,-27.11 128.52,-19.7"/>
<polygon fill="#63b8ff" stroke="#63b8ff" points="94.22,-44.76 88.95,-53.96 98.8,-50.06 94.22,-44.76"/>
</a>
</g>
</g>
<!-- Node3 -->
<g id="Node000003" class="node">
<title>Node3</title>
<g id="a_Node000003"><a xlink:title=" ">
<polygon fill="white" stroke="#666666" points="142,-152.25 0,-152.25 0,-121.75 142,-121.75 142,-152.25"/>
<text text-anchor="start" x="8" y="-138.75" font-family="Helvetica,sans-Serif" font-size="10.00">mlir::OpConversionPattern</text>
<text text-anchor="middle" x="71" y="-127.5" font-family="Helvetica,sans-Serif" font-size="10.00">&lt; zirgen::Zhl::GetGlobalOp &gt;</text>
</a>
</g>
</g>
<!-- Node3&#45;&gt;Node2 -->
<g id="edge2_Node000002_Node000003" class="edge">
<title>Node3&#45;&gt;Node2</title>
<g id="a_edge2_Node000002_Node000003"><a xlink:title=" ">
<path fill="none" stroke="#63b8ff" d="M71,-110.06C71,-101.89 71,-93.16 71,-86.08"/>
<polygon fill="#63b8ff" stroke="#63b8ff" points="67.5,-109.85 71,-119.85 74.5,-109.85 67.5,-109.85"/>
</a>
</g>
</g>
<!-- Node4 -->
<g id="Node000004" class="node">
<title>Node4</title>
<g id="a_Node000004"><a xlink:href="classzml_1_1_global_builder.html" target="_top" xlink:title="Helper for constructing global variables in a common global module.">
<polygon fill="white" stroke="#666666" points="255.75,-80.12 160.25,-80.12 160.25,-60.88 255.75,-60.88 255.75,-80.12"/>
<text text-anchor="middle" x="208" y="-66.62" font-family="Helvetica,sans-Serif" font-size="10.00">zml::GlobalBuilder</text>
</a>
</g>
</g>
<!-- Node4&#45;&gt;Node1 -->
<g id="edge3_Node000001_Node000004" class="edge">
<title>Node4&#45;&gt;Node1</title>
<g id="a_edge3_Node000001_Node000004"><a xlink:title=" ">
<path fill="none" stroke="#8b1a1a" d="M189.03,-53.31C176.31,-42.46 160.05,-28.59 149.58,-19.65"/>
<polygon fill="#8b1a1a" stroke="#8b1a1a" points="186.49,-55.75 196.37,-59.58 191.03,-50.42 186.49,-55.75"/>
</a>
</g>
</g>
</g>
</svg>
