<?xml version="1.0" encoding="UTF-8" standalone="no"?>
<!DOCTYPE svg PUBLIC "-//W3C//DTD SVG 1.1//EN"
 "http://www.w3.org/Graphics/SVG/1.1/DTD/svg11.dtd">
<!-- Generated by graphviz version 12.2.1 (20241206.2353)
 -->
<!-- Title: zml::detail::BitAndOpGenericAdaptorBase Pages: 1 -->
<svg width="484pt" height="147pt"
 viewBox="0.00 0.00 483.50 147.12" xmlns="http://www.w3.org/2000/svg" xmlns:xlink="http://www.w3.org/1999/xlink">
<g id="graph0" class="graph" transform="scale(1 1) rotate(0) translate(4 143.12)">
<title>zml::detail::BitAndOpGenericAdaptorBase</title>
<!-- Node1 -->
<g id="Node000001" class="node">
<title>Node1</title>
<g id="a_Node000001"><a xlink:title=" ">
<polygon fill="#999999" stroke="#666666" points="142.75,-79.5 0,-79.5 0,-49 142.75,-49 142.75,-79.5"/>
<text text-anchor="start" x="8" y="-66" font-family="Helvetica,sans-Serif" font-size="10.00">zml::detail::BitAndOpGeneric</text>
<text text-anchor="middle" x="71.38" y="-54.75" font-family="Helvetica,sans-Serif" font-size="10.00">AdaptorBase</text>
</a>
</g>
</g>
<!-- Node2 -->
<g id="Node000002" class="node">
<title>Node2</title>
<g id="a_Node000002"><a xlink:href="classzml_1_1_bit_and_op_generic_adaptor.html" target="_top" xlink:title=" ">
<polygon fill="white" stroke="#666666" points="326,-139.12 178.75,-139.12 178.75,-97.38 326,-97.38 326,-139.12"/>
<text text-anchor="start" x="186.75" y="-125.62" font-family="Helvetica,sans-Serif" font-size="10.00">zml::BitAndOpGenericAdaptor</text>
<text text-anchor="start" x="186.75" y="-114.38" font-family="Helvetica,sans-Serif" font-size="10.00">&lt;::llvm::ArrayRef&lt;::mlir</text>
<text text-anchor="middle" x="252.38" y="-103.12" font-family="Helvetica,sans-Serif" font-size="10.00">::Attribute &gt; &gt;</text>
</a>
</g>
</g>
<!-- Node1&#45;&gt;Node2 -->
<g id="edge1_Node000001_Node000002" class="edge">
<title>Node1&#45;&gt;Node2</title>
<g id="a_edge1_Node000001_Node000002"><a xlink:title=" ">
<path fill="none" stroke="#63b8ff" d="M134.74,-83.06C149.59,-87.55 165.55,-92.36 180.74,-96.94"/>
<polygon fill="#63b8ff" stroke="#63b8ff" points="136.18,-79.84 125.6,-80.31 134.16,-86.55 136.18,-79.84"/>
</a>
</g>
</g>
<!-- Node3 -->
<g id="Node000003" class="node">
<title>Node3</title>
<g id="a_Node000003"><a xlink:href="classzml_1_1_bit_and_op_generic_adaptor.html" target="_top" xlink:title=" ">
<polygon fill="white" stroke="#666666" points="326,-79.5 178.75,-79.5 178.75,-49 326,-49 326,-79.5"/>
<text text-anchor="start" x="186.75" y="-66" font-family="Helvetica,sans-Serif" font-size="10.00">zml::BitAndOpGenericAdaptor</text>
<text text-anchor="middle" x="252.38" y="-54.75" font-family="Helvetica,sans-Serif" font-size="10.00">&lt;::mlir::ValueRange &gt;</text>
</a>
</g>
</g>
<!-- Node1&#45;&gt;Node3 -->
<g id="edge2_Node000001_Node000003" class="edge">
<title>Node1&#45;&gt;Node3</title>
<g id="a_edge2_Node000001_Node000003"><a xlink:title=" ">
<path fill="none" stroke="#63b8ff" d="M154.4,-64.25C162.44,-64.25 170.56,-64.25 178.5,-64.25"/>
<polygon fill="#63b8ff" stroke="#63b8ff" points="154.63,-60.75 144.63,-64.25 154.63,-67.75 154.63,-60.75"/>
</a>
</g>
</g>
<!-- Node5 -->
<g id="Node000005" class="node">
<title>Node5</title>
<g id="a_Node000005"><a xlink:href="classzml_1_1_bit_and_op_generic_adaptor.html" target="_top" xlink:title=" ">
<polygon fill="white" stroke="#666666" points="326,-30.5 178.75,-30.5 178.75,0 326,0 326,-30.5"/>
<text text-anchor="start" x="186.75" y="-17" font-family="Helvetica,sans-Serif" font-size="10.00">zml::BitAndOpGenericAdaptor</text>
<text text-anchor="middle" x="252.38" y="-5.75" font-family="Helvetica,sans-Serif" font-size="10.00">&lt; RangeT &gt;</text>
</a>
</g>
</g>
<!-- Node1&#45;&gt;Node5 -->
<g id="edge4_Node000001_Node000005" class="edge">
<title>Node1&#45;&gt;Node5</title>
<g id="a_edge4_Node000001_Node000005"><a xlink:title=" ">
<path fill="none" stroke="#63b8ff" d="M140.31,-45.65C157.97,-40.82 176.81,-35.66 193.87,-30.99"/>
<polygon fill="#63b8ff" stroke="#63b8ff" points="139.68,-42.2 130.96,-48.21 141.53,-48.95 139.68,-42.2"/>
</a>
</g>
</g>
<!-- Node4 -->
<g id="Node000004" class="node">
<title>Node4</title>
<g id="a_Node000004"><a xlink:href="classzml_1_1_bit_and_op_adaptor.html" target="_top" xlink:title=" ">
<polygon fill="white" stroke="#666666" points="475.5,-73.88 362,-73.88 362,-54.62 475.5,-54.62 475.5,-73.88"/>
<text text-anchor="middle" x="418.75" y="-60.38" font-family="Helvetica,sans-Serif" font-size="10.00">zml::BitAndOpAdaptor</text>
</a>
</g>
</g>
<!-- Node3&#45;&gt;Node4 -->
<g id="edge3_Node000003_Node000004" class="edge">
<title>Node3&#45;&gt;Node4</title>
<g id="a_edge3_Node000003_Node000004"><a xlink:title=" ">
<path fill="none" stroke="#63b8ff" d="M337.85,-64.25C345.93,-64.25 353.98,-64.25 361.7,-64.25"/>
<polygon fill="#63b8ff" stroke="#63b8ff" points="337.94,-60.75 327.94,-64.25 337.94,-67.75 337.94,-60.75"/>
</a>
</g>
</g>
</g>
</svg>
