<?xml version="1.0" encoding="UTF-8" standalone="no"?>
<!DOCTYPE svg PUBLIC "-//W3C//DTD SVG 1.1//EN"
 "http://www.w3.org/Graphics/SVG/1.1/DTD/svg11.dtd">
<!-- Generated by graphviz version 12.2.1 (20241206.2353)
 -->
<!-- Title: zml::detail::AddOpGenericAdaptorBase Pages: 1 -->
<svg width="448pt" height="147pt"
 viewBox="0.00 0.00 447.50 147.12" xmlns="http://www.w3.org/2000/svg" xmlns:xlink="http://www.w3.org/1999/xlink">
<g id="graph0" class="graph" transform="scale(1 1) rotate(0) translate(4 143.12)">
<title>zml::detail::AddOpGenericAdaptorBase</title>
<!-- Node1 -->
<g id="Node000001" class="node">
<title>Node1</title>
<g id="a_Node000001"><a xlink:title=" ">
<polygon fill="#999999" stroke="#666666" points="130.75,-79.5 0,-79.5 0,-49 130.75,-49 130.75,-79.5"/>
<text text-anchor="start" x="8" y="-66" font-family="Helvetica,sans-Serif" font-size="10.00">zml::detail::AddOpGeneric</text>
<text text-anchor="middle" x="65.38" y="-54.75" font-family="Helvetica,sans-Serif" font-size="10.00">AdaptorBase</text>
</a>
</g>
</g>
<!-- Node2 -->
<g id="Node000002" class="node">
<title>Node2</title>
<g id="a_Node000002"><a xlink:href="classzml_1_1_add_op_generic_adaptor.html" target="_top" xlink:title=" ">
<polygon fill="white" stroke="#666666" points="302,-139.12 166.75,-139.12 166.75,-97.38 302,-97.38 302,-139.12"/>
<text text-anchor="start" x="174.75" y="-125.62" font-family="Helvetica,sans-Serif" font-size="10.00">zml::AddOpGenericAdaptor</text>
<text text-anchor="start" x="174.75" y="-114.38" font-family="Helvetica,sans-Serif" font-size="10.00">&lt;::llvm::ArrayRef&lt;::mlir</text>
<text text-anchor="middle" x="234.38" y="-103.12" font-family="Helvetica,sans-Serif" font-size="10.00">::Attribute &gt; &gt;</text>
</a>
</g>
</g>
<!-- Node1&#45;&gt;Node2 -->
<g id="edge1_Node000001_Node000002" class="edge">
<title>Node1&#45;&gt;Node2</title>
<g id="a_edge1_Node000001_Node000002"><a xlink:title=" ">
<path fill="none" stroke="#63b8ff" d="M125.37,-83.33C139,-87.73 153.58,-92.45 167.48,-96.94"/>
<polygon fill="#63b8ff" stroke="#63b8ff" points="126.71,-80.08 116.12,-80.33 124.56,-86.74 126.71,-80.08"/>
</a>
</g>
</g>
<!-- Node3 -->
<g id="Node000003" class="node">
<title>Node3</title>
<g id="a_Node000003"><a xlink:href="classzml_1_1_add_op_generic_adaptor.html" target="_top" xlink:title=" ">
<polygon fill="white" stroke="#666666" points="302,-79.5 166.75,-79.5 166.75,-49 302,-49 302,-79.5"/>
<text text-anchor="start" x="174.75" y="-66" font-family="Helvetica,sans-Serif" font-size="10.00">zml::AddOpGenericAdaptor</text>
<text text-anchor="middle" x="234.38" y="-54.75" font-family="Helvetica,sans-Serif" font-size="10.00">&lt;::mlir::ValueRange &gt;</text>
</a>
</g>
</g>
<!-- Node1&#45;&gt;Node3 -->
<g id="edge2_Node000001_Node000003" class="edge">
<title>Node1&#45;&gt;Node3</title>
<g id="a_edge2_Node000001_Node000003"><a xlink:title=" ">
<path fill="none" stroke="#63b8ff" d="M142.27,-64.25C150.35,-64.25 158.53,-64.25 166.5,-64.25"/>
<polygon fill="#63b8ff" stroke="#63b8ff" points="142.46,-60.75 132.46,-64.25 142.46,-67.75 142.46,-60.75"/>
</a>
</g>
</g>
<!-- Node5 -->
<g id="Node000005" class="node">
<title>Node5</title>
<g id="a_Node000005"><a xlink:href="classzml_1_1_add_op_generic_adaptor.html" target="_top" xlink:title=" ">
<polygon fill="white" stroke="#666666" points="302,-30.5 166.75,-30.5 166.75,0 302,0 302,-30.5"/>
<text text-anchor="start" x="174.75" y="-17" font-family="Helvetica,sans-Serif" font-size="10.00">zml::AddOpGenericAdaptor</text>
<text text-anchor="middle" x="234.38" y="-5.75" font-family="Helvetica,sans-Serif" font-size="10.00">&lt; RangeT &gt;</text>
</a>
</g>
</g>
<!-- Node1&#45;&gt;Node5 -->
<g id="edge4_Node000001_Node000005" class="edge">
<title>Node1&#45;&gt;Node5</title>
<g id="a_edge4_Node000001_Node000005"><a xlink:title=" ">
<path fill="none" stroke="#63b8ff" d="M130.69,-45.38C146.89,-40.63 164.11,-35.57 179.72,-30.99"/>
<polygon fill="#63b8ff" stroke="#63b8ff" points="129.74,-42.01 121.13,-48.19 131.71,-48.73 129.74,-42.01"/>
</a>
</g>
</g>
<!-- Node4 -->
<g id="Node000004" class="node">
<title>Node4</title>
<g id="a_Node000004"><a xlink:href="classzml_1_1_add_op_adaptor.html" target="_top" xlink:title=" ">
<polygon fill="white" stroke="#666666" points="439.5,-73.88 338,-73.88 338,-54.62 439.5,-54.62 439.5,-73.88"/>
<text text-anchor="middle" x="388.75" y="-60.38" font-family="Helvetica,sans-Serif" font-size="10.00">zml::AddOpAdaptor</text>
</a>
</g>
</g>
<!-- Node3&#45;&gt;Node4 -->
<g id="edge3_Node000003_Node000004" class="edge">
<title>Node3&#45;&gt;Node4</title>
<g id="a_edge3_Node000003_Node000004"><a xlink:title=" ">
<path fill="none" stroke="#63b8ff" d="M313.51,-64.25C321.81,-64.25 330.08,-64.25 337.92,-64.25"/>
<polygon fill="#63b8ff" stroke="#63b8ff" points="313.72,-60.75 303.72,-64.25 313.72,-67.75 313.72,-60.75"/>
</a>
</g>
</g>
</g>
</svg>
