<?xml version="1.0" encoding="UTF-8" standalone="no"?>
<!DOCTYPE svg PUBLIC "-//W3C//DTD SVG 1.1//EN"
 "http://www.w3.org/Graphics/SVG/1.1/DTD/svg11.dtd">
<!-- Generated by graphviz version 12.2.1 (20241206.2353)
 -->
<!-- Title: zml::ZhlConstructGlobalLowering Pages: 1 -->
<svg width="368pt" height="240pt"
 viewBox="0.00 0.00 368.25 240.00" xmlns="http://www.w3.org/2000/svg" xmlns:xlink="http://www.w3.org/1999/xlink">
<g id="graph0" class="graph" transform="scale(1 1) rotate(0) translate(4 236)">
<title>zml::ZhlConstructGlobalLowering</title>
<!-- Node1 -->
<g id="Node000001" class="node">
<title>Node1</title>
<g id="a_Node000001"><a xlink:title=" ">
<polygon fill="#999999" stroke="#666666" points="354.88,-19.25 194.12,-19.25 194.12,0 354.88,0 354.88,-19.25"/>
<text text-anchor="middle" x="274.5" y="-5.75" font-family="Helvetica,sans-Serif" font-size="10.00">zml::ZhlConstructGlobalLowering</text>
</a>
</g>
</g>
<!-- Node2 -->
<g id="Node000002" class="node">
<title>Node2</title>
<g id="a_Node000002"><a xlink:href="classzml_1_1_constructor_lowering.html" target="_top" xlink:title=" ">
<polygon fill="white" stroke="#666666" points="247,-86.75 78,-86.75 78,-56.25 247,-56.25 247,-86.75"/>
<text text-anchor="start" x="86" y="-73.25" font-family="Helvetica,sans-Serif" font-size="10.00">zml::ConstructorLowering</text>
<text text-anchor="middle" x="162.5" y="-62" font-family="Helvetica,sans-Serif" font-size="10.00">&lt; zirgen::Zhl::ConstructGlobalOp &gt;</text>
</a>
</g>
</g>
<!-- Node2&#45;&gt;Node1 -->
<g id="edge1_Node000001_Node000002" class="edge">
<title>Node2&#45;&gt;Node1</title>
<g id="a_edge1_Node000001_Node000002"><a xlink:title=" ">
<path fill="none" stroke="#63b8ff" d="M200,-50.45C219.46,-40.05 242.27,-27.86 257.48,-19.73"/>
<polygon fill="#63b8ff" stroke="#63b8ff" points="198.4,-47.34 191.23,-55.14 201.7,-53.51 198.4,-47.34"/>
</a>
</g>
</g>
<!-- Node3 -->
<g id="Node000003" class="node">
<title>Node3</title>
<g id="a_Node000003"><a xlink:href="classzml_1_1_zhl_op_lowering_pattern.html" target="_top" xlink:title=" ">
<polygon fill="white" stroke="#666666" points="247,-154.25 78,-154.25 78,-123.75 247,-123.75 247,-154.25"/>
<text text-anchor="start" x="86" y="-140.75" font-family="Helvetica,sans-Serif" font-size="10.00">zml::ZhlOpLoweringPattern</text>
<text text-anchor="middle" x="162.5" y="-129.5" font-family="Helvetica,sans-Serif" font-size="10.00">&lt; zirgen::Zhl::ConstructGlobalOp &gt;</text>
</a>
</g>
</g>
<!-- Node3&#45;&gt;Node2 -->
<g id="edge2_Node000002_Node000003" class="edge">
<title>Node3&#45;&gt;Node2</title>
<g id="a_edge2_Node000002_Node000003"><a xlink:title=" ">
<path fill="none" stroke="#63b8ff" d="M162.5,-112.09C162.5,-103.55 162.5,-94.37 162.5,-87"/>
<polygon fill="#63b8ff" stroke="#63b8ff" points="159,-111.95 162.5,-121.95 166,-111.95 159,-111.95"/>
</a>
</g>
</g>
<!-- Node4 -->
<g id="Node000004" class="node">
<title>Node4</title>
<g id="a_Node000004"><a xlink:title=" ">
<polygon fill="white" stroke="#666666" points="169,-232 0,-232 0,-201.5 169,-201.5 169,-232"/>
<text text-anchor="start" x="8" y="-218.5" font-family="Helvetica,sans-Serif" font-size="10.00">mlir::OpConversionPattern</text>
<text text-anchor="middle" x="84.5" y="-207.25" font-family="Helvetica,sans-Serif" font-size="10.00">&lt; zirgen::Zhl::ConstructGlobalOp &gt;</text>
</a>
</g>
</g>
<!-- Node4&#45;&gt;Node3 -->
<g id="edge3_Node000003_Node000004" class="edge">
<title>Node4&#45;&gt;Node3</title>
<g id="a_edge3_Node000003_Node000004"><a xlink:title=" ">
<path fill="none" stroke="#63b8ff" d="M107.54,-193.37C120.46,-180.83 136.19,-165.55 147.51,-154.56"/>
<polygon fill="#63b8ff" stroke="#63b8ff" points="105.36,-190.61 100.62,-200.09 110.24,-195.63 105.36,-190.61"/>
</a>
</g>
</g>
<!-- Node5 -->
<g id="Node000005" class="node">
<title>Node5</title>
<g id="a_Node000005"><a xlink:href="classzhl_1_1_z_i_r_type_analysis.html" target="_top" xlink:title=" ">
<polygon fill="white" stroke="#666666" points="296.38,-226.38 186.62,-226.38 186.62,-207.12 296.38,-207.12 296.38,-226.38"/>
<text text-anchor="middle" x="241.5" y="-212.88" font-family="Helvetica,sans-Serif" font-size="10.00">zhl::ZIRTypeAnalysis</text>
</a>
</g>
</g>
<!-- Node5&#45;&gt;Node3 -->
<g id="edge4_Node000003_Node000005" class="edge">
<title>Node5&#45;&gt;Node3</title>
<g id="a_edge4_Node000003_Node000005"><a xlink:title=" ">
<path fill="none" stroke="#9a32cd" stroke-dasharray="5,2" d="M223.91,-198.89C210.09,-185.63 191.02,-167.35 177.82,-154.69"/>
<polygon fill="#9a32cd" stroke="#9a32cd" points="221.39,-201.32 231.03,-205.72 226.24,-196.27 221.39,-201.32"/>
</a>
</g>
<text text-anchor="middle" x="236.35" y="-174" font-family="Helvetica,sans-Serif" font-size="10.00" fill="grey"> typeAnalysis</text>
</g>
<!-- Node6 -->
<g id="Node000006" class="node">
<title>Node6</title>
<g id="a_Node000006"><a xlink:href="classzml_1_1_global_builder.html" target="_top" xlink:title="Helper for constructing global variables in a common global module.">
<polygon fill="white" stroke="#666666" points="360.25,-81.12 264.75,-81.12 264.75,-61.88 360.25,-61.88 360.25,-81.12"/>
<text text-anchor="middle" x="312.5" y="-67.62" font-family="Helvetica,sans-Serif" font-size="10.00">zml::GlobalBuilder</text>
</a>
</g>
</g>
<!-- Node6&#45;&gt;Node1 -->
<g id="edge5_Node000001_Node000006" class="edge">
<title>Node6&#45;&gt;Node1</title>
<g id="a_edge5_Node000001_Node000006"><a xlink:title=" ">
<path fill="none" stroke="#8b1a1a" d="M300.73,-51.96C293.85,-41.12 285.48,-27.93 280.08,-19.41"/>
<polygon fill="#8b1a1a" stroke="#8b1a1a" points="297.6,-53.56 305.92,-60.13 303.51,-49.81 297.6,-53.56"/>
</a>
</g>
</g>
</g>
</svg>
