<?xml version="1.0" encoding="UTF-8" standalone="no"?>
<!DOCTYPE svg PUBLIC "-//W3C//DTD SVG 1.1//EN"
 "http://www.w3.org/Graphics/SVG/1.1/DTD/svg11.dtd">
<!-- Generated by graphviz version 12.2.1 (20241206.2353)
 -->
<!-- Title: zml::ZhlLiteralLowering Pages: 1 -->
<svg width="143pt" height="160pt"
 viewBox="0.00 0.00 142.50 160.25" xmlns="http://www.w3.org/2000/svg" xmlns:xlink="http://www.w3.org/1999/xlink">
<g id="graph0" class="graph" transform="scale(1 1) rotate(0) translate(4 156.25)">
<title>zml::ZhlLiteralLowering</title>
<!-- Node1 -->
<g id="Node000001" class="node">
<title>Node1</title>
<g id="a_Node000001"><a xlink:title="Lowers literal Vals.">
<polygon fill="#999999" stroke="#666666" points="125.5,-19.25 9,-19.25 9,0 125.5,0 125.5,-19.25"/>
<text text-anchor="middle" x="67.25" y="-5.75" font-family="Helvetica,sans-Serif" font-size="10.00">zml::ZhlLiteralLowering</text>
</a>
</g>
</g>
<!-- Node2 -->
<g id="Node000002" class="node">
<title>Node2</title>
<g id="a_Node000002"><a xlink:href="classzml_1_1_zhl_op_lowering_pattern.html" target="_top" xlink:title=" ">
<polygon fill="white" stroke="#666666" points="134.5,-85.75 0,-85.75 0,-55.25 134.5,-55.25 134.5,-85.75"/>
<text text-anchor="start" x="8" y="-72.25" font-family="Helvetica,sans-Serif" font-size="10.00">zml::ZhlOpLoweringPattern</text>
<text text-anchor="middle" x="67.25" y="-61" font-family="Helvetica,sans-Serif" font-size="10.00">&lt; zirgen::Zhl::LiteralOp &gt;</text>
</a>
</g>
</g>
<!-- Node2&#45;&gt;Node1 -->
<g id="edge1_Node000001_Node000002" class="edge">
<title>Node2&#45;&gt;Node1</title>
<g id="a_edge1_Node000001_Node000002"><a xlink:title=" ">
<path fill="none" stroke="#63b8ff" d="M67.25,-43.48C67.25,-34.98 67.25,-26.09 67.25,-19.7"/>
<polygon fill="#63b8ff" stroke="#63b8ff" points="63.75,-43.43 67.25,-53.43 70.75,-43.43 63.75,-43.43"/>
</a>
</g>
</g>
<!-- Node3 -->
<g id="Node000003" class="node">
<title>Node3</title>
<g id="a_Node000003"><a xlink:title=" ">
<polygon fill="white" stroke="#666666" points="133,-152.25 1.5,-152.25 1.5,-121.75 133,-121.75 133,-152.25"/>
<text text-anchor="start" x="9.5" y="-138.75" font-family="Helvetica,sans-Serif" font-size="10.00">mlir::OpConversionPattern</text>
<text text-anchor="middle" x="67.25" y="-127.5" font-family="Helvetica,sans-Serif" font-size="10.00">&lt; zirgen::Zhl::LiteralOp &gt;</text>
</a>
</g>
</g>
<!-- Node3&#45;&gt;Node2 -->
<g id="edge2_Node000002_Node000003" class="edge">
<title>Node3&#45;&gt;Node2</title>
<g id="a_edge2_Node000002_Node000003"><a xlink:title=" ">
<path fill="none" stroke="#63b8ff" d="M67.25,-110.06C67.25,-101.89 67.25,-93.16 67.25,-86.08"/>
<polygon fill="#63b8ff" stroke="#63b8ff" points="63.75,-109.85 67.25,-119.85 70.75,-109.85 63.75,-109.85"/>
</a>
</g>
</g>
</g>
</svg>
