<?xml version="1.0" encoding="UTF-8" standalone="no"?>
<!DOCTYPE svg PUBLIC "-//W3C//DTD SVG 1.1//EN"
 "http://www.w3.org/Graphics/SVG/1.1/DTD/svg11.dtd">
<!-- Generated by graphviz version 12.2.1 (20241206.2353)
 -->
<!-- Title: zml::ConvertZhlToZmlPass Pages: 1 -->
<svg width="156pt" height="160pt"
 viewBox="0.00 0.00 156.00 160.25" xmlns="http://www.w3.org/2000/svg" xmlns:xlink="http://www.w3.org/1999/xlink">
<g id="graph0" class="graph" transform="scale(1 1) rotate(0) translate(4 156.25)">
<title>zml::ConvertZhlToZmlPass</title>
<!-- Node1 -->
<g id="Node000001" class="node">
<title>Node1</title>
<g id="a_Node000001"><a xlink:title=" ">
<polygon fill="#999999" stroke="#666666" points="141.62,-19.25 6.38,-19.25 6.38,0 141.62,0 141.62,-19.25"/>
<text text-anchor="middle" x="74" y="-5.75" font-family="Helvetica,sans-Serif" font-size="10.00">zml::ConvertZhlToZmlPass</text>
</a>
</g>
</g>
<!-- Node2 -->
<g id="Node000002" class="node">
<title>Node2</title>
<g id="a_Node000002"><a xlink:href="classzklang_1_1_convert_zhl_to_zml_base.html" target="_top" xlink:title=" ">
<polygon fill="white" stroke="#666666" points="148,-85.75 0,-85.75 0,-55.25 148,-55.25 148,-85.75"/>
<text text-anchor="start" x="8" y="-72.25" font-family="Helvetica,sans-Serif" font-size="10.00">zklang::ConvertZhlToZmlBase</text>
<text text-anchor="middle" x="74" y="-61" font-family="Helvetica,sans-Serif" font-size="10.00">&lt; ConvertZhlToZmlPass &gt;</text>
</a>
</g>
</g>
<!-- Node2&#45;&gt;Node1 -->
<g id="edge1_Node000001_Node000002" class="edge">
<title>Node2&#45;&gt;Node1</title>
<g id="a_edge1_Node000001_Node000002"><a xlink:title=" ">
<path fill="none" stroke="#63b8ff" d="M74,-43.48C74,-34.98 74,-26.09 74,-19.7"/>
<polygon fill="#63b8ff" stroke="#63b8ff" points="70.5,-43.43 74,-53.43 77.5,-43.43 70.5,-43.43"/>
</a>
</g>
</g>
<!-- Node3 -->
<g id="Node000003" class="node">
<title>Node3</title>
<g id="a_Node000003"><a xlink:title=" ">
<polygon fill="white" stroke="#666666" points="125.12,-152.25 22.88,-152.25 22.88,-121.75 125.12,-121.75 125.12,-152.25"/>
<text text-anchor="start" x="30.88" y="-138.75" font-family="Helvetica,sans-Serif" font-size="10.00">mlir::OperationPass</text>
<text text-anchor="middle" x="74" y="-127.5" font-family="Helvetica,sans-Serif" font-size="10.00">&lt; mlir::ModuleOp &gt;</text>
</a>
</g>
</g>
<!-- Node3&#45;&gt;Node2 -->
<g id="edge2_Node000002_Node000003" class="edge">
<title>Node3&#45;&gt;Node2</title>
<g id="a_edge2_Node000002_Node000003"><a xlink:title=" ">
<path fill="none" stroke="#63b8ff" d="M74,-110.06C74,-101.89 74,-93.16 74,-86.08"/>
<polygon fill="#63b8ff" stroke="#63b8ff" points="70.5,-109.85 74,-119.85 77.5,-109.85 70.5,-109.85"/>
</a>
</g>
</g>
</g>
</svg>
