<?xml version="1.0" encoding="UTF-8" standalone="no"?>
<!DOCTYPE svg PUBLIC "-//W3C//DTD SVG 1.1//EN"
 "http://www.w3.org/Graphics/SVG/1.1/DTD/svg11.dtd">
<!-- Generated by graphviz version 12.2.1 (20241206.2353)
 -->
<!-- Title: zml::detail::UnifiableCastOpGenericAdaptorBase Pages: 1 -->
<svg width="495pt" height="147pt"
 viewBox="0.00 0.00 494.75 147.12" xmlns="http://www.w3.org/2000/svg" xmlns:xlink="http://www.w3.org/1999/xlink">
<g id="graph0" class="graph" transform="scale(1 1) rotate(0) translate(4 143.12)">
<title>zml::detail::UnifiableCastOpGenericAdaptorBase</title>
<!-- Node1 -->
<g id="Node000001" class="node">
<title>Node1</title>
<g id="a_Node000001"><a xlink:title=" ">
<polygon fill="#999999" stroke="#666666" points="126.25,-79.5 0,-79.5 0,-49 126.25,-49 126.25,-79.5"/>
<text text-anchor="start" x="8" y="-66" font-family="Helvetica,sans-Serif" font-size="10.00">zml::detail::UnifiableCast</text>
<text text-anchor="middle" x="63.12" y="-54.75" font-family="Helvetica,sans-Serif" font-size="10.00">OpGenericAdaptorBase</text>
</a>
</g>
</g>
<!-- Node2 -->
<g id="Node000002" class="node">
<title>Node2</title>
<g id="a_Node000002"><a xlink:href="classzml_1_1_unifiable_cast_op_generic_adaptor.html" target="_top" xlink:title=" ">
<polygon fill="white" stroke="#666666" points="306.5,-139.12 163,-139.12 163,-97.38 306.5,-97.38 306.5,-139.12"/>
<text text-anchor="start" x="171" y="-125.62" font-family="Helvetica,sans-Serif" font-size="10.00">zml::UnifiableCastOpGeneric</text>
<text text-anchor="start" x="171" y="-114.38" font-family="Helvetica,sans-Serif" font-size="10.00">Adaptor&lt;::llvm::ArrayRef</text>
<text text-anchor="middle" x="234.75" y="-103.12" font-family="Helvetica,sans-Serif" font-size="10.00">&lt;::mlir::Attribute &gt; &gt;</text>
</a>
</g>
</g>
<!-- Node1&#45;&gt;Node2 -->
<g id="edge1_Node000001_Node000002" class="edge">
<title>Node1&#45;&gt;Node2</title>
<g id="a_edge1_Node000001_Node000002"><a xlink:title=" ">
<path fill="none" stroke="#63b8ff" d="M124.05,-83.33C137.89,-87.73 152.7,-92.45 166.81,-96.94"/>
<polygon fill="#63b8ff" stroke="#63b8ff" points="125.22,-80.03 114.63,-80.33 123.1,-86.7 125.22,-80.03"/>
</a>
</g>
</g>
<!-- Node3 -->
<g id="Node000003" class="node">
<title>Node3</title>
<g id="a_Node000003"><a xlink:href="classzml_1_1_unifiable_cast_op_generic_adaptor.html" target="_top" xlink:title=" ">
<polygon fill="white" stroke="#666666" points="307.25,-79.5 162.25,-79.5 162.25,-49 307.25,-49 307.25,-79.5"/>
<text text-anchor="start" x="170.25" y="-66" font-family="Helvetica,sans-Serif" font-size="10.00">zml::UnifiableCastOpGeneric</text>
<text text-anchor="middle" x="234.75" y="-54.75" font-family="Helvetica,sans-Serif" font-size="10.00">Adaptor&lt;::mlir::ValueRange &gt;</text>
</a>
</g>
</g>
<!-- Node1&#45;&gt;Node3 -->
<g id="edge2_Node000001_Node000003" class="edge">
<title>Node1&#45;&gt;Node3</title>
<g id="a_edge2_Node000001_Node000003"><a xlink:title=" ">
<path fill="none" stroke="#63b8ff" d="M137.56,-64.25C145.6,-64.25 153.78,-64.25 161.79,-64.25"/>
<polygon fill="#63b8ff" stroke="#63b8ff" points="137.84,-60.75 127.84,-64.25 137.84,-67.75 137.84,-60.75"/>
</a>
</g>
</g>
<!-- Node5 -->
<g id="Node000005" class="node">
<title>Node5</title>
<g id="a_Node000005"><a xlink:href="classzml_1_1_unifiable_cast_op_generic_adaptor.html" target="_top" xlink:title=" ">
<polygon fill="white" stroke="#666666" points="306.5,-30.5 163,-30.5 163,0 306.5,0 306.5,-30.5"/>
<text text-anchor="start" x="171" y="-17" font-family="Helvetica,sans-Serif" font-size="10.00">zml::UnifiableCastOpGeneric</text>
<text text-anchor="middle" x="234.75" y="-5.75" font-family="Helvetica,sans-Serif" font-size="10.00">Adaptor&lt; RangeT &gt;</text>
</a>
</g>
</g>
<!-- Node1&#45;&gt;Node5 -->
<g id="edge4_Node000001_Node000005" class="edge">
<title>Node1&#45;&gt;Node5</title>
<g id="a_edge4_Node000001_Node000005"><a xlink:title=" ">
<path fill="none" stroke="#63b8ff" d="M128.98,-45.52C145.57,-40.72 163.24,-35.62 179.25,-30.99"/>
<polygon fill="#63b8ff" stroke="#63b8ff" points="128.35,-42.05 119.72,-48.19 130.29,-48.78 128.35,-42.05"/>
</a>
</g>
</g>
<!-- Node4 -->
<g id="Node000004" class="node">
<title>Node4</title>
<g id="a_Node000004"><a xlink:href="classzml_1_1_unifiable_cast_op_adaptor.html" target="_top" xlink:title=" ">
<polygon fill="white" stroke="#666666" points="486.75,-73.88 343.25,-73.88 343.25,-54.62 486.75,-54.62 486.75,-73.88"/>
<text text-anchor="middle" x="415" y="-60.38" font-family="Helvetica,sans-Serif" font-size="10.00">zml::UnifiableCastOpAdaptor</text>
</a>
</g>
</g>
<!-- Node3&#45;&gt;Node4 -->
<g id="edge3_Node000003_Node000004" class="edge">
<title>Node3&#45;&gt;Node4</title>
<g id="a_edge3_Node000003_Node000004"><a xlink:title=" ">
<path fill="none" stroke="#63b8ff" d="M318.98,-64.25C326.97,-64.25 335.04,-64.25 342.9,-64.25"/>
<polygon fill="#63b8ff" stroke="#63b8ff" points="319.25,-60.75 309.25,-64.25 319.25,-67.75 319.25,-60.75"/>
</a>
</g>
</g>
</g>
</svg>
