<?xml version="1.0" encoding="UTF-8" standalone="no"?>
<!DOCTYPE svg PUBLIC "-//W3C//DTD SVG 1.1//EN"
 "http://www.w3.org/Graphics/SVG/1.1/DTD/svg11.dtd">
<!-- Generated by graphviz version 12.2.1 (20241206.2353)
 -->
<!-- Title: zml::ConstructorRefOpAdaptor Pages: 1 -->
<svg width="159pt" height="251pt"
 viewBox="0.00 0.00 159.00 251.25" xmlns="http://www.w3.org/2000/svg" xmlns:xlink="http://www.w3.org/1999/xlink">
<g id="graph0" class="graph" transform="scale(1 1) rotate(0) translate(4 247.25)">
<title>zml::ConstructorRefOpAdaptor</title>
<!-- Node1 -->
<g id="Node000001" class="node">
<title>Node1</title>
<g id="a_Node000001"><a xlink:title=" ">
<polygon fill="#999999" stroke="#666666" points="151,-19.25 0,-19.25 0,0 151,0 151,-19.25"/>
<text text-anchor="middle" x="75.5" y="-5.75" font-family="Helvetica,sans-Serif" font-size="10.00">zml::ConstructorRefOpAdaptor</text>
</a>
</g>
</g>
<!-- Node2 -->
<g id="Node000002" class="node">
<title>Node2</title>
<g id="a_Node000002"><a xlink:href="classzml_1_1_constructor_ref_op_generic_adaptor.html" target="_top" xlink:title=" ">
<polygon fill="white" stroke="#666666" points="151,-86.75 0,-86.75 0,-56.25 151,-56.25 151,-86.75"/>
<text text-anchor="start" x="8" y="-73.25" font-family="Helvetica,sans-Serif" font-size="10.00">zml::ConstructorRefOpGeneric</text>
<text text-anchor="middle" x="75.5" y="-62" font-family="Helvetica,sans-Serif" font-size="10.00">Adaptor&lt;::mlir::ValueRange &gt;</text>
</a>
</g>
</g>
<!-- Node2&#45;&gt;Node1 -->
<g id="edge1_Node000001_Node000002" class="edge">
<title>Node2&#45;&gt;Node1</title>
<g id="a_edge1_Node000001_Node000002"><a xlink:title=" ">
<path fill="none" stroke="#63b8ff" d="M75.5,-44.77C75.5,-35.79 75.5,-26.29 75.5,-19.6"/>
<polygon fill="#63b8ff" stroke="#63b8ff" points="72,-44.49 75.5,-54.49 79,-44.49 72,-44.49"/>
</a>
</g>
</g>
<!-- Node3 -->
<g id="Node000003" class="node">
<title>Node3</title>
<g id="a_Node000003"><a xlink:href="classzml_1_1detail_1_1_constructor_ref_op_generic_adaptor_base.html" target="_top" xlink:title=" ">
<polygon fill="white" stroke="#666666" points="142.75,-154.25 8.25,-154.25 8.25,-123.75 142.75,-123.75 142.75,-154.25"/>
<text text-anchor="start" x="16.25" y="-140.75" font-family="Helvetica,sans-Serif" font-size="10.00">zml::detail::Constructor</text>
<text text-anchor="middle" x="75.5" y="-129.5" font-family="Helvetica,sans-Serif" font-size="10.00">RefOpGenericAdaptorBase</text>
</a>
</g>
</g>
<!-- Node3&#45;&gt;Node2 -->
<g id="edge2_Node000002_Node000003" class="edge">
<title>Node3&#45;&gt;Node2</title>
<g id="a_edge2_Node000002_Node000003"><a xlink:title=" ">
<path fill="none" stroke="#63b8ff" d="M75.5,-112.09C75.5,-103.55 75.5,-94.37 75.5,-87"/>
<polygon fill="#63b8ff" stroke="#63b8ff" points="72,-111.95 75.5,-121.95 79,-111.95 72,-111.95"/>
</a>
</g>
</g>
<!-- Node4 -->
<g id="Node000004" class="node">
<title>Node4</title>
<g id="a_Node000004"><a xlink:href="structzml_1_1detail_1_1_constructor_ref_op_generic_adaptor_base_1_1_properties.html" target="_top" xlink:title=" ">
<polygon fill="white" stroke="#666666" points="142.75,-243.25 8.25,-243.25 8.25,-201.5 142.75,-201.5 142.75,-243.25"/>
<text text-anchor="start" x="16.25" y="-229.75" font-family="Helvetica,sans-Serif" font-size="10.00">zml::detail::Constructor</text>
<text text-anchor="start" x="16.25" y="-218.5" font-family="Helvetica,sans-Serif" font-size="10.00">RefOpGenericAdaptorBase</text>
<text text-anchor="middle" x="75.5" y="-207.25" font-family="Helvetica,sans-Serif" font-size="10.00">::Properties</text>
</a>
</g>
</g>
<!-- Node4&#45;&gt;Node3 -->
<g id="edge3_Node000003_Node000004" class="edge">
<title>Node4&#45;&gt;Node3</title>
<g id="a_edge3_Node000003_Node000004"><a xlink:title=" ">
<path fill="none" stroke="#9a32cd" stroke-dasharray="5,2" d="M75.5,-190.05C75.5,-177.82 75.5,-164.39 75.5,-154.52"/>
<polygon fill="#9a32cd" stroke="#9a32cd" points="72,-189.75 75.5,-199.75 79,-189.75 72,-189.75"/>
</a>
</g>
<text text-anchor="middle" x="98.38" y="-174" font-family="Helvetica,sans-Serif" font-size="10.00" fill="grey"> properties</text>
</g>
</g>
</svg>
