<?xml version="1.0" encoding="UTF-8" standalone="no"?>
<!DOCTYPE svg PUBLIC "-//W3C//DTD SVG 1.1//EN"
 "http://www.w3.org/Graphics/SVG/1.1/DTD/svg11.dtd">
<!-- Generated by graphviz version 12.2.1 (20241206.2353)
 -->
<!-- Title: zml::detail::ExtInvOpGenericAdaptorBase Pages: 1 -->
<svg width="481pt" height="147pt"
 viewBox="0.00 0.00 481.25 147.12" xmlns="http://www.w3.org/2000/svg" xmlns:xlink="http://www.w3.org/1999/xlink">
<g id="graph0" class="graph" transform="scale(1 1) rotate(0) translate(4 143.12)">
<title>zml::detail::ExtInvOpGenericAdaptorBase</title>
<!-- Node1 -->
<g id="Node000001" class="node">
<title>Node1</title>
<g id="a_Node000001"><a xlink:title=" ">
<polygon fill="#999999" stroke="#666666" points="142,-79.5 0,-79.5 0,-49 142,-49 142,-79.5"/>
<text text-anchor="start" x="8" y="-66" font-family="Helvetica,sans-Serif" font-size="10.00">zml::detail::ExtInvOpGeneric</text>
<text text-anchor="middle" x="71" y="-54.75" font-family="Helvetica,sans-Serif" font-size="10.00">AdaptorBase</text>
</a>
</g>
</g>
<!-- Node2 -->
<g id="Node000002" class="node">
<title>Node2</title>
<g id="a_Node000002"><a xlink:href="classzml_1_1_ext_inv_op_generic_adaptor.html" target="_top" xlink:title=" ">
<polygon fill="white" stroke="#666666" points="324.5,-139.12 178,-139.12 178,-97.38 324.5,-97.38 324.5,-139.12"/>
<text text-anchor="start" x="186" y="-125.62" font-family="Helvetica,sans-Serif" font-size="10.00">zml::ExtInvOpGenericAdaptor</text>
<text text-anchor="start" x="186" y="-114.38" font-family="Helvetica,sans-Serif" font-size="10.00">&lt;::llvm::ArrayRef&lt;::mlir</text>
<text text-anchor="middle" x="251.25" y="-103.12" font-family="Helvetica,sans-Serif" font-size="10.00">::Attribute &gt; &gt;</text>
</a>
</g>
</g>
<!-- Node1&#45;&gt;Node2 -->
<g id="edge1_Node000001_Node000002" class="edge">
<title>Node1&#45;&gt;Node2</title>
<g id="a_edge1_Node000001_Node000002"><a xlink:title=" ">
<path fill="none" stroke="#63b8ff" d="M134.54,-83.2C149.2,-87.64 164.93,-92.4 179.91,-96.94"/>
<polygon fill="#63b8ff" stroke="#63b8ff" points="135.59,-79.86 125.01,-80.31 133.56,-86.56 135.59,-79.86"/>
</a>
</g>
</g>
<!-- Node3 -->
<g id="Node000003" class="node">
<title>Node3</title>
<g id="a_Node000003"><a xlink:href="classzml_1_1_ext_inv_op_generic_adaptor.html" target="_top" xlink:title=" ">
<polygon fill="white" stroke="#666666" points="324.5,-79.5 178,-79.5 178,-49 324.5,-49 324.5,-79.5"/>
<text text-anchor="start" x="186" y="-66" font-family="Helvetica,sans-Serif" font-size="10.00">zml::ExtInvOpGenericAdaptor</text>
<text text-anchor="middle" x="251.25" y="-54.75" font-family="Helvetica,sans-Serif" font-size="10.00">&lt;::mlir::ValueRange &gt;</text>
</a>
</g>
</g>
<!-- Node1&#45;&gt;Node3 -->
<g id="edge2_Node000001_Node000003" class="edge">
<title>Node1&#45;&gt;Node3</title>
<g id="a_edge2_Node000001_Node000003"><a xlink:title=" ">
<path fill="none" stroke="#63b8ff" d="M153.96,-64.25C161.88,-64.25 169.87,-64.25 177.68,-64.25"/>
<polygon fill="#63b8ff" stroke="#63b8ff" points="153.96,-60.75 143.96,-64.25 153.96,-67.75 153.96,-60.75"/>
</a>
</g>
</g>
<!-- Node5 -->
<g id="Node000005" class="node">
<title>Node5</title>
<g id="a_Node000005"><a xlink:href="classzml_1_1_ext_inv_op_generic_adaptor.html" target="_top" xlink:title=" ">
<polygon fill="white" stroke="#666666" points="324.5,-30.5 178,-30.5 178,0 324.5,0 324.5,-30.5"/>
<text text-anchor="start" x="186" y="-17" font-family="Helvetica,sans-Serif" font-size="10.00">zml::ExtInvOpGenericAdaptor</text>
<text text-anchor="middle" x="251.25" y="-5.75" font-family="Helvetica,sans-Serif" font-size="10.00">&lt; RangeT &gt;</text>
</a>
</g>
</g>
<!-- Node1&#45;&gt;Node5 -->
<g id="edge4_Node000001_Node000005" class="edge">
<title>Node1&#45;&gt;Node5</title>
<g id="a_edge4_Node000001_Node000005"><a xlink:title=" ">
<path fill="none" stroke="#63b8ff" d="M139.66,-45.65C157.23,-40.82 176,-35.66 192.98,-30.99"/>
<polygon fill="#63b8ff" stroke="#63b8ff" points="139.06,-42.18 130.35,-48.21 140.92,-48.93 139.06,-42.18"/>
</a>
</g>
</g>
<!-- Node4 -->
<g id="Node000004" class="node">
<title>Node4</title>
<g id="a_Node000004"><a xlink:href="classzml_1_1_ext_inv_op_adaptor.html" target="_top" xlink:title=" ">
<polygon fill="white" stroke="#666666" points="473.25,-73.88 360.5,-73.88 360.5,-54.62 473.25,-54.62 473.25,-73.88"/>
<text text-anchor="middle" x="416.88" y="-60.38" font-family="Helvetica,sans-Serif" font-size="10.00">zml::ExtInvOpAdaptor</text>
</a>
</g>
</g>
<!-- Node3&#45;&gt;Node4 -->
<g id="edge3_Node000003_Node000004" class="edge">
<title>Node3&#45;&gt;Node4</title>
<g id="a_edge3_Node000003_Node000004"><a xlink:title=" ">
<path fill="none" stroke="#63b8ff" d="M336.34,-64.25C344.38,-64.25 352.4,-64.25 360.08,-64.25"/>
<polygon fill="#63b8ff" stroke="#63b8ff" points="336.48,-60.75 326.48,-64.25 336.48,-67.75 336.48,-60.75"/>
</a>
</g>
</g>
</g>
</svg>
