<?xml version="1.0" encoding="UTF-8" standalone="no"?>
<!DOCTYPE svg PUBLIC "-//W3C//DTD SVG 1.1//EN"
 "http://www.w3.org/Graphics/SVG/1.1/DTD/svg11.dtd">
<!-- Generated by graphviz version 12.2.1 (20241206.2353)
 -->
<!-- Title: zml::SetGlobalOpAdaptor Pages: 1 -->
<svg width="169pt" height="240pt"
 viewBox="0.00 0.00 168.75 240.00" xmlns="http://www.w3.org/2000/svg" xmlns:xlink="http://www.w3.org/1999/xlink">
<g id="graph0" class="graph" transform="scale(1 1) rotate(0) translate(4 236)">
<title>zml::SetGlobalOpAdaptor</title>
<!-- Node1 -->
<g id="Node000001" class="node">
<title>Node1</title>
<g id="a_Node000001"><a xlink:title=" ">
<polygon fill="#999999" stroke="#666666" points="143.88,-19.25 16.87,-19.25 16.87,0 143.88,0 143.88,-19.25"/>
<text text-anchor="middle" x="80.38" y="-5.75" font-family="Helvetica,sans-Serif" font-size="10.00">zml::SetGlobalOpAdaptor</text>
</a>
</g>
</g>
<!-- Node2 -->
<g id="Node000002" class="node">
<title>Node2</title>
<g id="a_Node000002"><a xlink:href="classzml_1_1_set_global_op_generic_adaptor.html" target="_top" xlink:title=" ">
<polygon fill="white" stroke="#666666" points="160.75,-86.75 0,-86.75 0,-56.25 160.75,-56.25 160.75,-86.75"/>
<text text-anchor="start" x="8" y="-73.25" font-family="Helvetica,sans-Serif" font-size="10.00">zml::SetGlobalOpGenericAdaptor</text>
<text text-anchor="middle" x="80.38" y="-62" font-family="Helvetica,sans-Serif" font-size="10.00">&lt;::mlir::ValueRange &gt;</text>
</a>
</g>
</g>
<!-- Node2&#45;&gt;Node1 -->
<g id="edge1_Node000001_Node000002" class="edge">
<title>Node2&#45;&gt;Node1</title>
<g id="a_edge1_Node000001_Node000002"><a xlink:title=" ">
<path fill="none" stroke="#63b8ff" d="M80.38,-44.77C80.38,-35.79 80.38,-26.29 80.38,-19.6"/>
<polygon fill="#63b8ff" stroke="#63b8ff" points="76.88,-44.49 80.38,-54.49 83.88,-44.49 76.88,-44.49"/>
</a>
</g>
</g>
<!-- Node3 -->
<g id="Node000003" class="node">
<title>Node3</title>
<g id="a_Node000003"><a xlink:href="classzml_1_1detail_1_1_set_global_op_generic_adaptor_base.html" target="_top" xlink:title=" ">
<polygon fill="white" stroke="#666666" points="141.62,-154.25 19.12,-154.25 19.12,-123.75 141.62,-123.75 141.62,-154.25"/>
<text text-anchor="start" x="27.12" y="-140.75" font-family="Helvetica,sans-Serif" font-size="10.00">zml::detail::SetGlobalOp</text>
<text text-anchor="middle" x="80.38" y="-129.5" font-family="Helvetica,sans-Serif" font-size="10.00">GenericAdaptorBase</text>
</a>
</g>
</g>
<!-- Node3&#45;&gt;Node2 -->
<g id="edge2_Node000002_Node000003" class="edge">
<title>Node3&#45;&gt;Node2</title>
<g id="a_edge2_Node000002_Node000003"><a xlink:title=" ">
<path fill="none" stroke="#63b8ff" d="M80.38,-112.09C80.38,-103.55 80.38,-94.37 80.38,-87"/>
<polygon fill="#63b8ff" stroke="#63b8ff" points="76.88,-111.95 80.38,-121.95 83.88,-111.95 76.88,-111.95"/>
</a>
</g>
</g>
<!-- Node4 -->
<g id="Node000004" class="node">
<title>Node4</title>
<g id="a_Node000004"><a xlink:href="structzml_1_1detail_1_1_set_global_op_generic_adaptor_base_1_1_properties.html" target="_top" xlink:title=" ">
<polygon fill="white" stroke="#666666" points="158.5,-232 2.25,-232 2.25,-201.5 158.5,-201.5 158.5,-232"/>
<text text-anchor="start" x="10.25" y="-218.5" font-family="Helvetica,sans-Serif" font-size="10.00">zml::detail::SetGlobalOp</text>
<text text-anchor="middle" x="80.38" y="-207.25" font-family="Helvetica,sans-Serif" font-size="10.00">GenericAdaptorBase::Properties</text>
</a>
</g>
</g>
<!-- Node4&#45;&gt;Node3 -->
<g id="edge3_Node000003_Node000004" class="edge">
<title>Node4&#45;&gt;Node3</title>
<g id="a_edge3_Node000003_Node000004"><a xlink:title=" ">
<path fill="none" stroke="#9a32cd" stroke-dasharray="5,2" d="M80.38,-189.72C80.38,-177.96 80.38,-164.51 80.38,-154.56"/>
<polygon fill="#9a32cd" stroke="#9a32cd" points="76.88,-189.63 80.38,-199.63 83.88,-189.63 76.88,-189.63"/>
</a>
</g>
<text text-anchor="middle" x="103.25" y="-174" font-family="Helvetica,sans-Serif" font-size="10.00" fill="grey"> properties</text>
</g>
</g>
</svg>
