<?xml version="1.0" encoding="UTF-8" standalone="no"?>
<!DOCTYPE svg PUBLIC "-//W3C//DTD SVG 1.1//EN"
 "http://www.w3.org/Graphics/SVG/1.1/DTD/svg11.dtd">
<!-- Generated by graphviz version 12.2.1 (20241206.2353)
 -->
<!-- Title: zml::ZhlDefineLowering Pages: 1 -->
<svg width="276pt" height="173pt"
 viewBox="0.00 0.00 275.75 172.50" xmlns="http://www.w3.org/2000/svg" xmlns:xlink="http://www.w3.org/1999/xlink">
<g id="graph0" class="graph" transform="scale(1 1) rotate(0) translate(4 168.5)">
<title>zml::ZhlDefineLowering</title>
<!-- Node1 -->
<g id="Node000001" class="node">
<title>Node1</title>
<g id="a_Node000001"><a xlink:title="Lowers zhl.define ops to ZMIR component fields.">
<polygon fill="#999999" stroke="#666666" points="200.25,-19.25 81.5,-19.25 81.5,0 200.25,0 200.25,-19.25"/>
<text text-anchor="middle" x="140.88" y="-5.75" font-family="Helvetica,sans-Serif" font-size="10.00">zml::ZhlDefineLowering</text>
</a>
</g>
</g>
<!-- Node2 -->
<g id="Node000002" class="node">
<title>Node2</title>
<g id="a_Node000002"><a xlink:href="classzml_1_1_zhl_op_lowering_pattern.html" target="_top" xlink:title=" ">
<polygon fill="white" stroke="#666666" points="210.75,-86.75 71,-86.75 71,-56.25 210.75,-56.25 210.75,-86.75"/>
<text text-anchor="start" x="79" y="-73.25" font-family="Helvetica,sans-Serif" font-size="10.00">zml::ZhlOpLoweringPattern</text>
<text text-anchor="middle" x="140.88" y="-62" font-family="Helvetica,sans-Serif" font-size="10.00">&lt; zirgen::Zhl::DefinitionOp &gt;</text>
</a>
</g>
</g>
<!-- Node2&#45;&gt;Node1 -->
<g id="edge1_Node000001_Node000002" class="edge">
<title>Node2&#45;&gt;Node1</title>
<g id="a_edge1_Node000001_Node000002"><a xlink:title=" ">
<path fill="none" stroke="#63b8ff" d="M140.88,-44.77C140.88,-35.79 140.88,-26.29 140.88,-19.6"/>
<polygon fill="#63b8ff" stroke="#63b8ff" points="137.38,-44.49 140.88,-54.49 144.38,-44.49 137.38,-44.49"/>
</a>
</g>
</g>
<!-- Node3 -->
<g id="Node000003" class="node">
<title>Node3</title>
<g id="a_Node000003"><a xlink:title=" ">
<polygon fill="white" stroke="#666666" points="139.75,-164.5 0,-164.5 0,-134 139.75,-134 139.75,-164.5"/>
<text text-anchor="start" x="8" y="-151" font-family="Helvetica,sans-Serif" font-size="10.00">mlir::OpConversionPattern</text>
<text text-anchor="middle" x="69.88" y="-139.75" font-family="Helvetica,sans-Serif" font-size="10.00">&lt; zirgen::Zhl::DefinitionOp &gt;</text>
</a>
</g>
</g>
<!-- Node3&#45;&gt;Node2 -->
<g id="edge2_Node000002_Node000003" class="edge">
<title>Node3&#45;&gt;Node2</title>
<g id="a_edge2_Node000002_Node000003"><a xlink:title=" ">
<path fill="none" stroke="#63b8ff" d="M91.19,-125.51C102.88,-113.04 117.02,-97.95 127.23,-87.06"/>
<polygon fill="#63b8ff" stroke="#63b8ff" points="88.88,-122.85 84.6,-132.54 93.99,-127.64 88.88,-122.85"/>
</a>
</g>
</g>
<!-- Node4 -->
<g id="Node000004" class="node">
<title>Node4</title>
<g id="a_Node000004"><a xlink:href="classzhl_1_1_z_i_r_type_analysis.html" target="_top" xlink:title=" ">
<polygon fill="white" stroke="#666666" points="267.75,-158.88 158,-158.88 158,-139.62 267.75,-139.62 267.75,-158.88"/>
<text text-anchor="middle" x="212.88" y="-145.38" font-family="Helvetica,sans-Serif" font-size="10.00">zhl::ZIRTypeAnalysis</text>
</a>
</g>
</g>
<!-- Node4&#45;&gt;Node2 -->
<g id="edge3_Node000002_Node000004" class="edge">
<title>Node4&#45;&gt;Node2</title>
<g id="a_edge3_Node000002_Node000004"><a xlink:title=" ">
<path fill="none" stroke="#9a32cd" stroke-dasharray="5,2" d="M196.49,-131.01C183.92,-117.78 166.76,-99.73 154.84,-87.19"/>
<polygon fill="#9a32cd" stroke="#9a32cd" points="193.86,-133.33 203.29,-138.17 198.94,-128.51 193.86,-133.33"/>
</a>
</g>
<text text-anchor="middle" x="210.81" y="-106.5" font-family="Helvetica,sans-Serif" font-size="10.00" fill="grey"> typeAnalysis</text>
</g>
</g>
</svg>
