<?xml version="1.0" encoding="UTF-8" standalone="no"?>
<!DOCTYPE svg PUBLIC "-//W3C//DTD SVG 1.1//EN"
 "http://www.w3.org/Graphics/SVG/1.1/DTD/svg11.dtd">
<!-- Generated by graphviz version 12.2.1 (20241206.2353)
 -->
<!-- Title: zml::detail::WriteArrayOpGenericAdaptorBase Pages: 1 -->
<svg width="481pt" height="147pt"
 viewBox="0.00 0.00 480.50 147.12" xmlns="http://www.w3.org/2000/svg" xmlns:xlink="http://www.w3.org/1999/xlink">
<g id="graph0" class="graph" transform="scale(1 1) rotate(0) translate(4 143.12)">
<title>zml::detail::WriteArrayOpGenericAdaptorBase</title>
<!-- Node1 -->
<g id="Node000001" class="node">
<title>Node1</title>
<g id="a_Node000001"><a xlink:title=" ">
<polygon fill="#999999" stroke="#666666" points="125.5,-79.5 0,-79.5 0,-49 125.5,-49 125.5,-79.5"/>
<text text-anchor="start" x="8" y="-66" font-family="Helvetica,sans-Serif" font-size="10.00">zml::detail::WriteArrayOp</text>
<text text-anchor="middle" x="62.75" y="-54.75" font-family="Helvetica,sans-Serif" font-size="10.00">GenericAdaptorBase</text>
</a>
</g>
</g>
<!-- Node2 -->
<g id="Node000002" class="node">
<title>Node2</title>
<g id="a_Node000002"><a xlink:href="classzml_1_1_write_array_op_generic_adaptor.html" target="_top" xlink:title=" ">
<polygon fill="white" stroke="#666666" points="299,-139.12 169,-139.12 169,-97.38 299,-97.38 299,-139.12"/>
<text text-anchor="start" x="177" y="-125.62" font-family="Helvetica,sans-Serif" font-size="10.00">zml::WriteArrayOpGeneric</text>
<text text-anchor="start" x="177" y="-114.38" font-family="Helvetica,sans-Serif" font-size="10.00">Adaptor&lt;::llvm::ArrayRef</text>
<text text-anchor="middle" x="234" y="-103.12" font-family="Helvetica,sans-Serif" font-size="10.00">&lt;::mlir::Attribute &gt; &gt;</text>
</a>
</g>
</g>
<!-- Node1&#45;&gt;Node2 -->
<g id="edge1_Node000001_Node000002" class="edge">
<title>Node1&#45;&gt;Node2</title>
<g id="a_edge1_Node000001_Node000002"><a xlink:title=" ">
<path fill="none" stroke="#63b8ff" d="M123.63,-83.35C138.23,-88.01 153.91,-93.02 168.71,-97.74"/>
<polygon fill="#63b8ff" stroke="#63b8ff" points="124.74,-80.03 114.15,-80.33 122.61,-86.7 124.74,-80.03"/>
</a>
</g>
</g>
<!-- Node3 -->
<g id="Node000003" class="node">
<title>Node3</title>
<g id="a_Node000003"><a xlink:href="classzml_1_1_write_array_op_generic_adaptor.html" target="_top" xlink:title=" ">
<polygon fill="white" stroke="#666666" points="306.5,-79.5 161.5,-79.5 161.5,-49 306.5,-49 306.5,-79.5"/>
<text text-anchor="start" x="169.5" y="-66" font-family="Helvetica,sans-Serif" font-size="10.00">zml::WriteArrayOpGeneric</text>
<text text-anchor="middle" x="234" y="-54.75" font-family="Helvetica,sans-Serif" font-size="10.00">Adaptor&lt;::mlir::ValueRange &gt;</text>
</a>
</g>
</g>
<!-- Node1&#45;&gt;Node3 -->
<g id="edge2_Node000001_Node000003" class="edge">
<title>Node1&#45;&gt;Node3</title>
<g id="a_edge2_Node000001_Node000003"><a xlink:title=" ">
<path fill="none" stroke="#63b8ff" d="M137.3,-64.25C145.23,-64.25 153.29,-64.25 161.2,-64.25"/>
<polygon fill="#63b8ff" stroke="#63b8ff" points="137.32,-60.75 127.32,-64.25 137.32,-67.75 137.32,-60.75"/>
</a>
</g>
</g>
<!-- Node5 -->
<g id="Node000005" class="node">
<title>Node5</title>
<g id="a_Node000005"><a xlink:href="classzml_1_1_write_array_op_generic_adaptor.html" target="_top" xlink:title=" ">
<polygon fill="white" stroke="#666666" points="299,-30.5 169,-30.5 169,0 299,0 299,-30.5"/>
<text text-anchor="start" x="177" y="-17" font-family="Helvetica,sans-Serif" font-size="10.00">zml::WriteArrayOpGeneric</text>
<text text-anchor="middle" x="234" y="-5.75" font-family="Helvetica,sans-Serif" font-size="10.00">Adaptor&lt; RangeT &gt;</text>
</a>
</g>
</g>
<!-- Node1&#45;&gt;Node5 -->
<g id="edge4_Node000001_Node000005" class="edge">
<title>Node1&#45;&gt;Node5</title>
<g id="a_edge4_Node000001_Node000005"><a xlink:title=" ">
<path fill="none" stroke="#63b8ff" d="M128.46,-45.52C145.02,-40.72 162.65,-35.62 178.63,-30.99"/>
<polygon fill="#63b8ff" stroke="#63b8ff" points="127.85,-42.05 119.22,-48.19 129.8,-48.77 127.85,-42.05"/>
</a>
</g>
</g>
<!-- Node4 -->
<g id="Node000004" class="node">
<title>Node4</title>
<g id="a_Node000004"><a xlink:href="classzml_1_1_write_array_op_adaptor.html" target="_top" xlink:title=" ">
<polygon fill="white" stroke="#666666" points="472.5,-73.88 342.5,-73.88 342.5,-54.62 472.5,-54.62 472.5,-73.88"/>
<text text-anchor="middle" x="407.5" y="-60.38" font-family="Helvetica,sans-Serif" font-size="10.00">zml::WriteArrayOpAdaptor</text>
</a>
</g>
</g>
<!-- Node3&#45;&gt;Node4 -->
<g id="edge3_Node000003_Node000004" class="edge">
<title>Node3&#45;&gt;Node4</title>
<g id="a_edge3_Node000003_Node000004"><a xlink:title=" ">
<path fill="none" stroke="#63b8ff" d="M318.11,-64.25C326.19,-64.25 334.3,-64.25 342.15,-64.25"/>
<polygon fill="#63b8ff" stroke="#63b8ff" points="318.25,-60.75 308.25,-64.25 318.25,-67.75 318.25,-60.75"/>
</a>
</g>
</g>
</g>
</svg>
