<?xml version="1.0" encoding="UTF-8" standalone="no"?>
<!DOCTYPE svg PUBLIC "-//W3C//DTD SVG 1.1//EN"
 "http://www.w3.org/Graphics/SVG/1.1/DTD/svg11.dtd">
<!-- Generated by graphviz version 12.2.1 (20241206.2353)
 -->
<!-- Title: zhl::expr::detail::Symbol Pages: 1 -->
<svg width="150pt" height="160pt"
 viewBox="0.00 0.00 150.00 160.25" xmlns="http://www.w3.org/2000/svg" xmlns:xlink="http://www.w3.org/1999/xlink">
<g id="graph0" class="graph" transform="scale(1 1) rotate(0) translate(4 156.25)">
<title>zhl::expr::detail::Symbol</title>
<!-- Node1 -->
<g id="Node000001" class="node">
<title>Node1</title>
<g id="a_Node000001"><a xlink:title=" ">
<polygon fill="#999999" stroke="#666666" points="115.38,-30.5 26.62,-30.5 26.62,0 115.38,0 115.38,-30.5"/>
<text text-anchor="start" x="34.62" y="-17" font-family="Helvetica,sans-Serif" font-size="10.00">zhl::expr::detail::</text>
<text text-anchor="middle" x="71" y="-5.75" font-family="Helvetica,sans-Serif" font-size="10.00">Symbol</text>
</a>
</g>
</g>
<!-- Node2 -->
<g id="Node000002" class="node">
<title>Node2</title>
<g id="a_Node000002"><a xlink:href="classzhl_1_1expr_1_1detail_1_1_expr_base.html" target="_top" xlink:title="Root of the expression class hierarchy.">
<polygon fill="white" stroke="#666666" points="115.38,-97 26.62,-97 26.62,-66.5 115.38,-66.5 115.38,-97"/>
<text text-anchor="start" x="34.62" y="-83.5" font-family="Helvetica,sans-Serif" font-size="10.00">zhl::expr::detail::</text>
<text text-anchor="middle" x="71" y="-72.25" font-family="Helvetica,sans-Serif" font-size="10.00">ExprBase</text>
</a>
</g>
</g>
<!-- Node2&#45;&gt;Node1 -->
<g id="edge1_Node000001_Node000002" class="edge">
<title>Node2&#45;&gt;Node1</title>
<g id="a_edge1_Node000001_Node000002"><a xlink:title=" ">
<path fill="none" stroke="#63b8ff" d="M71,-54.81C71,-46.64 71,-37.91 71,-30.83"/>
<polygon fill="#63b8ff" stroke="#63b8ff" points="67.5,-54.6 71,-64.6 74.5,-54.6 67.5,-54.6"/>
</a>
</g>
</g>
<!-- Node3 -->
<g id="Node000003" class="node">
<title>Node3</title>
<g id="a_Node000003"><a xlink:title=" ">
<polygon fill="white" stroke="#666666" points="142,-152.25 0,-152.25 0,-133 142,-133 142,-152.25"/>
<text text-anchor="middle" x="71" y="-138.75" font-family="Helvetica,sans-Serif" font-size="10.00">llvm::ilist_node&lt; ExprBase &gt;</text>
</a>
</g>
</g>
<!-- Node3&#45;&gt;Node2 -->
<g id="edge2_Node000002_Node000003" class="edge">
<title>Node3&#45;&gt;Node2</title>
<g id="a_edge2_Node000002_Node000003"><a xlink:title=" ">
<path fill="none" stroke="#63b8ff" d="M71,-121.42C71,-113.49 71,-104.56 71,-97.28"/>
<polygon fill="#63b8ff" stroke="#63b8ff" points="67.5,-121.17 71,-131.17 74.5,-121.17 67.5,-121.17"/>
</a>
</g>
</g>
</g>
</svg>
