<?xml version="1.0" encoding="UTF-8" standalone="no"?>
<!DOCTYPE svg PUBLIC "-//W3C//DTD SVG 1.1//EN"
 "http://www.w3.org/Graphics/SVG/1.1/DTD/svg11.dtd">
<!-- Generated by graphviz version 12.2.1 (20241206.2353)
 -->
<!-- Title: zhl::ParameterTypingRule Pages: 1 -->
<svg width="180pt" height="149pt"
 viewBox="0.00 0.00 180.00 149.00" xmlns="http://www.w3.org/2000/svg" xmlns:xlink="http://www.w3.org/1999/xlink">
<g id="graph0" class="graph" transform="scale(1 1) rotate(0) translate(4 145)">
<title>zhl::ParameterTypingRule</title>
<!-- Node1 -->
<g id="Node000001" class="node">
<title>Node1</title>
<g id="a_Node000001"><a xlink:title=" ">
<polygon fill="#999999" stroke="#666666" points="150.25,-19.25 21.75,-19.25 21.75,0 150.25,0 150.25,-19.25"/>
<text text-anchor="middle" x="86" y="-5.75" font-family="Helvetica,sans-Serif" font-size="10.00">zhl::ParameterTypingRule</text>
</a>
</g>
</g>
<!-- Node2 -->
<g id="Node000002" class="node">
<title>Node2</title>
<g id="a_Node000002"><a xlink:href="classzhl_1_1_op_typing_rule.html" target="_top" xlink:title=" ">
<polygon fill="white" stroke="#666666" points="172,-85.75 0,-85.75 0,-55.25 172,-55.25 172,-85.75"/>
<text text-anchor="start" x="8" y="-72.25" font-family="Helvetica,sans-Serif" font-size="10.00">zhl::OpTypingRule&lt;</text>
<text text-anchor="middle" x="86" y="-61" font-family="Helvetica,sans-Serif" font-size="10.00"> zirgen::Zhl::ConstructorParamOp &gt;</text>
</a>
</g>
</g>
<!-- Node2&#45;&gt;Node1 -->
<g id="edge1_Node000001_Node000002" class="edge">
<title>Node2&#45;&gt;Node1</title>
<g id="a_edge1_Node000001_Node000002"><a xlink:title=" ">
<path fill="none" stroke="#63b8ff" d="M86,-43.48C86,-34.98 86,-26.09 86,-19.7"/>
<polygon fill="#63b8ff" stroke="#63b8ff" points="82.5,-43.43 86,-53.43 89.5,-43.43 82.5,-43.43"/>
</a>
</g>
</g>
<!-- Node3 -->
<g id="Node000003" class="node">
<title>Node3</title>
<g id="a_Node000003"><a xlink:href="classzhl_1_1_typing_rule.html" target="_top" xlink:title=" ">
<polygon fill="white" stroke="#666666" points="127.75,-141 44.25,-141 44.25,-121.75 127.75,-121.75 127.75,-141"/>
<text text-anchor="middle" x="86" y="-127.5" font-family="Helvetica,sans-Serif" font-size="10.00">zhl::TypingRule</text>
</a>
</g>
</g>
<!-- Node3&#45;&gt;Node2 -->
<g id="edge2_Node000002_Node000003" class="edge">
<title>Node3&#45;&gt;Node2</title>
<g id="a_edge2_Node000002_Node000003"><a xlink:title=" ">
<path fill="none" stroke="#63b8ff" d="M86,-110.17C86,-102.24 86,-93.31 86,-86.03"/>
<polygon fill="#63b8ff" stroke="#63b8ff" points="82.5,-109.92 86,-119.92 89.5,-109.92 82.5,-109.92"/>
</a>
</g>
</g>
</g>
</svg>
