<?xml version="1.0" encoding="UTF-8" standalone="no"?>
<!DOCTYPE svg PUBLIC "-//W3C//DTD SVG 1.1//EN"
 "http://www.w3.org/Graphics/SVG/1.1/DTD/svg11.dtd">
<!-- Generated by graphviz version 12.2.1 (20241206.2353)
 -->
<!-- Title: zml::detail::GetGlobalOpGenericAdaptorBase Pages: 1 -->
<svg width="493pt" height="147pt"
 viewBox="0.00 0.00 492.50 147.12" xmlns="http://www.w3.org/2000/svg" xmlns:xlink="http://www.w3.org/1999/xlink">
<g id="graph0" class="graph" transform="scale(1 1) rotate(0) translate(4 143.12)">
<title>zml::detail::GetGlobalOpGenericAdaptorBase</title>
<!-- Node1 -->
<g id="Node000001" class="node">
<title>Node1</title>
<g id="a_Node000001"><a xlink:title=" ">
<polygon fill="#999999" stroke="#666666" points="123.25,-79.5 0,-79.5 0,-49 123.25,-49 123.25,-79.5"/>
<text text-anchor="start" x="8" y="-66" font-family="Helvetica,sans-Serif" font-size="10.00">zml::detail::GetGlobalOp</text>
<text text-anchor="middle" x="61.62" y="-54.75" font-family="Helvetica,sans-Serif" font-size="10.00">GenericAdaptorBase</text>
</a>
</g>
</g>
<!-- Node2 -->
<g id="Node000002" class="node">
<title>Node2</title>
<g id="a_Node000002"><a xlink:href="classzml_1_1_get_global_op_generic_adaptor.html" target="_top" xlink:title=" ">
<polygon fill="white" stroke="#666666" points="320.75,-139.12 159.25,-139.12 159.25,-97.38 320.75,-97.38 320.75,-139.12"/>
<text text-anchor="start" x="167.25" y="-125.62" font-family="Helvetica,sans-Serif" font-size="10.00">zml::GetGlobalOpGenericAdaptor</text>
<text text-anchor="start" x="167.25" y="-114.38" font-family="Helvetica,sans-Serif" font-size="10.00">&lt;::llvm::ArrayRef&lt;::mlir::</text>
<text text-anchor="middle" x="240" y="-103.12" font-family="Helvetica,sans-Serif" font-size="10.00">Attribute &gt; &gt;</text>
</a>
</g>
</g>
<!-- Node1&#45;&gt;Node2 -->
<g id="edge1_Node000001_Node000002" class="edge">
<title>Node1&#45;&gt;Node2</title>
<g id="a_edge1_Node000001_Node000002"><a xlink:title=" ">
<path fill="none" stroke="#63b8ff" d="M124.5,-83.2C139.02,-87.64 154.58,-92.4 169.4,-96.94"/>
<polygon fill="#63b8ff" stroke="#63b8ff" points="125.67,-79.89 115.09,-80.31 123.62,-86.59 125.67,-79.89"/>
</a>
</g>
</g>
<!-- Node3 -->
<g id="Node000003" class="node">
<title>Node3</title>
<g id="a_Node000003"><a xlink:href="classzml_1_1_get_global_op_generic_adaptor.html" target="_top" xlink:title=" ">
<polygon fill="white" stroke="#666666" points="320.75,-79.5 159.25,-79.5 159.25,-49 320.75,-49 320.75,-79.5"/>
<text text-anchor="start" x="167.25" y="-66" font-family="Helvetica,sans-Serif" font-size="10.00">zml::GetGlobalOpGenericAdaptor</text>
<text text-anchor="middle" x="240" y="-54.75" font-family="Helvetica,sans-Serif" font-size="10.00">&lt;::mlir::ValueRange &gt;</text>
</a>
</g>
</g>
<!-- Node1&#45;&gt;Node3 -->
<g id="edge2_Node000001_Node000003" class="edge">
<title>Node1&#45;&gt;Node3</title>
<g id="a_edge2_Node000001_Node000003"><a xlink:title=" ">
<path fill="none" stroke="#63b8ff" d="M134.79,-64.25C142.73,-64.25 150.85,-64.25 158.88,-64.25"/>
<polygon fill="#63b8ff" stroke="#63b8ff" points="134.84,-60.75 124.84,-64.25 134.84,-67.75 134.84,-60.75"/>
</a>
</g>
</g>
<!-- Node5 -->
<g id="Node000005" class="node">
<title>Node5</title>
<g id="a_Node000005"><a xlink:href="classzml_1_1_get_global_op_generic_adaptor.html" target="_top" xlink:title=" ">
<polygon fill="white" stroke="#666666" points="320.75,-30.5 159.25,-30.5 159.25,0 320.75,0 320.75,-30.5"/>
<text text-anchor="start" x="167.25" y="-17" font-family="Helvetica,sans-Serif" font-size="10.00">zml::GetGlobalOpGenericAdaptor</text>
<text text-anchor="middle" x="240" y="-5.75" font-family="Helvetica,sans-Serif" font-size="10.00">&lt; RangeT &gt;</text>
</a>
</g>
</g>
<!-- Node1&#45;&gt;Node5 -->
<g id="edge4_Node000001_Node000005" class="edge">
<title>Node1&#45;&gt;Node5</title>
<g id="a_edge4_Node000001_Node000005"><a xlink:title=" ">
<path fill="none" stroke="#63b8ff" d="M129.57,-45.65C146.96,-40.82 165.53,-35.66 182.34,-30.99"/>
<polygon fill="#63b8ff" stroke="#63b8ff" points="129.07,-42.16 120.37,-48.21 130.95,-48.9 129.07,-42.16"/>
</a>
</g>
</g>
<!-- Node4 -->
<g id="Node000004" class="node">
<title>Node4</title>
<g id="a_Node000004"><a xlink:href="classzml_1_1_get_global_op_adaptor.html" target="_top" xlink:title=" ">
<polygon fill="white" stroke="#666666" points="484.5,-73.88 356.75,-73.88 356.75,-54.62 484.5,-54.62 484.5,-73.88"/>
<text text-anchor="middle" x="420.62" y="-60.38" font-family="Helvetica,sans-Serif" font-size="10.00">zml::GetGlobalOpAdaptor</text>
</a>
</g>
</g>
<!-- Node3&#45;&gt;Node4 -->
<g id="edge3_Node000003_Node000004" class="edge">
<title>Node3&#45;&gt;Node4</title>
<g id="a_edge3_Node000003_Node000004"><a xlink:title=" ">
<path fill="none" stroke="#63b8ff" d="M332.53,-64.25C340.57,-64.25 348.58,-64.25 356.32,-64.25"/>
<polygon fill="#63b8ff" stroke="#63b8ff" points="332.68,-60.75 322.68,-64.25 332.68,-67.75 332.68,-60.75"/>
</a>
</g>
</g>
</g>
</svg>
