<?xml version="1.0" encoding="UTF-8" standalone="no"?>
<!DOCTYPE svg PUBLIC "-//W3C//DTD SVG 1.1//EN"
 "http://www.w3.org/Graphics/SVG/1.1/DTD/svg11.dtd">
<!-- Generated by graphviz version 12.2.1 (20241206.2353)
 -->
<!-- Title: zhl::DefineTypeRule Pages: 1 -->
<svg width="142pt" height="149pt"
 viewBox="0.00 0.00 141.75 149.00" xmlns="http://www.w3.org/2000/svg" xmlns:xlink="http://www.w3.org/1999/xlink">
<g id="graph0" class="graph" transform="scale(1 1) rotate(0) translate(4 145)">
<title>zhl::DefineTypeRule</title>
<!-- Node1 -->
<g id="Node000001" class="node">
<title>Node1</title>
<g id="a_Node000001"><a xlink:title=" ">
<polygon fill="#999999" stroke="#666666" points="119.12,-19.25 14.62,-19.25 14.62,0 119.12,0 119.12,-19.25"/>
<text text-anchor="middle" x="66.88" y="-5.75" font-family="Helvetica,sans-Serif" font-size="10.00">zhl::DefineTypeRule</text>
</a>
</g>
</g>
<!-- Node2 -->
<g id="Node000002" class="node">
<title>Node2</title>
<g id="a_Node000002"><a xlink:href="classzhl_1_1_op_typing_rule.html" target="_top" xlink:title=" ">
<polygon fill="white" stroke="#666666" points="133.75,-85.75 0,-85.75 0,-55.25 133.75,-55.25 133.75,-85.75"/>
<text text-anchor="start" x="8" y="-72.25" font-family="Helvetica,sans-Serif" font-size="10.00">zhl::OpTypingRule&lt;</text>
<text text-anchor="middle" x="66.88" y="-61" font-family="Helvetica,sans-Serif" font-size="10.00"> zirgen::Zhl::DefinitionOp &gt;</text>
</a>
</g>
</g>
<!-- Node2&#45;&gt;Node1 -->
<g id="edge1_Node000001_Node000002" class="edge">
<title>Node2&#45;&gt;Node1</title>
<g id="a_edge1_Node000001_Node000002"><a xlink:title=" ">
<path fill="none" stroke="#63b8ff" d="M66.88,-43.48C66.88,-34.98 66.88,-26.09 66.88,-19.7"/>
<polygon fill="#63b8ff" stroke="#63b8ff" points="63.38,-43.43 66.88,-53.43 70.38,-43.43 63.38,-43.43"/>
</a>
</g>
</g>
<!-- Node3 -->
<g id="Node000003" class="node">
<title>Node3</title>
<g id="a_Node000003"><a xlink:href="classzhl_1_1_typing_rule.html" target="_top" xlink:title=" ">
<polygon fill="white" stroke="#666666" points="108.62,-141 25.12,-141 25.12,-121.75 108.62,-121.75 108.62,-141"/>
<text text-anchor="middle" x="66.88" y="-127.5" font-family="Helvetica,sans-Serif" font-size="10.00">zhl::TypingRule</text>
</a>
</g>
</g>
<!-- Node3&#45;&gt;Node2 -->
<g id="edge2_Node000002_Node000003" class="edge">
<title>Node3&#45;&gt;Node2</title>
<g id="a_edge2_Node000002_Node000003"><a xlink:title=" ">
<path fill="none" stroke="#63b8ff" d="M66.88,-110.17C66.88,-102.24 66.88,-93.31 66.88,-86.03"/>
<polygon fill="#63b8ff" stroke="#63b8ff" points="63.38,-109.92 66.88,-119.92 70.38,-109.92 63.38,-109.92"/>
</a>
</g>
</g>
</g>
</svg>
