<?xml version="1.0" encoding="UTF-8" standalone="no"?>
<!DOCTYPE svg PUBLIC "-//W3C//DTD SVG 1.1//EN"
 "http://www.w3.org/Graphics/SVG/1.1/DTD/svg11.dtd">
<!-- Generated by graphviz version 12.2.1 (20241206.2353)
 -->
<!-- Title: zml::GetGlobalOpAdaptor Pages: 1 -->
<svg width="170pt" height="240pt"
 viewBox="0.00 0.00 169.50 240.00" xmlns="http://www.w3.org/2000/svg" xmlns:xlink="http://www.w3.org/1999/xlink">
<g id="graph0" class="graph" transform="scale(1 1) rotate(0) translate(4 236)">
<title>zml::GetGlobalOpAdaptor</title>
<!-- Node1 -->
<g id="Node000001" class="node">
<title>Node1</title>
<g id="a_Node000001"><a xlink:title=" ">
<polygon fill="#999999" stroke="#666666" points="144.62,-19.25 16.88,-19.25 16.88,0 144.62,0 144.62,-19.25"/>
<text text-anchor="middle" x="80.75" y="-5.75" font-family="Helvetica,sans-Serif" font-size="10.00">zml::GetGlobalOpAdaptor</text>
</a>
</g>
</g>
<!-- Node2 -->
<g id="Node000002" class="node">
<title>Node2</title>
<g id="a_Node000002"><a xlink:href="classzml_1_1_get_global_op_generic_adaptor.html" target="_top" xlink:title=" ">
<polygon fill="white" stroke="#666666" points="161.5,-86.75 0,-86.75 0,-56.25 161.5,-56.25 161.5,-86.75"/>
<text text-anchor="start" x="8" y="-73.25" font-family="Helvetica,sans-Serif" font-size="10.00">zml::GetGlobalOpGenericAdaptor</text>
<text text-anchor="middle" x="80.75" y="-62" font-family="Helvetica,sans-Serif" font-size="10.00">&lt;::mlir::ValueRange &gt;</text>
</a>
</g>
</g>
<!-- Node2&#45;&gt;Node1 -->
<g id="edge1_Node000001_Node000002" class="edge">
<title>Node2&#45;&gt;Node1</title>
<g id="a_edge1_Node000001_Node000002"><a xlink:title=" ">
<path fill="none" stroke="#63b8ff" d="M80.75,-44.77C80.75,-35.79 80.75,-26.29 80.75,-19.6"/>
<polygon fill="#63b8ff" stroke="#63b8ff" points="77.25,-44.49 80.75,-54.49 84.25,-44.49 77.25,-44.49"/>
</a>
</g>
</g>
<!-- Node3 -->
<g id="Node000003" class="node">
<title>Node3</title>
<g id="a_Node000003"><a xlink:href="classzml_1_1detail_1_1_get_global_op_generic_adaptor_base.html" target="_top" xlink:title=" ">
<polygon fill="white" stroke="#666666" points="142.38,-154.25 19.12,-154.25 19.12,-123.75 142.38,-123.75 142.38,-154.25"/>
<text text-anchor="start" x="27.12" y="-140.75" font-family="Helvetica,sans-Serif" font-size="10.00">zml::detail::GetGlobalOp</text>
<text text-anchor="middle" x="80.75" y="-129.5" font-family="Helvetica,sans-Serif" font-size="10.00">GenericAdaptorBase</text>
</a>
</g>
</g>
<!-- Node3&#45;&gt;Node2 -->
<g id="edge2_Node000002_Node000003" class="edge">
<title>Node3&#45;&gt;Node2</title>
<g id="a_edge2_Node000002_Node000003"><a xlink:title=" ">
<path fill="none" stroke="#63b8ff" d="M80.75,-112.09C80.75,-103.55 80.75,-94.37 80.75,-87"/>
<polygon fill="#63b8ff" stroke="#63b8ff" points="77.25,-111.95 80.75,-121.95 84.25,-111.95 77.25,-111.95"/>
</a>
</g>
</g>
<!-- Node4 -->
<g id="Node000004" class="node">
<title>Node4</title>
<g id="a_Node000004"><a xlink:href="structzml_1_1detail_1_1_get_global_op_generic_adaptor_base_1_1_properties.html" target="_top" xlink:title=" ">
<polygon fill="white" stroke="#666666" points="158.88,-232 2.62,-232 2.62,-201.5 158.88,-201.5 158.88,-232"/>
<text text-anchor="start" x="10.62" y="-218.5" font-family="Helvetica,sans-Serif" font-size="10.00">zml::detail::GetGlobalOp</text>
<text text-anchor="middle" x="80.75" y="-207.25" font-family="Helvetica,sans-Serif" font-size="10.00">GenericAdaptorBase::Properties</text>
</a>
</g>
</g>
<!-- Node4&#45;&gt;Node3 -->
<g id="edge3_Node000003_Node000004" class="edge">
<title>Node4&#45;&gt;Node3</title>
<g id="a_edge3_Node000003_Node000004"><a xlink:title=" ">
<path fill="none" stroke="#9a32cd" stroke-dasharray="5,2" d="M80.75,-189.72C80.75,-177.96 80.75,-164.51 80.75,-154.56"/>
<polygon fill="#9a32cd" stroke="#9a32cd" points="77.25,-189.63 80.75,-199.63 84.25,-189.63 77.25,-189.63"/>
</a>
</g>
<text text-anchor="middle" x="103.62" y="-174" font-family="Helvetica,sans-Serif" font-size="10.00" fill="grey"> properties</text>
</g>
</g>
</svg>
