<?xml version="1.0" encoding="UTF-8" standalone="no"?>
<!DOCTYPE svg PUBLIC "-//W3C//DTD SVG 1.1//EN"
 "http://www.w3.org/Graphics/SVG/1.1/DTD/svg11.dtd">
<!-- Generated by graphviz version 12.2.1 (20241206.2353)
 -->
<!-- Title: zml::AddOpAdaptor Pages: 1 -->
<svg width="143pt" height="160pt"
 viewBox="0.00 0.00 143.25 160.25" xmlns="http://www.w3.org/2000/svg" xmlns:xlink="http://www.w3.org/1999/xlink">
<g id="graph0" class="graph" transform="scale(1 1) rotate(0) translate(4 156.25)">
<title>zml::AddOpAdaptor</title>
<!-- Node1 -->
<g id="Node000001" class="node">
<title>Node1</title>
<g id="a_Node000001"><a xlink:title=" ">
<polygon fill="#999999" stroke="#666666" points="118.38,-19.25 16.88,-19.25 16.88,0 118.38,0 118.38,-19.25"/>
<text text-anchor="middle" x="67.62" y="-5.75" font-family="Helvetica,sans-Serif" font-size="10.00">zml::AddOpAdaptor</text>
</a>
</g>
</g>
<!-- Node2 -->
<g id="Node000002" class="node">
<title>Node2</title>
<g id="a_Node000002"><a xlink:href="classzml_1_1_add_op_generic_adaptor.html" target="_top" xlink:title=" ">
<polygon fill="white" stroke="#666666" points="135.25,-85.75 0,-85.75 0,-55.25 135.25,-55.25 135.25,-85.75"/>
<text text-anchor="start" x="8" y="-72.25" font-family="Helvetica,sans-Serif" font-size="10.00">zml::AddOpGenericAdaptor</text>
<text text-anchor="middle" x="67.62" y="-61" font-family="Helvetica,sans-Serif" font-size="10.00">&lt;::mlir::ValueRange &gt;</text>
</a>
</g>
</g>
<!-- Node2&#45;&gt;Node1 -->
<g id="edge1_Node000001_Node000002" class="edge">
<title>Node2&#45;&gt;Node1</title>
<g id="a_edge1_Node000001_Node000002"><a xlink:title=" ">
<path fill="none" stroke="#63b8ff" d="M67.62,-43.48C67.62,-34.98 67.62,-26.09 67.62,-19.7"/>
<polygon fill="#63b8ff" stroke="#63b8ff" points="64.13,-43.43 67.63,-53.43 71.13,-43.43 64.13,-43.43"/>
</a>
</g>
</g>
<!-- Node3 -->
<g id="Node000003" class="node">
<title>Node3</title>
<g id="a_Node000003"><a xlink:href="classzml_1_1detail_1_1_add_op_generic_adaptor_base.html" target="_top" xlink:title=" ">
<polygon fill="white" stroke="#666666" points="133,-152.25 2.25,-152.25 2.25,-121.75 133,-121.75 133,-152.25"/>
<text text-anchor="start" x="10.25" y="-138.75" font-family="Helvetica,sans-Serif" font-size="10.00">zml::detail::AddOpGeneric</text>
<text text-anchor="middle" x="67.62" y="-127.5" font-family="Helvetica,sans-Serif" font-size="10.00">AdaptorBase</text>
</a>
</g>
</g>
<!-- Node3&#45;&gt;Node2 -->
<g id="edge2_Node000002_Node000003" class="edge">
<title>Node3&#45;&gt;Node2</title>
<g id="a_edge2_Node000002_Node000003"><a xlink:title=" ">
<path fill="none" stroke="#63b8ff" d="M67.62,-110.06C67.62,-101.89 67.62,-93.16 67.62,-86.08"/>
<polygon fill="#63b8ff" stroke="#63b8ff" points="64.13,-109.85 67.63,-119.85 71.13,-109.85 64.13,-109.85"/>
</a>
</g>
</g>
</g>
</svg>
