<?xml version="1.0" encoding="UTF-8" standalone="no"?>
<!DOCTYPE svg PUBLIC "-//W3C//DTD SVG 1.1//EN"
 "http://www.w3.org/Graphics/SVG/1.1/DTD/svg11.dtd">
<!-- Generated by graphviz version 12.2.1 (20241206.2353)
 -->
<!-- Title: zml::ReadArrayOpAdaptor Pages: 1 -->
<svg width="173pt" height="160pt"
 viewBox="0.00 0.00 172.50 160.25" xmlns="http://www.w3.org/2000/svg" xmlns:xlink="http://www.w3.org/1999/xlink">
<g id="graph0" class="graph" transform="scale(1 1) rotate(0) translate(4 156.25)">
<title>zml::ReadArrayOpAdaptor</title>
<!-- Node1 -->
<g id="Node000001" class="node">
<title>Node1</title>
<g id="a_Node000001"><a xlink:title=" ">
<polygon fill="#999999" stroke="#666666" points="147.62,-19.25 16.88,-19.25 16.88,0 147.62,0 147.62,-19.25"/>
<text text-anchor="middle" x="82.25" y="-5.75" font-family="Helvetica,sans-Serif" font-size="10.00">zml::ReadArrayOpAdaptor</text>
</a>
</g>
</g>
<!-- Node2 -->
<g id="Node000002" class="node">
<title>Node2</title>
<g id="a_Node000002"><a xlink:href="classzml_1_1_read_array_op_generic_adaptor.html" target="_top" xlink:title=" ">
<polygon fill="white" stroke="#666666" points="164.5,-85.75 0,-85.75 0,-55.25 164.5,-55.25 164.5,-85.75"/>
<text text-anchor="start" x="8" y="-72.25" font-family="Helvetica,sans-Serif" font-size="10.00">zml::ReadArrayOpGenericAdaptor</text>
<text text-anchor="middle" x="82.25" y="-61" font-family="Helvetica,sans-Serif" font-size="10.00">&lt;::mlir::ValueRange &gt;</text>
</a>
</g>
</g>
<!-- Node2&#45;&gt;Node1 -->
<g id="edge1_Node000001_Node000002" class="edge">
<title>Node2&#45;&gt;Node1</title>
<g id="a_edge1_Node000001_Node000002"><a xlink:title=" ">
<path fill="none" stroke="#63b8ff" d="M82.25,-43.48C82.25,-34.98 82.25,-26.09 82.25,-19.7"/>
<polygon fill="#63b8ff" stroke="#63b8ff" points="78.75,-43.43 82.25,-53.43 85.75,-43.43 78.75,-43.43"/>
</a>
</g>
</g>
<!-- Node3 -->
<g id="Node000003" class="node">
<title>Node3</title>
<g id="a_Node000003"><a xlink:href="classzml_1_1detail_1_1_read_array_op_generic_adaptor_base.html" target="_top" xlink:title=" ">
<polygon fill="white" stroke="#666666" points="145.38,-152.25 19.12,-152.25 19.12,-121.75 145.38,-121.75 145.38,-152.25"/>
<text text-anchor="start" x="27.12" y="-138.75" font-family="Helvetica,sans-Serif" font-size="10.00">zml::detail::ReadArrayOp</text>
<text text-anchor="middle" x="82.25" y="-127.5" font-family="Helvetica,sans-Serif" font-size="10.00">GenericAdaptorBase</text>
</a>
</g>
</g>
<!-- Node3&#45;&gt;Node2 -->
<g id="edge2_Node000002_Node000003" class="edge">
<title>Node3&#45;&gt;Node2</title>
<g id="a_edge2_Node000002_Node000003"><a xlink:title=" ">
<path fill="none" stroke="#63b8ff" d="M82.25,-110.06C82.25,-101.89 82.25,-93.16 82.25,-86.08"/>
<polygon fill="#63b8ff" stroke="#63b8ff" points="78.75,-109.85 82.25,-119.85 85.75,-109.85 78.75,-109.85"/>
</a>
</g>
</g>
</g>
</svg>
