<?xml version="1.0" encoding="UTF-8" standalone="no"?>
<!DOCTYPE svg PUBLIC "-//W3C//DTD SVG 1.1//EN"
 "http://www.w3.org/Graphics/SVG/1.1/DTD/svg11.dtd">
<!-- Generated by graphviz version 12.2.1 (20241206.2353)
 -->
<!-- Title: zml::ZhlConstructGlobalLowering Pages: 1 -->
<svg width="290pt" height="227pt"
 viewBox="0.00 0.00 290.25 226.75" xmlns="http://www.w3.org/2000/svg" xmlns:xlink="http://www.w3.org/1999/xlink">
<g id="graph0" class="graph" transform="scale(1 1) rotate(0) translate(4 222.75)">
<title>zml::ZhlConstructGlobalLowering</title>
<!-- Node1 -->
<g id="Node000001" class="node">
<title>Node1</title>
<g id="a_Node000001"><a xlink:title=" ">
<polygon fill="#999999" stroke="#666666" points="239.88,-19.25 79.12,-19.25 79.12,0 239.88,0 239.88,-19.25"/>
<text text-anchor="middle" x="159.5" y="-5.75" font-family="Helvetica,sans-Serif" font-size="10.00">zml::ZhlConstructGlobalLowering</text>
</a>
</g>
</g>
<!-- Node2 -->
<g id="Node000002" class="node">
<title>Node2</title>
<g id="a_Node000002"><a xlink:href="classzml_1_1_constructor_lowering.html" target="_top" xlink:title=" ">
<polygon fill="white" stroke="#666666" points="169,-85.75 0,-85.75 0,-55.25 169,-55.25 169,-85.75"/>
<text text-anchor="start" x="8" y="-72.25" font-family="Helvetica,sans-Serif" font-size="10.00">zml::ConstructorLowering</text>
<text text-anchor="middle" x="84.5" y="-61" font-family="Helvetica,sans-Serif" font-size="10.00">&lt; zirgen::Zhl::ConstructGlobalOp &gt;</text>
</a>
</g>
</g>
<!-- Node2&#45;&gt;Node1 -->
<g id="edge1_Node000001_Node000002" class="edge">
<title>Node2&#45;&gt;Node1</title>
<g id="a_edge1_Node000001_Node000002"><a xlink:title=" ">
<path fill="none" stroke="#63b8ff" d="M111.74,-48.12C124.2,-38.33 138.31,-27.26 147.94,-19.7"/>
<polygon fill="#63b8ff" stroke="#63b8ff" points="109.93,-45.08 104.23,-54.01 114.26,-50.59 109.93,-45.08"/>
</a>
</g>
</g>
<!-- Node3 -->
<g id="Node000003" class="node">
<title>Node3</title>
<g id="a_Node000003"><a xlink:href="classzml_1_1_zhl_op_lowering_pattern.html" target="_top" xlink:title=" ">
<polygon fill="white" stroke="#666666" points="169,-152.25 0,-152.25 0,-121.75 169,-121.75 169,-152.25"/>
<text text-anchor="start" x="8" y="-138.75" font-family="Helvetica,sans-Serif" font-size="10.00">zml::ZhlOpLoweringPattern</text>
<text text-anchor="middle" x="84.5" y="-127.5" font-family="Helvetica,sans-Serif" font-size="10.00">&lt; zirgen::Zhl::ConstructGlobalOp &gt;</text>
</a>
</g>
</g>
<!-- Node3&#45;&gt;Node2 -->
<g id="edge2_Node000002_Node000003" class="edge">
<title>Node3&#45;&gt;Node2</title>
<g id="a_edge2_Node000002_Node000003"><a xlink:title=" ">
<path fill="none" stroke="#63b8ff" d="M84.5,-110.06C84.5,-101.89 84.5,-93.16 84.5,-86.08"/>
<polygon fill="#63b8ff" stroke="#63b8ff" points="81,-109.85 84.5,-119.85 88,-109.85 81,-109.85"/>
</a>
</g>
</g>
<!-- Node4 -->
<g id="Node000004" class="node">
<title>Node4</title>
<g id="a_Node000004"><a xlink:title=" ">
<polygon fill="white" stroke="#666666" points="169,-218.75 0,-218.75 0,-188.25 169,-188.25 169,-218.75"/>
<text text-anchor="start" x="8" y="-205.25" font-family="Helvetica,sans-Serif" font-size="10.00">mlir::OpConversionPattern</text>
<text text-anchor="middle" x="84.5" y="-194" font-family="Helvetica,sans-Serif" font-size="10.00">&lt; zirgen::Zhl::ConstructGlobalOp &gt;</text>
</a>
</g>
</g>
<!-- Node4&#45;&gt;Node3 -->
<g id="edge3_Node000003_Node000004" class="edge">
<title>Node4&#45;&gt;Node3</title>
<g id="a_edge3_Node000003_Node000004"><a xlink:title=" ">
<path fill="none" stroke="#63b8ff" d="M84.5,-176.56C84.5,-168.39 84.5,-159.66 84.5,-152.58"/>
<polygon fill="#63b8ff" stroke="#63b8ff" points="81,-176.35 84.5,-186.35 88,-176.35 81,-176.35"/>
</a>
</g>
</g>
<!-- Node5 -->
<g id="Node000005" class="node">
<title>Node5</title>
<g id="a_Node000005"><a xlink:href="classzml_1_1_global_builder.html" target="_top" xlink:title="Helper for constructing global variables in a common global module.">
<polygon fill="white" stroke="#666666" points="282.25,-80.12 186.75,-80.12 186.75,-60.88 282.25,-60.88 282.25,-80.12"/>
<text text-anchor="middle" x="234.5" y="-66.62" font-family="Helvetica,sans-Serif" font-size="10.00">zml::GlobalBuilder</text>
</a>
</g>
</g>
<!-- Node5&#45;&gt;Node1 -->
<g id="edge4_Node000001_Node000005" class="edge">
<title>Node5&#45;&gt;Node1</title>
<g id="a_edge4_Node000001_Node000005"><a xlink:title=" ">
<path fill="none" stroke="#8b1a1a" d="M214.28,-53.63C200.4,-42.73 182.49,-28.67 171,-19.65"/>
<polygon fill="#8b1a1a" stroke="#8b1a1a" points="211.89,-56.2 221.92,-59.62 216.21,-50.7 211.89,-56.2"/>
</a>
</g>
</g>
</g>
</svg>
