<?xml version="1.0" encoding="UTF-8" standalone="no"?>
<!DOCTYPE svg PUBLIC "-//W3C//DTD SVG 1.1//EN"
 "http://www.w3.org/Graphics/SVG/1.1/DTD/svg11.dtd">
<!-- Generated by graphviz version 12.2.1 (20241206.2353)
 -->
<!-- Title: zml::GlobalBuilder Pages: 1 -->
<svg width="320pt" height="83pt"
 viewBox="0.00 0.00 320.25 82.50" xmlns="http://www.w3.org/2000/svg" xmlns:xlink="http://www.w3.org/1999/xlink">
<g id="graph0" class="graph" transform="scale(1 1) rotate(0) translate(4 78.5)">
<title>zml::GlobalBuilder</title>
<!-- Node1 -->
<g id="Node000001" class="node">
<title>Node1</title>
<g id="a_Node000001"><a xlink:title="Helper for constructing global variables in a common global module.">
<polygon fill="#999999" stroke="#666666" points="210.12,-74.5 114.62,-74.5 114.62,-55.25 210.12,-55.25 210.12,-74.5"/>
<text text-anchor="middle" x="162.38" y="-61" font-family="Helvetica,sans-Serif" font-size="10.00">zml::GlobalBuilder</text>
</a>
</g>
</g>
<!-- Node2 -->
<g id="Node000002" class="node">
<title>Node2</title>
<g id="a_Node000002"><a xlink:href="classzml_1_1_zhl_construct_global_lowering.html" target="_top" xlink:title=" ">
<polygon fill="white" stroke="#666666" points="160.75,-19.25 0,-19.25 0,0 160.75,0 160.75,-19.25"/>
<text text-anchor="middle" x="80.38" y="-5.75" font-family="Helvetica,sans-Serif" font-size="10.00">zml::ZhlConstructGlobalLowering</text>
</a>
</g>
</g>
<!-- Node1&#45;&gt;Node2 -->
<g id="edge1_Node000001_Node000002" class="edge">
<title>Node1&#45;&gt;Node2</title>
<g id="a_edge1_Node000001_Node000002"><a xlink:title=" ">
<path fill="none" stroke="#8b1a1a" d="M139.17,-48.8C124.72,-39.42 106.63,-27.67 94.35,-19.7"/>
<polygon fill="#8b1a1a" stroke="#8b1a1a" points="136.9,-51.51 147.2,-54.02 140.71,-45.64 136.9,-51.51"/>
</a>
</g>
</g>
<!-- Node3 -->
<g id="Node000003" class="node">
<title>Node3</title>
<g id="a_Node000003"><a xlink:href="classzml_1_1_zhl_get_global_lowering.html" target="_top" xlink:title=" ">
<polygon fill="white" stroke="#666666" points="312.25,-19.25 178.5,-19.25 178.5,0 312.25,0 312.25,-19.25"/>
<text text-anchor="middle" x="245.38" y="-5.75" font-family="Helvetica,sans-Serif" font-size="10.00">zml::ZhlGetGlobalLowering</text>
</a>
</g>
</g>
<!-- Node1&#45;&gt;Node3 -->
<g id="edge2_Node000001_Node000003" class="edge">
<title>Node1&#45;&gt;Node3</title>
<g id="a_edge2_Node000001_Node000003"><a xlink:title=" ">
<path fill="none" stroke="#8b1a1a" d="M185.87,-48.8C200.49,-39.42 218.8,-27.67 231.23,-19.7"/>
<polygon fill="#8b1a1a" stroke="#8b1a1a" points="184.26,-45.68 177.73,-54.02 188.04,-51.57 184.26,-45.68"/>
</a>
</g>
</g>
</g>
</svg>
