<?xml version="1.0" encoding="UTF-8" standalone="no"?>
<!DOCTYPE svg PUBLIC "-//W3C//DTD SVG 1.1//EN"
 "http://www.w3.org/Graphics/SVG/1.1/DTD/svg11.dtd">
<!-- Generated by graphviz version 12.2.1 (20241206.2353)
 -->
<!-- Title: zml::ZhlCompToZmirCompPattern Pages: 1 -->
<svg width="284pt" height="173pt"
 viewBox="0.00 0.00 284.25 172.50" xmlns="http://www.w3.org/2000/svg" xmlns:xlink="http://www.w3.org/1999/xlink">
<g id="graph0" class="graph" transform="scale(1 1) rotate(0) translate(4 168.5)">
<title>zml::ZhlCompToZmirCompPattern</title>
<!-- Node1 -->
<g id="Node000001" class="node">
<title>Node1</title>
<g id="a_Node000001"><a xlink:title=" ">
<polygon fill="#999999" stroke="#666666" points="230,-19.25 64.75,-19.25 64.75,0 230,0 230,-19.25"/>
<text text-anchor="middle" x="147.38" y="-5.75" font-family="Helvetica,sans-Serif" font-size="10.00">zml::ZhlCompToZmirCompPattern</text>
</a>
</g>
</g>
<!-- Node2 -->
<g id="Node000002" class="node">
<title>Node2</title>
<g id="a_Node000002"><a xlink:href="classzml_1_1_zhl_op_lowering_pattern.html" target="_top" xlink:title=" ">
<polygon fill="white" stroke="#666666" points="221.75,-86.75 73,-86.75 73,-56.25 221.75,-56.25 221.75,-86.75"/>
<text text-anchor="start" x="81" y="-73.25" font-family="Helvetica,sans-Serif" font-size="10.00">zml::ZhlOpLoweringPattern</text>
<text text-anchor="middle" x="147.38" y="-62" font-family="Helvetica,sans-Serif" font-size="10.00">&lt; zirgen::Zhl::ComponentOp &gt;</text>
</a>
</g>
</g>
<!-- Node2&#45;&gt;Node1 -->
<g id="edge1_Node000001_Node000002" class="edge">
<title>Node2&#45;&gt;Node1</title>
<g id="a_edge1_Node000001_Node000002"><a xlink:title=" ">
<path fill="none" stroke="#63b8ff" d="M147.38,-44.77C147.38,-35.79 147.38,-26.29 147.38,-19.6"/>
<polygon fill="#63b8ff" stroke="#63b8ff" points="143.88,-44.49 147.38,-54.49 150.88,-44.49 143.88,-44.49"/>
</a>
</g>
</g>
<!-- Node3 -->
<g id="Node000003" class="node">
<title>Node3</title>
<g id="a_Node000003"><a xlink:title=" ">
<polygon fill="white" stroke="#666666" points="148.75,-164.5 0,-164.5 0,-134 148.75,-134 148.75,-164.5"/>
<text text-anchor="start" x="8" y="-151" font-family="Helvetica,sans-Serif" font-size="10.00">mlir::OpConversionPattern</text>
<text text-anchor="middle" x="74.38" y="-139.75" font-family="Helvetica,sans-Serif" font-size="10.00">&lt; zirgen::Zhl::ComponentOp &gt;</text>
</a>
</g>
</g>
<!-- Node3&#45;&gt;Node2 -->
<g id="edge2_Node000002_Node000003" class="edge">
<title>Node3&#45;&gt;Node2</title>
<g id="a_edge2_Node000002_Node000003"><a xlink:title=" ">
<path fill="none" stroke="#63b8ff" d="M96.29,-125.51C108.31,-113.04 122.85,-97.95 133.34,-87.06"/>
<polygon fill="#63b8ff" stroke="#63b8ff" points="93.92,-122.93 89.5,-132.55 98.96,-127.78 93.92,-122.93"/>
</a>
</g>
</g>
<!-- Node4 -->
<g id="Node000004" class="node">
<title>Node4</title>
<g id="a_Node000004"><a xlink:href="classzhl_1_1_z_i_r_type_analysis.html" target="_top" xlink:title=" ">
<polygon fill="white" stroke="#666666" points="276.25,-158.88 166.5,-158.88 166.5,-139.62 276.25,-139.62 276.25,-158.88"/>
<text text-anchor="middle" x="221.38" y="-145.38" font-family="Helvetica,sans-Serif" font-size="10.00">zhl::ZIRTypeAnalysis</text>
</a>
</g>
</g>
<!-- Node4&#45;&gt;Node2 -->
<g id="edge3_Node000002_Node000004" class="edge">
<title>Node4&#45;&gt;Node2</title>
<g id="a_edge3_Node000002_Node000004"><a xlink:title=" ">
<path fill="none" stroke="#9a32cd" stroke-dasharray="5,2" d="M204.9,-131.39C191.95,-118.13 174.09,-99.85 161.73,-87.19"/>
<polygon fill="#9a32cd" stroke="#9a32cd" points="202.05,-133.47 211.54,-138.18 207.05,-128.58 202.05,-133.47"/>
</a>
</g>
<text text-anchor="middle" x="218.43" y="-106.5" font-family="Helvetica,sans-Serif" font-size="10.00" fill="grey"> typeAnalysis</text>
</g>
</g>
</svg>
