<?xml version="1.0" encoding="UTF-8" standalone="no"?>
<!DOCTYPE svg PUBLIC "-//W3C//DTD SVG 1.1//EN"
 "http://www.w3.org/Graphics/SVG/1.1/DTD/svg11.dtd">
<!-- Generated by graphviz version 12.2.1 (20241206.2353)
 -->
<!-- Title: zhl::expr::detail::ExprBase Pages: 1 -->
<svg width="343pt" height="160pt"
 viewBox="0.00 0.00 342.88 160.25" xmlns="http://www.w3.org/2000/svg" xmlns:xlink="http://www.w3.org/1999/xlink">
<g id="graph0" class="graph" transform="scale(1 1) rotate(0) translate(4 156.25)">
<title>zhl::expr::detail::ExprBase</title>
<!-- Node1 -->
<g id="Node000001" class="node">
<title>Node1</title>
<g id="a_Node000001"><a xlink:title="Root of the expression class hierarchy.">
<polygon fill="#999999" stroke="#666666" points="214.12,-97 125.38,-97 125.38,-66.5 214.12,-66.5 214.12,-97"/>
<text text-anchor="start" x="133.38" y="-83.5" font-family="Helvetica,sans-Serif" font-size="10.00">zhl::expr::detail::</text>
<text text-anchor="middle" x="169.75" y="-72.25" font-family="Helvetica,sans-Serif" font-size="10.00">ExprBase</text>
</a>
</g>
</g>
<!-- Node3 -->
<g id="Node000003" class="node">
<title>Node3</title>
<g id="a_Node000003"><a xlink:href="classzhl_1_1expr_1_1detail_1_1_ctor.html" target="_top" xlink:title=" ">
<polygon fill="white" stroke="#666666" points="107.5,-24.88 0,-24.88 0,-5.63 107.5,-5.63 107.5,-24.88"/>
<text text-anchor="middle" x="53.75" y="-11.38" font-family="Helvetica,sans-Serif" font-size="10.00">zhl::expr::detail::Ctor</text>
</a>
</g>
</g>
<!-- Node1&#45;&gt;Node3 -->
<g id="edge2_Node000001_Node000003" class="edge">
<title>Node1&#45;&gt;Node3</title>
<g id="a_edge2_Node000001_Node000003"><a xlink:title=" ">
<path fill="none" stroke="#63b8ff" d="M133.41,-60.54C112.13,-48.71 86.31,-34.36 69.95,-25.26"/>
<polygon fill="#63b8ff" stroke="#63b8ff" points="131.66,-63.58 142.11,-65.38 135.07,-57.46 131.66,-63.58"/>
</a>
</g>
</g>
<!-- Node4 -->
<g id="Node000004" class="node">
<title>Node4</title>
<g id="a_Node000004"><a xlink:href="classzhl_1_1expr_1_1detail_1_1_symbol.html" target="_top" xlink:title=" ">
<polygon fill="white" stroke="#666666" points="214.12,-30.5 125.38,-30.5 125.38,0 214.12,0 214.12,-30.5"/>
<text text-anchor="start" x="133.38" y="-17" font-family="Helvetica,sans-Serif" font-size="10.00">zhl::expr::detail::</text>
<text text-anchor="middle" x="169.75" y="-5.75" font-family="Helvetica,sans-Serif" font-size="10.00">Symbol</text>
</a>
</g>
</g>
<!-- Node1&#45;&gt;Node4 -->
<g id="edge3_Node000001_Node000004" class="edge">
<title>Node1&#45;&gt;Node4</title>
<g id="a_edge3_Node000001_Node000004"><a xlink:title=" ">
<path fill="none" stroke="#63b8ff" d="M169.75,-54.81C169.75,-46.64 169.75,-37.91 169.75,-30.83"/>
<polygon fill="#63b8ff" stroke="#63b8ff" points="166.25,-54.6 169.75,-64.6 173.25,-54.6 166.25,-54.6"/>
</a>
</g>
</g>
<!-- Node5 -->
<g id="Node000005" class="node">
<title>Node5</title>
<g id="a_Node000005"><a xlink:href="classzhl_1_1expr_1_1detail_1_1_val.html" target="_top" xlink:title=" ">
<polygon fill="white" stroke="#666666" points="334.88,-24.88 232.62,-24.88 232.62,-5.63 334.88,-5.63 334.88,-24.88"/>
<text text-anchor="middle" x="283.75" y="-11.38" font-family="Helvetica,sans-Serif" font-size="10.00">zhl::expr::detail::Val</text>
</a>
</g>
</g>
<!-- Node1&#45;&gt;Node5 -->
<g id="edge4_Node000001_Node000005" class="edge">
<title>Node1&#45;&gt;Node5</title>
<g id="a_edge4_Node000001_Node000005"><a xlink:title=" ">
<path fill="none" stroke="#63b8ff" d="M205.46,-60.54C226.38,-48.71 251.75,-34.36 267.83,-25.26"/>
<polygon fill="#63b8ff" stroke="#63b8ff" points="203.92,-57.4 196.94,-65.37 207.36,-63.49 203.92,-57.4"/>
</a>
</g>
</g>
<!-- Node2 -->
<g id="Node000002" class="node">
<title>Node2</title>
<g id="a_Node000002"><a xlink:title=" ">
<polygon fill="white" stroke="#666666" points="240.75,-152.25 98.75,-152.25 98.75,-133 240.75,-133 240.75,-152.25"/>
<text text-anchor="middle" x="169.75" y="-138.75" font-family="Helvetica,sans-Serif" font-size="10.00">llvm::ilist_node&lt; ExprBase &gt;</text>
</a>
</g>
</g>
<!-- Node2&#45;&gt;Node1 -->
<g id="edge1_Node000001_Node000002" class="edge">
<title>Node2&#45;&gt;Node1</title>
<g id="a_edge1_Node000001_Node000002"><a xlink:title=" ">
<path fill="none" stroke="#63b8ff" d="M169.75,-121.42C169.75,-113.49 169.75,-104.56 169.75,-97.28"/>
<polygon fill="#63b8ff" stroke="#63b8ff" points="166.25,-121.17 169.75,-131.17 173.25,-121.17 166.25,-121.17"/>
</a>
</g>
</g>
</g>
</svg>
