<?xml version="1.0" encoding="UTF-8" standalone="no"?>
<!DOCTYPE svg PUBLIC "-//W3C//DTD SVG 1.1//EN"
 "http://www.w3.org/Graphics/SVG/1.1/DTD/svg11.dtd">
<!-- Generated by graphviz version 12.2.1 (20241206.2353)
 -->
<!-- Title: zhl::ComponentSlot Pages: 1 -->
<svg width="196pt" height="216pt"
 viewBox="0.00 0.00 196.00 215.50" xmlns="http://www.w3.org/2000/svg" xmlns:xlink="http://www.w3.org/1999/xlink">
<g id="graph0" class="graph" transform="scale(1 1) rotate(0) translate(4 211.5)">
<title>zhl::ComponentSlot</title>
<!-- Node1 -->
<g id="Node000001" class="node">
<title>Node1</title>
<g id="a_Node000001"><a xlink:title=" ">
<polygon fill="#999999" stroke="#666666" points="145,-74.5 42.75,-74.5 42.75,-55.25 145,-55.25 145,-74.5"/>
<text text-anchor="middle" x="93.88" y="-61" font-family="Helvetica,sans-Serif" font-size="10.00">zhl::ComponentSlot</text>
</a>
</g>
</g>
<!-- Node4 -->
<g id="Node000004" class="node">
<title>Node4</title>
<g id="a_Node000004"><a xlink:href="classzhl_1_1_array_frame.html" target="_top" xlink:title="Represents a slot with an inner frame where every slot in the inner frame is repeat N times by using ...">
<polygon fill="white" stroke="#666666" points="85.75,-19.25 0,-19.25 0,0 85.75,0 85.75,-19.25"/>
<text text-anchor="middle" x="42.88" y="-5.75" font-family="Helvetica,sans-Serif" font-size="10.00">zhl::ArrayFrame</text>
</a>
</g>
</g>
<!-- Node1&#45;&gt;Node4 -->
<g id="edge3_Node000001_Node000004" class="edge">
<title>Node1&#45;&gt;Node4</title>
<g id="a_edge3_Node000001_Node000004"><a xlink:title=" ">
<path fill="none" stroke="#63b8ff" d="M77.51,-46.79C68.86,-37.75 58.58,-27.02 51.48,-19.61"/>
<polygon fill="#63b8ff" stroke="#63b8ff" points="74.96,-49.19 84.41,-53.99 80.02,-44.35 74.96,-49.19"/>
</a>
</g>
</g>
<!-- Node5 -->
<g id="Node000005" class="node">
<title>Node5</title>
<g id="a_Node000005"><a xlink:href="classzhl_1_1_inner_frame.html" target="_top" xlink:title="Represents a Frame inside another.">
<polygon fill="white" stroke="#666666" points="188,-19.25 103.75,-19.25 103.75,0 188,0 188,-19.25"/>
<text text-anchor="middle" x="145.88" y="-5.75" font-family="Helvetica,sans-Serif" font-size="10.00">zhl::InnerFrame</text>
</a>
</g>
</g>
<!-- Node1&#45;&gt;Node5 -->
<g id="edge4_Node000001_Node000005" class="edge">
<title>Node1&#45;&gt;Node5</title>
<g id="a_edge4_Node000001_Node000005"><a xlink:title=" ">
<path fill="none" stroke="#63b8ff" d="M110.28,-47.07C119.17,-37.98 129.79,-27.1 137.1,-19.61"/>
<polygon fill="#63b8ff" stroke="#63b8ff" points="108,-44.4 103.52,-54 113.01,-49.29 108,-44.4"/>
</a>
</g>
</g>
<!-- Node2 -->
<g id="Node000002" class="node">
<title>Node2</title>
<g id="a_Node000002"><a xlink:href="classzhl_1_1_frame_slot.html" target="_top" xlink:title="Base class for anything that can be allocated in a frame.">
<polygon fill="white" stroke="#666666" points="133.75,-129.75 54,-129.75 54,-110.5 133.75,-110.5 133.75,-129.75"/>
<text text-anchor="middle" x="93.88" y="-116.25" font-family="Helvetica,sans-Serif" font-size="10.00">zhl::FrameSlot</text>
</a>
</g>
</g>
<!-- Node2&#45;&gt;Node1 -->
<g id="edge1_Node000001_Node000002" class="edge">
<title>Node2&#45;&gt;Node1</title>
<g id="a_edge1_Node000001_Node000002"><a xlink:title=" ">
<path fill="none" stroke="#63b8ff" d="M93.88,-98.88C93.88,-90.59 93.88,-81.42 93.88,-74.86"/>
<polygon fill="#63b8ff" stroke="#63b8ff" points="90.38,-98.82 93.88,-108.82 97.38,-98.82 90.38,-98.82"/>
</a>
</g>
</g>
<!-- Node3 -->
<g id="Node000003" class="node">
<title>Node3</title>
<g id="a_Node000003"><a xlink:title=" ">
<polygon fill="white" stroke="#666666" points="159.62,-207.5 28.12,-207.5 28.12,-165.75 159.62,-165.75 159.62,-207.5"/>
<text text-anchor="start" x="36.12" y="-194" font-family="Helvetica,sans-Serif" font-size="10.00">llvm::ilist_node_with</text>
<text text-anchor="start" x="36.12" y="-182.75" font-family="Helvetica,sans-Serif" font-size="10.00">_parent&lt; FrameSlot, detail</text>
<text text-anchor="middle" x="93.88" y="-171.5" font-family="Helvetica,sans-Serif" font-size="10.00">::FrameInfo &gt;</text>
</a>
</g>
</g>
<!-- Node3&#45;&gt;Node2 -->
<g id="edge2_Node000002_Node000003" class="edge">
<title>Node3&#45;&gt;Node2</title>
<g id="a_edge2_Node000002_Node000003"><a xlink:title=" ">
<path fill="none" stroke="#63b8ff" d="M93.88,-154.26C93.88,-145.45 93.88,-136.55 93.88,-130.2"/>
<polygon fill="#63b8ff" stroke="#63b8ff" points="90.38,-154.06 93.88,-164.06 97.38,-154.06 90.38,-154.06"/>
</a>
</g>
</g>
</g>
</svg>
