<?xml version="1.0" encoding="UTF-8" standalone="no"?>
<!DOCTYPE svg PUBLIC "-//W3C//DTD SVG 1.1//EN"
 "http://www.w3.org/Graphics/SVG/1.1/DTD/svg11.dtd">
<!-- Generated by graphviz version 12.2.1 (20241206.2353)
 -->
<!-- Title: zml::ConstructorLowering&lt; Op &gt; Pages: 1 -->
<svg width="268pt" height="184pt"
 viewBox="0.00 0.00 267.62 183.75" xmlns="http://www.w3.org/2000/svg" xmlns:xlink="http://www.w3.org/1999/xlink">
<g id="graph0" class="graph" transform="scale(1 1) rotate(0) translate(4 179.75)">
<title>zml::ConstructorLowering&lt; Op &gt;</title>
<!-- Node1 -->
<g id="Node000001" class="node">
<title>Node1</title>
<g id="a_Node000001"><a xlink:title=" ">
<polygon fill="#999999" stroke="#666666" points="198.62,-30.5 70.88,-30.5 70.88,0 198.62,0 198.62,-30.5"/>
<text text-anchor="start" x="78.88" y="-17" font-family="Helvetica,sans-Serif" font-size="10.00">zml::ConstructorLowering</text>
<text text-anchor="middle" x="134.75" y="-5.75" font-family="Helvetica,sans-Serif" font-size="10.00">&lt; Op &gt;</text>
</a>
</g>
</g>
<!-- Node2 -->
<g id="Node000002" class="node">
<title>Node2</title>
<g id="a_Node000002"><a xlink:href="classzml_1_1_zhl_op_lowering_pattern.html" target="_top" xlink:title=" ">
<polygon fill="white" stroke="#666666" points="202,-98 67.5,-98 67.5,-67.5 202,-67.5 202,-98"/>
<text text-anchor="start" x="75.5" y="-84.5" font-family="Helvetica,sans-Serif" font-size="10.00">zml::ZhlOpLoweringPattern</text>
<text text-anchor="middle" x="134.75" y="-73.25" font-family="Helvetica,sans-Serif" font-size="10.00">&lt; Op &gt;</text>
</a>
</g>
</g>
<!-- Node2&#45;&gt;Node1 -->
<g id="edge1_Node000001_Node000002" class="edge">
<title>Node2&#45;&gt;Node1</title>
<g id="a_edge1_Node000001_Node000002"><a xlink:title=" ">
<path fill="none" stroke="#63b8ff" d="M134.75,-55.84C134.75,-47.3 134.75,-38.12 134.75,-30.75"/>
<polygon fill="#63b8ff" stroke="#63b8ff" points="131.25,-55.7 134.75,-65.7 138.25,-55.7 131.25,-55.7"/>
</a>
</g>
</g>
<!-- Node3 -->
<g id="Node000003" class="node">
<title>Node3</title>
<g id="a_Node000003"><a xlink:title=" ">
<polygon fill="white" stroke="#666666" points="131.5,-175.75 0,-175.75 0,-145.25 131.5,-145.25 131.5,-175.75"/>
<text text-anchor="start" x="8" y="-162.25" font-family="Helvetica,sans-Serif" font-size="10.00">mlir::OpConversionPattern</text>
<text text-anchor="middle" x="65.75" y="-151" font-family="Helvetica,sans-Serif" font-size="10.00">&lt; Op &gt;</text>
</a>
</g>
</g>
<!-- Node3&#45;&gt;Node2 -->
<g id="edge2_Node000002_Node000003" class="edge">
<title>Node3&#45;&gt;Node2</title>
<g id="a_edge2_Node000002_Node000003"><a xlink:title=" ">
<path fill="none" stroke="#63b8ff" d="M86.79,-136.4C98.09,-124 111.67,-109.09 121.49,-98.31"/>
<polygon fill="#63b8ff" stroke="#63b8ff" points="84.22,-134.03 80.07,-143.78 89.39,-138.74 84.22,-134.03"/>
</a>
</g>
</g>
<!-- Node4 -->
<g id="Node000004" class="node">
<title>Node4</title>
<g id="a_Node000004"><a xlink:href="classzhl_1_1_z_i_r_type_analysis.html" target="_top" xlink:title=" ">
<polygon fill="white" stroke="#666666" points="259.62,-170.12 149.88,-170.12 149.88,-150.88 259.62,-150.88 259.62,-170.12"/>
<text text-anchor="middle" x="204.75" y="-156.62" font-family="Helvetica,sans-Serif" font-size="10.00">zhl::ZIRTypeAnalysis</text>
</a>
</g>
</g>
<!-- Node4&#45;&gt;Node2 -->
<g id="edge3_Node000002_Node000004" class="edge">
<title>Node4&#45;&gt;Node2</title>
<g id="a_edge3_Node000002_Node000004"><a xlink:title=" ">
<path fill="none" stroke="#9a32cd" stroke-dasharray="5,2" d="M188.82,-142.26C176.6,-129.03 159.91,-110.98 148.32,-98.44"/>
<polygon fill="#9a32cd" stroke="#9a32cd" points="186.06,-144.43 195.42,-149.4 191.2,-139.68 186.06,-144.43"/>
</a>
</g>
<text text-anchor="middle" x="203.57" y="-117.75" font-family="Helvetica,sans-Serif" font-size="10.00" fill="grey"> typeAnalysis</text>
</g>
</g>
</svg>
