<?xml version="1.0" encoding="UTF-8" standalone="no"?>
<!DOCTYPE svg PUBLIC "-//W3C//DTD SVG 1.1//EN"
 "http://www.w3.org/Graphics/SVG/1.1/DTD/svg11.dtd">
<!-- Generated by graphviz version 12.2.1 (20241206.2353)
 -->
<!-- Title: zml::ZhlSuperLoweringInMap Pages: 1 -->
<svg width="151pt" height="160pt"
 viewBox="0.00 0.00 150.75 160.25" xmlns="http://www.w3.org/2000/svg" xmlns:xlink="http://www.w3.org/1999/xlink">
<g id="graph0" class="graph" transform="scale(1 1) rotate(0) translate(4 156.25)">
<title>zml::ZhlSuperLoweringInMap</title>
<!-- Node1 -->
<g id="Node000001" class="node">
<title>Node1</title>
<g id="a_Node000001"><a xlink:title=" ">
<polygon fill="#999999" stroke="#666666" points="142.75,-19.25 0,-19.25 0,0 142.75,0 142.75,-19.25"/>
<text text-anchor="middle" x="71.38" y="-5.75" font-family="Helvetica,sans-Serif" font-size="10.00">zml::ZhlSuperLoweringInMap</text>
</a>
</g>
</g>
<!-- Node2 -->
<g id="Node000002" class="node">
<title>Node2</title>
<g id="a_Node000002"><a xlink:href="classzml_1_1_zhl_op_lowering_pattern.html" target="_top" xlink:title=" ">
<polygon fill="white" stroke="#666666" points="138.62,-85.75 4.12,-85.75 4.12,-55.25 138.62,-55.25 138.62,-85.75"/>
<text text-anchor="start" x="12.12" y="-72.25" font-family="Helvetica,sans-Serif" font-size="10.00">zml::ZhlOpLoweringPattern</text>
<text text-anchor="middle" x="71.38" y="-61" font-family="Helvetica,sans-Serif" font-size="10.00">&lt; zirgen::Zhl::SuperOp &gt;</text>
</a>
</g>
</g>
<!-- Node2&#45;&gt;Node1 -->
<g id="edge1_Node000001_Node000002" class="edge">
<title>Node2&#45;&gt;Node1</title>
<g id="a_edge1_Node000001_Node000002"><a xlink:title=" ">
<path fill="none" stroke="#63b8ff" d="M71.38,-43.48C71.38,-34.98 71.38,-26.09 71.38,-19.7"/>
<polygon fill="#63b8ff" stroke="#63b8ff" points="67.88,-43.43 71.38,-53.43 74.88,-43.43 67.88,-43.43"/>
</a>
</g>
</g>
<!-- Node3 -->
<g id="Node000003" class="node">
<title>Node3</title>
<g id="a_Node000003"><a xlink:title=" ">
<polygon fill="white" stroke="#666666" points="137.12,-152.25 5.62,-152.25 5.62,-121.75 137.12,-121.75 137.12,-152.25"/>
<text text-anchor="start" x="13.62" y="-138.75" font-family="Helvetica,sans-Serif" font-size="10.00">mlir::OpConversionPattern</text>
<text text-anchor="middle" x="71.38" y="-127.5" font-family="Helvetica,sans-Serif" font-size="10.00">&lt; zirgen::Zhl::SuperOp &gt;</text>
</a>
</g>
</g>
<!-- Node3&#45;&gt;Node2 -->
<g id="edge2_Node000002_Node000003" class="edge">
<title>Node3&#45;&gt;Node2</title>
<g id="a_edge2_Node000002_Node000003"><a xlink:title=" ">
<path fill="none" stroke="#63b8ff" d="M71.38,-110.06C71.38,-101.89 71.38,-93.16 71.38,-86.08"/>
<polygon fill="#63b8ff" stroke="#63b8ff" points="67.88,-109.85 71.38,-119.85 74.88,-109.85 67.88,-109.85"/>
</a>
</g>
</g>
</g>
</svg>
