<?xml version="1.0" encoding="UTF-8" standalone="no"?>
<!DOCTYPE svg PUBLIC "-//W3C//DTD SVG 1.1//EN"
 "http://www.w3.org/Graphics/SVG/1.1/DTD/svg11.dtd">
<!-- Generated by graphviz version 12.2.1 (20241206.2353)
 -->
<!-- Title: zml::FieldDefOpGenericAdaptor&lt; RangeT &gt; Pages: 1 -->
<svg width="163pt" height="184pt"
 viewBox="0.00 0.00 162.75 183.75" xmlns="http://www.w3.org/2000/svg" xmlns:xlink="http://www.w3.org/1999/xlink">
<g id="graph0" class="graph" transform="scale(1 1) rotate(0) translate(4 179.75)">
<title>zml::FieldDefOpGenericAdaptor&lt; RangeT &gt;</title>
<!-- Node1 -->
<g id="Node000001" class="node">
<title>Node1</title>
<g id="a_Node000001"><a xlink:title=" ">
<polygon fill="#999999" stroke="#666666" points="154.75,-30.5 0,-30.5 0,0 154.75,0 154.75,-30.5"/>
<text text-anchor="start" x="8" y="-17" font-family="Helvetica,sans-Serif" font-size="10.00">zml::FieldDefOpGenericAdaptor</text>
<text text-anchor="middle" x="77.38" y="-5.75" font-family="Helvetica,sans-Serif" font-size="10.00">&lt; RangeT &gt;</text>
</a>
</g>
</g>
<!-- Node2 -->
<g id="Node000002" class="node">
<title>Node2</title>
<g id="a_Node000002"><a xlink:href="classzml_1_1detail_1_1_field_def_op_generic_adaptor_base.html" target="_top" xlink:title=" ">
<polygon fill="white" stroke="#666666" points="152.5,-98 2.25,-98 2.25,-67.5 152.5,-67.5 152.5,-98"/>
<text text-anchor="start" x="10.25" y="-84.5" font-family="Helvetica,sans-Serif" font-size="10.00">zml::detail::FieldDefOpGeneric</text>
<text text-anchor="middle" x="77.38" y="-73.25" font-family="Helvetica,sans-Serif" font-size="10.00">AdaptorBase</text>
</a>
</g>
</g>
<!-- Node2&#45;&gt;Node1 -->
<g id="edge1_Node000001_Node000002" class="edge">
<title>Node2&#45;&gt;Node1</title>
<g id="a_edge1_Node000001_Node000002"><a xlink:title=" ">
<path fill="none" stroke="#63b8ff" d="M77.38,-55.84C77.38,-47.3 77.38,-38.12 77.38,-30.75"/>
<polygon fill="#63b8ff" stroke="#63b8ff" points="73.88,-55.7 77.38,-65.7 80.88,-55.7 73.88,-55.7"/>
</a>
</g>
</g>
<!-- Node3 -->
<g id="Node000003" class="node">
<title>Node3</title>
<g id="a_Node000003"><a xlink:href="structzml_1_1detail_1_1_field_def_op_generic_adaptor_base_1_1_properties.html" target="_top" xlink:title=" ">
<polygon fill="white" stroke="#666666" points="152.5,-175.75 2.25,-175.75 2.25,-145.25 152.5,-145.25 152.5,-175.75"/>
<text text-anchor="start" x="10.25" y="-162.25" font-family="Helvetica,sans-Serif" font-size="10.00">zml::detail::FieldDefOpGeneric</text>
<text text-anchor="middle" x="77.38" y="-151" font-family="Helvetica,sans-Serif" font-size="10.00">AdaptorBase::Properties</text>
</a>
</g>
</g>
<!-- Node3&#45;&gt;Node2 -->
<g id="edge2_Node000002_Node000003" class="edge">
<title>Node3&#45;&gt;Node2</title>
<g id="a_edge2_Node000002_Node000003"><a xlink:title=" ">
<path fill="none" stroke="#9a32cd" stroke-dasharray="5,2" d="M77.38,-133.47C77.38,-121.71 77.38,-108.26 77.38,-98.31"/>
<polygon fill="#9a32cd" stroke="#9a32cd" points="73.88,-133.38 77.38,-143.38 80.88,-133.38 73.88,-133.38"/>
</a>
</g>
<text text-anchor="middle" x="100.25" y="-117.75" font-family="Helvetica,sans-Serif" font-size="10.00" fill="grey"> properties</text>
</g>
</g>
</svg>
