<?xml version="1.0" encoding="UTF-8" standalone="no"?>
<!DOCTYPE svg PUBLIC "-//W3C//DTD SVG 1.1//EN"
 "http://www.w3.org/Graphics/SVG/1.1/DTD/svg11.dtd">
<!-- Generated by graphviz version 12.2.1 (20241206.2353)
 -->
<!-- Title: zml::detail::SplitComponentOpGenericAdaptorBase Pages: 1 -->
<svg width="525pt" height="147pt"
 viewBox="0.00 0.00 524.75 147.12" xmlns="http://www.w3.org/2000/svg" xmlns:xlink="http://www.w3.org/1999/xlink">
<g id="graph0" class="graph" transform="scale(1 1) rotate(0) translate(4 143.12)">
<title>zml::detail::SplitComponentOpGenericAdaptorBase</title>
<!-- Node1 -->
<g id="Node000001" class="node">
<title>Node1</title>
<g id="a_Node000001"><a xlink:title=" ">
<polygon fill="#999999" stroke="#666666" points="136.75,-79.5 0,-79.5 0,-49 136.75,-49 136.75,-79.5"/>
<text text-anchor="start" x="8" y="-66" font-family="Helvetica,sans-Serif" font-size="10.00">zml::detail::SplitComponent</text>
<text text-anchor="middle" x="68.38" y="-54.75" font-family="Helvetica,sans-Serif" font-size="10.00">OpGenericAdaptorBase</text>
</a>
</g>
</g>
<!-- Node2 -->
<g id="Node000002" class="node">
<title>Node2</title>
<g id="a_Node000002"><a xlink:href="classzml_1_1_split_component_op_generic_adaptor.html" target="_top" xlink:title=" ">
<polygon fill="white" stroke="#666666" points="326.75,-139.12 172.75,-139.12 172.75,-97.38 326.75,-97.38 326.75,-139.12"/>
<text text-anchor="start" x="180.75" y="-125.62" font-family="Helvetica,sans-Serif" font-size="10.00">zml::SplitComponentOpGeneric</text>
<text text-anchor="start" x="180.75" y="-114.38" font-family="Helvetica,sans-Serif" font-size="10.00">Adaptor&lt;::llvm::ArrayRef</text>
<text text-anchor="middle" x="249.75" y="-103.12" font-family="Helvetica,sans-Serif" font-size="10.00">&lt;::mlir::Attribute &gt; &gt;</text>
</a>
</g>
</g>
<!-- Node1&#45;&gt;Node2 -->
<g id="edge1_Node000001_Node000002" class="edge">
<title>Node1&#45;&gt;Node2</title>
<g id="a_edge1_Node000001_Node000002"><a xlink:title=" ">
<path fill="none" stroke="#63b8ff" d="M131.87,-83.06C146.76,-87.55 162.74,-92.36 177.97,-96.94"/>
<polygon fill="#63b8ff" stroke="#63b8ff" points="133.29,-79.84 122.71,-80.31 131.27,-86.54 133.29,-79.84"/>
</a>
</g>
</g>
<!-- Node3 -->
<g id="Node000003" class="node">
<title>Node3</title>
<g id="a_Node000003"><a xlink:href="classzml_1_1_split_component_op_generic_adaptor.html" target="_top" xlink:title=" ">
<polygon fill="white" stroke="#666666" points="326.75,-79.5 172.75,-79.5 172.75,-49 326.75,-49 326.75,-79.5"/>
<text text-anchor="start" x="180.75" y="-66" font-family="Helvetica,sans-Serif" font-size="10.00">zml::SplitComponentOpGeneric</text>
<text text-anchor="middle" x="249.75" y="-54.75" font-family="Helvetica,sans-Serif" font-size="10.00">Adaptor&lt;::mlir::ValueRange &gt;</text>
</a>
</g>
</g>
<!-- Node1&#45;&gt;Node3 -->
<g id="edge2_Node000001_Node000003" class="edge">
<title>Node1&#45;&gt;Node3</title>
<g id="a_edge2_Node000001_Node000003"><a xlink:title=" ">
<path fill="none" stroke="#63b8ff" d="M148.65,-64.25C156.55,-64.25 164.56,-64.25 172.43,-64.25"/>
<polygon fill="#63b8ff" stroke="#63b8ff" points="148.7,-60.75 138.7,-64.25 148.7,-67.75 148.7,-60.75"/>
</a>
</g>
</g>
<!-- Node5 -->
<g id="Node000005" class="node">
<title>Node5</title>
<g id="a_Node000005"><a xlink:href="classzml_1_1_split_component_op_generic_adaptor.html" target="_top" xlink:title=" ">
<polygon fill="white" stroke="#666666" points="326.75,-30.5 172.75,-30.5 172.75,0 326.75,0 326.75,-30.5"/>
<text text-anchor="start" x="180.75" y="-17" font-family="Helvetica,sans-Serif" font-size="10.00">zml::SplitComponentOpGeneric</text>
<text text-anchor="middle" x="249.75" y="-5.75" font-family="Helvetica,sans-Serif" font-size="10.00">Adaptor&lt; RangeT &gt;</text>
</a>
</g>
</g>
<!-- Node1&#45;&gt;Node5 -->
<g id="edge4_Node000001_Node000005" class="edge">
<title>Node1&#45;&gt;Node5</title>
<g id="a_edge4_Node000001_Node000005"><a xlink:title=" ">
<path fill="none" stroke="#63b8ff" d="M137.71,-45.58C155.33,-40.77 174.11,-35.64 191.12,-30.99"/>
<polygon fill="#63b8ff" stroke="#63b8ff" points="136.81,-42.2 128.08,-48.21 138.65,-48.95 136.81,-42.2"/>
</a>
</g>
</g>
<!-- Node4 -->
<g id="Node000004" class="node">
<title>Node4</title>
<g id="a_Node000004"><a xlink:href="classzml_1_1_split_component_op_adaptor.html" target="_top" xlink:title=" ">
<polygon fill="white" stroke="#666666" points="516.75,-73.88 362.75,-73.88 362.75,-54.62 516.75,-54.62 516.75,-73.88"/>
<text text-anchor="middle" x="439.75" y="-60.38" font-family="Helvetica,sans-Serif" font-size="10.00">zml::SplitComponentOpAdaptor</text>
</a>
</g>
</g>
<!-- Node3&#45;&gt;Node4 -->
<g id="edge3_Node000003_Node000004" class="edge">
<title>Node3&#45;&gt;Node4</title>
<g id="a_edge3_Node000003_Node000004"><a xlink:title=" ">
<path fill="none" stroke="#63b8ff" d="M338.72,-64.25C346.61,-64.25 354.57,-64.25 362.35,-64.25"/>
<polygon fill="#63b8ff" stroke="#63b8ff" points="338.73,-60.75 328.73,-64.25 338.73,-67.75 338.73,-60.75"/>
</a>
</g>
</g>
</g>
</svg>
