<?xml version="1.0" encoding="UTF-8" standalone="no"?>
<!DOCTYPE svg PUBLIC "-//W3C//DTD SVG 1.1//EN"
 "http://www.w3.org/Graphics/SVG/1.1/DTD/svg11.dtd">
<!-- Generated by graphviz version 12.2.1 (20241206.2353)
 -->
<!-- Title: zhl::expr::TypedExprView&lt; Expr &gt; Pages: 1 -->
<svg width="449pt" height="382pt"
 viewBox="0.00 0.00 449.00 381.50" xmlns="http://www.w3.org/2000/svg" xmlns:xlink="http://www.w3.org/1999/xlink">
<g id="graph0" class="graph" transform="scale(1 1) rotate(0) translate(4 377.5)">
<title>zhl::expr::TypedExprView&lt; Expr &gt;</title>
<!-- Node1 -->
<g id="Node000001" class="node">
<title>Node1</title>
<g id="a_Node000001"><a xlink:title="An interface that coerces the underlying expression to a particular type.">
<polygon fill="#999999" stroke="#666666" points="265.25,-201.5 137.5,-201.5 137.5,-171 265.25,-171 265.25,-201.5"/>
<text text-anchor="start" x="145.5" y="-188" font-family="Helvetica,sans-Serif" font-size="10.00">zhl::expr::TypedExprView</text>
<text text-anchor="middle" x="201.38" y="-176.75" font-family="Helvetica,sans-Serif" font-size="10.00">&lt; Expr &gt;</text>
</a>
</g>
</g>
<!-- Node3 -->
<g id="Node000003" class="node">
<title>Node3</title>
<g id="a_Node000003"><a xlink:href="classzhl_1_1expr_1_1_typed_expr_adaptor.html" target="_top" xlink:title=" ">
<polygon fill="white" stroke="#666666" points="441,-373.5 301.25,-373.5 301.25,-343 441,-343 441,-373.5"/>
<text text-anchor="start" x="309.25" y="-360" font-family="Helvetica,sans-Serif" font-size="10.00">zhl::expr::TypedExprAdaptor</text>
<text text-anchor="middle" x="371.12" y="-348.75" font-family="Helvetica,sans-Serif" font-size="10.00">&lt; detail::Val &gt;</text>
</a>
</g>
</g>
<!-- Node1&#45;&gt;Node3 -->
<g id="edge2_Node000001_Node000003" class="edge">
<title>Node1&#45;&gt;Node3</title>
<g id="a_edge2_Node000001_Node000003"><a xlink:title=" ">
<path fill="none" stroke="#63b8ff" d="M213.49,-212.03C228.77,-244.61 259.23,-300.41 301.25,-333.25 305.86,-336.85 311.04,-339.97 316.43,-342.66"/>
<polygon fill="#63b8ff" stroke="#63b8ff" points="216.85,-210.96 209.52,-203.31 210.48,-213.86 216.85,-210.96"/>
</a>
</g>
</g>
<!-- Node4 -->
<g id="Node000004" class="node">
<title>Node4</title>
<g id="a_Node000004"><a xlink:href="classzhl_1_1expr_1_1_typed_expr_adaptor.html" target="_top" xlink:title=" ">
<polygon fill="white" stroke="#666666" points="441,-324.5 301.25,-324.5 301.25,-294 441,-294 441,-324.5"/>
<text text-anchor="start" x="309.25" y="-311" font-family="Helvetica,sans-Serif" font-size="10.00">zhl::expr::TypedExprAdaptor</text>
<text text-anchor="middle" x="371.12" y="-299.75" font-family="Helvetica,sans-Serif" font-size="10.00">&lt; detail::Symbol &gt;</text>
</a>
</g>
</g>
<!-- Node1&#45;&gt;Node4 -->
<g id="edge3_Node000001_Node000004" class="edge">
<title>Node1&#45;&gt;Node4</title>
<g id="a_edge3_Node000001_Node000004"><a xlink:title=" ">
<path fill="none" stroke="#63b8ff" d="M221.67,-210.67C240.08,-232.56 269.63,-264.22 301.25,-284.25 306.73,-287.72 312.76,-290.8 318.91,-293.51"/>
<polygon fill="#63b8ff" stroke="#63b8ff" points="224.51,-208.61 215.45,-203.12 219.1,-213.06 224.51,-208.61"/>
</a>
</g>
</g>
<!-- Node5 -->
<g id="Node000005" class="node">
<title>Node5</title>
<g id="a_Node000005"><a xlink:href="classzhl_1_1expr_1_1_typed_expr_adaptor.html" target="_top" xlink:title=" ">
<polygon fill="white" stroke="#666666" points="441,-275.5 301.25,-275.5 301.25,-245 441,-245 441,-275.5"/>
<text text-anchor="start" x="309.25" y="-262" font-family="Helvetica,sans-Serif" font-size="10.00">zhl::expr::TypedExprAdaptor</text>
<text text-anchor="middle" x="371.12" y="-250.75" font-family="Helvetica,sans-Serif" font-size="10.00">&lt; detail::Ctor &gt;</text>
</a>
</g>
</g>
<!-- Node1&#45;&gt;Node5 -->
<g id="edge4_Node000001_Node000005" class="edge">
<title>Node1&#45;&gt;Node5</title>
<g id="a_edge4_Node000001_Node000005"><a xlink:title=" ">
<path fill="none" stroke="#63b8ff" d="M241.9,-207.1C259.8,-216.22 281.37,-226.75 301.25,-235.25 308.74,-238.45 316.78,-241.61 324.64,-244.56"/>
<polygon fill="#63b8ff" stroke="#63b8ff" points="243.66,-204.07 233.17,-202.62 240.46,-210.3 243.66,-204.07"/>
</a>
</g>
</g>
<!-- Node6 -->
<g id="Node000006" class="node">
<title>Node6</title>
<g id="a_Node000006"><a xlink:href="classzhl_1_1expr_1_1_typed_expr_view_adaptor.html" target="_top" xlink:title=" ">
<polygon fill="white" stroke="#666666" points="435,-226.5 307.25,-226.5 307.25,-196 435,-196 435,-226.5"/>
<text text-anchor="start" x="315.25" y="-213" font-family="Helvetica,sans-Serif" font-size="10.00">zhl::expr::TypedExprView</text>
<text text-anchor="middle" x="371.12" y="-201.75" font-family="Helvetica,sans-Serif" font-size="10.00">Adaptor&lt; detail::Val &gt;</text>
</a>
</g>
</g>
<!-- Node1&#45;&gt;Node6 -->
<g id="edge5_Node000001_Node000006" class="edge">
<title>Node1&#45;&gt;Node6</title>
<g id="a_edge5_Node000001_Node000006"><a xlink:title=" ">
<path fill="none" stroke="#63b8ff" d="M276.59,-197.31C286.68,-198.81 296.96,-200.35 306.83,-201.82"/>
<polygon fill="#63b8ff" stroke="#63b8ff" points="277.22,-193.87 266.81,-195.85 276.19,-200.79 277.22,-193.87"/>
</a>
</g>
</g>
<!-- Node7 -->
<g id="Node000007" class="node">
<title>Node7</title>
<g id="a_Node000007"><a xlink:href="classzhl_1_1expr_1_1_typed_expr_view_adaptor.html" target="_top" xlink:title=" ">
<polygon fill="white" stroke="#666666" points="436.12,-177.5 306.12,-177.5 306.12,-147 436.12,-147 436.12,-177.5"/>
<text text-anchor="start" x="314.12" y="-164" font-family="Helvetica,sans-Serif" font-size="10.00">zhl::expr::TypedExprView</text>
<text text-anchor="middle" x="371.12" y="-152.75" font-family="Helvetica,sans-Serif" font-size="10.00">Adaptor&lt; detail::Symbol &gt;</text>
</a>
</g>
</g>
<!-- Node1&#45;&gt;Node7 -->
<g id="edge6_Node000001_Node000007" class="edge">
<title>Node1&#45;&gt;Node7</title>
<g id="a_edge6_Node000001_Node000007"><a xlink:title=" ">
<path fill="none" stroke="#63b8ff" d="M276.6,-175.63C286.3,-174.24 296.19,-172.83 305.71,-171.47"/>
<polygon fill="#63b8ff" stroke="#63b8ff" points="276.22,-172.15 266.81,-177.03 277.21,-179.08 276.22,-172.15"/>
</a>
</g>
</g>
<!-- Node8 -->
<g id="Node000008" class="node">
<title>Node8</title>
<g id="a_Node000008"><a xlink:href="classzhl_1_1expr_1_1_typed_expr_view_adaptor.html" target="_top" xlink:title=" ">
<polygon fill="white" stroke="#666666" points="435,-128.5 307.25,-128.5 307.25,-98 435,-98 435,-128.5"/>
<text text-anchor="start" x="315.25" y="-115" font-family="Helvetica,sans-Serif" font-size="10.00">zhl::expr::TypedExprView</text>
<text text-anchor="middle" x="371.12" y="-103.75" font-family="Helvetica,sans-Serif" font-size="10.00">Adaptor&lt; detail::Ctor &gt;</text>
</a>
</g>
</g>
<!-- Node1&#45;&gt;Node8 -->
<g id="edge7_Node000001_Node000008" class="edge">
<title>Node1&#45;&gt;Node8</title>
<g id="a_edge7_Node000001_Node000008"><a xlink:title=" ">
<path fill="none" stroke="#63b8ff" d="M242.74,-165.48C260.49,-156.65 281.71,-146.51 301.25,-138.25 308.75,-135.08 316.8,-131.93 324.67,-128.99"/>
<polygon fill="#63b8ff" stroke="#63b8ff" points="241.45,-162.21 234.08,-169.82 244.59,-168.47 241.45,-162.21"/>
</a>
</g>
</g>
<!-- Node9 -->
<g id="Node000009" class="node">
<title>Node9</title>
<g id="a_Node000009"><a xlink:href="classzhl_1_1expr_1_1_typed_expr_adaptor.html" target="_top" xlink:title="CRTP base class for expression adaptors that implements the common logic between them.">
<polygon fill="white" stroke="#666666" points="441,-79.5 301.25,-79.5 301.25,-49 441,-49 441,-79.5"/>
<text text-anchor="start" x="309.25" y="-66" font-family="Helvetica,sans-Serif" font-size="10.00">zhl::expr::TypedExprAdaptor</text>
<text text-anchor="middle" x="371.12" y="-54.75" font-family="Helvetica,sans-Serif" font-size="10.00">&lt; Expr &gt;</text>
</a>
</g>
</g>
<!-- Node1&#45;&gt;Node9 -->
<g id="edge8_Node000001_Node000009" class="edge">
<title>Node1&#45;&gt;Node9</title>
<g id="a_edge8_Node000001_Node000009"><a xlink:title=" ">
<path fill="none" stroke="#63b8ff" d="M221.72,-162.09C240.16,-140.43 269.74,-109.1 301.25,-89.25 306.85,-85.73 313.01,-82.6 319.28,-79.86"/>
<polygon fill="#63b8ff" stroke="#63b8ff" points="219.21,-159.64 215.49,-169.56 224.58,-164.12 219.21,-159.64"/>
</a>
</g>
</g>
<!-- Node10 -->
<g id="Node000010" class="node">
<title>Node10</title>
<g id="a_Node000010"><a xlink:href="classzhl_1_1expr_1_1_typed_expr_view_adaptor.html" target="_top" xlink:title="A typed wrapper around a view that does not manage the lifetime of the view.">
<polygon fill="white" stroke="#666666" points="435,-30.5 307.25,-30.5 307.25,0 435,0 435,-30.5"/>
<text text-anchor="start" x="315.25" y="-17" font-family="Helvetica,sans-Serif" font-size="10.00">zhl::expr::TypedExprView</text>
<text text-anchor="middle" x="371.12" y="-5.75" font-family="Helvetica,sans-Serif" font-size="10.00">Adaptor&lt; Expr &gt;</text>
</a>
</g>
</g>
<!-- Node1&#45;&gt;Node10 -->
<g id="edge9_Node000001_Node000010" class="edge">
<title>Node1&#45;&gt;Node10</title>
<g id="a_edge9_Node000001_Node000010"><a xlink:title=" ">
<path fill="none" stroke="#63b8ff" d="M213.74,-160.22C229.13,-127.8 259.56,-72.73 301.25,-40.25 305.87,-36.65 311.05,-33.54 316.44,-30.86"/>
<polygon fill="#63b8ff" stroke="#63b8ff" points="210.56,-158.75 209.56,-169.3 216.92,-161.68 210.56,-158.75"/>
</a>
</g>
</g>
<!-- Node2 -->
<g id="Node000002" class="node">
<title>Node2</title>
<g id="a_Node000002"><a xlink:href="classzhl_1_1expr_1_1_expr_view.html" target="_top" xlink:title="Pure virtual class that exposes the common API of expressions around a safe wrapper that handles when...">
<polygon fill="white" stroke="#666666" points="101.5,-195.88 0,-195.88 0,-176.62 101.5,-176.62 101.5,-195.88"/>
<text text-anchor="middle" x="50.75" y="-182.38" font-family="Helvetica,sans-Serif" font-size="10.00">zhl::expr::ExprView</text>
</a>
</g>
</g>
<!-- Node2&#45;&gt;Node1 -->
<g id="edge1_Node000001_Node000002" class="edge">
<title>Node2&#45;&gt;Node1</title>
<g id="a_edge1_Node000001_Node000002"><a xlink:title=" ">
<path fill="none" stroke="#63b8ff" d="M113.09,-186.25C121.03,-186.25 129.17,-186.25 137.14,-186.25"/>
<polygon fill="#63b8ff" stroke="#63b8ff" points="113.17,-182.75 103.17,-186.25 113.17,-189.75 113.17,-182.75"/>
</a>
</g>
</g>
</g>
</svg>
