<?xml version="1.0" encoding="UTF-8" standalone="no"?>
<!DOCTYPE svg PUBLIC "-//W3C//DTD SVG 1.1//EN"
 "http://www.w3.org/Graphics/SVG/1.1/DTD/svg11.dtd">
<!-- Generated by graphviz version 12.2.1 (20241206.2353)
 -->
<!-- Title: zml::detail::MulOpGenericAdaptorBase Pages: 1 -->
<svg width="443pt" height="147pt"
 viewBox="0.00 0.00 443.00 147.12" xmlns="http://www.w3.org/2000/svg" xmlns:xlink="http://www.w3.org/1999/xlink">
<g id="graph0" class="graph" transform="scale(1 1) rotate(0) translate(4 143.12)">
<title>zml::detail::MulOpGenericAdaptorBase</title>
<!-- Node1 -->
<g id="Node000001" class="node">
<title>Node1</title>
<g id="a_Node000001"><a xlink:title=" ">
<polygon fill="#999999" stroke="#666666" points="129.25,-79.5 0,-79.5 0,-49 129.25,-49 129.25,-79.5"/>
<text text-anchor="start" x="8" y="-66" font-family="Helvetica,sans-Serif" font-size="10.00">zml::detail::MulOpGeneric</text>
<text text-anchor="middle" x="64.62" y="-54.75" font-family="Helvetica,sans-Serif" font-size="10.00">AdaptorBase</text>
</a>
</g>
</g>
<!-- Node2 -->
<g id="Node000002" class="node">
<title>Node2</title>
<g id="a_Node000002"><a xlink:href="classzml_1_1_mul_op_generic_adaptor.html" target="_top" xlink:title=" ">
<polygon fill="white" stroke="#666666" points="299,-139.12 165.25,-139.12 165.25,-97.38 299,-97.38 299,-139.12"/>
<text text-anchor="start" x="173.25" y="-125.62" font-family="Helvetica,sans-Serif" font-size="10.00">zml::MulOpGenericAdaptor</text>
<text text-anchor="start" x="173.25" y="-114.38" font-family="Helvetica,sans-Serif" font-size="10.00">&lt;::llvm::ArrayRef&lt;::mlir</text>
<text text-anchor="middle" x="232.12" y="-103.12" font-family="Helvetica,sans-Serif" font-size="10.00">::Attribute &gt; &gt;</text>
</a>
</g>
</g>
<!-- Node1&#45;&gt;Node2 -->
<g id="edge1_Node000001_Node000002" class="edge">
<title>Node1&#45;&gt;Node2</title>
<g id="a_edge1_Node000001_Node000002"><a xlink:title=" ">
<path fill="none" stroke="#63b8ff" d="M124.09,-83.33C137.59,-87.73 152.04,-92.45 165.82,-96.94"/>
<polygon fill="#63b8ff" stroke="#63b8ff" points="125.53,-80.11 114.93,-80.34 123.35,-86.77 125.53,-80.11"/>
</a>
</g>
</g>
<!-- Node3 -->
<g id="Node000003" class="node">
<title>Node3</title>
<g id="a_Node000003"><a xlink:href="classzml_1_1_mul_op_generic_adaptor.html" target="_top" xlink:title=" ">
<polygon fill="white" stroke="#666666" points="299,-79.5 165.25,-79.5 165.25,-49 299,-49 299,-79.5"/>
<text text-anchor="start" x="173.25" y="-66" font-family="Helvetica,sans-Serif" font-size="10.00">zml::MulOpGenericAdaptor</text>
<text text-anchor="middle" x="232.12" y="-54.75" font-family="Helvetica,sans-Serif" font-size="10.00">&lt;::mlir::ValueRange &gt;</text>
</a>
</g>
</g>
<!-- Node1&#45;&gt;Node3 -->
<g id="edge2_Node000001_Node000003" class="edge">
<title>Node1&#45;&gt;Node3</title>
<g id="a_edge2_Node000001_Node000003"><a xlink:title=" ">
<path fill="none" stroke="#63b8ff" d="M141.12,-64.25C149.03,-64.25 157.04,-64.25 164.85,-64.25"/>
<polygon fill="#63b8ff" stroke="#63b8ff" points="141.13,-60.75 131.13,-64.25 141.13,-67.75 141.13,-60.75"/>
</a>
</g>
</g>
<!-- Node5 -->
<g id="Node000005" class="node">
<title>Node5</title>
<g id="a_Node000005"><a xlink:href="classzml_1_1_mul_op_generic_adaptor.html" target="_top" xlink:title=" ">
<polygon fill="white" stroke="#666666" points="299,-30.5 165.25,-30.5 165.25,0 299,0 299,-30.5"/>
<text text-anchor="start" x="173.25" y="-17" font-family="Helvetica,sans-Serif" font-size="10.00">zml::MulOpGenericAdaptor</text>
<text text-anchor="middle" x="232.12" y="-5.75" font-family="Helvetica,sans-Serif" font-size="10.00">&lt; RangeT &gt;</text>
</a>
</g>
</g>
<!-- Node1&#45;&gt;Node5 -->
<g id="edge4_Node000001_Node000005" class="edge">
<title>Node1&#45;&gt;Node5</title>
<g id="a_edge4_Node000001_Node000005"><a xlink:title=" ">
<path fill="none" stroke="#63b8ff" d="M129.37,-45.38C145.42,-40.63 162.48,-35.57 177.95,-30.99"/>
<polygon fill="#63b8ff" stroke="#63b8ff" points="128.49,-41.99 119.9,-48.18 130.48,-48.7 128.49,-41.99"/>
</a>
</g>
</g>
<!-- Node4 -->
<g id="Node000004" class="node">
<title>Node4</title>
<g id="a_Node000004"><a xlink:href="classzml_1_1_mul_op_adaptor.html" target="_top" xlink:title=" ">
<polygon fill="white" stroke="#666666" points="435,-73.88 335,-73.88 335,-54.62 435,-54.62 435,-73.88"/>
<text text-anchor="middle" x="385" y="-60.38" font-family="Helvetica,sans-Serif" font-size="10.00">zml::MulOpAdaptor</text>
</a>
</g>
</g>
<!-- Node3&#45;&gt;Node4 -->
<g id="edge3_Node000003_Node000004" class="edge">
<title>Node3&#45;&gt;Node4</title>
<g id="a_edge3_Node000003_Node000004"><a xlink:title=" ">
<path fill="none" stroke="#63b8ff" d="M310.77,-64.25C318.89,-64.25 326.98,-64.25 334.66,-64.25"/>
<polygon fill="#63b8ff" stroke="#63b8ff" points="310.81,-60.75 300.81,-64.25 310.81,-67.75 310.81,-60.75"/>
</a>
</g>
</g>
</g>
</svg>
