<?xml version="1.0" encoding="UTF-8" standalone="no"?>
<!DOCTYPE svg PUBLIC "-//W3C//DTD SVG 1.1//EN"
 "http://www.w3.org/Graphics/SVG/1.1/DTD/svg11.dtd">
<!-- Generated by graphviz version 12.2.1 (20241206.2353)
 -->
<!-- Title: zhl::ComponentScope Pages: 1 -->
<svg width="200pt" height="83pt"
 viewBox="0.00 0.00 200.25 82.50" xmlns="http://www.w3.org/2000/svg" xmlns:xlink="http://www.w3.org/1999/xlink">
<g id="graph0" class="graph" transform="scale(1 1) rotate(0) translate(4 78.5)">
<title>zhl::ComponentScope</title>
<!-- Node1 -->
<g id="Node000001" class="node">
<title>Node1</title>
<g id="a_Node000001"><a xlink:title=" ">
<polygon fill="#999999" stroke="#666666" points="139.62,-19.25 26.88,-19.25 26.88,0 139.62,0 139.62,-19.25"/>
<text text-anchor="middle" x="83.25" y="-5.75" font-family="Helvetica,sans-Serif" font-size="10.00">zhl::ComponentScope</text>
</a>
</g>
</g>
<!-- Node2 -->
<g id="Node000002" class="node">
<title>Node2</title>
<g id="a_Node000002"><a xlink:href="classzhl_1_1_scope.html" target="_top" xlink:title=" ">
<polygon fill="white" stroke="#666666" points="62.5,-74.5 0,-74.5 0,-55.25 62.5,-55.25 62.5,-74.5"/>
<text text-anchor="middle" x="31.25" y="-61" font-family="Helvetica,sans-Serif" font-size="10.00">zhl::Scope</text>
</a>
</g>
</g>
<!-- Node2&#45;&gt;Node1 -->
<g id="edge1_Node000001_Node000002" class="edge">
<title>Node2&#45;&gt;Node1</title>
<g id="a_edge1_Node000001_Node000002"><a xlink:title=" ">
<path fill="none" stroke="#63b8ff" d="M47.66,-47.07C56.54,-37.98 67.16,-27.1 74.48,-19.61"/>
<polygon fill="#63b8ff" stroke="#63b8ff" points="45.38,-44.4 40.89,-54 50.38,-49.29 45.38,-44.4"/>
</a>
</g>
</g>
<!-- Node3 -->
<g id="Node000003" class="node">
<title>Node3</title>
<g id="a_Node000003"><a xlink:href="classzhl_1_1_lexical_scope_impl.html" target="_top" xlink:title="Mixin that implements the logic for defining members.">
<polygon fill="white" stroke="#666666" points="192.25,-74.5 80.25,-74.5 80.25,-55.25 192.25,-55.25 192.25,-74.5"/>
<text text-anchor="middle" x="136.25" y="-61" font-family="Helvetica,sans-Serif" font-size="10.00">zhl::LexicalScopeImpl</text>
</a>
</g>
</g>
<!-- Node3&#45;&gt;Node1 -->
<g id="edge2_Node000001_Node000003" class="edge">
<title>Node3&#45;&gt;Node1</title>
<g id="a_edge2_Node000001_Node000003"><a xlink:title=" ">
<path fill="none" stroke="#8b1a1a" d="M119.53,-47.07C110.47,-37.98 99.65,-27.1 92.19,-19.61"/>
<polygon fill="#8b1a1a" stroke="#8b1a1a" points="116.9,-49.39 126.43,-54.01 121.86,-44.45 116.9,-49.39"/>
</a>
</g>
</g>
</g>
</svg>
