<?xml version="1.0" encoding="UTF-8" standalone="no"?>
<!DOCTYPE svg PUBLIC "-//W3C//DTD SVG 1.1//EN"
 "http://www.w3.org/Graphics/SVG/1.1/DTD/svg11.dtd">
<!-- Generated by graphviz version 12.2.1 (20241206.2353)
 -->
<!-- Title: zhl::BlockScope Pages: 1 -->
<svg width="224pt" height="138pt"
 viewBox="0.00 0.00 223.50 137.75" xmlns="http://www.w3.org/2000/svg" xmlns:xlink="http://www.w3.org/1999/xlink">
<g id="graph0" class="graph" transform="scale(1 1) rotate(0) translate(4 133.75)">
<title>zhl::BlockScope</title>
<!-- Node1 -->
<g id="Node000001" class="node">
<title>Node1</title>
<g id="a_Node000001"><a xlink:title="Enters a new lexical scope where members can also be defined.">
<polygon fill="#999999" stroke="#666666" points="144.12,-19.25 56.88,-19.25 56.88,0 144.12,0 144.12,-19.25"/>
<text text-anchor="middle" x="100.5" y="-5.75" font-family="Helvetica,sans-Serif" font-size="10.00">zhl::BlockScope</text>
</a>
</g>
</g>
<!-- Node2 -->
<g id="Node000002" class="node">
<title>Node2</title>
<g id="a_Node000002"><a xlink:href="classzhl_1_1_child_scope.html" target="_top" xlink:title="A scope that exists inside another.">
<polygon fill="white" stroke="#666666" points="85,-74.5 0,-74.5 0,-55.25 85,-55.25 85,-74.5"/>
<text text-anchor="middle" x="42.5" y="-61" font-family="Helvetica,sans-Serif" font-size="10.00">zhl::ChildScope</text>
</a>
</g>
</g>
<!-- Node2&#45;&gt;Node1 -->
<g id="edge1_Node000001_Node000002" class="edge">
<title>Node2&#45;&gt;Node1</title>
<g id="a_edge1_Node000001_Node000002"><a xlink:title=" ">
<path fill="none" stroke="#63b8ff" d="M60.76,-47.11C70.72,-37.97 82.64,-27.03 90.81,-19.52"/>
<polygon fill="#63b8ff" stroke="#63b8ff" points="58.45,-44.48 53.45,-53.82 63.19,-49.63 58.45,-44.48"/>
</a>
</g>
</g>
<!-- Node3 -->
<g id="Node000003" class="node">
<title>Node3</title>
<g id="a_Node000003"><a xlink:href="classzhl_1_1_scope.html" target="_top" xlink:title=" ">
<polygon fill="white" stroke="#666666" points="73.75,-129.75 11.25,-129.75 11.25,-110.5 73.75,-110.5 73.75,-129.75"/>
<text text-anchor="middle" x="42.5" y="-116.25" font-family="Helvetica,sans-Serif" font-size="10.00">zhl::Scope</text>
</a>
</g>
</g>
<!-- Node3&#45;&gt;Node2 -->
<g id="edge2_Node000002_Node000003" class="edge">
<title>Node3&#45;&gt;Node2</title>
<g id="a_edge2_Node000002_Node000003"><a xlink:title=" ">
<path fill="none" stroke="#63b8ff" d="M42.5,-98.88C42.5,-90.59 42.5,-81.42 42.5,-74.86"/>
<polygon fill="#63b8ff" stroke="#63b8ff" points="39,-98.82 42.5,-108.82 46,-98.82 39,-98.82"/>
</a>
</g>
</g>
<!-- Node4 -->
<g id="Node000004" class="node">
<title>Node4</title>
<g id="a_Node000004"><a xlink:href="classzhl_1_1_lexical_scope_impl.html" target="_top" xlink:title="Mixin that implements the logic for defining members.">
<polygon fill="white" stroke="#666666" points="215.5,-74.5 103.5,-74.5 103.5,-55.25 215.5,-55.25 215.5,-74.5"/>
<text text-anchor="middle" x="159.5" y="-61" font-family="Helvetica,sans-Serif" font-size="10.00">zhl::LexicalScopeImpl</text>
</a>
</g>
</g>
<!-- Node4&#45;&gt;Node1 -->
<g id="edge3_Node000001_Node000004" class="edge">
<title>Node4&#45;&gt;Node1</title>
<g id="a_edge3_Node000001_Node000004"><a xlink:title=" ">
<path fill="none" stroke="#8b1a1a" d="M141.23,-47.39C131.04,-38.19 118.76,-27.1 110.36,-19.52"/>
<polygon fill="#8b1a1a" stroke="#8b1a1a" points="138.6,-49.73 148.37,-53.83 143.29,-44.53 138.6,-49.73"/>
</a>
</g>
</g>
</g>
</svg>
