<?xml version="1.0" encoding="UTF-8" standalone="no"?>
<!DOCTYPE svg PUBLIC "-//W3C//DTD SVG 1.1//EN"
 "http://www.w3.org/Graphics/SVG/1.1/DTD/svg11.dtd">
<!-- Generated by graphviz version 12.2.1 (20241206.2353)
 -->
<!-- Title: zhl::expr::TypedExprAdaptor&lt; Expr &gt; Pages: 1 -->
<svg width="260pt" height="173pt"
 viewBox="0.00 0.00 259.88 172.50" xmlns="http://www.w3.org/2000/svg" xmlns:xlink="http://www.w3.org/1999/xlink">
<g id="graph0" class="graph" transform="scale(1 1) rotate(0) translate(4 168.5)">
<title>zhl::expr::TypedExprAdaptor&lt; Expr &gt;</title>
<!-- Node1 -->
<g id="Node000001" class="node">
<title>Node1</title>
<g id="a_Node000001"><a xlink:title="CRTP base class for expression adaptors that implements the common logic between them.">
<polygon fill="#999999" stroke="#666666" points="200.75,-30.5 61,-30.5 61,0 200.75,0 200.75,-30.5"/>
<text text-anchor="start" x="69" y="-17" font-family="Helvetica,sans-Serif" font-size="10.00">zhl::expr::TypedExprAdaptor</text>
<text text-anchor="middle" x="130.88" y="-5.75" font-family="Helvetica,sans-Serif" font-size="10.00">&lt; Expr &gt;</text>
</a>
</g>
</g>
<!-- Node2 -->
<g id="Node000002" class="node">
<title>Node2</title>
<g id="a_Node000002"><a xlink:href="classzhl_1_1expr_1_1_typed_expr_view.html" target="_top" xlink:title="An interface that coerces the underlying expression to a particular type.">
<polygon fill="white" stroke="#666666" points="127.75,-108.25 0,-108.25 0,-77.75 127.75,-77.75 127.75,-108.25"/>
<text text-anchor="start" x="8" y="-94.75" font-family="Helvetica,sans-Serif" font-size="10.00">zhl::expr::TypedExprView</text>
<text text-anchor="middle" x="63.88" y="-83.5" font-family="Helvetica,sans-Serif" font-size="10.00">&lt; Expr &gt;</text>
</a>
</g>
</g>
<!-- Node2&#45;&gt;Node1 -->
<g id="edge1_Node000001_Node000002" class="edge">
<title>Node2&#45;&gt;Node1</title>
<g id="a_edge1_Node000001_Node000002"><a xlink:title=" ">
<path fill="none" stroke="#63b8ff" d="M84.3,-68.9C95.27,-56.5 108.46,-41.59 118,-30.81"/>
<polygon fill="#63b8ff" stroke="#63b8ff" points="81.8,-66.45 77.8,-76.26 87.04,-71.09 81.8,-66.45"/>
</a>
</g>
</g>
<!-- Node3 -->
<g id="Node000003" class="node">
<title>Node3</title>
<g id="a_Node000003"><a xlink:href="classzhl_1_1expr_1_1_expr_view.html" target="_top" xlink:title="Pure virtual class that exposes the common API of expressions around a safe wrapper that handles when...">
<polygon fill="white" stroke="#666666" points="181.62,-164.5 80.12,-164.5 80.12,-145.25 181.62,-145.25 181.62,-164.5"/>
<text text-anchor="middle" x="130.88" y="-151" font-family="Helvetica,sans-Serif" font-size="10.00">zhl::expr::ExprView</text>
</a>
</g>
</g>
<!-- Node3&#45;&gt;Node2 -->
<g id="edge2_Node000002_Node000003" class="edge">
<title>Node3&#45;&gt;Node2</title>
<g id="a_edge2_Node000002_Node000003"><a xlink:title=" ">
<path fill="none" stroke="#63b8ff" d="M112.22,-137.2C102.15,-128.2 89.83,-117.2 80.15,-108.55"/>
<polygon fill="#63b8ff" stroke="#63b8ff" points="109.78,-139.72 119.57,-143.77 114.45,-134.5 109.78,-139.72"/>
</a>
</g>
</g>
<!-- Node4 -->
<g id="Node000004" class="node">
<title>Node4</title>
<g id="a_Node000004"><a xlink:href="classzhl_1_1expr_1_1_const_expr.html" target="_top" xlink:title="Smart pointer around an expression.">
<polygon fill="white" stroke="#666666" points="251.88,-102.62 145.88,-102.62 145.88,-83.38 251.88,-83.38 251.88,-102.62"/>
<text text-anchor="middle" x="198.88" y="-89.12" font-family="Helvetica,sans-Serif" font-size="10.00">zhl::expr::ConstExpr</text>
</a>
</g>
</g>
<!-- Node3&#45;&gt;Node4 -->
<g id="edge4_Node000004_Node000003" class="edge">
<title>Node3&#45;&gt;Node4</title>
<g id="a_edge4_Node000004_Node000003"><a xlink:title=" ">
<path fill="none" stroke="#63b8ff" d="M149.68,-137.32C162.37,-126.14 178.62,-111.83 188.89,-102.79"/>
<polygon fill="#63b8ff" stroke="#63b8ff" points="147.53,-134.55 142.34,-143.78 152.16,-139.8 147.53,-134.55"/>
</a>
</g>
</g>
<!-- Node4&#45;&gt;Node1 -->
<g id="edge3_Node000001_Node000004" class="edge">
<title>Node4&#45;&gt;Node1</title>
<g id="a_edge3_Node000001_Node000004"><a xlink:title=" ">
<path fill="none" stroke="#9a32cd" stroke-dasharray="5,2" d="M183.4,-74.76C171.53,-61.53 155.32,-43.48 144.06,-30.94"/>
<polygon fill="#9a32cd" stroke="#9a32cd" points="180.51,-76.78 189.8,-81.89 185.72,-72.11 180.51,-76.78"/>
</a>
</g>
<text text-anchor="middle" x="179.82" y="-50.25" font-family="Helvetica,sans-Serif" font-size="10.00" fill="grey"> expr</text>
</g>
</g>
</svg>
