<?xml version="1.0" encoding="UTF-8" standalone="no"?>
<!DOCTYPE svg PUBLIC "-//W3C//DTD SVG 1.1//EN"
 "http://www.w3.org/Graphics/SVG/1.1/DTD/svg11.dtd">
<!-- Generated by graphviz version 12.2.1 (20241206.2353)
 -->
<!-- Title: zml::ZhlSpecializeRemoval Pages: 1 -->
<svg width="280pt" height="173pt"
 viewBox="0.00 0.00 279.62 172.50" xmlns="http://www.w3.org/2000/svg" xmlns:xlink="http://www.w3.org/1999/xlink">
<g id="graph0" class="graph" transform="scale(1 1) rotate(0) translate(4 168.5)">
<title>zml::ZhlSpecializeRemoval</title>
<!-- Node1 -->
<g id="Node000001" class="node">
<title>Node1</title>
<g id="a_Node000001"><a xlink:title="Remove zhl.specialize ops.">
<polygon fill="#999999" stroke="#666666" points="211.38,-19.25 76.12,-19.25 76.12,0 211.38,0 211.38,-19.25"/>
<text text-anchor="middle" x="143.75" y="-5.75" font-family="Helvetica,sans-Serif" font-size="10.00">zml::ZhlSpecializeRemoval</text>
</a>
</g>
</g>
<!-- Node2 -->
<g id="Node000002" class="node">
<title>Node2</title>
<g id="a_Node000002"><a xlink:href="classzml_1_1_zhl_op_lowering_pattern.html" target="_top" xlink:title=" ">
<polygon fill="white" stroke="#666666" points="215.5,-86.75 72,-86.75 72,-56.25 215.5,-56.25 215.5,-86.75"/>
<text text-anchor="start" x="80" y="-73.25" font-family="Helvetica,sans-Serif" font-size="10.00">zml::ZhlOpLoweringPattern</text>
<text text-anchor="middle" x="143.75" y="-62" font-family="Helvetica,sans-Serif" font-size="10.00">&lt; zirgen::Zhl::SpecializeOp &gt;</text>
</a>
</g>
</g>
<!-- Node2&#45;&gt;Node1 -->
<g id="edge1_Node000001_Node000002" class="edge">
<title>Node2&#45;&gt;Node1</title>
<g id="a_edge1_Node000001_Node000002"><a xlink:title=" ">
<path fill="none" stroke="#63b8ff" d="M143.75,-44.77C143.75,-35.79 143.75,-26.29 143.75,-19.6"/>
<polygon fill="#63b8ff" stroke="#63b8ff" points="140.25,-44.49 143.75,-54.49 147.25,-44.49 140.25,-44.49"/>
</a>
</g>
</g>
<!-- Node3 -->
<g id="Node000003" class="node">
<title>Node3</title>
<g id="a_Node000003"><a xlink:title=" ">
<polygon fill="white" stroke="#666666" points="143.5,-164.5 0,-164.5 0,-134 143.5,-134 143.5,-164.5"/>
<text text-anchor="start" x="8" y="-151" font-family="Helvetica,sans-Serif" font-size="10.00">mlir::OpConversionPattern</text>
<text text-anchor="middle" x="71.75" y="-139.75" font-family="Helvetica,sans-Serif" font-size="10.00">&lt; zirgen::Zhl::SpecializeOp &gt;</text>
</a>
</g>
</g>
<!-- Node3&#45;&gt;Node2 -->
<g id="edge2_Node000002_Node000003" class="edge">
<title>Node3&#45;&gt;Node2</title>
<g id="a_edge2_Node000002_Node000003"><a xlink:title=" ">
<path fill="none" stroke="#63b8ff" d="M93.36,-125.51C105.22,-113.04 119.56,-97.95 129.91,-87.06"/>
<polygon fill="#63b8ff" stroke="#63b8ff" points="91.03,-122.89 86.68,-132.55 96.1,-127.71 91.03,-122.89"/>
</a>
</g>
</g>
<!-- Node4 -->
<g id="Node000004" class="node">
<title>Node4</title>
<g id="a_Node000004"><a xlink:href="classzhl_1_1_z_i_r_type_analysis.html" target="_top" xlink:title=" ">
<polygon fill="white" stroke="#666666" points="271.62,-158.88 161.88,-158.88 161.88,-139.62 271.62,-139.62 271.62,-158.88"/>
<text text-anchor="middle" x="216.75" y="-145.38" font-family="Helvetica,sans-Serif" font-size="10.00">zhl::ZIRTypeAnalysis</text>
</a>
</g>
</g>
<!-- Node4&#45;&gt;Node2 -->
<g id="edge3_Node000002_Node000004" class="edge">
<title>Node4&#45;&gt;Node2</title>
<g id="a_edge3_Node000002_Node000004"><a xlink:title=" ">
<path fill="none" stroke="#9a32cd" stroke-dasharray="5,2" d="M200.13,-131.01C187.39,-117.78 169.99,-99.73 157.91,-87.19"/>
<polygon fill="#9a32cd" stroke="#9a32cd" points="197.58,-133.4 207.04,-138.17 202.62,-128.54 197.58,-133.4"/>
</a>
</g>
<text text-anchor="middle" x="214.25" y="-106.5" font-family="Helvetica,sans-Serif" font-size="10.00" fill="grey"> typeAnalysis</text>
</g>
</g>
</svg>
