<?xml version="1.0" encoding="UTF-8" standalone="no"?>
<!DOCTYPE svg PUBLIC "-//W3C//DTD SVG 1.1//EN"
 "http://www.w3.org/Graphics/SVG/1.1/DTD/svg11.dtd">
<!-- Generated by graphviz version 12.2.1 (20241206.2353)
 -->
<!-- Title: zml::detail::GetArrayLenOpGenericAdaptorBase Pages: 1 -->
<svg width="486pt" height="147pt"
 viewBox="0.00 0.00 485.75 147.12" xmlns="http://www.w3.org/2000/svg" xmlns:xlink="http://www.w3.org/1999/xlink">
<g id="graph0" class="graph" transform="scale(1 1) rotate(0) translate(4 143.12)">
<title>zml::detail::GetArrayLenOpGenericAdaptorBase</title>
<!-- Node1 -->
<g id="Node000001" class="node">
<title>Node1</title>
<g id="a_Node000001"><a xlink:title=" ">
<polygon fill="#999999" stroke="#666666" points="121.75,-79.5 0,-79.5 0,-49 121.75,-49 121.75,-79.5"/>
<text text-anchor="start" x="8" y="-66" font-family="Helvetica,sans-Serif" font-size="10.00">zml::detail::GetArrayLen</text>
<text text-anchor="middle" x="60.88" y="-54.75" font-family="Helvetica,sans-Serif" font-size="10.00">OpGenericAdaptorBase</text>
</a>
</g>
</g>
<!-- Node2 -->
<g id="Node000002" class="node">
<title>Node2</title>
<g id="a_Node000002"><a xlink:href="classzml_1_1_get_array_len_op_generic_adaptor.html" target="_top" xlink:title=" ">
<polygon fill="white" stroke="#666666" points="299.75,-139.12 160.75,-139.12 160.75,-97.38 299.75,-97.38 299.75,-139.12"/>
<text text-anchor="start" x="168.75" y="-125.62" font-family="Helvetica,sans-Serif" font-size="10.00">zml::GetArrayLenOpGeneric</text>
<text text-anchor="start" x="168.75" y="-114.38" font-family="Helvetica,sans-Serif" font-size="10.00">Adaptor&lt;::llvm::ArrayRef</text>
<text text-anchor="middle" x="230.25" y="-103.12" font-family="Helvetica,sans-Serif" font-size="10.00">&lt;::mlir::Attribute &gt; &gt;</text>
</a>
</g>
</g>
<!-- Node1&#45;&gt;Node2 -->
<g id="edge1_Node000001_Node000002" class="edge">
<title>Node1&#45;&gt;Node2</title>
<g id="a_edge1_Node000001_Node000002"><a xlink:title=" ">
<path fill="none" stroke="#63b8ff" d="M121,-83.33C134.66,-87.73 149.27,-92.45 163.2,-96.94"/>
<polygon fill="#63b8ff" stroke="#63b8ff" points="122.32,-80.07 111.73,-80.33 120.17,-86.74 122.32,-80.07"/>
</a>
</g>
</g>
<!-- Node3 -->
<g id="Node000003" class="node">
<title>Node3</title>
<g id="a_Node000003"><a xlink:href="classzml_1_1_get_array_len_op_generic_adaptor.html" target="_top" xlink:title=" ">
<polygon fill="white" stroke="#666666" points="302.75,-79.5 157.75,-79.5 157.75,-49 302.75,-49 302.75,-79.5"/>
<text text-anchor="start" x="165.75" y="-66" font-family="Helvetica,sans-Serif" font-size="10.00">zml::GetArrayLenOpGeneric</text>
<text text-anchor="middle" x="230.25" y="-54.75" font-family="Helvetica,sans-Serif" font-size="10.00">Adaptor&lt;::mlir::ValueRange &gt;</text>
</a>
</g>
</g>
<!-- Node1&#45;&gt;Node3 -->
<g id="edge2_Node000001_Node000003" class="edge">
<title>Node1&#45;&gt;Node3</title>
<g id="a_edge2_Node000001_Node000003"><a xlink:title=" ">
<path fill="none" stroke="#63b8ff" d="M133.09,-64.25C141.14,-64.25 149.36,-64.25 157.43,-64.25"/>
<polygon fill="#63b8ff" stroke="#63b8ff" points="133.34,-60.75 123.34,-64.25 133.34,-67.75 133.34,-60.75"/>
</a>
</g>
</g>
<!-- Node5 -->
<g id="Node000005" class="node">
<title>Node5</title>
<g id="a_Node000005"><a xlink:href="classzml_1_1_get_array_len_op_generic_adaptor.html" target="_top" xlink:title=" ">
<polygon fill="white" stroke="#666666" points="299.75,-30.5 160.75,-30.5 160.75,0 299.75,0 299.75,-30.5"/>
<text text-anchor="start" x="168.75" y="-17" font-family="Helvetica,sans-Serif" font-size="10.00">zml::GetArrayLenOpGeneric</text>
<text text-anchor="middle" x="230.25" y="-5.75" font-family="Helvetica,sans-Serif" font-size="10.00">Adaptor&lt; RangeT &gt;</text>
</a>
</g>
</g>
<!-- Node1&#45;&gt;Node5 -->
<g id="edge4_Node000001_Node000005" class="edge">
<title>Node1&#45;&gt;Node5</title>
<g id="a_edge4_Node000001_Node000005"><a xlink:title=" ">
<path fill="none" stroke="#63b8ff" d="M126.34,-45.38C142.57,-40.63 159.83,-35.57 175.48,-30.99"/>
<polygon fill="#63b8ff" stroke="#63b8ff" points="125.36,-42.02 116.75,-48.19 127.33,-48.74 125.36,-42.02"/>
</a>
</g>
</g>
<!-- Node4 -->
<g id="Node000004" class="node">
<title>Node4</title>
<g id="a_Node000004"><a xlink:href="classzml_1_1_get_array_len_op_adaptor.html" target="_top" xlink:title=" ">
<polygon fill="white" stroke="#666666" points="477.75,-73.88 338.75,-73.88 338.75,-54.62 477.75,-54.62 477.75,-73.88"/>
<text text-anchor="middle" x="408.25" y="-60.38" font-family="Helvetica,sans-Serif" font-size="10.00">zml::GetArrayLenOpAdaptor</text>
</a>
</g>
</g>
<!-- Node3&#45;&gt;Node4 -->
<g id="edge3_Node000003_Node000004" class="edge">
<title>Node3&#45;&gt;Node4</title>
<g id="a_edge3_Node000003_Node000004"><a xlink:title=" ">
<path fill="none" stroke="#63b8ff" d="M314.42,-64.25C322.47,-64.25 330.59,-64.25 338.48,-64.25"/>
<polygon fill="#63b8ff" stroke="#63b8ff" points="314.6,-60.75 304.6,-64.25 314.6,-67.75 314.6,-60.75"/>
</a>
</g>
</g>
</g>
</svg>
