<?xml version="1.0" encoding="UTF-8" standalone="no"?>
<!DOCTYPE svg PUBLIC "-//W3C//DTD SVG 1.1//EN"
 "http://www.w3.org/Graphics/SVG/1.1/DTD/svg11.dtd">
<!-- Generated by graphviz version 12.2.1 (20241206.2353)
 -->
<!-- Title: zml::WriteFieldOpGenericAdaptor&lt; RangeT &gt; Pages: 1 -->
<svg width="164pt" height="184pt"
 viewBox="0.00 0.00 164.25 183.75" xmlns="http://www.w3.org/2000/svg" xmlns:xlink="http://www.w3.org/1999/xlink">
<g id="graph0" class="graph" transform="scale(1 1) rotate(0) translate(4 179.75)">
<title>zml::WriteFieldOpGenericAdaptor&lt; RangeT &gt;</title>
<!-- Node1 -->
<g id="Node000001" class="node">
<title>Node1</title>
<g id="a_Node000001"><a xlink:title=" ">
<polygon fill="#999999" stroke="#666666" points="142,-30.5 14.25,-30.5 14.25,0 142,0 142,-30.5"/>
<text text-anchor="start" x="22.25" y="-17" font-family="Helvetica,sans-Serif" font-size="10.00">zml::WriteFieldOpGeneric</text>
<text text-anchor="middle" x="78.12" y="-5.75" font-family="Helvetica,sans-Serif" font-size="10.00">Adaptor&lt; RangeT &gt;</text>
</a>
</g>
</g>
<!-- Node2 -->
<g id="Node000002" class="node">
<title>Node2</title>
<g id="a_Node000002"><a xlink:href="classzml_1_1detail_1_1_write_field_op_generic_adaptor_base.html" target="_top" xlink:title=" ">
<polygon fill="white" stroke="#666666" points="139.75,-98 16.5,-98 16.5,-67.5 139.75,-67.5 139.75,-98"/>
<text text-anchor="start" x="24.5" y="-84.5" font-family="Helvetica,sans-Serif" font-size="10.00">zml::detail::WriteFieldOp</text>
<text text-anchor="middle" x="78.12" y="-73.25" font-family="Helvetica,sans-Serif" font-size="10.00">GenericAdaptorBase</text>
</a>
</g>
</g>
<!-- Node2&#45;&gt;Node1 -->
<g id="edge1_Node000001_Node000002" class="edge">
<title>Node2&#45;&gt;Node1</title>
<g id="a_edge1_Node000001_Node000002"><a xlink:title=" ">
<path fill="none" stroke="#63b8ff" d="M78.12,-55.84C78.12,-47.3 78.12,-38.12 78.12,-30.75"/>
<polygon fill="#63b8ff" stroke="#63b8ff" points="74.63,-55.7 78.13,-65.7 81.63,-55.7 74.63,-55.7"/>
</a>
</g>
</g>
<!-- Node3 -->
<g id="Node000003" class="node">
<title>Node3</title>
<g id="a_Node000003"><a xlink:href="structzml_1_1detail_1_1_write_field_op_generic_adaptor_base_1_1_properties.html" target="_top" xlink:title=" ">
<polygon fill="white" stroke="#666666" points="156.25,-175.75 0,-175.75 0,-145.25 156.25,-145.25 156.25,-175.75"/>
<text text-anchor="start" x="8" y="-162.25" font-family="Helvetica,sans-Serif" font-size="10.00">zml::detail::WriteFieldOp</text>
<text text-anchor="middle" x="78.12" y="-151" font-family="Helvetica,sans-Serif" font-size="10.00">GenericAdaptorBase::Properties</text>
</a>
</g>
</g>
<!-- Node3&#45;&gt;Node2 -->
<g id="edge2_Node000002_Node000003" class="edge">
<title>Node3&#45;&gt;Node2</title>
<g id="a_edge2_Node000002_Node000003"><a xlink:title=" ">
<path fill="none" stroke="#9a32cd" stroke-dasharray="5,2" d="M78.12,-133.47C78.12,-121.71 78.12,-108.26 78.12,-98.31"/>
<polygon fill="#9a32cd" stroke="#9a32cd" points="74.63,-133.38 78.13,-143.38 81.63,-133.38 74.63,-133.38"/>
</a>
</g>
<text text-anchor="middle" x="101" y="-117.75" font-family="Helvetica,sans-Serif" font-size="10.00" fill="grey"> properties</text>
</g>
</g>
</svg>
