<?xml version="1.0" encoding="UTF-8" standalone="no"?>
<!DOCTYPE svg PUBLIC "-//W3C//DTD SVG 1.1//EN"
 "http://www.w3.org/Graphics/SVG/1.1/DTD/svg11.dtd">
<!-- Generated by graphviz version 12.2.1 (20241206.2353)
 -->
<!-- Title: zml::ReadBackOpAdaptor Pages: 1 -->
<svg width="172pt" height="240pt"
 viewBox="0.00 0.00 171.75 240.00" xmlns="http://www.w3.org/2000/svg" xmlns:xlink="http://www.w3.org/1999/xlink">
<g id="graph0" class="graph" transform="scale(1 1) rotate(0) translate(4 236)">
<title>zml::ReadBackOpAdaptor</title>
<!-- Node1 -->
<g id="Node000001" class="node">
<title>Node1</title>
<g id="a_Node000001"><a xlink:title=" ">
<polygon fill="#999999" stroke="#666666" points="146.88,-19.25 16.88,-19.25 16.88,0 146.88,0 146.88,-19.25"/>
<text text-anchor="middle" x="81.88" y="-5.75" font-family="Helvetica,sans-Serif" font-size="10.00">zml::ReadBackOpAdaptor</text>
</a>
</g>
</g>
<!-- Node2 -->
<g id="Node000002" class="node">
<title>Node2</title>
<g id="a_Node000002"><a xlink:href="classzml_1_1_read_back_op_generic_adaptor.html" target="_top" xlink:title=" ">
<polygon fill="white" stroke="#666666" points="163.75,-86.75 0,-86.75 0,-56.25 163.75,-56.25 163.75,-86.75"/>
<text text-anchor="start" x="8" y="-73.25" font-family="Helvetica,sans-Serif" font-size="10.00">zml::ReadBackOpGenericAdaptor</text>
<text text-anchor="middle" x="81.88" y="-62" font-family="Helvetica,sans-Serif" font-size="10.00">&lt;::mlir::ValueRange &gt;</text>
</a>
</g>
</g>
<!-- Node2&#45;&gt;Node1 -->
<g id="edge1_Node000001_Node000002" class="edge">
<title>Node2&#45;&gt;Node1</title>
<g id="a_edge1_Node000001_Node000002"><a xlink:title=" ">
<path fill="none" stroke="#63b8ff" d="M81.88,-44.77C81.88,-35.79 81.88,-26.29 81.88,-19.6"/>
<polygon fill="#63b8ff" stroke="#63b8ff" points="78.38,-44.49 81.88,-54.49 85.38,-44.49 78.38,-44.49"/>
</a>
</g>
</g>
<!-- Node3 -->
<g id="Node000003" class="node">
<title>Node3</title>
<g id="a_Node000003"><a xlink:href="classzml_1_1detail_1_1_read_back_op_generic_adaptor_base.html" target="_top" xlink:title=" ">
<polygon fill="white" stroke="#666666" points="161.5,-154.25 2.25,-154.25 2.25,-123.75 161.5,-123.75 161.5,-154.25"/>
<text text-anchor="start" x="10.25" y="-140.75" font-family="Helvetica,sans-Serif" font-size="10.00">zml::detail::ReadBackOpGeneric</text>
<text text-anchor="middle" x="81.88" y="-129.5" font-family="Helvetica,sans-Serif" font-size="10.00">AdaptorBase</text>
</a>
</g>
</g>
<!-- Node3&#45;&gt;Node2 -->
<g id="edge2_Node000002_Node000003" class="edge">
<title>Node3&#45;&gt;Node2</title>
<g id="a_edge2_Node000002_Node000003"><a xlink:title=" ">
<path fill="none" stroke="#63b8ff" d="M81.88,-112.09C81.88,-103.55 81.88,-94.37 81.88,-87"/>
<polygon fill="#63b8ff" stroke="#63b8ff" points="78.38,-111.95 81.88,-121.95 85.38,-111.95 78.38,-111.95"/>
</a>
</g>
</g>
<!-- Node4 -->
<g id="Node000004" class="node">
<title>Node4</title>
<g id="a_Node000004"><a xlink:href="structzml_1_1detail_1_1_read_back_op_generic_adaptor_base_1_1_properties.html" target="_top" xlink:title=" ">
<polygon fill="white" stroke="#666666" points="161.5,-232 2.25,-232 2.25,-201.5 161.5,-201.5 161.5,-232"/>
<text text-anchor="start" x="10.25" y="-218.5" font-family="Helvetica,sans-Serif" font-size="10.00">zml::detail::ReadBackOpGeneric</text>
<text text-anchor="middle" x="81.88" y="-207.25" font-family="Helvetica,sans-Serif" font-size="10.00">AdaptorBase::Properties</text>
</a>
</g>
</g>
<!-- Node4&#45;&gt;Node3 -->
<g id="edge3_Node000003_Node000004" class="edge">
<title>Node4&#45;&gt;Node3</title>
<g id="a_edge3_Node000003_Node000004"><a xlink:title=" ">
<path fill="none" stroke="#9a32cd" stroke-dasharray="5,2" d="M81.88,-189.72C81.88,-177.96 81.88,-164.51 81.88,-154.56"/>
<polygon fill="#9a32cd" stroke="#9a32cd" points="78.38,-189.63 81.88,-199.63 85.38,-189.63 78.38,-189.63"/>
</a>
</g>
<text text-anchor="middle" x="104.75" y="-174" font-family="Helvetica,sans-Serif" font-size="10.00" fill="grey"> properties</text>
</g>
</g>
</svg>
