<?xml version="1.0" encoding="UTF-8" standalone="no"?>
<!DOCTYPE svg PUBLIC "-//W3C//DTD SVG 1.1//EN"
 "http://www.w3.org/Graphics/SVG/1.1/DTD/svg11.dtd">
<!-- Generated by graphviz version 12.2.1 (20241206.2353)
 -->
<!-- Title: zml::ZhlDefineLowering Pages: 1 -->
<svg width="148pt" height="160pt"
 viewBox="0.00 0.00 147.75 160.25" xmlns="http://www.w3.org/2000/svg" xmlns:xlink="http://www.w3.org/1999/xlink">
<g id="graph0" class="graph" transform="scale(1 1) rotate(0) translate(4 156.25)">
<title>zml::ZhlDefineLowering</title>
<!-- Node1 -->
<g id="Node000001" class="node">
<title>Node1</title>
<g id="a_Node000001"><a xlink:title="Lowers zhl.define ops to ZMIR component fields.">
<polygon fill="#999999" stroke="#666666" points="129.25,-19.25 10.5,-19.25 10.5,0 129.25,0 129.25,-19.25"/>
<text text-anchor="middle" x="69.88" y="-5.75" font-family="Helvetica,sans-Serif" font-size="10.00">zml::ZhlDefineLowering</text>
</a>
</g>
</g>
<!-- Node2 -->
<g id="Node000002" class="node">
<title>Node2</title>
<g id="a_Node000002"><a xlink:href="classzml_1_1_zhl_op_lowering_pattern.html" target="_top" xlink:title=" ">
<polygon fill="white" stroke="#666666" points="139.75,-85.75 0,-85.75 0,-55.25 139.75,-55.25 139.75,-85.75"/>
<text text-anchor="start" x="8" y="-72.25" font-family="Helvetica,sans-Serif" font-size="10.00">zml::ZhlOpLoweringPattern</text>
<text text-anchor="middle" x="69.88" y="-61" font-family="Helvetica,sans-Serif" font-size="10.00">&lt; zirgen::Zhl::DefinitionOp &gt;</text>
</a>
</g>
</g>
<!-- Node2&#45;&gt;Node1 -->
<g id="edge1_Node000001_Node000002" class="edge">
<title>Node2&#45;&gt;Node1</title>
<g id="a_edge1_Node000001_Node000002"><a xlink:title=" ">
<path fill="none" stroke="#63b8ff" d="M69.88,-43.48C69.88,-34.98 69.88,-26.09 69.88,-19.7"/>
<polygon fill="#63b8ff" stroke="#63b8ff" points="66.38,-43.43 69.88,-53.43 73.38,-43.43 66.38,-43.43"/>
</a>
</g>
</g>
<!-- Node3 -->
<g id="Node000003" class="node">
<title>Node3</title>
<g id="a_Node000003"><a xlink:title=" ">
<polygon fill="white" stroke="#666666" points="139.75,-152.25 0,-152.25 0,-121.75 139.75,-121.75 139.75,-152.25"/>
<text text-anchor="start" x="8" y="-138.75" font-family="Helvetica,sans-Serif" font-size="10.00">mlir::OpConversionPattern</text>
<text text-anchor="middle" x="69.88" y="-127.5" font-family="Helvetica,sans-Serif" font-size="10.00">&lt; zirgen::Zhl::DefinitionOp &gt;</text>
</a>
</g>
</g>
<!-- Node3&#45;&gt;Node2 -->
<g id="edge2_Node000002_Node000003" class="edge">
<title>Node3&#45;&gt;Node2</title>
<g id="a_edge2_Node000002_Node000003"><a xlink:title=" ">
<path fill="none" stroke="#63b8ff" d="M69.88,-110.06C69.88,-101.89 69.88,-93.16 69.88,-86.08"/>
<polygon fill="#63b8ff" stroke="#63b8ff" points="66.38,-109.85 69.88,-119.85 73.38,-109.85 66.38,-109.85"/>
</a>
</g>
</g>
</g>
</svg>
