<?xml version="1.0" encoding="UTF-8" standalone="no"?>
<!DOCTYPE svg PUBLIC "-//W3C//DTD SVG 1.1//EN"
 "http://www.w3.org/Graphics/SVG/1.1/DTD/svg11.dtd">
<!-- Generated by graphviz version 12.2.1 (20241206.2353)
 -->
<!-- Title: zml::ReadFieldOpAdaptor Pages: 1 -->
<svg width="170pt" height="160pt"
 viewBox="0.00 0.00 170.25 160.25" xmlns="http://www.w3.org/2000/svg" xmlns:xlink="http://www.w3.org/1999/xlink">
<g id="graph0" class="graph" transform="scale(1 1) rotate(0) translate(4 156.25)">
<title>zml::ReadFieldOpAdaptor</title>
<!-- Node1 -->
<g id="Node000001" class="node">
<title>Node1</title>
<g id="a_Node000001"><a xlink:title=" ">
<polygon fill="#999999" stroke="#666666" points="145.38,-19.25 16.88,-19.25 16.88,0 145.38,0 145.38,-19.25"/>
<text text-anchor="middle" x="81.12" y="-5.75" font-family="Helvetica,sans-Serif" font-size="10.00">zml::ReadFieldOpAdaptor</text>
</a>
</g>
</g>
<!-- Node2 -->
<g id="Node000002" class="node">
<title>Node2</title>
<g id="a_Node000002"><a xlink:href="classzml_1_1_read_field_op_generic_adaptor.html" target="_top" xlink:title=" ">
<polygon fill="white" stroke="#666666" points="162.25,-85.75 0,-85.75 0,-55.25 162.25,-55.25 162.25,-85.75"/>
<text text-anchor="start" x="8" y="-72.25" font-family="Helvetica,sans-Serif" font-size="10.00">zml::ReadFieldOpGenericAdaptor</text>
<text text-anchor="middle" x="81.12" y="-61" font-family="Helvetica,sans-Serif" font-size="10.00">&lt;::mlir::ValueRange &gt;</text>
</a>
</g>
</g>
<!-- Node2&#45;&gt;Node1 -->
<g id="edge1_Node000001_Node000002" class="edge">
<title>Node2&#45;&gt;Node1</title>
<g id="a_edge1_Node000001_Node000002"><a xlink:title=" ">
<path fill="none" stroke="#63b8ff" d="M81.12,-43.48C81.12,-34.98 81.12,-26.09 81.12,-19.7"/>
<polygon fill="#63b8ff" stroke="#63b8ff" points="77.63,-43.43 81.13,-53.43 84.63,-43.43 77.63,-43.43"/>
</a>
</g>
</g>
<!-- Node3 -->
<g id="Node000003" class="node">
<title>Node3</title>
<g id="a_Node000003"><a xlink:href="classzml_1_1detail_1_1_read_field_op_generic_adaptor_base.html" target="_top" xlink:title=" ">
<polygon fill="white" stroke="#666666" points="143.12,-152.25 19.12,-152.25 19.12,-121.75 143.12,-121.75 143.12,-152.25"/>
<text text-anchor="start" x="27.12" y="-138.75" font-family="Helvetica,sans-Serif" font-size="10.00">zml::detail::ReadFieldOp</text>
<text text-anchor="middle" x="81.12" y="-127.5" font-family="Helvetica,sans-Serif" font-size="10.00">GenericAdaptorBase</text>
</a>
</g>
</g>
<!-- Node3&#45;&gt;Node2 -->
<g id="edge2_Node000002_Node000003" class="edge">
<title>Node3&#45;&gt;Node2</title>
<g id="a_edge2_Node000002_Node000003"><a xlink:title=" ">
<path fill="none" stroke="#63b8ff" d="M81.12,-110.06C81.12,-101.89 81.12,-93.16 81.12,-86.08"/>
<polygon fill="#63b8ff" stroke="#63b8ff" points="77.63,-109.85 81.13,-119.85 84.63,-109.85 77.63,-109.85"/>
</a>
</g>
</g>
</g>
</svg>
