<?xml version="1.0" encoding="UTF-8" standalone="no"?>
<!DOCTYPE svg PUBLIC "-//W3C//DTD SVG 1.1//EN"
 "http://www.w3.org/Graphics/SVG/1.1/DTD/svg11.dtd">
<!-- Generated by graphviz version 12.2.1 (20241206.2353)
 -->
<!-- Title: tools/shared/config.cpp Pages: 1 -->
<svg width="842pt" height="94pt"
 viewBox="0.00 0.00 842.12 93.75" xmlns="http://www.w3.org/2000/svg" xmlns:xlink="http://www.w3.org/1999/xlink">
<g id="graph0" class="graph" transform="scale(1 1) rotate(0) translate(4 89.75)">
<title>tools/shared/config.cpp</title>
<!-- Node1 -->
<g id="Node000001" class="node">
<title>Node1</title>
<g id="a_Node000001"><a xlink:title=" ">
<polygon fill="#999999" stroke="#666666" points="485.5,-85.75 368.25,-85.75 368.25,-66.5 485.5,-66.5 485.5,-85.75"/>
<text text-anchor="middle" x="426.88" y="-72.25" font-family="Helvetica,sans-Serif" font-size="10.00">tools/shared/config.cpp</text>
</a>
</g>
</g>
<!-- Node2 -->
<g id="Node000002" class="node">
<title>Node2</title>
<g id="a_Node000002"><a xlink:title=" ">
<polygon fill="#e0e0e0" stroke="#999999" points="55.75,-24.88 0,-24.88 0,-5.63 55.75,-5.63 55.75,-24.88"/>
<text text-anchor="middle" x="27.88" y="-11.38" font-family="Helvetica,sans-Serif" font-size="10.00">version.h</text>
</a>
</g>
</g>
<!-- Node1&#45;&gt;Node2 -->
<g id="edge1_Node000001_Node000002" class="edge">
<title>Node1&#45;&gt;Node2</title>
<g id="a_edge1_Node000001_Node000002"><a xlink:title=" ">
<path fill="none" stroke="#63b8ff" d="M367.76,-72.29C295.41,-67.8 169.61,-56.7 64.88,-30.5 63.12,-30.06 61.34,-29.56 59.55,-29.02"/>
<polygon fill="#63b8ff" stroke="#63b8ff" points="60.74,-25.73 50.15,-25.79 58.47,-32.35 60.74,-25.73"/>
</a>
</g>
</g>
<!-- Node3 -->
<g id="Node000003" class="node">
<title>Node3</title>
<g id="a_Node000003"><a xlink:title=" ">
<polygon fill="#e0e0e0" stroke="#999999" points="183.75,-24.88 74,-24.88 74,-5.63 183.75,-5.63 183.75,-24.88"/>
<text text-anchor="middle" x="128.88" y="-11.38" font-family="Helvetica,sans-Serif" font-size="10.00">llvm/ADT/StringRef.h</text>
</a>
</g>
</g>
<!-- Node1&#45;&gt;Node3 -->
<g id="edge2_Node000001_Node000003" class="edge">
<title>Node1&#45;&gt;Node3</title>
<g id="a_edge2_Node000001_Node000003"><a xlink:title=" ">
<path fill="none" stroke="#63b8ff" d="M376.35,-66.06C328.69,-57.38 255.3,-43.69 191.88,-30.5 187.79,-29.65 183.57,-28.75 179.32,-27.82"/>
<polygon fill="#63b8ff" stroke="#63b8ff" points="180.15,-24.42 169.63,-25.68 178.64,-31.26 180.15,-24.42"/>
</a>
</g>
</g>
<!-- Node4 -->
<g id="Node000004" class="node">
<title>Node4</title>
<g id="a_Node000004"><a xlink:title=" ">
<polygon fill="#e0e0e0" stroke="#999999" points="346.38,-24.88 201.38,-24.88 201.38,-5.63 346.38,-5.63 346.38,-24.88"/>
<text text-anchor="middle" x="273.88" y="-11.38" font-family="Helvetica,sans-Serif" font-size="10.00">llvm/Support/CommandLine.h</text>
</a>
</g>
</g>
<!-- Node1&#45;&gt;Node4 -->
<g id="edge3_Node000001_Node000004" class="edge">
<title>Node1&#45;&gt;Node4</title>
<g id="a_edge3_Node000001_Node000004"><a xlink:title=" ">
<path fill="none" stroke="#63b8ff" d="M403.3,-66.05C377.81,-56.24 336.93,-40.51 307.94,-29.36"/>
<polygon fill="#63b8ff" stroke="#63b8ff" points="309.48,-26.2 298.89,-25.87 306.96,-32.73 309.48,-26.2"/>
</a>
</g>
</g>
<!-- Node5 -->
<g id="Node000005" class="node">
<title>Node5</title>
<g id="a_Node000005"><a xlink:title=" ">
<polygon fill="#e0e0e0" stroke="#999999" points="489.62,-30.5 364.12,-30.5 364.12,0 489.62,0 489.62,-30.5"/>
<text text-anchor="start" x="372.12" y="-17" font-family="Helvetica,sans-Serif" font-size="10.00">llvm/Support/PrettyStack</text>
<text text-anchor="middle" x="426.88" y="-5.75" font-family="Helvetica,sans-Serif" font-size="10.00">Trace.h</text>
</a>
</g>
</g>
<!-- Node1&#45;&gt;Node5 -->
<g id="edge4_Node000001_Node000005" class="edge">
<title>Node1&#45;&gt;Node5</title>
<g id="a_edge4_Node000001_Node000005"><a xlink:title=" ">
<path fill="none" stroke="#63b8ff" d="M426.88,-66.18C426.88,-59.73 426.88,-50.66 426.88,-42.01"/>
<polygon fill="#63b8ff" stroke="#63b8ff" points="430.38,-42.3 426.88,-32.3 423.38,-42.3 430.38,-42.3"/>
</a>
</g>
</g>
<!-- Node6 -->
<g id="Node000006" class="node">
<title>Node6</title>
<g id="a_Node000006"><a xlink:title=" ">
<polygon fill="#e0e0e0" stroke="#999999" points="622,-24.88 507.75,-24.88 507.75,-5.63 622,-5.63 622,-24.88"/>
<text text-anchor="middle" x="564.88" y="-11.38" font-family="Helvetica,sans-Serif" font-size="10.00">llvm/Support/Signals.h</text>
</a>
</g>
</g>
<!-- Node1&#45;&gt;Node6 -->
<g id="edge5_Node000001_Node000006" class="edge">
<title>Node1&#45;&gt;Node6</title>
<g id="a_edge5_Node000001_Node000006"><a xlink:title=" ">
<path fill="none" stroke="#63b8ff" d="M448.14,-66.05C470.89,-56.35 507.24,-40.84 533.33,-29.71"/>
<polygon fill="#63b8ff" stroke="#63b8ff" points="534.6,-32.97 542.43,-25.83 531.85,-26.53 534.6,-32.97"/>
</a>
</g>
</g>
<!-- Node7 -->
<g id="Node000007" class="node">
<title>Node7</title>
<g id="a_Node000007"><a xlink:title=" ">
<polygon fill="#e0e0e0" stroke="#999999" points="742,-24.88 639.75,-24.88 639.75,-5.63 742,-5.63 742,-24.88"/>
<text text-anchor="middle" x="690.88" y="-11.38" font-family="Helvetica,sans-Serif" font-size="10.00">llzk/Config/Config.h</text>
</a>
</g>
</g>
<!-- Node1&#45;&gt;Node7 -->
<g id="edge6_Node000001_Node000007" class="edge">
<title>Node1&#45;&gt;Node7</title>
<g id="a_edge6_Node000001_Node000007"><a xlink:title=" ">
<path fill="none" stroke="#63b8ff" d="M469.51,-66.03C510.82,-57.16 575.2,-43.2 630.88,-30.5 634.48,-29.68 638.2,-28.82 641.94,-27.95"/>
<polygon fill="#63b8ff" stroke="#63b8ff" points="642.72,-31.36 651.66,-25.67 641.12,-24.54 642.72,-31.36"/>
</a>
</g>
</g>
<!-- Node8 -->
<g id="Node000008" class="node">
<title>Node8</title>
<g id="a_Node000008"><a xlink:href="config_8h.html" target="_top" xlink:title=" ">
<polygon fill="white" stroke="#666666" points="834.12,-24.88 759.62,-24.88 759.62,-5.63 834.12,-5.63 834.12,-24.88"/>
<text text-anchor="middle" x="796.88" y="-11.38" font-family="Helvetica,sans-Serif" font-size="10.00">tools/config.h</text>
</a>
</g>
</g>
<!-- Node1&#45;&gt;Node8 -->
<g id="edge7_Node000001_Node000008" class="edge">
<title>Node1&#45;&gt;Node8</title>
<g id="a_edge7_Node000001_Node000008"><a xlink:title=" ">
<path fill="none" stroke="#63b8ff" d="M485.92,-69.92C551.26,-63.49 659.42,-50.82 750.88,-30.5 753.66,-29.88 756.52,-29.17 759.39,-28.41"/>
<polygon fill="#63b8ff" stroke="#63b8ff" points="760.21,-31.82 768.86,-25.7 758.28,-25.09 760.21,-31.82"/>
</a>
</g>
</g>
</g>
</svg>
