<?xml version="1.0" encoding="UTF-8" standalone="no"?>
<!DOCTYPE svg PUBLIC "-//W3C//DTD SVG 1.1//EN"
 "http://www.w3.org/Graphics/SVG/1.1/DTD/svg11.dtd">
<!-- Generated by graphviz version 12.2.1 (20241206.2353)
 -->
<!-- Title: tools/shared/include/tools/config.h Pages: 1 -->
<svg width="401pt" height="94pt"
 viewBox="0.00 0.00 401.25 93.75" xmlns="http://www.w3.org/2000/svg" xmlns:xlink="http://www.w3.org/1999/xlink">
<g id="graph0" class="graph" transform="scale(1 1) rotate(0) translate(4 89.75)">
<title>tools/shared/include/tools/config.h</title>
<!-- Node1 -->
<g id="Node000001" class="node">
<title>Node1</title>
<g id="a_Node000001"><a xlink:title=" ">
<polygon fill="#999999" stroke="#666666" points="251.12,-85.75 148.12,-85.75 148.12,-55.25 251.12,-55.25 251.12,-85.75"/>
<text text-anchor="start" x="156.12" y="-72.25" font-family="Helvetica,sans-Serif" font-size="10.00">tools/shared/include</text>
<text text-anchor="middle" x="199.62" y="-61" font-family="Helvetica,sans-Serif" font-size="10.00">/tools/config.h</text>
</a>
</g>
</g>
<!-- Node2 -->
<g id="Node000002" class="node">
<title>Node2</title>
<g id="a_Node000002"><a xlink:href="config_8cpp.html" target="_top" xlink:title=" ">
<polygon fill="white" stroke="#666666" points="117.25,-19.25 0,-19.25 0,0 117.25,0 117.25,-19.25"/>
<text text-anchor="middle" x="58.62" y="-5.75" font-family="Helvetica,sans-Serif" font-size="10.00">tools/shared/config.cpp</text>
</a>
</g>
</g>
<!-- Node1&#45;&gt;Node2 -->
<g id="edge1_Node000001_Node000002" class="edge">
<title>Node1&#45;&gt;Node2</title>
<g id="a_edge1_Node000001_Node000002"><a xlink:title=" ">
<path fill="none" stroke="#63b8ff" d="M153.79,-50.36C129.08,-40.05 99.75,-27.8 80.25,-19.65"/>
<polygon fill="#63b8ff" stroke="#63b8ff" points="152.44,-53.59 163.01,-54.21 155.13,-47.13 152.44,-53.59"/>
</a>
</g>
</g>
<!-- Node3 -->
<g id="Node000003" class="node">
<title>Node3</title>
<g id="a_Node000003"><a xlink:href="zklang-opt_2main_8cpp.html" target="_top" xlink:title=" ">
<polygon fill="white" stroke="#666666" points="263.5,-19.25 135.75,-19.25 135.75,0 263.5,0 263.5,-19.25"/>
<text text-anchor="middle" x="199.62" y="-5.75" font-family="Helvetica,sans-Serif" font-size="10.00">tools/zklang&#45;opt/main.cpp</text>
</a>
</g>
</g>
<!-- Node1&#45;&gt;Node3 -->
<g id="edge2_Node000001_Node000003" class="edge">
<title>Node1&#45;&gt;Node3</title>
<g id="a_edge2_Node000001_Node000003"><a xlink:title=" ">
<path fill="none" stroke="#63b8ff" d="M199.62,-43.48C199.62,-34.98 199.62,-26.09 199.62,-19.7"/>
<polygon fill="#63b8ff" stroke="#63b8ff" points="196.13,-43.43 199.63,-53.43 203.13,-43.43 196.13,-43.43"/>
</a>
</g>
</g>
<!-- Node4 -->
<g id="Node000004" class="node">
<title>Node4</title>
<g id="a_Node000004"><a xlink:href="zklang_2main_8cpp.html" target="_top" xlink:title=" ">
<polygon fill="white" stroke="#666666" points="393.25,-19.25 282,-19.25 282,0 393.25,0 393.25,-19.25"/>
<text text-anchor="middle" x="337.62" y="-5.75" font-family="Helvetica,sans-Serif" font-size="10.00">tools/zklang/main.cpp</text>
</a>
</g>
</g>
<!-- Node1&#45;&gt;Node4 -->
<g id="edge3_Node000001_Node000004" class="edge">
<title>Node1&#45;&gt;Node4</title>
<g id="a_edge3_Node000001_Node000004"><a xlink:title=" ">
<path fill="none" stroke="#63b8ff" d="M244.48,-50.36C268.67,-40.05 297.37,-27.8 316.46,-19.65"/>
<polygon fill="#63b8ff" stroke="#63b8ff" points="243.31,-47.06 235.48,-54.2 246.06,-53.5 243.31,-47.06"/>
</a>
</g>
</g>
</g>
</svg>
