<?xml version="1.0" encoding="UTF-8" standalone="no"?>
<!DOCTYPE svg PUBLIC "-//W3C//DTD SVG 1.1//EN"
 "http://www.w3.org/Graphics/SVG/1.1/DTD/svg11.dtd">
<!-- Generated by graphviz version 12.2.1 (20241206.2353)
 -->
<!-- Title: include/zklang/Dialect/ZML Pages: 1 -->
<svg width="549pt" height="181pt"
 viewBox="0.00 0.00 549.41 181.00" xmlns="http://www.w3.org/2000/svg" xmlns:xlink="http://www.w3.org/1999/xlink">
<g id="graph0" class="graph" transform="scale(1 1) rotate(0) translate(4 177)">
<title>include/zklang/Dialect/ZML</title>
<g id="clust1" class="cluster">
<title>clusterdir_446a26b151dbd43af1af195b468e9110</title>
<g id="a_clust1"><a xlink:href="dir_446a26b151dbd43af1af195b468e9110.html" target="_top" xlink:title="Dialect">
<polygon fill="#edf0f7" stroke="#7f7f7f" stroke-dasharray="5,2" points="8,-39.25 8,-165 448,-165 448,-39.25 8,-39.25"/>
<text text-anchor="middle" x="228" y="-151.5" font-family="Helvetica,sans-Serif" font-size="10.00">Dialect</text>
</a>
</g>
</g>
<g id="clust2" class="cluster">
<title>clusterdir_3011b0928febe76da77ad0276872b45c</title>
<g id="a_clust2"><a xlink:href="dir_3011b0928febe76da77ad0276872b45c.html" target="_top">
<polygon fill="#edf0f7" stroke="#404040" stroke-width="2" points="16,-47.25 16,-137.75 398,-137.75 398,-47.25 16,-47.25"/>
</a>
</g>
</g>
<!-- dir_65bbf12c8390ad766b71a64bfcee1106 -->
<g id="node1" class="node">
<title>dir_65bbf12c8390ad766b71a64bfcee1106</title>
<g id="a_node1"><a xlink:href="dir_65bbf12c8390ad766b71a64bfcee1106.html" target="_top" xlink:title="ZHL">
<polygon fill="#a2b4d6" stroke="red" points="440.38,-74.5 405.62,-74.5 405.62,-55.25 440.38,-55.25 440.38,-74.5"/>
<text text-anchor="middle" x="423" y="-61" font-family="Helvetica,sans-Serif" font-size="10.00">ZHL</text>
</a>
</g>
</g>
<!-- dir_3011b0928febe76da77ad0276872b45c -->
<g id="node2" class="node">
<title>dir_3011b0928febe76da77ad0276872b45c</title>
<text text-anchor="middle" x="42" y="-116.25" font-family="Helvetica,sans-Serif" font-size="10.00">ZML</text>
</g>
<!-- dir_8b6b343250cdf70af2d5f6d893152cfd -->
<g id="node3" class="node">
<title>dir_8b6b343250cdf70af2d5f6d893152cfd</title>
<g id="a_node3"><a xlink:href="dir_8b6b343250cdf70af2d5f6d893152cfd.html" target="_top" xlink:title="BuiltIns">
<polygon fill="#a2b4d6" stroke="#404040" points="389.5,-129.75 340.5,-129.75 340.5,-110.5 389.5,-110.5 389.5,-129.75"/>
<text text-anchor="middle" x="365" y="-116.25" font-family="Helvetica,sans-Serif" font-size="10.00">BuiltIns</text>
</a>
</g>
</g>
<!-- dir_8b6b343250cdf70af2d5f6d893152cfd&#45;&gt;dir_65bbf12c8390ad766b71a64bfcee1106 -->
<g id="edge1" class="edge">
<title>dir_8b6b343250cdf70af2d5f6d893152cfd&#45;&gt;dir_65bbf12c8390ad766b71a64bfcee1106</title>
<g id="a_edge1"><a xlink:href="dir_000001_000042.html" target="_top">
<path fill="none" stroke="#63b8ff" d="M374.84,-110.09C383.05,-102.55 394.98,-91.6 404.91,-82.48"/>
<polygon fill="#63b8ff" stroke="#63b8ff" points="407.19,-85.14 412.19,-75.8 402.46,-79.98 407.19,-85.14"/>
</a>
</g>
<g id="a_edge1&#45;headlabel"><a xlink:href="dir_000001_000042.html" target="_top" xlink:title="1">
<text text-anchor="middle" x="407.58" y="-84.76" font-family="Helvetica,sans-Serif" font-size="10.00" fill="#63b8ff">1</text>
</a>
</g>
</g>
<!-- dir_591a4331df73b0d4dbf20cef93b6066f -->
<g id="node4" class="node">
<title>dir_591a4331df73b0d4dbf20cef93b6066f</title>
<g id="a_node4"><a xlink:href="dir_591a4331df73b0d4dbf20cef93b6066f.html" target="_top" xlink:title="ExtVal">
<polygon fill="#a2b4d6" stroke="#404040" points="176.25,-129.75 131.75,-129.75 131.75,-110.5 176.25,-110.5 176.25,-129.75"/>
<text text-anchor="middle" x="154" y="-116.25" font-family="Helvetica,sans-Serif" font-size="10.00">ExtVal</text>
</a>
</g>
</g>
<!-- dir_c4ea64b82109718f26d8f3b0911825a4 -->
<g id="node5" class="node">
<title>dir_c4ea64b82109718f26d8f3b0911825a4</title>
<g id="a_node5"><a xlink:href="dir_c4ea64b82109718f26d8f3b0911825a4.html" target="_top" xlink:title="IR">
<polygon fill="#a2b4d6" stroke="#404040" points="236.4,-74.5 207.6,-74.5 207.6,-55.25 236.4,-55.25 236.4,-74.5"/>
<text text-anchor="middle" x="222" y="-61" font-family="Helvetica,sans-Serif" font-size="10.00">IR</text>
</a>
</g>
</g>
<!-- dir_591a4331df73b0d4dbf20cef93b6066f&#45;&gt;dir_c4ea64b82109718f26d8f3b0911825a4 -->
<g id="edge3" class="edge">
<title>dir_591a4331df73b0d4dbf20cef93b6066f&#45;&gt;dir_c4ea64b82109718f26d8f3b0911825a4</title>
<g id="a_edge3"><a xlink:href="dir_000013_000022.html" target="_top">
<path fill="none" stroke="#63b8ff" d="M165.54,-110.09C175.46,-102.32 190.01,-90.92 201.86,-81.65"/>
<polygon fill="#63b8ff" stroke="#63b8ff" points="203.73,-84.63 209.44,-75.71 199.41,-79.12 203.73,-84.63"/>
</a>
</g>
<g id="a_edge3&#45;headlabel"><a xlink:href="dir_000013_000022.html" target="_top" xlink:title="3">
<text text-anchor="middle" x="203.84" y="-84.27" font-family="Helvetica,sans-Serif" font-size="10.00" fill="#63b8ff">3</text>
</a>
</g>
</g>
<!-- dir_6ea7a00e4381079f7b8de99d89d43a23 -->
<g id="node10" class="node">
<title>dir_6ea7a00e4381079f7b8de99d89d43a23</title>
<g id="a_node10"><a xlink:href="dir_6ea7a00e4381079f7b8de99d89d43a23.html" target="_top" xlink:title="FiniteFields">
<polygon fill="#edf0f7" stroke="#7f7f7f" points="525.12,-74.5 458.88,-74.5 458.88,-55.25 525.12,-55.25 525.12,-74.5"/>
<text text-anchor="middle" x="492" y="-61" font-family="Helvetica,sans-Serif" font-size="10.00">FiniteFields</text>
</a>
</g>
</g>
<!-- dir_591a4331df73b0d4dbf20cef93b6066f&#45;&gt;dir_6ea7a00e4381079f7b8de99d89d43a23 -->
<g id="edge2" class="edge">
<title>dir_591a4331df73b0d4dbf20cef93b6066f&#45;&gt;dir_6ea7a00e4381079f7b8de99d89d43a23</title>
<g id="a_edge2"><a xlink:href="dir_000013_000015.html" target="_top">
<path fill="none" stroke="#63b8ff" d="M176.64,-112.64C179.77,-111.85 182.95,-111.11 186,-110.5 299.41,-87.64 332.5,-94.62 447.42,-75.21"/>
<polygon fill="#63b8ff" stroke="#63b8ff" points="447.68,-78.72 456.94,-73.57 446.49,-71.82 447.68,-78.72"/>
</a>
</g>
<g id="a_edge2&#45;headlabel"><a xlink:href="dir_000013_000015.html" target="_top" xlink:title="1">
<text text-anchor="middle" x="446.11" y="-77.99" font-family="Helvetica,sans-Serif" font-size="10.00" fill="#63b8ff">1</text>
</a>
</g>
</g>
<!-- dir_4fef79e7177ba769987a8da36c892c5f -->
<g id="node9" class="node">
<title>dir_4fef79e7177ba769987a8da36c892c5f</title>
<g id="a_node9"><a xlink:href="dir_4fef79e7177ba769987a8da36c892c5f.html" target="_top" xlink:title="build">
<polygon fill="#edf0f7" stroke="red" points="439.12,-19.25 402.88,-19.25 402.88,0 439.12,0 439.12,-19.25"/>
<text text-anchor="middle" x="421" y="-5.75" font-family="Helvetica,sans-Serif" font-size="10.00">build</text>
</a>
</g>
</g>
<!-- dir_c4ea64b82109718f26d8f3b0911825a4&#45;&gt;dir_4fef79e7177ba769987a8da36c892c5f -->
<g id="edge4" class="edge">
<title>dir_c4ea64b82109718f26d8f3b0911825a4&#45;&gt;dir_4fef79e7177ba769987a8da36c892c5f</title>
<g id="a_edge4"><a xlink:href="dir_000022_000000.html" target="_top">
<path fill="none" stroke="#63b8ff" d="M226.11,-55.19C229.16,-49.72 233.85,-43 240,-39.25 264.81,-24.1 346.43,-15.99 391.11,-12.59"/>
<polygon fill="#63b8ff" stroke="#63b8ff" points="391.17,-16.1 400.89,-11.89 390.66,-9.12 391.17,-16.1"/>
</a>
</g>
<g id="a_edge4&#45;headlabel"><a xlink:href="dir_000022_000000.html" target="_top" xlink:title="6">
<text text-anchor="middle" x="389.3" y="-15.21" font-family="Helvetica,sans-Serif" font-size="10.00" fill="#63b8ff">6</text>
</a>
</g>
</g>
<!-- dir_7e0d9a292d82bc2203e4f581fb58e496 -->
<g id="node6" class="node">
<title>dir_7e0d9a292d82bc2203e4f581fb58e496</title>
<g id="a_node6"><a xlink:href="dir_7e0d9a292d82bc2203e4f581fb58e496.html" target="_top" xlink:title="Transforms">
<polygon fill="#a2b4d6" stroke="#404040" points="322.75,-129.75 257.25,-129.75 257.25,-110.5 322.75,-110.5 322.75,-129.75"/>
<text text-anchor="middle" x="290" y="-116.25" font-family="Helvetica,sans-Serif" font-size="10.00">Transforms</text>
</a>
</g>
</g>
<!-- dir_7e0d9a292d82bc2203e4f581fb58e496&#45;&gt;dir_c4ea64b82109718f26d8f3b0911825a4 -->
<g id="edge6" class="edge">
<title>dir_7e0d9a292d82bc2203e4f581fb58e496&#45;&gt;dir_c4ea64b82109718f26d8f3b0911825a4</title>
<g id="a_edge6"><a xlink:href="dir_000033_000022.html" target="_top">
<path fill="none" stroke="#63b8ff" d="M278.46,-110.09C268.54,-102.32 253.99,-90.92 242.14,-81.65"/>
<polygon fill="#63b8ff" stroke="#63b8ff" points="244.59,-79.12 234.56,-75.71 240.27,-84.63 244.59,-79.12"/>
</a>
</g>
<g id="a_edge6&#45;headlabel"><a xlink:href="dir_000033_000022.html" target="_top" xlink:title="3">
<text text-anchor="middle" x="247.98" y="-74.29" font-family="Helvetica,sans-Serif" font-size="10.00" fill="#63b8ff">3</text>
</a>
</g>
</g>
<!-- dir_7e0d9a292d82bc2203e4f581fb58e496&#45;&gt;dir_4fef79e7177ba769987a8da36c892c5f -->
<g id="edge5" class="edge">
<title>dir_7e0d9a292d82bc2203e4f581fb58e496&#45;&gt;dir_4fef79e7177ba769987a8da36c892c5f</title>
<g id="a_edge5"><a xlink:href="dir_000033_000000.html" target="_top">
<path fill="none" stroke="#63b8ff" d="M323,-112.26C326.04,-111.66 329.08,-111.06 332,-110.5 376.78,-101.91 504.72,-109.46 534,-74.5 544.06,-62.49 543.62,-51.61 534,-39.25 523.85,-26.21 480.66,-18.16 450.72,-14.04"/>
<polygon fill="#63b8ff" stroke="#63b8ff" points="451.47,-10.6 441.1,-12.79 450.57,-17.55 451.47,-10.6"/>
</a>
</g>
<g id="a_edge5&#45;headlabel"><a xlink:href="dir_000033_000000.html" target="_top" xlink:title="2">
<text text-anchor="middle" x="453.9" y="-4.18" font-family="Helvetica,sans-Serif" font-size="10.00" fill="#63b8ff">2</text>
</a>
</g>
</g>
<!-- dir_851143ff6afc2b100a52bb16abc583a9 -->
<g id="node7" class="node">
<title>dir_851143ff6afc2b100a52bb16abc583a9</title>
<g id="a_node7"><a xlink:href="dir_851143ff6afc2b100a52bb16abc583a9.html" target="_top" xlink:title="Typing">
<polygon fill="#a2b4d6" stroke="#404040" points="239.25,-129.75 194.75,-129.75 194.75,-110.5 239.25,-110.5 239.25,-129.75"/>
<text text-anchor="middle" x="217" y="-116.25" font-family="Helvetica,sans-Serif" font-size="10.00">Typing</text>
</a>
</g>
</g>
<!-- dir_851143ff6afc2b100a52bb16abc583a9&#45;&gt;dir_65bbf12c8390ad766b71a64bfcee1106 -->
<g id="edge7" class="edge">
<title>dir_851143ff6afc2b100a52bb16abc583a9&#45;&gt;dir_65bbf12c8390ad766b71a64bfcee1106</title>
<g id="a_edge7"><a xlink:href="dir_000037_000042.html" target="_top">
<path fill="none" stroke="#63b8ff" d="M239.66,-112.7C242.46,-111.94 245.29,-111.19 248,-110.5 312.5,-93.99 332.92,-95.68 394.51,-76.77"/>
<polygon fill="#63b8ff" stroke="#63b8ff" points="395.26,-80.2 403.76,-73.87 393.17,-73.52 395.26,-80.2"/>
</a>
</g>
<g id="a_edge7&#45;headlabel"><a xlink:href="dir_000037_000042.html" target="_top" xlink:title="1">
<text text-anchor="middle" x="394.13" y="-79.66" font-family="Helvetica,sans-Serif" font-size="10.00" fill="#63b8ff">1</text>
</a>
</g>
</g>
<!-- dir_88e51e176d4a0bdc2bbf3d49a67991a6 -->
<g id="node8" class="node">
<title>dir_88e51e176d4a0bdc2bbf3d49a67991a6</title>
<g id="a_node8"><a xlink:href="dir_88e51e176d4a0bdc2bbf3d49a67991a6.html" target="_top" xlink:title="Utils">
<polygon fill="#a2b4d6" stroke="#404040" points="114.12,-129.75 77.88,-129.75 77.88,-110.5 114.12,-110.5 114.12,-129.75"/>
<text text-anchor="middle" x="96" y="-116.25" font-family="Helvetica,sans-Serif" font-size="10.00">Utils</text>
</a>
</g>
</g>
<!-- dir_88e51e176d4a0bdc2bbf3d49a67991a6&#45;&gt;dir_65bbf12c8390ad766b71a64bfcee1106 -->
<g id="edge8" class="edge">
<title>dir_88e51e176d4a0bdc2bbf3d49a67991a6&#45;&gt;dir_65bbf12c8390ad766b71a64bfcee1106</title>
<g id="a_edge8"><a xlink:href="dir_000040_000042.html" target="_top">
<path fill="none" stroke="#63b8ff" d="M114.47,-112.74C117.3,-111.9 120.21,-111.12 123,-110.5 241.35,-84.19 278.88,-105.17 394.2,-76.38"/>
<polygon fill="#63b8ff" stroke="#63b8ff" points="394.96,-79.8 403.77,-73.92 393.21,-73.03 394.96,-79.8"/>
</a>
</g>
<g id="a_edge8&#45;headlabel"><a xlink:href="dir_000040_000042.html" target="_top" xlink:title="2">
<text text-anchor="middle" x="393.66" y="-79.2" font-family="Helvetica,sans-Serif" font-size="10.00" fill="#63b8ff">2</text>
</a>
</g>
</g>
<!-- dir_88e51e176d4a0bdc2bbf3d49a67991a6&#45;&gt;dir_c4ea64b82109718f26d8f3b0911825a4 -->
<g id="edge9" class="edge">
<title>dir_88e51e176d4a0bdc2bbf3d49a67991a6&#45;&gt;dir_c4ea64b82109718f26d8f3b0911825a4</title>
<g id="a_edge9"><a xlink:href="dir_000040_000022.html" target="_top">
<path fill="none" stroke="#63b8ff" d="M114.59,-111.27C136.34,-102.08 172.45,-86.82 196.73,-76.56"/>
<polygon fill="#63b8ff" stroke="#63b8ff" points="198.03,-79.81 205.87,-72.69 195.3,-73.36 198.03,-79.81"/>
</a>
</g>
<g id="a_edge9&#45;headlabel"><a xlink:href="dir_000040_000022.html" target="_top" xlink:title="2">
<text text-anchor="middle" x="197.21" y="-79.36" font-family="Helvetica,sans-Serif" font-size="10.00" fill="#63b8ff">2</text>
</a>
</g>
</g>
</g>
</svg>
