<?xml version="1.0" encoding="UTF-8" standalone="no"?>
<!DOCTYPE svg PUBLIC "-//W3C//DTD SVG 1.1//EN"
 "http://www.w3.org/Graphics/SVG/1.1/DTD/svg11.dtd">
<!-- Generated by graphviz version 12.2.1 (20241206.2353)
 -->
<!-- Title: lib/Dialect/ZML Pages: 1 -->
<svg width="415pt" height="126pt"
 viewBox="0.00 0.00 415.00 125.75" xmlns="http://www.w3.org/2000/svg" xmlns:xlink="http://www.w3.org/1999/xlink">
<g id="graph0" class="graph" transform="scale(1 1) rotate(0) translate(4 121.75)">
<title>lib/Dialect/ZML</title>
<g id="clust1" class="cluster">
<title>clusterdir_1a25ec519b6c1121408b67cc33ce3f15</title>
<g id="a_clust1"><a xlink:href="dir_1a25ec519b6c1121408b67cc33ce3f15.html" target="_top" xlink:title="Dialect">
<polygon fill="#edf0f7" stroke="#7f7f7f" stroke-dasharray="5,2" points="8,-39.25 8,-109.75 399,-109.75 399,-39.25 8,-39.25"/>
<text text-anchor="middle" x="203.5" y="-96.25" font-family="Helvetica,sans-Serif" font-size="10.00">Dialect</text>
</a>
</g>
</g>
<g id="clust2" class="cluster">
<title>clusterdir_9a71a0d6219c971062f64b24dd1f3452</title>
<g id="a_clust2"><a xlink:href="dir_9a71a0d6219c971062f64b24dd1f3452.html" target="_top">
<polygon fill="#edf0f7" stroke="#404040" stroke-width="2" points="16,-47.25 16,-82.5 391,-82.5 391,-47.25 16,-47.25"/>
</a>
</g>
</g>
<!-- dir_9a71a0d6219c971062f64b24dd1f3452 -->
<g id="node1" class="node">
<title>dir_9a71a0d6219c971062f64b24dd1f3452</title>
<text text-anchor="middle" x="172" y="-61" font-family="Helvetica,sans-Serif" font-size="10.00">ZML</text>
</g>
<!-- dir_d44c64559bbebec7f509842c48db8b23 -->
<g id="node8" class="node">
<title>dir_d44c64559bbebec7f509842c48db8b23</title>
<g id="a_node8"><a xlink:href="dir_d44c64559bbebec7f509842c48db8b23.html" target="_top" xlink:title="include">
<polygon fill="#edf0f7" stroke="red" points="230.38,-19.25 183.62,-19.25 183.62,0 230.38,0 230.38,-19.25"/>
<text text-anchor="middle" x="207" y="-5.75" font-family="Helvetica,sans-Serif" font-size="10.00">include</text>
</a>
</g>
</g>
<!-- dir_9a71a0d6219c971062f64b24dd1f3452&#45;&gt;dir_d44c64559bbebec7f509842c48db8b23 -->
<g id="edge1" class="edge">
<title>dir_9a71a0d6219c971062f64b24dd1f3452&#45;&gt;dir_d44c64559bbebec7f509842c48db8b23</title>
<g id="a_edge1"><a xlink:href="dir_000052_000019.html" target="_top">
<path fill="none" stroke="#63b8ff" d="M177.47,-55.55C182.16,-48.41 189.09,-37.87 195.06,-28.79"/>
<polygon fill="#63b8ff" stroke="#63b8ff" points="197.82,-30.96 200.39,-20.68 191.97,-27.12 197.82,-30.96"/>
</a>
</g>
<g id="a_edge1&#45;headlabel"><a xlink:href="dir_000052_000019.html" target="_top" xlink:title="60">
<text text-anchor="middle" x="199.05" y="-30.39" font-family="Helvetica,sans-Serif" font-size="10.00" fill="#63b8ff">60</text>
</a>
</g>
</g>
<!-- dir_b714bb8f7b745c78ad05f6ba281df4d9 -->
<g id="node2" class="node">
<title>dir_b714bb8f7b745c78ad05f6ba281df4d9</title>
<g id="a_node2"><a xlink:href="dir_b714bb8f7b745c78ad05f6ba281df4d9.html" target="_top" xlink:title="BuiltIns">
<polygon fill="#a2b4d6" stroke="#404040" points="73.5,-74.5 24.5,-74.5 24.5,-55.25 73.5,-55.25 73.5,-74.5"/>
<text text-anchor="middle" x="49" y="-61" font-family="Helvetica,sans-Serif" font-size="10.00">BuiltIns</text>
</a>
</g>
</g>
<!-- dir_b714bb8f7b745c78ad05f6ba281df4d9&#45;&gt;dir_d44c64559bbebec7f509842c48db8b23 -->
<g id="edge2" class="edge">
<title>dir_b714bb8f7b745c78ad05f6ba281df4d9&#45;&gt;dir_d44c64559bbebec7f509842c48db8b23</title>
<g id="a_edge2"><a xlink:href="dir_000002_000019.html" target="_top">
<path fill="none" stroke="#63b8ff" d="M59.04,-54.94C65.48,-49.66 74.24,-43.23 83,-39.25 111.47,-26.3 146.38,-18.92 171.89,-14.91"/>
<polygon fill="#63b8ff" stroke="#63b8ff" points="172.36,-18.38 181.75,-13.47 171.35,-11.45 172.36,-18.38"/>
</a>
</g>
<g id="a_edge2&#45;headlabel"><a xlink:href="dir_000002_000019.html" target="_top" xlink:title="6">
<text text-anchor="middle" x="170.71" y="-17.61" font-family="Helvetica,sans-Serif" font-size="10.00" fill="#63b8ff">6</text>
</a>
</g>
</g>
<!-- dir_8ab2c110c2f7925f0a954d1c50f18e54 -->
<g id="node3" class="node">
<title>dir_8ab2c110c2f7925f0a954d1c50f18e54</title>
<g id="a_node3"><a xlink:href="dir_8ab2c110c2f7925f0a954d1c50f18e54.html" target="_top" xlink:title="ExtVal">
<polygon fill="#a2b4d6" stroke="#404040" points="136.25,-74.5 91.75,-74.5 91.75,-55.25 136.25,-55.25 136.25,-74.5"/>
<text text-anchor="middle" x="114" y="-61" font-family="Helvetica,sans-Serif" font-size="10.00">ExtVal</text>
</a>
</g>
</g>
<!-- dir_8ab2c110c2f7925f0a954d1c50f18e54&#45;&gt;dir_d44c64559bbebec7f509842c48db8b23 -->
<g id="edge3" class="edge">
<title>dir_8ab2c110c2f7925f0a954d1c50f18e54&#45;&gt;dir_d44c64559bbebec7f509842c48db8b23</title>
<g id="a_edge3"><a xlink:href="dir_000014_000019.html" target="_top">
<path fill="none" stroke="#63b8ff" d="M124.16,-54.79C130,-49.83 137.63,-43.79 145,-39.25 153.95,-33.74 164.13,-28.61 173.63,-24.27"/>
<polygon fill="#63b8ff" stroke="#63b8ff" points="174.83,-27.56 182.56,-20.32 172,-21.16 174.83,-27.56"/>
</a>
</g>
<g id="a_edge3&#45;headlabel"><a xlink:href="dir_000014_000019.html" target="_top" xlink:title="5">
<text text-anchor="middle" x="174.07" y="-27.12" font-family="Helvetica,sans-Serif" font-size="10.00" fill="#63b8ff">5</text>
</a>
</g>
</g>
<!-- dir_3f702a685254169480d1ffd47b6bdbb4 -->
<g id="node4" class="node">
<title>dir_3f702a685254169480d1ffd47b6bdbb4</title>
<g id="a_node4"><a xlink:href="dir_3f702a685254169480d1ffd47b6bdbb4.html" target="_top" xlink:title="IR">
<polygon fill="#a2b4d6" stroke="#404040" points="383.4,-74.5 354.6,-74.5 354.6,-55.25 383.4,-55.25 383.4,-74.5"/>
<text text-anchor="middle" x="369" y="-61" font-family="Helvetica,sans-Serif" font-size="10.00">IR</text>
</a>
</g>
</g>
<!-- dir_4fef79e7177ba769987a8da36c892c5f -->
<g id="node7" class="node">
<title>dir_4fef79e7177ba769987a8da36c892c5f</title>
<g id="a_node7"><a xlink:href="dir_4fef79e7177ba769987a8da36c892c5f.html" target="_top" xlink:title="build">
<polygon fill="#edf0f7" stroke="red" points="387.12,-19.25 350.88,-19.25 350.88,0 387.12,0 387.12,-19.25"/>
<text text-anchor="middle" x="369" y="-5.75" font-family="Helvetica,sans-Serif" font-size="10.00">build</text>
</a>
</g>
</g>
<!-- dir_3f702a685254169480d1ffd47b6bdbb4&#45;&gt;dir_4fef79e7177ba769987a8da36c892c5f -->
<g id="edge4" class="edge">
<title>dir_3f702a685254169480d1ffd47b6bdbb4&#45;&gt;dir_4fef79e7177ba769987a8da36c892c5f</title>
<g id="a_edge4"><a xlink:href="dir_000023_000000.html" target="_top">
<path fill="none" stroke="#63b8ff" d="M369,-55.08C369,-48.57 369,-39.42 369,-31.12"/>
<polygon fill="#63b8ff" stroke="#63b8ff" points="372.5,-31.12 369,-21.12 365.5,-31.12 372.5,-31.12"/>
</a>
</g>
<g id="a_edge4&#45;headlabel"><a xlink:href="dir_000023_000000.html" target="_top" xlink:title="6">
<text text-anchor="middle" x="375.34" y="-29.33" font-family="Helvetica,sans-Serif" font-size="10.00" fill="#63b8ff">6</text>
</a>
</g>
</g>
<!-- dir_3f702a685254169480d1ffd47b6bdbb4&#45;&gt;dir_d44c64559bbebec7f509842c48db8b23 -->
<g id="edge5" class="edge">
<title>dir_3f702a685254169480d1ffd47b6bdbb4&#45;&gt;dir_d44c64559bbebec7f509842c48db8b23</title>
<g id="a_edge5"><a xlink:href="dir_000023_000019.html" target="_top">
<path fill="none" stroke="#63b8ff" d="M362.43,-54.81C358.08,-49.47 351.91,-43.04 345,-39.25 312.85,-21.63 271.05,-14.83 241.92,-12.22"/>
<polygon fill="#63b8ff" stroke="#63b8ff" points="242.4,-8.74 232.16,-11.48 241.87,-15.72 242.4,-8.74"/>
</a>
</g>
<g id="a_edge5&#45;headlabel"><a xlink:href="dir_000023_000019.html" target="_top" xlink:title="10">
<text text-anchor="middle" x="244.69" y="-2.2" font-family="Helvetica,sans-Serif" font-size="10.00" fill="#63b8ff">10</text>
</a>
</g>
</g>
<!-- dir_72f6dd60631470312886f38d5f3a0516 -->
<g id="node5" class="node">
<title>dir_72f6dd60631470312886f38d5f3a0516</title>
<g id="a_node5"><a xlink:href="dir_72f6dd60631470312886f38d5f3a0516.html" target="_top" xlink:title="Transforms">
<polygon fill="#a2b4d6" stroke="#404040" points="273.75,-74.5 208.25,-74.5 208.25,-55.25 273.75,-55.25 273.75,-74.5"/>
<text text-anchor="middle" x="241" y="-61" font-family="Helvetica,sans-Serif" font-size="10.00">Transforms</text>
</a>
</g>
</g>
<!-- dir_72f6dd60631470312886f38d5f3a0516&#45;&gt;dir_d44c64559bbebec7f509842c48db8b23 -->
<g id="edge6" class="edge">
<title>dir_72f6dd60631470312886f38d5f3a0516&#45;&gt;dir_d44c64559bbebec7f509842c48db8b23</title>
<g id="a_edge6"><a xlink:href="dir_000034_000019.html" target="_top">
<path fill="none" stroke="#63b8ff" d="M235.39,-55.08C230.88,-48.03 224.41,-37.9 218.79,-29.08"/>
<polygon fill="#63b8ff" stroke="#63b8ff" points="221.88,-27.43 213.55,-20.88 215.98,-31.2 221.88,-27.43"/>
</a>
</g>
<g id="a_edge6&#45;headlabel"><a xlink:href="dir_000034_000019.html" target="_top" xlink:title="20">
<text text-anchor="middle" x="225.4" y="-23.78" font-family="Helvetica,sans-Serif" font-size="10.00" fill="#63b8ff">20</text>
</a>
</g>
</g>
<!-- dir_1b31c0289f44614e87231f9179fed615 -->
<g id="node6" class="node">
<title>dir_1b31c0289f44614e87231f9179fed615</title>
<g id="a_node6"><a xlink:href="dir_1b31c0289f44614e87231f9179fed615.html" target="_top" xlink:title="Typing">
<polygon fill="#a2b4d6" stroke="#404040" points="336.25,-74.5 291.75,-74.5 291.75,-55.25 336.25,-55.25 336.25,-74.5"/>
<text text-anchor="middle" x="314" y="-61" font-family="Helvetica,sans-Serif" font-size="10.00">Typing</text>
</a>
</g>
</g>
<!-- dir_1b31c0289f44614e87231f9179fed615&#45;&gt;dir_d44c64559bbebec7f509842c48db8b23 -->
<g id="edge7" class="edge">
<title>dir_1b31c0289f44614e87231f9179fed615&#45;&gt;dir_d44c64559bbebec7f509842c48db8b23</title>
<g id="a_edge7"><a xlink:href="dir_000039_000019.html" target="_top">
<path fill="none" stroke="#63b8ff" d="M304.24,-54.82C298.4,-49.75 290.65,-43.59 283,-39.25 270.06,-31.92 254.89,-25.77 241.51,-21.07"/>
<polygon fill="#63b8ff" stroke="#63b8ff" points="242.82,-17.82 232.22,-17.95 240.59,-24.45 242.82,-17.82"/>
</a>
</g>
<g id="a_edge7&#45;headlabel"><a xlink:href="dir_000039_000019.html" target="_top" xlink:title="10">
<text text-anchor="middle" x="245.69" y="-11.91" font-family="Helvetica,sans-Serif" font-size="10.00" fill="#63b8ff">10</text>
</a>
</g>
</g>
</g>
</svg>
