<?xml version="1.0" encoding="UTF-8" standalone="no"?>
<!DOCTYPE svg PUBLIC "-//W3C//DTD SVG 1.1//EN"
 "http://www.w3.org/Graphics/SVG/1.1/DTD/svg11.dtd">
<!-- Generated by graphviz version 12.2.1 (20241206.2353)
 -->
<!-- Title: Graphical Class Hierarchy Pages: 1 -->
<svg width="275pt" height="137pt"
 viewBox="0.00 0.00 274.75 136.50" xmlns="http://www.w3.org/2000/svg" xmlns:xlink="http://www.w3.org/1999/xlink">
<g id="graph0" class="graph" transform="scale(1 1) rotate(0) translate(4 132.5)">
<title>Graphical Class Hierarchy</title>
<!-- Node0 -->
<g id="Node000000" class="node">
<title>Node0</title>
<g id="a_Node000000"><a xlink:title=" ">
<polygon fill="#e0e0e0" stroke="#999999" points="92.5,-73.88 0,-73.88 0,-54.62 92.5,-54.62 92.5,-73.88"/>
<text text-anchor="middle" x="46.25" y="-60.38" font-family="Helvetica,sans-Serif" font-size="10.00">mlir::TypeStorage</text>
</a>
</g>
</g>
<!-- Node1 -->
<g id="Node000001" class="node">
<title>Node1</title>
<g id="a_Node000001"><a xlink:href="structzml_1_1detail_1_1_component_type_storage.html" target="_top" xlink:title=" ">
<polygon fill="white" stroke="#666666" points="266.75,-128.5 128.5,-128.5 128.5,-98 266.75,-98 266.75,-128.5"/>
<text text-anchor="start" x="136.5" y="-115" font-family="Helvetica,sans-Serif" font-size="10.00">zml::detail::ComponentType</text>
<text text-anchor="middle" x="197.62" y="-103.75" font-family="Helvetica,sans-Serif" font-size="10.00">Storage</text>
</a>
</g>
</g>
<!-- Node0&#45;&gt;Node1 -->
<g id="edge89_Node000000_Node000001" class="edge">
<title>Node0&#45;&gt;Node1</title>
<g id="a_edge89_Node000000_Node000001"><a xlink:title=" ">
<path fill="none" stroke="#63b8ff" d="M88.65,-77.83C107.28,-83.94 129.38,-91.19 148.72,-97.54"/>
<polygon fill="#63b8ff" stroke="#63b8ff" points="89.87,-74.55 79.28,-74.76 87.69,-81.2 89.87,-74.55"/>
</a>
</g>
</g>
<!-- Node2 -->
<g id="Node000002" class="node">
<title>Node2</title>
<g id="a_Node000002"><a xlink:href="structzml_1_1detail_1_1_type_var_type_storage.html" target="_top" xlink:title=" ">
<polygon fill="white" stroke="#666666" points="259.25,-79.5 136,-79.5 136,-49 259.25,-49 259.25,-79.5"/>
<text text-anchor="start" x="144" y="-66" font-family="Helvetica,sans-Serif" font-size="10.00">zml::detail::TypeVarType</text>
<text text-anchor="middle" x="197.62" y="-54.75" font-family="Helvetica,sans-Serif" font-size="10.00">Storage</text>
</a>
</g>
</g>
<!-- Node0&#45;&gt;Node2 -->
<g id="edge90_Node000000_Node000002" class="edge">
<title>Node0&#45;&gt;Node2</title>
<g id="a_edge90_Node000000_Node000002"><a xlink:title=" ">
<path fill="none" stroke="#63b8ff" d="M104.22,-64.25C114.48,-64.25 125.22,-64.25 135.59,-64.25"/>
<polygon fill="#63b8ff" stroke="#63b8ff" points="104.39,-60.75 94.39,-64.25 104.39,-67.75 104.39,-60.75"/>
</a>
</g>
</g>
<!-- Node3 -->
<g id="Node000003" class="node">
<title>Node3</title>
<g id="a_Node000003"><a xlink:href="structzml_1_1detail_1_1_var_args_type_storage.html" target="_top" xlink:title=" ">
<polygon fill="white" stroke="#666666" points="258.88,-30.5 136.38,-30.5 136.38,0 258.88,0 258.88,-30.5"/>
<text text-anchor="start" x="144.38" y="-17" font-family="Helvetica,sans-Serif" font-size="10.00">zml::detail::VarArgsType</text>
<text text-anchor="middle" x="197.62" y="-5.75" font-family="Helvetica,sans-Serif" font-size="10.00">Storage</text>
</a>
</g>
</g>
<!-- Node0&#45;&gt;Node3 -->
<g id="edge91_Node000000_Node000003" class="edge">
<title>Node0&#45;&gt;Node3</title>
<g id="a_edge91_Node000000_Node000003"><a xlink:title=" ">
<path fill="none" stroke="#63b8ff" d="M88.65,-50.67C107.28,-44.56 129.38,-37.31 148.72,-30.96"/>
<polygon fill="#63b8ff" stroke="#63b8ff" points="87.69,-47.3 79.28,-53.74 89.87,-53.95 87.69,-47.3"/>
</a>
</g>
</g>
</g>
</svg>
