<?xml version="1.0" encoding="UTF-8" standalone="no"?>
<!DOCTYPE svg PUBLIC "-//W3C//DTD SVG 1.1//EN"
 "http://www.w3.org/Graphics/SVG/1.1/DTD/svg11.dtd">
<!-- Generated by graphviz version 12.2.1 (20241206.2353)
 -->
<!-- Title: Graphical Class Hierarchy Pages: 1 -->
<svg width="261pt" height="101pt"
 viewBox="0.00 0.00 261.25 101.25" xmlns="http://www.w3.org/2000/svg" xmlns:xlink="http://www.w3.org/1999/xlink">
<g id="graph0" class="graph" transform="scale(1 1) rotate(0) translate(4 97.25)">
<title>Graphical Class Hierarchy</title>
<!-- Node0 -->
<g id="Node000000" class="node">
<title>Node0</title>
<g id="a_Node000000"><a xlink:title=" ">
<polygon fill="#e0e0e0" stroke="#999999" points="108.25,-56.25 0,-56.25 0,-37 108.25,-37 108.25,-56.25"/>
<text text-anchor="middle" x="54.12" y="-42.75" font-family="Helvetica,sans-Serif" font-size="10.00">mlir::Type::TypeBase</text>
</a>
</g>
</g>
<!-- Node1 -->
<g id="Node000001" class="node">
<title>Node1</title>
<g id="a_Node000001"><a xlink:href="classzml_1_1_component_type.html" target="_top" xlink:title=" ">
<polygon fill="white" stroke="#666666" points="253.25,-93.25 144.25,-93.25 144.25,-74 253.25,-74 253.25,-93.25"/>
<text text-anchor="middle" x="198.75" y="-79.75" font-family="Helvetica,sans-Serif" font-size="10.00">zml::ComponentType</text>
</a>
</g>
</g>
<!-- Node0&#45;&gt;Node1 -->
<g id="edge83_Node000000_Node000001" class="edge">
<title>Node0&#45;&gt;Node1</title>
<g id="a_edge83_Node000000_Node000001"><a xlink:title=" ">
<path fill="none" stroke="#63b8ff" d="M105.07,-59.58C122.7,-64.15 142.24,-69.23 158.82,-73.53"/>
<polygon fill="#63b8ff" stroke="#63b8ff" points="106.12,-56.24 95.56,-57.12 104.36,-63.01 106.12,-56.24"/>
</a>
</g>
</g>
<!-- Node2 -->
<g id="Node000002" class="node">
<title>Node2</title>
<g id="a_Node000002"><a xlink:href="classzml_1_1_type_var_type.html" target="_top" xlink:title=" ">
<polygon fill="white" stroke="#666666" points="245.75,-56.25 151.75,-56.25 151.75,-37 245.75,-37 245.75,-56.25"/>
<text text-anchor="middle" x="198.75" y="-42.75" font-family="Helvetica,sans-Serif" font-size="10.00">zml::TypeVarType</text>
</a>
</g>
</g>
<!-- Node0&#45;&gt;Node2 -->
<g id="edge84_Node000000_Node000002" class="edge">
<title>Node0&#45;&gt;Node2</title>
<g id="a_edge84_Node000000_Node000002"><a xlink:title=" ">
<path fill="none" stroke="#63b8ff" d="M120.02,-46.62C130.61,-46.62 141.39,-46.62 151.42,-46.62"/>
<polygon fill="#63b8ff" stroke="#63b8ff" points="120.15,-43.13 110.15,-46.63 120.15,-50.13 120.15,-43.13"/>
</a>
</g>
</g>
<!-- Node3 -->
<g id="Node000003" class="node">
<title>Node3</title>
<g id="a_Node000003"><a xlink:href="classzml_1_1_var_args_type.html" target="_top" xlink:title=" ">
<polygon fill="white" stroke="#666666" points="245.38,-19.25 152.12,-19.25 152.12,0 245.38,0 245.38,-19.25"/>
<text text-anchor="middle" x="198.75" y="-5.75" font-family="Helvetica,sans-Serif" font-size="10.00">zml::VarArgsType</text>
</a>
</g>
</g>
<!-- Node0&#45;&gt;Node3 -->
<g id="edge85_Node000000_Node000003" class="edge">
<title>Node0&#45;&gt;Node3</title>
<g id="a_edge85_Node000000_Node000003"><a xlink:title=" ">
<path fill="none" stroke="#63b8ff" d="M105.07,-33.67C122.7,-29.1 142.24,-24.02 158.82,-19.72"/>
<polygon fill="#63b8ff" stroke="#63b8ff" points="104.36,-30.24 95.56,-36.13 106.12,-37.01 104.36,-30.24"/>
</a>
</g>
</g>
</g>
</svg>
