<?xml version="1.0" encoding="UTF-8" standalone="no"?>
<!DOCTYPE svg PUBLIC "-//W3C//DTD SVG 1.1//EN"
 "http://www.w3.org/Graphics/SVG/1.1/DTD/svg11.dtd">
<!-- Generated by graphviz version 12.2.1 (20241206.2353)
 -->
<!-- Title: Graphical Class Hierarchy Pages: 1 -->
<svg width="476pt" height="147pt"
 viewBox="0.00 0.00 476.00 147.12" xmlns="http://www.w3.org/2000/svg" xmlns:xlink="http://www.w3.org/1999/xlink">
<g id="graph0" class="graph" transform="scale(1 1) rotate(0) translate(4 143.12)">
<title>Graphical Class Hierarchy</title>
<!-- Node0 -->
<g id="Node000000" class="node">
<title>Node0</title>
<g id="a_Node000000"><a xlink:href="classzml_1_1detail_1_1_write_field_op_generic_adaptor_base.html" target="_top" xlink:title=" ">
<polygon fill="white" stroke="#666666" points="123.25,-79.5 0,-79.5 0,-49 123.25,-49 123.25,-79.5"/>
<text text-anchor="start" x="8" y="-66" font-family="Helvetica,sans-Serif" font-size="10.00">zml::detail::WriteFieldOp</text>
<text text-anchor="middle" x="61.62" y="-54.75" font-family="Helvetica,sans-Serif" font-size="10.00">GenericAdaptorBase</text>
</a>
</g>
</g>
<!-- Node1 -->
<g id="Node000001" class="node">
<title>Node1</title>
<g id="a_Node000001"><a xlink:href="classzml_1_1_write_field_op_generic_adaptor.html" target="_top" xlink:title=" ">
<polygon fill="white" stroke="#666666" points="295.62,-139.12 167.88,-139.12 167.88,-97.38 295.62,-97.38 295.62,-139.12"/>
<text text-anchor="start" x="175.88" y="-125.62" font-family="Helvetica,sans-Serif" font-size="10.00">zml::WriteFieldOpGeneric</text>
<text text-anchor="start" x="175.88" y="-114.38" font-family="Helvetica,sans-Serif" font-size="10.00">Adaptor&lt;::llvm::ArrayRef</text>
<text text-anchor="middle" x="231.75" y="-103.12" font-family="Helvetica,sans-Serif" font-size="10.00">&lt;::mlir::Attribute &gt; &gt;</text>
</a>
</g>
</g>
<!-- Node0&#45;&gt;Node1 -->
<g id="edge377_Node000000_Node000001" class="edge">
<title>Node0&#45;&gt;Node1</title>
<g id="a_edge377_Node000000_Node000001"><a xlink:title=" ">
<path fill="none" stroke="#63b8ff" d="M121.8,-83.26C136.59,-88.01 152.52,-93.12 167.51,-97.94"/>
<polygon fill="#63b8ff" stroke="#63b8ff" points="123.29,-80.06 112.69,-80.33 121.15,-86.72 123.29,-80.06"/>
</a>
</g>
</g>
<!-- Node2 -->
<g id="Node000002" class="node">
<title>Node2</title>
<g id="a_Node000002"><a xlink:href="classzml_1_1_write_field_op_generic_adaptor.html" target="_top" xlink:title=" ">
<polygon fill="white" stroke="#666666" points="304.25,-79.5 159.25,-79.5 159.25,-49 304.25,-49 304.25,-79.5"/>
<text text-anchor="start" x="167.25" y="-66" font-family="Helvetica,sans-Serif" font-size="10.00">zml::WriteFieldOpGeneric</text>
<text text-anchor="middle" x="231.75" y="-54.75" font-family="Helvetica,sans-Serif" font-size="10.00">Adaptor&lt;::mlir::ValueRange &gt;</text>
</a>
</g>
</g>
<!-- Node0&#45;&gt;Node2 -->
<g id="edge378_Node000000_Node000002" class="edge">
<title>Node0&#45;&gt;Node2</title>
<g id="a_edge378_Node000000_Node000002"><a xlink:title=" ">
<path fill="none" stroke="#63b8ff" d="M134.6,-64.25C142.68,-64.25 150.91,-64.25 158.98,-64.25"/>
<polygon fill="#63b8ff" stroke="#63b8ff" points="134.84,-60.75 124.84,-64.25 134.84,-67.75 134.84,-60.75"/>
</a>
</g>
</g>
<!-- Node4 -->
<g id="Node000004" class="node">
<title>Node4</title>
<g id="a_Node000004"><a xlink:href="classzml_1_1_write_field_op_generic_adaptor.html" target="_top" xlink:title=" ">
<polygon fill="white" stroke="#666666" points="295.62,-30.5 167.88,-30.5 167.88,0 295.62,0 295.62,-30.5"/>
<text text-anchor="start" x="175.88" y="-17" font-family="Helvetica,sans-Serif" font-size="10.00">zml::WriteFieldOpGeneric</text>
<text text-anchor="middle" x="231.75" y="-5.75" font-family="Helvetica,sans-Serif" font-size="10.00">Adaptor&lt; RangeT &gt;</text>
</a>
</g>
</g>
<!-- Node0&#45;&gt;Node4 -->
<g id="edge380_Node000000_Node000004" class="edge">
<title>Node0&#45;&gt;Node4</title>
<g id="a_edge380_Node000000_Node000004"><a xlink:title=" ">
<path fill="none" stroke="#63b8ff" d="M126.91,-45.52C143.35,-40.72 160.87,-35.62 176.74,-30.99"/>
<polygon fill="#63b8ff" stroke="#63b8ff" points="126.36,-42.03 117.74,-48.19 128.32,-48.75 126.36,-42.03"/>
</a>
</g>
</g>
<!-- Node3 -->
<g id="Node000003" class="node">
<title>Node3</title>
<g id="a_Node000003"><a xlink:href="classzml_1_1_write_field_op_adaptor.html" target="_top" xlink:title=" ">
<polygon fill="white" stroke="#666666" points="468,-73.88 340.25,-73.88 340.25,-54.62 468,-54.62 468,-73.88"/>
<text text-anchor="middle" x="404.12" y="-60.38" font-family="Helvetica,sans-Serif" font-size="10.00">zml::WriteFieldOpAdaptor</text>
</a>
</g>
</g>
<!-- Node2&#45;&gt;Node3 -->
<g id="edge379_Node000002_Node000003" class="edge">
<title>Node2&#45;&gt;Node3</title>
<g id="a_edge379_Node000002_Node000003"><a xlink:title=" ">
<path fill="none" stroke="#63b8ff" d="M315.86,-64.25C323.92,-64.25 332.01,-64.25 339.83,-64.25"/>
<polygon fill="#63b8ff" stroke="#63b8ff" points="316.02,-60.75 306.02,-64.25 316.02,-67.75 316.02,-60.75"/>
</a>
</g>
</g>
</g>
</svg>
