<?xml version="1.0" encoding="UTF-8" standalone="no"?>
<!DOCTYPE svg PUBLIC "-//W3C//DTD SVG 1.1//EN"
 "http://www.w3.org/Graphics/SVG/1.1/DTD/svg11.dtd">
<!-- Generated by graphviz version 12.2.1 (20241206.2353)
 -->
<!-- Title: Graphical Class Hierarchy Pages: 1 -->
<svg width="466pt" height="147pt"
 viewBox="0.00 0.00 465.50 147.12" xmlns="http://www.w3.org/2000/svg" xmlns:xlink="http://www.w3.org/1999/xlink">
<g id="graph0" class="graph" transform="scale(1 1) rotate(0) translate(4 143.12)">
<title>Graphical Class Hierarchy</title>
<!-- Node0 -->
<g id="Node000000" class="node">
<title>Node0</title>
<g id="a_Node000000"><a xlink:href="classzml_1_1detail_1_1_lit_str_op_generic_adaptor_base.html" target="_top" xlink:title=" ">
<polygon fill="white" stroke="#666666" points="136.75,-79.5 0,-79.5 0,-49 136.75,-49 136.75,-79.5"/>
<text text-anchor="start" x="8" y="-66" font-family="Helvetica,sans-Serif" font-size="10.00">zml::detail::LitStrOpGeneric</text>
<text text-anchor="middle" x="68.38" y="-54.75" font-family="Helvetica,sans-Serif" font-size="10.00">AdaptorBase</text>
</a>
</g>
</g>
<!-- Node1 -->
<g id="Node000001" class="node">
<title>Node1</title>
<g id="a_Node000001"><a xlink:href="classzml_1_1_lit_str_op_generic_adaptor.html" target="_top" xlink:title=" ">
<polygon fill="white" stroke="#666666" points="314,-139.12 172.75,-139.12 172.75,-97.38 314,-97.38 314,-139.12"/>
<text text-anchor="start" x="180.75" y="-125.62" font-family="Helvetica,sans-Serif" font-size="10.00">zml::LitStrOpGenericAdaptor</text>
<text text-anchor="start" x="180.75" y="-114.38" font-family="Helvetica,sans-Serif" font-size="10.00">&lt;::llvm::ArrayRef&lt;::mlir</text>
<text text-anchor="middle" x="243.38" y="-103.12" font-family="Helvetica,sans-Serif" font-size="10.00">::Attribute &gt; &gt;</text>
</a>
</g>
</g>
<!-- Node0&#45;&gt;Node1 -->
<g id="edge285_Node000000_Node000001" class="edge">
<title>Node0&#45;&gt;Node1</title>
<g id="a_edge285_Node000000_Node000001"><a xlink:title=" ">
<path fill="none" stroke="#63b8ff" d="M130.07,-83.2C144.31,-87.64 159.57,-92.4 174.11,-96.94"/>
<polygon fill="#63b8ff" stroke="#63b8ff" points="131.45,-79.96 120.86,-80.32 129.36,-86.64 131.45,-79.96"/>
</a>
</g>
</g>
<!-- Node2 -->
<g id="Node000002" class="node">
<title>Node2</title>
<g id="a_Node000002"><a xlink:href="classzml_1_1_lit_str_op_generic_adaptor.html" target="_top" xlink:title=" ">
<polygon fill="white" stroke="#666666" points="314,-79.5 172.75,-79.5 172.75,-49 314,-49 314,-79.5"/>
<text text-anchor="start" x="180.75" y="-66" font-family="Helvetica,sans-Serif" font-size="10.00">zml::LitStrOpGenericAdaptor</text>
<text text-anchor="middle" x="243.38" y="-54.75" font-family="Helvetica,sans-Serif" font-size="10.00">&lt;::mlir::ValueRange &gt;</text>
</a>
</g>
</g>
<!-- Node0&#45;&gt;Node2 -->
<g id="edge286_Node000000_Node000002" class="edge">
<title>Node0&#45;&gt;Node2</title>
<g id="a_edge286_Node000000_Node000002"><a xlink:title=" ">
<path fill="none" stroke="#63b8ff" d="M148.09,-64.25C156.17,-64.25 164.34,-64.25 172.32,-64.25"/>
<polygon fill="#63b8ff" stroke="#63b8ff" points="148.27,-60.75 138.27,-64.25 148.27,-67.75 148.27,-60.75"/>
</a>
</g>
</g>
<!-- Node4 -->
<g id="Node000004" class="node">
<title>Node4</title>
<g id="a_Node000004"><a xlink:href="classzml_1_1_lit_str_op_generic_adaptor.html" target="_top" xlink:title=" ">
<polygon fill="white" stroke="#666666" points="314,-30.5 172.75,-30.5 172.75,0 314,0 314,-30.5"/>
<text text-anchor="start" x="180.75" y="-17" font-family="Helvetica,sans-Serif" font-size="10.00">zml::LitStrOpGenericAdaptor</text>
<text text-anchor="middle" x="243.38" y="-5.75" font-family="Helvetica,sans-Serif" font-size="10.00">&lt; RangeT &gt;</text>
</a>
</g>
</g>
<!-- Node0&#45;&gt;Node4 -->
<g id="edge288_Node000000_Node000004" class="edge">
<title>Node0&#45;&gt;Node4</title>
<g id="a_edge288_Node000000_Node000004"><a xlink:title=" ">
<path fill="none" stroke="#63b8ff" d="M135.52,-45.52C152.44,-40.72 170.47,-35.62 186.8,-30.99"/>
<polygon fill="#63b8ff" stroke="#63b8ff" points="134.71,-42.11 126.05,-48.2 136.62,-48.84 134.71,-42.11"/>
</a>
</g>
</g>
<!-- Node3 -->
<g id="Node000003" class="node">
<title>Node3</title>
<g id="a_Node000003"><a xlink:href="classzml_1_1_lit_str_op_adaptor.html" target="_top" xlink:title=" ">
<polygon fill="white" stroke="#666666" points="457.5,-73.88 350,-73.88 350,-54.62 457.5,-54.62 457.5,-73.88"/>
<text text-anchor="middle" x="403.75" y="-60.38" font-family="Helvetica,sans-Serif" font-size="10.00">zml::LitStrOpAdaptor</text>
</a>
</g>
</g>
<!-- Node2&#45;&gt;Node3 -->
<g id="edge287_Node000002_Node000003" class="edge">
<title>Node2&#45;&gt;Node3</title>
<g id="a_edge287_Node000002_Node000003"><a xlink:title=" ">
<path fill="none" stroke="#63b8ff" d="M325.54,-64.25C333.79,-64.25 342.01,-64.25 349.85,-64.25"/>
<polygon fill="#63b8ff" stroke="#63b8ff" points="325.82,-60.75 315.82,-64.25 325.82,-67.75 325.82,-60.75"/>
</a>
</g>
</g>
</g>
</svg>
