<?xml version="1.0" encoding="UTF-8" standalone="no"?>
<!DOCTYPE svg PUBLIC "-//W3C//DTD SVG 1.1//EN"
 "http://www.w3.org/Graphics/SVG/1.1/DTD/svg11.dtd">
<!-- Generated by graphviz version 12.2.1 (20241206.2353)
 -->
<!-- Title: Graphical Class Hierarchy Pages: 1 -->
<svg width="502pt" height="147pt"
 viewBox="0.00 0.00 501.50 147.12" xmlns="http://www.w3.org/2000/svg" xmlns:xlink="http://www.w3.org/1999/xlink">
<g id="graph0" class="graph" transform="scale(1 1) rotate(0) translate(4 143.12)">
<title>Graphical Class Hierarchy</title>
<!-- Node0 -->
<g id="Node000000" class="node">
<title>Node0</title>
<g id="a_Node000000"><a xlink:href="classzml_1_1detail_1_1_read_array_op_generic_adaptor_base.html" target="_top" xlink:title=" ">
<polygon fill="white" stroke="#666666" points="126.25,-79.5 0,-79.5 0,-49 126.25,-49 126.25,-79.5"/>
<text text-anchor="start" x="8" y="-66" font-family="Helvetica,sans-Serif" font-size="10.00">zml::detail::ReadArrayOp</text>
<text text-anchor="middle" x="63.12" y="-54.75" font-family="Helvetica,sans-Serif" font-size="10.00">GenericAdaptorBase</text>
</a>
</g>
</g>
<!-- Node1 -->
<g id="Node000001" class="node">
<title>Node1</title>
<g id="a_Node000001"><a xlink:href="classzml_1_1_read_array_op_generic_adaptor.html" target="_top" xlink:title=" ">
<polygon fill="white" stroke="#666666" points="326.75,-139.12 162.25,-139.12 162.25,-97.38 326.75,-97.38 326.75,-139.12"/>
<text text-anchor="start" x="170.25" y="-125.62" font-family="Helvetica,sans-Serif" font-size="10.00">zml::ReadArrayOpGenericAdaptor</text>
<text text-anchor="start" x="170.25" y="-114.38" font-family="Helvetica,sans-Serif" font-size="10.00">&lt;::llvm::ArrayRef&lt;::mlir::</text>
<text text-anchor="middle" x="244.5" y="-103.12" font-family="Helvetica,sans-Serif" font-size="10.00">Attribute &gt; &gt;</text>
</a>
</g>
</g>
<!-- Node0&#45;&gt;Node1 -->
<g id="edge325_Node000000_Node000001" class="edge">
<title>Node0&#45;&gt;Node1</title>
<g id="a_edge325_Node000000_Node000001"><a xlink:title=" ">
<path fill="none" stroke="#63b8ff" d="M126.62,-83.06C141.51,-87.55 157.49,-92.36 172.72,-96.94"/>
<polygon fill="#63b8ff" stroke="#63b8ff" points="128.04,-79.84 117.46,-80.31 126.02,-86.54 128.04,-79.84"/>
</a>
</g>
</g>
<!-- Node2 -->
<g id="Node000002" class="node">
<title>Node2</title>
<g id="a_Node000002"><a xlink:href="classzml_1_1_read_array_op_generic_adaptor.html" target="_top" xlink:title=" ">
<polygon fill="white" stroke="#666666" points="326.75,-79.5 162.25,-79.5 162.25,-49 326.75,-49 326.75,-79.5"/>
<text text-anchor="start" x="170.25" y="-66" font-family="Helvetica,sans-Serif" font-size="10.00">zml::ReadArrayOpGenericAdaptor</text>
<text text-anchor="middle" x="244.5" y="-54.75" font-family="Helvetica,sans-Serif" font-size="10.00">&lt;::mlir::ValueRange &gt;</text>
</a>
</g>
</g>
<!-- Node0&#45;&gt;Node2 -->
<g id="edge326_Node000000_Node000002" class="edge">
<title>Node0&#45;&gt;Node2</title>
<g id="a_edge326_Node000000_Node000002"><a xlink:title=" ">
<path fill="none" stroke="#63b8ff" d="M138.04,-64.25C145.94,-64.25 154.01,-64.25 161.99,-64.25"/>
<polygon fill="#63b8ff" stroke="#63b8ff" points="138.12,-60.75 128.12,-64.25 138.12,-67.75 138.12,-60.75"/>
</a>
</g>
</g>
<!-- Node4 -->
<g id="Node000004" class="node">
<title>Node4</title>
<g id="a_Node000004"><a xlink:href="classzml_1_1_read_array_op_generic_adaptor.html" target="_top" xlink:title=" ">
<polygon fill="white" stroke="#666666" points="326.75,-30.5 162.25,-30.5 162.25,0 326.75,0 326.75,-30.5"/>
<text text-anchor="start" x="170.25" y="-17" font-family="Helvetica,sans-Serif" font-size="10.00">zml::ReadArrayOpGenericAdaptor</text>
<text text-anchor="middle" x="244.5" y="-5.75" font-family="Helvetica,sans-Serif" font-size="10.00">&lt; RangeT &gt;</text>
</a>
</g>
</g>
<!-- Node0&#45;&gt;Node4 -->
<g id="edge328_Node000000_Node000004" class="edge">
<title>Node0&#45;&gt;Node4</title>
<g id="a_edge328_Node000000_Node000004"><a xlink:title=" ">
<path fill="none" stroke="#63b8ff" d="M132.46,-45.58C150.08,-40.77 168.86,-35.64 185.87,-30.99"/>
<polygon fill="#63b8ff" stroke="#63b8ff" points="131.56,-42.2 122.83,-48.21 133.4,-48.95 131.56,-42.2"/>
</a>
</g>
</g>
<!-- Node3 -->
<g id="Node000003" class="node">
<title>Node3</title>
<g id="a_Node000003"><a xlink:href="classzml_1_1_read_array_op_adaptor.html" target="_top" xlink:title=" ">
<polygon fill="white" stroke="#666666" points="493.5,-73.88 362.75,-73.88 362.75,-54.62 493.5,-54.62 493.5,-73.88"/>
<text text-anchor="middle" x="428.12" y="-60.38" font-family="Helvetica,sans-Serif" font-size="10.00">zml::ReadArrayOpAdaptor</text>
</a>
</g>
</g>
<!-- Node2&#45;&gt;Node3 -->
<g id="edge327_Node000002_Node000003" class="edge">
<title>Node2&#45;&gt;Node3</title>
<g id="a_edge327_Node000002_Node000003"><a xlink:title=" ">
<path fill="none" stroke="#63b8ff" d="M338.47,-64.25C346.58,-64.25 354.67,-64.25 362.48,-64.25"/>
<polygon fill="#63b8ff" stroke="#63b8ff" points="338.53,-60.75 328.53,-64.25 338.53,-67.75 338.53,-60.75"/>
</a>
</g>
</g>
</g>
</svg>
