<?xml version="1.0" encoding="UTF-8" standalone="no"?>
<!DOCTYPE svg PUBLIC "-//W3C//DTD SVG 1.1//EN"
 "http://www.w3.org/Graphics/SVG/1.1/DTD/svg11.dtd">
<!-- Generated by graphviz version 12.2.1 (20241206.2353)
 -->
<!-- Title: Graphical Class Hierarchy Pages: 1 -->
<svg width="506pt" height="147pt"
 viewBox="0.00 0.00 506.00 147.12" xmlns="http://www.w3.org/2000/svg" xmlns:xlink="http://www.w3.org/1999/xlink">
<g id="graph0" class="graph" transform="scale(1 1) rotate(0) translate(4 143.12)">
<title>Graphical Class Hierarchy</title>
<!-- Node0 -->
<g id="Node000000" class="node">
<title>Node0</title>
<g id="a_Node000000"><a xlink:href="classzml_1_1detail_1_1_in_range_op_generic_adaptor_base.html" target="_top" xlink:title=" ">
<polygon fill="white" stroke="#666666" points="150.25,-79.5 0,-79.5 0,-49 150.25,-49 150.25,-79.5"/>
<text text-anchor="start" x="8" y="-66" font-family="Helvetica,sans-Serif" font-size="10.00">zml::detail::InRangeOpGeneric</text>
<text text-anchor="middle" x="75.12" y="-54.75" font-family="Helvetica,sans-Serif" font-size="10.00">AdaptorBase</text>
</a>
</g>
</g>
<!-- Node1 -->
<g id="Node000001" class="node">
<title>Node1</title>
<g id="a_Node000001"><a xlink:href="classzml_1_1_in_range_op_generic_adaptor.html" target="_top" xlink:title=" ">
<polygon fill="white" stroke="#666666" points="341,-139.12 186.25,-139.12 186.25,-97.38 341,-97.38 341,-139.12"/>
<text text-anchor="start" x="194.25" y="-125.62" font-family="Helvetica,sans-Serif" font-size="10.00">zml::InRangeOpGenericAdaptor</text>
<text text-anchor="start" x="194.25" y="-114.38" font-family="Helvetica,sans-Serif" font-size="10.00">&lt;::llvm::ArrayRef&lt;::mlir</text>
<text text-anchor="middle" x="263.62" y="-103.12" font-family="Helvetica,sans-Serif" font-size="10.00">::Attribute &gt; &gt;</text>
</a>
</g>
</g>
<!-- Node0&#45;&gt;Node1 -->
<g id="edge273_Node000000_Node000001" class="edge">
<title>Node0&#45;&gt;Node1</title>
<g id="a_edge273_Node000000_Node000001"><a xlink:title=" ">
<path fill="none" stroke="#63b8ff" d="M141.28,-83.12C156.65,-87.57 173.15,-92.34 188.86,-96.89"/>
<polygon fill="#63b8ff" stroke="#63b8ff" points="142.35,-79.78 131.77,-80.36 140.4,-86.51 142.35,-79.78"/>
</a>
</g>
</g>
<!-- Node2 -->
<g id="Node000002" class="node">
<title>Node2</title>
<g id="a_Node000002"><a xlink:href="classzml_1_1_in_range_op_generic_adaptor.html" target="_top" xlink:title=" ">
<polygon fill="white" stroke="#666666" points="341,-79.5 186.25,-79.5 186.25,-49 341,-49 341,-79.5"/>
<text text-anchor="start" x="194.25" y="-66" font-family="Helvetica,sans-Serif" font-size="10.00">zml::InRangeOpGenericAdaptor</text>
<text text-anchor="middle" x="263.62" y="-54.75" font-family="Helvetica,sans-Serif" font-size="10.00">&lt;::mlir::ValueRange &gt;</text>
</a>
</g>
</g>
<!-- Node0&#45;&gt;Node2 -->
<g id="edge274_Node000000_Node000002" class="edge">
<title>Node0&#45;&gt;Node2</title>
<g id="a_edge274_Node000000_Node000002"><a xlink:title=" ">
<path fill="none" stroke="#63b8ff" d="M162.13,-64.25C170.02,-64.25 177.98,-64.25 185.79,-64.25"/>
<polygon fill="#63b8ff" stroke="#63b8ff" points="162.15,-60.75 152.15,-64.25 162.15,-67.75 162.15,-60.75"/>
</a>
</g>
</g>
<!-- Node4 -->
<g id="Node000004" class="node">
<title>Node4</title>
<g id="a_Node000004"><a xlink:href="classzml_1_1_in_range_op_generic_adaptor.html" target="_top" xlink:title=" ">
<polygon fill="white" stroke="#666666" points="341,-30.5 186.25,-30.5 186.25,0 341,0 341,-30.5"/>
<text text-anchor="start" x="194.25" y="-17" font-family="Helvetica,sans-Serif" font-size="10.00">zml::InRangeOpGenericAdaptor</text>
<text text-anchor="middle" x="263.62" y="-5.75" font-family="Helvetica,sans-Serif" font-size="10.00">&lt; RangeT &gt;</text>
</a>
</g>
</g>
<!-- Node0&#45;&gt;Node4 -->
<g id="edge276_Node000000_Node000004" class="edge">
<title>Node0&#45;&gt;Node4</title>
<g id="a_edge276_Node000000_Node000004"><a xlink:title=" ">
<path fill="none" stroke="#63b8ff" d="M146.9,-45.66C165.35,-40.81 185.05,-35.63 202.86,-30.95"/>
<polygon fill="#63b8ff" stroke="#63b8ff" points="146.15,-42.23 137.37,-48.16 147.93,-49 146.15,-42.23"/>
</a>
</g>
</g>
<!-- Node3 -->
<g id="Node000003" class="node">
<title>Node3</title>
<g id="a_Node000003"><a xlink:href="classzml_1_1_in_range_op_adaptor.html" target="_top" xlink:title=" ">
<polygon fill="white" stroke="#666666" points="498,-73.88 377,-73.88 377,-54.62 498,-54.62 498,-73.88"/>
<text text-anchor="middle" x="437.5" y="-60.38" font-family="Helvetica,sans-Serif" font-size="10.00">zml::InRangeOpAdaptor</text>
</a>
</g>
</g>
<!-- Node2&#45;&gt;Node3 -->
<g id="edge275_Node000002_Node000003" class="edge">
<title>Node2&#45;&gt;Node3</title>
<g id="a_edge275_Node000002_Node000003"><a xlink:title=" ">
<path fill="none" stroke="#63b8ff" d="M352.66,-64.25C360.73,-64.25 368.78,-64.25 376.52,-64.25"/>
<polygon fill="#63b8ff" stroke="#63b8ff" points="352.78,-60.75 342.78,-64.25 352.78,-67.75 352.78,-60.75"/>
</a>
</g>
</g>
</g>
</svg>
