<?xml version="1.0" encoding="UTF-8" standalone="no"?>
<!DOCTYPE svg PUBLIC "-//W3C//DTD SVG 1.1//EN"
 "http://www.w3.org/Graphics/SVG/1.1/DTD/svg11.dtd">
<!-- Generated by graphviz version 12.2.1 (20241206.2353)
 -->
<!-- Title: Graphical Class Hierarchy Pages: 1 -->
<svg width="526pt" height="147pt"
 viewBox="0.00 0.00 526.25 147.12" xmlns="http://www.w3.org/2000/svg" xmlns:xlink="http://www.w3.org/1999/xlink">
<g id="graph0" class="graph" transform="scale(1 1) rotate(0) translate(4 143.12)">
<title>Graphical Class Hierarchy</title>
<!-- Node0 -->
<g id="Node000000" class="node">
<title>Node0</title>
<g id="a_Node000000"><a xlink:href="classzml_1_1detail_1_1_new_array_op_generic_adaptor_base.html" target="_top" xlink:title=" ">
<polygon fill="white" stroke="#666666" points="157,-79.5 0,-79.5 0,-49 157,-49 157,-79.5"/>
<text text-anchor="start" x="8" y="-66" font-family="Helvetica,sans-Serif" font-size="10.00">zml::detail::NewArrayOpGeneric</text>
<text text-anchor="middle" x="78.5" y="-54.75" font-family="Helvetica,sans-Serif" font-size="10.00">AdaptorBase</text>
</a>
</g>
</g>
<!-- Node1 -->
<g id="Node000001" class="node">
<title>Node1</title>
<g id="a_Node000001"><a xlink:href="classzml_1_1_new_array_op_generic_adaptor.html" target="_top" xlink:title=" ">
<polygon fill="white" stroke="#666666" points="354.5,-139.12 193,-139.12 193,-97.38 354.5,-97.38 354.5,-139.12"/>
<text text-anchor="start" x="201" y="-125.62" font-family="Helvetica,sans-Serif" font-size="10.00">zml::NewArrayOpGenericAdaptor</text>
<text text-anchor="start" x="201" y="-114.38" font-family="Helvetica,sans-Serif" font-size="10.00">&lt;::llvm::ArrayRef&lt;::mlir</text>
<text text-anchor="middle" x="273.75" y="-103.12" font-family="Helvetica,sans-Serif" font-size="10.00">::Attribute &gt; &gt;</text>
</a>
</g>
</g>
<!-- Node0&#45;&gt;Node1 -->
<g id="edge317_Node000000_Node000001" class="edge">
<title>Node0&#45;&gt;Node1</title>
<g id="a_edge317_Node000000_Node000001"><a xlink:title=" ">
<path fill="none" stroke="#63b8ff" d="M146.55,-82.99C162.61,-87.47 179.87,-92.3 196.32,-96.89"/>
<polygon fill="#63b8ff" stroke="#63b8ff" points="147.69,-79.67 137.11,-80.35 145.8,-86.41 147.69,-79.67"/>
</a>
</g>
</g>
<!-- Node2 -->
<g id="Node000002" class="node">
<title>Node2</title>
<g id="a_Node000002"><a xlink:href="classzml_1_1_new_array_op_generic_adaptor.html" target="_top" xlink:title=" ">
<polygon fill="white" stroke="#666666" points="354.5,-79.5 193,-79.5 193,-49 354.5,-49 354.5,-79.5"/>
<text text-anchor="start" x="201" y="-66" font-family="Helvetica,sans-Serif" font-size="10.00">zml::NewArrayOpGenericAdaptor</text>
<text text-anchor="middle" x="273.75" y="-54.75" font-family="Helvetica,sans-Serif" font-size="10.00">&lt;::mlir::ValueRange &gt;</text>
</a>
</g>
</g>
<!-- Node0&#45;&gt;Node2 -->
<g id="edge318_Node000000_Node000002" class="edge">
<title>Node0&#45;&gt;Node2</title>
<g id="a_edge318_Node000000_Node000002"><a xlink:title=" ">
<path fill="none" stroke="#63b8ff" d="M168.55,-64.25C176.58,-64.25 184.67,-64.25 192.62,-64.25"/>
<polygon fill="#63b8ff" stroke="#63b8ff" points="168.78,-60.75 158.78,-64.25 168.78,-67.75 168.78,-60.75"/>
</a>
</g>
</g>
<!-- Node4 -->
<g id="Node000004" class="node">
<title>Node4</title>
<g id="a_Node000004"><a xlink:href="classzml_1_1_new_array_op_generic_adaptor.html" target="_top" xlink:title=" ">
<polygon fill="white" stroke="#666666" points="354.5,-30.5 193,-30.5 193,0 354.5,0 354.5,-30.5"/>
<text text-anchor="start" x="201" y="-17" font-family="Helvetica,sans-Serif" font-size="10.00">zml::NewArrayOpGenericAdaptor</text>
<text text-anchor="middle" x="273.75" y="-5.75" font-family="Helvetica,sans-Serif" font-size="10.00">&lt; RangeT &gt;</text>
</a>
</g>
</g>
<!-- Node0&#45;&gt;Node4 -->
<g id="edge320_Node000000_Node000004" class="edge">
<title>Node0&#45;&gt;Node4</title>
<g id="a_edge320_Node000000_Node000004"><a xlink:title=" ">
<path fill="none" stroke="#63b8ff" d="M152.57,-45.72C171.76,-40.86 192.28,-35.65 210.83,-30.95"/>
<polygon fill="#63b8ff" stroke="#63b8ff" points="151.74,-42.32 142.91,-48.17 153.46,-49.11 151.74,-42.32"/>
</a>
</g>
</g>
<!-- Node3 -->
<g id="Node000003" class="node">
<title>Node3</title>
<g id="a_Node000003"><a xlink:href="classzml_1_1_new_array_op_adaptor.html" target="_top" xlink:title=" ">
<polygon fill="white" stroke="#666666" points="518.25,-73.88 390.5,-73.88 390.5,-54.62 518.25,-54.62 518.25,-73.88"/>
<text text-anchor="middle" x="454.38" y="-60.38" font-family="Helvetica,sans-Serif" font-size="10.00">zml::NewArrayOpAdaptor</text>
</a>
</g>
</g>
<!-- Node2&#45;&gt;Node3 -->
<g id="edge319_Node000002_Node000003" class="edge">
<title>Node2&#45;&gt;Node3</title>
<g id="a_edge319_Node000002_Node000003"><a xlink:title=" ">
<path fill="none" stroke="#63b8ff" d="M366.28,-64.25C374.32,-64.25 382.33,-64.25 390.07,-64.25"/>
<polygon fill="#63b8ff" stroke="#63b8ff" points="366.43,-60.75 356.43,-64.25 366.43,-67.75 366.43,-60.75"/>
</a>
</g>
</g>
</g>
</svg>
