<?xml version="1.0" encoding="UTF-8" standalone="no"?>
<!DOCTYPE svg PUBLIC "-//W3C//DTD SVG 1.1//EN"
 "http://www.w3.org/Graphics/SVG/1.1/DTD/svg11.dtd">
<!-- Generated by graphviz version 12.2.1 (20241206.2353)
 -->
<!-- Title: Graphical Class Hierarchy Pages: 1 -->
<svg width="533pt" height="147pt"
 viewBox="0.00 0.00 533.00 147.12" xmlns="http://www.w3.org/2000/svg" xmlns:xlink="http://www.w3.org/1999/xlink">
<g id="graph0" class="graph" transform="scale(1 1) rotate(0) translate(4 143.12)">
<title>Graphical Class Hierarchy</title>
<!-- Node0 -->
<g id="Node000000" class="node">
<title>Node0</title>
<g id="a_Node000000"><a xlink:href="classzml_1_1detail_1_1_read_back_op_generic_adaptor_base.html" target="_top" xlink:title=" ">
<polygon fill="white" stroke="#666666" points="159.25,-79.5 0,-79.5 0,-49 159.25,-49 159.25,-79.5"/>
<text text-anchor="start" x="8" y="-66" font-family="Helvetica,sans-Serif" font-size="10.00">zml::detail::ReadBackOpGeneric</text>
<text text-anchor="middle" x="79.62" y="-54.75" font-family="Helvetica,sans-Serif" font-size="10.00">AdaptorBase</text>
</a>
</g>
</g>
<!-- Node1 -->
<g id="Node000001" class="node">
<title>Node1</title>
<g id="a_Node000001"><a xlink:href="classzml_1_1_read_back_op_generic_adaptor.html" target="_top" xlink:title=" ">
<polygon fill="white" stroke="#666666" points="359,-139.12 195.25,-139.12 195.25,-97.38 359,-97.38 359,-139.12"/>
<text text-anchor="start" x="203.25" y="-125.62" font-family="Helvetica,sans-Serif" font-size="10.00">zml::ReadBackOpGenericAdaptor</text>
<text text-anchor="start" x="203.25" y="-114.38" font-family="Helvetica,sans-Serif" font-size="10.00">&lt;::llvm::ArrayRef&lt;::mlir</text>
<text text-anchor="middle" x="277.12" y="-103.12" font-family="Helvetica,sans-Serif" font-size="10.00">::Attribute &gt; &gt;</text>
</a>
</g>
</g>
<!-- Node0&#45;&gt;Node1 -->
<g id="edge329_Node000000_Node000001" class="edge">
<title>Node0&#45;&gt;Node1</title>
<g id="a_edge329_Node000000_Node000001"><a xlink:title=" ">
<path fill="none" stroke="#63b8ff" d="M148.46,-82.99C164.7,-87.47 182.17,-92.3 198.8,-96.89"/>
<polygon fill="#63b8ff" stroke="#63b8ff" points="149.46,-79.63 138.89,-80.34 147.6,-86.38 149.46,-79.63"/>
</a>
</g>
</g>
<!-- Node2 -->
<g id="Node000002" class="node">
<title>Node2</title>
<g id="a_Node000002"><a xlink:href="classzml_1_1_read_back_op_generic_adaptor.html" target="_top" xlink:title=" ">
<polygon fill="white" stroke="#666666" points="359,-79.5 195.25,-79.5 195.25,-49 359,-49 359,-79.5"/>
<text text-anchor="start" x="203.25" y="-66" font-family="Helvetica,sans-Serif" font-size="10.00">zml::ReadBackOpGenericAdaptor</text>
<text text-anchor="middle" x="277.12" y="-54.75" font-family="Helvetica,sans-Serif" font-size="10.00">&lt;::mlir::ValueRange &gt;</text>
</a>
</g>
</g>
<!-- Node0&#45;&gt;Node2 -->
<g id="edge330_Node000000_Node000002" class="edge">
<title>Node0&#45;&gt;Node2</title>
<g id="a_edge330_Node000000_Node000002"><a xlink:title=" ">
<path fill="none" stroke="#63b8ff" d="M170.87,-64.25C178.91,-64.25 187.01,-64.25 194.96,-64.25"/>
<polygon fill="#63b8ff" stroke="#63b8ff" points="171.09,-60.75 161.09,-64.25 171.09,-67.75 171.09,-60.75"/>
</a>
</g>
</g>
<!-- Node4 -->
<g id="Node000004" class="node">
<title>Node4</title>
<g id="a_Node000004"><a xlink:href="classzml_1_1_read_back_op_generic_adaptor.html" target="_top" xlink:title=" ">
<polygon fill="white" stroke="#666666" points="359,-30.5 195.25,-30.5 195.25,0 359,0 359,-30.5"/>
<text text-anchor="start" x="203.25" y="-17" font-family="Helvetica,sans-Serif" font-size="10.00">zml::ReadBackOpGenericAdaptor</text>
<text text-anchor="middle" x="277.12" y="-5.75" font-family="Helvetica,sans-Serif" font-size="10.00">&lt; RangeT &gt;</text>
</a>
</g>
</g>
<!-- Node0&#45;&gt;Node4 -->
<g id="edge332_Node000000_Node000004" class="edge">
<title>Node0&#45;&gt;Node4</title>
<g id="a_edge332_Node000000_Node000004"><a xlink:title=" ">
<path fill="none" stroke="#63b8ff" d="M154.27,-45.79C173.77,-40.9 194.63,-35.68 213.48,-30.95"/>
<polygon fill="#63b8ff" stroke="#63b8ff" points="153.61,-42.35 144.76,-48.18 155.31,-49.14 153.61,-42.35"/>
</a>
</g>
</g>
<!-- Node3 -->
<g id="Node000003" class="node">
<title>Node3</title>
<g id="a_Node000003"><a xlink:href="classzml_1_1_read_back_op_adaptor.html" target="_top" xlink:title=" ">
<polygon fill="white" stroke="#666666" points="525,-73.88 395,-73.88 395,-54.62 525,-54.62 525,-73.88"/>
<text text-anchor="middle" x="460" y="-60.38" font-family="Helvetica,sans-Serif" font-size="10.00">zml::ReadBackOpAdaptor</text>
</a>
</g>
</g>
<!-- Node2&#45;&gt;Node3 -->
<g id="edge331_Node000002_Node000003" class="edge">
<title>Node2&#45;&gt;Node3</title>
<g id="a_edge331_Node000002_Node000003"><a xlink:title=" ">
<path fill="none" stroke="#63b8ff" d="M370.71,-64.25C378.79,-64.25 386.85,-64.25 394.62,-64.25"/>
<polygon fill="#63b8ff" stroke="#63b8ff" points="370.82,-60.75 360.82,-64.25 370.82,-67.75 370.82,-60.75"/>
</a>
</g>
</g>
</g>
</svg>
