<?xml version="1.0" encoding="UTF-8" standalone="no"?>
<!DOCTYPE svg PUBLIC "-//W3C//DTD SVG 1.1//EN"
 "http://www.w3.org/Graphics/SVG/1.1/DTD/svg11.dtd">
<!-- Generated by graphviz version 12.2.1 (20241206.2353)
 -->
<!-- Title: Graphical Class Hierarchy Pages: 1 -->
<svg width="488pt" height="64pt"
 viewBox="0.00 0.00 488.25 64.25" xmlns="http://www.w3.org/2000/svg" xmlns:xlink="http://www.w3.org/1999/xlink">
<g id="graph0" class="graph" transform="scale(1 1) rotate(0) translate(4 60.25)">
<title>Graphical Class Hierarchy</title>
<!-- Node0 -->
<g id="Node000000" class="node">
<title>Node0</title>
<g id="a_Node000000"><a xlink:title=" ">
<polygon fill="#e0e0e0" stroke="#999999" points="104.5,-42.88 0,-42.88 0,-12.37 104.5,-12.37 104.5,-42.88"/>
<text text-anchor="start" x="8" y="-29.38" font-family="Helvetica,sans-Serif" font-size="10.00">llvm::ilist_node_with</text>
<text text-anchor="middle" x="52.25" y="-18.12" font-family="Helvetica,sans-Serif" font-size="10.00">_parent</text>
</a>
</g>
</g>
<!-- Node1 -->
<g id="Node000001" class="node">
<title>Node1</title>
<g id="a_Node000001"><a xlink:href="classzhl_1_1_frame_slot.html" target="_top" xlink:title="Base class for anything that can be allocated in a frame.">
<polygon fill="white" stroke="#666666" points="220.25,-37.25 140.5,-37.25 140.5,-18 220.25,-18 220.25,-37.25"/>
<text text-anchor="middle" x="180.38" y="-23.75" font-family="Helvetica,sans-Serif" font-size="10.00">zhl::FrameSlot</text>
</a>
</g>
</g>
<!-- Node0&#45;&gt;Node1 -->
<g id="edge6_Node000000_Node000001" class="edge">
<title>Node0&#45;&gt;Node1</title>
<g id="a_edge6_Node000000_Node000001"><a xlink:title=" ">
<path fill="none" stroke="#63b8ff" d="M116.4,-27.62C124.57,-27.62 132.73,-27.62 140.34,-27.62"/>
<polygon fill="#63b8ff" stroke="#63b8ff" points="116.43,-24.13 106.43,-27.63 116.43,-31.13 116.43,-24.13"/>
</a>
</g>
</g>
<!-- Node2 -->
<g id="Node000002" class="node">
<title>Node2</title>
<g id="a_Node000002"><a xlink:href="classzhl_1_1_component_slot.html" target="_top" xlink:title=" ">
<polygon fill="white" stroke="#666666" points="358.5,-37.25 256.25,-37.25 256.25,-18 358.5,-18 358.5,-37.25"/>
<text text-anchor="middle" x="307.38" y="-23.75" font-family="Helvetica,sans-Serif" font-size="10.00">zhl::ComponentSlot</text>
</a>
</g>
</g>
<!-- Node1&#45;&gt;Node2 -->
<g id="edge7_Node000001_Node000002" class="edge">
<title>Node1&#45;&gt;Node2</title>
<g id="a_edge7_Node000001_Node000002"><a xlink:title=" ">
<path fill="none" stroke="#63b8ff" d="M231.89,-27.62C239.78,-27.62 247.93,-27.62 255.82,-27.62"/>
<polygon fill="#63b8ff" stroke="#63b8ff" points="232.1,-24.13 222.1,-27.63 232.1,-31.13 232.1,-24.13"/>
</a>
</g>
</g>
<!-- Node3 -->
<g id="Node000003" class="node">
<title>Node3</title>
<g id="a_Node000003"><a xlink:href="classzhl_1_1_array_frame.html" target="_top" xlink:title="Represents a slot with an inner frame where every slot in the inner frame is repeat N times by using ...">
<polygon fill="white" stroke="#666666" points="480.25,-56.25 394.5,-56.25 394.5,-37 480.25,-37 480.25,-56.25"/>
<text text-anchor="middle" x="437.38" y="-42.75" font-family="Helvetica,sans-Serif" font-size="10.00">zhl::ArrayFrame</text>
</a>
</g>
</g>
<!-- Node2&#45;&gt;Node3 -->
<g id="edge8_Node000002_Node000003" class="edge">
<title>Node2&#45;&gt;Node3</title>
<g id="a_edge8_Node000002_Node000003"><a xlink:title=" ">
<path fill="none" stroke="#63b8ff" d="M370.1,-36.79C378.33,-38.01 386.61,-39.24 394.4,-40.39"/>
<polygon fill="#63b8ff" stroke="#63b8ff" points="370.87,-33.36 360.46,-35.36 369.84,-40.29 370.87,-33.36"/>
</a>
</g>
</g>
<!-- Node4 -->
<g id="Node000004" class="node">
<title>Node4</title>
<g id="a_Node000004"><a xlink:href="classzhl_1_1_inner_frame.html" target="_top" xlink:title="Represents a Frame inside another.">
<polygon fill="white" stroke="#666666" points="479.5,-19.25 395.25,-19.25 395.25,0 479.5,0 479.5,-19.25"/>
<text text-anchor="middle" x="437.38" y="-5.75" font-family="Helvetica,sans-Serif" font-size="10.00">zhl::InnerFrame</text>
</a>
</g>
</g>
<!-- Node2&#45;&gt;Node4 -->
<g id="edge9_Node000002_Node000004" class="edge">
<title>Node2&#45;&gt;Node4</title>
<g id="a_edge9_Node000002_Node000004"><a xlink:title=" ">
<path fill="none" stroke="#63b8ff" d="M370.24,-18.93C378.56,-17.75 386.94,-16.58 394.8,-15.47"/>
<polygon fill="#63b8ff" stroke="#63b8ff" points="369.88,-15.44 360.46,-20.3 370.85,-22.37 369.88,-15.44"/>
</a>
</g>
</g>
</g>
</svg>
