<?xml version="1.0" encoding="UTF-8" standalone="no"?>
<!DOCTYPE svg PUBLIC "-//W3C//DTD SVG 1.1//EN"
 "http://www.w3.org/Graphics/SVG/1.1/DTD/svg11.dtd">
<!-- Generated by graphviz version 12.2.1 (20241206.2353)
 -->
<!-- Title: Graphical Class Hierarchy Pages: 1 -->
<svg width="490pt" height="147pt"
 viewBox="0.00 0.00 490.25 147.12" xmlns="http://www.w3.org/2000/svg" xmlns:xlink="http://www.w3.org/1999/xlink">
<g id="graph0" class="graph" transform="scale(1 1) rotate(0) translate(4 143.12)">
<title>Graphical Class Hierarchy</title>
<!-- Node0 -->
<g id="Node000000" class="node">
<title>Node0</title>
<g id="a_Node000000"><a xlink:href="classzml_1_1detail_1_1_super_coerce_op_generic_adaptor_base.html" target="_top" xlink:title=" ">
<polygon fill="white" stroke="#666666" points="124,-79.5 0,-79.5 0,-49 124,-49 124,-79.5"/>
<text text-anchor="start" x="8" y="-66" font-family="Helvetica,sans-Serif" font-size="10.00">zml::detail::SuperCoerce</text>
<text text-anchor="middle" x="62" y="-54.75" font-family="Helvetica,sans-Serif" font-size="10.00">OpGenericAdaptorBase</text>
</a>
</g>
</g>
<!-- Node1 -->
<g id="Node000001" class="node">
<title>Node1</title>
<g id="a_Node000001"><a xlink:href="classzml_1_1_super_coerce_op_generic_adaptor.html" target="_top" xlink:title=" ">
<polygon fill="white" stroke="#666666" points="303.12,-139.12 161.88,-139.12 161.88,-97.38 303.12,-97.38 303.12,-139.12"/>
<text text-anchor="start" x="169.88" y="-125.62" font-family="Helvetica,sans-Serif" font-size="10.00">zml::SuperCoerceOpGeneric</text>
<text text-anchor="start" x="169.88" y="-114.38" font-family="Helvetica,sans-Serif" font-size="10.00">Adaptor&lt;::llvm::ArrayRef</text>
<text text-anchor="middle" x="232.5" y="-103.12" font-family="Helvetica,sans-Serif" font-size="10.00">&lt;::mlir::Attribute &gt; &gt;</text>
</a>
</g>
</g>
<!-- Node0&#45;&gt;Node1 -->
<g id="edge353_Node000000_Node000001" class="edge">
<title>Node0&#45;&gt;Node1</title>
<g id="a_edge353_Node000000_Node000001"><a xlink:title=" ">
<path fill="none" stroke="#63b8ff" d="M122.52,-83.33C136.27,-87.73 150.98,-92.45 165.01,-96.94"/>
<polygon fill="#63b8ff" stroke="#63b8ff" points="123.77,-80.05 113.18,-80.33 121.63,-86.72 123.77,-80.05"/>
</a>
</g>
</g>
<!-- Node2 -->
<g id="Node000002" class="node">
<title>Node2</title>
<g id="a_Node000002"><a xlink:href="classzml_1_1_super_coerce_op_generic_adaptor.html" target="_top" xlink:title=" ">
<polygon fill="white" stroke="#666666" points="305,-79.5 160,-79.5 160,-49 305,-49 305,-79.5"/>
<text text-anchor="start" x="168" y="-66" font-family="Helvetica,sans-Serif" font-size="10.00">zml::SuperCoerceOpGeneric</text>
<text text-anchor="middle" x="232.5" y="-54.75" font-family="Helvetica,sans-Serif" font-size="10.00">Adaptor&lt;::mlir::ValueRange &gt;</text>
</a>
</g>
</g>
<!-- Node0&#45;&gt;Node2 -->
<g id="edge354_Node000000_Node000002" class="edge">
<title>Node0&#45;&gt;Node2</title>
<g id="a_edge354_Node000000_Node000002"><a xlink:title=" ">
<path fill="none" stroke="#63b8ff" d="M135.77,-64.25C143.69,-64.25 151.74,-64.25 159.65,-64.25"/>
<polygon fill="#63b8ff" stroke="#63b8ff" points="135.82,-60.75 125.82,-64.25 135.82,-67.75 135.82,-60.75"/>
</a>
</g>
</g>
<!-- Node4 -->
<g id="Node000004" class="node">
<title>Node4</title>
<g id="a_Node000004"><a xlink:href="classzml_1_1_super_coerce_op_generic_adaptor.html" target="_top" xlink:title=" ">
<polygon fill="white" stroke="#666666" points="303.12,-30.5 161.88,-30.5 161.88,0 303.12,0 303.12,-30.5"/>
<text text-anchor="start" x="169.88" y="-17" font-family="Helvetica,sans-Serif" font-size="10.00">zml::SuperCoerceOpGeneric</text>
<text text-anchor="middle" x="232.5" y="-5.75" font-family="Helvetica,sans-Serif" font-size="10.00">Adaptor&lt; RangeT &gt;</text>
</a>
</g>
</g>
<!-- Node0&#45;&gt;Node4 -->
<g id="edge356_Node000000_Node000004" class="edge">
<title>Node0&#45;&gt;Node4</title>
<g id="a_edge356_Node000000_Node000004"><a xlink:title=" ">
<path fill="none" stroke="#63b8ff" d="M127.43,-45.52C143.91,-40.72 161.46,-35.62 177.37,-30.99"/>
<polygon fill="#63b8ff" stroke="#63b8ff" points="126.86,-42.04 118.23,-48.19 128.81,-48.76 126.86,-42.04"/>
</a>
</g>
</g>
<!-- Node3 -->
<g id="Node000003" class="node">
<title>Node3</title>
<g id="a_Node000003"><a xlink:href="classzml_1_1_super_coerce_op_adaptor.html" target="_top" xlink:title=" ">
<polygon fill="white" stroke="#666666" points="482.25,-73.88 341,-73.88 341,-54.62 482.25,-54.62 482.25,-73.88"/>
<text text-anchor="middle" x="411.62" y="-60.38" font-family="Helvetica,sans-Serif" font-size="10.00">zml::SuperCoerceOpAdaptor</text>
</a>
</g>
</g>
<!-- Node2&#45;&gt;Node3 -->
<g id="edge355_Node000002_Node000003" class="edge">
<title>Node2&#45;&gt;Node3</title>
<g id="a_edge355_Node000002_Node000003"><a xlink:title=" ">
<path fill="none" stroke="#63b8ff" d="M316.63,-64.25C324.7,-64.25 332.82,-64.25 340.74,-64.25"/>
<polygon fill="#63b8ff" stroke="#63b8ff" points="316.8,-60.75 306.8,-64.25 316.8,-67.75 316.8,-60.75"/>
</a>
</g>
</g>
</g>
</svg>
