<?xml version="1.0" encoding="UTF-8" standalone="no"?>
<!DOCTYPE svg PUBLIC "-//W3C//DTD SVG 1.1//EN"
 "http://www.w3.org/Graphics/SVG/1.1/DTD/svg11.dtd">
<!-- Generated by graphviz version 12.2.1 (20241206.2353)
 -->
<!-- Title: Graphical Class Hierarchy Pages: 1 -->
<svg width="268pt" height="101pt"
 viewBox="0.00 0.00 268.00 101.25" xmlns="http://www.w3.org/2000/svg" xmlns:xlink="http://www.w3.org/1999/xlink">
<g id="graph0" class="graph" transform="scale(1 1) rotate(0) translate(4 97.25)">
<title>Graphical Class Hierarchy</title>
<!-- Node0 -->
<g id="Node000000" class="node">
<title>Node0</title>
<g id="a_Node000000"><a xlink:title=" ">
<polygon fill="#e0e0e0" stroke="#999999" points="88.75,-56.25 0,-56.25 0,-37 88.75,-37 88.75,-56.25"/>
<text text-anchor="middle" x="44.38" y="-42.75" font-family="Helvetica,sans-Serif" font-size="10.00">mlir::OpInterface</text>
</a>
</g>
</g>
<!-- Node1 -->
<g id="Node000001" class="node">
<title>Node1</title>
<g id="a_Node000001"><a xlink:href="classzml_1_1_component_interface.html" target="_top" xlink:title=" ">
<polygon fill="white" stroke="#666666" points="255.5,-93.25 129.25,-93.25 129.25,-74 255.5,-74 255.5,-93.25"/>
<text text-anchor="middle" x="192.38" y="-79.75" font-family="Helvetica,sans-Serif" font-size="10.00">zml::ComponentInterface</text>
</a>
</g>
</g>
<!-- Node0&#45;&gt;Node1 -->
<g id="edge74_Node000000_Node000001" class="edge">
<title>Node0&#45;&gt;Node1</title>
<g id="a_edge74_Node000000_Node000001"><a xlink:title=" ">
<path fill="none" stroke="#63b8ff" d="M96.24,-59.52C114.35,-64.11 134.47,-69.2 151.53,-73.53"/>
<polygon fill="#63b8ff" stroke="#63b8ff" points="97.29,-56.17 86.74,-57.11 95.57,-62.96 97.29,-56.17"/>
</a>
</g>
</g>
<!-- Node2 -->
<g id="Node000002" class="node">
<title>Node2</title>
<g id="a_Node000002"><a xlink:href="classzml_1_1_defines_body_func.html" target="_top" xlink:title=" ">
<polygon fill="white" stroke="#666666" points="250.25,-56.25 134.5,-56.25 134.5,-37 250.25,-37 250.25,-56.25"/>
<text text-anchor="middle" x="192.38" y="-42.75" font-family="Helvetica,sans-Serif" font-size="10.00">zml::DefinesBodyFunc</text>
</a>
</g>
</g>
<!-- Node0&#45;&gt;Node2 -->
<g id="edge75_Node000000_Node000002" class="edge">
<title>Node0&#45;&gt;Node2</title>
<g id="a_edge75_Node000000_Node000002"><a xlink:title=" ">
<path fill="none" stroke="#63b8ff" d="M100.4,-46.62C111.4,-46.62 122.99,-46.62 134.08,-46.62"/>
<polygon fill="#63b8ff" stroke="#63b8ff" points="100.69,-43.13 90.69,-46.63 100.69,-50.13 100.69,-43.13"/>
</a>
</g>
</g>
<!-- Node3 -->
<g id="Node000003" class="node">
<title>Node3</title>
<g id="a_Node000003"><a xlink:href="classzml_1_1_defines_constrain_func.html" target="_top" xlink:title=" ">
<polygon fill="white" stroke="#666666" points="260,-19.25 124.75,-19.25 124.75,0 260,0 260,-19.25"/>
<text text-anchor="middle" x="192.38" y="-5.75" font-family="Helvetica,sans-Serif" font-size="10.00">zml::DefinesConstrainFunc</text>
</a>
</g>
</g>
<!-- Node0&#45;&gt;Node3 -->
<g id="edge76_Node000000_Node000003" class="edge">
<title>Node0&#45;&gt;Node3</title>
<g id="a_edge76_Node000000_Node000003"><a xlink:title=" ">
<path fill="none" stroke="#63b8ff" d="M96.24,-33.73C114.35,-29.14 134.47,-24.05 151.53,-19.72"/>
<polygon fill="#63b8ff" stroke="#63b8ff" points="95.57,-30.29 86.74,-36.14 97.29,-37.08 95.57,-30.29"/>
</a>
</g>
</g>
</g>
</svg>
