<?xml version="1.0" encoding="UTF-8" standalone="no"?>
<!DOCTYPE svg PUBLIC "-//W3C//DTD SVG 1.1//EN"
 "http://www.w3.org/Graphics/SVG/1.1/DTD/svg11.dtd">
<!-- Generated by graphviz version 12.2.1 (20241206.2353)
 -->
<!-- Title: Graphical Class Hierarchy Pages: 1 -->
<svg width="485pt" height="676pt"
 viewBox="0.00 0.00 485.00 675.50" xmlns="http://www.w3.org/2000/svg" xmlns:xlink="http://www.w3.org/1999/xlink">
<g id="graph0" class="graph" transform="scale(1 1) rotate(0) translate(4 671.5)">
<title>Graphical Class Hierarchy</title>
<!-- Node0 -->
<g id="Node000000" class="node">
<title>Node0</title>
<g id="a_Node000000"><a xlink:title=" ">
<polygon fill="#e0e0e0" stroke="#999999" points="102.25,-342.88 0,-342.88 0,-323.62 102.25,-323.62 102.25,-342.88"/>
<text text-anchor="middle" x="51.12" y="-329.38" font-family="Helvetica,sans-Serif" font-size="10.00">mlir::OperationPass</text>
</a>
</g>
</g>
<!-- Node1 -->
<g id="Node000001" class="node">
<title>Node1</title>
<g id="a_Node000001"><a xlink:href="classzklang_1_1_convert_zhl_to_zml_base.html" target="_top" xlink:title=" ">
<polygon fill="white" stroke="#666666" points="292.62,-667.5 144.62,-667.5 144.62,-637 292.62,-637 292.62,-667.5"/>
<text text-anchor="start" x="152.62" y="-654" font-family="Helvetica,sans-Serif" font-size="10.00">zklang::ConvertZhlToZmlBase</text>
<text text-anchor="middle" x="218.62" y="-642.75" font-family="Helvetica,sans-Serif" font-size="10.00">&lt; ConvertZhlToZmlPass &gt;</text>
</a>
</g>
</g>
<!-- Node0&#45;&gt;Node1 -->
<g id="edge57_Node000000_Node000001" class="edge">
<title>Node0&#45;&gt;Node1</title>
<g id="a_edge57_Node000000_Node000001"><a xlink:title=" ">
<path fill="none" stroke="#63b8ff" d="M51.93,-354.63C52.65,-408.21 62.07,-549.52 138.25,-627.25 141.79,-630.86 145.84,-633.95 150.21,-636.6"/>
<polygon fill="#63b8ff" stroke="#63b8ff" points="55.44,-354.75 51.91,-344.76 48.44,-354.77 55.44,-354.75"/>
</a>
</g>
</g>
<!-- Node3 -->
<g id="Node000003" class="node">
<title>Node3</title>
<g id="a_Node000003"><a xlink:href="classzklang_1_1_convert_zml_to_llzk_base.html" target="_top" xlink:title=" ">
<polygon fill="white" stroke="#666666" points="297.88,-618.5 139.38,-618.5 139.38,-588 297.88,-588 297.88,-618.5"/>
<text text-anchor="start" x="147.38" y="-605" font-family="Helvetica,sans-Serif" font-size="10.00">zklang::ConvertZmlToLlzk</text>
<text text-anchor="middle" x="218.62" y="-593.75" font-family="Helvetica,sans-Serif" font-size="10.00">Base&lt; ConvertZmlToLlzkPass &gt;</text>
</a>
</g>
</g>
<!-- Node0&#45;&gt;Node3 -->
<g id="edge59_Node000000_Node000003" class="edge">
<title>Node0&#45;&gt;Node3</title>
<g id="a_edge59_Node000000_Node000003"><a xlink:title=" ">
<path fill="none" stroke="#63b8ff" d="M53.4,-354.51C57.38,-401.63 73.55,-515.64 138.25,-578.25 141.99,-581.87 146.24,-584.96 150.8,-587.61"/>
<polygon fill="#63b8ff" stroke="#63b8ff" points="56.91,-354.55 52.7,-344.83 49.93,-355.06 56.91,-354.55"/>
</a>
</g>
</g>
<!-- Node5 -->
<g id="Node000005" class="node">
<title>Node5</title>
<g id="a_Node000005"><a xlink:href="classzklang_1_1_inject_llzk_mod_attrs_base.html" target="_top" xlink:title=" ">
<polygon fill="white" stroke="#666666" points="299,-569.5 138.25,-569.5 138.25,-539 299,-539 299,-569.5"/>
<text text-anchor="start" x="146.25" y="-556" font-family="Helvetica,sans-Serif" font-size="10.00">zklang::InjectLlzkModAttrs</text>
<text text-anchor="middle" x="218.62" y="-544.75" font-family="Helvetica,sans-Serif" font-size="10.00">Base&lt; InjectLlzkModAttrsPass &gt;</text>
</a>
</g>
</g>
<!-- Node0&#45;&gt;Node5 -->
<g id="edge61_Node000000_Node000005" class="edge">
<title>Node0&#45;&gt;Node5</title>
<g id="a_edge61_Node000000_Node000005"><a xlink:title=" ">
<path fill="none" stroke="#63b8ff" d="M55.49,-354.25C62.99,-394.19 84.81,-481.34 138.25,-529.25 142.23,-532.82 146.72,-535.88 151.48,-538.5"/>
<polygon fill="#63b8ff" stroke="#63b8ff" points="58.96,-353.8 53.8,-344.55 52.07,-355 58.96,-353.8"/>
</a>
</g>
</g>
<!-- Node7 -->
<g id="Node000007" class="node">
<title>Node7</title>
<g id="a_Node000007"><a xlink:href="classzhl_1_1_print_type_bindings_base.html" target="_top" xlink:title=" ">
<polygon fill="white" stroke="#666666" points="286.62,-520.5 150.62,-520.5 150.62,-490 286.62,-490 286.62,-520.5"/>
<text text-anchor="start" x="158.62" y="-507" font-family="Helvetica,sans-Serif" font-size="10.00">zhl::PrintTypeBindingsBase</text>
<text text-anchor="middle" x="218.62" y="-495.75" font-family="Helvetica,sans-Serif" font-size="10.00">&lt; DerivedT &gt;</text>
</a>
</g>
</g>
<!-- Node0&#45;&gt;Node7 -->
<g id="edge63_Node000000_Node000007" class="edge">
<title>Node0&#45;&gt;Node7</title>
<g id="a_edge63_Node000000_Node000007"><a xlink:title=" ">
<path fill="none" stroke="#63b8ff" d="M58.71,-353.78C69.95,-385.53 95.8,-446.41 138.25,-480.25 142.77,-483.85 147.81,-486.94 153.11,-489.58"/>
<polygon fill="#63b8ff" stroke="#63b8ff" points="62.12,-352.94 55.61,-344.58 55.49,-355.18 62.12,-352.94"/>
</a>
</g>
</g>
<!-- Node8 -->
<g id="Node000008" class="node">
<title>Node8</title>
<g id="a_Node000008"><a xlink:href="classzklang_1_1_convert_zhl_to_zml_base.html" target="_top" xlink:title=" ">
<polygon fill="white" stroke="#666666" points="292.62,-471.5 144.62,-471.5 144.62,-441 292.62,-441 292.62,-471.5"/>
<text text-anchor="start" x="152.62" y="-458" font-family="Helvetica,sans-Serif" font-size="10.00">zklang::ConvertZhlToZmlBase</text>
<text text-anchor="middle" x="218.62" y="-446.75" font-family="Helvetica,sans-Serif" font-size="10.00">&lt; DerivedT &gt;</text>
</a>
</g>
</g>
<!-- Node0&#45;&gt;Node8 -->
<g id="edge64_Node000000_Node000008" class="edge">
<title>Node0&#45;&gt;Node8</title>
<g id="a_edge64_Node000000_Node000008"><a xlink:title=" ">
<path fill="none" stroke="#63b8ff" d="M64.27,-352.53C79.13,-374.62 106.3,-410.43 138.25,-431.25 143.7,-434.8 149.68,-437.87 155.85,-440.53"/>
<polygon fill="#63b8ff" stroke="#63b8ff" points="67.39,-350.91 58.99,-344.45 61.53,-354.74 67.39,-350.91"/>
</a>
</g>
</g>
<!-- Node9 -->
<g id="Node000009" class="node">
<title>Node9</title>
<g id="a_Node000009"><a xlink:href="classzklang_1_1_convert_zml_to_llzk_base.html" target="_top" xlink:title=" ">
<polygon fill="white" stroke="#666666" points="283.62,-422.5 153.62,-422.5 153.62,-392 283.62,-392 283.62,-422.5"/>
<text text-anchor="start" x="161.62" y="-409" font-family="Helvetica,sans-Serif" font-size="10.00">zklang::ConvertZmlToLlzk</text>
<text text-anchor="middle" x="218.62" y="-397.75" font-family="Helvetica,sans-Serif" font-size="10.00">Base&lt; DerivedT &gt;</text>
</a>
</g>
</g>
<!-- Node0&#45;&gt;Node9 -->
<g id="edge65_Node000000_Node000009" class="edge">
<title>Node0&#45;&gt;Node9</title>
<g id="a_edge65_Node000000_Node000009"><a xlink:title=" ">
<path fill="none" stroke="#63b8ff" d="M77.09,-349.33C93.9,-359.69 116.83,-372.91 138.25,-382.25 145.93,-385.6 154.21,-388.71 162.41,-391.53"/>
<polygon fill="#63b8ff" stroke="#63b8ff" points="79.1,-346.46 68.76,-344.12 75.38,-352.39 79.1,-346.46"/>
</a>
</g>
</g>
<!-- Node10 -->
<g id="Node000010" class="node">
<title>Node10</title>
<g id="a_Node000010"><a xlink:href="classzklang_1_1_inject_llzk_mod_attrs_base.html" target="_top" xlink:title=" ">
<polygon fill="white" stroke="#666666" points="284.75,-373.5 152.5,-373.5 152.5,-343 284.75,-343 284.75,-373.5"/>
<text text-anchor="start" x="160.5" y="-360" font-family="Helvetica,sans-Serif" font-size="10.00">zklang::InjectLlzkModAttrs</text>
<text text-anchor="middle" x="218.62" y="-348.75" font-family="Helvetica,sans-Serif" font-size="10.00">Base&lt; DerivedT &gt;</text>
</a>
</g>
</g>
<!-- Node0&#45;&gt;Node10 -->
<g id="edge66_Node000000_Node000010" class="edge">
<title>Node0&#45;&gt;Node10</title>
<g id="a_edge66_Node000000_Node000010"><a xlink:title=" ">
<path fill="none" stroke="#63b8ff" d="M113.9,-342.58C126.37,-344.47 139.52,-346.45 152.11,-348.35"/>
<polygon fill="#63b8ff" stroke="#63b8ff" points="114.59,-339.15 104.18,-341.11 113.54,-346.07 114.59,-339.15"/>
</a>
</g>
</g>
<!-- Node11 -->
<g id="Node000011" class="node">
<title>Node11</title>
<g id="a_Node000011"><a xlink:href="classzklang_1_1_strip_tests_base.html" target="_top" xlink:title=" ">
<polygon fill="white" stroke="#666666" points="277.25,-324.5 160,-324.5 160,-294 277.25,-294 277.25,-324.5"/>
<text text-anchor="start" x="168" y="-311" font-family="Helvetica,sans-Serif" font-size="10.00">zklang::StripTestsBase</text>
<text text-anchor="middle" x="218.62" y="-299.75" font-family="Helvetica,sans-Serif" font-size="10.00">&lt; DerivedT &gt;</text>
</a>
</g>
</g>
<!-- Node0&#45;&gt;Node11 -->
<g id="edge67_Node000000_Node000011" class="edge">
<title>Node0&#45;&gt;Node11</title>
<g id="a_edge67_Node000000_Node000011"><a xlink:title=" ">
<path fill="none" stroke="#63b8ff" d="M113.89,-324.29C128.84,-322.12 144.78,-319.81 159.56,-317.67"/>
<polygon fill="#63b8ff" stroke="#63b8ff" points="113.57,-320.8 104.18,-325.7 114.58,-327.73 113.57,-320.8"/>
</a>
</g>
</g>
<!-- Node12 -->
<g id="Node000012" class="node">
<title>Node12</title>
<g id="a_Node000012"><a xlink:href="classzml_1_1_inject_built_ins_base.html" target="_top" xlink:title=" ">
<polygon fill="white" stroke="#666666" points="277.25,-275.5 160,-275.5 160,-245 277.25,-245 277.25,-275.5"/>
<text text-anchor="start" x="168" y="-262" font-family="Helvetica,sans-Serif" font-size="10.00">zml::InjectBuiltInsBase</text>
<text text-anchor="middle" x="218.62" y="-250.75" font-family="Helvetica,sans-Serif" font-size="10.00">&lt; DerivedT &gt;</text>
</a>
</g>
</g>
<!-- Node0&#45;&gt;Node12 -->
<g id="edge68_Node000000_Node000012" class="edge">
<title>Node0&#45;&gt;Node12</title>
<g id="a_edge68_Node000000_Node000012"><a xlink:title=" ">
<path fill="none" stroke="#63b8ff" d="M77.44,-317.34C94.24,-307.24 117.03,-294.39 138.25,-285.25 146.08,-281.88 154.51,-278.73 162.86,-275.89"/>
<polygon fill="#63b8ff" stroke="#63b8ff" points="75.82,-314.23 69.11,-322.43 79.47,-320.2 75.82,-314.23"/>
</a>
</g>
</g>
<!-- Node13 -->
<g id="Node000013" class="node">
<title>Node13</title>
<g id="a_Node000013"><a xlink:href="classzml_1_1_lower_built_ins_base.html" target="_top" xlink:title=" ">
<polygon fill="white" stroke="#666666" points="278.38,-226.5 158.88,-226.5 158.88,-196 278.38,-196 278.38,-226.5"/>
<text text-anchor="start" x="166.88" y="-213" font-family="Helvetica,sans-Serif" font-size="10.00">zml::LowerBuiltInsBase</text>
<text text-anchor="middle" x="218.62" y="-201.75" font-family="Helvetica,sans-Serif" font-size="10.00">&lt; DerivedT &gt;</text>
</a>
</g>
</g>
<!-- Node0&#45;&gt;Node13 -->
<g id="edge69_Node000000_Node000013" class="edge">
<title>Node0&#45;&gt;Node13</title>
<g id="a_edge69_Node000000_Node000013"><a xlink:title=" ">
<path fill="none" stroke="#63b8ff" d="M64.52,-313.87C79.47,-291.99 106.58,-256.77 138.25,-236.25 144.56,-232.16 151.57,-228.71 158.76,-225.79"/>
<polygon fill="#63b8ff" stroke="#63b8ff" points="61.63,-311.89 59.02,-322.16 67.47,-315.76 61.63,-311.89"/>
</a>
</g>
</g>
<!-- Node14 -->
<g id="Node000014" class="node">
<title>Node14</title>
<g id="a_Node000014"><a xlink:href="classzml_1_1_remove_built_ins_base.html" target="_top" xlink:title=" ">
<polygon fill="white" stroke="#666666" points="283.62,-177.5 153.62,-177.5 153.62,-147 283.62,-147 283.62,-177.5"/>
<text text-anchor="start" x="161.62" y="-164" font-family="Helvetica,sans-Serif" font-size="10.00">zml::RemoveBuiltInsBase</text>
<text text-anchor="middle" x="218.62" y="-152.75" font-family="Helvetica,sans-Serif" font-size="10.00">&lt; DerivedT &gt;</text>
</a>
</g>
</g>
<!-- Node0&#45;&gt;Node14 -->
<g id="edge70_Node000000_Node000014" class="edge">
<title>Node0&#45;&gt;Node14</title>
<g id="a_edge70_Node000000_Node000014"><a xlink:title=" ">
<path fill="none" stroke="#63b8ff" d="M58.75,-312.86C70.04,-281.33 95.96,-220.86 138.25,-187.25 142.89,-183.56 148.08,-180.42 153.52,-177.73"/>
<polygon fill="#63b8ff" stroke="#63b8ff" points="55.56,-311.39 55.63,-321.98 62.18,-313.66 55.56,-311.39"/>
</a>
</g>
</g>
<!-- Node15 -->
<g id="Node000015" class="node">
<title>Node15</title>
<g id="a_Node000015"><a xlink:href="classzml_1_1_remove_illegal_compute_ops_base.html" target="_top" xlink:title=" ">
<polygon fill="white" stroke="#666666" points="288.5,-128.5 148.75,-128.5 148.75,-98 288.5,-98 288.5,-128.5"/>
<text text-anchor="start" x="156.75" y="-115" font-family="Helvetica,sans-Serif" font-size="10.00">zml::RemoveIllegalCompute</text>
<text text-anchor="middle" x="218.62" y="-103.75" font-family="Helvetica,sans-Serif" font-size="10.00">OpsBase&lt; DerivedT &gt;</text>
</a>
</g>
</g>
<!-- Node0&#45;&gt;Node15 -->
<g id="edge71_Node000000_Node000015" class="edge">
<title>Node0&#45;&gt;Node15</title>
<g id="a_edge71_Node000000_Node000015"><a xlink:title=" ">
<path fill="none" stroke="#63b8ff" d="M55.52,-312.35C63.08,-272.62 85,-185.91 138.25,-138.25 142.34,-134.59 146.97,-131.46 151.88,-128.8"/>
<polygon fill="#63b8ff" stroke="#63b8ff" points="52.11,-311.54 53.82,-322 59,-312.76 52.11,-311.54"/>
</a>
</g>
</g>
<!-- Node16 -->
<g id="Node000016" class="node">
<title>Node16</title>
<g id="a_Node000016"><a xlink:href="classzml_1_1_remove_illegal_constrain_ops_base.html" target="_top" xlink:title=" ">
<polygon fill="white" stroke="#666666" points="289.62,-79.5 147.62,-79.5 147.62,-49 289.62,-49 289.62,-79.5"/>
<text text-anchor="start" x="155.62" y="-66" font-family="Helvetica,sans-Serif" font-size="10.00">zml::RemoveIllegalConstrain</text>
<text text-anchor="middle" x="218.62" y="-54.75" font-family="Helvetica,sans-Serif" font-size="10.00">OpsBase&lt; DerivedT &gt;</text>
</a>
</g>
</g>
<!-- Node0&#45;&gt;Node16 -->
<g id="edge72_Node000000_Node000016" class="edge">
<title>Node0&#45;&gt;Node16</title>
<g id="a_edge72_Node000000_Node000016"><a xlink:title=" ">
<path fill="none" stroke="#63b8ff" d="M53.46,-311.78C57.54,-264.66 73.88,-151.46 138.25,-89.25 141.99,-85.64 146.25,-82.54 150.8,-79.9"/>
<polygon fill="#63b8ff" stroke="#63b8ff" points="49.97,-311.47 52.71,-321.71 56.95,-312 49.97,-311.47"/>
</a>
</g>
</g>
<!-- Node17 -->
<g id="Node000017" class="node">
<title>Node17</title>
<g id="a_Node000017"><a xlink:href="classzml_1_1_split_component_body_base.html" target="_top" xlink:title=" ">
<polygon fill="white" stroke="#666666" points="294.88,-30.5 142.38,-30.5 142.38,0 294.88,0 294.88,-30.5"/>
<text text-anchor="start" x="150.38" y="-17" font-family="Helvetica,sans-Serif" font-size="10.00">zml::SplitComponentBodyBase</text>
<text text-anchor="middle" x="218.62" y="-5.75" font-family="Helvetica,sans-Serif" font-size="10.00">&lt; DerivedT &gt;</text>
</a>
</g>
</g>
<!-- Node0&#45;&gt;Node17 -->
<g id="edge73_Node000000_Node000017" class="edge">
<title>Node0&#45;&gt;Node17</title>
<g id="a_edge73_Node000000_Node000017"><a xlink:title=" ">
<path fill="none" stroke="#63b8ff" d="M51.96,-311.95C52.73,-258.54 62.27,-117.7 138.25,-40.25 141.79,-36.64 145.85,-33.55 150.21,-30.91"/>
<polygon fill="#63b8ff" stroke="#63b8ff" points="48.46,-311.76 51.92,-321.77 55.46,-311.79 48.46,-311.76"/>
</a>
</g>
</g>
<!-- Node2 -->
<g id="Node000002" class="node">
<title>Node2</title>
<g id="a_Node000002"><a xlink:href="classzml_1_1_convert_zhl_to_zml_pass.html" target="_top" xlink:title=" ">
<polygon fill="white" stroke="#666666" points="473.62,-661.88 338.38,-661.88 338.38,-642.62 473.62,-642.62 473.62,-661.88"/>
<text text-anchor="middle" x="406" y="-648.38" font-family="Helvetica,sans-Serif" font-size="10.00">zml::ConvertZhlToZmlPass</text>
</a>
</g>
</g>
<!-- Node1&#45;&gt;Node2 -->
<g id="edge58_Node000001_Node000002" class="edge">
<title>Node1&#45;&gt;Node2</title>
<g id="a_edge58_Node000001_Node000002"><a xlink:title=" ">
<path fill="none" stroke="#63b8ff" d="M304.15,-652.25C315.5,-652.25 327,-652.25 337.99,-652.25"/>
<polygon fill="#63b8ff" stroke="#63b8ff" points="304.4,-648.75 294.4,-652.25 304.4,-655.75 304.4,-648.75"/>
</a>
</g>
</g>
<!-- Node4 -->
<g id="Node000004" class="node">
<title>Node4</title>
<g id="a_Node000004"><a xlink:href="classzml_1_1_convert_zml_to_llzk_pass.html" target="_top" xlink:title=" ">
<polygon fill="white" stroke="#666666" points="475.88,-612.88 336.12,-612.88 336.12,-593.62 475.88,-593.62 475.88,-612.88"/>
<text text-anchor="middle" x="406" y="-599.38" font-family="Helvetica,sans-Serif" font-size="10.00">zml::ConvertZmlToLlzkPass</text>
</a>
</g>
</g>
<!-- Node3&#45;&gt;Node4 -->
<g id="edge60_Node000003_Node000004" class="edge">
<title>Node3&#45;&gt;Node4</title>
<g id="a_edge60_Node000003_Node000004"><a xlink:title=" ">
<path fill="none" stroke="#63b8ff" d="M309.68,-603.25C318.41,-603.25 327.17,-603.25 335.66,-603.25"/>
<polygon fill="#63b8ff" stroke="#63b8ff" points="309.75,-599.75 299.75,-603.25 309.75,-606.75 309.75,-599.75"/>
</a>
</g>
</g>
<!-- Node6 -->
<g id="Node000006" class="node">
<title>Node6</title>
<g id="a_Node000006"><a xlink:href="classzml_1_1_inject_llzk_mod_attrs_pass.html" target="_top" xlink:title=" ">
<polygon fill="white" stroke="#666666" points="477,-563.88 335,-563.88 335,-544.62 477,-544.62 477,-563.88"/>
<text text-anchor="middle" x="406" y="-550.38" font-family="Helvetica,sans-Serif" font-size="10.00">zml::InjectLlzkModAttrsPass</text>
</a>
</g>
</g>
<!-- Node5&#45;&gt;Node6 -->
<g id="edge62_Node000005_Node000006" class="edge">
<title>Node5&#45;&gt;Node6</title>
<g id="a_edge62_Node000005_Node000006"><a xlink:title=" ">
<path fill="none" stroke="#63b8ff" d="M310.69,-554.25C318.77,-554.25 326.86,-554.25 334.72,-554.25"/>
<polygon fill="#63b8ff" stroke="#63b8ff" points="310.83,-550.75 300.83,-554.25 310.83,-557.75 310.83,-550.75"/>
</a>
</g>
</g>
</g>
</svg>
