<?xml version="1.0" encoding="UTF-8" standalone="no"?>
<!DOCTYPE svg PUBLIC "-//W3C//DTD SVG 1.1//EN"
 "http://www.w3.org/Graphics/SVG/1.1/DTD/svg11.dtd">
<!-- Generated by graphviz version 12.2.1 (20241206.2353)
 -->
<!-- Title: Graphical Class Hierarchy Pages: 1 -->
<svg width="358pt" height="113pt"
 viewBox="0.00 0.00 357.50 113.25" xmlns="http://www.w3.org/2000/svg" xmlns:xlink="http://www.w3.org/1999/xlink">
<g id="graph0" class="graph" transform="scale(1 1) rotate(0) translate(4 109.25)">
<title>Graphical Class Hierarchy</title>
<!-- Node0 -->
<g id="Node000000" class="node">
<title>Node0</title>
<g id="a_Node000000"><a xlink:title=" ">
<polygon fill="#e0e0e0" stroke="#999999" points="81.25,-62.25 0,-62.25 0,-43 81.25,-43 81.25,-62.25"/>
<text text-anchor="middle" x="40.62" y="-48.75" font-family="Helvetica,sans-Serif" font-size="10.00">llvm::ilist_node</text>
</a>
</g>
</g>
<!-- Node1 -->
<g id="Node000001" class="node">
<title>Node1</title>
<g id="a_Node000001"><a xlink:href="classzhl_1_1expr_1_1detail_1_1_expr_base.html" target="_top" xlink:title="Root of the expression class hierarchy.">
<polygon fill="white" stroke="#666666" points="206,-67.88 117.25,-67.88 117.25,-37.38 206,-37.38 206,-67.88"/>
<text text-anchor="start" x="125.25" y="-54.38" font-family="Helvetica,sans-Serif" font-size="10.00">zhl::expr::detail::</text>
<text text-anchor="middle" x="161.62" y="-43.12" font-family="Helvetica,sans-Serif" font-size="10.00">ExprBase</text>
</a>
</g>
</g>
<!-- Node0&#45;&gt;Node1 -->
<g id="edge2_Node000000_Node000001" class="edge">
<title>Node0&#45;&gt;Node1</title>
<g id="a_edge2_Node000000_Node000001"><a xlink:title=" ">
<path fill="none" stroke="#63b8ff" d="M93.02,-52.62C100.98,-52.62 109.13,-52.62 116.89,-52.62"/>
<polygon fill="#63b8ff" stroke="#63b8ff" points="93.09,-49.13 83.09,-52.63 93.09,-56.13 93.09,-49.13"/>
</a>
</g>
</g>
<!-- Node2 -->
<g id="Node000002" class="node">
<title>Node2</title>
<g id="a_Node000002"><a xlink:href="classzhl_1_1expr_1_1detail_1_1_ctor.html" target="_top" xlink:title=" ">
<polygon fill="white" stroke="#666666" points="349.5,-105.25 242,-105.25 242,-86 349.5,-86 349.5,-105.25"/>
<text text-anchor="middle" x="295.75" y="-91.75" font-family="Helvetica,sans-Serif" font-size="10.00">zhl::expr::detail::Ctor</text>
</a>
</g>
</g>
<!-- Node1&#45;&gt;Node2 -->
<g id="edge3_Node000001_Node000002" class="edge">
<title>Node1&#45;&gt;Node2</title>
<g id="a_edge3_Node000001_Node000002"><a xlink:title=" ">
<path fill="none" stroke="#63b8ff" d="M217.07,-70.34C232.97,-75.52 249.8,-80.99 263.71,-85.52"/>
<polygon fill="#63b8ff" stroke="#63b8ff" points="218.29,-67.06 207.69,-67.29 216.12,-73.72 218.29,-67.06"/>
</a>
</g>
</g>
<!-- Node3 -->
<g id="Node000003" class="node">
<title>Node3</title>
<g id="a_Node000003"><a xlink:href="classzhl_1_1expr_1_1detail_1_1_symbol.html" target="_top" xlink:title=" ">
<polygon fill="white" stroke="#666666" points="340.12,-67.88 251.38,-67.88 251.38,-37.38 340.12,-37.38 340.12,-67.88"/>
<text text-anchor="start" x="259.38" y="-54.38" font-family="Helvetica,sans-Serif" font-size="10.00">zhl::expr::detail::</text>
<text text-anchor="middle" x="295.75" y="-43.12" font-family="Helvetica,sans-Serif" font-size="10.00">Symbol</text>
</a>
</g>
</g>
<!-- Node1&#45;&gt;Node3 -->
<g id="edge4_Node000001_Node000003" class="edge">
<title>Node1&#45;&gt;Node3</title>
<g id="a_edge4_Node000001_Node000003"><a xlink:title=" ">
<path fill="none" stroke="#63b8ff" d="M217.68,-52.62C228.85,-52.62 240.46,-52.62 251.17,-52.62"/>
<polygon fill="#63b8ff" stroke="#63b8ff" points="217.77,-49.13 207.77,-52.63 217.77,-56.13 217.77,-49.13"/>
</a>
</g>
</g>
<!-- Node4 -->
<g id="Node000004" class="node">
<title>Node4</title>
<g id="a_Node000004"><a xlink:href="classzhl_1_1expr_1_1detail_1_1_val.html" target="_top" xlink:title=" ">
<polygon fill="white" stroke="#666666" points="346.88,-19.25 244.62,-19.25 244.62,0 346.88,0 346.88,-19.25"/>
<text text-anchor="middle" x="295.75" y="-5.75" font-family="Helvetica,sans-Serif" font-size="10.00">zhl::expr::detail::Val</text>
</a>
</g>
</g>
<!-- Node1&#45;&gt;Node4 -->
<g id="edge5_Node000001_Node000004" class="edge">
<title>Node1&#45;&gt;Node4</title>
<g id="a_edge5_Node000001_Node000004"><a xlink:title=" ">
<path fill="none" stroke="#63b8ff" d="M217.07,-34.91C232.97,-29.73 249.8,-24.26 263.71,-19.73"/>
<polygon fill="#63b8ff" stroke="#63b8ff" points="216.12,-31.53 207.69,-37.96 218.29,-38.19 216.12,-31.53"/>
</a>
</g>
</g>
</g>
</svg>
