<?xml version="1.0" encoding="UTF-8" standalone="no"?>
<!DOCTYPE svg PUBLIC "-//W3C//DTD SVG 1.1//EN"
 "http://www.w3.org/Graphics/SVG/1.1/DTD/svg11.dtd">
<!-- Generated by graphviz version 12.2.1 (20241206.2353)
 -->
<!-- Title: Graphical Class Hierarchy Pages: 1 -->
<svg width="562pt" height="170pt"
 viewBox="0.00 0.00 562.25 169.75" xmlns="http://www.w3.org/2000/svg" xmlns:xlink="http://www.w3.org/1999/xlink">
<g id="graph0" class="graph" transform="scale(1 1) rotate(0) translate(4 165.75)">
<title>Graphical Class Hierarchy</title>
<!-- Node0 -->
<g id="Node000000" class="node">
<title>Node0</title>
<g id="a_Node000000"><a xlink:href="structzml_1_1detail_1_1_defines_constrain_func_interface_traits_1_1_concept.html" target="_top" xlink:title=" ">
<polygon fill="white" stroke="#666666" points="143.5,-96.12 0,-96.12 0,-65.62 143.5,-65.62 143.5,-96.12"/>
<text text-anchor="start" x="8" y="-82.62" font-family="Helvetica,sans-Serif" font-size="10.00">zml::detail::DefinesConstrain</text>
<text text-anchor="middle" x="71.75" y="-71.38" font-family="Helvetica,sans-Serif" font-size="10.00">FuncInterfaceTraits::Concept</text>
</a>
</g>
</g>
<!-- Node1 -->
<g id="Node000001" class="node">
<title>Node1</title>
<g id="a_Node000001"><a xlink:href="classzml_1_1detail_1_1_defines_constrain_func_interface_traits_1_1_fallback_model.html" target="_top" xlink:title=" ">
<polygon fill="white" stroke="#666666" points="349.25,-161.75 179.5,-161.75 179.5,-120 349.25,-120 349.25,-161.75"/>
<text text-anchor="start" x="187.5" y="-148.25" font-family="Helvetica,sans-Serif" font-size="10.00">zml::detail::DefinesConstrain</text>
<text text-anchor="start" x="187.5" y="-137" font-family="Helvetica,sans-Serif" font-size="10.00">FuncInterfaceTraits::FallbackModel</text>
<text text-anchor="middle" x="264.38" y="-125.75" font-family="Helvetica,sans-Serif" font-size="10.00">&lt; ConcreteModel &gt;</text>
</a>
</g>
</g>
<!-- Node0&#45;&gt;Node1 -->
<g id="edge225_Node000000_Node000001" class="edge">
<title>Node0&#45;&gt;Node1</title>
<g id="a_edge225_Node000000_Node000001"><a xlink:title=" ">
<path fill="none" stroke="#63b8ff" d="M133.13,-99.88C153.04,-106.15 175.32,-113.16 195.74,-119.59"/>
<polygon fill="#63b8ff" stroke="#63b8ff" points="134.37,-96.6 123.78,-96.94 132.27,-103.28 134.37,-96.6"/>
</a>
</g>
</g>
<!-- Node3 -->
<g id="Node000003" class="node">
<title>Node3</title>
<g id="a_Node000003"><a xlink:href="classzml_1_1detail_1_1_defines_constrain_func_interface_traits_1_1_fallback_model.html" target="_top" xlink:title=" ">
<polygon fill="white" stroke="#666666" points="349.25,-101.75 179.5,-101.75 179.5,-60 349.25,-60 349.25,-101.75"/>
<text text-anchor="start" x="187.5" y="-88.25" font-family="Helvetica,sans-Serif" font-size="10.00">zml::detail::DefinesConstrain</text>
<text text-anchor="start" x="187.5" y="-77" font-family="Helvetica,sans-Serif" font-size="10.00">FuncInterfaceTraits::FallbackModel</text>
<text text-anchor="middle" x="264.38" y="-65.75" font-family="Helvetica,sans-Serif" font-size="10.00">&lt; ConcreteOp &gt;</text>
</a>
</g>
</g>
<!-- Node0&#45;&gt;Node3 -->
<g id="edge227_Node000000_Node000003" class="edge">
<title>Node0&#45;&gt;Node3</title>
<g id="a_edge227_Node000000_Node000003"><a xlink:title=" ">
<path fill="none" stroke="#63b8ff" d="M155.23,-80.88C163.15,-80.88 171.2,-80.88 179.14,-80.88"/>
<polygon fill="#63b8ff" stroke="#63b8ff" points="155.25,-77.38 145.25,-80.88 155.25,-84.38 155.25,-77.38"/>
</a>
</g>
</g>
<!-- Node4 -->
<g id="Node000004" class="node">
<title>Node4</title>
<g id="a_Node000004"><a xlink:href="classzml_1_1detail_1_1_defines_constrain_func_interface_traits_1_1_model.html" target="_top" xlink:title=" ">
<polygon fill="white" stroke="#666666" points="335.75,-41.75 193,-41.75 193,0 335.75,0 335.75,-41.75"/>
<text text-anchor="start" x="201" y="-28.25" font-family="Helvetica,sans-Serif" font-size="10.00">zml::detail::DefinesConstrain</text>
<text text-anchor="start" x="201" y="-17" font-family="Helvetica,sans-Serif" font-size="10.00">FuncInterfaceTraits::Model</text>
<text text-anchor="middle" x="264.38" y="-5.75" font-family="Helvetica,sans-Serif" font-size="10.00">&lt; ConcreteOp &gt;</text>
</a>
</g>
</g>
<!-- Node0&#45;&gt;Node4 -->
<g id="edge228_Node000000_Node000004" class="edge">
<title>Node0&#45;&gt;Node4</title>
<g id="a_edge228_Node000000_Node000004"><a xlink:title=" ">
<path fill="none" stroke="#63b8ff" d="M133.13,-61.87C153.04,-55.6 175.32,-48.59 195.74,-42.16"/>
<polygon fill="#63b8ff" stroke="#63b8ff" points="132.27,-58.47 123.78,-64.81 134.37,-65.15 132.27,-58.47"/>
</a>
</g>
</g>
<!-- Node2 -->
<g id="Node000002" class="node">
<title>Node2</title>
<g id="a_Node000002"><a xlink:href="classzml_1_1detail_1_1_defines_constrain_func_interface_traits_1_1_external_model.html" target="_top" xlink:title=" ">
<polygon fill="white" stroke="#666666" points="554.25,-161.75 385.25,-161.75 385.25,-120 554.25,-120 554.25,-161.75"/>
<text text-anchor="start" x="393.25" y="-148.25" font-family="Helvetica,sans-Serif" font-size="10.00">zml::detail::DefinesConstrain</text>
<text text-anchor="start" x="393.25" y="-137" font-family="Helvetica,sans-Serif" font-size="10.00">FuncInterfaceTraits::ExternalModel</text>
<text text-anchor="middle" x="469.75" y="-125.75" font-family="Helvetica,sans-Serif" font-size="10.00">&lt; ConcreteModel, ConcreteOp &gt;</text>
</a>
</g>
</g>
<!-- Node1&#45;&gt;Node2 -->
<g id="edge226_Node000001_Node000002" class="edge">
<title>Node1&#45;&gt;Node2</title>
<g id="a_edge226_Node000001_Node000002"><a xlink:title=" ">
<path fill="none" stroke="#63b8ff" d="M360.88,-140.88C368.92,-140.88 377.01,-140.88 384.95,-140.88"/>
<polygon fill="#63b8ff" stroke="#63b8ff" points="361.08,-137.38 351.08,-140.88 361.08,-144.38 361.08,-137.38"/>
</a>
</g>
</g>
</g>
</svg>
