<?xml version="1.0" encoding="UTF-8" standalone="no"?>
<!DOCTYPE svg PUBLIC "-//W3C//DTD SVG 1.1//EN"
 "http://www.w3.org/Graphics/SVG/1.1/DTD/svg11.dtd">
<!-- Generated by graphviz version 12.2.1 (20241206.2353)
 -->
<!-- Title: Graphical Class Hierarchy Pages: 1 -->
<svg width="452pt" height="147pt"
 viewBox="0.00 0.00 452.00 147.12" xmlns="http://www.w3.org/2000/svg" xmlns:xlink="http://www.w3.org/1999/xlink">
<g id="graph0" class="graph" transform="scale(1 1) rotate(0) translate(4 143.12)">
<title>Graphical Class Hierarchy</title>
<!-- Node0 -->
<g id="Node000000" class="node">
<title>Node0</title>
<g id="a_Node000000"><a xlink:href="classzml_1_1detail_1_1_mod_op_generic_adaptor_base.html" target="_top" xlink:title=" ">
<polygon fill="white" stroke="#666666" points="132.25,-79.5 0,-79.5 0,-49 132.25,-49 132.25,-79.5"/>
<text text-anchor="start" x="8" y="-66" font-family="Helvetica,sans-Serif" font-size="10.00">zml::detail::ModOpGeneric</text>
<text text-anchor="middle" x="66.12" y="-54.75" font-family="Helvetica,sans-Serif" font-size="10.00">AdaptorBase</text>
</a>
</g>
</g>
<!-- Node1 -->
<g id="Node000001" class="node">
<title>Node1</title>
<g id="a_Node000001"><a xlink:href="classzml_1_1_mod_op_generic_adaptor.html" target="_top" xlink:title=" ">
<polygon fill="white" stroke="#666666" points="305,-139.12 168.25,-139.12 168.25,-97.38 305,-97.38 305,-139.12"/>
<text text-anchor="start" x="176.25" y="-125.62" font-family="Helvetica,sans-Serif" font-size="10.00">zml::ModOpGenericAdaptor</text>
<text text-anchor="start" x="176.25" y="-114.38" font-family="Helvetica,sans-Serif" font-size="10.00">&lt;::llvm::ArrayRef&lt;::mlir</text>
<text text-anchor="middle" x="236.62" y="-103.12" font-family="Helvetica,sans-Serif" font-size="10.00">::Attribute &gt; &gt;</text>
</a>
</g>
</g>
<!-- Node0&#45;&gt;Node1 -->
<g id="edge305_Node000000_Node000001" class="edge">
<title>Node0&#45;&gt;Node1</title>
<g id="a_edge305_Node000000_Node000001"><a xlink:title=" ">
<path fill="none" stroke="#63b8ff" d="M126.65,-83.33C140.4,-87.73 155.11,-92.45 169.13,-96.94"/>
<polygon fill="#63b8ff" stroke="#63b8ff" points="127.89,-80.05 117.3,-80.33 125.76,-86.72 127.89,-80.05"/>
</a>
</g>
</g>
<!-- Node2 -->
<g id="Node000002" class="node">
<title>Node2</title>
<g id="a_Node000002"><a xlink:href="classzml_1_1_mod_op_generic_adaptor.html" target="_top" xlink:title=" ">
<polygon fill="white" stroke="#666666" points="305,-79.5 168.25,-79.5 168.25,-49 305,-49 305,-79.5"/>
<text text-anchor="start" x="176.25" y="-66" font-family="Helvetica,sans-Serif" font-size="10.00">zml::ModOpGenericAdaptor</text>
<text text-anchor="middle" x="236.62" y="-54.75" font-family="Helvetica,sans-Serif" font-size="10.00">&lt;::mlir::ValueRange &gt;</text>
</a>
</g>
</g>
<!-- Node0&#45;&gt;Node2 -->
<g id="edge306_Node000000_Node000002" class="edge">
<title>Node0&#45;&gt;Node2</title>
<g id="a_edge306_Node000000_Node000002"><a xlink:title=" ">
<path fill="none" stroke="#63b8ff" d="M143.61,-64.25C151.7,-64.25 159.89,-64.25 167.87,-64.25"/>
<polygon fill="#63b8ff" stroke="#63b8ff" points="143.79,-60.75 133.79,-64.25 143.79,-67.75 143.79,-60.75"/>
</a>
</g>
</g>
<!-- Node4 -->
<g id="Node000004" class="node">
<title>Node4</title>
<g id="a_Node000004"><a xlink:href="classzml_1_1_mod_op_generic_adaptor.html" target="_top" xlink:title=" ">
<polygon fill="white" stroke="#666666" points="305,-30.5 168.25,-30.5 168.25,0 305,0 305,-30.5"/>
<text text-anchor="start" x="176.25" y="-17" font-family="Helvetica,sans-Serif" font-size="10.00">zml::ModOpGenericAdaptor</text>
<text text-anchor="middle" x="236.62" y="-5.75" font-family="Helvetica,sans-Serif" font-size="10.00">&lt; RangeT &gt;</text>
</a>
</g>
</g>
<!-- Node0&#45;&gt;Node4 -->
<g id="edge308_Node000000_Node000004" class="edge">
<title>Node0&#45;&gt;Node4</title>
<g id="a_edge308_Node000000_Node000004"><a xlink:title=" ">
<path fill="none" stroke="#63b8ff" d="M131.55,-45.52C148.03,-40.72 165.59,-35.62 181.49,-30.99"/>
<polygon fill="#63b8ff" stroke="#63b8ff" points="130.98,-42.04 122.36,-48.19 132.94,-48.76 130.98,-42.04"/>
</a>
</g>
</g>
<!-- Node3 -->
<g id="Node000003" class="node">
<title>Node3</title>
<g id="a_Node000003"><a xlink:href="classzml_1_1_mod_op_adaptor.html" target="_top" xlink:title=" ">
<polygon fill="white" stroke="#666666" points="444,-73.88 341,-73.88 341,-54.62 444,-54.62 444,-73.88"/>
<text text-anchor="middle" x="392.5" y="-60.38" font-family="Helvetica,sans-Serif" font-size="10.00">zml::ModOpAdaptor</text>
</a>
</g>
</g>
<!-- Node2&#45;&gt;Node3 -->
<g id="edge307_Node000002_Node000003" class="edge">
<title>Node2&#45;&gt;Node3</title>
<g id="a_edge307_Node000002_Node000003"><a xlink:title=" ">
<path fill="none" stroke="#63b8ff" d="M316.38,-64.25C324.65,-64.25 332.89,-64.25 340.72,-64.25"/>
<polygon fill="#63b8ff" stroke="#63b8ff" points="316.63,-60.75 306.63,-64.25 316.63,-67.75 316.63,-60.75"/>
</a>
</g>
</g>
</g>
</svg>
