<?xml version="1.0" encoding="UTF-8" standalone="no"?>
<!DOCTYPE svg PUBLIC "-//W3C//DTD SVG 1.1//EN"
 "http://www.w3.org/Graphics/SVG/1.1/DTD/svg11.dtd">
<!-- Generated by graphviz version 12.2.1 (20241206.2353)
 -->
<!-- Title: Graphical Class Hierarchy Pages: 1 -->
<svg width="366pt" height="174pt"
 viewBox="0.00 0.00 365.75 173.88" xmlns="http://www.w3.org/2000/svg" xmlns:xlink="http://www.w3.org/1999/xlink">
<g id="graph0" class="graph" transform="scale(1 1) rotate(0) translate(4 169.88)">
<title>Graphical Class Hierarchy</title>
<!-- Node0 -->
<g id="Node000000" class="node">
<title>Node0</title>
<g id="a_Node000000"><a xlink:href="classzhl_1_1_op_bindings.html" target="_top" xlink:title=" ">
<polygon fill="white" stroke="#666666" points="85,-86.25 0,-86.25 0,-67 85,-67 85,-86.25"/>
<text text-anchor="middle" x="42.5" y="-72.75" font-family="Helvetica,sans-Serif" font-size="10.00">zhl::OpBindings</text>
</a>
</g>
</g>
<!-- Node1 -->
<g id="Node000001" class="node">
<title>Node1</title>
<g id="a_Node000001"><a xlink:href="classzhl_1_1_op_bindings_map.html" target="_top" xlink:title=" ">
<polygon fill="white" stroke="#666666" points="225.5,-165.88 121,-165.88 121,-135.38 225.5,-135.38 225.5,-165.88"/>
<text text-anchor="start" x="129" y="-152.38" font-family="Helvetica,sans-Serif" font-size="10.00">zhl::OpBindingsMap</text>
<text text-anchor="middle" x="173.25" y="-141.12" font-family="Helvetica,sans-Serif" font-size="10.00">&lt; mlir::Operation * &gt;</text>
</a>
</g>
</g>
<!-- Node0&#45;&gt;Node1 -->
<g id="edge129_Node000000_Node000001" class="edge">
<title>Node0&#45;&gt;Node1</title>
<g id="a_edge129_Node000000_Node000001"><a xlink:title=" ">
<path fill="none" stroke="#63b8ff" d="M67.93,-93.04C82.98,-102.91 102.81,-115.48 121,-125.62 126.62,-128.76 132.69,-131.91 138.62,-134.88"/>
<polygon fill="#63b8ff" stroke="#63b8ff" points="69.88,-90.14 59.61,-87.54 66.02,-95.98 69.88,-90.14"/>
</a>
</g>
</g>
<!-- Node3 -->
<g id="Node000003" class="node">
<title>Node3</title>
<g id="a_Node000003"><a xlink:href="classzhl_1_1_op_bindings_map.html" target="_top" xlink:title=" ">
<polygon fill="white" stroke="#666666" points="225.12,-116.88 121.38,-116.88 121.38,-86.38 225.12,-86.38 225.12,-116.88"/>
<text text-anchor="start" x="129.38" y="-103.38" font-family="Helvetica,sans-Serif" font-size="10.00">zhl::OpBindingsMap</text>
<text text-anchor="middle" x="173.25" y="-92.12" font-family="Helvetica,sans-Serif" font-size="10.00">&lt; mlir::Value &gt;</text>
</a>
</g>
</g>
<!-- Node0&#45;&gt;Node3 -->
<g id="edge131_Node000000_Node000003" class="edge">
<title>Node0&#45;&gt;Node3</title>
<g id="a_edge131_Node000000_Node000003"><a xlink:title=" ">
<path fill="none" stroke="#63b8ff" d="M96.59,-86.93C104.73,-88.51 113.12,-90.14 121.21,-91.71"/>
<polygon fill="#63b8ff" stroke="#63b8ff" points="97.27,-83.5 86.79,-85.03 95.94,-90.37 97.27,-83.5"/>
</a>
</g>
</g>
<!-- Node5 -->
<g id="Node000005" class="node">
<title>Node5</title>
<g id="a_Node000005"><a xlink:href="classzhl_1_1_op_bindings_map.html" target="_top" xlink:title=" ">
<polygon fill="white" stroke="#666666" points="225.12,-67.88 121.38,-67.88 121.38,-37.38 225.12,-37.38 225.12,-67.88"/>
<text text-anchor="start" x="129.38" y="-54.38" font-family="Helvetica,sans-Serif" font-size="10.00">zhl::OpBindingsMap</text>
<text text-anchor="middle" x="173.25" y="-43.12" font-family="Helvetica,sans-Serif" font-size="10.00">&lt; Key &gt;</text>
</a>
</g>
</g>
<!-- Node0&#45;&gt;Node5 -->
<g id="edge133_Node000000_Node000005" class="edge">
<title>Node0&#45;&gt;Node5</title>
<g id="a_edge133_Node000000_Node000005"><a xlink:title=" ">
<path fill="none" stroke="#63b8ff" d="M96.59,-66.73C104.73,-65.21 113.12,-63.65 121.21,-62.14"/>
<polygon fill="#63b8ff" stroke="#63b8ff" points="95.98,-63.28 86.79,-68.56 97.26,-70.16 95.98,-63.28"/>
</a>
</g>
</g>
<!-- Node6 -->
<g id="Node000006" class="node">
<title>Node6</title>
<g id="a_Node000006"><a xlink:href="classzhl_1_1_zhl_op_bindings.html" target="_top" xlink:title=" ">
<polygon fill="white" stroke="#666666" points="222.5,-19.25 124,-19.25 124,0 222.5,0 222.5,-19.25"/>
<text text-anchor="middle" x="173.25" y="-5.75" font-family="Helvetica,sans-Serif" font-size="10.00">zhl::ZhlOpBindings</text>
</a>
</g>
</g>
<!-- Node0&#45;&gt;Node6 -->
<g id="edge134_Node000000_Node000006" class="edge">
<title>Node0&#45;&gt;Node6</title>
<g id="a_edge134_Node000000_Node000006"><a xlink:title=" ">
<path fill="none" stroke="#63b8ff" d="M67.35,-60.12C82.33,-50.21 102.29,-37.78 121,-28.62 127.65,-25.37 135,-22.34 142.02,-19.69"/>
<polygon fill="#63b8ff" stroke="#63b8ff" points="65.45,-57.18 59.11,-65.67 69.36,-62.99 65.45,-57.18"/>
</a>
</g>
</g>
<!-- Node2 -->
<g id="Node000002" class="node">
<title>Node2</title>
<g id="a_Node000002"><a xlink:href="classzhl_1_1_stmt_bindings.html" target="_top" xlink:title=" ">
<polygon fill="white" stroke="#666666" points="356.25,-160.25 263,-160.25 263,-141 356.25,-141 356.25,-160.25"/>
<text text-anchor="middle" x="309.62" y="-146.75" font-family="Helvetica,sans-Serif" font-size="10.00">zhl::StmtBindings</text>
</a>
</g>
</g>
<!-- Node1&#45;&gt;Node2 -->
<g id="edge130_Node000001_Node000002" class="edge">
<title>Node1&#45;&gt;Node2</title>
<g id="a_edge130_Node000001_Node000002"><a xlink:title=" ">
<path fill="none" stroke="#63b8ff" d="M237.07,-150.62C245.7,-150.62 254.43,-150.62 262.69,-150.62"/>
<polygon fill="#63b8ff" stroke="#63b8ff" points="237.33,-147.13 227.33,-150.63 237.33,-154.13 237.33,-147.13"/>
</a>
</g>
</g>
<!-- Node4 -->
<g id="Node000004" class="node">
<title>Node4</title>
<g id="a_Node000004"><a xlink:href="classzhl_1_1_value_bindings.html" target="_top" xlink:title=" ">
<polygon fill="white" stroke="#666666" points="357.75,-111.25 261.5,-111.25 261.5,-92 357.75,-92 357.75,-111.25"/>
<text text-anchor="middle" x="309.62" y="-97.75" font-family="Helvetica,sans-Serif" font-size="10.00">zhl::ValueBindings</text>
</a>
</g>
</g>
<!-- Node3&#45;&gt;Node4 -->
<g id="edge132_Node000003_Node000004" class="edge">
<title>Node3&#45;&gt;Node4</title>
<g id="a_edge132_Node000003_Node000004"><a xlink:title=" ">
<path fill="none" stroke="#63b8ff" d="M236.86,-101.62C245.02,-101.62 253.26,-101.62 261.12,-101.62"/>
<polygon fill="#63b8ff" stroke="#63b8ff" points="236.95,-98.13 226.95,-101.63 236.95,-105.13 236.95,-98.13"/>
</a>
</g>
</g>
</g>
</svg>
