<?xml version="1.0" encoding="UTF-8" standalone="no"?>
<!DOCTYPE svg PUBLIC "-//W3C//DTD SVG 1.1//EN"
 "http://www.w3.org/Graphics/SVG/1.1/DTD/svg11.dtd">
<!-- Generated by graphviz version 12.2.1 (20241206.2353)
 -->
<!-- Title: Graphical Class Hierarchy Pages: 1 -->
<svg width="215pt" height="1692pt"
 viewBox="0.00 0.00 214.75 1692.25" xmlns="http://www.w3.org/2000/svg" xmlns:xlink="http://www.w3.org/1999/xlink">
<g id="graph0" class="graph" transform="scale(1 1) rotate(0) translate(4 1688.25)">
<title>Graphical Class Hierarchy</title>
<!-- Node0 -->
<g id="Node000000" class="node">
<title>Node0</title>
<g id="a_Node000000"><a xlink:title=" ">
<polygon fill="#e0e0e0" stroke="#999999" points="50.5,-851.25 0,-851.25 0,-832 50.5,-832 50.5,-851.25"/>
<text text-anchor="middle" x="25.25" y="-837.75" font-family="Helvetica,sans-Serif" font-size="10.00">mlir::Op</text>
</a>
</g>
</g>
<!-- Node1 -->
<g id="Node000001" class="node">
<title>Node1</title>
<g id="a_Node000001"><a xlink:href="classzml_1_1_add_op.html" target="_top" xlink:title=" ">
<polygon fill="white" stroke="#666666" points="180.5,-1684.25 112.75,-1684.25 112.75,-1665 180.5,-1665 180.5,-1684.25"/>
<text text-anchor="middle" x="146.62" y="-1670.75" font-family="Helvetica,sans-Serif" font-size="10.00">zml::AddOp</text>
</a>
</g>
</g>
<!-- Node0&#45;&gt;Node1 -->
<g id="edge11_Node000000_Node000001" class="edge">
<title>Node0&#45;&gt;Node1</title>
<g id="a_edge11_Node000000_Node000001"><a xlink:title=" ">
<path fill="none" stroke="#63b8ff" d="M26.41,-862.98C27.51,-985.21 35.52,-1592.88 86.5,-1656.62 92.87,-1664.59 102.65,-1669.12 112.44,-1671.67"/>
<polygon fill="#63b8ff" stroke="#63b8ff" points="29.91,-863.09 26.33,-853.12 22.91,-863.15 29.91,-863.09"/>
</a>
</g>
</g>
<!-- Node2 -->
<g id="Node000002" class="node">
<title>Node2</title>
<g id="a_Node000002"><a xlink:href="classzml_1_1_alloc_array_op.html" target="_top" xlink:title=" ">
<polygon fill="white" stroke="#666666" points="194.38,-1647.25 98.88,-1647.25 98.88,-1628 194.38,-1628 194.38,-1647.25"/>
<text text-anchor="middle" x="146.62" y="-1633.75" font-family="Helvetica,sans-Serif" font-size="10.00">zml::AllocArrayOp</text>
</a>
</g>
</g>
<!-- Node0&#45;&gt;Node2 -->
<g id="edge12_Node000000_Node000002" class="edge">
<title>Node0&#45;&gt;Node2</title>
<g id="a_edge12_Node000000_Node000002"><a xlink:title=" ">
<path fill="none" stroke="#63b8ff" d="M26.49,-863.12C28.01,-982.31 37.87,-1559.03 86.5,-1619.62 89.79,-1623.73 93.99,-1626.92 98.62,-1629.39"/>
<polygon fill="#63b8ff" stroke="#63b8ff" points="29.99,-863.16 26.37,-853.2 22.99,-863.25 29.99,-863.16"/>
</a>
</g>
</g>
<!-- Node3 -->
<g id="Node000003" class="node">
<title>Node3</title>
<g id="a_Node000003"><a xlink:href="classzml_1_1_assert_op.html" target="_top" xlink:title=" ">
<polygon fill="white" stroke="#666666" points="186.12,-1610.25 107.12,-1610.25 107.12,-1591 186.12,-1591 186.12,-1610.25"/>
<text text-anchor="middle" x="146.62" y="-1596.75" font-family="Helvetica,sans-Serif" font-size="10.00">zml::AssertOp</text>
</a>
</g>
</g>
<!-- Node0&#45;&gt;Node3 -->
<g id="edge13_Node000000_Node000003" class="edge">
<title>Node0&#45;&gt;Node3</title>
<g id="a_edge13_Node000000_Node000003"><a xlink:title=" ">
<path fill="none" stroke="#63b8ff" d="M26.58,-863.17C28.54,-979.05 40.2,-1525.16 86.5,-1582.62 91.62,-1588.98 98.91,-1593.14 106.63,-1595.86"/>
<polygon fill="#63b8ff" stroke="#63b8ff" points="30.08,-863.2 26.42,-853.25 23.08,-863.31 30.08,-863.2"/>
</a>
</g>
</g>
<!-- Node4 -->
<g id="Node000004" class="node">
<title>Node4</title>
<g id="a_Node000004"><a xlink:href="classzml_1_1_bit_and_op.html" target="_top" xlink:title=" ">
<polygon fill="white" stroke="#666666" points="186.5,-1573.25 106.75,-1573.25 106.75,-1554 186.5,-1554 186.5,-1573.25"/>
<text text-anchor="middle" x="146.62" y="-1559.75" font-family="Helvetica,sans-Serif" font-size="10.00">zml::BitAndOp</text>
</a>
</g>
</g>
<!-- Node0&#45;&gt;Node4 -->
<g id="edge14_Node000000_Node000004" class="edge">
<title>Node0&#45;&gt;Node4</title>
<g id="a_edge14_Node000000_Node000004"><a xlink:title=" ">
<path fill="none" stroke="#63b8ff" d="M26.68,-863.14C29.09,-975.43 42.52,-1491.28 86.5,-1545.62 91.56,-1551.88 98.73,-1556.02 106.34,-1558.74"/>
<polygon fill="#63b8ff" stroke="#63b8ff" points="30.18,-863.19 26.47,-853.26 23.18,-863.33 30.18,-863.19"/>
</a>
</g>
</g>
<!-- Node5 -->
<g id="Node000005" class="node">
<title>Node5</title>
<g id="a_Node000005"><a xlink:href="classzml_1_1_component_op.html" target="_top" xlink:title=" ">
<polygon fill="white" stroke="#666666" points="197,-1536.25 96.25,-1536.25 96.25,-1517 197,-1517 197,-1536.25"/>
<text text-anchor="middle" x="146.62" y="-1522.75" font-family="Helvetica,sans-Serif" font-size="10.00">zml::ComponentOp</text>
</a>
</g>
</g>
<!-- Node0&#45;&gt;Node5 -->
<g id="edge15_Node000000_Node000005" class="edge">
<title>Node0&#45;&gt;Node5</title>
<g id="a_edge15_Node000000_Node000005"><a xlink:title=" ">
<path fill="none" stroke="#63b8ff" d="M26.78,-863.02C29.66,-971.47 44.82,-1457.37 86.5,-1508.62 89.14,-1511.87 92.35,-1514.55 95.89,-1516.75"/>
<polygon fill="#63b8ff" stroke="#63b8ff" points="30.29,-863.14 26.53,-853.23 23.29,-863.32 30.29,-863.14"/>
</a>
</g>
</g>
<!-- Node6 -->
<g id="Node000006" class="node">
<title>Node6</title>
<g id="a_Node000006"><a xlink:href="classzml_1_1_constrain_call_op.html" target="_top" xlink:title=" ">
<polygon fill="white" stroke="#666666" points="201.5,-1499.25 91.75,-1499.25 91.75,-1480 201.5,-1480 201.5,-1499.25"/>
<text text-anchor="middle" x="146.62" y="-1485.75" font-family="Helvetica,sans-Serif" font-size="10.00">zml::ConstrainCallOp</text>
</a>
</g>
</g>
<!-- Node0&#45;&gt;Node6 -->
<g id="edge16_Node000000_Node000006" class="edge">
<title>Node0&#45;&gt;Node6</title>
<g id="a_edge16_Node000000_Node000006"><a xlink:title=" ">
<path fill="none" stroke="#63b8ff" d="M26.91,-863.12C30.29,-968.08 47.15,-1423.49 86.5,-1471.62 89.08,-1474.78 92.2,-1477.4 95.64,-1479.56"/>
<polygon fill="#63b8ff" stroke="#63b8ff" points="30.4,-863.04 26.59,-853.15 23.41,-863.26 30.4,-863.04"/>
</a>
</g>
</g>
<!-- Node7 -->
<g id="Node000007" class="node">
<title>Node7</title>
<g id="a_Node000007"><a xlink:href="classzml_1_1_constrain_op.html" target="_top" xlink:title=" ">
<polygon fill="white" stroke="#666666" points="192.88,-1462.25 100.38,-1462.25 100.38,-1443 192.88,-1443 192.88,-1462.25"/>
<text text-anchor="middle" x="146.62" y="-1448.75" font-family="Helvetica,sans-Serif" font-size="10.00">zml::ConstrainOp</text>
</a>
</g>
</g>
<!-- Node0&#45;&gt;Node7 -->
<g id="edge17_Node000000_Node000007" class="edge">
<title>Node0&#45;&gt;Node7</title>
<g id="a_edge17_Node000000_Node000007"><a xlink:title=" ">
<path fill="none" stroke="#63b8ff" d="M27.03,-862.8C30.9,-963.35 49.43,-1389.55 86.5,-1434.62 90.18,-1439.1 94.94,-1442.49 100.16,-1445.05"/>
<polygon fill="#63b8ff" stroke="#63b8ff" points="30.53,-862.89 26.66,-853.03 23.54,-863.16 30.53,-862.89"/>
</a>
</g>
</g>
<!-- Node8 -->
<g id="Node000008" class="node">
<title>Node8</title>
<g id="a_Node000008"><a xlink:href="classzml_1_1_constructor_ref_op.html" target="_top" xlink:title=" ">
<polygon fill="white" stroke="#666666" points="205.25,-1425.25 88,-1425.25 88,-1406 205.25,-1406 205.25,-1425.25"/>
<text text-anchor="middle" x="146.62" y="-1411.75" font-family="Helvetica,sans-Serif" font-size="10.00">zml::ConstructorRefOp</text>
</a>
</g>
</g>
<!-- Node0&#45;&gt;Node8 -->
<g id="edge18_Node000000_Node000008" class="edge">
<title>Node0&#45;&gt;Node8</title>
<g id="a_edge18_Node000000_Node000008"><a xlink:title=" ">
<path fill="none" stroke="#63b8ff" d="M27.17,-862.68C31.58,-959.1 51.72,-1355.62 86.5,-1397.62 89.1,-1400.77 92.23,-1403.37 95.68,-1405.53"/>
<polygon fill="#63b8ff" stroke="#63b8ff" points="30.68,-862.69 26.73,-852.86 23.68,-863.01 30.68,-862.69"/>
</a>
</g>
</g>
<!-- Node9 -->
<g id="Node000009" class="node">
<title>Node9</title>
<g id="a_Node000009"><a xlink:href="classzml_1_1_eqz_ext_op.html" target="_top" xlink:title=" ">
<polygon fill="white" stroke="#666666" points="188,-1388.25 105.25,-1388.25 105.25,-1369 188,-1369 188,-1388.25"/>
<text text-anchor="middle" x="146.62" y="-1374.75" font-family="Helvetica,sans-Serif" font-size="10.00">zml::EqzExtOp</text>
</a>
</g>
</g>
<!-- Node0&#45;&gt;Node9 -->
<g id="edge19_Node000000_Node000009" class="edge">
<title>Node0&#45;&gt;Node9</title>
<g id="a_edge19_Node000000_Node000009"><a xlink:title=" ">
<path fill="none" stroke="#63b8ff" d="M27.36,-863.01C32.38,-955.94 54.06,-1321.75 86.5,-1360.62 91.31,-1366.39 97.91,-1370.35 104.97,-1373.06"/>
<polygon fill="#63b8ff" stroke="#63b8ff" points="30.86,-862.87 26.84,-853.07 23.87,-863.25 30.86,-862.87"/>
</a>
</g>
</g>
<!-- Node10 -->
<g id="Node000010" class="node">
<title>Node10</title>
<g id="a_Node000010"><a xlink:href="classzml_1_1_ext_add_op.html" target="_top" xlink:title=" ">
<polygon fill="white" stroke="#666666" points="188,-1351.25 105.25,-1351.25 105.25,-1332 188,-1332 188,-1351.25"/>
<text text-anchor="middle" x="146.62" y="-1337.75" font-family="Helvetica,sans-Serif" font-size="10.00">zml::ExtAddOp</text>
</a>
</g>
</g>
<!-- Node0&#45;&gt;Node10 -->
<g id="edge20_Node000000_Node000010" class="edge">
<title>Node0&#45;&gt;Node10</title>
<g id="a_edge20_Node000000_Node000010"><a xlink:title=" ">
<path fill="none" stroke="#63b8ff" d="M25.95,-863.08C25.2,-947.09 26.69,-1252.59 86.5,-1323.62 91.34,-1329.37 97.95,-1333.32 105.01,-1336.03"/>
<polygon fill="#63b8ff" stroke="#63b8ff" points="29.45,-863.12 26.06,-853.08 22.45,-863.04 29.45,-863.12"/>
</a>
</g>
</g>
<!-- Node11 -->
<g id="Node000011" class="node">
<title>Node11</title>
<g id="a_Node000011"><a xlink:href="classzml_1_1_ext_inv_op.html" target="_top" xlink:title=" ">
<polygon fill="white" stroke="#666666" points="186.12,-1314.25 107.12,-1314.25 107.12,-1295 186.12,-1295 186.12,-1314.25"/>
<text text-anchor="middle" x="146.62" y="-1300.75" font-family="Helvetica,sans-Serif" font-size="10.00">zml::ExtInvOp</text>
</a>
</g>
</g>
<!-- Node0&#45;&gt;Node11 -->
<g id="edge21_Node000000_Node000011" class="edge">
<title>Node0&#45;&gt;Node11</title>
<g id="a_edge21_Node000000_Node000011"><a xlink:title=" ">
<path fill="none" stroke="#63b8ff" d="M26.2,-862.95C26.43,-942.63 31.23,-1221.66 86.5,-1286.62 91.78,-1292.84 99.14,-1296.95 106.88,-1299.65"/>
<polygon fill="#63b8ff" stroke="#63b8ff" points="29.7,-863.08 26.19,-853.08 22.7,-863.08 29.7,-863.08"/>
</a>
</g>
</g>
<!-- Node12 -->
<g id="Node000012" class="node">
<title>Node12</title>
<g id="a_Node000012"><a xlink:href="classzml_1_1_ext_mul_op.html" target="_top" xlink:title=" ">
<polygon fill="white" stroke="#666666" points="187.25,-1277.25 106,-1277.25 106,-1258 187.25,-1258 187.25,-1277.25"/>
<text text-anchor="middle" x="146.62" y="-1263.75" font-family="Helvetica,sans-Serif" font-size="10.00">zml::ExtMulOp</text>
</a>
</g>
</g>
<!-- Node0&#45;&gt;Node12 -->
<g id="edge22_Node000000_Node000012" class="edge">
<title>Node0&#45;&gt;Node12</title>
<g id="a_edge22_Node000000_Node000012"><a xlink:title=" ">
<path fill="none" stroke="#63b8ff" d="M26.48,-862.61C27.73,-937.55 35.71,-1190.64 86.5,-1249.62 91.54,-1255.48 98.42,-1259.46 105.71,-1262.17"/>
<polygon fill="#63b8ff" stroke="#63b8ff" points="29.99,-862.93 26.35,-852.98 22.99,-863.03 29.99,-862.93"/>
</a>
</g>
</g>
<!-- Node13 -->
<g id="Node000013" class="node">
<title>Node13</title>
<g id="a_Node000013"><a xlink:href="classzml_1_1_ext_sub_op.html" target="_top" xlink:title=" ">
<polygon fill="white" stroke="#666666" points="188,-1240.25 105.25,-1240.25 105.25,-1221 188,-1221 188,-1240.25"/>
<text text-anchor="middle" x="146.62" y="-1226.75" font-family="Helvetica,sans-Serif" font-size="10.00">zml::ExtSubOp</text>
</a>
</g>
</g>
<!-- Node0&#45;&gt;Node13 -->
<g id="edge23_Node000000_Node000013" class="edge">
<title>Node0&#45;&gt;Node13</title>
<g id="a_edge23_Node000000_Node000013"><a xlink:title=" ">
<path fill="none" stroke="#63b8ff" d="M26.84,-862.95C29.21,-933.79 40.32,-1159.77 86.5,-1212.62 91.37,-1218.2 97.91,-1222.08 104.87,-1224.77"/>
<polygon fill="#63b8ff" stroke="#63b8ff" points="30.34,-863.01 26.53,-853.12 23.34,-863.22 30.34,-863.01"/>
</a>
</g>
</g>
<!-- Node14 -->
<g id="Node000014" class="node">
<title>Node14</title>
<g id="a_Node000014"><a xlink:href="classzml_1_1_extern_fn_ref_op.html" target="_top" xlink:title=" ">
<polygon fill="white" stroke="#666666" points="199.62,-1203.25 93.62,-1203.25 93.62,-1184 199.62,-1184 199.62,-1203.25"/>
<text text-anchor="middle" x="146.62" y="-1189.75" font-family="Helvetica,sans-Serif" font-size="10.00">zml::ExternFnRefOp</text>
</a>
</g>
</g>
<!-- Node0&#45;&gt;Node14 -->
<g id="edge24_Node000000_Node000014" class="edge">
<title>Node0&#45;&gt;Node14</title>
<g id="a_edge24_Node000000_Node000014"><a xlink:title=" ">
<path fill="none" stroke="#63b8ff" d="M27.26,-862.93C30.81,-929 44.84,-1128.77 86.5,-1175.62 89.35,-1178.83 92.76,-1181.48 96.47,-1183.66"/>
<polygon fill="#63b8ff" stroke="#63b8ff" points="30.76,-862.91 26.76,-853.1 23.77,-863.26 30.76,-862.91"/>
</a>
</g>
</g>
<!-- Node15 -->
<g id="Node000015" class="node">
<title>Node15</title>
<g id="a_Node000015"><a xlink:href="classzml_1_1_field_def_op.html" target="_top" xlink:title=" ">
<polygon fill="white" stroke="#666666" points="190.25,-1166.25 103,-1166.25 103,-1147 190.25,-1147 190.25,-1166.25"/>
<text text-anchor="middle" x="146.62" y="-1152.75" font-family="Helvetica,sans-Serif" font-size="10.00">zml::FieldDefOp</text>
</a>
</g>
</g>
<!-- Node0&#45;&gt;Node15 -->
<g id="edge25_Node000000_Node000015" class="edge">
<title>Node0&#45;&gt;Node15</title>
<g id="a_edge25_Node000000_Node000015"><a xlink:title=" ">
<path fill="none" stroke="#63b8ff" d="M27.78,-862.94C32.59,-923.98 49.33,-1097.73 86.5,-1138.62 90.9,-1143.47 96.56,-1147.03 102.63,-1149.63"/>
<polygon fill="#63b8ff" stroke="#63b8ff" points="31.29,-862.93 27.05,-853.22 24.31,-863.45 31.29,-862.93"/>
</a>
</g>
</g>
<!-- Node16 -->
<g id="Node000016" class="node">
<title>Node16</title>
<g id="a_Node000016"><a xlink:href="classzml_1_1_get_array_len_op.html" target="_top" xlink:title=" ">
<polygon fill="white" stroke="#666666" points="199.25,-1129.25 94,-1129.25 94,-1110 199.25,-1110 199.25,-1129.25"/>
<text text-anchor="middle" x="146.62" y="-1115.75" font-family="Helvetica,sans-Serif" font-size="10.00">zml::GetArrayLenOp</text>
</a>
</g>
</g>
<!-- Node0&#45;&gt;Node16 -->
<g id="edge26_Node000000_Node000016" class="edge">
<title>Node0&#45;&gt;Node16</title>
<g id="a_edge26_Node000000_Node000016"><a xlink:title=" ">
<path fill="none" stroke="#63b8ff" d="M28.44,-862.8C34.59,-918.38 53.78,-1066.6 86.5,-1101.62 89.43,-1104.76 92.89,-1107.36 96.64,-1109.5"/>
<polygon fill="#63b8ff" stroke="#63b8ff" points="31.94,-862.67 27.4,-853.1 24.98,-863.41 31.94,-862.67"/>
</a>
</g>
</g>
<!-- Node17 -->
<g id="Node000017" class="node">
<title>Node17</title>
<g id="a_Node000017"><a xlink:href="classzml_1_1_get_global_op.html" target="_top" xlink:title=" ">
<polygon fill="white" stroke="#666666" points="193.62,-1092.25 99.62,-1092.25 99.62,-1073 193.62,-1073 193.62,-1092.25"/>
<text text-anchor="middle" x="146.62" y="-1078.75" font-family="Helvetica,sans-Serif" font-size="10.00">zml::GetGlobalOp</text>
</a>
</g>
</g>
<!-- Node0&#45;&gt;Node17 -->
<g id="edge27_Node000000_Node000017" class="edge">
<title>Node0&#45;&gt;Node17</title>
<g id="a_edge27_Node000000_Node000017"><a xlink:title=" ">
<path fill="none" stroke="#63b8ff" d="M25.61,-862.93C25.51,-906.83 31.64,-1008 86.5,-1064.62 90.16,-1068.4 94.58,-1071.39 99.35,-1073.76"/>
<polygon fill="#63b8ff" stroke="#63b8ff" points="29.11,-863.27 25.77,-853.21 22.11,-863.16 29.11,-863.27"/>
</a>
</g>
</g>
<!-- Node18 -->
<g id="Node000018" class="node">
<title>Node18</title>
<g id="a_Node000018"><a xlink:href="classzml_1_1_global_def_op.html" target="_top" xlink:title=" ">
<polygon fill="white" stroke="#666666" points="193.62,-1055.25 99.62,-1055.25 99.62,-1036 193.62,-1036 193.62,-1055.25"/>
<text text-anchor="middle" x="146.62" y="-1041.75" font-family="Helvetica,sans-Serif" font-size="10.00">zml::GlobalDefOp</text>
</a>
</g>
</g>
<!-- Node0&#45;&gt;Node18 -->
<g id="edge28_Node000000_Node000018" class="edge">
<title>Node0&#45;&gt;Node18</title>
<g id="a_edge28_Node000000_Node000018"><a xlink:title=" ">
<path fill="none" stroke="#63b8ff" d="M26.99,-862.75C29.48,-901.06 40.26,-982.2 86.5,-1027.62 90.17,-1031.23 94.55,-1034.12 99.23,-1036.43"/>
<polygon fill="#63b8ff" stroke="#63b8ff" points="30.49,-862.64 26.49,-852.83 23.5,-862.99 30.49,-862.64"/>
</a>
</g>
</g>
<!-- Node19 -->
<g id="Node000019" class="node">
<title>Node19</title>
<g id="a_Node000019"><a xlink:href="classzml_1_1_in_range_op.html" target="_top" xlink:title=" ">
<polygon fill="white" stroke="#666666" points="190.25,-1018.25 103,-1018.25 103,-999 190.25,-999 190.25,-1018.25"/>
<text text-anchor="middle" x="146.62" y="-1004.75" font-family="Helvetica,sans-Serif" font-size="10.00">zml::InRangeOp</text>
</a>
</g>
</g>
<!-- Node0&#45;&gt;Node19 -->
<g id="edge29_Node000000_Node000019" class="edge">
<title>Node0&#45;&gt;Node19</title>
<g id="a_edge29_Node000000_Node000019"><a xlink:title=" ">
<path fill="none" stroke="#63b8ff" d="M28.99,-862.79C34.27,-895 48.88,-956.2 86.5,-990.62 91.17,-994.9 96.83,-998.16 102.77,-1000.64"/>
<polygon fill="#63b8ff" stroke="#63b8ff" points="32.48,-862.51 27.56,-853.12 25.56,-863.53 32.48,-862.51"/>
</a>
</g>
</g>
<!-- Node20 -->
<g id="Node000020" class="node">
<title>Node20</title>
<g id="a_Node000020"><a xlink:href="classzml_1_1_index_to_val_op.html" target="_top" xlink:title=" ">
<polygon fill="white" stroke="#666666" points="195.88,-981.25 97.38,-981.25 97.38,-962 195.88,-962 195.88,-981.25"/>
<text text-anchor="middle" x="146.62" y="-967.75" font-family="Helvetica,sans-Serif" font-size="10.00">zml::IndexToValOp</text>
</a>
</g>
</g>
<!-- Node0&#45;&gt;Node20 -->
<g id="edge30_Node000000_Node000020" class="edge">
<title>Node0&#45;&gt;Node20</title>
<g id="a_edge30_Node000000_Node000020"><a xlink:title=" ">
<path fill="none" stroke="#63b8ff" d="M32.1,-862.55C40.22,-887.76 57.29,-929.7 86.5,-953.62 90.4,-956.82 94.86,-959.45 99.55,-961.61"/>
<polygon fill="#63b8ff" stroke="#63b8ff" points="35.5,-861.68 29.26,-853.12 28.8,-863.7 35.5,-861.68"/>
</a>
</g>
</g>
<!-- Node21 -->
<g id="Node000021" class="node">
<title>Node21</title>
<g id="a_Node000021"><a xlink:href="classzml_1_1_inv_op.html" target="_top" xlink:title=" ">
<polygon fill="white" stroke="#666666" points="178.62,-944.25 114.62,-944.25 114.62,-925 178.62,-925 178.62,-944.25"/>
<text text-anchor="middle" x="146.62" y="-930.75" font-family="Helvetica,sans-Serif" font-size="10.00">zml::InvOp</text>
</a>
</g>
</g>
<!-- Node0&#45;&gt;Node21 -->
<g id="edge31_Node000000_Node000021" class="edge">
<title>Node0&#45;&gt;Node21</title>
<g id="a_edge31_Node000000_Node000021"><a xlink:title=" ">
<path fill="none" stroke="#63b8ff" d="M37.34,-861.26C47.9,-878.25 65.31,-902.29 86.5,-916.62 94.77,-922.22 104.83,-926.12 114.29,-928.83"/>
<polygon fill="#63b8ff" stroke="#63b8ff" points="40.57,-859.84 32.45,-853.04 34.56,-863.42 40.57,-859.84"/>
</a>
</g>
</g>
<!-- Node22 -->
<g id="Node000022" class="node">
<title>Node22</title>
<g id="a_Node000022"><a xlink:href="classzml_1_1_is_zero_op.html" target="_top" xlink:title=" ">
<polygon fill="white" stroke="#666666" points="185.75,-907.25 107.5,-907.25 107.5,-888 185.75,-888 185.75,-907.25"/>
<text text-anchor="middle" x="146.62" y="-893.75" font-family="Helvetica,sans-Serif" font-size="10.00">zml::IsZeroOp</text>
</a>
</g>
</g>
<!-- Node0&#45;&gt;Node22 -->
<g id="edge32_Node000000_Node000022" class="edge">
<title>Node0&#45;&gt;Node22</title>
<g id="a_edge32_Node000000_Node000022"><a xlink:title=" ">
<path fill="none" stroke="#63b8ff" d="M48.79,-857.86C59.77,-865.24 73.41,-873.64 86.5,-879.62 93.04,-882.62 100.2,-885.27 107.22,-887.57"/>
<polygon fill="#63b8ff" stroke="#63b8ff" points="51,-855.14 40.78,-852.33 47.02,-860.9 51,-855.14"/>
</a>
</g>
</g>
<!-- Node23 -->
<g id="Node000023" class="node">
<title>Node23</title>
<g id="a_Node000023"><a xlink:href="classzml_1_1_lit_str_op.html" target="_top" xlink:title=" ">
<polygon fill="white" stroke="#666666" points="183.5,-870.25 109.75,-870.25 109.75,-851 183.5,-851 183.5,-870.25"/>
<text text-anchor="middle" x="146.62" y="-856.75" font-family="Helvetica,sans-Serif" font-size="10.00">zml::LitStrOp</text>
</a>
</g>
</g>
<!-- Node0&#45;&gt;Node23 -->
<g id="edge33_Node000000_Node000023" class="edge">
<title>Node0&#45;&gt;Node23</title>
<g id="a_edge33_Node000000_Node000023"><a xlink:title=" ">
<path fill="none" stroke="#63b8ff" d="M61.94,-847.31C77,-849.7 94.5,-852.49 109.6,-854.89"/>
<polygon fill="#63b8ff" stroke="#63b8ff" points="62.91,-843.92 52.48,-845.8 61.8,-850.83 62.91,-843.92"/>
</a>
</g>
</g>
<!-- Node24 -->
<g id="Node000024" class="node">
<title>Node24</title>
<g id="a_Node000024"><a xlink:href="classzml_1_1_lit_val_array_op.html" target="_top" xlink:title=" ">
<polygon fill="white" stroke="#666666" points="195.5,-833.25 97.75,-833.25 97.75,-814 195.5,-814 195.5,-833.25"/>
<text text-anchor="middle" x="146.62" y="-819.75" font-family="Helvetica,sans-Serif" font-size="10.00">zml::LitValArrayOp</text>
</a>
</g>
</g>
<!-- Node0&#45;&gt;Node24 -->
<g id="edge34_Node000000_Node000024" class="edge">
<title>Node0&#45;&gt;Node24</title>
<g id="a_edge34_Node000000_Node000024"><a xlink:title=" ">
<path fill="none" stroke="#63b8ff" d="M62.33,-836.18C73.33,-834.53 85.6,-832.68 97.27,-830.92"/>
<polygon fill="#63b8ff" stroke="#63b8ff" points="61.85,-832.72 52.48,-837.67 62.89,-839.64 61.85,-832.72"/>
</a>
</g>
</g>
<!-- Node25 -->
<g id="Node000025" class="node">
<title>Node25</title>
<g id="a_Node000025"><a xlink:href="classzml_1_1_lit_val_op.html" target="_top" xlink:title=" ">
<polygon fill="white" stroke="#666666" points="183.88,-796.25 109.38,-796.25 109.38,-777 183.88,-777 183.88,-796.25"/>
<text text-anchor="middle" x="146.62" y="-782.75" font-family="Helvetica,sans-Serif" font-size="10.00">zml::LitValOp</text>
</a>
</g>
</g>
<!-- Node0&#45;&gt;Node25 -->
<g id="edge35_Node000000_Node000025" class="edge">
<title>Node0&#45;&gt;Node25</title>
<g id="a_edge35_Node000000_Node000025"><a xlink:title=" ">
<path fill="none" stroke="#63b8ff" d="M49.61,-825.34C60.47,-818.29 73.78,-810.35 86.5,-804.62 93.64,-801.41 101.52,-798.56 109.13,-796.14"/>
<polygon fill="#63b8ff" stroke="#63b8ff" points="47.68,-822.43 41.31,-830.9 51.57,-828.25 47.68,-822.43"/>
</a>
</g>
</g>
<!-- Node26 -->
<g id="Node000026" class="node">
<title>Node26</title>
<g id="a_Node000026"><a xlink:href="classzml_1_1_load_val_param_op.html" target="_top" xlink:title=" ">
<polygon fill="white" stroke="#666666" points="203.38,-759.25 89.88,-759.25 89.88,-740 203.38,-740 203.38,-759.25"/>
<text text-anchor="middle" x="146.62" y="-745.75" font-family="Helvetica,sans-Serif" font-size="10.00">zml::LoadValParamOp</text>
</a>
</g>
</g>
<!-- Node0&#45;&gt;Node26 -->
<g id="edge36_Node000000_Node000026" class="edge">
<title>Node0&#45;&gt;Node26</title>
<g id="a_edge36_Node000000_Node000026"><a xlink:title=" ">
<path fill="none" stroke="#63b8ff" d="M37.4,-822.26C48,-805.49 65.43,-781.78 86.5,-767.62 91.22,-764.45 96.52,-761.82 101.96,-759.65"/>
<polygon fill="#63b8ff" stroke="#63b8ff" points="34.68,-819.99 32.5,-830.36 40.67,-823.62 34.68,-819.99"/>
</a>
</g>
</g>
<!-- Node27 -->
<g id="Node000027" class="node">
<title>Node27</title>
<g id="a_Node000027"><a xlink:href="classzml_1_1_make_ext_op.html" target="_top" xlink:title=" ">
<polygon fill="white" stroke="#666666" points="191.38,-722.25 101.88,-722.25 101.88,-703 191.38,-703 191.38,-722.25"/>
<text text-anchor="middle" x="146.62" y="-708.75" font-family="Helvetica,sans-Serif" font-size="10.00">zml::MakeExtOp</text>
</a>
</g>
</g>
<!-- Node0&#45;&gt;Node27 -->
<g id="edge37_Node000000_Node000027" class="edge">
<title>Node0&#45;&gt;Node27</title>
<g id="a_edge37_Node000000_Node000027"><a xlink:title=" ">
<path fill="none" stroke="#63b8ff" d="M32.16,-820.89C40.32,-795.9 57.45,-754.33 86.5,-730.62 90.99,-726.96 96.21,-724.04 101.67,-721.72"/>
<polygon fill="#63b8ff" stroke="#63b8ff" points="28.88,-819.64 29.3,-830.22 35.57,-821.69 28.88,-819.64"/>
</a>
</g>
</g>
<!-- Node28 -->
<g id="Node000028" class="node">
<title>Node28</title>
<g id="a_Node000028"><a xlink:href="classzml_1_1_mod_op.html" target="_top" xlink:title=" ">
<polygon fill="white" stroke="#666666" points="181.25,-685.25 112,-685.25 112,-666 181.25,-666 181.25,-685.25"/>
<text text-anchor="middle" x="146.62" y="-671.75" font-family="Helvetica,sans-Serif" font-size="10.00">zml::ModOp</text>
</a>
</g>
</g>
<!-- Node0&#45;&gt;Node28 -->
<g id="edge38_Node000000_Node000028" class="edge">
<title>Node0&#45;&gt;Node28</title>
<g id="a_edge38_Node000000_Node000028"><a xlink:title=" ">
<path fill="none" stroke="#63b8ff" d="M29.03,-820.6C34.37,-788.6 49.06,-727.8 86.5,-693.62 93.47,-687.26 102.64,-683.14 111.67,-680.48"/>
<polygon fill="#63b8ff" stroke="#63b8ff" points="25.61,-819.78 27.59,-830.19 32.54,-820.82 25.61,-819.78"/>
</a>
</g>
</g>
<!-- Node29 -->
<g id="Node000029" class="node">
<title>Node29</title>
<g id="a_Node000029"><a xlink:href="classzml_1_1_mul_op.html" target="_top" xlink:title=" ">
<polygon fill="white" stroke="#666666" points="179.75,-648.25 113.5,-648.25 113.5,-629 179.75,-629 179.75,-648.25"/>
<text text-anchor="middle" x="146.62" y="-634.75" font-family="Helvetica,sans-Serif" font-size="10.00">zml::MulOp</text>
</a>
</g>
</g>
<!-- Node0&#45;&gt;Node29 -->
<g id="edge39_Node000000_Node000029" class="edge">
<title>Node0&#45;&gt;Node29</title>
<g id="a_edge39_Node000000_Node000029"><a xlink:title=" ">
<path fill="none" stroke="#63b8ff" d="M27.06,-820.07C29.68,-781.75 40.67,-701.58 86.5,-656.62 93.7,-649.56 103.58,-645.26 113.21,-642.64"/>
<polygon fill="#63b8ff" stroke="#63b8ff" points="23.57,-819.87 26.53,-830.04 30.56,-820.24 23.57,-819.87"/>
</a>
</g>
</g>
<!-- Node30 -->
<g id="Node000030" class="node">
<title>Node30</title>
<g id="a_Node000030"><a xlink:href="classzml_1_1_neg_op.html" target="_top" xlink:title=" ">
<polygon fill="white" stroke="#666666" points="180.88,-611.25 112.38,-611.25 112.38,-592 180.88,-592 180.88,-611.25"/>
<text text-anchor="middle" x="146.62" y="-597.75" font-family="Helvetica,sans-Serif" font-size="10.00">zml::NegOp</text>
</a>
</g>
</g>
<!-- Node0&#45;&gt;Node30 -->
<g id="edge40_Node000000_Node000030" class="edge">
<title>Node0&#45;&gt;Node30</title>
<g id="a_edge40_Node000000_Node000030"><a xlink:title=" ">
<path fill="none" stroke="#63b8ff" d="M25.65,-820.13C25.63,-776.27 31.95,-675.86 86.5,-619.62 93.3,-612.62 102.73,-608.32 112.07,-605.68"/>
<polygon fill="#63b8ff" stroke="#63b8ff" points="22.15,-820.13 25.78,-830.08 29.15,-820.03 22.15,-820.13"/>
</a>
</g>
</g>
<!-- Node31 -->
<g id="Node000031" class="node">
<title>Node31</title>
<g id="a_Node000031"><a xlink:href="classzml_1_1_new_array_op.html" target="_top" xlink:title=" ">
<polygon fill="white" stroke="#666666" points="193.62,-574.25 99.62,-574.25 99.62,-555 193.62,-555 193.62,-574.25"/>
<text text-anchor="middle" x="146.62" y="-560.75" font-family="Helvetica,sans-Serif" font-size="10.00">zml::NewArrayOp</text>
</a>
</g>
</g>
<!-- Node0&#45;&gt;Node31 -->
<g id="edge41_Node000000_Node000031" class="edge">
<title>Node0&#45;&gt;Node31</title>
<g id="a_edge41_Node000000_Node000031"><a xlink:title=" ">
<path fill="none" stroke="#63b8ff" d="M28.45,-820.53C34.63,-765.16 53.88,-617.5 86.5,-582.62 90.09,-578.78 94.47,-575.76 99.21,-573.37"/>
<polygon fill="#63b8ff" stroke="#63b8ff" points="25,-819.87 27.41,-830.19 31.96,-820.63 25,-819.87"/>
</a>
</g>
</g>
<!-- Node32 -->
<g id="Node000032" class="node">
<title>Node32</title>
<g id="a_Node000032"><a xlink:href="classzml_1_1_nop_op.html" target="_top" xlink:title=" ">
<polygon fill="white" stroke="#666666" points="180.88,-537.25 112.38,-537.25 112.38,-518 180.88,-518 180.88,-537.25"/>
<text text-anchor="middle" x="146.62" y="-523.75" font-family="Helvetica,sans-Serif" font-size="10.00">zml::NopOp</text>
</a>
</g>
</g>
<!-- Node0&#45;&gt;Node32 -->
<g id="edge42_Node000000_Node000032" class="edge">
<title>Node0&#45;&gt;Node32</title>
<g id="a_edge42_Node000000_Node000032"><a xlink:title=" ">
<path fill="none" stroke="#63b8ff" d="M27.79,-820.38C32.63,-759.54 49.44,-586.37 86.5,-545.62 93.14,-538.32 102.65,-533.94 112.1,-531.33"/>
<polygon fill="#63b8ff" stroke="#63b8ff" points="24.33,-819.83 27.06,-830.07 31.31,-820.36 24.33,-819.83"/>
</a>
</g>
</g>
<!-- Node33 -->
<g id="Node000033" class="node">
<title>Node33</title>
<g id="a_Node000033"><a xlink:href="classzml_1_1_read_array_op.html" target="_top" xlink:title=" ">
<polygon fill="white" stroke="#666666" points="195.12,-500.25 98.12,-500.25 98.12,-481 195.12,-481 195.12,-500.25"/>
<text text-anchor="middle" x="146.62" y="-486.75" font-family="Helvetica,sans-Serif" font-size="10.00">zml::ReadArrayOp</text>
</a>
</g>
</g>
<!-- Node0&#45;&gt;Node33 -->
<g id="edge43_Node000000_Node000033" class="edge">
<title>Node0&#45;&gt;Node33</title>
<g id="a_edge43_Node000000_Node000033"><a xlink:title=" ">
<path fill="none" stroke="#63b8ff" d="M27.27,-820.38C30.84,-754.51 44.94,-555.33 86.5,-508.62 89.71,-505.02 93.62,-502.12 97.88,-499.8"/>
<polygon fill="#63b8ff" stroke="#63b8ff" points="23.78,-820.01 26.77,-830.18 30.77,-820.37 23.78,-820.01"/>
</a>
</g>
</g>
<!-- Node34 -->
<g id="Node000034" class="node">
<title>Node34</title>
<g id="a_Node000034"><a xlink:href="classzml_1_1_read_back_op.html" target="_top" xlink:title=" ">
<polygon fill="white" stroke="#666666" points="194.75,-463.25 98.5,-463.25 98.5,-444 194.75,-444 194.75,-463.25"/>
<text text-anchor="middle" x="146.62" y="-449.75" font-family="Helvetica,sans-Serif" font-size="10.00">zml::ReadBackOp</text>
</a>
</g>
</g>
<!-- Node0&#45;&gt;Node34 -->
<g id="edge44_Node000000_Node000034" class="edge">
<title>Node0&#45;&gt;Node34</title>
<g id="a_edge44_Node000000_Node000034"><a xlink:title=" ">
<path fill="none" stroke="#63b8ff" d="M26.84,-820.36C29.24,-749.71 40.43,-524.33 86.5,-471.62 89.75,-467.91 93.74,-464.95 98.1,-462.59"/>
<polygon fill="#63b8ff" stroke="#63b8ff" points="23.35,-820.05 26.54,-830.16 30.35,-820.27 23.35,-820.05"/>
</a>
</g>
</g>
<!-- Node35 -->
<g id="Node000035" class="node">
<title>Node35</title>
<g id="a_Node000035"><a xlink:href="classzml_1_1_read_field_op.html" target="_top" xlink:title=" ">
<polygon fill="white" stroke="#666666" points="194,-426.25 99.25,-426.25 99.25,-407 194,-407 194,-426.25"/>
<text text-anchor="middle" x="146.62" y="-412.75" font-family="Helvetica,sans-Serif" font-size="10.00">zml::ReadFieldOp</text>
</a>
</g>
</g>
<!-- Node0&#45;&gt;Node35 -->
<g id="edge45_Node000000_Node000035" class="edge">
<title>Node0&#45;&gt;Node35</title>
<g id="a_edge45_Node000000_Node000035"><a xlink:title=" ">
<path fill="none" stroke="#63b8ff" d="M26.49,-820.69C27.77,-745.93 35.82,-493.46 86.5,-434.62 89.93,-430.64 94.22,-427.52 98.9,-425.09"/>
<polygon fill="#63b8ff" stroke="#63b8ff" points="23,-820.25 26.35,-830.3 29.99,-820.35 23,-820.25"/>
</a>
</g>
</g>
<!-- Node36 -->
<g id="Node000036" class="node">
<title>Node36</title>
<g id="a_Node000036"><a xlink:href="classzml_1_1_self_op.html" target="_top" xlink:title=" ">
<polygon fill="white" stroke="#666666" points="180.5,-389.25 112.75,-389.25 112.75,-370 180.5,-370 180.5,-389.25"/>
<text text-anchor="middle" x="146.62" y="-375.75" font-family="Helvetica,sans-Serif" font-size="10.00">zml::SelfOp</text>
</a>
</g>
</g>
<!-- Node0&#45;&gt;Node36 -->
<g id="edge46_Node000000_Node000036" class="edge">
<title>Node0&#45;&gt;Node36</title>
<g id="a_edge46_Node000000_Node000036"><a xlink:title=" ">
<path fill="none" stroke="#63b8ff" d="M26.2,-820.35C26.46,-740.85 31.34,-462.44 86.5,-397.62 93.04,-389.94 102.74,-385.48 112.41,-382.9"/>
<polygon fill="#63b8ff" stroke="#63b8ff" points="22.7,-820.19 26.2,-830.19 29.7,-820.2 22.7,-820.19"/>
</a>
</g>
</g>
<!-- Node37 -->
<g id="Node000037" class="node">
<title>Node37</title>
<g id="a_Node000037"><a xlink:href="classzml_1_1_set_global_op.html" target="_top" xlink:title=" ">
<polygon fill="white" stroke="#666666" points="193.25,-352.25 100,-352.25 100,-333 193.25,-333 193.25,-352.25"/>
<text text-anchor="middle" x="146.62" y="-338.75" font-family="Helvetica,sans-Serif" font-size="10.00">zml::SetGlobalOp</text>
</a>
</g>
</g>
<!-- Node0&#45;&gt;Node37 -->
<g id="edge47_Node000000_Node000037" class="edge">
<title>Node0&#45;&gt;Node37</title>
<g id="a_edge47_Node000000_Node000037"><a xlink:title=" ">
<path fill="none" stroke="#63b8ff" d="M25.95,-820.22C25.23,-736.38 26.81,-431.5 86.5,-360.62 90.09,-356.36 94.67,-353.08 99.67,-350.57"/>
<polygon fill="#63b8ff" stroke="#63b8ff" points="22.45,-820.23 26.06,-830.19 29.45,-820.15 22.45,-820.23"/>
</a>
</g>
</g>
<!-- Node38 -->
<g id="Node000038" class="node">
<title>Node38</title>
<g id="a_Node000038"><a xlink:href="classzml_1_1_split_component_op.html" target="_top" xlink:title=" ">
<polygon fill="white" stroke="#666666" points="206.75,-315.25 86.5,-315.25 86.5,-296 206.75,-296 206.75,-315.25"/>
<text text-anchor="middle" x="146.62" y="-301.75" font-family="Helvetica,sans-Serif" font-size="10.00">zml::SplitComponentOp</text>
</a>
</g>
</g>
<!-- Node0&#45;&gt;Node38 -->
<g id="edge48_Node000000_Node000038" class="edge">
<title>Node0&#45;&gt;Node38</title>
<g id="a_edge48_Node000000_Node000038"><a xlink:title=" ">
<path fill="none" stroke="#63b8ff" d="M27.37,-820.28C32.39,-727.52 54.12,-362.42 86.5,-323.62 89.11,-320.49 92.25,-317.9 95.71,-315.74"/>
<polygon fill="#63b8ff" stroke="#63b8ff" points="23.87,-820.02 26.84,-830.2 30.86,-820.4 23.87,-820.02"/>
</a>
</g>
</g>
<!-- Node39 -->
<g id="Node000039" class="node">
<title>Node39</title>
<g id="a_Node000039"><a xlink:href="classzml_1_1_sub_op.html" target="_top" xlink:title=" ">
<polygon fill="white" stroke="#666666" points="180.5,-278.25 112.75,-278.25 112.75,-259 180.5,-259 180.5,-278.25"/>
<text text-anchor="middle" x="146.62" y="-264.75" font-family="Helvetica,sans-Serif" font-size="10.00">zml::SubOp</text>
</a>
</g>
</g>
<!-- Node0&#45;&gt;Node39 -->
<g id="edge49_Node000000_Node000039" class="edge">
<title>Node0&#45;&gt;Node39</title>
<g id="a_edge49_Node000000_Node000039"><a xlink:title=" ">
<path fill="none" stroke="#63b8ff" d="M27.18,-820.61C31.6,-724.36 51.78,-328.55 86.5,-286.62 92.93,-278.86 102.61,-274.37 112.29,-271.79"/>
<polygon fill="#63b8ff" stroke="#63b8ff" points="23.69,-820.26 26.73,-830.41 30.68,-820.57 23.69,-820.26"/>
</a>
</g>
</g>
<!-- Node40 -->
<g id="Node000040" class="node">
<title>Node40</title>
<g id="a_Node000040"><a xlink:href="classzml_1_1_super_coerce_op.html" target="_top" xlink:title=" ">
<polygon fill="white" stroke="#666666" points="200.38,-241.25 92.88,-241.25 92.88,-222 200.38,-222 200.38,-241.25"/>
<text text-anchor="middle" x="146.62" y="-227.75" font-family="Helvetica,sans-Serif" font-size="10.00">zml::SuperCoerceOp</text>
</a>
</g>
</g>
<!-- Node0&#45;&gt;Node40 -->
<g id="edge50_Node000000_Node000040" class="edge">
<title>Node0&#45;&gt;Node40</title>
<g id="a_edge50_Node000000_Node000040"><a xlink:title=" ">
<path fill="none" stroke="#63b8ff" d="M27.03,-820.48C30.92,-720.1 49.48,-294.63 86.5,-249.62 89.09,-246.48 92.21,-243.87 95.66,-241.7"/>
<polygon fill="#63b8ff" stroke="#63b8ff" points="23.54,-820.11 26.66,-830.24 30.54,-820.38 23.54,-820.11"/>
</a>
</g>
</g>
<!-- Node41 -->
<g id="Node000041" class="node">
<title>Node41</title>
<g id="a_Node000041"><a xlink:href="classzml_1_1_unifiable_cast_op.html" target="_top" xlink:title=" ">
<polygon fill="white" stroke="#666666" points="201.5,-204.25 91.75,-204.25 91.75,-185 201.5,-185 201.5,-204.25"/>
<text text-anchor="middle" x="146.62" y="-190.75" font-family="Helvetica,sans-Serif" font-size="10.00">zml::UnifiableCastOp</text>
</a>
</g>
</g>
<!-- Node0&#45;&gt;Node41 -->
<g id="edge51_Node000000_Node000041" class="edge">
<title>Node0&#45;&gt;Node41</title>
<g id="a_edge51_Node000000_Node000041"><a xlink:title=" ">
<path fill="none" stroke="#63b8ff" d="M26.91,-820.16C30.3,-715.37 47.21,-260.68 86.5,-212.62 89.08,-209.47 92.2,-206.85 95.64,-204.69"/>
<polygon fill="#63b8ff" stroke="#63b8ff" points="23.41,-820.01 26.59,-830.11 30.41,-820.23 23.41,-820.01"/>
</a>
</g>
</g>
<!-- Node42 -->
<g id="Node000042" class="node">
<title>Node42</title>
<g id="a_Node000042"><a xlink:href="classzml_1_1_val_to_i1_op.html" target="_top" xlink:title=" ">
<polygon fill="white" stroke="#666666" points="188,-167.25 105.25,-167.25 105.25,-148 188,-148 188,-167.25"/>
<text text-anchor="middle" x="146.62" y="-153.75" font-family="Helvetica,sans-Serif" font-size="10.00">zml::ValToI1Op</text>
</a>
</g>
</g>
<!-- Node0&#45;&gt;Node42 -->
<g id="edge52_Node000000_Node000042" class="edge">
<title>Node0&#45;&gt;Node42</title>
<g id="a_edge52_Node000000_Node000042"><a xlink:title=" ">
<path fill="none" stroke="#63b8ff" d="M26.78,-820.27C29.67,-711.98 44.88,-226.8 86.5,-175.62 91.24,-169.8 97.81,-165.81 104.85,-163.09"/>
<polygon fill="#63b8ff" stroke="#63b8ff" points="23.29,-819.95 26.53,-830.03 30.29,-820.13 23.29,-819.95"/>
</a>
</g>
</g>
<!-- Node43 -->
<g id="Node000043" class="node">
<title>Node43</title>
<g id="a_Node000043"><a xlink:href="classzml_1_1_val_to_index_op.html" target="_top" xlink:title=" ">
<polygon fill="white" stroke="#666666" points="195.88,-130.25 97.38,-130.25 97.38,-111 195.88,-111 195.88,-130.25"/>
<text text-anchor="middle" x="146.62" y="-116.75" font-family="Helvetica,sans-Serif" font-size="10.00">zml::ValToIndexOp</text>
</a>
</g>
</g>
<!-- Node0&#45;&gt;Node43 -->
<g id="edge53_Node000000_Node000043" class="edge">
<title>Node0&#45;&gt;Node43</title>
<g id="a_edge53_Node000000_Node000043"><a xlink:title=" ">
<path fill="none" stroke="#63b8ff" d="M26.68,-820.14C29.1,-708.01 42.58,-192.89 86.5,-138.62 89.4,-135.04 93,-132.15 96.97,-129.82"/>
<polygon fill="#63b8ff" stroke="#63b8ff" points="23.18,-819.93 26.47,-830 30.18,-820.08 23.18,-819.93"/>
</a>
</g>
</g>
<!-- Node44 -->
<g id="Node000044" class="node">
<title>Node44</title>
<g id="a_Node000044"><a xlink:href="classzml_1_1_var_args_op.html" target="_top" xlink:title=" ">
<polygon fill="white" stroke="#666666" points="189.12,-93.25 104.12,-93.25 104.12,-74 189.12,-74 189.12,-93.25"/>
<text text-anchor="middle" x="146.62" y="-79.75" font-family="Helvetica,sans-Serif" font-size="10.00">zml::VarArgsOp</text>
</a>
</g>
</g>
<!-- Node0&#45;&gt;Node44 -->
<g id="edge54_Node000000_Node000044" class="edge">
<title>Node0&#45;&gt;Node44</title>
<g id="a_edge54_Node000000_Node000044"><a xlink:title=" ">
<path fill="none" stroke="#63b8ff" d="M26.58,-820.11C28.55,-704.39 40.26,-159.01 86.5,-101.62 91.01,-96.03 97.21,-92.13 103.91,-89.42"/>
<polygon fill="#63b8ff" stroke="#63b8ff" points="23.08,-819.95 26.42,-830.01 30.08,-820.07 23.08,-819.95"/>
</a>
</g>
</g>
<!-- Node45 -->
<g id="Node000045" class="node">
<title>Node45</title>
<g id="a_Node000045"><a xlink:href="classzml_1_1_write_array_op.html" target="_top" xlink:title=" ">
<polygon fill="white" stroke="#666666" points="194.75,-56.25 98.5,-56.25 98.5,-37 194.75,-37 194.75,-56.25"/>
<text text-anchor="middle" x="146.62" y="-42.75" font-family="Helvetica,sans-Serif" font-size="10.00">zml::WriteArrayOp</text>
</a>
</g>
</g>
<!-- Node0&#45;&gt;Node45 -->
<g id="edge55_Node000000_Node000045" class="edge">
<title>Node0&#45;&gt;Node45</title>
<g id="a_edge55_Node000000_Node000045"><a xlink:title=" ">
<path fill="none" stroke="#63b8ff" d="M26.49,-820.16C28.03,-701.12 37.93,-125.14 86.5,-64.62 89.66,-60.69 93.65,-57.6 98.06,-55.16"/>
<polygon fill="#63b8ff" stroke="#63b8ff" points="22.99,-820.02 26.37,-830.06 29.99,-820.1 22.99,-820.02"/>
</a>
</g>
</g>
<!-- Node46 -->
<g id="Node000046" class="node">
<title>Node46</title>
<g id="a_Node000046"><a xlink:href="classzml_1_1_write_field_op.html" target="_top" xlink:title=" ">
<polygon fill="white" stroke="#666666" points="193.62,-19.25 99.62,-19.25 99.62,0 193.62,0 193.62,-19.25"/>
<text text-anchor="middle" x="146.62" y="-5.75" font-family="Helvetica,sans-Serif" font-size="10.00">zml::WriteFieldOp</text>
</a>
</g>
</g>
<!-- Node0&#45;&gt;Node46 -->
<g id="edge56_Node000000_Node000046" class="edge">
<title>Node0&#45;&gt;Node46</title>
<g id="a_edge56_Node000000_Node000046"><a xlink:title=" ">
<path fill="none" stroke="#63b8ff" d="M26.41,-820.29C27.52,-698.21 35.58,-91.29 86.5,-27.62 89.92,-23.35 94.32,-20.07 99.18,-17.54"/>
<polygon fill="#63b8ff" stroke="#63b8ff" points="22.91,-820.12 26.33,-830.15 29.91,-820.17 22.91,-820.12"/>
</a>
</g>
</g>
</g>
</svg>
