<?xml version="1.0" encoding="UTF-8" standalone="no"?>
<!DOCTYPE svg PUBLIC "-//W3C//DTD SVG 1.1//EN"
 "http://www.w3.org/Graphics/SVG/1.1/DTD/svg11.dtd">
<!-- Generated by graphviz version 12.2.1 (20241206.2353)
 -->
<!-- Title: Graphical Class Hierarchy Pages: 1 -->
<svg width="490pt" height="1203pt"
 viewBox="0.00 0.00 489.50 1202.88" xmlns="http://www.w3.org/2000/svg" xmlns:xlink="http://www.w3.org/1999/xlink">
<g id="graph0" class="graph" transform="scale(1 1) rotate(0) translate(4 1198.88)">
<title>Graphical Class Hierarchy</title>
<!-- Node0 -->
<g id="Node000000" class="node">
<title>Node0</title>
<g id="a_Node000000"><a xlink:href="classzhl_1_1_typing_rule.html" target="_top" xlink:title=" ">
<polygon fill="white" stroke="#666666" points="83.5,-601.25 0,-601.25 0,-582 83.5,-582 83.5,-601.25"/>
<text text-anchor="middle" x="41.75" y="-587.75" font-family="Helvetica,sans-Serif" font-size="10.00">zhl::TypingRule</text>
</a>
</g>
</g>
<!-- Node1 -->
<g id="Node000001" class="node">
<title>Node1</title>
<g id="a_Node000001"><a xlink:href="classzhl_1_1_op_typing_rule.html" target="_top" xlink:title=" ">
<polygon fill="white" stroke="#666666" points="263.38,-1194.88 147.62,-1194.88 147.62,-1164.38 263.38,-1164.38 263.38,-1194.88"/>
<text text-anchor="start" x="155.62" y="-1181.38" font-family="Helvetica,sans-Serif" font-size="10.00">zhl::OpTypingRule&lt;</text>
<text text-anchor="middle" x="205.5" y="-1170.12" font-family="Helvetica,sans-Serif" font-size="10.00"> zirgen::Zhl::ArrayOp &gt;</text>
</a>
</g>
</g>
<!-- Node0&#45;&gt;Node1 -->
<g id="edge136_Node000000_Node000001" class="edge">
<title>Node0&#45;&gt;Node1</title>
<g id="a_edge136_Node000000_Node000001"><a xlink:title=" ">
<path fill="none" stroke="#63b8ff" d="M42.67,-612.8C42.76,-705.06 47.71,-1071.12 119.5,-1154.62 126.82,-1163.14 136.88,-1168.83 147.52,-1172.62"/>
<polygon fill="#63b8ff" stroke="#63b8ff" points="46.17,-612.96 42.68,-602.96 39.17,-612.95 46.17,-612.96"/>
</a>
</g>
</g>
<!-- Node3 -->
<g id="Node000003" class="node">
<title>Node3</title>
<g id="a_Node000003"><a xlink:href="classzhl_1_1_op_typing_rule.html" target="_top" xlink:title=" ">
<polygon fill="white" stroke="#666666" points="263,-1145.88 148,-1145.88 148,-1115.38 263,-1115.38 263,-1145.88"/>
<text text-anchor="start" x="156" y="-1132.38" font-family="Helvetica,sans-Serif" font-size="10.00">zhl::OpTypingRule&lt;</text>
<text text-anchor="middle" x="205.5" y="-1121.12" font-family="Helvetica,sans-Serif" font-size="10.00"> zirgen::Zhl::BackOp &gt;</text>
</a>
</g>
</g>
<!-- Node0&#45;&gt;Node3 -->
<g id="edge138_Node000000_Node000003" class="edge">
<title>Node0&#45;&gt;Node3</title>
<g id="a_edge138_Node000000_Node000003"><a xlink:title=" ">
<path fill="none" stroke="#63b8ff" d="M42.98,-612.86C44.34,-700.15 53.84,-1030.23 119.5,-1105.62 126.87,-1114.09 136.95,-1119.76 147.6,-1123.55"/>
<polygon fill="#63b8ff" stroke="#63b8ff" points="46.48,-612.87 42.85,-602.92 39.48,-612.97 46.48,-612.87"/>
</a>
</g>
</g>
<!-- Node5 -->
<g id="Node000005" class="node">
<title>Node5</title>
<g id="a_Node000005"><a xlink:href="classzhl_1_1_op_typing_rule.html" target="_top" xlink:title=" ">
<polygon fill="white" stroke="#666666" points="264.12,-1096.88 146.88,-1096.88 146.88,-1066.38 264.12,-1066.38 264.12,-1096.88"/>
<text text-anchor="start" x="154.88" y="-1083.38" font-family="Helvetica,sans-Serif" font-size="10.00">zhl::OpTypingRule&lt;</text>
<text text-anchor="middle" x="205.5" y="-1072.12" font-family="Helvetica,sans-Serif" font-size="10.00"> zirgen::Zhl::BlockOp &gt;</text>
</a>
</g>
</g>
<!-- Node0&#45;&gt;Node5 -->
<g id="edge140_Node000000_Node000005" class="edge">
<title>Node0&#45;&gt;Node5</title>
<g id="a_edge140_Node000000_Node000005"><a xlink:title=" ">
<path fill="none" stroke="#63b8ff" d="M43.35,-612.91C46.08,-694.94 59.94,-989.29 119.5,-1056.62 126.63,-1064.69 136.22,-1070.21 146.39,-1073.98"/>
<polygon fill="#63b8ff" stroke="#63b8ff" points="46.85,-613.04 43.05,-603.15 39.86,-613.25 46.85,-613.04"/>
</a>
</g>
</g>
<!-- Node7 -->
<g id="Node000007" class="node">
<title>Node7</title>
<g id="a_Node000007"><a xlink:href="classzhl_1_1_op_typing_rule.html" target="_top" xlink:title=" ">
<polygon fill="white" stroke="#666666" points="274.25,-1047.88 136.75,-1047.88 136.75,-1017.38 274.25,-1017.38 274.25,-1047.88"/>
<text text-anchor="start" x="144.75" y="-1034.38" font-family="Helvetica,sans-Serif" font-size="10.00">zhl::OpTypingRule&lt;</text>
<text text-anchor="middle" x="205.5" y="-1023.12" font-family="Helvetica,sans-Serif" font-size="10.00"> zirgen::Zhl::ConstraintOp &gt;</text>
</a>
</g>
</g>
<!-- Node0&#45;&gt;Node7 -->
<g id="edge142_Node000000_Node000007" class="edge">
<title>Node0&#45;&gt;Node7</title>
<g id="a_edge142_Node000000_Node000007"><a xlink:title=" ">
<path fill="none" stroke="#63b8ff" d="M43.81,-613.08C48.03,-689.68 66.04,-948.32 119.5,-1007.62 124.24,-1012.88 130.02,-1017.05 136.31,-1020.37"/>
<polygon fill="#63b8ff" stroke="#63b8ff" points="47.31,-613 43.29,-603.2 40.32,-613.37 47.31,-613"/>
</a>
</g>
</g>
<!-- Node9 -->
<g id="Node000009" class="node">
<title>Node9</title>
<g id="a_Node000009"><a xlink:href="classzhl_1_1_op_typing_rule.html" target="_top" xlink:title=" ">
<polygon fill="white" stroke="#666666" points="287,-998.88 124,-998.88 124,-968.38 287,-968.38 287,-998.88"/>
<text text-anchor="start" x="132" y="-985.38" font-family="Helvetica,sans-Serif" font-size="10.00">zhl::OpTypingRule&lt;</text>
<text text-anchor="middle" x="205.5" y="-974.12" font-family="Helvetica,sans-Serif" font-size="10.00"> zirgen::Zhl::ConstructGlobalOp &gt;</text>
</a>
</g>
</g>
<!-- Node0&#45;&gt;Node9 -->
<g id="edge144_Node000000_Node000009" class="edge">
<title>Node0&#45;&gt;Node9</title>
<g id="a_edge144_Node000000_Node000009"><a xlink:title=" ">
<path fill="none" stroke="#63b8ff" d="M44.36,-612.78C50.14,-683.06 72.01,-907.18 119.5,-958.62 122.84,-962.24 126.67,-965.34 130.82,-968.01"/>
<polygon fill="#63b8ff" stroke="#63b8ff" points="47.87,-612.73 43.59,-603.04 40.89,-613.28 47.87,-612.73"/>
</a>
</g>
</g>
<!-- Node11 -->
<g id="Node000011" class="node">
<title>Node11</title>
<g id="a_Node000011"><a xlink:href="classzhl_1_1_op_typing_rule.html" target="_top" xlink:title=" ">
<polygon fill="white" stroke="#666666" points="273.12,-949.88 137.88,-949.88 137.88,-919.38 273.12,-919.38 273.12,-949.88"/>
<text text-anchor="start" x="145.88" y="-936.38" font-family="Helvetica,sans-Serif" font-size="10.00">zhl::OpTypingRule&lt;</text>
<text text-anchor="middle" x="205.5" y="-925.12" font-family="Helvetica,sans-Serif" font-size="10.00"> zirgen::Zhl::ConstructOp &gt;</text>
</a>
</g>
</g>
<!-- Node0&#45;&gt;Node11 -->
<g id="edge146_Node000000_Node000011" class="edge">
<title>Node0&#45;&gt;Node11</title>
<g id="a_edge146_Node000000_Node000011"><a xlink:title=" ">
<path fill="none" stroke="#63b8ff" d="M45.1,-612.8C52.62,-676.73 78.01,-866.04 119.5,-909.62 124.59,-914.97 130.76,-919.19 137.43,-922.52"/>
<polygon fill="#63b8ff" stroke="#63b8ff" points="48.59,-612.5 43.98,-602.97 41.64,-613.3 48.59,-612.5"/>
</a>
</g>
</g>
<!-- Node13 -->
<g id="Node000013" class="node">
<title>Node13</title>
<g id="a_Node000013"><a xlink:href="classzhl_1_1_op_typing_rule.html" target="_top" xlink:title=" ">
<polygon fill="white" stroke="#666666" points="276.5,-900.88 134.5,-900.88 134.5,-870.38 276.5,-870.38 276.5,-900.88"/>
<text text-anchor="start" x="142.5" y="-887.38" font-family="Helvetica,sans-Serif" font-size="10.00">zhl::OpTypingRule&lt;</text>
<text text-anchor="middle" x="205.5" y="-876.12" font-family="Helvetica,sans-Serif" font-size="10.00"> zirgen::Zhl::DeclarationOp &gt;</text>
</a>
</g>
</g>
<!-- Node0&#45;&gt;Node13 -->
<g id="edge148_Node000000_Node000013" class="edge">
<title>Node0&#45;&gt;Node13</title>
<g id="a_edge148_Node000000_Node000013"><a xlink:title=" ">
<path fill="none" stroke="#63b8ff" d="M42.33,-612.9C42.54,-663.27 50.28,-790.84 119.5,-860.62 123.83,-864.99 128.89,-868.61 134.33,-871.59"/>
<polygon fill="#63b8ff" stroke="#63b8ff" points="45.83,-613.13 42.4,-603.1 38.83,-613.08 45.83,-613.13"/>
</a>
</g>
</g>
<!-- Node15 -->
<g id="Node000015" class="node">
<title>Node15</title>
<g id="a_Node000015"><a xlink:href="classzhl_1_1_op_typing_rule.html" target="_top" xlink:title=" ">
<polygon fill="white" stroke="#666666" points="272.38,-851.88 138.62,-851.88 138.62,-821.38 272.38,-821.38 272.38,-851.88"/>
<text text-anchor="start" x="146.62" y="-838.38" font-family="Helvetica,sans-Serif" font-size="10.00">zhl::OpTypingRule&lt;</text>
<text text-anchor="middle" x="205.5" y="-827.12" font-family="Helvetica,sans-Serif" font-size="10.00"> zirgen::Zhl::DefinitionOp &gt;</text>
</a>
</g>
</g>
<!-- Node0&#45;&gt;Node15 -->
<g id="edge150_Node000000_Node000015" class="edge">
<title>Node0&#45;&gt;Node15</title>
<g id="a_edge150_Node000000_Node000015"><a xlink:title=" ">
<path fill="none" stroke="#63b8ff" d="M43.95,-613.09C47.56,-656.87 62.01,-756.92 119.5,-811.62 124.96,-816.82 131.44,-820.94 138.36,-824.21"/>
<polygon fill="#63b8ff" stroke="#63b8ff" points="47.44,-612.89 43.25,-603.16 40.46,-613.38 47.44,-612.89"/>
</a>
</g>
</g>
<!-- Node17 -->
<g id="Node000017" class="node">
<title>Node17</title>
<g id="a_Node000017"><a xlink:href="classzhl_1_1_op_typing_rule.html" target="_top" xlink:title=" ">
<polygon fill="white" stroke="#666666" points="271.25,-802.88 139.75,-802.88 139.75,-772.38 271.25,-772.38 271.25,-802.88"/>
<text text-anchor="start" x="147.75" y="-789.38" font-family="Helvetica,sans-Serif" font-size="10.00">zhl::OpTypingRule&lt;</text>
<text text-anchor="middle" x="205.5" y="-778.12" font-family="Helvetica,sans-Serif" font-size="10.00"> zirgen::Zhl::DirectiveOp &gt;</text>
</a>
</g>
</g>
<!-- Node0&#45;&gt;Node17 -->
<g id="edge152_Node000000_Node000017" class="edge">
<title>Node0&#45;&gt;Node17</title>
<g id="a_edge152_Node000000_Node000017"><a xlink:title=" ">
<path fill="none" stroke="#63b8ff" d="M46.28,-612.47C53.46,-648.45 73.22,-722.24 119.5,-762.62 125.41,-767.78 132.34,-771.88 139.65,-775.13"/>
<polygon fill="#63b8ff" stroke="#63b8ff" points="49.77,-612.12 44.51,-602.92 42.89,-613.39 49.77,-612.12"/>
</a>
</g>
</g>
<!-- Node19 -->
<g id="Node000019" class="node">
<title>Node19</title>
<g id="a_Node000019"><a xlink:href="classzhl_1_1_op_typing_rule.html" target="_top" xlink:title=" ">
<polygon fill="white" stroke="#666666" points="266,-753.88 145,-753.88 145,-723.38 266,-723.38 266,-753.88"/>
<text text-anchor="start" x="153" y="-740.38" font-family="Helvetica,sans-Serif" font-size="10.00">zhl::OpTypingRule&lt;</text>
<text text-anchor="middle" x="205.5" y="-729.12" font-family="Helvetica,sans-Serif" font-size="10.00"> zirgen::Zhl::ExternOp &gt;</text>
</a>
</g>
</g>
<!-- Node0&#45;&gt;Node19 -->
<g id="edge154_Node000000_Node000019" class="edge">
<title>Node0&#45;&gt;Node19</title>
<g id="a_edge154_Node000000_Node000019"><a xlink:title=" ">
<path fill="none" stroke="#63b8ff" d="M50.27,-612.15C61.28,-639.38 84.39,-687.06 119.5,-713.62 126.98,-719.29 135.73,-723.67 144.7,-727.06"/>
<polygon fill="#63b8ff" stroke="#63b8ff" points="53.59,-611.03 46.72,-602.96 47.06,-613.55 53.59,-611.03"/>
</a>
</g>
</g>
<!-- Node21 -->
<g id="Node000021" class="node">
<title>Node21</title>
<g id="a_Node000021"><a xlink:href="classzhl_1_1_op_typing_rule.html" target="_top" xlink:title=" ">
<polygon fill="white" stroke="#666666" points="276.5,-704.88 134.5,-704.88 134.5,-674.38 276.5,-674.38 276.5,-704.88"/>
<text text-anchor="start" x="142.5" y="-691.38" font-family="Helvetica,sans-Serif" font-size="10.00">zhl::OpTypingRule&lt;</text>
<text text-anchor="middle" x="205.5" y="-680.12" font-family="Helvetica,sans-Serif" font-size="10.00"> zirgen::Zhl::TypeParamOp &gt;</text>
</a>
</g>
</g>
<!-- Node0&#45;&gt;Node21 -->
<g id="edge156_Node000000_Node000021" class="edge">
<title>Node0&#45;&gt;Node21</title>
<g id="a_edge156_Node000000_Node000021"><a xlink:title=" ">
<path fill="none" stroke="#63b8ff" d="M57.96,-610.48C72.23,-626.99 95,-650.49 119.5,-664.62 125.63,-668.16 132.3,-671.23 139.12,-673.89"/>
<polygon fill="#63b8ff" stroke="#63b8ff" points="60.67,-608.26 51.57,-602.85 55.31,-612.76 60.67,-608.26"/>
</a>
</g>
</g>
<!-- Node23 -->
<g id="Node000023" class="node">
<title>Node23</title>
<g id="a_Node000023"><a xlink:href="classzhl_1_1_op_typing_rule.html" target="_top" xlink:title=" ">
<polygon fill="white" stroke="#666666" points="273.5,-655.88 137.5,-655.88 137.5,-625.38 273.5,-625.38 273.5,-655.88"/>
<text text-anchor="start" x="145.5" y="-642.38" font-family="Helvetica,sans-Serif" font-size="10.00">zhl::OpTypingRule&lt;</text>
<text text-anchor="middle" x="205.5" y="-631.12" font-family="Helvetica,sans-Serif" font-size="10.00"> zirgen::Zhl::GetGlobalOp &gt;</text>
</a>
</g>
</g>
<!-- Node0&#45;&gt;Node23 -->
<g id="edge158_Node000000_Node000023" class="edge">
<title>Node0&#45;&gt;Node23</title>
<g id="a_edge158_Node000000_Node000023"><a xlink:title=" ">
<path fill="none" stroke="#63b8ff" d="M85.24,-605.05C96.37,-608.53 108.38,-612.25 119.5,-615.62 129.51,-618.66 140.2,-621.85 150.5,-624.89"/>
<polygon fill="#63b8ff" stroke="#63b8ff" points="86.49,-601.78 75.9,-602.12 84.39,-608.46 86.49,-601.78"/>
</a>
</g>
</g>
<!-- Node25 -->
<g id="Node000025" class="node">
<title>Node25</title>
<g id="a_Node000025"><a xlink:href="classzhl_1_1_op_typing_rule.html" target="_top" xlink:title=" ">
<polygon fill="white" stroke="#666666" points="265.62,-606.88 145.38,-606.88 145.38,-576.38 265.62,-576.38 265.62,-606.88"/>
<text text-anchor="start" x="153.38" y="-593.38" font-family="Helvetica,sans-Serif" font-size="10.00">zhl::OpTypingRule&lt;</text>
<text text-anchor="middle" x="205.5" y="-582.12" font-family="Helvetica,sans-Serif" font-size="10.00"> zirgen::Zhl::GlobalOp &gt;</text>
</a>
</g>
</g>
<!-- Node0&#45;&gt;Node25 -->
<g id="edge160_Node000000_Node000025" class="edge">
<title>Node0&#45;&gt;Node25</title>
<g id="a_edge160_Node000000_Node000025"><a xlink:title=" ">
<path fill="none" stroke="#63b8ff" d="M95.22,-591.62C111.12,-591.62 128.7,-591.62 145.03,-591.62"/>
<polygon fill="#63b8ff" stroke="#63b8ff" points="95.5,-588.13 85.5,-591.63 95.5,-595.13 95.5,-588.13"/>
</a>
</g>
</g>
<!-- Node27 -->
<g id="Node000027" class="node">
<title>Node27</title>
<g id="a_Node000027"><a xlink:href="classzhl_1_1_op_typing_rule.html" target="_top" xlink:title=" ">
<polygon fill="white" stroke="#666666" points="264.88,-557.88 146.12,-557.88 146.12,-527.38 264.88,-527.38 264.88,-557.88"/>
<text text-anchor="start" x="154.12" y="-544.38" font-family="Helvetica,sans-Serif" font-size="10.00">zhl::OpTypingRule&lt;</text>
<text text-anchor="middle" x="205.5" y="-533.12" font-family="Helvetica,sans-Serif" font-size="10.00"> zirgen::Zhl::LiteralOp &gt;</text>
</a>
</g>
</g>
<!-- Node0&#45;&gt;Node27 -->
<g id="edge162_Node000000_Node000027" class="edge">
<title>Node0&#45;&gt;Node27</title>
<g id="a_edge162_Node000000_Node000027"><a xlink:title=" ">
<path fill="none" stroke="#63b8ff" d="M85.24,-578.2C96.37,-574.72 108.38,-571 119.5,-567.62 129.51,-564.59 140.2,-561.4 150.5,-558.36"/>
<polygon fill="#63b8ff" stroke="#63b8ff" points="84.39,-574.79 75.9,-581.13 86.49,-581.47 84.39,-574.79"/>
</a>
</g>
</g>
<!-- Node29 -->
<g id="Node000029" class="node">
<title>Node29</title>
<g id="a_Node000029"><a xlink:href="classzhl_1_1_op_typing_rule.html" target="_top" xlink:title=" ">
<polygon fill="white" stroke="#666666" points="267.5,-508.88 143.5,-508.88 143.5,-478.38 267.5,-478.38 267.5,-508.88"/>
<text text-anchor="start" x="151.5" y="-495.38" font-family="Helvetica,sans-Serif" font-size="10.00">zhl::OpTypingRule&lt;</text>
<text text-anchor="middle" x="205.5" y="-484.12" font-family="Helvetica,sans-Serif" font-size="10.00"> zirgen::Zhl::LookupOp &gt;</text>
</a>
</g>
</g>
<!-- Node0&#45;&gt;Node29 -->
<g id="edge164_Node000000_Node000029" class="edge">
<title>Node0&#45;&gt;Node29</title>
<g id="a_edge164_Node000000_Node000029"><a xlink:title=" ">
<path fill="none" stroke="#63b8ff" d="M57.96,-572.77C72.23,-556.26 95,-532.76 119.5,-518.62 126.83,-514.4 134.93,-510.83 143.14,-507.84"/>
<polygon fill="#63b8ff" stroke="#63b8ff" points="55.31,-570.49 51.57,-580.4 60.67,-574.99 55.31,-570.49"/>
</a>
</g>
</g>
<!-- Node31 -->
<g id="Node000031" class="node">
<title>Node31</title>
<g id="a_Node000031"><a xlink:href="classzhl_1_1_op_typing_rule.html" target="_top" xlink:title=" ">
<polygon fill="white" stroke="#666666" points="261.12,-459.88 149.88,-459.88 149.88,-429.38 261.12,-429.38 261.12,-459.88"/>
<text text-anchor="start" x="157.88" y="-446.38" font-family="Helvetica,sans-Serif" font-size="10.00">zhl::OpTypingRule&lt;</text>
<text text-anchor="middle" x="205.5" y="-435.12" font-family="Helvetica,sans-Serif" font-size="10.00"> zirgen::Zhl::MapOp &gt;</text>
</a>
</g>
</g>
<!-- Node0&#45;&gt;Node31 -->
<g id="edge166_Node000000_Node000031" class="edge">
<title>Node0&#45;&gt;Node31</title>
<g id="a_edge166_Node000000_Node000031"><a xlink:title=" ">
<path fill="none" stroke="#63b8ff" d="M50.27,-571.1C61.28,-543.87 84.39,-496.19 119.5,-469.62 128.33,-462.94 138.92,-458.04 149.58,-454.45"/>
<polygon fill="#63b8ff" stroke="#63b8ff" points="47.06,-569.7 46.72,-580.29 53.59,-572.22 47.06,-569.7"/>
</a>
</g>
</g>
<!-- Node33 -->
<g id="Node000033" class="node">
<title>Node33</title>
<g id="a_Node000033"><a xlink:href="classzhl_1_1_op_typing_rule.html" target="_top" xlink:title=" ">
<polygon fill="white" stroke="#666666" points="291.5,-410.88 119.5,-410.88 119.5,-380.38 291.5,-380.38 291.5,-410.88"/>
<text text-anchor="start" x="127.5" y="-397.38" font-family="Helvetica,sans-Serif" font-size="10.00">zhl::OpTypingRule&lt;</text>
<text text-anchor="middle" x="205.5" y="-386.12" font-family="Helvetica,sans-Serif" font-size="10.00"> zirgen::Zhl::ConstructorParamOp &gt;</text>
</a>
</g>
</g>
<!-- Node0&#45;&gt;Node33 -->
<g id="edge168_Node000000_Node000033" class="edge">
<title>Node0&#45;&gt;Node33</title>
<g id="a_edge168_Node000000_Node000033"><a xlink:title=" ">
<path fill="none" stroke="#63b8ff" d="M46.28,-570.78C53.46,-534.8 73.22,-461.01 119.5,-420.62 123.67,-416.98 128.35,-413.87 133.31,-411.21"/>
<polygon fill="#63b8ff" stroke="#63b8ff" points="42.89,-569.86 44.51,-580.33 49.77,-571.13 42.89,-569.86"/>
</a>
</g>
</g>
<!-- Node35 -->
<g id="Node000035" class="node">
<title>Node35</title>
<g id="a_Node000035"><a xlink:href="classzhl_1_1_op_typing_rule.html" target="_top" xlink:title=" ">
<polygon fill="white" stroke="#666666" points="266,-361.88 145,-361.88 145,-331.38 266,-331.38 266,-361.88"/>
<text text-anchor="start" x="153" y="-348.38" font-family="Helvetica,sans-Serif" font-size="10.00">zhl::OpTypingRule&lt;</text>
<text text-anchor="middle" x="205.5" y="-337.12" font-family="Helvetica,sans-Serif" font-size="10.00"> zirgen::Zhl::RangeOp &gt;</text>
</a>
</g>
</g>
<!-- Node0&#45;&gt;Node35 -->
<g id="edge170_Node000000_Node000035" class="edge">
<title>Node0&#45;&gt;Node35</title>
<g id="a_edge170_Node000000_Node000035"><a xlink:title=" ">
<path fill="none" stroke="#63b8ff" d="M43.95,-570.16C47.56,-526.38 62.01,-426.33 119.5,-371.62 126.63,-364.84 135.51,-359.88 144.82,-356.27"/>
<polygon fill="#63b8ff" stroke="#63b8ff" points="40.46,-569.87 43.25,-580.09 47.44,-570.36 40.46,-569.87"/>
</a>
</g>
</g>
<!-- Node37 -->
<g id="Node000037" class="node">
<title>Node37</title>
<g id="a_Node000037"><a xlink:href="classzhl_1_1_op_typing_rule.html" target="_top" xlink:title=" ">
<polygon fill="white" stroke="#666666" points="268.62,-312.88 142.38,-312.88 142.38,-282.38 268.62,-282.38 268.62,-312.88"/>
<text text-anchor="start" x="150.38" y="-299.38" font-family="Helvetica,sans-Serif" font-size="10.00">zhl::OpTypingRule&lt;</text>
<text text-anchor="middle" x="205.5" y="-288.12" font-family="Helvetica,sans-Serif" font-size="10.00"> zirgen::Zhl::ReduceOp &gt;</text>
</a>
</g>
</g>
<!-- Node0&#45;&gt;Node37 -->
<g id="edge172_Node000000_Node000037" class="edge">
<title>Node0&#45;&gt;Node37</title>
<g id="a_edge172_Node000000_Node000037"><a xlink:title=" ">
<path fill="none" stroke="#63b8ff" d="M42.33,-570.35C42.54,-519.98 50.28,-392.41 119.5,-322.62 125.78,-316.29 133.58,-311.54 141.89,-307.99"/>
<polygon fill="#63b8ff" stroke="#63b8ff" points="38.83,-570.17 42.4,-580.15 45.83,-570.12 38.83,-570.17"/>
</a>
</g>
</g>
<!-- Node39 -->
<g id="Node000039" class="node">
<title>Node39</title>
<g id="a_Node000039"><a xlink:href="classzhl_1_1_op_typing_rule.html" target="_top" xlink:title=" ">
<polygon fill="white" stroke="#666666" points="274.25,-263.88 136.75,-263.88 136.75,-233.38 274.25,-233.38 274.25,-263.88"/>
<text text-anchor="start" x="144.75" y="-250.38" font-family="Helvetica,sans-Serif" font-size="10.00">zhl::OpTypingRule&lt;</text>
<text text-anchor="middle" x="205.5" y="-239.12" font-family="Helvetica,sans-Serif" font-size="10.00"> zirgen::Zhl::SpecializeOp &gt;</text>
</a>
</g>
</g>
<!-- Node0&#45;&gt;Node39 -->
<g id="edge174_Node000000_Node000039" class="edge">
<title>Node0&#45;&gt;Node39</title>
<g id="a_edge174_Node000000_Node000039"><a xlink:title=" ">
<path fill="none" stroke="#63b8ff" d="M45.1,-570.45C52.62,-506.52 78.01,-317.21 119.5,-273.62 124.38,-268.5 130.25,-264.41 136.6,-261.15"/>
<polygon fill="#63b8ff" stroke="#63b8ff" points="41.64,-569.95 43.98,-580.28 48.59,-570.75 41.64,-569.95"/>
</a>
</g>
</g>
<!-- Node41 -->
<g id="Node000041" class="node">
<title>Node41</title>
<g id="a_Node000041"><a xlink:href="classzhl_1_1_op_typing_rule.html" target="_top" xlink:title=" ">
<polygon fill="white" stroke="#666666" points="264.5,-214.88 146.5,-214.88 146.5,-184.38 264.5,-184.38 264.5,-214.88"/>
<text text-anchor="start" x="154.5" y="-201.38" font-family="Helvetica,sans-Serif" font-size="10.00">zhl::OpTypingRule&lt;</text>
<text text-anchor="middle" x="205.5" y="-190.12" font-family="Helvetica,sans-Serif" font-size="10.00"> zirgen::Zhl::StringOp &gt;</text>
</a>
</g>
</g>
<!-- Node0&#45;&gt;Node41 -->
<g id="edge176_Node000000_Node000041" class="edge">
<title>Node0&#45;&gt;Node41</title>
<g id="a_edge176_Node000000_Node000041"><a xlink:title=" ">
<path fill="none" stroke="#63b8ff" d="M44.36,-570.47C50.14,-500.19 72.01,-276.07 119.5,-224.62 126.7,-216.83 136.19,-211.42 146.22,-207.67"/>
<polygon fill="#63b8ff" stroke="#63b8ff" points="40.89,-569.97 43.59,-580.21 47.87,-570.52 40.89,-569.97"/>
</a>
</g>
</g>
<!-- Node43 -->
<g id="Node000043" class="node">
<title>Node43</title>
<g id="a_Node000043"><a xlink:href="classzhl_1_1_op_typing_rule.html" target="_top" xlink:title=" ">
<polygon fill="white" stroke="#666666" points="272.38,-165.88 138.62,-165.88 138.62,-135.38 272.38,-135.38 272.38,-165.88"/>
<text text-anchor="start" x="146.62" y="-152.38" font-family="Helvetica,sans-Serif" font-size="10.00">zhl::OpTypingRule&lt;</text>
<text text-anchor="middle" x="205.5" y="-141.12" font-family="Helvetica,sans-Serif" font-size="10.00"> zirgen::Zhl::SubscriptOp &gt;</text>
</a>
</g>
</g>
<!-- Node0&#45;&gt;Node43 -->
<g id="edge178_Node000000_Node000043" class="edge">
<title>Node0&#45;&gt;Node43</title>
<g id="a_edge178_Node000000_Node000043"><a xlink:title=" ">
<path fill="none" stroke="#63b8ff" d="M43.81,-570.17C48.03,-493.57 66.04,-234.93 119.5,-175.62 124.75,-169.8 131.29,-165.3 138.38,-161.83"/>
<polygon fill="#63b8ff" stroke="#63b8ff" points="40.32,-569.88 43.29,-580.05 47.31,-570.25 40.32,-569.88"/>
</a>
</g>
</g>
<!-- Node45 -->
<g id="Node000045" class="node">
<title>Node45</title>
<g id="a_Node000045"><a xlink:href="classzhl_1_1_op_typing_rule.html" target="_top" xlink:title=" ">
<polygon fill="white" stroke="#666666" points="264.5,-116.88 146.5,-116.88 146.5,-86.38 264.5,-86.38 264.5,-116.88"/>
<text text-anchor="start" x="154.5" y="-103.38" font-family="Helvetica,sans-Serif" font-size="10.00">zhl::OpTypingRule&lt;</text>
<text text-anchor="middle" x="205.5" y="-92.12" font-family="Helvetica,sans-Serif" font-size="10.00"> zirgen::Zhl::SuperOp &gt;</text>
</a>
</g>
</g>
<!-- Node0&#45;&gt;Node45 -->
<g id="edge180_Node000000_Node000045" class="edge">
<title>Node0&#45;&gt;Node45</title>
<g id="a_edge180_Node000000_Node000045"><a xlink:title=" ">
<path fill="none" stroke="#63b8ff" d="M43.35,-570.34C46.08,-488.31 59.94,-193.96 119.5,-126.62 126.63,-118.56 136.22,-113.04 146.39,-109.27"/>
<polygon fill="#63b8ff" stroke="#63b8ff" points="39.86,-570 43.05,-580.1 46.85,-570.21 39.86,-570"/>
</a>
</g>
</g>
<!-- Node47 -->
<g id="Node000047" class="node">
<title>Node47</title>
<g id="a_Node000047"><a xlink:href="classzhl_1_1_op_typing_rule.html" target="_top" xlink:title=" ">
<polygon fill="white" stroke="#666666" points="266.75,-67.88 144.25,-67.88 144.25,-37.38 266.75,-37.38 266.75,-67.88"/>
<text text-anchor="start" x="152.25" y="-54.38" font-family="Helvetica,sans-Serif" font-size="10.00">zhl::OpTypingRule&lt;</text>
<text text-anchor="middle" x="205.5" y="-43.12" font-family="Helvetica,sans-Serif" font-size="10.00"> zirgen::Zhl::SwitchOp &gt;</text>
</a>
</g>
</g>
<!-- Node0&#45;&gt;Node47 -->
<g id="edge182_Node000000_Node000047" class="edge">
<title>Node0&#45;&gt;Node47</title>
<g id="a_edge182_Node000000_Node000047"><a xlink:title=" ">
<path fill="none" stroke="#63b8ff" d="M42.98,-570.39C44.34,-483.1 53.84,-153.02 119.5,-77.62 126.07,-70.09 134.78,-64.76 144.12,-61.02"/>
<polygon fill="#63b8ff" stroke="#63b8ff" points="39.48,-570.28 42.85,-580.33 46.48,-570.38 39.48,-570.28"/>
</a>
</g>
</g>
<!-- Node49 -->
<g id="Node000049" class="node">
<title>Node49</title>
<g id="a_Node000049"><a xlink:href="classzhl_1_1_op_typing_rule.html" target="_top" xlink:title=" ">
<polygon fill="white" stroke="#666666" points="269,-19.25 142,-19.25 142,0 269,0 269,-19.25"/>
<text text-anchor="middle" x="205.5" y="-5.75" font-family="Helvetica,sans-Serif" font-size="10.00">zhl::OpTypingRule&lt; Op &gt;</text>
</a>
</g>
</g>
<!-- Node0&#45;&gt;Node49 -->
<g id="edge184_Node000000_Node000049" class="edge">
<title>Node0&#45;&gt;Node49</title>
<g id="a_edge184_Node000000_Node000049"><a xlink:title=" ">
<path fill="none" stroke="#63b8ff" d="M42.54,-570.33C42.07,-477.57 44.99,-109.71 119.5,-28.62 125.54,-22.06 133.31,-17.51 141.69,-14.39"/>
<polygon fill="#63b8ff" stroke="#63b8ff" points="39.04,-570.26 42.61,-580.24 46.04,-570.21 39.04,-570.26"/>
</a>
</g>
</g>
<!-- Node2 -->
<g id="Node000002" class="node">
<title>Node2</title>
<g id="a_Node000002"><a xlink:href="classzhl_1_1_array_type_rule.html" target="_top" xlink:title=" ">
<polygon fill="white" stroke="#666666" points="454.12,-1189.25 354.88,-1189.25 354.88,-1170 454.12,-1170 454.12,-1189.25"/>
<text text-anchor="middle" x="404.5" y="-1175.75" font-family="Helvetica,sans-Serif" font-size="10.00">zhl::ArrayTypeRule</text>
</a>
</g>
</g>
<!-- Node1&#45;&gt;Node2 -->
<g id="edge137_Node000001_Node000002" class="edge">
<title>Node1&#45;&gt;Node2</title>
<g id="a_edge137_Node000001_Node000002"><a xlink:title=" ">
<path fill="none" stroke="#63b8ff" d="M275.12,-1179.62C301.26,-1179.62 330.49,-1179.62 354.46,-1179.62"/>
<polygon fill="#63b8ff" stroke="#63b8ff" points="275.26,-1176.13 265.26,-1179.63 275.26,-1183.13 275.26,-1176.13"/>
</a>
</g>
</g>
<!-- Node4 -->
<g id="Node000004" class="node">
<title>Node4</title>
<g id="a_Node000004"><a xlink:href="classzhl_1_1_back_type_rule.html" target="_top" xlink:title=" ">
<polygon fill="white" stroke="#666666" points="453.75,-1140.25 355.25,-1140.25 355.25,-1121 453.75,-1121 453.75,-1140.25"/>
<text text-anchor="middle" x="404.5" y="-1126.75" font-family="Helvetica,sans-Serif" font-size="10.00">zhl::BackTypeRule</text>
</a>
</g>
</g>
<!-- Node3&#45;&gt;Node4 -->
<g id="edge139_Node000003_Node000004" class="edge">
<title>Node3&#45;&gt;Node4</title>
<g id="a_edge139_Node000003_Node000004"><a xlink:title=" ">
<path fill="none" stroke="#63b8ff" d="M274.95,-1130.62C301.32,-1130.62 330.87,-1130.62 354.98,-1130.62"/>
<polygon fill="#63b8ff" stroke="#63b8ff" points="274.99,-1127.13 264.99,-1130.63 274.99,-1134.13 274.99,-1127.13"/>
</a>
</g>
</g>
<!-- Node6 -->
<g id="Node000006" class="node">
<title>Node6</title>
<g id="a_Node000006"><a xlink:href="classzhl_1_1_block_type_rule.html" target="_top" xlink:title=" ">
<polygon fill="white" stroke="#666666" points="454.88,-1091.25 354.12,-1091.25 354.12,-1072 454.88,-1072 454.88,-1091.25"/>
<text text-anchor="middle" x="404.5" y="-1077.75" font-family="Helvetica,sans-Serif" font-size="10.00">zhl::BlockTypeRule</text>
</a>
</g>
</g>
<!-- Node5&#45;&gt;Node6 -->
<g id="edge141_Node000005_Node000006" class="edge">
<title>Node5&#45;&gt;Node6</title>
<g id="a_edge141_Node000005_Node000006"><a xlink:title=" ">
<path fill="none" stroke="#63b8ff" d="M275.76,-1081.62C301.52,-1081.62 330.21,-1081.62 353.87,-1081.62"/>
<polygon fill="#63b8ff" stroke="#63b8ff" points="276.05,-1078.13 266.05,-1081.63 276.05,-1085.13 276.05,-1078.13"/>
</a>
</g>
</g>
<!-- Node8 -->
<g id="Node000008" class="node">
<title>Node8</title>
<g id="a_Node000008"><a xlink:href="classzhl_1_1_constrain_type_rule.html" target="_top" xlink:title=" ">
<polygon fill="white" stroke="#666666" points="463.5,-1042.25 345.5,-1042.25 345.5,-1023 463.5,-1023 463.5,-1042.25"/>
<text text-anchor="middle" x="404.5" y="-1028.75" font-family="Helvetica,sans-Serif" font-size="10.00">zhl::ConstrainTypeRule</text>
</a>
</g>
</g>
<!-- Node7&#45;&gt;Node8 -->
<g id="edge143_Node000007_Node000008" class="edge">
<title>Node7&#45;&gt;Node8</title>
<g id="a_edge143_Node000007_Node000008"><a xlink:title=" ">
<path fill="none" stroke="#63b8ff" d="M286.08,-1032.62C305.87,-1032.62 326.71,-1032.62 345.26,-1032.62"/>
<polygon fill="#63b8ff" stroke="#63b8ff" points="286.09,-1029.13 276.09,-1032.63 286.09,-1036.13 286.09,-1029.13"/>
</a>
</g>
</g>
<!-- Node10 -->
<g id="Node000010" class="node">
<title>Node10</title>
<g id="a_Node000010"><a xlink:href="classzhl_1_1_construct_global_typing_rule.html" target="_top" xlink:title=" ">
<polygon fill="white" stroke="#666666" points="481.5,-993.25 327.5,-993.25 327.5,-974 481.5,-974 481.5,-993.25"/>
<text text-anchor="middle" x="404.5" y="-979.75" font-family="Helvetica,sans-Serif" font-size="10.00">zhl::ConstructGlobalTypingRule</text>
</a>
</g>
</g>
<!-- Node9&#45;&gt;Node10 -->
<g id="edge145_Node000009_Node000010" class="edge">
<title>Node9&#45;&gt;Node10</title>
<g id="a_edge145_Node000009_Node000010"><a xlink:title=" ">
<path fill="none" stroke="#63b8ff" d="M298.98,-983.62C308.45,-983.62 318,-983.62 327.27,-983.62"/>
<polygon fill="#63b8ff" stroke="#63b8ff" points="298.99,-980.13 288.99,-983.63 298.99,-987.13 298.99,-980.13"/>
</a>
</g>
</g>
<!-- Node12 -->
<g id="Node000012" class="node">
<title>Node12</title>
<g id="a_Node000012"><a xlink:href="classzhl_1_1_construct_typing_rule.html" target="_top" xlink:title=" ">
<polygon fill="white" stroke="#666666" points="467.62,-944.25 341.38,-944.25 341.38,-925 467.62,-925 467.62,-944.25"/>
<text text-anchor="middle" x="404.5" y="-930.75" font-family="Helvetica,sans-Serif" font-size="10.00">zhl::ConstructTypingRule</text>
</a>
</g>
</g>
<!-- Node11&#45;&gt;Node12 -->
<g id="edge147_Node000011_Node000012" class="edge">
<title>Node11&#45;&gt;Node12</title>
<g id="a_edge147_Node000011_Node000012"><a xlink:title=" ">
<path fill="none" stroke="#63b8ff" d="M284.92,-934.62C303.57,-934.62 323.21,-934.62 341.03,-934.62"/>
<polygon fill="#63b8ff" stroke="#63b8ff" points="284.98,-931.13 274.98,-934.63 284.98,-938.13 284.98,-931.13"/>
</a>
</g>
</g>
<!-- Node14 -->
<g id="Node000014" class="node">
<title>Node14</title>
<g id="a_Node000014"><a xlink:href="classzhl_1_1_declare_typing_rule.html" target="_top" xlink:title=" ">
<polygon fill="white" stroke="#666666" points="463.12,-895.25 345.88,-895.25 345.88,-876 463.12,-876 463.12,-895.25"/>
<text text-anchor="middle" x="404.5" y="-881.75" font-family="Helvetica,sans-Serif" font-size="10.00">zhl::DeclareTypingRule</text>
</a>
</g>
</g>
<!-- Node13&#45;&gt;Node14 -->
<g id="edge149_Node000013_Node000014" class="edge">
<title>Node13&#45;&gt;Node14</title>
<g id="a_edge149_Node000013_Node000014"><a xlink:title=" ">
<path fill="none" stroke="#63b8ff" d="M288.03,-885.62C307.35,-885.62 327.56,-885.62 345.58,-885.62"/>
<polygon fill="#63b8ff" stroke="#63b8ff" points="288.3,-882.13 278.3,-885.63 288.3,-889.13 288.3,-882.13"/>
</a>
</g>
</g>
<!-- Node16 -->
<g id="Node000016" class="node">
<title>Node16</title>
<g id="a_Node000016"><a xlink:href="classzhl_1_1_define_type_rule.html" target="_top" xlink:title=" ">
<polygon fill="white" stroke="#666666" points="456.75,-846.25 352.25,-846.25 352.25,-827 456.75,-827 456.75,-846.25"/>
<text text-anchor="middle" x="404.5" y="-832.75" font-family="Helvetica,sans-Serif" font-size="10.00">zhl::DefineTypeRule</text>
</a>
</g>
</g>
<!-- Node15&#45;&gt;Node16 -->
<g id="edge151_Node000015_Node000016" class="edge">
<title>Node15&#45;&gt;Node16</title>
<g id="a_edge151_Node000015_Node000016"><a xlink:title=" ">
<path fill="none" stroke="#63b8ff" d="M284.03,-836.62C306.79,-836.62 331.13,-836.62 351.85,-836.62"/>
<polygon fill="#63b8ff" stroke="#63b8ff" points="284.16,-833.13 274.16,-836.63 284.16,-840.13 284.16,-833.13"/>
</a>
</g>
</g>
<!-- Node18 -->
<g id="Node000018" class="node">
<title>Node18</title>
<g id="a_Node000018"><a xlink:href="classzhl_1_1_directive_type_rule.html" target="_top" xlink:title=" ">
<polygon fill="white" stroke="#666666" points="462,-797.25 347,-797.25 347,-778 462,-778 462,-797.25"/>
<text text-anchor="middle" x="404.5" y="-783.75" font-family="Helvetica,sans-Serif" font-size="10.00">zhl::DirectiveTypeRule</text>
</a>
</g>
</g>
<!-- Node17&#45;&gt;Node18 -->
<g id="edge153_Node000017_Node000018" class="edge">
<title>Node17&#45;&gt;Node18</title>
<g id="a_edge153_Node000017_Node000018"><a xlink:title=" ">
<path fill="none" stroke="#63b8ff" d="M282.86,-787.62C304.13,-787.62 326.86,-787.62 346.79,-787.62"/>
<polygon fill="#63b8ff" stroke="#63b8ff" points="283.06,-784.13 273.06,-787.63 283.06,-791.13 283.06,-784.13"/>
</a>
</g>
</g>
<!-- Node20 -->
<g id="Node000020" class="node">
<title>Node20</title>
<g id="a_Node000020"><a xlink:href="classzhl_1_1_extern_typing_rule.html" target="_top" xlink:title=" ">
<polygon fill="white" stroke="#666666" points="460.5,-748.25 348.5,-748.25 348.5,-729 460.5,-729 460.5,-748.25"/>
<text text-anchor="middle" x="404.5" y="-734.75" font-family="Helvetica,sans-Serif" font-size="10.00">zhl::ExternTypingRule</text>
</a>
</g>
</g>
<!-- Node19&#45;&gt;Node20 -->
<g id="edge155_Node000019_Node000020" class="edge">
<title>Node19&#45;&gt;Node20</title>
<g id="a_edge155_Node000019_Node000020"><a xlink:title=" ">
<path fill="none" stroke="#63b8ff" d="M277.62,-738.62C300.87,-738.62 326.34,-738.62 348.24,-738.62"/>
<polygon fill="#63b8ff" stroke="#63b8ff" points="277.92,-735.13 267.92,-738.63 277.92,-742.13 277.92,-735.13"/>
</a>
</g>
</g>
<!-- Node22 -->
<g id="Node000022" class="node">
<title>Node22</title>
<g id="a_Node000022"><a xlink:href="classzhl_1_1_generic_param_type_rule.html" target="_top" xlink:title=" ">
<polygon fill="white" stroke="#666666" points="473.62,-699.25 335.38,-699.25 335.38,-680 473.62,-680 473.62,-699.25"/>
<text text-anchor="middle" x="404.5" y="-685.75" font-family="Helvetica,sans-Serif" font-size="10.00">zhl::GenericParamTypeRule</text>
</a>
</g>
</g>
<!-- Node21&#45;&gt;Node22 -->
<g id="edge157_Node000021_Node000022" class="edge">
<title>Node21&#45;&gt;Node22</title>
<g id="a_edge157_Node000021_Node000022"><a xlink:title=" ">
<path fill="none" stroke="#63b8ff" d="M288.01,-689.62C303.59,-689.62 319.76,-689.62 334.89,-689.62"/>
<polygon fill="#63b8ff" stroke="#63b8ff" points="288.3,-686.13 278.3,-689.63 288.3,-693.13 288.3,-686.13"/>
</a>
</g>
</g>
<!-- Node24 -->
<g id="Node000024" class="node">
<title>Node24</title>
<g id="a_Node000024"><a xlink:href="classzhl_1_1_get_global_typing_rule.html" target="_top" xlink:title=" ">
<polygon fill="white" stroke="#666666" points="468,-650.25 341,-650.25 341,-631 468,-631 468,-650.25"/>
<text text-anchor="middle" x="404.5" y="-636.75" font-family="Helvetica,sans-Serif" font-size="10.00">zhl::GetGlobalTypingRule</text>
</a>
</g>
</g>
<!-- Node23&#45;&gt;Node24 -->
<g id="edge159_Node000023_Node000024" class="edge">
<title>Node23&#45;&gt;Node24</title>
<g id="a_edge159_Node000023_Node000024"><a xlink:title=" ">
<path fill="none" stroke="#63b8ff" d="M285.07,-640.62C303.5,-640.62 322.9,-640.62 340.54,-640.62"/>
<polygon fill="#63b8ff" stroke="#63b8ff" points="285.26,-637.13 275.26,-640.63 285.26,-644.13 285.26,-637.13"/>
</a>
</g>
</g>
<!-- Node26 -->
<g id="Node000026" class="node">
<title>Node26</title>
<g id="a_Node000026"><a xlink:href="classzhl_1_1_global_typing_rule.html" target="_top" xlink:title=" ">
<polygon fill="white" stroke="#666666" points="460.12,-601.25 348.88,-601.25 348.88,-582 460.12,-582 460.12,-601.25"/>
<text text-anchor="middle" x="404.5" y="-587.75" font-family="Helvetica,sans-Serif" font-size="10.00">zhl::GlobalTypingRule</text>
</a>
</g>
</g>
<!-- Node25&#45;&gt;Node26 -->
<g id="edge161_Node000025_Node000026" class="edge">
<title>Node25&#45;&gt;Node26</title>
<g id="a_edge161_Node000025_Node000026"><a xlink:title=" ">
<path fill="none" stroke="#63b8ff" d="M277.2,-591.62C300.7,-591.62 326.5,-591.62 348.62,-591.62"/>
<polygon fill="#63b8ff" stroke="#63b8ff" points="277.39,-588.13 267.39,-591.63 277.39,-595.13 277.39,-588.13"/>
</a>
</g>
</g>
<!-- Node28 -->
<g id="Node000028" class="node">
<title>Node28</title>
<g id="a_Node000028"><a xlink:href="classzhl_1_1_literal_typing_rule.html" target="_top" xlink:title=" ">
<polygon fill="white" stroke="#666666" points="459.38,-552.25 349.62,-552.25 349.62,-533 459.38,-533 459.38,-552.25"/>
<text text-anchor="middle" x="404.5" y="-538.75" font-family="Helvetica,sans-Serif" font-size="10.00">zhl::LiteralTypingRule</text>
</a>
</g>
</g>
<!-- Node27&#45;&gt;Node28 -->
<g id="edge163_Node000027_Node000028" class="edge">
<title>Node27&#45;&gt;Node28</title>
<g id="a_edge163_Node000027_Node000028"><a xlink:title=" ">
<path fill="none" stroke="#63b8ff" d="M276.83,-542.62C300.68,-542.62 326.94,-542.62 349.33,-542.62"/>
<polygon fill="#63b8ff" stroke="#63b8ff" points="276.85,-539.13 266.85,-542.63 276.85,-546.13 276.85,-539.13"/>
</a>
</g>
</g>
<!-- Node30 -->
<g id="Node000030" class="node">
<title>Node30</title>
<g id="a_Node000030"><a xlink:href="classzhl_1_1_lookup_type_rule.html" target="_top" xlink:title=" ">
<polygon fill="white" stroke="#666666" points="458.25,-503.25 350.75,-503.25 350.75,-484 458.25,-484 458.25,-503.25"/>
<text text-anchor="middle" x="404.5" y="-489.75" font-family="Helvetica,sans-Serif" font-size="10.00">zhl::LookupTypeRule</text>
</a>
</g>
</g>
<!-- Node29&#45;&gt;Node30 -->
<g id="edge165_Node000029_Node000030" class="edge">
<title>Node29&#45;&gt;Node30</title>
<g id="a_edge165_Node000029_Node000030"><a xlink:title=" ">
<path fill="none" stroke="#63b8ff" d="M279.13,-493.62C302.69,-493.62 328.39,-493.62 350.27,-493.62"/>
<polygon fill="#63b8ff" stroke="#63b8ff" points="279.27,-490.13 269.27,-493.63 279.27,-497.13 279.27,-490.13"/>
</a>
</g>
</g>
<!-- Node32 -->
<g id="Node000032" class="node">
<title>Node32</title>
<g id="a_Node000032"><a xlink:href="classzhl_1_1_map_type_rule.html" target="_top" xlink:title=" ">
<polygon fill="white" stroke="#666666" points="451.88,-454.25 357.12,-454.25 357.12,-435 451.88,-435 451.88,-454.25"/>
<text text-anchor="middle" x="404.5" y="-440.75" font-family="Helvetica,sans-Serif" font-size="10.00">zhl::MapTypeRule</text>
</a>
</g>
</g>
<!-- Node31&#45;&gt;Node32 -->
<g id="edge167_Node000031_Node000032" class="edge">
<title>Node31&#45;&gt;Node32</title>
<g id="a_edge167_Node000031_Node000032"><a xlink:title=" ">
<path fill="none" stroke="#63b8ff" d="M272.57,-444.62C300.24,-444.62 331.75,-444.62 356.92,-444.62"/>
<polygon fill="#63b8ff" stroke="#63b8ff" points="272.89,-441.13 262.89,-444.63 272.89,-448.13 272.89,-441.13"/>
</a>
</g>
</g>
<!-- Node34 -->
<g id="Node000034" class="node">
<title>Node34</title>
<g id="a_Node000034"><a xlink:href="classzhl_1_1_parameter_typing_rule.html" target="_top" xlink:title=" ">
<polygon fill="white" stroke="#666666" points="468.75,-405.25 340.25,-405.25 340.25,-386 468.75,-386 468.75,-405.25"/>
<text text-anchor="middle" x="404.5" y="-391.75" font-family="Helvetica,sans-Serif" font-size="10.00">zhl::ParameterTypingRule</text>
</a>
</g>
</g>
<!-- Node33&#45;&gt;Node34 -->
<g id="edge169_Node000033_Node000034" class="edge">
<title>Node33&#45;&gt;Node34</title>
<g id="a_edge169_Node000033_Node000034"><a xlink:title=" ">
<path fill="none" stroke="#63b8ff" d="M303.15,-395.62C315.59,-395.62 328.07,-395.62 339.79,-395.62"/>
<polygon fill="#63b8ff" stroke="#63b8ff" points="303.27,-392.13 293.27,-395.63 303.27,-399.13 303.27,-392.13"/>
</a>
</g>
</g>
<!-- Node36 -->
<g id="Node000036" class="node">
<title>Node36</title>
<g id="a_Node000036"><a xlink:href="classzhl_1_1_range_type_rule.html" target="_top" xlink:title=" ">
<polygon fill="white" stroke="#666666" points="456.75,-356.25 352.25,-356.25 352.25,-337 456.75,-337 456.75,-356.25"/>
<text text-anchor="middle" x="404.5" y="-342.75" font-family="Helvetica,sans-Serif" font-size="10.00">zhl::RangeTypeRule</text>
</a>
</g>
</g>
<!-- Node35&#45;&gt;Node36 -->
<g id="edge171_Node000035_Node000036" class="edge">
<title>Node35&#45;&gt;Node36</title>
<g id="a_edge171_Node000035_Node000036"><a xlink:title=" ">
<path fill="none" stroke="#63b8ff" d="M277.83,-346.62C302.32,-346.62 329.25,-346.62 351.87,-346.62"/>
<polygon fill="#63b8ff" stroke="#63b8ff" points="277.92,-343.13 267.92,-346.63 277.92,-350.13 277.92,-343.13"/>
</a>
</g>
</g>
<!-- Node38 -->
<g id="Node000038" class="node">
<title>Node38</title>
<g id="a_Node000038"><a xlink:href="classzhl_1_1_reduce_type_rule.html" target="_top" xlink:title=" ">
<polygon fill="white" stroke="#666666" points="459.38,-307.25 349.62,-307.25 349.62,-288 459.38,-288 459.38,-307.25"/>
<text text-anchor="middle" x="404.5" y="-293.75" font-family="Helvetica,sans-Serif" font-size="10.00">zhl::ReduceTypeRule</text>
</a>
</g>
</g>
<!-- Node37&#45;&gt;Node38 -->
<g id="edge173_Node000037_Node000038" class="edge">
<title>Node37&#45;&gt;Node38</title>
<g id="a_edge173_Node000037_Node000038"><a xlink:title=" ">
<path fill="none" stroke="#63b8ff" d="M280.5,-297.62C303.36,-297.62 328.1,-297.62 349.36,-297.62"/>
<polygon fill="#63b8ff" stroke="#63b8ff" points="280.62,-294.13 270.62,-297.63 280.62,-301.13 280.62,-294.13"/>
</a>
</g>
</g>
<!-- Node40 -->
<g id="Node000040" class="node">
<title>Node40</title>
<g id="a_Node000040"><a xlink:href="classzhl_1_1_specialize_type_rule.html" target="_top" xlink:title=" ">
<polygon fill="white" stroke="#666666" points="465,-258.25 344,-258.25 344,-239 465,-239 465,-258.25"/>
<text text-anchor="middle" x="404.5" y="-244.75" font-family="Helvetica,sans-Serif" font-size="10.00">zhl::SpecializeTypeRule</text>
</a>
</g>
</g>
<!-- Node39&#45;&gt;Node40 -->
<g id="edge175_Node000039_Node000040" class="edge">
<title>Node39&#45;&gt;Node40</title>
<g id="a_edge175_Node000039_Node000040"><a xlink:title=" ">
<path fill="none" stroke="#63b8ff" d="M286.07,-248.62C305.29,-248.62 325.51,-248.62 343.65,-248.62"/>
<polygon fill="#63b8ff" stroke="#63b8ff" points="286.09,-245.13 276.09,-248.63 286.09,-252.13 286.09,-245.13"/>
</a>
</g>
</g>
<!-- Node42 -->
<g id="Node000042" class="node">
<title>Node42</title>
<g id="a_Node000042"><a xlink:href="classzhl_1_1_string_typing_rule.html" target="_top" xlink:title=" ">
<polygon fill="white" stroke="#666666" points="459,-209.25 350,-209.25 350,-190 459,-190 459,-209.25"/>
<text text-anchor="middle" x="404.5" y="-195.75" font-family="Helvetica,sans-Serif" font-size="10.00">zhl::StringTypingRule</text>
</a>
</g>
</g>
<!-- Node41&#45;&gt;Node42 -->
<g id="edge177_Node000041_Node000042" class="edge">
<title>Node41&#45;&gt;Node42</title>
<g id="a_edge177_Node000041_Node000042"><a xlink:title=" ">
<path fill="none" stroke="#63b8ff" d="M276.08,-199.62C300.27,-199.62 327.01,-199.62 349.72,-199.62"/>
<polygon fill="#63b8ff" stroke="#63b8ff" points="276.32,-196.13 266.32,-199.63 276.32,-203.13 276.32,-196.13"/>
</a>
</g>
</g>
<!-- Node44 -->
<g id="Node000044" class="node">
<title>Node44</title>
<g id="a_Node000044"><a xlink:href="classzhl_1_1_subscript_type_rule.html" target="_top" xlink:title=" ">
<polygon fill="white" stroke="#666666" points="463.12,-160.25 345.88,-160.25 345.88,-141 463.12,-141 463.12,-160.25"/>
<text text-anchor="middle" x="404.5" y="-146.75" font-family="Helvetica,sans-Serif" font-size="10.00">zhl::SubscriptTypeRule</text>
</a>
</g>
</g>
<!-- Node43&#45;&gt;Node44 -->
<g id="edge179_Node000043_Node000044" class="edge">
<title>Node43&#45;&gt;Node44</title>
<g id="a_edge179_Node000043_Node000044"><a xlink:title=" ">
<path fill="none" stroke="#63b8ff" d="M283.88,-150.62C304.39,-150.62 326.17,-150.62 345.45,-150.62"/>
<polygon fill="#63b8ff" stroke="#63b8ff" points="284.16,-147.13 274.16,-150.63 284.16,-154.13 284.16,-147.13"/>
</a>
</g>
</g>
<!-- Node46 -->
<g id="Node000046" class="node">
<title>Node46</title>
<g id="a_Node000046"><a xlink:href="classzhl_1_1_super_typing_rule.html" target="_top" xlink:title=" ">
<polygon fill="white" stroke="#666666" points="459,-111.25 350,-111.25 350,-92 459,-92 459,-111.25"/>
<text text-anchor="middle" x="404.5" y="-97.75" font-family="Helvetica,sans-Serif" font-size="10.00">zhl::SuperTypingRule</text>
</a>
</g>
</g>
<!-- Node45&#45;&gt;Node46 -->
<g id="edge181_Node000045_Node000046" class="edge">
<title>Node45&#45;&gt;Node46</title>
<g id="a_edge181_Node000045_Node000046"><a xlink:title=" ">
<path fill="none" stroke="#63b8ff" d="M276.08,-101.62C300.27,-101.62 327.01,-101.62 349.72,-101.62"/>
<polygon fill="#63b8ff" stroke="#63b8ff" points="276.32,-98.13 266.32,-101.63 276.32,-105.13 276.32,-98.13"/>
</a>
</g>
</g>
<!-- Node48 -->
<g id="Node000048" class="node">
<title>Node48</title>
<g id="a_Node000048"><a xlink:href="classzhl_1_1_switch_type_rule.html" target="_top" xlink:title=" ">
<polygon fill="white" stroke="#666666" points="457.5,-62.25 351.5,-62.25 351.5,-43 457.5,-43 457.5,-62.25"/>
<text text-anchor="middle" x="404.5" y="-48.75" font-family="Helvetica,sans-Serif" font-size="10.00">zhl::SwitchTypeRule</text>
</a>
</g>
</g>
<!-- Node47&#45;&gt;Node48 -->
<g id="edge183_Node000047_Node000048" class="edge">
<title>Node47&#45;&gt;Node48</title>
<g id="a_edge183_Node000047_Node000048"><a xlink:title=" ">
<path fill="none" stroke="#63b8ff" d="M278.47,-52.62C302.59,-52.62 328.99,-52.62 351.3,-52.62"/>
<polygon fill="#63b8ff" stroke="#63b8ff" points="278.73,-49.13 268.73,-52.63 278.73,-56.13 278.73,-49.13"/>
</a>
</g>
</g>
</g>
</svg>
