<?xml version="1.0" encoding="UTF-8" standalone="no"?>
<!DOCTYPE svg PUBLIC "-//W3C//DTD SVG 1.1//EN"
 "http://www.w3.org/Graphics/SVG/1.1/DTD/svg11.dtd">
<!-- Generated by graphviz version 12.2.1 (20241206.2353)
 -->
<!-- Title: Graphical Class Hierarchy Pages: 1 -->
<svg width="513pt" height="147pt"
 viewBox="0.00 0.00 512.75 147.12" xmlns="http://www.w3.org/2000/svg" xmlns:xlink="http://www.w3.org/1999/xlink">
<g id="graph0" class="graph" transform="scale(1 1) rotate(0) translate(4 143.12)">
<title>Graphical Class Hierarchy</title>
<!-- Node0 -->
<g id="Node000000" class="node">
<title>Node0</title>
<g id="a_Node000000"><a xlink:href="classzml_1_1detail_1_1_component_op_generic_adaptor_base.html" target="_top" xlink:title=" ">
<polygon fill="white" stroke="#666666" points="130,-79.5 0,-79.5 0,-49 130,-49 130,-79.5"/>
<text text-anchor="start" x="8" y="-66" font-family="Helvetica,sans-Serif" font-size="10.00">zml::detail::ComponentOp</text>
<text text-anchor="middle" x="65" y="-54.75" font-family="Helvetica,sans-Serif" font-size="10.00">GenericAdaptorBase</text>
</a>
</g>
</g>
<!-- Node1 -->
<g id="Node000001" class="node">
<title>Node1</title>
<g id="a_Node000001"><a xlink:href="classzml_1_1_component_op_generic_adaptor.html" target="_top" xlink:title=" ">
<polygon fill="white" stroke="#666666" points="334.25,-139.12 166,-139.12 166,-97.38 334.25,-97.38 334.25,-139.12"/>
<text text-anchor="start" x="174" y="-125.62" font-family="Helvetica,sans-Serif" font-size="10.00">zml::ComponentOpGenericAdaptor</text>
<text text-anchor="start" x="174" y="-114.38" font-family="Helvetica,sans-Serif" font-size="10.00">&lt;::llvm::ArrayRef&lt;::mlir::</text>
<text text-anchor="middle" x="250.12" y="-103.12" font-family="Helvetica,sans-Serif" font-size="10.00">Attribute &gt; &gt;</text>
</a>
</g>
</g>
<!-- Node0&#45;&gt;Node1 -->
<g id="edge205_Node000000_Node000001" class="edge">
<title>Node0&#45;&gt;Node1</title>
<g id="a_edge205_Node000000_Node000001"><a xlink:title=" ">
<path fill="none" stroke="#63b8ff" d="M129.8,-83.06C145,-87.55 161.32,-92.36 176.86,-96.94"/>
<polygon fill="#63b8ff" stroke="#63b8ff" points="131,-79.77 120.42,-80.3 129.02,-86.48 131,-79.77"/>
</a>
</g>
</g>
<!-- Node2 -->
<g id="Node000002" class="node">
<title>Node2</title>
<g id="a_Node000002"><a xlink:href="classzml_1_1_component_op_generic_adaptor.html" target="_top" xlink:title=" ">
<polygon fill="white" stroke="#666666" points="334.25,-79.5 166,-79.5 166,-49 334.25,-49 334.25,-79.5"/>
<text text-anchor="start" x="174" y="-66" font-family="Helvetica,sans-Serif" font-size="10.00">zml::ComponentOpGenericAdaptor</text>
<text text-anchor="middle" x="250.12" y="-54.75" font-family="Helvetica,sans-Serif" font-size="10.00">&lt;::mlir::ValueRange &gt;</text>
</a>
</g>
</g>
<!-- Node0&#45;&gt;Node2 -->
<g id="edge206_Node000000_Node000002" class="edge">
<title>Node0&#45;&gt;Node2</title>
<g id="a_edge206_Node000000_Node000002"><a xlink:title=" ">
<path fill="none" stroke="#63b8ff" d="M141.74,-64.25C149.64,-64.25 157.71,-64.25 165.69,-64.25"/>
<polygon fill="#63b8ff" stroke="#63b8ff" points="141.82,-60.75 131.82,-64.25 141.82,-67.75 141.82,-60.75"/>
</a>
</g>
</g>
<!-- Node4 -->
<g id="Node000004" class="node">
<title>Node4</title>
<g id="a_Node000004"><a xlink:href="classzml_1_1_component_op_generic_adaptor.html" target="_top" xlink:title=" ">
<polygon fill="white" stroke="#666666" points="334.25,-30.5 166,-30.5 166,0 334.25,0 334.25,-30.5"/>
<text text-anchor="start" x="174" y="-17" font-family="Helvetica,sans-Serif" font-size="10.00">zml::ComponentOpGenericAdaptor</text>
<text text-anchor="middle" x="250.12" y="-5.75" font-family="Helvetica,sans-Serif" font-size="10.00">&lt; RangeT &gt;</text>
</a>
</g>
</g>
<!-- Node0&#45;&gt;Node4 -->
<g id="edge208_Node000000_Node000004" class="edge">
<title>Node0&#45;&gt;Node4</title>
<g id="a_edge208_Node000000_Node000004"><a xlink:title=" ">
<path fill="none" stroke="#63b8ff" d="M135.75,-45.59C153.79,-40.76 173.03,-35.61 190.45,-30.95"/>
<polygon fill="#63b8ff" stroke="#63b8ff" points="134.92,-42.19 126.16,-48.15 136.72,-48.95 134.92,-42.19"/>
</a>
</g>
</g>
<!-- Node3 -->
<g id="Node000003" class="node">
<title>Node3</title>
<g id="a_Node000003"><a xlink:href="classzml_1_1_component_op_adaptor.html" target="_top" xlink:title=" ">
<polygon fill="white" stroke="#666666" points="504.75,-73.88 370.25,-73.88 370.25,-54.62 504.75,-54.62 504.75,-73.88"/>
<text text-anchor="middle" x="437.5" y="-60.38" font-family="Helvetica,sans-Serif" font-size="10.00">zml::ComponentOpAdaptor</text>
</a>
</g>
</g>
<!-- Node2&#45;&gt;Node3 -->
<g id="edge207_Node000002_Node000003" class="edge">
<title>Node2&#45;&gt;Node3</title>
<g id="a_edge207_Node000002_Node000003"><a xlink:title=" ">
<path fill="none" stroke="#63b8ff" d="M345.99,-64.25C354.06,-64.25 362.1,-64.25 369.88,-64.25"/>
<polygon fill="#63b8ff" stroke="#63b8ff" points="346.11,-60.75 336.11,-64.25 346.11,-67.75 346.11,-60.75"/>
</a>
</g>
</g>
</g>
</svg>
