<?xml version="1.0" encoding="UTF-8" standalone="no"?>
<!DOCTYPE svg PUBLIC "-//W3C//DTD SVG 1.1//EN"
 "http://www.w3.org/Graphics/SVG/1.1/DTD/svg11.dtd">
<!-- Generated by graphviz version 12.2.1 (20241206.2353)
 -->
<!-- Title: Graphical Class Hierarchy Pages: 1 -->
<svg width="488pt" height="147pt"
 viewBox="0.00 0.00 488.00 147.12" xmlns="http://www.w3.org/2000/svg" xmlns:xlink="http://www.w3.org/1999/xlink">
<g id="graph0" class="graph" transform="scale(1 1) rotate(0) translate(4 143.12)">
<title>Graphical Class Hierarchy</title>
<!-- Node0 -->
<g id="Node000000" class="node">
<title>Node0</title>
<g id="a_Node000000"><a xlink:href="classzml_1_1detail_1_1_constrain_op_generic_adaptor_base.html" target="_top" xlink:title=" ">
<polygon fill="white" stroke="#666666" points="121.75,-79.5 0,-79.5 0,-49 121.75,-49 121.75,-79.5"/>
<text text-anchor="start" x="8" y="-66" font-family="Helvetica,sans-Serif" font-size="10.00">zml::detail::ConstrainOp</text>
<text text-anchor="middle" x="60.88" y="-54.75" font-family="Helvetica,sans-Serif" font-size="10.00">GenericAdaptorBase</text>
</a>
</g>
</g>
<!-- Node1 -->
<g id="Node000001" class="node">
<title>Node1</title>
<g id="a_Node000001"><a xlink:href="classzml_1_1_constrain_op_generic_adaptor.html" target="_top" xlink:title=" ">
<polygon fill="white" stroke="#666666" points="317.75,-139.12 157.75,-139.12 157.75,-97.38 317.75,-97.38 317.75,-139.12"/>
<text text-anchor="start" x="165.75" y="-125.62" font-family="Helvetica,sans-Serif" font-size="10.00">zml::ConstrainOpGenericAdaptor</text>
<text text-anchor="start" x="165.75" y="-114.38" font-family="Helvetica,sans-Serif" font-size="10.00">&lt;::llvm::ArrayRef&lt;::mlir::</text>
<text text-anchor="middle" x="237.75" y="-103.12" font-family="Helvetica,sans-Serif" font-size="10.00">Attribute &gt; &gt;</text>
</a>
</g>
</g>
<!-- Node0&#45;&gt;Node1 -->
<g id="edge213_Node000000_Node000001" class="edge">
<title>Node0&#45;&gt;Node1</title>
<g id="a_edge213_Node000000_Node000001"><a xlink:title=" ">
<path fill="none" stroke="#63b8ff" d="M123.23,-83.2C137.62,-87.64 153.04,-92.4 167.74,-96.94"/>
<polygon fill="#63b8ff" stroke="#63b8ff" points="124.49,-79.92 113.9,-80.32 122.42,-86.61 124.49,-79.92"/>
</a>
</g>
</g>
<!-- Node2 -->
<g id="Node000002" class="node">
<title>Node2</title>
<g id="a_Node000002"><a xlink:href="classzml_1_1_constrain_op_generic_adaptor.html" target="_top" xlink:title=" ">
<polygon fill="white" stroke="#666666" points="317.75,-79.5 157.75,-79.5 157.75,-49 317.75,-49 317.75,-79.5"/>
<text text-anchor="start" x="165.75" y="-66" font-family="Helvetica,sans-Serif" font-size="10.00">zml::ConstrainOpGenericAdaptor</text>
<text text-anchor="middle" x="237.75" y="-54.75" font-family="Helvetica,sans-Serif" font-size="10.00">&lt;::mlir::ValueRange &gt;</text>
</a>
</g>
</g>
<!-- Node0&#45;&gt;Node2 -->
<g id="edge214_Node000000_Node000002" class="edge">
<title>Node0&#45;&gt;Node2</title>
<g id="a_edge214_Node000000_Node000002"><a xlink:title=" ">
<path fill="none" stroke="#63b8ff" d="M133.43,-64.25C141.3,-64.25 149.35,-64.25 157.31,-64.25"/>
<polygon fill="#63b8ff" stroke="#63b8ff" points="133.57,-60.75 123.57,-64.25 133.57,-67.75 133.57,-60.75"/>
</a>
</g>
</g>
<!-- Node4 -->
<g id="Node000004" class="node">
<title>Node4</title>
<g id="a_Node000004"><a xlink:href="classzml_1_1_constrain_op_generic_adaptor.html" target="_top" xlink:title=" ">
<polygon fill="white" stroke="#666666" points="317.75,-30.5 157.75,-30.5 157.75,0 317.75,0 317.75,-30.5"/>
<text text-anchor="start" x="165.75" y="-17" font-family="Helvetica,sans-Serif" font-size="10.00">zml::ConstrainOpGenericAdaptor</text>
<text text-anchor="middle" x="237.75" y="-5.75" font-family="Helvetica,sans-Serif" font-size="10.00">&lt; RangeT &gt;</text>
</a>
</g>
</g>
<!-- Node0&#45;&gt;Node4 -->
<g id="edge216_Node000000_Node000004" class="edge">
<title>Node0&#45;&gt;Node4</title>
<g id="a_edge216_Node000000_Node000004"><a xlink:title=" ">
<path fill="none" stroke="#63b8ff" d="M128.74,-45.52C145.84,-40.72 164.06,-35.62 180.57,-30.99"/>
<polygon fill="#63b8ff" stroke="#63b8ff" points="127.83,-42.13 119.14,-48.2 129.72,-48.88 127.83,-42.13"/>
</a>
</g>
</g>
<!-- Node3 -->
<g id="Node000003" class="node">
<title>Node3</title>
<g id="a_Node000003"><a xlink:href="classzml_1_1_constrain_op_adaptor.html" target="_top" xlink:title=" ">
<polygon fill="white" stroke="#666666" points="480,-73.88 353.75,-73.88 353.75,-54.62 480,-54.62 480,-73.88"/>
<text text-anchor="middle" x="416.88" y="-60.38" font-family="Helvetica,sans-Serif" font-size="10.00">zml::ConstrainOpAdaptor</text>
</a>
</g>
</g>
<!-- Node2&#45;&gt;Node3 -->
<g id="edge215_Node000002_Node000003" class="edge">
<title>Node2&#45;&gt;Node3</title>
<g id="a_edge215_Node000002_Node000003"><a xlink:title=" ">
<path fill="none" stroke="#63b8ff" d="M329.6,-64.25C337.63,-64.25 345.64,-64.25 353.37,-64.25"/>
<polygon fill="#63b8ff" stroke="#63b8ff" points="329.76,-60.75 319.76,-64.25 329.76,-67.75 329.76,-60.75"/>
</a>
</g>
</g>
</g>
</svg>
