<?xml version="1.0" encoding="UTF-8" standalone="no"?>
<!DOCTYPE svg PUBLIC "-//W3C//DTD SVG 1.1//EN"
 "http://www.w3.org/Graphics/SVG/1.1/DTD/svg11.dtd">
<!-- Generated by graphviz version 12.2.1 (20241206.2353)
 -->
<!-- Title: Graphical Class Hierarchy Pages: 1 -->
<svg width="466pt" height="137pt"
 viewBox="0.00 0.00 465.50 136.50" xmlns="http://www.w3.org/2000/svg" xmlns:xlink="http://www.w3.org/1999/xlink">
<g id="graph0" class="graph" transform="scale(1 1) rotate(0) translate(4 132.5)">
<title>Graphical Class Hierarchy</title>
<!-- Node0 -->
<g id="Node000000" class="node">
<title>Node0</title>
<g id="a_Node000000"><a xlink:title=" ">
<polygon fill="#e0e0e0" stroke="#999999" points="94.75,-79.5 0,-79.5 0,-49 94.75,-49 94.75,-79.5"/>
<text text-anchor="start" x="8" y="-66" font-family="Helvetica,sans-Serif" font-size="10.00">mlir::OpInterface::</text>
<text text-anchor="middle" x="47.38" y="-54.75" font-family="Helvetica,sans-Serif" font-size="10.00">Trait</text>
</a>
</g>
</g>
<!-- Node1 -->
<g id="Node000001" class="node">
<title>Node1</title>
<g id="a_Node000001"><a xlink:href="structzml_1_1detail_1_1_component_interface_trait.html" target="_top" xlink:title=" ">
<polygon fill="white" stroke="#666666" points="286.25,-128.5 130.75,-128.5 130.75,-98 286.25,-98 286.25,-128.5"/>
<text text-anchor="start" x="138.75" y="-115" font-family="Helvetica,sans-Serif" font-size="10.00">zml::detail::ComponentInterface</text>
<text text-anchor="middle" x="208.5" y="-103.75" font-family="Helvetica,sans-Serif" font-size="10.00">Trait&lt; ConcreteOp &gt;</text>
</a>
</g>
</g>
<!-- Node0&#45;&gt;Node1 -->
<g id="edge77_Node000000_Node000001" class="edge">
<title>Node0&#45;&gt;Node1</title>
<g id="a_edge77_Node000000_Node000001"><a xlink:title=" ">
<path fill="none" stroke="#63b8ff" d="M105.54,-81.85C122.2,-86.98 140.28,-92.55 156.53,-97.56"/>
<polygon fill="#63b8ff" stroke="#63b8ff" points="106.86,-78.6 96.27,-79 104.8,-85.29 106.86,-78.6"/>
</a>
</g>
</g>
<!-- Node3 -->
<g id="Node000003" class="node">
<title>Node3</title>
<g id="a_Node000003"><a xlink:href="structzml_1_1detail_1_1_defines_body_func_trait.html" target="_top" xlink:title=" ">
<polygon fill="white" stroke="#666666" points="272.38,-79.5 144.62,-79.5 144.62,-49 272.38,-49 272.38,-79.5"/>
<text text-anchor="start" x="152.62" y="-66" font-family="Helvetica,sans-Serif" font-size="10.00">zml::detail::DefinesBody</text>
<text text-anchor="middle" x="208.5" y="-54.75" font-family="Helvetica,sans-Serif" font-size="10.00">FuncTrait&lt; ConcreteOp &gt;</text>
</a>
</g>
</g>
<!-- Node0&#45;&gt;Node3 -->
<g id="edge79_Node000000_Node000003" class="edge">
<title>Node0&#45;&gt;Node3</title>
<g id="a_edge79_Node000000_Node000003"><a xlink:title=" ">
<path fill="none" stroke="#63b8ff" d="M106.34,-64.25C118.62,-64.25 131.66,-64.25 144.13,-64.25"/>
<polygon fill="#63b8ff" stroke="#63b8ff" points="106.34,-60.75 96.34,-64.25 106.34,-67.75 106.34,-60.75"/>
</a>
</g>
</g>
<!-- Node5 -->
<g id="Node000005" class="node">
<title>Node5</title>
<g id="a_Node000005"><a xlink:href="structzml_1_1detail_1_1_defines_constrain_func_trait.html" target="_top" xlink:title=" ">
<polygon fill="white" stroke="#666666" points="279.88,-30.5 137.12,-30.5 137.12,0 279.88,0 279.88,-30.5"/>
<text text-anchor="start" x="145.12" y="-17" font-family="Helvetica,sans-Serif" font-size="10.00">zml::detail::DefinesConstrain</text>
<text text-anchor="middle" x="208.5" y="-5.75" font-family="Helvetica,sans-Serif" font-size="10.00">FuncTrait&lt; ConcreteOp &gt;</text>
</a>
</g>
</g>
<!-- Node0&#45;&gt;Node5 -->
<g id="edge81_Node000000_Node000005" class="edge">
<title>Node0&#45;&gt;Node5</title>
<g id="a_edge81_Node000000_Node000005"><a xlink:title=" ">
<path fill="none" stroke="#63b8ff" d="M105.54,-46.65C122.2,-41.52 140.28,-35.95 156.53,-30.94"/>
<polygon fill="#63b8ff" stroke="#63b8ff" points="104.8,-43.21 96.27,-49.5 106.86,-49.9 104.8,-43.21"/>
</a>
</g>
</g>
<!-- Node2 -->
<g id="Node000002" class="node">
<title>Node2</title>
<g id="a_Node000002"><a xlink:href="structzml_1_1_component_interface_1_1_trait.html" target="_top" xlink:title=" ">
<polygon fill="white" stroke="#666666" points="453,-128.5 326.75,-128.5 326.75,-98 453,-98 453,-128.5"/>
<text text-anchor="start" x="334.75" y="-115" font-family="Helvetica,sans-Serif" font-size="10.00">zml::ComponentInterface</text>
<text text-anchor="middle" x="389.88" y="-103.75" font-family="Helvetica,sans-Serif" font-size="10.00">::Trait&lt; ConcreteOp &gt;</text>
</a>
</g>
</g>
<!-- Node1&#45;&gt;Node2 -->
<g id="edge78_Node000001_Node000002" class="edge">
<title>Node1&#45;&gt;Node2</title>
<g id="a_edge78_Node000001_Node000002"><a xlink:title=" ">
<path fill="none" stroke="#63b8ff" d="M297.89,-113.25C307.53,-113.25 317.19,-113.25 326.42,-113.25"/>
<polygon fill="#63b8ff" stroke="#63b8ff" points="298.13,-109.75 288.13,-113.25 298.13,-116.75 298.13,-109.75"/>
</a>
</g>
</g>
<!-- Node4 -->
<g id="Node000004" class="node">
<title>Node4</title>
<g id="a_Node000004"><a xlink:href="structzml_1_1_defines_body_func_1_1_trait.html" target="_top" xlink:title=" ">
<polygon fill="white" stroke="#666666" points="447.75,-79.5 332,-79.5 332,-49 447.75,-49 447.75,-79.5"/>
<text text-anchor="start" x="340" y="-66" font-family="Helvetica,sans-Serif" font-size="10.00">zml::DefinesBodyFunc</text>
<text text-anchor="middle" x="389.88" y="-54.75" font-family="Helvetica,sans-Serif" font-size="10.00">::Trait&lt; ConcreteOp &gt;</text>
</a>
</g>
</g>
<!-- Node3&#45;&gt;Node4 -->
<g id="edge80_Node000003_Node000004" class="edge">
<title>Node3&#45;&gt;Node4</title>
<g id="a_edge80_Node000003_Node000004"><a xlink:title=" ">
<path fill="none" stroke="#63b8ff" d="M284.14,-64.25C300,-64.25 316.5,-64.25 331.59,-64.25"/>
<polygon fill="#63b8ff" stroke="#63b8ff" points="284.25,-60.75 274.25,-64.25 284.25,-67.75 284.25,-60.75"/>
</a>
</g>
</g>
<!-- Node6 -->
<g id="Node000006" class="node">
<title>Node6</title>
<g id="a_Node000006"><a xlink:href="structzml_1_1_defines_constrain_func_1_1_trait.html" target="_top" xlink:title=" ">
<polygon fill="white" stroke="#666666" points="457.5,-30.5 322.25,-30.5 322.25,0 457.5,0 457.5,-30.5"/>
<text text-anchor="start" x="330.25" y="-17" font-family="Helvetica,sans-Serif" font-size="10.00">zml::DefinesConstrainFunc</text>
<text text-anchor="middle" x="389.88" y="-5.75" font-family="Helvetica,sans-Serif" font-size="10.00">::Trait&lt; ConcreteOp &gt;</text>
</a>
</g>
</g>
<!-- Node5&#45;&gt;Node6 -->
<g id="edge82_Node000005_Node000006" class="edge">
<title>Node5&#45;&gt;Node6</title>
<g id="a_edge82_Node000005_Node000006"><a xlink:title=" ">
<path fill="none" stroke="#63b8ff" d="M291.51,-15.25C301.65,-15.25 311.93,-15.25 321.82,-15.25"/>
<polygon fill="#63b8ff" stroke="#63b8ff" points="291.65,-11.75 281.65,-15.25 291.65,-18.75 291.65,-11.75"/>
</a>
</g>
</g>
</g>
</svg>
