<?xml version="1.0" encoding="UTF-8" standalone="no"?>
<!DOCTYPE svg PUBLIC "-//W3C//DTD SVG 1.1//EN"
 "http://www.w3.org/Graphics/SVG/1.1/DTD/svg11.dtd">
<!-- Generated by graphviz version 12.2.1 (20241206.2353)
 -->
<!-- Title: Graphical Class Hierarchy Pages: 1 -->
<svg width="395pt" height="83pt"
 viewBox="0.00 0.00 395.00 83.25" xmlns="http://www.w3.org/2000/svg" xmlns:xlink="http://www.w3.org/1999/xlink">
<g id="graph0" class="graph" transform="scale(1 1) rotate(0) translate(4 79.25)">
<title>Graphical Class Hierarchy</title>
<!-- Node0 -->
<g id="Node000000" class="node">
<title>Node0</title>
<g id="a_Node000000"><a xlink:href="classzhl_1_1_lexical_scope_impl.html" target="_top" xlink:title="Mixin that implements the logic for defining members.">
<polygon fill="white" stroke="#666666" points="112,-74.25 0,-74.25 0,-55 112,-55 112,-74.25"/>
<text text-anchor="middle" x="56" y="-60.75" font-family="Helvetica,sans-Serif" font-size="10.00">zhl::LexicalScopeImpl</text>
</a>
</g>
</g>
<!-- Node1 -->
<g id="Node000001" class="node">
<title>Node1</title>
<g id="a_Node000001"><a xlink:href="classzhl_1_1_block_scope.html" target="_top" xlink:title="Enters a new lexical scope where members can also be defined.">
<polygon fill="white" stroke="#666666" points="385.5,-75.25 298.25,-75.25 298.25,-56 385.5,-56 385.5,-75.25"/>
<text text-anchor="middle" x="341.88" y="-61.75" font-family="Helvetica,sans-Serif" font-size="10.00">zhl::BlockScope</text>
</a>
</g>
</g>
<!-- Node0&#45;&gt;Node1 -->
<g id="edge123_Node000000_Node000001" class="edge">
<title>Node0&#45;&gt;Node1</title>
<g id="a_edge123_Node000000_Node000001"><a xlink:title=" ">
<path fill="none" stroke="#8b1a1a" d="M123.79,-65.44C131.94,-65.52 140.16,-65.58 148,-65.62 199.57,-65.91 258.89,-65.85 297.98,-65.76"/>
<polygon fill="#8b1a1a" stroke="#8b1a1a" points="123.89,-61.94 113.85,-65.35 123.82,-68.94 123.89,-61.94"/>
</a>
</g>
</g>
<!-- Node5 -->
<g id="Node000005" class="node">
<title>Node5</title>
<g id="a_Node000005"><a xlink:href="classzhl_1_1_component_scope.html" target="_top" xlink:title=" ">
<polygon fill="white" stroke="#666666" points="260.75,-56.25 148,-56.25 148,-37 260.75,-37 260.75,-56.25"/>
<text text-anchor="middle" x="204.38" y="-42.75" font-family="Helvetica,sans-Serif" font-size="10.00">zhl::ComponentScope</text>
</a>
</g>
</g>
<!-- Node0&#45;&gt;Node5 -->
<g id="edge124_Node000000_Node000005" class="edge">
<title>Node0&#45;&gt;Node5</title>
<g id="a_edge124_Node000000_Node000005"><a xlink:title=" ">
<path fill="none" stroke="#8b1a1a" d="M123.7,-56.42C131.81,-55.43 140.03,-54.41 147.96,-53.44"/>
<polygon fill="#8b1a1a" stroke="#8b1a1a" points="123.34,-52.94 113.84,-57.64 124.19,-59.89 123.34,-52.94"/>
</a>
</g>
</g>
<!-- Node4 -->
<g id="Node000004" class="node">
<title>Node4</title>
<g id="a_Node000004"><a xlink:href="classzhl_1_1_scope.html" target="_top" xlink:title=" ">
<polygon fill="white" stroke="#666666" points="87.25,-37.25 24.75,-37.25 24.75,-18 87.25,-18 87.25,-37.25"/>
<text text-anchor="middle" x="56" y="-23.75" font-family="Helvetica,sans-Serif" font-size="10.00">zhl::Scope</text>
</a>
</g>
</g>
<!-- Node4&#45;&gt;Node5 -->
<g id="edge128_Node000004_Node000005" class="edge">
<title>Node4&#45;&gt;Node5</title>
<g id="a_edge128_Node000004_Node000005"><a xlink:title=" ">
<path fill="none" stroke="#63b8ff" d="M98.81,-33.05C113.99,-35.02 131.4,-37.28 147.6,-39.39"/>
<polygon fill="#63b8ff" stroke="#63b8ff" points="99.55,-29.62 89.19,-31.8 98.65,-36.56 99.55,-29.62"/>
</a>
</g>
</g>
<!-- Node2 -->
<g id="Node000002" class="node">
<title>Node2</title>
<g id="a_Node000002"><a xlink:href="classzhl_1_1_child_scope.html" target="_top" xlink:title="A scope that exists inside another.">
<polygon fill="white" stroke="#666666" points="246.88,-19.25 161.88,-19.25 161.88,0 246.88,0 246.88,-19.25"/>
<text text-anchor="middle" x="204.38" y="-5.75" font-family="Helvetica,sans-Serif" font-size="10.00">zhl::ChildScope</text>
</a>
</g>
</g>
<!-- Node4&#45;&gt;Node2 -->
<g id="edge125_Node000004_Node000002" class="edge">
<title>Node4&#45;&gt;Node2</title>
<g id="a_edge125_Node000004_Node000002"><a xlink:title=" ">
<path fill="none" stroke="#63b8ff" d="M99.07,-22.45C118.71,-20.04 142.03,-17.17 161.63,-14.76"/>
<polygon fill="#63b8ff" stroke="#63b8ff" points="98.69,-18.97 89.19,-23.67 99.54,-25.92 98.69,-18.97"/>
</a>
</g>
</g>
<!-- Node2&#45;&gt;Node1 -->
<g id="edge126_Node000002_Node000001" class="edge">
<title>Node2&#45;&gt;Node1</title>
<g id="a_edge126_Node000002_Node000001"><a xlink:title=" ">
<path fill="none" stroke="#63b8ff" d="M249.49,-23.39C253.32,-24.76 257.12,-26.18 260.75,-27.62 281.92,-36.05 305.39,-47.43 321.43,-55.54"/>
<polygon fill="#63b8ff" stroke="#63b8ff" points="250.74,-20.12 240.14,-20.18 248.46,-26.74 250.74,-20.12"/>
</a>
</g>
</g>
<!-- Node3 -->
<g id="Node000003" class="node">
<title>Node3</title>
<g id="a_Node000003"><a xlink:href="classzhl_1_1_frame_scope.html" target="_top" xlink:title="A scope that allocates a new memory frame.">
<polygon fill="white" stroke="#666666" points="387,-19.25 296.75,-19.25 296.75,0 387,0 387,-19.25"/>
<text text-anchor="middle" x="341.88" y="-5.75" font-family="Helvetica,sans-Serif" font-size="10.00">zhl::FrameScope</text>
</a>
</g>
</g>
<!-- Node2&#45;&gt;Node3 -->
<g id="edge127_Node000002_Node000003" class="edge">
<title>Node2&#45;&gt;Node3</title>
<g id="a_edge127_Node000002_Node000003"><a xlink:title=" ">
<path fill="none" stroke="#63b8ff" d="M258.49,-9.62C271.13,-9.62 284.48,-9.62 296.67,-9.62"/>
<polygon fill="#63b8ff" stroke="#63b8ff" points="258.65,-6.13 248.65,-9.63 258.65,-13.13 258.65,-6.13"/>
</a>
</g>
</g>
</g>
</svg>
