<?xml version="1.0" encoding="UTF-8" standalone="no"?>
<!DOCTYPE svg PUBLIC "-//W3C//DTD SVG 1.1//EN"
 "http://www.w3.org/Graphics/SVG/1.1/DTD/svg11.dtd">
<!-- Generated by graphviz version 12.2.1 (20241206.2353)
 -->
<!-- Title: Graphical Class Hierarchy Pages: 1 -->
<svg width="332pt" height="941pt"
 viewBox="0.00 0.00 331.75 941.12" xmlns="http://www.w3.org/2000/svg" xmlns:xlink="http://www.w3.org/1999/xlink">
<g id="graph0" class="graph" transform="scale(1 1) rotate(0) translate(4 937.12)">
<title>Graphical Class Hierarchy</title>
<!-- Node0 -->
<g id="Node000000" class="node">
<title>Node0</title>
<g id="a_Node000000"><a xlink:title=" ">
<polygon fill="#e0e0e0" stroke="#999999" points="109.75,-486.5 0,-486.5 0,-467.25 109.75,-467.25 109.75,-486.5"/>
<text text-anchor="middle" x="54.88" y="-473" font-family="Helvetica,sans-Serif" font-size="10.00">OpConversionPattern</text>
</a>
</g>
</g>
<!-- Node1 -->
<g id="Node000001" class="node">
<title>Node1</title>
<g id="a_Node000001"><a xlink:href="classzml_1_1_remove_built_in.html" target="_top" xlink:title=" ">
<polygon fill="white" stroke="#666666" points="299,-933.12 170.5,-933.12 170.5,-902.62 299,-902.62 299,-933.12"/>
<text text-anchor="start" x="178.5" y="-919.62" font-family="Helvetica,sans-Serif" font-size="10.00">zml::RemoveBuiltIn</text>
<text text-anchor="middle" x="234.75" y="-908.38" font-family="Helvetica,sans-Serif" font-size="10.00">&lt; ValStr, ComponentOp &gt;</text>
</a>
</g>
</g>
<!-- Node0&#45;&gt;Node1 -->
<g id="edge92_Node000000_Node000001" class="edge">
<title>Node0&#45;&gt;Node1</title>
<g id="a_edge92_Node000000_Node000001"><a xlink:title=" ">
<path fill="none" stroke="#63b8ff" d="M57.64,-498.38C64.36,-575.15 90.8,-834.29 145.75,-892.88 152.49,-900.06 161.12,-905.23 170.34,-908.94"/>
<polygon fill="#63b8ff" stroke="#63b8ff" points="61.13,-498.13 56.8,-488.47 54.16,-498.73 61.13,-498.13"/>
</a>
</g>
</g>
<!-- Node2 -->
<g id="Node000002" class="node">
<title>Node2</title>
<g id="a_Node000002"><a xlink:href="classzml_1_1_remove_built_in.html" target="_top" xlink:title=" ">
<polygon fill="white" stroke="#666666" points="306.5,-884.12 163,-884.12 163,-853.62 306.5,-853.62 306.5,-884.12"/>
<text text-anchor="start" x="171" y="-870.62" font-family="Helvetica,sans-Serif" font-size="10.00">zml::RemoveBuiltIn</text>
<text text-anchor="middle" x="234.75" y="-859.38" font-family="Helvetica,sans-Serif" font-size="10.00">&lt; ExtValStr, ComponentOp &gt;</text>
</a>
</g>
</g>
<!-- Node0&#45;&gt;Node2 -->
<g id="edge93_Node000000_Node000002" class="edge">
<title>Node0&#45;&gt;Node2</title>
<g id="a_edge93_Node000000_Node000002"><a xlink:title=" ">
<path fill="none" stroke="#63b8ff" d="M58.27,-498.08C66.65,-568.52 96.78,-793.08 145.75,-843.88 150.6,-848.91 156.38,-852.95 162.63,-856.19"/>
<polygon fill="#63b8ff" stroke="#63b8ff" points="61.77,-497.83 57.14,-488.31 54.81,-498.64 61.77,-497.83"/>
</a>
</g>
</g>
<!-- Node3 -->
<g id="Node000003" class="node">
<title>Node3</title>
<g id="a_Node000003"><a xlink:href="classzml_1_1_remove_built_in.html" target="_top" xlink:title=" ">
<polygon fill="white" stroke="#666666" points="298.62,-835.12 170.88,-835.12 170.88,-804.62 298.62,-804.62 298.62,-835.12"/>
<text text-anchor="start" x="178.88" y="-821.62" font-family="Helvetica,sans-Serif" font-size="10.00">zml::RemoveBuiltIn</text>
<text text-anchor="middle" x="234.75" y="-810.38" font-family="Helvetica,sans-Serif" font-size="10.00">&lt; StrStr, ComponentOp &gt;</text>
</a>
</g>
</g>
<!-- Node0&#45;&gt;Node3 -->
<g id="edge94_Node000000_Node000003" class="edge">
<title>Node0&#45;&gt;Node3</title>
<g id="a_edge94_Node000000_Node000003"><a xlink:title=" ">
<path fill="none" stroke="#63b8ff" d="M55.27,-498.23C54.87,-554.96 61.88,-710.89 145.75,-794.88 152.71,-801.84 161.46,-806.9 170.72,-810.57"/>
<polygon fill="#63b8ff" stroke="#63b8ff" points="58.77,-498.42 55.44,-488.37 51.77,-498.3 58.77,-498.42"/>
</a>
</g>
</g>
<!-- Node4 -->
<g id="Node000004" class="node">
<title>Node4</title>
<g id="a_Node000004"><a xlink:href="classzml_1_1_remove_built_in.html" target="_top" xlink:title=" ">
<polygon fill="white" stroke="#666666" points="317.38,-786.12 152.12,-786.12 152.12,-755.62 317.38,-755.62 317.38,-786.12"/>
<text text-anchor="start" x="160.12" y="-772.62" font-family="Helvetica,sans-Serif" font-size="10.00">zml::RemoveBuiltIn</text>
<text text-anchor="middle" x="234.75" y="-761.38" font-family="Helvetica,sans-Serif" font-size="10.00">&lt; ComponentStr, ComponentOp &gt;</text>
</a>
</g>
</g>
<!-- Node0&#45;&gt;Node4 -->
<g id="edge95_Node000000_Node000004" class="edge">
<title>Node0&#45;&gt;Node4</title>
<g id="a_edge95_Node000000_Node000004"><a xlink:title=" ">
<path fill="none" stroke="#63b8ff" d="M56.57,-498.27C59.4,-548.92 73.7,-677.04 145.75,-745.88 149.54,-749.5 153.81,-752.6 158.39,-755.26"/>
<polygon fill="#63b8ff" stroke="#63b8ff" points="60.07,-498.24 56.13,-488.41 53.08,-498.56 60.07,-498.24"/>
</a>
</g>
</g>
<!-- Node5 -->
<g id="Node000005" class="node">
<title>Node5</title>
<g id="a_Node000005"><a xlink:href="classzml_1_1_remove_built_in.html" target="_top" xlink:title=" ">
<polygon fill="white" stroke="#666666" points="303.5,-737.12 166,-737.12 166,-706.62 303.5,-706.62 303.5,-737.12"/>
<text text-anchor="start" x="174" y="-723.62" font-family="Helvetica,sans-Serif" font-size="10.00">zml::RemoveBuiltIn</text>
<text text-anchor="middle" x="234.75" y="-712.38" font-family="Helvetica,sans-Serif" font-size="10.00">&lt; ArrayStr, ComponentOp &gt;</text>
</a>
</g>
</g>
<!-- Node0&#45;&gt;Node5 -->
<g id="edge96_Node000000_Node000005" class="edge">
<title>Node0&#45;&gt;Node5</title>
<g id="a_edge96_Node000000_Node000005"><a xlink:title=" ">
<path fill="none" stroke="#63b8ff" d="M58.38,-498.18C64.69,-542.03 85.3,-642.79 145.75,-696.88 151.55,-702.06 158.35,-706.18 165.56,-709.45"/>
<polygon fill="#63b8ff" stroke="#63b8ff" points="61.88,-497.92 57.1,-488.46 54.94,-498.83 61.88,-497.92"/>
</a>
</g>
</g>
<!-- Node6 -->
<g id="Node000006" class="node">
<title>Node6</title>
<g id="a_Node000006"><a xlink:href="classzml_1_1_replace_constructor_call_with_built_in.html" target="_top" xlink:title=" ">
<polygon fill="white" stroke="#666666" points="320.75,-688.12 148.75,-688.12 148.75,-657.62 320.75,-657.62 320.75,-688.12"/>
<text text-anchor="start" x="156.75" y="-674.62" font-family="Helvetica,sans-Serif" font-size="10.00">zml::ReplaceConstructorCall</text>
<text text-anchor="middle" x="234.75" y="-663.38" font-family="Helvetica,sans-Serif" font-size="10.00">WithBuiltIn&lt; BitAndOp, BitAndStr &gt;</text>
</a>
</g>
</g>
<!-- Node0&#45;&gt;Node6 -->
<g id="edge97_Node000000_Node000006" class="edge">
<title>Node0&#45;&gt;Node6</title>
<g id="a_edge97_Node000000_Node000006"><a xlink:title=" ">
<path fill="none" stroke="#63b8ff" d="M61.05,-497.82C71.07,-533.96 96.6,-607.98 145.75,-647.88 150.19,-651.48 155.12,-654.56 160.32,-657.2"/>
<polygon fill="#63b8ff" stroke="#63b8ff" points="64.45,-496.98 58.52,-488.2 57.68,-498.76 64.45,-496.98"/>
</a>
</g>
</g>
<!-- Node7 -->
<g id="Node000007" class="node">
<title>Node7</title>
<g id="a_Node000007"><a xlink:href="classzml_1_1_replace_constructor_call_with_built_in.html" target="_top" xlink:title=" ">
<polygon fill="white" stroke="#666666" points="308,-639.12 161.5,-639.12 161.5,-608.62 308,-608.62 308,-639.12"/>
<text text-anchor="start" x="169.5" y="-625.62" font-family="Helvetica,sans-Serif" font-size="10.00">zml::ReplaceConstructorCall</text>
<text text-anchor="middle" x="234.75" y="-614.38" font-family="Helvetica,sans-Serif" font-size="10.00">WithBuiltIn&lt; AddOp, AddStr &gt;</text>
</a>
</g>
</g>
<!-- Node0&#45;&gt;Node7 -->
<g id="edge98_Node000000_Node000007" class="edge">
<title>Node0&#45;&gt;Node7</title>
<g id="a_edge98_Node000000_Node000007"><a xlink:title=" ">
<path fill="none" stroke="#63b8ff" d="M65.4,-497.09C79.25,-524.31 107.54,-572.38 145.75,-598.88 150.97,-602.5 156.71,-605.59 162.67,-608.25"/>
<polygon fill="#63b8ff" stroke="#63b8ff" points="68.57,-495.62 61.02,-488.19 62.29,-498.71 68.57,-495.62"/>
</a>
</g>
</g>
<!-- Node8 -->
<g id="Node000008" class="node">
<title>Node8</title>
<g id="a_Node000008"><a xlink:href="classzml_1_1_replace_constructor_call_with_built_in.html" target="_top" xlink:title=" ">
<polygon fill="white" stroke="#666666" points="308.75,-590.12 160.75,-590.12 160.75,-559.62 308.75,-559.62 308.75,-590.12"/>
<text text-anchor="start" x="168.75" y="-576.62" font-family="Helvetica,sans-Serif" font-size="10.00">zml::ReplaceConstructorCall</text>
<text text-anchor="middle" x="234.75" y="-565.38" font-family="Helvetica,sans-Serif" font-size="10.00">WithBuiltIn&lt; SubOp, SubStr &gt;</text>
</a>
</g>
</g>
<!-- Node0&#45;&gt;Node8 -->
<g id="edge99_Node000000_Node000008" class="edge">
<title>Node0&#45;&gt;Node8</title>
<g id="a_edge99_Node000000_Node000008"><a xlink:title=" ">
<path fill="none" stroke="#63b8ff" d="M73.34,-494.75C90.4,-511.25 117.8,-535.34 145.75,-549.88 152.51,-553.39 159.84,-556.47 167.27,-559.15"/>
<polygon fill="#63b8ff" stroke="#63b8ff" points="76.06,-492.52 66.49,-487.97 71.13,-497.49 76.06,-492.52"/>
</a>
</g>
</g>
<!-- Node9 -->
<g id="Node000009" class="node">
<title>Node9</title>
<g id="a_Node000009"><a xlink:href="classzml_1_1_replace_constructor_call_with_built_in.html" target="_top" xlink:title=" ">
<polygon fill="white" stroke="#666666" points="307.25,-541.12 162.25,-541.12 162.25,-510.62 307.25,-510.62 307.25,-541.12"/>
<text text-anchor="start" x="170.25" y="-527.62" font-family="Helvetica,sans-Serif" font-size="10.00">zml::ReplaceConstructorCall</text>
<text text-anchor="middle" x="234.75" y="-516.38" font-family="Helvetica,sans-Serif" font-size="10.00">WithBuiltIn&lt; MulOp, MulStr &gt;</text>
</a>
</g>
</g>
<!-- Node0&#45;&gt;Node9 -->
<g id="edge100_Node000000_Node000009" class="edge">
<title>Node0&#45;&gt;Node9</title>
<g id="a_edge100_Node000000_Node000009"><a xlink:title=" ">
<path fill="none" stroke="#63b8ff" d="M103.3,-489.94C125.87,-496.16 153.03,-503.64 176.71,-510.16"/>
<polygon fill="#63b8ff" stroke="#63b8ff" points="104.33,-486.59 93.76,-487.31 102.47,-493.34 104.33,-486.59"/>
</a>
</g>
</g>
<!-- Node10 -->
<g id="Node000010" class="node">
<title>Node10</title>
<g id="a_Node000010"><a xlink:href="classzml_1_1_replace_constructor_call_with_built_in.html" target="_top" xlink:title=" ">
<polygon fill="white" stroke="#666666" points="323.75,-492.12 145.75,-492.12 145.75,-461.62 323.75,-461.62 323.75,-492.12"/>
<text text-anchor="start" x="153.75" y="-478.62" font-family="Helvetica,sans-Serif" font-size="10.00">zml::ReplaceConstructorCall</text>
<text text-anchor="middle" x="234.75" y="-467.38" font-family="Helvetica,sans-Serif" font-size="10.00">WithBuiltIn&lt; ExtAddOp, ExtAddStr &gt;</text>
</a>
</g>
</g>
<!-- Node0&#45;&gt;Node10 -->
<g id="edge101_Node000000_Node000010" class="edge">
<title>Node0&#45;&gt;Node10</title>
<g id="a_edge101_Node000000_Node000010"><a xlink:title=" ">
<path fill="none" stroke="#63b8ff" d="M121.69,-476.88C129.4,-476.88 137.36,-476.88 145.32,-476.88"/>
<polygon fill="#63b8ff" stroke="#63b8ff" points="121.72,-473.38 111.72,-476.88 121.72,-480.38 121.72,-473.38"/>
</a>
</g>
</g>
<!-- Node11 -->
<g id="Node000011" class="node">
<title>Node11</title>
<g id="a_Node000011"><a xlink:href="classzml_1_1_replace_constructor_call_with_built_in.html" target="_top" xlink:title=" ">
<polygon fill="white" stroke="#666666" points="323.75,-443.12 145.75,-443.12 145.75,-412.62 323.75,-412.62 323.75,-443.12"/>
<text text-anchor="start" x="153.75" y="-429.62" font-family="Helvetica,sans-Serif" font-size="10.00">zml::ReplaceConstructorCall</text>
<text text-anchor="middle" x="234.75" y="-418.38" font-family="Helvetica,sans-Serif" font-size="10.00">WithBuiltIn&lt; ExtSubOp, ExtSubStr &gt;</text>
</a>
</g>
</g>
<!-- Node0&#45;&gt;Node11 -->
<g id="edge102_Node000000_Node000011" class="edge">
<title>Node0&#45;&gt;Node11</title>
<g id="a_edge102_Node000000_Node000011"><a xlink:title=" ">
<path fill="none" stroke="#63b8ff" d="M103.3,-463.81C125.87,-457.59 153.03,-450.11 176.71,-443.59"/>
<polygon fill="#63b8ff" stroke="#63b8ff" points="102.47,-460.41 93.76,-466.44 104.33,-467.16 102.47,-460.41"/>
</a>
</g>
</g>
<!-- Node12 -->
<g id="Node000012" class="node">
<title>Node12</title>
<g id="a_Node000012"><a xlink:href="classzml_1_1_replace_constructor_call_with_built_in.html" target="_top" xlink:title=" ">
<polygon fill="white" stroke="#666666" points="322.25,-394.12 147.25,-394.12 147.25,-363.62 322.25,-363.62 322.25,-394.12"/>
<text text-anchor="start" x="155.25" y="-380.62" font-family="Helvetica,sans-Serif" font-size="10.00">zml::ReplaceConstructorCall</text>
<text text-anchor="middle" x="234.75" y="-369.38" font-family="Helvetica,sans-Serif" font-size="10.00">WithBuiltIn&lt; ExtMulOp, ExtMulStr &gt;</text>
</a>
</g>
</g>
<!-- Node0&#45;&gt;Node12 -->
<g id="edge103_Node000000_Node000012" class="edge">
<title>Node0&#45;&gt;Node12</title>
<g id="a_edge103_Node000000_Node000012"><a xlink:title=" ">
<path fill="none" stroke="#63b8ff" d="M73.34,-459C90.4,-442.5 117.8,-418.41 145.75,-403.88 152.51,-400.36 159.84,-397.28 167.27,-394.6"/>
<polygon fill="#63b8ff" stroke="#63b8ff" points="71.13,-456.26 66.49,-465.78 76.06,-461.23 71.13,-456.26"/>
</a>
</g>
</g>
<!-- Node13 -->
<g id="Node000013" class="node">
<title>Node13</title>
<g id="a_Node000013"><a xlink:href="classzml_1_1_replace_constructor_call_with_built_in.html" target="_top" xlink:title=" ">
<polygon fill="white" stroke="#666666" points="310.25,-345.12 159.25,-345.12 159.25,-314.62 310.25,-314.62 310.25,-345.12"/>
<text text-anchor="start" x="167.25" y="-331.62" font-family="Helvetica,sans-Serif" font-size="10.00">zml::ReplaceConstructorCall</text>
<text text-anchor="middle" x="234.75" y="-320.38" font-family="Helvetica,sans-Serif" font-size="10.00">WithBuiltIn&lt; ModOp, ModStr &gt;</text>
</a>
</g>
</g>
<!-- Node0&#45;&gt;Node13 -->
<g id="edge104_Node000000_Node000013" class="edge">
<title>Node0&#45;&gt;Node13</title>
<g id="a_edge104_Node000000_Node000013"><a xlink:title=" ">
<path fill="none" stroke="#63b8ff" d="M65.4,-456.66C79.25,-429.44 107.54,-381.37 145.75,-354.88 150.97,-351.25 156.71,-348.16 162.67,-345.5"/>
<polygon fill="#63b8ff" stroke="#63b8ff" points="62.29,-455.04 61.02,-465.56 68.57,-458.13 62.29,-455.04"/>
</a>
</g>
</g>
<!-- Node14 -->
<g id="Node000014" class="node">
<title>Node14</title>
<g id="a_Node000014"><a xlink:href="classzml_1_1_replace_constructor_call_with_built_in.html" target="_top" xlink:title=" ">
<polygon fill="white" stroke="#666666" points="305.75,-296.12 163.75,-296.12 163.75,-265.62 305.75,-265.62 305.75,-296.12"/>
<text text-anchor="start" x="171.75" y="-282.62" font-family="Helvetica,sans-Serif" font-size="10.00">zml::ReplaceConstructorCall</text>
<text text-anchor="middle" x="234.75" y="-271.38" font-family="Helvetica,sans-Serif" font-size="10.00">WithBuiltIn&lt; InvOp, InvStr &gt;</text>
</a>
</g>
</g>
<!-- Node0&#45;&gt;Node14 -->
<g id="edge105_Node000000_Node000014" class="edge">
<title>Node0&#45;&gt;Node14</title>
<g id="a_edge105_Node000000_Node000014"><a xlink:title=" ">
<path fill="none" stroke="#63b8ff" d="M61.05,-455.93C71.07,-419.79 96.6,-345.77 145.75,-305.88 151.05,-301.57 157.06,-298.01 163.38,-295.06"/>
<polygon fill="#63b8ff" stroke="#63b8ff" points="57.68,-454.99 58.52,-465.55 64.45,-456.77 57.68,-454.99"/>
</a>
</g>
</g>
<!-- Node15 -->
<g id="Node000015" class="node">
<title>Node15</title>
<g id="a_Node000015"><a xlink:href="classzml_1_1_replace_constructor_call_with_built_in.html" target="_top" xlink:title=" ">
<polygon fill="white" stroke="#666666" points="320,-247.12 149.5,-247.12 149.5,-216.62 320,-216.62 320,-247.12"/>
<text text-anchor="start" x="157.5" y="-233.62" font-family="Helvetica,sans-Serif" font-size="10.00">zml::ReplaceConstructorCall</text>
<text text-anchor="middle" x="234.75" y="-222.38" font-family="Helvetica,sans-Serif" font-size="10.00">WithBuiltIn&lt; ExtInvOp, ExtInvStr &gt;</text>
</a>
</g>
</g>
<!-- Node0&#45;&gt;Node15 -->
<g id="edge106_Node000000_Node000015" class="edge">
<title>Node0&#45;&gt;Node15</title>
<g id="a_edge106_Node000000_Node000015"><a xlink:title=" ">
<path fill="none" stroke="#63b8ff" d="M58.38,-455.57C64.69,-411.72 85.3,-310.96 145.75,-256.88 149.77,-253.27 154.28,-250.19 159.07,-247.55"/>
<polygon fill="#63b8ff" stroke="#63b8ff" points="54.94,-454.92 57.1,-465.29 61.88,-455.83 54.94,-454.92"/>
</a>
</g>
</g>
<!-- Node16 -->
<g id="Node000016" class="node">
<title>Node16</title>
<g id="a_Node000016"><a xlink:href="classzml_1_1_replace_constructor_call_with_built_in.html" target="_top" xlink:title=" ">
<polygon fill="white" stroke="#666666" points="305.75,-198.75 163.75,-198.75 163.75,-157 305.75,-157 305.75,-198.75"/>
<text text-anchor="start" x="171.75" y="-185.25" font-family="Helvetica,sans-Serif" font-size="10.00">zml::ReplaceConstructorCall</text>
<text text-anchor="start" x="171.75" y="-174" font-family="Helvetica,sans-Serif" font-size="10.00">WithBuiltIn&lt; MakeExtOp,</text>
<text text-anchor="middle" x="234.75" y="-162.75" font-family="Helvetica,sans-Serif" font-size="10.00"> MakeExtStr &gt;</text>
</a>
</g>
</g>
<!-- Node0&#45;&gt;Node16 -->
<g id="edge107_Node000000_Node000016" class="edge">
<title>Node0&#45;&gt;Node16</title>
<g id="a_edge107_Node000000_Node000016"><a xlink:title=" ">
<path fill="none" stroke="#63b8ff" d="M56.81,-455.72C60.15,-405.6 75.5,-278.55 145.75,-207.88 150.87,-202.72 156.91,-198.46 163.39,-194.92"/>
<polygon fill="#63b8ff" stroke="#63b8ff" points="53.33,-455.28 56.26,-465.46 60.31,-455.67 53.33,-455.28"/>
</a>
</g>
</g>
<!-- Node17 -->
<g id="Node000017" class="node">
<title>Node17</title>
<g id="a_Node000017"><a xlink:href="classzml_1_1_replace_constructor_call_with_built_in.html" target="_top" xlink:title=" ">
<polygon fill="white" stroke="#666666" points="312.12,-139.12 157.38,-139.12 157.38,-108.62 312.12,-108.62 312.12,-139.12"/>
<text text-anchor="start" x="165.38" y="-125.62" font-family="Helvetica,sans-Serif" font-size="10.00">zml::ReplaceConstructorCall</text>
<text text-anchor="middle" x="234.75" y="-114.38" font-family="Helvetica,sans-Serif" font-size="10.00">WithBuiltIn&lt; IsZeroOp, IszStr &gt;</text>
</a>
</g>
</g>
<!-- Node0&#45;&gt;Node17 -->
<g id="edge108_Node000000_Node000017" class="edge">
<title>Node0&#45;&gt;Node17</title>
<g id="a_edge108_Node000000_Node000017"><a xlink:title=" ">
<path fill="none" stroke="#63b8ff" d="M58.88,-455.75C68.61,-390.26 101.19,-192.42 145.75,-147.88 149.11,-144.52 152.89,-141.62 156.95,-139.11"/>
<polygon fill="#63b8ff" stroke="#63b8ff" points="55.44,-455.1 57.46,-465.5 62.37,-456.11 55.44,-455.1"/>
</a>
</g>
</g>
<!-- Node18 -->
<g id="Node000018" class="node">
<title>Node18</title>
<g id="a_Node000018"><a xlink:href="classzml_1_1_replace_constructor_call_with_built_in.html" target="_top" xlink:title=" ">
<polygon fill="white" stroke="#666666" points="309.5,-90.12 160,-90.12 160,-59.62 309.5,-59.62 309.5,-90.12"/>
<text text-anchor="start" x="168" y="-76.62" font-family="Helvetica,sans-Serif" font-size="10.00">zml::ReplaceConstructorCall</text>
<text text-anchor="middle" x="234.75" y="-65.38" font-family="Helvetica,sans-Serif" font-size="10.00">WithBuiltIn&lt; NegOp, NegStr &gt;</text>
</a>
</g>
</g>
<!-- Node0&#45;&gt;Node18 -->
<g id="edge109_Node000000_Node000018" class="edge">
<title>Node0&#45;&gt;Node18</title>
<g id="a_edge109_Node000000_Node000018"><a xlink:title=" ">
<path fill="none" stroke="#63b8ff" d="M58.09,-456.01C66.05,-384.73 95.47,-152.35 145.75,-99.88 149.82,-95.63 154.54,-92.09 159.66,-89.14"/>
<polygon fill="#63b8ff" stroke="#63b8ff" points="54.65,-455.21 57.05,-465.53 61.61,-455.97 54.65,-455.21"/>
</a>
</g>
</g>
<!-- Node19 -->
<g id="Node000019" class="node">
<title>Node19</title>
<g id="a_Node000019"><a xlink:href="classzml_1_1_replace_constructor_call_with_built_in.html" target="_top" xlink:title=" ">
<polygon fill="white" stroke="#666666" points="305.75,-41.75 163.75,-41.75 163.75,0 305.75,0 305.75,-41.75"/>
<text text-anchor="start" x="171.75" y="-28.25" font-family="Helvetica,sans-Serif" font-size="10.00">zml::ReplaceConstructorCall</text>
<text text-anchor="start" x="171.75" y="-17" font-family="Helvetica,sans-Serif" font-size="10.00">WithBuiltIn&lt; InRangeOp,</text>
<text text-anchor="middle" x="234.75" y="-5.75" font-family="Helvetica,sans-Serif" font-size="10.00"> InRangeStr &gt;</text>
</a>
</g>
</g>
<!-- Node0&#45;&gt;Node19 -->
<g id="edge110_Node000000_Node000019" class="edge">
<title>Node0&#45;&gt;Node19</title>
<g id="a_edge110_Node000000_Node000019"><a xlink:title=" ">
<path fill="none" stroke="#63b8ff" d="M57.58,-455.94C64.27,-378.94 91.02,-112.64 145.75,-50.88 150.78,-45.2 156.93,-40.59 163.62,-36.86"/>
<polygon fill="#63b8ff" stroke="#63b8ff" points="54.13,-455.21 56.78,-465.47 61.11,-455.8 54.13,-455.21"/>
</a>
</g>
</g>
</g>
</svg>
