<?xml version="1.0" encoding="UTF-8" standalone="no"?>
<!DOCTYPE svg PUBLIC "-//W3C//DTD SVG 1.1//EN"
 "http://www.w3.org/Graphics/SVG/1.1/DTD/svg11.dtd">
<!-- Generated by graphviz version 12.2.1 (20241206.2353)
 -->
<!-- Title: Graphical Class Hierarchy Pages: 1 -->
<svg width="475pt" height="147pt"
 viewBox="0.00 0.00 475.25 147.12" xmlns="http://www.w3.org/2000/svg" xmlns:xlink="http://www.w3.org/1999/xlink">
<g id="graph0" class="graph" transform="scale(1 1) rotate(0) translate(4 143.12)">
<title>Graphical Class Hierarchy</title>
<!-- Node0 -->
<g id="Node000000" class="node">
<title>Node0</title>
<g id="a_Node000000"><a xlink:href="classzml_1_1detail_1_1_lit_val_array_op_generic_adaptor_base.html" target="_top" xlink:title=" ">
<polygon fill="white" stroke="#666666" points="118.75,-79.5 0,-79.5 0,-49 118.75,-49 118.75,-79.5"/>
<text text-anchor="start" x="8" y="-66" font-family="Helvetica,sans-Serif" font-size="10.00">zml::detail::LitValArray</text>
<text text-anchor="middle" x="59.38" y="-54.75" font-family="Helvetica,sans-Serif" font-size="10.00">OpGenericAdaptorBase</text>
</a>
</g>
</g>
<!-- Node1 -->
<g id="Node000001" class="node">
<title>Node1</title>
<g id="a_Node000001"><a xlink:href="classzml_1_1_lit_val_array_op_generic_adaptor.html" target="_top" xlink:title=" ">
<polygon fill="white" stroke="#666666" points="293,-139.12 161.5,-139.12 161.5,-97.38 293,-97.38 293,-139.12"/>
<text text-anchor="start" x="169.5" y="-125.62" font-family="Helvetica,sans-Serif" font-size="10.00">zml::LitValArrayOpGeneric</text>
<text text-anchor="start" x="169.5" y="-114.38" font-family="Helvetica,sans-Serif" font-size="10.00">Adaptor&lt;::llvm::ArrayRef</text>
<text text-anchor="middle" x="227.25" y="-103.12" font-family="Helvetica,sans-Serif" font-size="10.00">&lt;::mlir::Attribute &gt; &gt;</text>
</a>
</g>
</g>
<!-- Node0&#45;&gt;Node1 -->
<g id="edge289_Node000000_Node000001" class="edge">
<title>Node0&#45;&gt;Node1</title>
<g id="a_edge289_Node000000_Node000001"><a xlink:title=" ">
<path fill="none" stroke="#63b8ff" d="M119.04,-83.35C132.65,-87.78 147.22,-92.52 161.1,-97.04"/>
<polygon fill="#63b8ff" stroke="#63b8ff" points="120.38,-80.11 109.79,-80.34 118.22,-86.76 120.38,-80.11"/>
</a>
</g>
</g>
<!-- Node2 -->
<g id="Node000002" class="node">
<title>Node2</title>
<g id="a_Node000002"><a xlink:href="classzml_1_1_lit_val_array_op_generic_adaptor.html" target="_top" xlink:title=" ">
<polygon fill="white" stroke="#666666" points="299.75,-79.5 154.75,-79.5 154.75,-49 299.75,-49 299.75,-79.5"/>
<text text-anchor="start" x="162.75" y="-66" font-family="Helvetica,sans-Serif" font-size="10.00">zml::LitValArrayOpGeneric</text>
<text text-anchor="middle" x="227.25" y="-54.75" font-family="Helvetica,sans-Serif" font-size="10.00">Adaptor&lt;::mlir::ValueRange &gt;</text>
</a>
</g>
</g>
<!-- Node0&#45;&gt;Node2 -->
<g id="edge290_Node000000_Node000002" class="edge">
<title>Node0&#45;&gt;Node2</title>
<g id="a_edge290_Node000000_Node000002"><a xlink:title=" ">
<path fill="none" stroke="#63b8ff" d="M130.34,-64.25C138.28,-64.25 146.38,-64.25 154.34,-64.25"/>
<polygon fill="#63b8ff" stroke="#63b8ff" points="130.37,-60.75 120.37,-64.25 130.37,-67.75 130.37,-60.75"/>
</a>
</g>
</g>
<!-- Node4 -->
<g id="Node000004" class="node">
<title>Node4</title>
<g id="a_Node000004"><a xlink:href="classzml_1_1_lit_val_array_op_generic_adaptor.html" target="_top" xlink:title=" ">
<polygon fill="white" stroke="#666666" points="293,-30.5 161.5,-30.5 161.5,0 293,0 293,-30.5"/>
<text text-anchor="start" x="169.5" y="-17" font-family="Helvetica,sans-Serif" font-size="10.00">zml::LitValArrayOpGeneric</text>
<text text-anchor="middle" x="227.25" y="-5.75" font-family="Helvetica,sans-Serif" font-size="10.00">Adaptor&lt; RangeT &gt;</text>
</a>
</g>
</g>
<!-- Node0&#45;&gt;Node4 -->
<g id="edge292_Node000000_Node000004" class="edge">
<title>Node0&#45;&gt;Node4</title>
<g id="a_edge292_Node000000_Node000004"><a xlink:title=" ">
<path fill="none" stroke="#63b8ff" d="M124.26,-45.38C140.35,-40.63 157.45,-35.57 172.96,-30.99"/>
<polygon fill="#63b8ff" stroke="#63b8ff" points="123.37,-41.99 114.77,-48.18 125.35,-48.71 123.37,-41.99"/>
</a>
</g>
</g>
<!-- Node3 -->
<g id="Node000003" class="node">
<title>Node3</title>
<g id="a_Node000003"><a xlink:href="classzml_1_1_lit_val_array_op_adaptor.html" target="_top" xlink:title=" ">
<polygon fill="white" stroke="#666666" points="467.25,-73.88 335.75,-73.88 335.75,-54.62 467.25,-54.62 467.25,-73.88"/>
<text text-anchor="middle" x="401.5" y="-60.38" font-family="Helvetica,sans-Serif" font-size="10.00">zml::LitValArrayOpAdaptor</text>
</a>
</g>
</g>
<!-- Node2&#45;&gt;Node3 -->
<g id="edge291_Node000002_Node000003" class="edge">
<title>Node2&#45;&gt;Node3</title>
<g id="a_edge291_Node000002_Node000003"><a xlink:title=" ">
<path fill="none" stroke="#63b8ff" d="M311.26,-64.25C319.4,-64.25 327.58,-64.25 335.5,-64.25"/>
<polygon fill="#63b8ff" stroke="#63b8ff" points="311.32,-60.75 301.32,-64.25 311.32,-67.75 311.32,-60.75"/>
</a>
</g>
</g>
</g>
</svg>
