<?xml version="1.0" encoding="UTF-8" standalone="no"?>
<!DOCTYPE svg PUBLIC "-//W3C//DTD SVG 1.1//EN"
 "http://www.w3.org/Graphics/SVG/1.1/DTD/svg11.dtd">
<!-- Generated by graphviz version 12.2.1 (20241206.2353)
 -->
<!-- Title: Graphical Class Hierarchy Pages: 1 -->
<svg width="517pt" height="147pt"
 viewBox="0.00 0.00 516.50 147.12" xmlns="http://www.w3.org/2000/svg" xmlns:xlink="http://www.w3.org/1999/xlink">
<g id="graph0" class="graph" transform="scale(1 1) rotate(0) translate(4 143.12)">
<title>Graphical Class Hierarchy</title>
<!-- Node0 -->
<g id="Node000000" class="node">
<title>Node0</title>
<g id="a_Node000000"><a xlink:href="classzml_1_1detail_1_1_constructor_ref_op_generic_adaptor_base.html" target="_top" xlink:title=" ">
<polygon fill="white" stroke="#666666" points="134.5,-79.5 0,-79.5 0,-49 134.5,-49 134.5,-79.5"/>
<text text-anchor="start" x="8" y="-66" font-family="Helvetica,sans-Serif" font-size="10.00">zml::detail::Constructor</text>
<text text-anchor="middle" x="67.25" y="-54.75" font-family="Helvetica,sans-Serif" font-size="10.00">RefOpGenericAdaptorBase</text>
</a>
</g>
</g>
<!-- Node1 -->
<g id="Node000001" class="node">
<title>Node1</title>
<g id="a_Node000001"><a xlink:href="classzml_1_1_constructor_ref_op_generic_adaptor.html" target="_top" xlink:title=" ">
<polygon fill="white" stroke="#666666" points="321.5,-139.12 170.5,-139.12 170.5,-97.38 321.5,-97.38 321.5,-139.12"/>
<text text-anchor="start" x="178.5" y="-125.62" font-family="Helvetica,sans-Serif" font-size="10.00">zml::ConstructorRefOpGeneric</text>
<text text-anchor="start" x="178.5" y="-114.38" font-family="Helvetica,sans-Serif" font-size="10.00">Adaptor&lt;::llvm::ArrayRef</text>
<text text-anchor="middle" x="246" y="-103.12" font-family="Helvetica,sans-Serif" font-size="10.00">&lt;::mlir::Attribute &gt; &gt;</text>
</a>
</g>
</g>
<!-- Node0&#45;&gt;Node1 -->
<g id="edge217_Node000000_Node000001" class="edge">
<title>Node0&#45;&gt;Node1</title>
<g id="a_edge217_Node000000_Node000001"><a xlink:title=" ">
<path fill="none" stroke="#63b8ff" d="M130.26,-83.2C144.8,-87.64 160.4,-92.4 175.25,-96.94"/>
<polygon fill="#63b8ff" stroke="#63b8ff" points="131.41,-79.89 120.82,-80.31 129.36,-86.58 131.41,-79.89"/>
</a>
</g>
</g>
<!-- Node2 -->
<g id="Node000002" class="node">
<title>Node2</title>
<g id="a_Node000002"><a xlink:href="classzml_1_1_constructor_ref_op_generic_adaptor.html" target="_top" xlink:title=" ">
<polygon fill="white" stroke="#666666" points="321.5,-79.5 170.5,-79.5 170.5,-49 321.5,-49 321.5,-79.5"/>
<text text-anchor="start" x="178.5" y="-66" font-family="Helvetica,sans-Serif" font-size="10.00">zml::ConstructorRefOpGeneric</text>
<text text-anchor="middle" x="246" y="-54.75" font-family="Helvetica,sans-Serif" font-size="10.00">Adaptor&lt;::mlir::ValueRange &gt;</text>
</a>
</g>
</g>
<!-- Node0&#45;&gt;Node2 -->
<g id="edge218_Node000000_Node000002" class="edge">
<title>Node0&#45;&gt;Node2</title>
<g id="a_edge218_Node000000_Node000002"><a xlink:title=" ">
<path fill="none" stroke="#63b8ff" d="M146.33,-64.25C154.26,-64.25 162.3,-64.25 170.19,-64.25"/>
<polygon fill="#63b8ff" stroke="#63b8ff" points="146.33,-60.75 136.33,-64.25 146.33,-67.75 146.33,-60.75"/>
</a>
</g>
</g>
<!-- Node4 -->
<g id="Node000004" class="node">
<title>Node4</title>
<g id="a_Node000004"><a xlink:href="classzml_1_1_constructor_ref_op_generic_adaptor.html" target="_top" xlink:title=" ">
<polygon fill="white" stroke="#666666" points="321.5,-30.5 170.5,-30.5 170.5,0 321.5,0 321.5,-30.5"/>
<text text-anchor="start" x="178.5" y="-17" font-family="Helvetica,sans-Serif" font-size="10.00">zml::ConstructorRefOpGeneric</text>
<text text-anchor="middle" x="246" y="-5.75" font-family="Helvetica,sans-Serif" font-size="10.00">Adaptor&lt; RangeT &gt;</text>
</a>
</g>
</g>
<!-- Node0&#45;&gt;Node4 -->
<g id="edge220_Node000000_Node000004" class="edge">
<title>Node0&#45;&gt;Node4</title>
<g id="a_edge220_Node000000_Node000004"><a xlink:title=" ">
<path fill="none" stroke="#63b8ff" d="M135.34,-45.65C152.77,-40.82 171.37,-35.66 188.22,-30.99"/>
<polygon fill="#63b8ff" stroke="#63b8ff" points="134.82,-42.16 126.12,-48.21 136.69,-48.91 134.82,-42.16"/>
</a>
</g>
</g>
<!-- Node3 -->
<g id="Node000003" class="node">
<title>Node3</title>
<g id="a_Node000003"><a xlink:href="classzml_1_1_constructor_ref_op_adaptor.html" target="_top" xlink:title=" ">
<polygon fill="white" stroke="#666666" points="508.5,-73.88 357.5,-73.88 357.5,-54.62 508.5,-54.62 508.5,-73.88"/>
<text text-anchor="middle" x="433" y="-60.38" font-family="Helvetica,sans-Serif" font-size="10.00">zml::ConstructorRefOpAdaptor</text>
</a>
</g>
</g>
<!-- Node2&#45;&gt;Node3 -->
<g id="edge219_Node000002_Node000003" class="edge">
<title>Node2&#45;&gt;Node3</title>
<g id="a_edge219_Node000002_Node000003"><a xlink:title=" ">
<path fill="none" stroke="#63b8ff" d="M333.24,-64.25C341.25,-64.25 349.32,-64.25 357.21,-64.25"/>
<polygon fill="#63b8ff" stroke="#63b8ff" points="333.49,-60.75 323.49,-64.25 333.49,-67.75 333.49,-60.75"/>
</a>
</g>
</g>
</g>
</svg>
