<?xml version="1.0" encoding="UTF-8" standalone="no"?>
<!DOCTYPE svg PUBLIC "-//W3C//DTD SVG 1.1//EN"
 "http://www.w3.org/Graphics/SVG/1.1/DTD/svg11.dtd">
<!-- Generated by graphviz version 12.2.1 (20241206.2353)
 -->
<!-- Title: Graphical Class Hierarchy Pages: 1 -->
<svg width="303pt" height="76pt"
 viewBox="0.00 0.00 303.25 75.88" xmlns="http://www.w3.org/2000/svg" xmlns:xlink="http://www.w3.org/1999/xlink">
<g id="graph0" class="graph" transform="scale(1 1) rotate(0) translate(4 71.88)">
<title>Graphical Class Hierarchy</title>
<!-- Node0 -->
<g id="Node000000" class="node">
<title>Node0</title>
<g id="a_Node000000"><a xlink:title=" ">
<polygon fill="#e0e0e0" stroke="#999999" points="118.38,-19.25 16.88,-19.25 16.88,0 118.38,0 118.38,-19.25"/>
<text text-anchor="middle" x="67.62" y="-5.75" font-family="Helvetica,sans-Serif" font-size="10.00">mlir::TypeConverter</text>
</a>
</g>
</g>
<!-- Node1 -->
<g id="Node000001" class="node">
<title>Node1</title>
<g id="a_Node000001"><a xlink:href="classllzk_1_1_l_l_z_k_type_converter.html" target="_top" xlink:title=" ">
<polygon fill="white" stroke="#666666" points="295.25,-59.25 171.25,-59.25 171.25,-40 295.25,-40 295.25,-59.25"/>
<text text-anchor="middle" x="233.25" y="-45.75" font-family="Helvetica,sans-Serif" font-size="10.00">llzk::LLZKTypeConverter</text>
</a>
</g>
</g>
<!-- Node0&#45;&gt;Node1 -->
<g id="edge86_Node000000_Node000001" class="edge">
<title>Node0&#45;&gt;Node1</title>
<g id="a_edge86_Node000000_Node000001"><a xlink:title=" ">
<path fill="none" stroke="#63b8ff" d="M121.05,-22.44C143.67,-27.97 169.76,-34.35 190.97,-39.53"/>
<polygon fill="#63b8ff" stroke="#63b8ff" points="121.93,-19.05 111.38,-20.08 120.27,-25.85 121.93,-19.05"/>
</a>
</g>
</g>
<!-- Node3 -->
<g id="Node000003" class="node">
<title>Node3</title>
<g id="a_Node000003"><a xlink:href="classzml_1_1_z_m_l_type_converter.html" target="_top" xlink:title=" ">
<polygon fill="white" stroke="#666666" points="293.38,-19.25 173.12,-19.25 173.12,0 293.38,0 293.38,-19.25"/>
<text text-anchor="middle" x="233.25" y="-5.75" font-family="Helvetica,sans-Serif" font-size="10.00">zml::ZMLTypeConverter</text>
</a>
</g>
</g>
<!-- Node0&#45;&gt;Node3 -->
<g id="edge87_Node000000_Node000003" class="edge">
<title>Node0&#45;&gt;Node3</title>
<g id="a_edge87_Node000000_Node000003"><a xlink:title=" ">
<path fill="none" stroke="#63b8ff" d="M130.11,-9.62C144.08,-9.62 158.9,-9.62 172.79,-9.62"/>
<polygon fill="#63b8ff" stroke="#63b8ff" points="130.12,-6.13 120.12,-9.63 130.12,-13.13 130.12,-6.13"/>
</a>
</g>
</g>
<!-- Node2 -->
<g id="Node000002" class="node">
<title>Node2</title>
<g id="a_Node000002"><a xlink:href="classzml_1_1extval_1_1_base_converter_1_1_type_helper.html" target="_top" xlink:title="A bridge interface that handles the conversion of types and the creation of the operations for workin...">
<polygon fill="white" stroke="#666666" points="135.25,-67.88 0,-67.88 0,-37.38 135.25,-37.38 135.25,-67.88"/>
<text text-anchor="start" x="8" y="-54.38" font-family="Helvetica,sans-Serif" font-size="10.00">zml::extval::BaseConverter</text>
<text text-anchor="middle" x="67.62" y="-43.12" font-family="Helvetica,sans-Serif" font-size="10.00">::TypeHelper</text>
</a>
</g>
</g>
<!-- Node2&#45;&gt;Node1 -->
<g id="edge88_Node000002_Node000001" class="edge">
<title>Node2&#45;&gt;Node1</title>
<g id="a_edge88_Node000002_Node000001"><a xlink:title=" ">
<path fill="none" stroke="#63b8ff" d="M146.94,-51.19C154.97,-51.04 163.04,-50.89 170.85,-50.75"/>
<polygon fill="#63b8ff" stroke="#63b8ff" points="147.1,-47.69 137.16,-51.37 147.23,-54.68 147.1,-47.69"/>
</a>
</g>
</g>
</g>
</svg>
