<?xml version="1.0" encoding="UTF-8" standalone="no"?>
<!DOCTYPE svg PUBLIC "-//W3C//DTD SVG 1.1//EN"
 "http://www.w3.org/Graphics/SVG/1.1/DTD/svg11.dtd">
<!-- Generated by graphviz version 12.2.1 (20241206.2353)
 -->
<!-- Title: Graphical Class Hierarchy Pages: 1 -->
<svg width="453pt" height="382pt"
 viewBox="0.00 0.00 452.75 381.50" xmlns="http://www.w3.org/2000/svg" xmlns:xlink="http://www.w3.org/1999/xlink">
<g id="graph0" class="graph" transform="scale(1 1) rotate(0) translate(4 377.5)">
<title>Graphical Class Hierarchy</title>
<!-- Node0 -->
<g id="Node000000" class="node">
<title>Node0</title>
<g id="a_Node000000"><a xlink:href="classzhl_1_1expr_1_1_expr_view.html" target="_top" xlink:title="Pure virtual class that exposes the common API of expressions around a safe wrapper that handles when...">
<polygon fill="white" stroke="#666666" points="101.5,-259.88 0,-259.88 0,-240.62 101.5,-240.62 101.5,-259.88"/>
<text text-anchor="middle" x="50.75" y="-246.38" font-family="Helvetica,sans-Serif" font-size="10.00">zhl::expr::ExprView</text>
</a>
</g>
</g>
<!-- Node1 -->
<g id="Node000001" class="node">
<title>Node1</title>
<g id="a_Node000001"><a xlink:href="classzhl_1_1expr_1_1_const_expr.html" target="_top" xlink:title="Smart pointer around an expression.">
<polygon fill="white" stroke="#666666" points="256.25,-324.88 150.25,-324.88 150.25,-305.62 256.25,-305.62 256.25,-324.88"/>
<text text-anchor="middle" x="203.25" y="-311.38" font-family="Helvetica,sans-Serif" font-size="10.00">zhl::expr::ConstExpr</text>
</a>
</g>
</g>
<!-- Node0&#45;&gt;Node1 -->
<g id="edge111_Node000000_Node000001" class="edge">
<title>Node0&#45;&gt;Node1</title>
<g id="a_edge111_Node000000_Node000001"><a xlink:title=" ">
<path fill="none" stroke="#63b8ff" d="M77.59,-265.93C94.27,-275.59 116.66,-287.71 137.5,-296.25 145.63,-299.58 154.55,-302.59 163.11,-305.18"/>
<polygon fill="#63b8ff" stroke="#63b8ff" points="79.71,-263.12 69.32,-261.06 76.16,-269.15 79.71,-263.12"/>
</a>
</g>
</g>
<!-- Node2 -->
<g id="Node000002" class="node">
<title>Node2</title>
<g id="a_Node000002"><a xlink:href="classzhl_1_1expr_1_1_const_expr_1_1_view.html" target="_top" xlink:title="A view of a ConstExpr that leverages weak pointers for automatically invalidating the view if the und...">
<polygon fill="white" stroke="#666666" points="256.25,-287.5 150.25,-287.5 150.25,-257 256.25,-257 256.25,-287.5"/>
<text text-anchor="start" x="158.25" y="-274" font-family="Helvetica,sans-Serif" font-size="10.00">zhl::expr::ConstExpr</text>
<text text-anchor="middle" x="203.25" y="-262.75" font-family="Helvetica,sans-Serif" font-size="10.00">::View</text>
</a>
</g>
</g>
<!-- Node0&#45;&gt;Node2 -->
<g id="edge112_Node000000_Node000002" class="edge">
<title>Node0&#45;&gt;Node2</title>
<g id="a_edge112_Node000000_Node000002"><a xlink:title=" ">
<path fill="none" stroke="#63b8ff" d="M112.91,-259.19C125.14,-260.98 137.88,-262.84 149.78,-264.58"/>
<polygon fill="#63b8ff" stroke="#63b8ff" points="113.76,-255.78 103.36,-257.79 112.75,-262.7 113.76,-255.78"/>
</a>
</g>
</g>
<!-- Node3 -->
<g id="Node000003" class="node">
<title>Node3</title>
<g id="a_Node000003"><a xlink:href="classzhl_1_1expr_1_1_simple_expr_view.html" target="_top" xlink:title="A simple view of an expression.">
<polygon fill="white" stroke="#666666" points="269,-238.88 137.5,-238.88 137.5,-219.62 269,-219.62 269,-238.88"/>
<text text-anchor="middle" x="203.25" y="-225.38" font-family="Helvetica,sans-Serif" font-size="10.00">zhl::expr::SimpleExprView</text>
</a>
</g>
</g>
<!-- Node0&#45;&gt;Node3 -->
<g id="edge113_Node000000_Node000003" class="edge">
<title>Node0&#45;&gt;Node3</title>
<g id="a_edge113_Node000000_Node000003"><a xlink:title=" ">
<path fill="none" stroke="#63b8ff" d="M113.21,-241.67C121.08,-240.58 129.16,-239.45 137.09,-238.34"/>
<polygon fill="#63b8ff" stroke="#63b8ff" points="112.78,-238.2 103.36,-243.05 113.75,-245.13 112.78,-238.2"/>
</a>
</g>
</g>
<!-- Node4 -->
<g id="Node000004" class="node">
<title>Node4</title>
<g id="a_Node000004"><a xlink:href="classzhl_1_1expr_1_1_typed_expr_view.html" target="_top" xlink:title="An interface that coerces the underlying expression to a particular type.">
<polygon fill="white" stroke="#666666" points="267.12,-201.5 139.38,-201.5 139.38,-171 267.12,-171 267.12,-201.5"/>
<text text-anchor="start" x="147.38" y="-188" font-family="Helvetica,sans-Serif" font-size="10.00">zhl::expr::TypedExprView</text>
<text text-anchor="middle" x="203.25" y="-176.75" font-family="Helvetica,sans-Serif" font-size="10.00">&lt; Expr &gt;</text>
</a>
</g>
</g>
<!-- Node0&#45;&gt;Node4 -->
<g id="edge114_Node000000_Node000004" class="edge">
<title>Node0&#45;&gt;Node4</title>
<g id="a_edge114_Node000000_Node000004"><a xlink:title=" ">
<path fill="none" stroke="#63b8ff" d="M82.02,-235.39C98.32,-227.58 118.85,-218.04 137.5,-210.25 144.25,-207.43 151.46,-204.59 158.52,-201.9"/>
<polygon fill="#63b8ff" stroke="#63b8ff" points="80.83,-232.08 73.35,-239.58 83.88,-238.39 80.83,-232.08"/>
</a>
</g>
</g>
<!-- Node5 -->
<g id="Node000005" class="node">
<title>Node5</title>
<g id="a_Node000005"><a xlink:href="classzhl_1_1expr_1_1_typed_expr_adaptor.html" target="_top" xlink:title=" ">
<polygon fill="white" stroke="#666666" points="444.75,-373.5 305,-373.5 305,-343 444.75,-343 444.75,-373.5"/>
<text text-anchor="start" x="313" y="-360" font-family="Helvetica,sans-Serif" font-size="10.00">zhl::expr::TypedExprAdaptor</text>
<text text-anchor="middle" x="374.88" y="-348.75" font-family="Helvetica,sans-Serif" font-size="10.00">&lt; detail::Val &gt;</text>
</a>
</g>
</g>
<!-- Node4&#45;&gt;Node5 -->
<g id="edge115_Node000004_Node000005" class="edge">
<title>Node4&#45;&gt;Node5</title>
<g id="a_edge115_Node000004_Node000005"><a xlink:title=" ">
<path fill="none" stroke="#63b8ff" d="M267.88,-209.09C268.26,-209.47 268.63,-209.86 269,-210.25 307.84,-251.92 266.02,-291.72 305,-333.25 308.39,-336.87 312.35,-339.96 316.63,-342.61"/>
<polygon fill="#63b8ff" stroke="#63b8ff" points="270.17,-206.44 260.18,-202.91 265.79,-211.9 270.17,-206.44"/>
</a>
</g>
</g>
<!-- Node6 -->
<g id="Node000006" class="node">
<title>Node6</title>
<g id="a_Node000006"><a xlink:href="classzhl_1_1expr_1_1_typed_expr_adaptor.html" target="_top" xlink:title=" ">
<polygon fill="white" stroke="#666666" points="444.75,-324.5 305,-324.5 305,-294 444.75,-294 444.75,-324.5"/>
<text text-anchor="start" x="313" y="-311" font-family="Helvetica,sans-Serif" font-size="10.00">zhl::expr::TypedExprAdaptor</text>
<text text-anchor="middle" x="374.88" y="-299.75" font-family="Helvetica,sans-Serif" font-size="10.00">&lt; detail::Symbol &gt;</text>
</a>
</g>
</g>
<!-- Node4&#45;&gt;Node6 -->
<g id="edge116_Node000004_Node000006" class="edge">
<title>Node4&#45;&gt;Node6</title>
<g id="a_edge116_Node000004_Node000006"><a xlink:title=" ">
<path fill="none" stroke="#63b8ff" d="M266.66,-208.25C267.46,-208.9 268.24,-209.56 269,-210.25 296.1,-234.82 277.82,-259.78 305,-284.25 308.97,-287.83 313.49,-290.9 318.28,-293.54"/>
<polygon fill="#63b8ff" stroke="#63b8ff" points="268.97,-205.58 258.73,-202.83 265.02,-211.36 268.97,-205.58"/>
</a>
</g>
</g>
<!-- Node7 -->
<g id="Node000007" class="node">
<title>Node7</title>
<g id="a_Node000007"><a xlink:href="classzhl_1_1expr_1_1_typed_expr_adaptor.html" target="_top" xlink:title=" ">
<polygon fill="white" stroke="#666666" points="444.75,-275.5 305,-275.5 305,-245 444.75,-245 444.75,-275.5"/>
<text text-anchor="start" x="313" y="-262" font-family="Helvetica,sans-Serif" font-size="10.00">zhl::expr::TypedExprAdaptor</text>
<text text-anchor="middle" x="374.88" y="-250.75" font-family="Helvetica,sans-Serif" font-size="10.00">&lt; detail::Ctor &gt;</text>
</a>
</g>
</g>
<!-- Node4&#45;&gt;Node7 -->
<g id="edge117_Node000004_Node000007" class="edge">
<title>Node4&#45;&gt;Node7</title>
<g id="a_edge117_Node000004_Node000007"><a xlink:title=" ">
<path fill="none" stroke="#63b8ff" d="M261.24,-206.44C263.89,-207.67 266.49,-208.94 269,-210.25 286.27,-219.26 287.7,-226.3 305,-235.25 311.55,-238.64 318.67,-241.78 325.76,-244.6"/>
<polygon fill="#63b8ff" stroke="#63b8ff" points="262.8,-203.3 252.24,-202.51 260,-209.72 262.8,-203.3"/>
</a>
</g>
</g>
<!-- Node8 -->
<g id="Node000008" class="node">
<title>Node8</title>
<g id="a_Node000008"><a xlink:href="classzhl_1_1expr_1_1_typed_expr_view_adaptor.html" target="_top" xlink:title=" ">
<polygon fill="white" stroke="#666666" points="438.75,-226.5 311,-226.5 311,-196 438.75,-196 438.75,-226.5"/>
<text text-anchor="start" x="319" y="-213" font-family="Helvetica,sans-Serif" font-size="10.00">zhl::expr::TypedExprView</text>
<text text-anchor="middle" x="374.88" y="-201.75" font-family="Helvetica,sans-Serif" font-size="10.00">Adaptor&lt; detail::Val &gt;</text>
</a>
</g>
</g>
<!-- Node4&#45;&gt;Node8 -->
<g id="edge118_Node000004_Node000008" class="edge">
<title>Node4&#45;&gt;Node8</title>
<g id="a_edge118_Node000004_Node000008"><a xlink:title=" ">
<path fill="none" stroke="#63b8ff" d="M278.48,-197.19C289.21,-198.77 300.17,-200.39 310.66,-201.93"/>
<polygon fill="#63b8ff" stroke="#63b8ff" points="279.31,-193.78 268.91,-195.78 278.29,-200.7 279.31,-193.78"/>
</a>
</g>
</g>
<!-- Node9 -->
<g id="Node000009" class="node">
<title>Node9</title>
<g id="a_Node000009"><a xlink:href="classzhl_1_1expr_1_1_typed_expr_view_adaptor.html" target="_top" xlink:title=" ">
<polygon fill="white" stroke="#666666" points="439.88,-177.5 309.88,-177.5 309.88,-147 439.88,-147 439.88,-177.5"/>
<text text-anchor="start" x="317.88" y="-164" font-family="Helvetica,sans-Serif" font-size="10.00">zhl::expr::TypedExprView</text>
<text text-anchor="middle" x="374.88" y="-152.75" font-family="Helvetica,sans-Serif" font-size="10.00">Adaptor&lt; detail::Symbol &gt;</text>
</a>
</g>
</g>
<!-- Node4&#45;&gt;Node9 -->
<g id="edge119_Node000004_Node000009" class="edge">
<title>Node4&#45;&gt;Node9</title>
<g id="a_edge119_Node000004_Node000009"><a xlink:title=" ">
<path fill="none" stroke="#63b8ff" d="M278.51,-175.74C288.85,-174.28 299.4,-172.79 309.53,-171.35"/>
<polygon fill="#63b8ff" stroke="#63b8ff" points="278.32,-172.23 268.91,-177.1 279.3,-179.17 278.32,-172.23"/>
</a>
</g>
</g>
<!-- Node10 -->
<g id="Node000010" class="node">
<title>Node10</title>
<g id="a_Node000010"><a xlink:href="classzhl_1_1expr_1_1_typed_expr_view_adaptor.html" target="_top" xlink:title=" ">
<polygon fill="white" stroke="#666666" points="438.75,-128.5 311,-128.5 311,-98 438.75,-98 438.75,-128.5"/>
<text text-anchor="start" x="319" y="-115" font-family="Helvetica,sans-Serif" font-size="10.00">zhl::expr::TypedExprView</text>
<text text-anchor="middle" x="374.88" y="-103.75" font-family="Helvetica,sans-Serif" font-size="10.00">Adaptor&lt; detail::Ctor &gt;</text>
</a>
</g>
</g>
<!-- Node4&#45;&gt;Node10 -->
<g id="edge120_Node000004_Node000010" class="edge">
<title>Node4&#45;&gt;Node10</title>
<g id="a_edge120_Node000004_Node000010"><a xlink:title=" ">
<path fill="none" stroke="#63b8ff" d="M245.42,-165.53C263.52,-156.71 285.13,-146.57 305,-138.25 312.63,-135.06 320.82,-131.87 328.8,-128.9"/>
<polygon fill="#63b8ff" stroke="#63b8ff" points="244,-162.33 236.57,-169.88 247.09,-168.61 244,-162.33"/>
</a>
</g>
</g>
<!-- Node11 -->
<g id="Node000011" class="node">
<title>Node11</title>
<g id="a_Node000011"><a xlink:href="classzhl_1_1expr_1_1_typed_expr_adaptor.html" target="_top" xlink:title="CRTP base class for expression adaptors that implements the common logic between them.">
<polygon fill="white" stroke="#666666" points="444.75,-79.5 305,-79.5 305,-49 444.75,-49 444.75,-79.5"/>
<text text-anchor="start" x="313" y="-66" font-family="Helvetica,sans-Serif" font-size="10.00">zhl::expr::TypedExprAdaptor</text>
<text text-anchor="middle" x="374.88" y="-54.75" font-family="Helvetica,sans-Serif" font-size="10.00">&lt; Expr &gt;</text>
</a>
</g>
</g>
<!-- Node4&#45;&gt;Node11 -->
<g id="edge121_Node000004_Node000011" class="edge">
<title>Node4&#45;&gt;Node11</title>
<g id="a_edge121_Node000004_Node000011"><a xlink:title=" ">
<path fill="none" stroke="#63b8ff" d="M224.05,-162.11C242.91,-140.47 273.09,-109.14 305,-89.25 310.61,-85.75 316.79,-82.64 323.07,-79.91"/>
<polygon fill="#63b8ff" stroke="#63b8ff" points="221.51,-159.7 217.67,-169.58 226.83,-164.25 221.51,-159.7"/>
</a>
</g>
</g>
<!-- Node12 -->
<g id="Node000012" class="node">
<title>Node12</title>
<g id="a_Node000012"><a xlink:href="classzhl_1_1expr_1_1_typed_expr_view_adaptor.html" target="_top" xlink:title="A typed wrapper around a view that does not manage the lifetime of the view.">
<polygon fill="white" stroke="#666666" points="438.75,-30.5 311,-30.5 311,0 438.75,0 438.75,-30.5"/>
<text text-anchor="start" x="319" y="-17" font-family="Helvetica,sans-Serif" font-size="10.00">zhl::expr::TypedExprView</text>
<text text-anchor="middle" x="374.88" y="-5.75" font-family="Helvetica,sans-Serif" font-size="10.00">Adaptor&lt; Expr &gt;</text>
</a>
</g>
</g>
<!-- Node4&#45;&gt;Node12 -->
<g id="edge122_Node000004_Node000012" class="edge">
<title>Node4&#45;&gt;Node12</title>
<g id="a_edge122_Node000004_Node000012"><a xlink:title=" ">
<path fill="none" stroke="#63b8ff" d="M215.75,-160.65C231.5,-128.29 262.73,-72.88 305,-40.25 309.63,-36.67 314.82,-33.58 320.22,-30.9"/>
<polygon fill="#63b8ff" stroke="#63b8ff" points="212.76,-158.77 211.65,-169.31 219.09,-161.76 212.76,-158.77"/>
</a>
</g>
</g>
</g>
</svg>
