<?xml version="1.0" encoding="UTF-8" standalone="no"?>
<!DOCTYPE svg PUBLIC "-//W3C//DTD SVG 1.1//EN"
 "http://www.w3.org/Graphics/SVG/1.1/DTD/svg11.dtd">
<!-- Generated by graphviz version 12.2.1 (20241206.2353)
 -->
<!-- Title: Graphical Class Hierarchy Pages: 1 -->
<svg width="495pt" height="147pt"
 viewBox="0.00 0.00 494.75 147.12" xmlns="http://www.w3.org/2000/svg" xmlns:xlink="http://www.w3.org/1999/xlink">
<g id="graph0" class="graph" transform="scale(1 1) rotate(0) translate(4 143.12)">
<title>Graphical Class Hierarchy</title>
<!-- Node0 -->
<g id="Node000000" class="node">
<title>Node0</title>
<g id="a_Node000000"><a xlink:href="classzml_1_1detail_1_1_read_field_op_generic_adaptor_base.html" target="_top" xlink:title=" ">
<polygon fill="white" stroke="#666666" points="124,-79.5 0,-79.5 0,-49 124,-49 124,-79.5"/>
<text text-anchor="start" x="8" y="-66" font-family="Helvetica,sans-Serif" font-size="10.00">zml::detail::ReadFieldOp</text>
<text text-anchor="middle" x="62" y="-54.75" font-family="Helvetica,sans-Serif" font-size="10.00">GenericAdaptorBase</text>
</a>
</g>
</g>
<!-- Node1 -->
<g id="Node000001" class="node">
<title>Node1</title>
<g id="a_Node000001"><a xlink:href="classzml_1_1_read_field_op_generic_adaptor.html" target="_top" xlink:title=" ">
<polygon fill="white" stroke="#666666" points="322.25,-139.12 160,-139.12 160,-97.38 322.25,-97.38 322.25,-139.12"/>
<text text-anchor="start" x="168" y="-125.62" font-family="Helvetica,sans-Serif" font-size="10.00">zml::ReadFieldOpGenericAdaptor</text>
<text text-anchor="start" x="168" y="-114.38" font-family="Helvetica,sans-Serif" font-size="10.00">&lt;::llvm::ArrayRef&lt;::mlir::</text>
<text text-anchor="middle" x="241.12" y="-103.12" font-family="Helvetica,sans-Serif" font-size="10.00">Attribute &gt; &gt;</text>
</a>
</g>
</g>
<!-- Node0&#45;&gt;Node1 -->
<g id="edge333_Node000000_Node000001" class="edge">
<title>Node0&#45;&gt;Node1</title>
<g id="a_edge333_Node000000_Node000001"><a xlink:title=" ">
<path fill="none" stroke="#63b8ff" d="M125.14,-83.2C139.72,-87.64 155.34,-92.4 170.23,-96.94"/>
<polygon fill="#63b8ff" stroke="#63b8ff" points="126.27,-79.88 115.68,-80.31 124.22,-86.57 126.27,-79.88"/>
</a>
</g>
</g>
<!-- Node2 -->
<g id="Node000002" class="node">
<title>Node2</title>
<g id="a_Node000002"><a xlink:href="classzml_1_1_read_field_op_generic_adaptor.html" target="_top" xlink:title=" ">
<polygon fill="white" stroke="#666666" points="322.25,-79.5 160,-79.5 160,-49 322.25,-49 322.25,-79.5"/>
<text text-anchor="start" x="168" y="-66" font-family="Helvetica,sans-Serif" font-size="10.00">zml::ReadFieldOpGenericAdaptor</text>
<text text-anchor="middle" x="241.12" y="-54.75" font-family="Helvetica,sans-Serif" font-size="10.00">&lt;::mlir::ValueRange &gt;</text>
</a>
</g>
</g>
<!-- Node0&#45;&gt;Node2 -->
<g id="edge334_Node000000_Node000002" class="edge">
<title>Node0&#45;&gt;Node2</title>
<g id="a_edge334_Node000000_Node000002"><a xlink:title=" ">
<path fill="none" stroke="#63b8ff" d="M135.85,-64.25C143.73,-64.25 151.79,-64.25 159.75,-64.25"/>
<polygon fill="#63b8ff" stroke="#63b8ff" points="135.97,-60.75 125.97,-64.25 135.97,-67.75 135.97,-60.75"/>
</a>
</g>
</g>
<!-- Node4 -->
<g id="Node000004" class="node">
<title>Node4</title>
<g id="a_Node000004"><a xlink:href="classzml_1_1_read_field_op_generic_adaptor.html" target="_top" xlink:title=" ">
<polygon fill="white" stroke="#666666" points="322.25,-30.5 160,-30.5 160,0 322.25,0 322.25,-30.5"/>
<text text-anchor="start" x="168" y="-17" font-family="Helvetica,sans-Serif" font-size="10.00">zml::ReadFieldOpGenericAdaptor</text>
<text text-anchor="middle" x="241.12" y="-5.75" font-family="Helvetica,sans-Serif" font-size="10.00">&lt; RangeT &gt;</text>
</a>
</g>
</g>
<!-- Node0&#45;&gt;Node4 -->
<g id="edge336_Node000000_Node000004" class="edge">
<title>Node0&#45;&gt;Node4</title>
<g id="a_edge336_Node000000_Node000004"><a xlink:title=" ">
<path fill="none" stroke="#63b8ff" d="M130.23,-45.65C147.7,-40.82 166.34,-35.66 183.22,-30.99"/>
<polygon fill="#63b8ff" stroke="#63b8ff" points="129.69,-42.17 120.99,-48.21 131.56,-48.91 129.69,-42.17"/>
</a>
</g>
</g>
<!-- Node3 -->
<g id="Node000003" class="node">
<title>Node3</title>
<g id="a_Node000003"><a xlink:href="classzml_1_1_read_field_op_adaptor.html" target="_top" xlink:title=" ">
<polygon fill="white" stroke="#666666" points="486.75,-73.88 358.25,-73.88 358.25,-54.62 486.75,-54.62 486.75,-73.88"/>
<text text-anchor="middle" x="422.5" y="-60.38" font-family="Helvetica,sans-Serif" font-size="10.00">zml::ReadFieldOpAdaptor</text>
</a>
</g>
</g>
<!-- Node2&#45;&gt;Node3 -->
<g id="edge335_Node000002_Node000003" class="edge">
<title>Node2&#45;&gt;Node3</title>
<g id="a_edge335_Node000002_Node000003"><a xlink:title=" ">
<path fill="none" stroke="#63b8ff" d="M334.04,-64.25C342.11,-64.25 350.16,-64.25 357.93,-64.25"/>
<polygon fill="#63b8ff" stroke="#63b8ff" points="334.14,-60.75 324.14,-64.25 334.14,-67.75 334.14,-60.75"/>
</a>
</g>
</g>
</g>
</svg>
