<?xml version="1.0" encoding="UTF-8" standalone="no"?>
<!DOCTYPE svg PUBLIC "-//W3C//DTD SVG 1.1//EN"
 "http://www.w3.org/Graphics/SVG/1.1/DTD/svg11.dtd">
<!-- Generated by graphviz version 12.2.1 (20241206.2353)
 -->
<!-- Title: Graphical Class Hierarchy Pages: 1 -->
<svg width="490pt" height="147pt"
 viewBox="0.00 0.00 490.25 147.12" xmlns="http://www.w3.org/2000/svg" xmlns:xlink="http://www.w3.org/1999/xlink">
<g id="graph0" class="graph" transform="scale(1 1) rotate(0) translate(4 143.12)">
<title>Graphical Class Hierarchy</title>
<!-- Node0 -->
<g id="Node000000" class="node">
<title>Node0</title>
<g id="a_Node000000"><a xlink:href="classzml_1_1detail_1_1_set_global_op_generic_adaptor_base.html" target="_top" xlink:title=" ">
<polygon fill="white" stroke="#666666" points="122.5,-79.5 0,-79.5 0,-49 122.5,-49 122.5,-79.5"/>
<text text-anchor="start" x="8" y="-66" font-family="Helvetica,sans-Serif" font-size="10.00">zml::detail::SetGlobalOp</text>
<text text-anchor="middle" x="61.25" y="-54.75" font-family="Helvetica,sans-Serif" font-size="10.00">GenericAdaptorBase</text>
</a>
</g>
</g>
<!-- Node1 -->
<g id="Node000001" class="node">
<title>Node1</title>
<g id="a_Node000001"><a xlink:href="classzml_1_1_set_global_op_generic_adaptor.html" target="_top" xlink:title=" ">
<polygon fill="white" stroke="#666666" points="319.25,-139.12 158.5,-139.12 158.5,-97.38 319.25,-97.38 319.25,-139.12"/>
<text text-anchor="start" x="166.5" y="-125.62" font-family="Helvetica,sans-Serif" font-size="10.00">zml::SetGlobalOpGenericAdaptor</text>
<text text-anchor="start" x="166.5" y="-114.38" font-family="Helvetica,sans-Serif" font-size="10.00">&lt;::llvm::ArrayRef&lt;::mlir::</text>
<text text-anchor="middle" x="238.88" y="-103.12" font-family="Helvetica,sans-Serif" font-size="10.00">Attribute &gt; &gt;</text>
</a>
</g>
</g>
<!-- Node0&#45;&gt;Node1 -->
<g id="edge341_Node000000_Node000001" class="edge">
<title>Node0&#45;&gt;Node1</title>
<g id="a_edge341_Node000000_Node000001"><a xlink:title=" ">
<path fill="none" stroke="#63b8ff" d="M123.87,-83.2C138.32,-87.64 153.81,-92.4 168.57,-96.94"/>
<polygon fill="#63b8ff" stroke="#63b8ff" points="125.08,-79.91 114.49,-80.31 123.02,-86.6 125.08,-79.91"/>
</a>
</g>
</g>
<!-- Node2 -->
<g id="Node000002" class="node">
<title>Node2</title>
<g id="a_Node000002"><a xlink:href="classzml_1_1_set_global_op_generic_adaptor.html" target="_top" xlink:title=" ">
<polygon fill="white" stroke="#666666" points="319.25,-79.5 158.5,-79.5 158.5,-49 319.25,-49 319.25,-79.5"/>
<text text-anchor="start" x="166.5" y="-66" font-family="Helvetica,sans-Serif" font-size="10.00">zml::SetGlobalOpGenericAdaptor</text>
<text text-anchor="middle" x="238.88" y="-54.75" font-family="Helvetica,sans-Serif" font-size="10.00">&lt;::mlir::ValueRange &gt;</text>
</a>
</g>
</g>
<!-- Node0&#45;&gt;Node2 -->
<g id="edge342_Node000000_Node000002" class="edge">
<title>Node0&#45;&gt;Node2</title>
<g id="a_edge342_Node000000_Node000002"><a xlink:title=" ">
<path fill="none" stroke="#63b8ff" d="M134.11,-64.25C142.02,-64.25 150.1,-64.25 158.09,-64.25"/>
<polygon fill="#63b8ff" stroke="#63b8ff" points="134.2,-60.75 124.2,-64.25 134.2,-67.75 134.2,-60.75"/>
</a>
</g>
</g>
<!-- Node4 -->
<g id="Node000004" class="node">
<title>Node4</title>
<g id="a_Node000004"><a xlink:href="classzml_1_1_set_global_op_generic_adaptor.html" target="_top" xlink:title=" ">
<polygon fill="white" stroke="#666666" points="319.25,-30.5 158.5,-30.5 158.5,0 319.25,0 319.25,-30.5"/>
<text text-anchor="start" x="166.5" y="-17" font-family="Helvetica,sans-Serif" font-size="10.00">zml::SetGlobalOpGenericAdaptor</text>
<text text-anchor="middle" x="238.88" y="-5.75" font-family="Helvetica,sans-Serif" font-size="10.00">&lt; RangeT &gt;</text>
</a>
</g>
</g>
<!-- Node0&#45;&gt;Node4 -->
<g id="edge344_Node000000_Node000004" class="edge">
<title>Node0&#45;&gt;Node4</title>
<g id="a_edge344_Node000000_Node000004"><a xlink:title=" ">
<path fill="none" stroke="#63b8ff" d="M128.91,-45.65C146.23,-40.82 164.72,-35.66 181.45,-30.99"/>
<polygon fill="#63b8ff" stroke="#63b8ff" points="128.45,-42.15 119.76,-48.2 130.33,-48.89 128.45,-42.15"/>
</a>
</g>
</g>
<!-- Node3 -->
<g id="Node000003" class="node">
<title>Node3</title>
<g id="a_Node000003"><a xlink:href="classzml_1_1_set_global_op_adaptor.html" target="_top" xlink:title=" ">
<polygon fill="white" stroke="#666666" points="482.25,-73.88 355.25,-73.88 355.25,-54.62 482.25,-54.62 482.25,-73.88"/>
<text text-anchor="middle" x="418.75" y="-60.38" font-family="Helvetica,sans-Serif" font-size="10.00">zml::SetGlobalOpAdaptor</text>
</a>
</g>
</g>
<!-- Node2&#45;&gt;Node3 -->
<g id="edge343_Node000002_Node000003" class="edge">
<title>Node2&#45;&gt;Node3</title>
<g id="a_edge343_Node000002_Node000003"><a xlink:title=" ">
<path fill="none" stroke="#63b8ff" d="M331.11,-64.25C339.18,-64.25 347.22,-64.25 354.98,-64.25"/>
<polygon fill="#63b8ff" stroke="#63b8ff" points="331.22,-60.75 321.22,-64.25 331.22,-67.75 331.22,-60.75"/>
</a>
</g>
</g>
</g>
</svg>
