<?xml version="1.0" encoding="UTF-8" standalone="no"?>
<!DOCTYPE svg PUBLIC "-//W3C//DTD SVG 1.1//EN"
 "http://www.w3.org/Graphics/SVG/1.1/DTD/svg11.dtd">
<!-- Generated by graphviz version 12.2.1 (20241206.2353)
 -->
<!-- Title: Graphical Class Hierarchy Pages: 1 -->
<svg width="505pt" height="147pt"
 viewBox="0.00 0.00 504.50 147.12" xmlns="http://www.w3.org/2000/svg" xmlns:xlink="http://www.w3.org/1999/xlink">
<g id="graph0" class="graph" transform="scale(1 1) rotate(0) translate(4 143.12)">
<title>Graphical Class Hierarchy</title>
<!-- Node0 -->
<g id="Node000000" class="node">
<title>Node0</title>
<g id="a_Node000000"><a xlink:href="classzml_1_1detail_1_1_load_val_param_op_generic_adaptor_base.html" target="_top" xlink:title=" ">
<polygon fill="white" stroke="#666666" points="130,-79.5 0,-79.5 0,-49 130,-49 130,-79.5"/>
<text text-anchor="start" x="8" y="-66" font-family="Helvetica,sans-Serif" font-size="10.00">zml::detail::LoadValParam</text>
<text text-anchor="middle" x="65" y="-54.75" font-family="Helvetica,sans-Serif" font-size="10.00">OpGenericAdaptorBase</text>
</a>
</g>
</g>
<!-- Node1 -->
<g id="Node000001" class="node">
<title>Node1</title>
<g id="a_Node000001"><a xlink:href="classzml_1_1_load_val_param_op_generic_adaptor.html" target="_top" xlink:title=" ">
<polygon fill="white" stroke="#666666" points="313.25,-139.12 166,-139.12 166,-97.38 313.25,-97.38 313.25,-139.12"/>
<text text-anchor="start" x="174" y="-125.62" font-family="Helvetica,sans-Serif" font-size="10.00">zml::LoadValParamOpGeneric</text>
<text text-anchor="start" x="174" y="-114.38" font-family="Helvetica,sans-Serif" font-size="10.00">Adaptor&lt;::llvm::ArrayRef</text>
<text text-anchor="middle" x="239.62" y="-103.12" font-family="Helvetica,sans-Serif" font-size="10.00">&lt;::mlir::Attribute &gt; &gt;</text>
</a>
</g>
</g>
<!-- Node0&#45;&gt;Node1 -->
<g id="edge297_Node000000_Node000001" class="edge">
<title>Node0&#45;&gt;Node1</title>
<g id="a_edge297_Node000000_Node000001"><a xlink:title=" ">
<path fill="none" stroke="#63b8ff" d="M126.56,-83.2C140.77,-87.64 156,-92.4 170.51,-96.94"/>
<polygon fill="#63b8ff" stroke="#63b8ff" points="127.96,-79.97 117.37,-80.32 125.87,-86.65 127.96,-79.97"/>
</a>
</g>
</g>
<!-- Node2 -->
<g id="Node000002" class="node">
<title>Node2</title>
<g id="a_Node000002"><a xlink:href="classzml_1_1_load_val_param_op_generic_adaptor.html" target="_top" xlink:title=" ">
<polygon fill="white" stroke="#666666" points="313.25,-79.5 166,-79.5 166,-49 313.25,-49 313.25,-79.5"/>
<text text-anchor="start" x="174" y="-66" font-family="Helvetica,sans-Serif" font-size="10.00">zml::LoadValParamOpGeneric</text>
<text text-anchor="middle" x="239.62" y="-54.75" font-family="Helvetica,sans-Serif" font-size="10.00">Adaptor&lt;::mlir::ValueRange &gt;</text>
</a>
</g>
</g>
<!-- Node0&#45;&gt;Node2 -->
<g id="edge298_Node000000_Node000002" class="edge">
<title>Node0&#45;&gt;Node2</title>
<g id="a_edge298_Node000000_Node000002"><a xlink:title=" ">
<path fill="none" stroke="#63b8ff" d="M141.75,-64.25C149.66,-64.25 157.69,-64.25 165.57,-64.25"/>
<polygon fill="#63b8ff" stroke="#63b8ff" points="141.79,-60.75 131.79,-64.25 141.79,-67.75 141.79,-60.75"/>
</a>
</g>
</g>
<!-- Node4 -->
<g id="Node000004" class="node">
<title>Node4</title>
<g id="a_Node000004"><a xlink:href="classzml_1_1_load_val_param_op_generic_adaptor.html" target="_top" xlink:title=" ">
<polygon fill="white" stroke="#666666" points="313.25,-30.5 166,-30.5 166,0 313.25,0 313.25,-30.5"/>
<text text-anchor="start" x="174" y="-17" font-family="Helvetica,sans-Serif" font-size="10.00">zml::LoadValParamOpGeneric</text>
<text text-anchor="middle" x="239.62" y="-5.75" font-family="Helvetica,sans-Serif" font-size="10.00">Adaptor&lt; RangeT &gt;</text>
</a>
</g>
</g>
<!-- Node0&#45;&gt;Node4 -->
<g id="edge300_Node000000_Node000004" class="edge">
<title>Node0&#45;&gt;Node4</title>
<g id="a_edge300_Node000000_Node000004"><a xlink:title=" ">
<path fill="none" stroke="#63b8ff" d="M132,-45.52C148.89,-40.72 166.87,-35.62 183.17,-30.99"/>
<polygon fill="#63b8ff" stroke="#63b8ff" points="131.21,-42.1 122.55,-48.2 133.13,-48.83 131.21,-42.1"/>
</a>
</g>
</g>
<!-- Node3 -->
<g id="Node000003" class="node">
<title>Node3</title>
<g id="a_Node000003"><a xlink:href="classzml_1_1_load_val_param_op_adaptor.html" target="_top" xlink:title=" ">
<polygon fill="white" stroke="#666666" points="496.5,-73.88 349.25,-73.88 349.25,-54.62 496.5,-54.62 496.5,-73.88"/>
<text text-anchor="middle" x="422.88" y="-60.38" font-family="Helvetica,sans-Serif" font-size="10.00">zml::LoadValParamOpAdaptor</text>
</a>
</g>
</g>
<!-- Node2&#45;&gt;Node3 -->
<g id="edge299_Node000002_Node000003" class="edge">
<title>Node2&#45;&gt;Node3</title>
<g id="a_edge299_Node000002_Node000003"><a xlink:title=" ">
<path fill="none" stroke="#63b8ff" d="M324.81,-64.25C332.82,-64.25 340.9,-64.25 348.79,-64.25"/>
<polygon fill="#63b8ff" stroke="#63b8ff" points="325.08,-60.75 315.08,-64.25 325.08,-67.75 325.08,-60.75"/>
</a>
</g>
</g>
</g>
</svg>
