<?xml version="1.0" encoding="UTF-8" standalone="no"?>
<!DOCTYPE svg PUBLIC "-//W3C//DTD SVG 1.1//EN"
 "http://www.w3.org/Graphics/SVG/1.1/DTD/svg11.dtd">
<!-- Generated by graphviz version 12.2.1 (20241206.2353)
 -->
<!-- Title: Graphical Class Hierarchy Pages: 1 -->
<svg width="436pt" height="147pt"
 viewBox="0.00 0.00 436.25 147.12" xmlns="http://www.w3.org/2000/svg" xmlns:xlink="http://www.w3.org/1999/xlink">
<g id="graph0" class="graph" transform="scale(1 1) rotate(0) translate(4 143.12)">
<title>Graphical Class Hierarchy</title>
<!-- Node0 -->
<g id="Node000000" class="node">
<title>Node0</title>
<g id="a_Node000000"><a xlink:href="classzml_1_1detail_1_1_inv_op_generic_adaptor_base.html" target="_top" xlink:title=" ">
<polygon fill="white" stroke="#666666" points="127,-79.5 0,-79.5 0,-49 127,-49 127,-79.5"/>
<text text-anchor="start" x="8" y="-66" font-family="Helvetica,sans-Serif" font-size="10.00">zml::detail::InvOpGeneric</text>
<text text-anchor="middle" x="63.5" y="-54.75" font-family="Helvetica,sans-Serif" font-size="10.00">AdaptorBase</text>
</a>
</g>
</g>
<!-- Node1 -->
<g id="Node000001" class="node">
<title>Node1</title>
<g id="a_Node000001"><a xlink:href="classzml_1_1_inv_op_generic_adaptor.html" target="_top" xlink:title=" ">
<polygon fill="white" stroke="#666666" points="294.5,-139.12 163,-139.12 163,-97.38 294.5,-97.38 294.5,-139.12"/>
<text text-anchor="start" x="171" y="-125.62" font-family="Helvetica,sans-Serif" font-size="10.00">zml::InvOpGenericAdaptor</text>
<text text-anchor="start" x="171" y="-114.38" font-family="Helvetica,sans-Serif" font-size="10.00">&lt;::llvm::ArrayRef&lt;::mlir</text>
<text text-anchor="middle" x="228.75" y="-103.12" font-family="Helvetica,sans-Serif" font-size="10.00">::Attribute &gt; &gt;</text>
</a>
</g>
</g>
<!-- Node0&#45;&gt;Node1 -->
<g id="edge277_Node000000_Node000001" class="edge">
<title>Node0&#45;&gt;Node1</title>
<g id="a_edge277_Node000000_Node000001"><a xlink:title=" ">
<path fill="none" stroke="#63b8ff" d="M122.57,-83.46C135.77,-87.83 149.88,-92.49 163.33,-96.94"/>
<polygon fill="#63b8ff" stroke="#63b8ff" points="123.75,-80.16 113.16,-80.34 121.55,-86.81 123.75,-80.16"/>
</a>
</g>
</g>
<!-- Node2 -->
<g id="Node000002" class="node">
<title>Node2</title>
<g id="a_Node000002"><a xlink:href="classzml_1_1_inv_op_generic_adaptor.html" target="_top" xlink:title=" ">
<polygon fill="white" stroke="#666666" points="294.5,-79.5 163,-79.5 163,-49 294.5,-49 294.5,-79.5"/>
<text text-anchor="start" x="171" y="-66" font-family="Helvetica,sans-Serif" font-size="10.00">zml::InvOpGenericAdaptor</text>
<text text-anchor="middle" x="228.75" y="-54.75" font-family="Helvetica,sans-Serif" font-size="10.00">&lt;::mlir::ValueRange &gt;</text>
</a>
</g>
</g>
<!-- Node0&#45;&gt;Node2 -->
<g id="edge278_Node000000_Node000002" class="edge">
<title>Node0&#45;&gt;Node2</title>
<g id="a_edge278_Node000000_Node000002"><a xlink:title=" ">
<path fill="none" stroke="#63b8ff" d="M138.43,-64.25C146.48,-64.25 154.63,-64.25 162.56,-64.25"/>
<polygon fill="#63b8ff" stroke="#63b8ff" points="138.66,-60.75 128.66,-64.25 138.66,-67.75 138.66,-60.75"/>
</a>
</g>
</g>
<!-- Node4 -->
<g id="Node000004" class="node">
<title>Node4</title>
<g id="a_Node000004"><a xlink:href="classzml_1_1_inv_op_generic_adaptor.html" target="_top" xlink:title=" ">
<polygon fill="white" stroke="#666666" points="294.5,-30.5 163,-30.5 163,0 294.5,0 294.5,-30.5"/>
<text text-anchor="start" x="171" y="-17" font-family="Helvetica,sans-Serif" font-size="10.00">zml::InvOpGenericAdaptor</text>
<text text-anchor="middle" x="228.75" y="-5.75" font-family="Helvetica,sans-Serif" font-size="10.00">&lt; RangeT &gt;</text>
</a>
</g>
</g>
<!-- Node0&#45;&gt;Node4 -->
<g id="edge280_Node000000_Node000004" class="edge">
<title>Node0&#45;&gt;Node4</title>
<g id="a_edge280_Node000000_Node000004"><a xlink:title=" ">
<path fill="none" stroke="#63b8ff" d="M127.37,-45.38C143.21,-40.63 160.04,-35.57 175.3,-30.99"/>
<polygon fill="#63b8ff" stroke="#63b8ff" points="126.62,-41.95 118.05,-48.18 128.64,-48.65 126.62,-41.95"/>
</a>
</g>
</g>
<!-- Node3 -->
<g id="Node000003" class="node">
<title>Node3</title>
<g id="a_Node000003"><a xlink:href="classzml_1_1_inv_op_adaptor.html" target="_top" xlink:title=" ">
<polygon fill="white" stroke="#666666" points="428.25,-73.88 330.5,-73.88 330.5,-54.62 428.25,-54.62 428.25,-73.88"/>
<text text-anchor="middle" x="379.38" y="-60.38" font-family="Helvetica,sans-Serif" font-size="10.00">zml::InvOpAdaptor</text>
</a>
</g>
</g>
<!-- Node2&#45;&gt;Node3 -->
<g id="edge279_Node000002_Node000003" class="edge">
<title>Node2&#45;&gt;Node3</title>
<g id="a_edge279_Node000002_Node000003"><a xlink:title=" ">
<path fill="none" stroke="#63b8ff" d="M306.39,-64.25C314.5,-64.25 322.57,-64.25 330.22,-64.25"/>
<polygon fill="#63b8ff" stroke="#63b8ff" points="306.45,-60.75 296.45,-64.25 306.45,-67.75 306.45,-60.75"/>
</a>
</g>
</g>
</g>
</svg>
