<?xml version="1.0" encoding="UTF-8" standalone="no"?>
<!DOCTYPE svg PUBLIC "-//W3C//DTD SVG 1.1//EN"
 "http://www.w3.org/Graphics/SVG/1.1/DTD/svg11.dtd">
<!-- Generated by graphviz version 12.2.1 (20241206.2353)
 -->
<!-- Title: Graphical Class Hierarchy Pages: 1 -->
<svg width="552pt" height="170pt"
 viewBox="0.00 0.00 551.75 169.75" xmlns="http://www.w3.org/2000/svg" xmlns:xlink="http://www.w3.org/1999/xlink">
<g id="graph0" class="graph" transform="scale(1 1) rotate(0) translate(4 165.75)">
<title>Graphical Class Hierarchy</title>
<!-- Node0 -->
<g id="Node000000" class="node">
<title>Node0</title>
<g id="a_Node000000"><a xlink:href="structzml_1_1detail_1_1_defines_body_func_interface_traits_1_1_concept.html" target="_top" xlink:title=" ">
<polygon fill="white" stroke="#666666" points="143.5,-96.12 0,-96.12 0,-65.62 143.5,-65.62 143.5,-96.12"/>
<text text-anchor="start" x="8" y="-82.62" font-family="Helvetica,sans-Serif" font-size="10.00">zml::detail::DefinesBody</text>
<text text-anchor="middle" x="71.75" y="-71.38" font-family="Helvetica,sans-Serif" font-size="10.00">FuncInterfaceTraits::Concept</text>
</a>
</g>
</g>
<!-- Node1 -->
<g id="Node000001" class="node">
<title>Node1</title>
<g id="a_Node000001"><a xlink:href="classzml_1_1detail_1_1_defines_body_func_interface_traits_1_1_fallback_model.html" target="_top" xlink:title=" ">
<polygon fill="white" stroke="#666666" points="323,-161.75 179.5,-161.75 179.5,-120 323,-120 323,-161.75"/>
<text text-anchor="start" x="187.5" y="-148.25" font-family="Helvetica,sans-Serif" font-size="10.00">zml::detail::DefinesBody</text>
<text text-anchor="start" x="187.5" y="-137" font-family="Helvetica,sans-Serif" font-size="10.00">FuncInterfaceTraits::Fallback</text>
<text text-anchor="middle" x="251.25" y="-125.75" font-family="Helvetica,sans-Serif" font-size="10.00">Model&lt; ConcreteModel &gt;</text>
</a>
</g>
</g>
<!-- Node0&#45;&gt;Node1 -->
<g id="edge221_Node000000_Node000001" class="edge">
<title>Node0&#45;&gt;Node1</title>
<g id="a_edge221_Node000000_Node000001"><a xlink:title=" ">
<path fill="none" stroke="#63b8ff" d="M129.75,-100.14C148.09,-106.34 168.52,-113.25 187.27,-119.59"/>
<polygon fill="#63b8ff" stroke="#63b8ff" points="130.95,-96.85 120.36,-96.97 128.71,-103.49 130.95,-96.85"/>
</a>
</g>
</g>
<!-- Node3 -->
<g id="Node000003" class="node">
<title>Node3</title>
<g id="a_Node000003"><a xlink:href="classzml_1_1detail_1_1_defines_body_func_interface_traits_1_1_fallback_model.html" target="_top" xlink:title=" ">
<polygon fill="white" stroke="#666666" points="323,-101.75 179.5,-101.75 179.5,-60 323,-60 323,-101.75"/>
<text text-anchor="start" x="187.5" y="-88.25" font-family="Helvetica,sans-Serif" font-size="10.00">zml::detail::DefinesBody</text>
<text text-anchor="start" x="187.5" y="-77" font-family="Helvetica,sans-Serif" font-size="10.00">FuncInterfaceTraits::Fallback</text>
<text text-anchor="middle" x="251.25" y="-65.75" font-family="Helvetica,sans-Serif" font-size="10.00">Model&lt; ConcreteOp &gt;</text>
</a>
</g>
</g>
<!-- Node0&#45;&gt;Node3 -->
<g id="edge223_Node000000_Node000003" class="edge">
<title>Node0&#45;&gt;Node3</title>
<g id="a_edge223_Node000000_Node000003"><a xlink:title=" ">
<path fill="none" stroke="#63b8ff" d="M155.42,-80.88C163.32,-80.88 171.28,-80.88 179.06,-80.88"/>
<polygon fill="#63b8ff" stroke="#63b8ff" points="155.44,-77.38 145.44,-80.88 155.44,-84.38 155.44,-77.38"/>
</a>
</g>
</g>
<!-- Node4 -->
<g id="Node000004" class="node">
<title>Node4</title>
<g id="a_Node000004"><a xlink:href="classzml_1_1detail_1_1_defines_body_func_interface_traits_1_1_model.html" target="_top" xlink:title=" ">
<polygon fill="white" stroke="#666666" points="317.75,-41.75 184.75,-41.75 184.75,0 317.75,0 317.75,-41.75"/>
<text text-anchor="start" x="192.75" y="-28.25" font-family="Helvetica,sans-Serif" font-size="10.00">zml::detail::DefinesBody</text>
<text text-anchor="start" x="192.75" y="-17" font-family="Helvetica,sans-Serif" font-size="10.00">FuncInterfaceTraits::Model</text>
<text text-anchor="middle" x="251.25" y="-5.75" font-family="Helvetica,sans-Serif" font-size="10.00">&lt; ConcreteOp &gt;</text>
</a>
</g>
</g>
<!-- Node0&#45;&gt;Node4 -->
<g id="edge224_Node000000_Node000004" class="edge">
<title>Node0&#45;&gt;Node4</title>
<g id="a_edge224_Node000000_Node000004"><a xlink:title=" ">
<path fill="none" stroke="#63b8ff" d="M129.75,-61.61C148.09,-55.41 168.52,-48.5 187.27,-42.16"/>
<polygon fill="#63b8ff" stroke="#63b8ff" points="128.71,-58.26 120.36,-64.78 130.95,-64.9 128.71,-58.26"/>
</a>
</g>
</g>
<!-- Node2 -->
<g id="Node000002" class="node">
<title>Node2</title>
<g id="a_Node000002"><a xlink:href="classzml_1_1detail_1_1_defines_body_func_interface_traits_1_1_external_model.html" target="_top" xlink:title=" ">
<polygon fill="white" stroke="#666666" points="543.75,-161.75 359,-161.75 359,-120 543.75,-120 543.75,-161.75"/>
<text text-anchor="start" x="367" y="-148.25" font-family="Helvetica,sans-Serif" font-size="10.00">zml::detail::DefinesBody</text>
<text text-anchor="start" x="367" y="-137" font-family="Helvetica,sans-Serif" font-size="10.00">FuncInterfaceTraits::External</text>
<text text-anchor="middle" x="451.38" y="-125.75" font-family="Helvetica,sans-Serif" font-size="10.00">Model&lt; ConcreteModel, ConcreteOp &gt;</text>
</a>
</g>
</g>
<!-- Node1&#45;&gt;Node2 -->
<g id="edge222_Node000001_Node000002" class="edge">
<title>Node1&#45;&gt;Node2</title>
<g id="a_edge222_Node000001_Node000002"><a xlink:title=" ">
<path fill="none" stroke="#63b8ff" d="M334.9,-140.88C342.76,-140.88 350.77,-140.88 358.71,-140.88"/>
<polygon fill="#63b8ff" stroke="#63b8ff" points="335.01,-137.38 325.01,-140.88 335.01,-144.38 335.01,-137.38"/>
</a>
</g>
</g>
</g>
</svg>
