<?xml version="1.0" encoding="UTF-8" standalone="no"?>
<!DOCTYPE svg PUBLIC "-//W3C//DTD SVG 1.1//EN"
 "http://www.w3.org/Graphics/SVG/1.1/DTD/svg11.dtd">
<!-- Generated by graphviz version 12.2.1 (20241206.2353)
 -->
<!-- Title: zml::detail::ComponentInterfaceInterfaceTraits::Concept Pages: 1 -->
<svg width="576pt" height="158pt"
 viewBox="0.00 0.00 575.75 158.12" xmlns="http://www.w3.org/2000/svg" xmlns:xlink="http://www.w3.org/1999/xlink">
<g id="graph0" class="graph" transform="scale(1 1) rotate(0) translate(4 154.12)">
<title>zml::detail::ComponentInterfaceInterfaceTraits::Concept</title>
<!-- Node1 -->
<g id="Node000001" class="node">
<title>Node1</title>
<g id="a_Node000001"><a xlink:title=" ">
<polygon fill="#999999" stroke="#666666" points="155.5,-84.5 0,-84.5 0,-54 155.5,-54 155.5,-84.5"/>
<text text-anchor="start" x="8" y="-71" font-family="Helvetica,sans-Serif" font-size="10.00">zml::detail::ComponentInterface</text>
<text text-anchor="middle" x="77.75" y="-59.75" font-family="Helvetica,sans-Serif" font-size="10.00">InterfaceTraits::Concept</text>
</a>
</g>
</g>
<!-- Node2 -->
<g id="Node000002" class="node">
<title>Node2</title>
<g id="a_Node000002"><a xlink:href="classzml_1_1detail_1_1_component_interface_interface_traits_1_1_fallback_model.html" target="_top" xlink:title=" ">
<polygon fill="white" stroke="#666666" points="360.12,-150.12 204.62,-150.12 204.62,-108.38 360.12,-108.38 360.12,-150.12"/>
<text text-anchor="start" x="212.62" y="-136.62" font-family="Helvetica,sans-Serif" font-size="10.00">zml::detail::ComponentInterface</text>
<text text-anchor="start" x="212.62" y="-125.38" font-family="Helvetica,sans-Serif" font-size="10.00">InterfaceTraits::FallbackModel</text>
<text text-anchor="middle" x="282.38" y="-114.12" font-family="Helvetica,sans-Serif" font-size="10.00">&lt; ConcreteModel &gt;</text>
</a>
</g>
</g>
<!-- Node1&#45;&gt;Node2 -->
<g id="edge1_Node000001_Node000002" class="edge">
<title>Node1&#45;&gt;Node2</title>
<g id="a_edge1_Node000001_Node000002"><a xlink:title=" ">
<path fill="none" stroke="#63b8ff" d="M142.55,-88.14C163.75,-94.42 187.5,-101.45 209.27,-107.9"/>
<polygon fill="#63b8ff" stroke="#63b8ff" points="143.76,-84.85 133.17,-85.37 141.77,-91.56 143.76,-84.85"/>
</a>
</g>
</g>
<!-- Node4 -->
<g id="Node000004" class="node">
<title>Node4</title>
<g id="a_Node000004"><a xlink:href="classzml_1_1detail_1_1_component_interface_interface_traits_1_1_fallback_model.html" target="_top" xlink:title=" ">
<polygon fill="white" stroke="#666666" points="360.12,-90.12 204.62,-90.12 204.62,-48.38 360.12,-48.38 360.12,-90.12"/>
<text text-anchor="start" x="212.62" y="-76.62" font-family="Helvetica,sans-Serif" font-size="10.00">zml::detail::ComponentInterface</text>
<text text-anchor="start" x="212.62" y="-65.38" font-family="Helvetica,sans-Serif" font-size="10.00">InterfaceTraits::FallbackModel</text>
<text text-anchor="middle" x="282.38" y="-54.12" font-family="Helvetica,sans-Serif" font-size="10.00">&lt; ConcreteOp &gt;</text>
</a>
</g>
</g>
<!-- Node1&#45;&gt;Node4 -->
<g id="edge3_Node000001_Node000004" class="edge">
<title>Node1&#45;&gt;Node4</title>
<g id="a_edge3_Node000001_Node000004"><a xlink:title=" ">
<path fill="none" stroke="#63b8ff" d="M167.22,-69.25C179.6,-69.25 192.25,-69.25 204.41,-69.25"/>
<polygon fill="#63b8ff" stroke="#63b8ff" points="167.45,-65.75 157.45,-69.25 167.45,-72.75 167.45,-65.75"/>
</a>
</g>
</g>
<!-- Node5 -->
<g id="Node000005" class="node">
<title>Node5</title>
<g id="a_Node000005"><a xlink:href="classzml_1_1detail_1_1_component_interface_interface_traits_1_1_model.html" target="_top" xlink:title=" ">
<polygon fill="white" stroke="#666666" points="373.25,-30.5 191.5,-30.5 191.5,0 373.25,0 373.25,-30.5"/>
<text text-anchor="start" x="199.5" y="-17" font-family="Helvetica,sans-Serif" font-size="10.00">zml::detail::ComponentInterface</text>
<text text-anchor="middle" x="282.38" y="-5.75" font-family="Helvetica,sans-Serif" font-size="10.00">InterfaceTraits::Model&lt; ConcreteOp &gt;</text>
</a>
</g>
</g>
<!-- Node1&#45;&gt;Node5 -->
<g id="edge4_Node000001_Node000005" class="edge">
<title>Node1&#45;&gt;Node5</title>
<g id="a_edge4_Node000001_Node000005"><a xlink:title=" ">
<path fill="none" stroke="#63b8ff" d="M148.48,-50.67C172.53,-44.26 199.23,-37.14 222.35,-30.98"/>
<polygon fill="#63b8ff" stroke="#63b8ff" points="147.85,-47.21 139.09,-53.17 149.66,-53.98 147.85,-47.21"/>
</a>
</g>
</g>
<!-- Node3 -->
<g id="Node000003" class="node">
<title>Node3</title>
<g id="a_Node000003"><a xlink:href="classzml_1_1detail_1_1_component_interface_interface_traits_1_1_external_model.html" target="_top" xlink:title=" ">
<polygon fill="white" stroke="#666666" points="567.75,-150.12 409.25,-150.12 409.25,-108.38 567.75,-108.38 567.75,-150.12"/>
<text text-anchor="start" x="417.25" y="-136.62" font-family="Helvetica,sans-Serif" font-size="10.00">zml::detail::ComponentInterface</text>
<text text-anchor="start" x="417.25" y="-125.38" font-family="Helvetica,sans-Serif" font-size="10.00">InterfaceTraits::ExternalModel</text>
<text text-anchor="middle" x="488.5" y="-114.12" font-family="Helvetica,sans-Serif" font-size="10.00">&lt; ConcreteModel, ConcreteOp &gt;</text>
</a>
</g>
</g>
<!-- Node2&#45;&gt;Node3 -->
<g id="edge2_Node000002_Node000003" class="edge">
<title>Node2&#45;&gt;Node3</title>
<g id="a_edge2_Node000002_Node000003"><a xlink:title=" ">
<path fill="none" stroke="#63b8ff" d="M371.78,-129.25C384.11,-129.25 396.72,-129.25 408.86,-129.25"/>
<polygon fill="#63b8ff" stroke="#63b8ff" points="372.06,-125.75 362.06,-129.25 372.06,-132.75 372.06,-125.75"/>
</a>
</g>
</g>
</g>
</svg>
