<?xml version="1.0" encoding="UTF-8" standalone="no"?>
<!DOCTYPE svg PUBLIC "-//W3C//DTD SVG 1.1//EN"
 "http://www.w3.org/Graphics/SVG/1.1/DTD/svg11.dtd">
<!-- Generated by graphviz version 12.2.1 (20241206.2353)
 -->
<!-- Title: zml::ComponentInterface::Trait&lt; ConcreteOp &gt; Pages: 1 -->
<svg width="499pt" height="72pt"
 viewBox="0.00 0.00 498.50 72.25" xmlns="http://www.w3.org/2000/svg" xmlns:xlink="http://www.w3.org/1999/xlink">
<g id="graph0" class="graph" transform="scale(1 1) rotate(0) translate(4 68.25)">
<title>zml::ComponentInterface::Trait&lt; ConcreteOp &gt;</title>
<!-- Node1 -->
<g id="Node000001" class="node">
<title>Node1</title>
<g id="a_Node000001"><a xlink:title=" ">
<polygon fill="#999999" stroke="#666666" points="490.5,-47.38 364.25,-47.38 364.25,-16.88 490.5,-16.88 490.5,-47.38"/>
<text text-anchor="start" x="372.25" y="-33.88" font-family="Helvetica,sans-Serif" font-size="10.00">zml::ComponentInterface</text>
<text text-anchor="middle" x="427.38" y="-22.62" font-family="Helvetica,sans-Serif" font-size="10.00">::Trait&lt; ConcreteOp &gt;</text>
</a>
</g>
</g>
<!-- Node2 -->
<g id="Node000002" class="node">
<title>Node2</title>
<g id="a_Node000002"><a xlink:href="structzml_1_1detail_1_1_component_interface_trait.html" target="_top" xlink:title=" ">
<polygon fill="white" stroke="#666666" points="328.25,-47.38 172.75,-47.38 172.75,-16.88 328.25,-16.88 328.25,-47.38"/>
<text text-anchor="start" x="180.75" y="-33.88" font-family="Helvetica,sans-Serif" font-size="10.00">zml::detail::ComponentInterface</text>
<text text-anchor="middle" x="250.5" y="-22.62" font-family="Helvetica,sans-Serif" font-size="10.00">Trait&lt; ConcreteOp &gt;</text>
</a>
</g>
</g>
<!-- Node2&#45;&gt;Node1 -->
<g id="edge1_Node000001_Node000002" class="edge">
<title>Node2&#45;&gt;Node1</title>
<g id="a_edge1_Node000001_Node000002"><a xlink:title=" ">
<path fill="none" stroke="#63b8ff" d="M340.1,-32.12C348.17,-32.12 356.23,-32.12 364,-32.12"/>
<polygon fill="#63b8ff" stroke="#63b8ff" points="340.23,-28.63 330.23,-32.13 340.23,-35.63 340.23,-28.63"/>
</a>
</g>
</g>
<!-- Node3 -->
<g id="Node000003" class="node">
<title>Node3</title>
<g id="a_Node000003"><a xlink:title=" ">
<polygon fill="white" stroke="#666666" points="136.75,-64.25 0,-64.25 0,0 136.75,0 136.75,-64.25"/>
<text text-anchor="start" x="8" y="-50.75" font-family="Helvetica,sans-Serif" font-size="10.00">mlir::OpInterface&lt;</text>
<text text-anchor="start" x="8" y="-39.5" font-family="Helvetica,sans-Serif" font-size="10.00"> ComponentInterface,</text>
<text text-anchor="start" x="8" y="-28.25" font-family="Helvetica,sans-Serif" font-size="10.00"> detail::ComponentInterface</text>
<text text-anchor="start" x="8" y="-17" font-family="Helvetica,sans-Serif" font-size="10.00">InterfaceTraits &gt;::Trait</text>
<text text-anchor="middle" x="68.38" y="-5.75" font-family="Helvetica,sans-Serif" font-size="10.00">&lt; ConcreteOp &gt;</text>
</a>
</g>
</g>
<!-- Node3&#45;&gt;Node2 -->
<g id="edge2_Node000002_Node000003" class="edge">
<title>Node3&#45;&gt;Node2</title>
<g id="a_edge2_Node000002_Node000003"><a xlink:title=" ">
<path fill="none" stroke="#63b8ff" d="M148.64,-32.12C156.52,-32.12 164.5,-32.12 172.35,-32.12"/>
<polygon fill="#63b8ff" stroke="#63b8ff" points="148.73,-28.63 138.73,-32.13 148.73,-35.63 148.73,-28.63"/>
</a>
</g>
</g>
</g>
</svg>
