<?xml version="1.0" encoding="UTF-8" standalone="no"?>
<!DOCTYPE svg PUBLIC "-//W3C//DTD SVG 1.1//EN"
 "http://www.w3.org/Graphics/SVG/1.1/DTD/svg11.dtd">
<!-- Generated by graphviz version 12.2.1 (20241206.2353)
 -->
<!-- Title: tools/zklang/main.cpp Pages: 1 -->
<svg width="230pt" height="149pt"
 viewBox="0.00 0.00 229.88 149.00" xmlns="http://www.w3.org/2000/svg" xmlns:xlink="http://www.w3.org/1999/xlink">
<g id="graph0" class="graph" transform="scale(1 1) rotate(0) translate(4 145)">
<title>tools/zklang/main.cpp</title>
<!-- Node1 -->
<g id="Node000001" class="node">
<title>Node1</title>
<g id="a_Node000001"><a xlink:title=" ">
<polygon fill="#999999" stroke="#666666" points="111.25,-141 0,-141 0,-121.75 111.25,-121.75 111.25,-141"/>
<text text-anchor="middle" x="55.62" y="-127.5" font-family="Helvetica,sans-Serif" font-size="10.00">tools/zklang/main.cpp</text>
</a>
</g>
</g>
<!-- Node2 -->
<g id="Node000002" class="node">
<title>Node2</title>
<g id="a_Node000002"><a xlink:title=" ">
<polygon fill="#e0e0e0" stroke="#999999" points="148.12,-19.25 9.12,-19.25 9.12,0 148.12,0 148.12,-19.25"/>
<text text-anchor="middle" x="78.62" y="-5.75" font-family="Helvetica,sans-Serif" font-size="10.00">mlir/Support/LogicalResult.h</text>
</a>
</g>
</g>
<!-- Node1&#45;&gt;Node2 -->
<g id="edge1_Node000001_Node000002" class="edge">
<title>Node1&#45;&gt;Node2</title>
<g id="a_edge1_Node000001_Node000002"><a xlink:title=" ">
<path fill="none" stroke="#63b8ff" d="M41.4,-121.35C30.41,-113.46 16.04,-100.92 9.62,-85.75 4.34,-73.27 3.15,-67.16 9.62,-55.25 16.94,-41.8 30.25,-31.79 43.24,-24.69"/>
<polygon fill="#63b8ff" stroke="#63b8ff" points="44.71,-27.87 52.11,-20.29 41.6,-21.6 44.71,-27.87"/>
</a>
</g>
</g>
<!-- Node3 -->
<g id="Node000003" class="node">
<title>Node3</title>
<g id="a_Node000003"><a xlink:href="config_8h.html" target="_top" xlink:title=" ">
<polygon fill="white" stroke="#666666" points="92.88,-80.12 18.38,-80.12 18.38,-60.88 92.88,-60.88 92.88,-80.12"/>
<text text-anchor="middle" x="55.62" y="-66.62" font-family="Helvetica,sans-Serif" font-size="10.00">tools/config.h</text>
</a>
</g>
</g>
<!-- Node1&#45;&gt;Node3 -->
<g id="edge2_Node000001_Node000003" class="edge">
<title>Node1&#45;&gt;Node3</title>
<g id="a_edge2_Node000001_Node000003"><a xlink:title=" ">
<path fill="none" stroke="#63b8ff" d="M55.62,-121.43C55.62,-113.65 55.62,-102.08 55.62,-92.03"/>
<polygon fill="#63b8ff" stroke="#63b8ff" points="59.13,-92.04 55.63,-82.04 52.13,-92.04 59.13,-92.04"/>
</a>
</g>
</g>
<!-- Node4 -->
<g id="Node000004" class="node">
<title>Node4</title>
<g id="a_Node000004"><a xlink:href="_driver_8h.html" target="_top" xlink:title=" ">
<polygon fill="white" stroke="#666666" points="221.88,-85.75 111.38,-85.75 111.38,-55.25 221.88,-55.25 221.88,-85.75"/>
<text text-anchor="start" x="119.38" y="-72.25" font-family="Helvetica,sans-Serif" font-size="10.00">zklang/Frontends/ZIR</text>
<text text-anchor="middle" x="166.62" y="-61" font-family="Helvetica,sans-Serif" font-size="10.00">/Driver.h</text>
</a>
</g>
</g>
<!-- Node1&#45;&gt;Node4 -->
<g id="edge3_Node000001_Node000004" class="edge">
<title>Node1&#45;&gt;Node4</title>
<g id="a_edge3_Node000001_Node000004"><a xlink:title=" ">
<path fill="none" stroke="#63b8ff" d="M72.48,-121.43C87.49,-113.47 109.99,-101.54 129.23,-91.33"/>
<polygon fill="#63b8ff" stroke="#63b8ff" points="130.7,-94.52 137.89,-86.74 127.42,-88.34 130.7,-94.52"/>
</a>
</g>
</g>
<!-- Node4&#45;&gt;Node2 -->
<g id="edge4_Node000004_Node000002" class="edge">
<title>Node4&#45;&gt;Node2</title>
<g id="a_edge4_Node000004_Node000002"><a xlink:title=" ">
<path fill="none" stroke="#63b8ff" d="M144.87,-54.95C131.73,-46.15 115,-34.96 101.64,-26.02"/>
<polygon fill="#63b8ff" stroke="#63b8ff" points="103.71,-23.19 93.45,-20.54 99.81,-29.01 103.71,-23.19"/>
</a>
</g>
</g>
</g>
</svg>
